<svg id="Livello_1" data-name="Livello 1" xmlns="http://www.w3.org/2000/svg" viewBox="0 0 1157.01 1015"><defs><style>.cls-1{fill:#fff;}</style></defs><title>bkground-bianco</title><path class="cls-1" d="M763,0C808.73,27,868.6,72.18,916.12,144.28c26.17,39.71,53.55,81.26,59.55,140,8.59,84.06-36.84,102.65-31.9,193.09,1.39,25.45,5.29,96.77,59.55,150.65,15.39,15.28,28.67,21.45,43.74,25.15l1,.24,1.11.26c6.41,1.46,13.16,2.55,20.56,3.74l1.13.19,1.09.18c17.36,2.82,38.25,6.51,66.25,17.13q4.62,1.75,9.51,3.77l1.74.72h0q6.45,2.71,13.38,5.91c5,2.32,13.28,6.26,23.88,12,5.53,3,11.68,6.49,18.34,10.5,6.28,3.79,13,8,20,12.76l1.28.87q5.37,3.62,11,7.62l1.74,1.24c11.43,8.26,23.48,17.7,35.73,28.4q3.45,3,6.92,6.17a463.14,463.14,0,0,1,49.12,52c10.77,13.34,16.87,22.48,21.43,30.14,7.78,13.06,11.08,21.84,25.36,39.88q2,2.57,4.15,5.1c51.32,61.83,139.55,115.22,240.44,122.21,175.62,12.16,287.76-123.3,297.76-135.8V0Zm822.48,646.76-.16-1.5.16.11Z" transform="translate(-762.99)"/></svg>