<?xml version="1.0" encoding="utf-8"?>
<!-- Generator: Adobe Illustrator 23.0.1, SVG Export Plug-In . SVG Version: 6.00 Build 0)  -->
<svg version="1.1" id="Livello_1" xmlns="http://www.w3.org/2000/svg" xmlns:xlink="http://www.w3.org/1999/xlink" x="0px" y="0px"
	 viewBox="0 0 500.6 235.7" style="enable-background:new 0 0 500.6 235.7;" xml:space="preserve">
<style type="text/css">
	.st0{fill:#FA4133;}
	.st1{fill:#A9B1B9;}
	.st2{fill:#FEB200;}
	.st3{fill:#FE6300;}
	.st4{fill:#F1B68B;}
	.st5{fill:#FC7E17;}
	.st6{fill:#F0B49A;}
	.st7{fill:#010101;}
	.st8{fill:#020102;}
	.st9{fill:#AAB1B9;}
	.st10{fill:#080505;}
	.st11{fill:#FE6301;}
	.st12{fill:#F1B68C;}
	.st13{fill:#AAB2B9;}
	.st14{fill:#030202;}
	.st15{fill:#FEB303;}
	.st16{fill:#040303;}
	.st17{fill:#050404;}
	.st18{fill:#030303;}
	.st19{fill:#060506;}
	.st20{fill:#020101;}
	.st21{fill:#FEB103;}
	.st22{fill:#FCFCFC;}
	.st23{fill:#EDF6FC;}
	.st24{fill:#FEFEFE;}
	.st25{fill:#814701;}
	.st26{fill:#FA4233;}
	.st27{fill:#030201;}
	.st28{fill:#EDF5FB;}
	.st29{fill:#120F0D;}
	.st30{fill:#EDF5FA;}
	.st31{fill:#0A0808;}
	.st32{fill:#070606;}
	.st33{fill:#F9F9FA;}
	.st34{fill:#080606;}
	.st35{fill:#FDF9F7;}
	.st36{fill:#060505;}
	.st37{fill:#080707;}
	.st38{fill:#FDFAF8;}
	.st39{fill:#070707;}
	.st40{fill:#0C0908;}
	.st41{fill:#F94133;}
	.st42{fill:#F74032;}
	.st43{fill:#FEB407;}
	.st44{fill:#FEB508;}
	.st45{fill:#060606;}
	.st46{fill:#FDFDFD;}
</style>
<title>board..img</title>
<g>
	<path class="st0" d="M70.7,137.2c2.4,5,3.6,10.4,4.3,15.9c0.4,1.9,0.5,3.8,0.4,5.8c-0.1,2.1-0.2,4.2-0.6,6.3
		c-0.8,3.9-2.2,7.6-4.8,10.7c-0.4,0.5-0.9,0.9-1.5,1.1c-0.7,0.3-1.2,0.7-1.9,1c-1,0.4-1.2,0.7-0.5,1.5c1.1,1.4,2.2,2.8,3.4,4.2
		c0.3,0.4,0.7,0.8,0.7,1.3c0.7,1.5,1.3,3,2,4.5c2.3,4.6,3.2,9.6,3.6,14.6c0.6,8.4,1.2,16.8,1.8,25.2c0.1,1-0.2,1.2-1.1,1.2
		c-21.7,0-43.4,0-65.1,0c-1.1,0-1.2-0.3-1.1-1.3c0.2-5.4,0.4-10.9,1.1-16.3c0.9-7.2,2.2-14.3,5.5-20.8c0.7-1.4,1.6-2.8,2.6-4
		c0.7-0.9,0.8-1.6-0.1-2.5c-1.3-1.2-1.4-1.9-0.6-3.5c0.2-0.3,0.3-0.6,0.6-1c-0.6-0.2-1.1-0.4-1.7-0.6c-1.3-0.5-1.9-1.6-1.8-2.9
		c0.2-1.5,1.1-2.5,2.6-2.6c1.5-0.1,3-0.1,4.6-0.1c0.4,0,0.6,0.3,0.7,0.5c1.4,2.3,3.5,3.1,6,2.8c1.5-0.2,2.9-0.2,4.4-0.2
		c1.4,0,1.5-0.1,1.5-1.5c0-1.5,0-3,0-4.6c0-3.6,0.5-7.2,1.3-10.7c0.1-0.5,0.2-0.9,0.6-1.3c0.8-0.3,1,0.4,1.3,0.9
		c1.5,3,3.1,5.9,4.6,8.8c1.2,2.3,2.6,4.4,4.6,6.2c3.8,3.3,8.8,2.6,12,0c1.6-1.3,3.1-2.8,4.1-4.6c0.3-0.6,0.8-0.8,1.4-1
		c1.8-0.5,2.8-1.8,3.4-3.6c1.2-4,1.5-8.1,2-12.1c0.1-1.1-0.6-1.2-1.3-1.2c-1.6-0.1-3.3,0-4.9,0c-0.5,0-1.1,0.1-1.5-0.3
		c0-0.2,0.2-0.3,0.4-0.4c2-0.3,4-0.1,6-0.1c0.8,0,1.6,0.1,1.7-1c0-0.9-0.7-1.8-1.7-1.8c-1.2-0.1-2.5,0-3.7,0c-0.5,0-1,0.1-1.5-0.2
		c-0.2-0.1-0.3-0.3-0.2-0.5c0.4-2,0.8-4,1.7-5.9c0.4-0.3,0.8-0.3,1.2-0.4c1.2-0.3,1.3-0.6,0.9-1.8c-0.3-0.8-0.7-1.6-1-2.4
		c0.2-1.5,0.3-3.1,1.2-4.5c0.2,0,0.3,0,0.4,0.1C69.3,134.8,70.2,135.9,70.7,137.2z"/>
	<path class="st0" d="M268.8,5c1.2,0,2.2-0.1,3.1,0c4.1,0.3,7,3.3,7.2,7.4c0.3,5.9,0.5,11.8,0.7,17.7c0.2,5.5,0.4,11,0.6,16.5
		c0,1,0,2.1-0.1,3.1c-0.6,4.2-3.2,6.6-7.6,6.9c-5.9,0.3-11.8,0.5-17.7,0.7c-1.4,0-2.4,0.6-3.2,1.7c-2.2,2.9-4.3,5.8-6.5,8.7
		c-1.3,1.7-1.9,1.7-3.3,0.1c-2.4-2.7-4.8-5.5-7.2-8.2c-1-1.1-2.2-1.4-3.7-1.3c-5.8,0.3-11.6,0.5-17.4,0.6c-5.3,0-8.1-2.5-8.4-7.8
		c-0.3-6.9-0.5-13.9-0.8-20.8c-0.2-4.9-0.5-9.9-0.6-14.8c-0.1-4.4,3-7.6,7.4-8c2.2-0.2,4.4-0.2,6.6-0.3c10.4-0.4,20.8-0.8,31.1-1.2
		C255.7,5.6,262.4,5.2,268.8,5z"/>
	<path class="st1" d="M97.3,16.7c-0.1,2-0.6,4.9-1.3,7.8c-1,4.3-1.2,8.8-2.1,13.1c-0.7,3.5-1.2,7.1-2,10.6c-0.6,2.8-3.7,5.4-7.2,4.9
		c-5.2-0.7-10.3-1.8-15.4-2.6c-1.5-0.2-2.7,0-3.9,1.1c-2.2,2.1-4.6,4-6.9,6c-1.1,1-1.9,0.8-2.6-0.4c-1.5-2.7-2.9-5.3-4.4-8
		c-0.7-1.4-1.8-2.1-3.4-2.3c-5.1-0.7-10.2-1.6-15.2-2.6c-2.8-0.6-4.7-3.1-4.9-5.9c-0.2-2.9,0.6-5.6,1.1-8.4
		c1.2-7.2,2.5-14.4,3.8-21.5c0.2-1.3,0.4-2.7,0.9-3.9c1.4-3.2,4.3-4.7,7.8-4.1c5.8,1.1,11.7,2,17.5,3.1c5.6,1,11.2,2,16.8,2.9
		C81,7.1,85.8,8,90.7,8.8c0.9,0.2,1.7,0.4,2.5,0.7C96.1,10.8,97.3,12.7,97.3,16.7z"/>
	<path class="st2" d="M454.3,60.9c0.1,3-1.5,4.9-4.1,6c-2.9,1.3-5.9,1.9-8.9,2.9c-2.1,0.7-4.1,1.2-6.2,1.8c-1.4,0.4-2.2,1.2-2.7,2.6
		c-1.1,2.9-2.3,5.7-3.5,8.5c-0.7,1.6-1.2,1.7-2.6,0.6c-2.1-1.6-4.4-2.9-6.5-4.6c-2.1-1.7-4.5-1.4-6.8-0.5c-4.1,1.7-8.3,2.7-12.6,3.7
		c-4.4,1.1-7-0.5-8.4-4.8c-3-9.3-5.8-18.7-8.6-28c-0.3-0.9-0.6-1.8-0.7-2.8c-0.4-3.2,1.7-6,5.2-7.1c4.9-1.5,9.8-3,14.7-4.4
		c11-3.3,22-6.9,33.1-10.1c5.1-1.4,8.2,0.4,9.8,5.4c2.8,8.9,5.3,17.8,8.1,26.6C454,58.2,454.3,59.5,454.3,60.9z"/>
	<path class="st3" d="M241.1,207.8c1.4,6.3,3.2,12.5,4.4,18.8c0.1,0.7,0.3,1.4,0.4,2.1c0.3,1.7,0.3,1.7-1.5,1.7
		c-10.6,0-21.2,0-31.8,0c-0.2,0-0.4-0.1-0.6-0.1c-0.6-0.7-0.2-1.5,0-2.2c1.8-5.4,4.1-10.6,7-15.5c1.5-2.4,2.9-4.9,4.2-7.4
		c0.9-1.6,2.2-3,3.2-4.5c1.6-2.3,3-4.7,3.9-7.4c2.4-7.1-4.1-12-9.9-11c-2.2,0.4-3.9,1.9-5.4,3.6c-1.7,2-3.2,4.2-4.3,6.6
		c-1,2.1-2.8,3.6-4.3,5.3c-1.5,1.7-3,3.4-4.6,5c-2.2,2.2-3.4,5-4.5,7.9c-0.7,1.9-1.4,3.8-1.8,5.7c-0.2,0.7-0.4,1.5-1.2,1.6
		c-1.8,0.3-3.5,0.8-5.3,0.3c-0.5-0.8-0.5-1.7-0.7-2.5c-0.6-2.4-1.7-4.5-3.3-6.3c-0.8-0.9-1-0.9-1.9-0.1c-3.3,3-6.6,5.9-10.3,8.4
		c-0.5,0.3-0.9,0.7-1.6,0.9c-1.4,0.1-2.8,0.1-4.2,0c-3.1-0.1-6.2,0.3-9.3,0.5c-2-0.8-4.2-1.4-6-2.7c-1.2-2.4-1.9-4.9-2.9-7.4
		c-0.8-2-1.5-4.1-2.3-6.2c-0.7-1.6-1.5-2.2-3.2-2.1c-3.5,0.1-7.1,0-10.7,0c-0.4,0-1,0.1-1.2-0.4c0-1.3-0.6-2.5-1.4-3.5
		c-3.2-3.6-5.4-7.9-8.3-11.8c-0.7-0.9-0.8-2-0.6-3.1c1.4-2.2,3.4-3.6,5.7-4.5c0.9-0.4,1.8-1.1,2.9-0.7c2.2,2,4.1,4.3,5.8,6.8
		c1.2,1.7,2.8,3.1,4.2,4.7c0.2,0.2,0.4,0.5,0.6,0.8c0.3,0.5,0.6,1,1,1.5c4.3,5.6,7.8,11.8,12.6,17c1,1,1.3,1.1,2.3,0.1
		c3.2-3.3,7.2-5.7,10.9-8.4c2.5-1.8,5.2-3.4,7.5-5.4c3-2.6,6.3-5,9.8-7.1c1.4-0.8,3-1.1,4.5-1.5c0.8-0.1,0.9,0.5,1.1,1
		c0.5,1.2,0.8,2.5,1,3.8c0.9,4.3,3,7.9,5.9,11.1c0.9,1,1.6,0.9,2.1-0.4c1.1-2.6,2.2-5.2,3.4-7.8c1.7-3.5,4-6.4,7.1-8.8
		c1.5-1.1,2.8-2.5,4.2-3.8c0.4-0.3,0.7-0.8,1.2-1c1.3-0.2,2.6-0.2,3.9,0.1c1.9,0.6,3.8,0.8,5.7,1.1c0.1,0,0.2,0,0.4,0.1
		c2.6,0.7,4.6,2.3,6.2,4.4c2.1,2.8,3.7,5.8,5.1,8.9c1.8,4.1,3.3,8.3,4.7,12.6C241.2,207.2,241.2,207.5,241.1,207.8z"/>
	<path class="st2" d="M17.8,113.7c0.4-0.2,0.7-0.5,1.1-0.7c2.8-1.1,5.6-2.1,8.6-2.6c0.3,0.1,0.5,0.3,0.6,0.5
		c1.7,2.5,3.7,4.8,5.9,6.9c0.1,0.1,0.3,0.3,0.4,0.5c0.3,0.8,0.5,1.6,0.6,2.4c0.2,1.4,1.2,2.3,2.1,3.2c0.3,0.3,0.6,0.2,0.7-0.2
		c0.1-0.4,0.2-1,0.8-1c1.6,0.7,2.8,1.9,4.2,2.9c3,2.1,6.1,4,9.7,4.7c3.7,0.7,5.7-0.4,7.1-3.8c0.1-0.2,0.1-0.4,0.2-0.6
		c0.2-0.4,0.3-1.2,0.9-1.1c0.6,0,0.7,0.7,0.9,1.2c0.7,1.9,0.6,3.9,0,5.8c-1.2,3.8-2.8,7.4-4.4,11c-0.1,0.2-0.2,0.4-0.4,0.6
		c-1.2,0.3-2.4-0.2-3.7-0.1c-0.3,0-0.6-0.2-1.1,0c0.2,0.7,0.6,1.2,1,1.8c0.6,1,1.5,1.8,1.7,3c-0.5,2.4-1.5,4.5-2.3,6.8
		c-1.2,3.3-2.5,6.6-3.6,9.9c-1.1,4.6,1.7,8.5,4.5,9.7c3,1.3,5.7,0,6.8-3.1c0.7-2.1,0.4-4.1-0.3-6.1c0.1-1.6,0.3-3.2,0.9-4.8
		c0.2-0.4,0.3-0.9,0.7-1.2c0.9-0.1,1.3,0.6,1.6,1.2c1,1.6,1.3,3.4,1.5,5.3c0,0.5,0,1,0,1.4c0.1,2.6-0.6,4.8-2.5,6.6
		c-2.1,2-4.4,3.7-7.3,4c-3.3,0.3-5.8-1.3-7.9-3.5c-1.4-1.4-2.3-3.1-3.2-4.9c-2.9-5.7-5.9-11.4-9-17.1c-2.3-4.1-5.6-7.1-9.8-9.2
		c-4.8-2.3-7.5-6.3-8.8-11.3c-0.7-2.8-1.3-5.6-1.5-8.5c-0.1-2,0.1-4,0.7-5.9c0.6-1.7,1.3-3.2,3.6-3.1C18.5,113.9,18,114,17.8,113.7z
		"/>
	<path class="st1" d="M306.8,185.3c0.3,0,0.7-0.1,0.9,0c3.3,1.2,6.1,2.9,7.4,6.4c1.9,5.3,3.9,10.6,7.1,15.4c1.9,2.9,2.4,6.2,1.6,9.6
		c-0.2,1.1-1,1.7-1.8,2.4c-1.8,1.5-2.2,3.3-1.8,5.5c0.3,1.8,0.3,3.6,0.5,5.4c0.1,0.6-0.2,0.7-0.7,0.5c-10.8,0-21.6,0-32.5,0
		c-0.4,0-0.8,0-1.1,0.3c-0.9-1.3-1.2-2.9-1.7-4.3c-0.8-2.1-1.4-4.2-2.2-6.2c-0.7-1.9-0.6-3.6,0.1-5.5c1.7-4.4,3.4-8.8,5-13.2
		c1-2.9,1.3-6,0.5-9.1c-0.7-2.7-2.4-4.3-5.1-5c-0.4-0.1-0.8,0-0.9-0.5c1.2-1,2.6-1.2,4.1-1.2c2.1,3.1,4.6,5.7,7.5,8
		c3.5,2.9,7.2,5.6,11.4,7.4c1.1,0.5,2.3,0.8,3.5,0.8c2.3,0,3.5-1.5,3.2-3.8c-0.4-2.2-1.2-4.2-2.1-6.2c-0.8-1.7-1.7-3.4-2.6-5.1
		C306.9,186.2,306.5,185.8,306.8,185.3z"/>
	<path class="st3" d="M203.2,230.4c-0.6,0.3-1.3,0.1-1.9,0.1c-9.9,0-19.7,0.2-29.6-0.1c-4.1-0.1-8.3-0.5-12.2-1.9
		c-1-1-1.2-2.2-1.3-3.5c-0.1-1.5,0.1-3-0.2-4.4c-0.1-0.7,0.3-1.1,1-1.2c4.5-0.4,9.1-0.8,13.6-0.1c3.2,0.5,6.4,0.3,9.7,0.1
		c3.7-0.2,7.4-0.6,11.1-0.9c1.6-0.2,1.9-0.4,2.3-1.9c1-3.8,2.3-7.6,4.4-11c0.8-1.4,1.8-2.6,3.1-3.7c1.6-1.5,2.9-3.3,4.4-4.9
		c2-2,3.4-4.4,4.8-6.8c1.3-2.3,3-4.3,5-6c4.7-3.9,12.1-0.6,13.3,4.9c0.3,1.5,0,2.9-0.4,4.3c-0.8,2.7-2,5.1-3.8,7.3
		c-2.2,2.8-4,5.8-5.7,8.9c-2.1,3.9-4.4,7.5-7.5,10.6c-3,3-5.6,6.3-8.7,9.2C204.2,229.7,203.7,230.1,203.2,230.4z"/>
	<path class="st0" d="M240.8,207c-1.9-5.2-3.6-10.6-6.1-15.5c-1.1-2.2-2.3-4.3-3.8-6.2c-1.5-1.9-3.5-3.4-5.9-4.1
		c1-2.7,1.6-5.5,2.4-8.3c1.2-4.1,2.2-8.3,2.6-12.5c0.3-2.8,0.2-5.6,0.1-8.4c-0.2-4.8-1-9.5-1.4-14.3c-0.1-1.8-0.6-3.5-0.9-5.2
		c0.1-1.9-0.3-3.7-0.7-5.5c-0.1-0.6-0.4-1.2,0-1.7c0.5-0.4,0.7-1.2,1.4-1.5c1-0.1,1,0.7,1.1,1.2c0.6,3.1,1.1,6.3,1.6,9.4
		c0.2,1.2,0.8,2.3,1,3.5c-0.2,0.7-0.3,1.5-0.1,2.2c0.7,3.6,1,7.2,1.3,10.8c0.1,1.3,0.8,2.3,2,2.8c4.9,2,9.9,3.5,15.2,3.3
		c1.6,0,3.3-0.2,4.9-0.6c1.3-0.3,1.6-0.8,1.1-2.1c-1.4-4.2-3-8.4-5.2-12.3c-1.4-3.2-3.1-6.2-5.2-9.1c-1.6-2.3-3.1-4.6-4.6-6.9
		c-0.4-0.7-0.9-1.3-1-2.2c0.1-0.3,0-0.7,0.5-0.9c1.5,0.8,2.2,2.3,3.5,3.3c1.4,1.3,2.2,3,3.4,4.4c1.5,1.8,2.6,3.8,3.8,5.8
		c2.1,3.3,4.1,6.7,5.8,10.3c0.5,1.2,0.8,2.5,1.8,3.4c1.7,4.6,2.6,9.3,2.8,14.1c0.2,3.3-0.1,6.5-0.7,9.8c-0.2,1.1-0.2,2.1,0,3.2
		c-0.7,1.9-1.8,3.6-2.5,5.5c-0.3,0.9-0.6,1.7-1.1,2.5c-0.7,0.9-1.7,1.5-2.5,2.3c-0.9,1-1,1.8,0,2.8c4.1,4.3,6.4,9.6,7.8,15.3
		c0.1,0.6,0.7,1.3-0.3,1.7c-6.4-0.6-12.8-0.1-19.2-0.3C242.8,207.2,241.8,207.4,240.8,207z"/>
	<path class="st0" d="M429.1,230.4c-0.2-2.9,0.3-5.7,0.7-8.5c0.7-4.6,1.6-9.1,3.3-13.5c0.3-0.6,0.9-0.8,1.4-1
		c1.8-0.9,3.7-1.7,5.5-2.5c0.4-0.2,0.9-0.4,1.4-0.2c0.2,0.1,0.4,0.2,0.6,0.3c5.6,3.7,13.6,1.6,15.4-6.8c0.3-1.5,0.3-3,0.3-4.5
		c-0.1-3.5,0.3-6.9,1.3-10.2c0.2-0.7,0.3-1.4,0.9-1.9c0.2-0.1,0.4-0.1,0.5-0.1c0.6,0.2,0.9,0.7,1.3,1.2c1.3,1.7,2.3,3.5,3.3,5.4
		c2,3.6,4.1,7.2,5.7,11c0.1,0.3,0.3,0.6,0.3,0.9c-0.5,3.5-0.8,7-1.1,10.5c-0.4,5.3-1,10.5-0.4,15.8c0.1,1,0.4,2,0.7,3
		c0.1,0.4,0.5,0.8,0,1.2c-13.5,0-27,0-40.6,0C429.4,230.5,429.2,230.5,429.1,230.4z"/>
	<path d="M228.9,119.7c-2.2-0.8-4.3-0.3-6.5,0.2c-2,0.5-4,0.7-6.1,0.6c-1.5-0.1-2.1-0.8-1.4-2.2c1.6-3.4,1.2-6.8,0.1-10.2
		c-0.6-1.9-1.2-3.7-1.3-5.7c-0.1-2.5,0.7-4.7,2.4-6.6c2.3-2.4,3.5-5.1,3.7-8.5c0.1-2.3,1.6-3.9,3.6-4.9c1.9-1.1,4.1-1.4,6.3-1.1
		c4.1,0.4,8.1,0.2,12.1-1.1c2.1-0.7,4.3-0.9,6.5-0.3c2.6,0.7,4,2.4,4,5.1c0,0.3,0,0.6,0,0.8c0,2,0,2,1.8,2.7
		c1.5,0.5,2.5,1.5,3.2,2.9c1.4,2.8,1.3,5.7,0.8,8.7c-0.4,2.4-0.8,4.9-1,7.3c-0.3,2.6,0.2,5.2,0.8,7.7c0.4,1.7,0.4,1.7-1.3,2.4
		c-2.8,1.1-5.7,1.5-8.7,1.3c-0.4-0.5,0-0.9,0.2-1.3c1.9-3.2,2.6-6.7,2.3-10.4c-0.1-1.3,0.3-2.5,0.2-3.8c-0.1-2.1-0.7-2.7-2.8-2.5
		c-0.2,0-0.5,0.1-0.7,0c-0.2,0-0.4-0.1-0.4-0.3c0-0.2,0.1-0.4,0.3-0.5c0.7-0.5,1.4-0.5,2.2-0.4c1.4,0.1,1.7-0.2,1.7-1.6
		c0-2,0.1-3.9-0.2-5.9c-0.2-1.2-0.6-1.6-1.8-1.3c-2.5,0.6-4.1,2.2-5.1,4.5c-0.6,1.5-1.2,3-2.3,4.2c-1.3,1.4-3,2-4.8,2
		c-2,0.1-3.8,0.7-5.4,1.7c-0.8,0.5-1.6,0.7-2.6,0.4c-1.3-0.4-2,0.3-1.7,1.7c0.2,1.4,1,2.4,2,3.3c1,0.9,1.5,1.7,1.3,3.2
		c-0.3,2.1-0.2,4.3-0.6,6.4C229.5,118.8,229.5,119.4,228.9,119.7z"/>
	<path class="st2" d="M228.1,132.5c1,3.1,1,6.4,1.4,9.5c0.7,5.4,1.2,10.9,1,16.3c-0.2,4.6-1.3,9-2.5,13.5c-0.8,2.8-1.7,5.6-2.3,8.5
		c-0.1,0.5-0.1,0.9-0.8,0.8c0,0,0,0,0,0c-2-0.5-4-0.5-6-1.2c-1.4,0-2.7,0-4.1,0c-1.7-0.4-3.4-0.4-4.7-1.9c-0.2-1.3-0.8-2.2-2.1-2.4
		c-1.2-1.4-1.7-3.1-1.8-5c1-2.2,1.3-4.5,0.6-6.8c0-0.6,0.2-1.2,0.4-1.7c0.7-1.4,0.7-2.7-0.1-4c0.5-3.9,0.5-7.8,1.7-11.6
		c0.5-1.6,0.4-3.2-0.9-4.4c-0.3-0.3-0.5-0.6-0.5-1.1c0.2-1.2-0.2-2.3-0.9-3.3c-0.1-0.2-0.2-0.4,0-0.7c1.7-3.1,3.9-5.9,6.9-7.6
		c2.9-1.7,6.1-3,9.5-3.5c0.4-0.2,0.7,0,0.9,0.4C225.1,128.7,226.8,130.5,228.1,132.5z"/>
	<path d="M36.9,101c-2-1.4-2.8-3.5-3.2-5.8c-0.3-1.9-0.9-3.6-2-5.2c-1.8-2.6-2.1-5.5-1.5-8.5c0.2-1.1,0-1.7-1.2-2.2
		c-2.7-1-4-3.8-3.6-7.3c0.6-5,4.2-8.5,9.2-9c2.3-0.2,4.2,0.7,5.7,2.5c0.7,0.8,1.4,1.1,2.4,0.4c6-4,12.3-4,18.8-1.6
		c1.8,0.7,3.6,1.4,5.2,2.3c2.7,1.5,3.4,3.3,2.7,6.3c-0.5,1.9-0.5,1.9,1.1,3.1c2,1.5,2.3,3.1,0.8,5.1c-1.8,2.4-4.2,3.9-7.2,4.6
		c-0.6-0.6-0.2-1.3-0.1-1.9c0.1-0.6,0.4-1.2-0.2-1.7c-0.6-0.4-1.1-0.2-1.7,0c-1,0.3-1.9,0.8-2.8,1.4c-3.2,2.4-6.9,3.5-10.8,4
		C46,88,43.5,88,41.1,88.5c-1.2,0.3-2.4,0.2-3.5-0.5c-0.9-0.5-1.4-0.2-1.6,0.8c-0.2,1.1-0.1,2.2,0.5,3.2c1.5,2.4,2.5,5.1,4.3,7.3
		c2.3,2.8,4.8,5.3,7.9,7.3c0.4,0.3,1.2,0.5,0.9,1.3c-0.3,0.3-0.5,0.5-0.8,0.8c0,0.7,0,1.3-0.3,1.9c-0.4,0.2-0.7,0.1-1-0.1
		c-3.3-2.1-6.3-4.5-8.2-8c-0.4-0.8-0.8-1.7-0.9-2.6C37.7,100.2,37.8,101.3,36.9,101z"/>
	<path class="st2" d="M387.2,186.2c6.6-4.7,11.2-11,14.5-18.4c1.1-2.6,3.2-4.8,4.9-7c1.6-2.1,3.3-4,5.5-5.5c0.7-0.5,1.1-1.3,1.7-2
		c2-2.5,4.1-4.9,6.9-6.5c0.3-0.2,0.6-0.3,0.9-0.4c0.7,0.1,0.5,0.7,0.5,1.1c-0.1,1.2-0.2,2.5-0.6,3.7c-1.1,3.3-1.2,6.8-1.4,10.3
		c-0.2,4.1,0,8.2,0.5,12.3c0.1,0.7,0.3,1.4,0.6,2.1c0.4,0.9,0.7,1.9,0.7,2.9c0,0.2-0.1,0.4-0.2,0.6c-2.1,3-3.9,6.2-6.5,8.8
		c-4,3.9-8.2,7.6-12,11.7c-0.1,0.1-0.1,0.1-0.2,0.1c-1.6,0-3.2-0.7-4.8-1c-1.9-0.4-3.9-0.8-5.8-1.3c-0.4-0.2-0.7-0.5-0.9-0.9
		c-1.1-2.9-2.7-5.6-4-8.4C387.2,187.5,386.8,186.9,387.2,186.2z"/>
	<path d="M290.7,180.2c-0.3-0.2-0.7-0.4-1.1-0.5c-2.2-0.5-3.5-1.9-3.9-4.2c-0.2-1.4-0.9-2.2-2.2-2.7c-2.5-0.9-4-2.7-4.1-5.4
		c-0.2-5.5-0.1-11.1,0.8-16.6c1.5-9.1,9.5-13.4,18.1-11c1.9,0.5,3.7,0.8,5.7,0.7c1.7-0.1,3.4,0.1,4.9,0.9c1.4,0.7,2.7,1.6,3,3.5
		c0.1,1,0.6,1.9,1.4,2.6c2.2,2.1,2.9,4.9,3.3,7.7c0.7,4.4,0.9,8.8,0.5,13.2c-0.3,2.4-0.2,5-1,7.3c-0.2,0.7-0.1,1.4-0.2,2.1
		c-0.3,1.8-1.4,2.4-3.1,2c-1.5-0.3-2.5-1.3-3.6-2.3c-0.3-0.5,0-0.9,0.2-1.3c1.9-3.6,2.2-7.5,1.7-11.4c-0.2-1.4-0.1-2.8-0.3-4.2
		c-0.2-1.7-0.8-2.2-2.5-2.1c-0.3,0-0.6,0.1-0.8,0.1c-0.4,0-0.9,0.1-1-0.4c-0.1-0.5,0.5-0.6,0.8-0.7c0.6-0.2,1.2-0.1,1.8,0
		c1.2,0.1,1.7-0.4,1.6-1.6c-0.1-0.9-0.4-1.8-0.6-2.7c-0.2-0.6-0.5-0.9-1.2-0.7c-2,0.6-4.1,0.9-6.1,1.8c-1.2,0.6-2.2,1.3-2.9,2.4
		c-0.4,0.5-0.6,1,0.3,1.2c0.2,0,0.4,0.1,0.5,0.3c0.4,0.4,0.4,0.7-0.2,0.9c-0.3,0.1-0.7,0.1-1.1,0.2c-1.4,0.2-2.5,0.8-3.4,1.8
		c-0.6,0.7-1.2,1.1-2.1,1.2c-1.1,0.2-1.8,0.9-2,2c-0.5,2.9-1,5.8-0.6,8.8c0.2,1.8,0.5,3.6,0.7,5.5
		C292.4,180,291.9,180.4,290.7,180.2z"/>
	<path class="st4" d="M36.9,101c0.9-0.2,0.9-1.2,1.6-1.8c0.5,3.7,2.9,6.1,5.5,8.4c1.4,1.2,2.9,2.3,4.5,3.1c1.4,0.5,2,1.9,2.9,2.9
		c2.4,2.6,4.4,5.6,6.4,8.5c0.1,0.1,0,0,0.1,0.1c1.3,1.8,1.8,1.9,3.5,0.5c1.8-0.6,3.1-1.7,4.4-3c1.2,0.8,2.5,0.9,3.8,0.7
		c1-0.2,2-0.1,3-0.2c0.3,0,0.6,0,0.7,0.3c0.1,0.4-0.3,0.5-0.6,0.7c-1.2,0.6-2.5,1-3.9,1c-0.4,0-0.9-0.1-0.9,0.5
		c0,0.5,0.3,0.7,0.7,0.8c0.1,0,0.2,0.1,0.2,0.1c0.9,0.1,1.9-0.1,2.3,0.9c0.4,1.3,0.7,2.7,0.1,4.1c-0.5,1-1.3,2-1.4,3.2
		c-0.3,0.8-1.1,1.3-1.5,2c-0.5,1.5-0.8,3-1.1,4.6c-0.2,1.6-0.5,3.1-1.2,4.5c-0.7,2-1.2,4-1.6,6.1c-0.6,1.2-0.6,2.4-0.8,3.7
		c-0.1,0.1-0.2,0.2-0.2,0.2c-0.9,1.9-1.3,3.9-1.4,6c0,0.2-0.1,0.4-0.2,0.5c-1.2,1.8-1.2,4-1.5,6c-0.7,3.3-3,5.4-6.1,5.4
		c-2.9,0-5.5-2.7-5.4-5.6c0-0.2,0.1-0.4,0-0.6c2-5.5,4.1-11,6.1-16.5c0.9-1.5,1.2-3.2,2.1-4.7c1.6-3.8,3.3-7.5,4.6-11.4
		c0.8-2.4,0.7-4.7-0.5-7c-0.4,0.2-0.4,0.7-0.5,1c-1.5,4.2-3.6,5.8-8.9,4.5c-3.3-0.8-6.1-2.5-8.8-4.5c-1.4-1-2.8-2-4.1-3
		c-0.4-0.2-0.5-0.6-0.7-1c-1.6-4.5-2.7-9.1-3.4-13.8c0-0.1,0-0.2,0-0.4C35.7,105.6,36.8,103.5,36.9,101z"/>
	<path class="st5" d="M421.5,178.9c-0.2-1.1-0.3-2.2-0.9-3.2c-0.7-1.2-0.6-2.6-0.7-3.8c-0.4-5.3-0.4-10.5,0.1-15.8
		c0.2-2.4,1.1-4.6,1.4-6.9c0.1-0.9,0.6-1.9,0.1-2.9c0.5-0.5,1-1,1.3-1.6c0.6,0,0.5,0.5,0.7,0.8c0.3,0.7,0.5,1.5,0.9,2.2
		c0.5,1.8,1.1,3.6,1.5,5.4c0.2,0.9,0.7,1.6,1.6,1.7c1,0.2,1.6-0.4,2-1.2c2-3.2,3.8-6.6,5.8-9.8c0.7-1.1,1.1-2.4,2.3-3.1
		c1.4,1.1,2.2,2.5,2.8,4.1c0.3,0.8,0.7,1.7,1,2.6c0.5,1.5,1.1,2.9,2.2,4.1c0.4,2.1-0.1,4.2-0.2,6.3c-0.3,4.1-0.8,8.3-1.1,12.4
		c-0.2,2.8-1.4,5.1-2.6,7.5c-0.3,0.6-0.9,0.8-1.4,1c-2.8,0.9-5.3,2.4-8,3.5c-0.6,0.2-1.2,0.6-1.1,1.4c0,0.8,0.1,1.6,1,2
		c0.3,0.1,0.6,0.3,0.6,0.8c0.1,2.9,1.9,4.9,3.6,7c0.4,0.4,0.8,0.7,1,1.3c-0.5,1.2-1.7,1.6-2.7,2c-0.5,0.2-1.1,0.4-1.7,0.3
		c-1.2-0.9-1.8-2.3-2.5-3.6c-2.6-4.4-4.7-9-6.7-13.7C421.6,179.5,421.5,179.2,421.5,178.9z"/>
	<path class="st6" d="M228.9,119.7c1-2.3,0.7-4.9,0.9-7.3c0-0.4-0.1-0.9,0.1-1.2c0.4-0.8,0-1.3-0.5-1.7c-1.3-1.1-2.3-2.4-2.8-4.1
		c-0.2-0.8,0-1.5,0.4-2c0.5-0.5,1.2-0.3,1.8-0.1c0.5,0.2,1,0.5,1.5,0.1c2.2-1.6,4.7-2.2,7.4-2.4c2.3-0.1,3.8-1.5,4.8-3.5
		c0.4-0.8,0.7-1.6,1-2.4c1-2.7,2.9-4.3,5.8-4.8c1.1-0.2,1.7,0.3,1.7,1.4c0.1,2.2,0.2,4.4,0.2,6.6c0,1.4-0.4,1.7-1.7,1.5
		c-1-0.1-1.9-0.1-2.8,0.5c0.3,0.3,0.5,0.2,0.8,0.1c0.3,0,0.5-0.1,0.8-0.2c1.6-0.2,2.7,0.4,2.6,2c-0.1,3.7,0.2,7.4-0.7,11
		c-0.3,1.2-0.9,2.2-1.4,3.3c-0.3,0.7-0.8,1.4-0.9,2.2c-1.9,0.8-3.8,1.6-5.8,1.7c-0.3,0.2-0.6,0-0.9-0.1c-4.2-1.8-7.5-4.8-10.1-8.1
		c0.4,0.9,0.9,2.1,1.7,3.2c0.7,1.1,1.5,2.2,2.3,3.2c1.3,1.6,3,2.9,4.7,4.1c0.5,0.3,1.1,0.5,1.3,1.2c1.9,4,4.9,7.4,7.1,11.2
		c1.3,2.2,2.8,4.3,3.5,6.7c-0.6,2.5-3.7,4.3-6.7,3.9c-1.9-0.3-3.6-0.9-5.3-1.8c-2.8-1.6-5.2-3.6-7.4-5.9c-1.4-2.2-1.4-4.8-1.9-7.3
		c-0.4-2-0.7-4-1-6c-0.1-0.4-0.2-0.8-0.7-0.8c0.2-0.2,0.6-0.3,0.5-0.7C229,121.9,229.3,120.8,228.9,119.7z"/>
	<path class="st6" d="M290.7,180.2c1.2-0.2,1.4-0.4,1.1-1.8c-1-4.5-1.1-9.1-0.1-13.7c0.4-1.9,0.7-2.2,2.7-2.6
		c0.4-0.1,0.9-0.2,1.1-0.6c1.3-1.9,3.2-2.6,5.5-2.5c-0.3-0.6-0.8-0.7-1.3-0.7c-0.9,0-0.8-0.4-0.5-1c1-2,2.8-3.2,4.8-3.8
		c1.7-0.5,3.4-1,5.1-1.4c0.5-0.1,0.9,0,1.1,0.6c0.3,1.2,0.7,2.3,0.9,3.5c0.2,1.3-0.7,2.2-2,1.8c-0.8-0.3-1.7-0.3-2.5,0.4
		c0.1,0.3,0.4,0.3,0.6,0.2c0.2,0,0.4-0.1,0.6-0.2c2.1-0.5,3.3,0.4,3.4,2.5c0.1,2.3,0.3,4.5,0.4,6.8c0.2,3.1-0.3,6-1.9,8.7
		c-0.2,0.4-0.3,0.9-0.5,1.3c-1,0.5-2,1-3,1.5c-0.8,0.5-1.7,0.7-2.6,0.6c-0.4,0-0.8-0.1-1.1,0.3c-0.4,0.3-0.9,0.2-1.4,0.1
		c-3.3-0.6-6.1-2.3-8.7-4c2.5,2.7,5.8,4.4,9.3,5.7c0.3,0.1,0.7,0.2,0.9,0.5c0.1,1.3,0.8,2,2.1,2.3c0.7,0.1,1.3,0.3,2,0.4
		c1.3,2.7,2.6,5.3,3.8,8c0.6,1.4,1.1,2.8,1.3,4.3c0.6,3.1-1.3,5-4.5,4.4c-2.3-0.5-4.5-1.4-6.5-2.7c-4.2-2.7-8.2-5.6-11.6-9.3
		c-1-1.1-2-2.3-3-3.4c-0.2-0.3-0.5-0.6-0.2-1c0.5-0.1,1.1-0.2,1.6-0.3c2.1-0.3,3.2-1.8,2.9-3.9C290.6,181,290.5,180.6,290.7,180.2z"
		/>
	<path d="M131.6,200.7c3.9,0,7.7,0,11.6,0c2.2,0,3.2,0.6,4,2.7c1.7,4.4,3.3,8.9,5,13.3c0.6,0.8,1,1.6,1.3,2.5c0.5,1.4,0,2.2-1.5,2.5
		c-1.7,0.4-3.4,0.2-5.1,0.3c-1.7,0-2,0.4-1.7,2.1c0,0.2,0.1,0.4,0.1,0.6c0.7,3.7,1.6,4.3,5.3,4.6c1.9,0.2,3.7-0.1,5.5-0.1
		c0.4,0,0.7-0.1,1,0.2c0.3,0.8,0.2,1.1-0.7,1.1c-17.3,0-34.5,0-51.8,0c-0.7,0-1.1-0.2-1.4-0.8c-0.7-1.2-1.8-2-2.8-2.9
		c-0.6-0.6-1.1-1.1-1.6-1.9c1.8-0.2,3.5-0.7,5,0.6c0.4,0.4,1,0.6,1.6,0.6c2.9,0.2,5.9,0.1,8.8,0c0.6,0,1.2,0,1.8,0.1
		c1.4,0.3,2.9,0.3,4.3,0.1c1.3-0.2,2.6-0.1,3.9,0c2.2,0.2,2.9-0.5,2.7-2.6c-0.2-2.4,0-4.7,0-7.1c0-0.6-0.1-1.1-0.4-1.6
		c-2.1-4.1-3.4-8.4-4.9-12.7c-0.3-0.8,0-1.4,1-1.5c1.1-0.1,2.1-0.3,3.2,0.1c0.8,0.3,1.5,0.2,2.3,0
		C129.1,200.7,130.3,200.8,131.6,200.7z"/>
	<path class="st1" d="M429.1,230.4c9.2,0,18.4,0,27.6,0c4.6,0,9.1,0,13.7,0c-0.2-2.8,0.1-5.6,0.4-8.5c0.4-4.6,1.1-9.1,2.5-13.5
		c1.2-3.9,2.7-7.6,5.9-10.4c0.1-0.1,0.2-0.1,0.3-0.2c1-0.1,1.5,0.6,2.2,1.1c1.2,1,2.3,2,3.5,3.1c4.7,4.2,8.2,9.2,10.8,14.9
		c1.7,3.8,3,7.6,2.8,11.8c-0.1,1.7-0.1,1.7-1.8,1.7c-8.2,0-16.3-0.1-24.5,0c-14,0.3-28,0-42,0.1
		C429.9,230.6,429.5,230.7,429.1,230.4z"/>
	<path class="st6" d="M400.6,124c-0.6-2-2-3.6-2.6-5.5c-0.3-0.9-0.6-1.9-0.9-2.8c0.9-0.8,2-1,3-1.3c3.7-1.1,7.6-1.3,11.5-1.9
		c1.1-0.2,2.3-0.4,3.4-0.6c1.3-0.2,1.7,0.2,1.8,1.4c0.2,3,2.1,5,5.1,5.5c0.9,0.1,1.6-0.2,2.2-0.8c0.6-0.6,1.2-1,2-0.6
		c0.9,0.9,1.3,1.9,1.2,3.2c0,1.3-0.1,2.5,0.2,3.7c0.1,1.8-0.1,3.5-0.4,5.2c-0.6,3.2-1.9,6.1-3.9,8.7c-0.2,0.2-0.3,0.4-0.5,0.6
		c-0.1,0.1-0.3,0.3-0.4,0.4c3.4-2.1,7.4-3.6,9.2-7.7c1,1.5,2.1,2.9,3.3,4.2c0.7,1,0.6,2.1-0.5,2.9c-2.3,1.7-4.6,3.4-7.2,4.4
		c-1.7,0.6-3.6,0.5-4.1-1.5c0,0.6,0.3,1.2-0.3,1.7c-0.3-0.5-0.3-1.1-0.2-1.6c0.1-1.3-0.7-1.8-2-1.3c-0.4,0.2-0.8,0.5-1.2,0.7
		c-2.1,1.4-4.1,1.3-6.2-0.1c-3.5-2.3-6.3-5.4-8.3-9.1c-1.3-2.4-2.6-4.8-3.6-7.3c0.6-1.1,1.7-1.2,2.6-1.6c0.4-0.1,0.8,0,1.1-0.4
		C403.7,121.8,402.2,122.3,400.6,124z"/>
	<path class="st6" d="M206.6,170.9c0.2,1.7,0.7,3.3,1.6,4.8c0.6,0.9,0,1.6-0.5,2.3c-0.7,0.9-1.7,1.4-2.7,1.9c-2.5,1.2-5.1,2-7.9,2.4
		c-0.4,0.1-0.8,0.1-1.2-0.1c-0.6-0.7,0-1.2,0.3-1.7c2-3,3.8-6.1,5.3-8.1c-1.9,2.4-4.8,5.2-8,7.9c-1.8,0.1-3.6-0.3-5.3-0.8
		c-1.8-0.5-2.6-1.8-3.4-3.1c-1.8-3.4-2.8-7-2.8-10.9c0.2-0.3,0.5-0.1,0.8-0.1c0.7,0.1,0.9-0.4,1-0.9c0.1-0.6,0-1.1-0.6-1.4
		c-0.5-0.2-0.8,0-0.9,0.5c-0.1,0.4-0.1,0.8-0.6,1c-0.6,0.1-0.8-0.2-0.7-0.8c0-0.6,0-1.2,0-1.9c0.6-0.6,1.4-0.7,2.3-0.8
		c0.4,0,1,0.1,1-0.4c0-0.6-0.7-0.4-1.1-0.4c-0.6,0-1.2,0.3-1.8,0.4c-0.2,0-0.4,0-0.6-0.1c-0.8-2.5-0.8-5.1-1.2-7.7
		c-0.2-0.4,0-0.7,0.2-1c0.9-1.1,2.1-1.7,3.5-1.4c5,1.1,9.7-0.1,14.1-2.2c0.4-0.2,0.9-0.4,1.3-0.6c0.6-0.3,1.2-0.2,1.8,0.3
		c0.5,0.5,0.5,1.1,0.2,1.8c-0.4,0.9-0.9,1.9-1.1,2.9c-0.5,2.4,0.1,4.7,0.8,6.9c0.2,0.8,0.4,1.6,1,2.3c0.4,0.4,0.8,0.9,1.4,0.8
		c0.6-0.1,0.5-0.8,0.6-1.2c0.6-2.3,2.1-3.5,4.2-3.1c0.9,1.1,0.9,2.2,0.3,3.5c-0.3,0.7-0.5,1.4-0.8,2.1c-0.2,0.6-0.6,1.1-0.9,1.6
		c-0.9,1.4-0.9,2.8-0.2,4.2C206.3,170,206.6,170.4,206.6,170.9z"/>
	<path class="st6" d="M387.2,186.2c0,0.9,0.5,1.7,0.9,2.4c1.2,2.6,2.8,5.1,3.6,7.8c0.1,0.3,0.4,0.5,0.6,0.7c-1.2,1.5-0.9,3.3-0.8,5
		c0,0.6,0.2,1.2,0.2,1.8c-0.4,1.1-1.3,1.7-2.3,2.3c-0.6,0.2-1.5-0.4-1.8,0.7c-1.5,0.4-2.7-0.4-3.8-1.2c-1.1-0.8-1.9-1.9-2.6-3.1
		c-1-2-2-4.1-3.7-5.7c0-1.4-0.8-2.6-1.5-3.8c-3.9-6.8-7.9-13.6-11.8-20.4c-0.4-0.7-0.9-1-1.7-1.1c-1.6-0.1-3.2-0.7-4.8-0.5
		c-0.5,0.1-1-0.3-1.5-0.6c-2-1.3-3.9-2.6-5.9-3.9c-0.7-0.5-1.3-1-1.5-1.9c0.5-0.6,1.2-0.4,1.8-0.4c2.7,0.2,5.3,0.3,8,0.4
		c3.3,0.2,6.7,0.4,10,0.5c0.4,0,0.8,0,1.1,0.4c-0.3,0.2-0.8,0.3-0.2,0.8c1.8,1.7,3.5,3.3,5.3,5c4,4,7.5,8.6,11,13.1
		C386.1,185.4,386.5,186,387.2,186.2z"/>
	<path class="st6" d="M430.9,197c1.6-0.4,3-1,4.3-2.1c0.4-0.2,0.7-0.5,1-0.8c2.6-1.5,5.1-2.9,7.9-4.1c1.4-0.6,2.9-0.8,4.4-0.4
		c2.9,0.8,5,6.4,2.8,8.3c-2.8,2-5.5,4.1-8.4,6c-0.7,0.2-1.2,0.6-1.8,1c-2.8,0.9-5.5,2.4-8.2,3.6c-3.2,1-6.1,2.6-9.3,3.5
		c-4.7,1.4-9.3,3.3-14.2,4.1c-2.8,0.4-5.6,0.5-8.5,0.6c-1.9,0-3.6-1.2-5.4-1.8c-0.4-0.1-0.6-0.5-0.4-1c0.2-0.4,0.5-0.6,0.9-0.6
		c0.6,0,1.1,0.4,1.8,0.1c-1.1-0.8-2.5-1.1-3.3-2.1c-0.4-0.4-1-0.6-0.6-1.3c0.5-0.2,1-0.1,1.5,0.1c3.2,0.7,6.4,1.5,9.6,2.2
		c1.4,0.3,2.8,0.3,4.1-0.4c0.2-0.1,0.5-0.2,0.5-0.5c0-0.3-0.3-0.3-0.5-0.4c-0.8-0.3-1.7-0.4-2.6-0.6c-0.4-0.1-0.9-0.2-0.9-0.6
		c-0.1-0.4,0.3-0.7,0.6-1c0.9-0.9,2-1.2,3.3-1.1c1.6,0.1,3-0.1,4.2-1.3C419.6,203.4,425.2,200.1,430.9,197z"/>
	<path class="st4" d="M68.2,176.8c0.7-0.1,1.2-0.7,1.6-1.2c2.8-3.5,4.2-7.6,4.9-12c0.5-3.5,0.1-7,0.3-10.5c0.2,0.1,0.3,0.5,0.6,0.1
		c2-2.3,4.3-4.3,5.8-7c0.1-0.2,0.3-0.4,0.5-0.5c1.7-0.7,2.5-2.3,3.7-3.5c0.5-0.4,1-0.3,1.6-0.3c0.5,0,1,0,1.5,0c3,0,3.2-0.2,4-3.1
		c0.2-0.7,0.1-1.3-0.4-1.9c-1-0.6-2.1-0.7-3.1-1.1c-0.6-0.2-1.2-0.2-1.2-1c0-0.7,0.7-0.8,1.2-1c0.2-0.1,0.4-0.2,0.7-0.3
		c-0.4-0.1-0.7-0.3-1-0.3c-1-0.3-1.3-1-1.1-1.9c0.3-1,0.4-1.9,0.4-2.9c-0.1-1.1,0.6-1.6,1.5-1.6c2.6,0.1,5.1,0.2,7.7,0.2
		c0.2,0,0.4,0.1,0.6,0.2c2,1,3.5,4.3,3.1,6.6c-0.5,2.5-1.7,4.6-3.1,6.7c-1.2,1.8-2.3,3.5-3.3,5.4c-0.9,1.7-2.2,3.1-3.1,4.8
		c-2.8,5.1-6.3,9.7-8.8,14.9c-0.3,0.5-0.5,1.1-0.5,1.7c-1.6,1.2-2.4,3-3.4,4.7c-0.5,0.9-0.9,1.9-1.5,2.8c-0.7,0.9-1.4,1.8-2.4,2.4
		c-0.8,0.5-1.6,0.8-2.6,0.7C70.8,177.8,69.5,177.3,68.2,176.8z"/>
	<path d="M207.6,158.3c-0.1,0-0.2,0.1-0.3,0.1c-2.8,0.1-3.4,1.6-3.7,3.9c-0.1,1-0.5,1-1.3,0.6c-0.6-0.3-1.2-0.7-1.5-1.3
		c-1.1-2.8-2.1-5.6-1.6-8.7c0.2-1.1,0.5-2.1,1-3c0.3-0.6,0.8-1.2,0.1-1.8c-0.6-0.6-1.3-0.3-2,0c-2.7,1.5-5.5,2.5-8.5,3
		c-2.1,0.4-4.1,0.4-6.2-0.1c-1.9-0.5-3.2,0.1-4.1,1.9c-1.6-0.8-2.1-2-1.5-3.9c0.2-0.8,0.2-1.5,0-2.4c-0.4-1.9-0.3-3.8,0.6-5.6
		c0.5-1.1,1.6-1.5,2.7-1.7c1-0.2,2.1-0.4,3.2-0.5c1.9-0.2,3.6-0.8,5.1-2c2.2-1.7,4.4-1.9,6.8-0.5c1,0.6,2.2,0.8,3.2,0.3
		c2.3-1,4.4-1.1,6.4,0.4c0.2,0.1,0.4,0.2,0.7,0.3c0.7,1.3,1.8,2.5,1.2,4.2c-0.1,0.4,0.3,0.5,0.5,0.7c1.2,1.1,1.6,2.4,1.1,3.9
		C208.2,150,208.3,154.2,207.6,158.3z"/>
	<path class="st4" d="M49.5,107.9c0.1-0.6-0.5-0.7-0.8-0.9c-3.7-2.5-7-5.5-9.4-9.3c-1.1-1.7-2.1-3.5-3.1-5.4
		c-0.6-1.2-0.8-2.5-0.6-3.8c0.3-1.3,0.9-1.5,2-0.9c0.8,0.5,1.6,0.7,2.5,0.6c3.6-0.7,7.3-0.6,10.9-1.4c3-0.7,5.8-1.8,8.2-3.7
		c1-0.8,2.2-1.2,3.4-1.5c1.2-0.3,2,0.6,1.6,1.8C64.1,84.3,64,85,64,85.8c-0.4,0.6-0.6,1.4-0.8,2.2c-0.5,0.3-0.9-0.1-1.3-0.2
		c-1.3-0.5-1.8-0.5-3.3-0.1c1,0.1,2,0,2.9,0.4c0.5,0.2,1.1,0.3,1.2,1c0.1,2.2-0.7,4.2-1.1,6.3c-0.6,3.5-2.2,6.6-4.4,9.4
		c-0.9,1.3-2.2,2.1-3.7,2.7c-0.8,0.3-1.6,0.5-2.4,0.3C50.6,107.6,50.1,107.7,49.5,107.9z"/>
	<path class="st2" d="M37.8,159.7c-0.8,2.5-1.2,5-1.5,7.6c-0.4,3.3-0.2,6.6-0.2,9.9c0,0.8-0.2,1.1-1.1,1.1c-2.2,0-4.3,0.1-6.5,0.2
		c-2.5,0.1-4-1.2-5.2-3.2c-0.1-0.2-0.2-0.3-0.3-0.5c0.4-2.3,1.3-4.4,2.7-6.3c0.5-0.7,0.7-1.4,0-2.2c-2.4-3-3.3-6.5-2.7-10.3
		c0.8-4.6,0.4-9.1-1.2-13.5c0-0.1,0-0.2,0-0.4c0.2-0.1,0.3-0.1,0.5,0c5.4,2.5,9.9,6,12.7,11.4c0.8,1.6,1.8,3.1,2.5,4.8
		C37.8,158.8,38.2,159.2,37.8,159.7z"/>
	<path d="M426.1,117.3c-0.8,0.1-1.5,0.4-2,1.1c-0.6,0.7-1.4,0.9-2.3,0.7c-1.5-0.4-2.8-1.1-4-2c-1.2-1-1.5-2.3-1.2-3.8
		c0.1-0.9-0.2-1.4-1.2-1.2c-4,1-8,1.2-12,1.9c-2.1,0.4-4.1,1.1-6.2,1.7c-2-3.5-2.1-6.4,2.8-10.5c3.2-2.7,7.1-3.7,11.1-4.1
		c0.7-0.1,1.5-0.1,2.1-0.5c1.8-1.1,3.3-0.3,4.7,0.7c0.8,0.6,1.4,1,2-0.2c0.3-0.6,0.7-0.2,0.9,0c0.8,0.7,1.4,1.5,1.7,2.5
		c1,3.5,2.5,6.9,3.2,10.5C426,115.2,426.2,116.2,426.1,117.3z"/>
	<path class="st1" d="M270.8,207.8c1-4.1,1.9-8.2,2.6-12.3c0.4-2.1,1-4.1,2.4-5.6c0.7-0.8,1.6-1.4,2.7-1.7c0.9-0.2,1.8-0.3,2.5-0.9
		c0.9,0.2,1.8,0.1,2.7,0.4c2.7,1,4.5,3.6,4.6,6.7c0.1,3-0.4,5.9-1.5,8.8c-1.2,3-2.3,6-3.5,9.1c-0.2,0.5-0.3,1-0.8,1.3
		c-0.9-0.1-1.9-0.2-2.8,0c-0.4,0.1-0.8,0-1.2-0.2c-1.3-0.7-2.7-0.8-4.1-1.4c-1.5-0.6-2.7-1.4-3.5-2.7
		C270.8,208.7,270.5,208.3,270.8,207.8z"/>
	<path class="st6" d="M270.8,207.8c0.6,1.8,2,2.9,3.7,3.6c1.5,0.6,3.1,0.7,4.5,1.5c0.4,0.2,0.9,0.1,1.4,0c0.8-0.2,1.5-0.2,2.1,0.4
		c0.1,0.1,0.2,0.2,0.1,0.3c-0.7,1.7-0.7,3.4-0.8,5.2c0,0.2-0.1,0.3-0.2,0.4c-1.1,3.2-1.8,6.4-2.6,9.6c-0.3,1.2-0.7,1.5-1.9,1.5
		c-3.1,0-6.3-0.3-9.4,0.1c-0.1,0-0.3-0.1-0.4-0.2c0.7-0.8-0.1-1.7,0.2-2.5c1.2-4.3,2.3-8.6,3-13.1c0.1-0.8,0.5-1.6,0.6-2.4
		c0.1-0.5,0.2-1.1-0.3-1.4c-0.5-0.3-1,0-1.4,0.3c-1.2,1-2.4,2-2.6,3.7c-0.7,0-0.6-0.6-0.6-1c-0.1-0.8,0-1.5-0.1-2.3
		c-0.3-1.2-0.8-2.2-1.7-3.1c-0.4-0.4-1-0.6-1-1.3c-0.9-4.6-2.6-8.9-5-12.8c-0.8-1.3-1.7-2.4-2.7-3.5c-1.6-1.6-1.5-2.6,0.2-4.1
		c0.7-0.6,1.3-1.2,2-1.7c0.9,0.8,1.1,1.9,1.5,2.9c0.6,1.5,1,3,2,4.3c1.4,2.8,2.3,5.8,3.8,8.6c1.1,2.1,2.3,4.1,4.1,5.7
		C269.7,207.2,270.2,207.6,270.8,207.8z"/>
	<path class="st2" d="M470.8,199.7c-0.6-0.9-1-1.9-1.5-2.9c-2.4-4.8-4.8-9.6-7.9-14c-0.3-0.4-0.6-0.8-1-1.2c-0.2-0.5,0-0.9,0.1-1.4
		c1.1-3.8,2.1-7.7,3.3-11.5c0.7-2.5,0.9-5,1-7.6c0.1-2.8,0-5.6,0-8.4c0-0.6-0.1-1.2,0.3-1.7c0.4,1.6,0.4,3.2,0.4,4.7
		c0.1,2.9,0,5.8,0,8.6c0.1,3.1,1.3,5.7,3.2,8.1c2,2.4,3.6,5,4.1,8.1c0.2,1,0.2,2.1,0.1,3.1c-0.1,1,0.3,1.6,1.1,2
		c2,1.2,4.2,2.3,5.5,4.3c0.5,0.9,0.5,1.9-0.1,2.7c-0.9,1.3-0.9,2.6-0.2,3.9c0.2,0.4,0.4,0.8,0,1.2l0,0c-2.6,1.1-5.4,1.4-8.1,1.9
		C471.1,199.9,470.9,199.8,470.8,199.7z"/>
	<path class="st6" d="M129.9,177.1c-3.5,0.8-6.2,2.8-8.6,5.2c-1.3-0.1-1.8-1.1-2.1-2c-0.4-1.2-1-2.1-2.2-2.7c-1-0.6-1.8-1.6-2.2-2.7
		c-0.6-1.4-1.1-2.8-1.6-4.2c-0.2-0.5-0.1-1.1,0.3-1.6c0.7-0.9,1.4-1.9,2.5-2.4c0.6-0.3,0.6-0.7,0.1-1.1c-1.1-1-1.9-2.1-3.1-2.9
		c-1.1-0.7-1.8-1.7-1.8-3.1c0-0.9,0.6-1.3,1.3-0.9c3.4,1.9,6.9,3.8,10.3,5.9c2.5,1.5,3.7,4.3,5,6.7c0.8,1.3,1.7,2.6,1.4,4.3
		C129.2,176.2,129.7,176.6,129.9,177.1z"/>
	<path class="st6" d="M320.1,230.4c0.2-0.1,0.5,0.1,0.5-0.3c-0.3-2.6-0.5-5.1-0.8-7.7c-0.1-0.9,0.2-1.7,0.8-2.3
		c1-1.1,2.1-2.3,3.2-3.4c0.5,0.1,0.6,0.5,0.7,0.9c0.6,1.6,1.6,3,2.1,4.5c0.8,2.3,2.4,2.2,4.2,2.3c4.3,0.3,8.5,0.4,12.8,0.9
		c2.1,0.2,4.3,0.4,6.4-0.4c0.3,0.3,0.2,0.6,0,0.9c-0.9,1.6-1.8,3.2-2.9,4.7c-8.3,0-16.5,0-24.8,0
		C321.6,230.4,320.8,230.9,320.1,230.4z"/>
	<path d="M369.7,165.9c-6.9-0.3-13.9-0.6-20.8-1c-3.9-0.2-7.8-0.3-11.6-0.6c-2.3-0.1-4.5-0.4-6.8-0.6c-0.3,0-0.6-0.1-0.8-0.2
		c-0.5-0.4-0.5-1.2-1.2-1.5c-0.5-0.2-1.2-0.1-1.7-0.6c0.4-0.5,1-0.5,1.6-0.5c2.6,0.1,5.2,0.2,7.7,0.2c1.8-0.4,3.5,0.1,5.2,0.2
		c2.1,0.2,4.1,0.3,6.2,0.3c3.2,0.1,6.4,0.5,9.7,0.3c1.8-0.1,3.5,0.6,5.3,0.6c9.4,0.5,18.8,0.9,28.4,1.4c-1.1,1.7-2.4,2.5-4.3,2.5
		c-4.4,0-8.8-0.4-13.3-0.7C372.2,165.8,370.9,165.9,369.7,165.9z"/>
	<path class="st7" d="M203.2,230.4c1.6-1.6,3.2-3.2,4.7-4.9c3-3.2,6-6.3,8.8-9.7c1.4-1.7,2.4-3.9,3.5-5.8c1.9-3.3,3.7-6.6,6.1-9.6
		c2-2.5,3.3-5.3,4.1-8.5c1.1-5-3.3-8.5-6.8-9.1c-2.4-0.4-4.5,0.3-6.3,1.9c-2.7,2.4-4.6,5.4-6.2,8.6c-0.2,0.4-0.4,0.8-0.7,1.1
		c-2.6,2.9-5.1,5.9-7.9,8.7c-2.7,2.7-4,6.2-5.2,9.7c-0.5,1.3-0.8,2.7-1.2,4.1c-0.3,0.9-0.7,1.6-1.8,1.7c-6.4,0.6-12.8,1.4-19.2,1.2
		c-2.2-0.1-4.3-0.6-6.5-0.7c-3.1,0-6.2,0.2-9.3,0.5c-0.5,0-0.8,0.1-0.8,0.8c0.1,1.3,0.2,2.6,0.2,3.9c0,1.5,0.5,2.8,1,4.1
		c-0.3,0.3-0.6,0.1-0.9-0.1c-0.8-0.5-0.9-1.3-1-2.1c-0.5-2.1-0.3-4.3-0.4-6.5c0-0.3,0.1-0.5,0.4-0.7c4.7-0.5,9.4-0.6,14.2-0.5
		c0.4-0.2,0.8-0.2,1.2-0.2c4.9,0.7,9.7,0.2,14.5-0.3c0.6-0.1,1.1-0.2,1.6,0.2c1.7,0.1,3.3-0.2,5-0.3c0.8,0,1.1-0.6,1.2-1.4
		c0.8-3.5,2.1-7,3.8-10.2c1-1.8,2.4-3.3,3.8-4.9c3-3.3,6.3-6.3,8.4-10.4c1.4-2.8,3.3-5.2,5.7-7.2c5.2-4.4,12.9-0.6,14.1,4.6
		c0.6,2.3,0,4.5-0.9,6.7c-0.8,1.9-1.7,3.7-3,5.3c-2.7,3.3-4.7,7.1-6.9,10.8c-3.2,5.3-5.9,10.9-7.8,16.8c-0.3,0.8-0.5,1.5-0.4,2.3
		C209.1,230.4,206.1,230.4,203.2,230.4z"/>
	<path class="st1" d="M92.3,137c0.7,0.2,1,0.6,0.9,1.3c-0.2,1-0.5,1.9-0.9,2.8c-0.3,0.9-1.2,1.1-2.1,1.1c-1.6,0-3.1,0-4.7,0
		c-0.3-0.3-0.6-0.5-1-0.4c-1.8,0.4-3.6,0-5.4-0.1c-1.5-0.1-2-0.6-1.6-2.1c0.6-2.4,1.5-4.8,2.1-7.2c1.1-4.7,3.1-9.2,3.9-14
		c0.1-0.8,0.5-1.4,0.8-2.1c0.4-0.8,1.1-1,1.9-1c0.8,0,1.1,0.4,1.5,1c0.8,1.4,0.9,2.9,0.5,4.5c-1,4-2.7,7.6-4.9,11.1
		c-1,1.5-1.8,3.1-2.2,4.9c-0.3,1.4,0.2,2.1,1.6,2.1c2.6,0,5.1,0,7.7,0C91.8,138.9,92.1,138.6,92.3,137z"/>
	<path class="st7" d="M465.2,151c0,3.4,0,6.8,0,10.2c0,3.3-0.6,6.6-1.6,9.7c-1.1,3.6-1.9,7.2-3.2,10.7c-0.2,0-0.3,0-0.5,0
		c-0.6-0.6-0.3-1.3-0.1-1.9c1-3.6,2-7.2,3-10.7c0.7-2.3,1-4.6,1.1-7c0.1-2.2,0.3-4.4,0.2-6.6c-0.1-4-0.3-8-1.3-11.9
		c-0.3-1.1-0.6-2.1-1-3.1c-1.9-4.4-4.2-5.3-8.7-4.6c-4.2,0.6-6.4,3.6-7.6,7.5c-0.8,2.6-0.8,5.4-0.9,8.1c-0.3,5-0.7,10-1.1,14.9
		c-0.1,1-0.2,1.9-0.2,2.9c0,2.9-1.1,5.5-2.3,8.1c-2,4.5-3.7,9.1-4.4,14c-0.2,1,0.2,2.1-0.4,3c-0.2,0.4-0.4,0.8-0.9,0.5
		c-1.8-1.9-3.5-3.8-4.4-6.3c-0.3-0.7-0.7-1.4-0.3-2.2c0.1-0.3,0-0.3-0.2-0.4c-1.5-0.2-1.3-1.5-1.5-2.5c-0.2-1,0.6-1.4,1.4-1.7
		c2.9-1.1,5.6-2.8,8.6-3.6c0.5-0.2,0.7-0.6,0.9-1c2.1-3.4,2.4-7.3,2.7-11.2c0.4-4.6,0.7-9.2,1.1-13.7c0-0.3,0-0.6,0-1
		c-0.4-1.7-0.1-3.4,0.1-5.1c0.4-2.7,1.1-5.3,2.6-7.6c1.3-2,3.1-3.4,5.6-3.8c1.5-0.3,3.1-0.4,4.6-0.3c2.3,0.1,4,1.1,5.3,3
		c1.6,2.4,2.3,5.1,2.8,7.9C464.8,147.3,465,149.1,465.2,151z"/>
	<path d="M347.2,230.4c0.4-1.5,1.5-2.7,2.2-4c0.3-0.5,0.6-0.9,0.7-1.5c1.5-2.3,3-4.5,4.3-7c0.6-1.2,1.4-1.6,2.6-1.7
		c2.4-0.1,4.8,0.4,7.2,0.7c0.8,0.1,1.2,1.2,0.7,2c-1.7,2.6-2.7,5.6-5.2,7.7c-0.7,0.2-1.4-0.2-2.1-0.4c-1.3-0.2-1.6,0-2.1,1.1
		c-0.5,1.1-0.8,2.3-1.6,3.2c-2,0-3.9,0-5.9,0C347.7,230.6,347.4,230.6,347.2,230.4z"/>
	<path class="st6" d="M157.5,219.1c0.2,3.1-0.3,6.3,1.1,9.3c-0.7,0-1.2,0.4-1.5,1c-2.6,0.4-5.2,0.4-7.9,0.2
		c-2.2-0.2-3.7-1.4-4.1-3.7c-0.2-0.8-0.3-1.6-0.5-2.3c-0.2-1.2,0.3-1.9,1.6-1.9c1.9,0,3.7,0.2,5.6-0.2c1.5-0.3,1.9-1,1.2-2.4
		c-0.4-0.8-0.9-1.5-0.9-2.4C153.9,217.5,155.8,218.2,157.5,219.1z"/>
	<path class="st7" d="M37.8,159.7c-1-2.6-2.4-4.9-3.8-7.3c-2.3-3.9-5.5-6.8-9.6-8.8c-0.9-0.4-1.7-0.9-2.5-1.4
		c-4.5-3.1-6-7.9-7.2-12.9c-0.8-3.8-1.3-7.5-0.3-11.3c0.5-1.8,1.2-3.6,3.3-4.2c0,0,0.1,0,0.1,0c0.6,0.1,1.5-0.2,1.5,0.5
		c0,0.8-0.9,0.2-1.3,0.3c-0.9,0.2-1.5,0.7-1.9,1.4c-1.3,2.5-1.5,5.1-1.4,7.8c0.2,3.6,1.1,7,2.2,10.4c1.3,3.8,3.7,6.7,7.3,8.4
		c5.4,2.6,9.2,6.6,11.8,11.9c2.6,5.2,5.4,10.4,8.1,15.6c1,1.9,2.2,3.7,3.9,5.1c3.8,3.2,8.2,3.2,12,0c0.1-0.1,0.3-0.2,0.4-0.3
		c1.3-1.4,3.1-2.6,3.5-4.6c0.5-3.2,0.4-6.5-1.1-9.5c-0.3-0.6-0.7-1.1-1.3-1.4c-0.2-2,0.3-3.9,0.9-5.7c0.1-0.4,0.3-0.6,0.7-0.8
		c2,0,4.1,0,6.1,0c1.8,0,2,0.3,1.8,2c-0.4,3.7-0.7,7.5-1.7,11.1c-0.6,2.4-1.7,4.2-4.4,4.6c-0.5,0.1-0.5,0.4-0.7,0.7
		c-2,3.2-4.6,5.8-8.4,6.8c-3.8,0.9-6.9-0.6-9.5-3.3c-2.4-2.5-3.7-5.8-5.3-8.8C40.1,163.9,39,161.8,37.8,159.7z"/>
	<path class="st2" d="M393.9,210.2c0.2,0.4,0.8,0.6,0.8,1.1c-1.1,0.7-2.1,1.5-3.2,2.1c-2.3,1.2-4.7,1.2-7.1,0.2
		c-7.1-2.7-8.6-9-7.3-14.6c0.2-0.7,0.4-1.4,0.6-2.1c1,0.2,1.5,1,1.9,1.8c0.7,1.2,1.3,2.4,1.9,3.7c0.2,0.7,0,1.3-0.1,2
		c-0.2,2.1,0.1,3.9,1.9,5.2c1.9,1.4,3.9,1.2,5.8,0c0.3-0.2,0.6-0.4,0.9-0.5C391.4,209.3,392.8,209.2,393.9,210.2z"/>
	<path class="st2" d="M77.1,174.4c1.1-2.2,2.1-4.4,3.7-6.3c0.3-0.4,0.5-1.2,1.3-0.9c0.1,1,0.2,2.1,0.4,3.1c1.1,7-3.5,13.8-11.1,14.4
		c-0.4,0-0.8,0.1-1.2,0.2c-1.5-1.8-2.9-3.6-4.4-5.4c-0.3-0.4-0.6-0.8-0.4-1.3c0.2-0.5,0.7-0.4,1.1-0.4c0.4,0.3,0.6,0.7,0.8,1.1
		c2.4,4.2,6.6,2.8,8.4-0.2c0.6-1,1.1-2.1,1-3.3C76.8,175.1,76.9,174.8,77.1,174.4z"/>
	<path class="st0" d="M479.4,197.9c0.1-0.5-0.3-0.9-0.5-1.3c-0.5-1.1-0.8-2.2-0.1-3.2c0.8-1.1,0.8-2.2,0.8-3.4
		c1.4-0.6,2.6-1.3,4.1-1.7c1.8-0.5,2.9-0.2,3.7,1.2c0.7,1.2,0.5,2.4-0.8,3.6c-0.6,0.5-0.4,0.7,0,1.2c0.4,0.4,0.8,0.9,1,1.4
		c0.9,1.8-0.1,3.6-2.2,3.7c-1.4,0.1-2.7-0.3-4-0.6C480.6,199,480.3,197.9,479.4,197.9z"/>
	<path class="st1" d="M124,226.2c-2.1-0.1-4.1,0.8-6.2,0.5c-3.9-0.6-7.9-0.4-11.8-0.5c-0.3,0-0.5-0.1-0.8-0.2c2.6,0,5.2,0,7.8,0
		c0.9,0,1.2-0.2,1.2-1.1c-0.1-2.2,0-4.4,0-6.6c0-1.7,0.4-2.1,2.1-2.2c1.1,0,2.2,0,3.3,0c1.7,0.1,2.4,0.8,2.5,2.4
		c0.1,2,0.2,4.1,0.2,6.1c0,1,0.2,1.5,1.3,1.3C123.7,226.1,123.8,226.2,124,226.2z"/>
	<path class="st8" d="M193.5,180.2c0-0.2,0-0.4,0.2-0.5c3.2-2.7,6.2-5.8,9-8.9c-2.3,3.7-4.7,7.4-7,11.1c-0.4,0.8-1.2,1.1-1.9,1.6
		c-0.8,0.5-1.7,1.1-2.5,1.7c-0.3,0.2-0.7,0.5-0.5,1c1,2.5,1.2,5.2,2.2,7.7c1.1,2.5,2.6,4.8,4.3,6.9c0.6,0.8,0.9,0.7,1.3-0.3
		c1.3-3.3,2.7-6.6,4.5-9.7c1.2-2,2.5-3.8,4.3-5.3c1.8-1.5,3.3-3.4,5.3-4.8c-0.2-0.4-0.4-0.3-0.6-0.4c-1-0.6-1.6-0.2-2.3,0.6
		c-2.8,3.3-6.4,5.3-10.7,5.8c-0.4,0-0.8,0.1-0.9-0.3c-0.1-0.4,0.4-0.5,0.7-0.6c1.6-0.7,3.3-1.4,4.9-2.2c2.4-1.1,4.4-2.5,5.8-4.8
		c0.2-0.3,0.4-0.7,0.9-0.8c1.1,1.1,2.4,1.5,3.9,1.5c0.3,0,0.5,0.2,0.5,0.5c-1.6,1.5-3.1,3.2-4.9,4.6c-3.8,2.8-6.2,6.6-8.1,10.8
		c-0.8,1.9-1.6,3.8-2.4,5.7c-0.7,1.7-1.6,1.9-2.9,0.5c-2.9-3.4-5.1-7.1-5.9-11.6c-0.2-1.1-0.5-2.1-0.8-3.1c-0.2-0.6-0.4-1-0.9-1.3
		c0.3-0.8,1.1-1,1.7-1.4c0.8-0.6,1.6-1.1,2.4-1.6C194.6,181.6,194.6,181.6,193.5,180.2z"/>
	<path class="st2" d="M259.5,150.2c-0.7-0.1-1-0.6-1.3-1.2c-1.6-4.3-3.9-8.2-6.5-12c-0.1-0.1-0.1-0.3-0.2-0.4
		c0.2-2.2-0.9-4.2-1.3-6.3c-0.1-0.4-0.3-0.8-0.3-1.3c0-0.3-0.1-0.7,0.4-0.7c3.5,1.3,5.6,3.8,6.6,7.4c1.2,4.5,2.4,8.9,2.5,13.6
		C259.5,149.6,259.5,149.9,259.5,150.2z"/>
	<path class="st1" d="M362.5,162.6c-4.2-0.1-8.4-0.3-12.7-0.4c-4.4-0.1-8.8-0.4-13.1-0.8c-0.2,0-0.5,0-0.6-0.2
		c0-0.9,0.3-1.5,1.3-1.4c0.5,0,0.8-0.3,1.1-0.6c0.7-0.9,1.7-1.1,2.8-1c2.9,0.2,5.8,0.5,8.7,0.7c2,0.1,4,0.2,6,0.3c0.4,0,0.9,0,1,0.5
		c0.3,1,0.9,1.3,1.9,1.3c0.3,0,0.9,0.2,1,0.3C360.1,162.8,361.6,162.3,362.5,162.6z"/>
	<path d="M422.7,143.2c0-0.6,0-1.3,0-1.9c0.4-0.1,0.4,0.3,0.6,0.5c1.1,1.5,1.7,1.7,3.5,1c2.7-1,5-2.7,7.3-4.4
		c0.9-0.7,1.2-1.6,0.7-2.7c1,0.4,1.8,1,2.5,1.7c1.1,1.1,1.3,2.2,0.6,3c-1.1,0.1-1.9,0.7-2.5,1.6c-1.2,1.7-2.5,3.2-4.2,4.3
		c-1.2,0.8-2.4,1.3-3.7,0.2c-0.7-0.5-1.4-0.5-2,0.3c-0.3,0.4-0.6,1-1.3,0.8c-0.9-0.8-0.7-2.2-1.3-3.1
		C422.8,144.2,422.7,143.7,422.7,143.2z"/>
	<path class="st2" d="M261.2,192.4c-0.6-0.3-1.1-0.9-1.3-1.5c-0.7-1.9-1.4-3.8-2.2-5.7c1.2-2.4,1.9-5.1,3.4-7.4
		c0.1-0.2,0.3-0.4,0.4-0.6c1.2,1.4,1.2,3.3,1.4,5C263.6,185.9,263.2,189.3,261.2,192.4z"/>
	<path class="st2" d="M451.7,134.9c-5.4,1.9-7.1,6.3-7.9,11.3c-0.4,0-0.6-0.4-0.8-0.7c-1.4-2.3-2.4-4.8-3.8-7.1
		c-0.2-0.3-0.3-0.6-0.1-0.9C443.1,135.9,447.3,134.8,451.7,134.9z"/>
	<path class="st7" d="M431.4,131.5c0,0.9-0.4,1.6-0.9,2.3c-2.5,2.8-5.8,4.4-9,6c4-4.2,5.7-9.2,5.9-14.9c0-0.2,0-0.5,0.2-0.6
		C427.8,127.3,429.7,129.3,431.4,131.5z"/>
	<path class="st2" d="M65.7,119.7c-0.9,1.8-2.5,2.6-4.4,3.2c-1.1,0.1-1.3-0.7-1.5-1.5c-0.2-2.4-1.3-4.6-2.2-6.8
		c-0.2-0.5-0.4-1-0.5-1.5c-0.1-0.4-0.3-0.8,0.4-0.9C61.2,113.6,63.9,116.1,65.7,119.7z"/>
	<path class="st0" d="M34.4,107.7c0.7,1,0.6,2.3,0.8,3.4c0.8,4,1.9,7.9,3.2,11.7c-0.3,0.2-0.4,0.6-0.4,0.9c0,0.3,0,0.8-0.4,0.9
		c-0.4,0.1-0.6-0.3-0.8-0.6c-1.8-1.5-2.2-3.7-2.7-5.9c-0.2-0.4-0.5-0.7-0.6-1.2c-0.5-2.2-0.9-4.3-1.4-6.5c-0.1-0.4-0.2-0.8,0.1-1.1
		C33,108.8,33.7,108.3,34.4,107.7z"/>
	<path class="st9" d="M339.3,154.7c-0.1-2.1,0.1-2.5,2.2-2.3c5,0.4,10,0.4,15,0.9c1.4,0.2,1.3,1.2,1.2,2.1c-0.7,0.3-1.5,0.3-2.2,0.3
		c-3.4,0-6.9-0.1-10.3-0.4c-1.4-0.1-2.9-0.1-4.3-0.1C340.3,155.1,339.7,155.2,339.3,154.7z"/>
	<path class="st10" d="M267.8,228c-0.1,0.6,0.1,1.2,0.2,1.7c0.1,0.6-0.2,0.7-0.7,0.7c-0.5-5.7-1-11.4-1.5-17.2
		c-0.1-1.6-0.5-3.1-1.6-4.2c-0.8-0.8-1.7-1.2-2.8-1.2c-6.7,0-13.5,0-20.2,0c-0.2-0.2-0.5-0.4-0.3-0.8c0.5,0,0.9-0.1,1.4-0.1
		c6,0,12,0,18,0c1,0,2.1,0.1,3.1,0.4c2.2,1.4,3.2,3.4,3.2,6c0,0.5,0,1.1,0.2,1.6c0.7,0.9,0.5,2.1,0.6,3.1c0.2,2.6,0.5,5.2,0.6,7.8
		C267.9,226.6,267.9,227.3,267.8,228z"/>
	<path class="st0" d="M60.1,121.3c0.1,0.8,0.6,1.2,1.2,1.5c-1.3,1.6-2.4,1.6-3.6-0.2c-2.5-3.7-5.2-7.2-8.1-10.5
		c-0.4-0.5-0.9-0.9-1.3-1.4c0-0.7-0.3-1.4,0.4-2c0.7,0.5,1.3,1.1,2,1.6c1.3,0.9,2.2,2.3,3.2,3.5c1.8,2.1,3.6,4.2,5.5,6.3
		C59.7,120.5,59.9,120.9,60.1,121.3z"/>
	<path class="st8" d="M281.7,219.3c-0.4-2.1,0.1-4.1,0.9-5.9c1.8-4.7,3.9-9.3,5.2-14.1c0.6-2.1,0.6-4.3,0.1-6.5
		c-0.7-2.9-2.7-4.8-5.7-5.1c-0.4,0-0.8,0.1-1-0.4c0.3-0.2,0.6-0.4,1-0.4c0.4,0.4,0.9,0.2,1.4,0.3c3.2,0.9,5.2,3.5,5.4,7.1
		c0.2,3.1-0.3,6.1-1.5,9c-1.6,4.1-3.1,8.2-4.7,12.3c-0.5,1.5-0.4,3,0.1,4.4c1.1,3,2.2,6.1,3.3,9.1c0.2,0.5,0.5,1,0.4,1.6
		c-0.8,0.5-0.8-0.4-0.9-0.7c-1.2-3.2-2.3-6.3-3.4-9.5C282,220,281.8,219.7,281.7,219.3z"/>
	<path class="st11" d="M339.3,154.7c4.3-0.1,8.6,0.5,12.9,0.6c1.8,0.1,3.7-0.1,5.5,0.1c0,1.7-0.3,2-2,1.9c-4.9-0.2-9.9-0.3-14.8-0.5
		C339.2,156.7,339,156.4,339.3,154.7z"/>
	<path class="st0" d="M439.1,137.5c1.6,2.9,2.9,5.9,4.7,8.7c-0.1,1.7-0.3,3.5-0.4,5.2c-0.9-0.5-1.3-1.4-1.7-2.4
		c-0.7-1.8-1.4-3.5-2.1-5.2c-0.4-1.2-1.5-1.9-2-2.9c-0.1-0.2-0.1-0.3,0-0.5c0.7,0,0.6-0.5,0.4-0.8c-0.2-0.7-0.5-1.4-0.8-2.1
		C437.9,137.1,438.5,137.5,439.1,137.5z"/>
	<path class="st7" d="M240.9,123.9c-5.1-2.9-8.7-7.1-10.6-12.7c3.1,4.1,6.8,7.4,11.6,9.3c-0.7,0.7-1,1.5-0.8,2.4
		C241,123.2,241.3,123.6,240.9,123.9z"/>
	<path class="st12" d="M60.1,121.3c-3.2-3.6-6.4-7.2-9.3-11c1.8-0.2,3.4,0.3,4.9,1c0.6,0.3,1.2,0.6,1.8,0.9
		c-0.5,0.4-0.1,0.8,0.1,1.2c0.9,2.4,2.1,4.6,2.5,7.1C60.1,120.8,60.1,121,60.1,121.3z"/>
	<path class="st6" d="M250.4,128.3c-0.4,0.5,0,1,0.1,1.4c0.4,1.7,0.8,3.4,1.4,5.1c0.2,0.7,0.2,1.2-0.3,1.8c-2-3.7-4.9-6.7-7-10.3
		C246.8,126.2,248.6,127.3,250.4,128.3z"/>
	<path class="st4" d="M32.3,109.4c0.6,2.9,1.3,5.9,1.9,8.8c-2.7-2.2-4.8-4.9-6.7-7.8C29,109.8,30.6,109.6,32.3,109.4z"/>
	<path class="st13" d="M118.2,215.3c-0.9,0-1.8,0-2.6,0c-0.6,0-1.3,0-1.4-0.8c-0.1-0.8,0.1-1.5,0.9-1.8c2-0.8,4.1-0.7,6.2,0
		c0.9,0.3,0.9,1.1,0.8,1.9c-0.1,0.8-0.8,0.7-1.3,0.7C119.9,215.3,119.1,215.3,118.2,215.3C118.2,215.3,118.2,215.3,118.2,215.3z"/>
	<path class="st6" d="M353.8,230.5c0.5-1.3,1-2.7,1.5-4c0.2-0.6,0.7-0.9,1.4-0.8c1,0.2,1.9,0.4,2.8,0.8c0,0.9-0.1,1.8,0,2.6
		c0.1,1-0.3,1.3-1.3,1.2C356.9,230.4,355.3,230.3,353.8,230.5z"/>
	<path class="st14" d="M302.7,182.6c-2.4-0.5-4.4-1.7-6.5-2.9c-1.8-1-3.5-2.3-4.9-4.4c3.6,2.3,7,4.6,11.1,5
		C302.6,181,302.7,181.8,302.7,182.6z"/>
	<path class="st6" d="M228.1,132.5c-1.6-1.5-2.8-3.3-3.9-5.1c-0.3-0.5-0.4-1.2-1.1-1.2c1.4-0.3,2.7-0.6,4.1-0.9
		C227.5,127.7,228.4,130,228.1,132.5z"/>
	<path class="st15" d="M68.2,133.7c0-1,0.7-1.6,1.5-2c0.2,0,0.4,0.1,0.5,0.3c0.4,1.7,0.7,3.5,0.5,5.2
		C69.6,136.3,69.1,134.8,68.2,133.7z"/>
	<path class="st16" d="M400.6,124c0.2-1.6,1.6-1.7,2.7-2.1c0.4-0.2,1-0.1,1.5-0.1c0.4,0,0.7,0.1,0.7,0.6c0,0.5-0.3,0.7-0.7,0.7
		c-1.4,0-2.6,0.8-3.7,1.5C401,124.4,400.8,124.2,400.6,124z"/>
	<path class="st17" d="M181.8,164.3c0.2-0.3,0.2-0.7,0.2-1c0-0.4,0.1-0.8,0.6-0.9c0.5-0.1,1,0.1,1.2,0.5c0.5,0.8,0.4,1.6-0.1,2.3
		c-0.5,0.8-1.2,0.3-1.8,0.2C181.6,165.1,182,164.7,181.8,164.3z"/>
	<path class="st18" d="M180.9,160.5c0.9-0.4,1.9-0.7,2.9-0.8c0.6,0,1.2,0.1,1.2,0.9c0,0.8-0.7,0.7-1.1,0.6c-1-0.1-1.8,0.4-2.7,0.5
		C180.9,161.3,180.8,160.9,180.9,160.5z"/>
	<path class="st19" d="M62.7,89c-0.7-0.6-1.5-0.8-2.4-0.9c-0.7-0.1-1.5,0.1-2.3-0.5c1.8-1.3,3.5-0.4,5.1,0.3
		C63.7,88.6,63.3,88.9,62.7,89z"/>
	<path d="M77.1,174.4c0.3,2.4-0.6,4.5-2.4,6.1c-2.6,2.3-5.8,1.8-7.5-1.3c-0.3-0.4-0.4-0.9-0.6-1.4c0.5-0.4,1.1-0.7,1.6-1
		c0.7-0.1,1.4,0.1,2.1,0.4c2.3,0.8,4.1,0.3,5.7-1.5C76.4,175.2,76.8,174.8,77.1,174.4z"/>
	<path class="st20" d="M63.5,152.6c-0.2-1.3-0.4-2.6,0.8-3.7c1.7,0,3.4,0.1,5,0c1.8-0.1,2.3,1.5,2.2,2.8c-0.1,0.8-0.7,0.9-1.4,0.9
		C67.9,152.6,65.7,152.6,63.5,152.6z"/>
	<path class="st21" d="M65.9,142.8c0.2-1.6,0.6-3.1,1.2-4.5c0.5,0.7,0.8,1.6,1.1,2.4c0.5,1.3,0.3,1.6-1,1.9
		C66.8,142.7,66.4,142.7,65.9,142.8z"/>
	<path class="st22" d="M224.7,45.8c-1.5,0.1-2.9-0.1-4.1-1.1c-1-0.8-1-1.8,0.1-2.5c4.3-2.9,8.6-5.8,12.9-8.8
		c1.6-1.1,3.1-1.3,4.8-0.2c2.7,1.8,5.1,1.6,7.6-0.5c1.4-1.1,2.7-1.3,4.2-0.4c4.8,2.7,9.6,5.4,14.4,8.1c0.5,0.3,0.6,0.5,0.5,1.1
		c-0.2,1.6-1.5,2.6-3.6,2.7c-2,0.1-3.9,0.2-5.9,0.2c-9.3,0.3-18.6,0.7-27.9,1C226.8,45.6,225.7,45.7,224.7,45.8z"/>
	<path class="st22" d="M242.1,33.4c-0.9,0.1-1.6-0.3-2.3-0.7c-6.3-3-12.6-6-18.9-9c-0.8-0.4-1.7-0.7-1.6-1.8c0-1.1,0.9-1.5,1.7-1.9
		c0.8-0.4,1.7-0.5,2.6-0.5c7.3-0.3,14.6-0.5,21.9-0.8c5-0.2,10-0.3,15-0.5c0.6,0,1.3,0,1.9,0.1c1.3,0.1,2.2,1.5,2,2.8
		c-0.1,0.3-0.3,0.4-0.5,0.6c-6.5,3.5-12.9,7.3-19.3,11.1C243.7,33.1,242.9,33.4,242.1,33.4z"/>
	<path class="st22" d="M265.2,39.8c-1.8-1-3.5-2-5.1-2.9c-3-1.7-6-3.4-8.9-5.1c-1.2-0.7-1.2-1.2,0-1.8c4.2-2.3,8.2-4.9,12.5-7.1
		c0.9-0.5,1.2-0.3,1.2,0.7C265,28.8,265.4,34.2,265.2,39.8z"/>
	<path class="st22" d="M219.5,38.5c-0.4-4.1-0.1-8.3-0.3-12.4c-0.1-1.8,0.3-2,1.9-1.2c3.8,1.8,7.6,3.7,11.4,5.5
		c0.2,0.1,0.4,0.2,0.5,0.3c1.1,0.6,1.1,1.1,0.1,1.8c-2.4,1.7-4.8,3.3-7.2,5c-1.5,1-3,2.1-4.5,3.2c-0.3,0.2-0.6,0.4-0.9,0.5
		c-0.7,0.3-1.2,0.3-1.1-0.7C219.5,39.8,219.5,39.2,219.5,38.5z"/>
	<path class="st23" d="M81.2,33.9c-2.1-0.4-4.3-0.8-6.4-1.2c-6.3-1.1-12.6-2.2-18.9-3.3c-4.9-0.9-9.8-1.8-14.8-2.6
		c-0.5-0.1-0.9-0.3-0.9-0.9c0.1-0.8,0.7-0.8,1.3-0.7c3.4,0.6,6.8,1.2,10.2,1.8c6.1,1.1,12.3,2.2,18.4,3.2c4,0.7,8,1.4,12.1,2.2
		c0.5,0.1,0.7,0.3,0.7,0.8c0,0.4-0.3,0.6-0.7,0.7C81.9,33.8,81.6,33.8,81.2,33.9C81.2,33.8,81.2,33.9,81.2,33.9z"/>
	<path class="st23" d="M83.8,22.6c-3.3-0.6-6.9-1.2-10.4-1.9c-6.8-1.2-13.5-2.3-20.3-3.5c-3.3-0.6-6.5-1.1-9.7-1.7
		c-0.5-0.1-1-0.3-0.9-1c0.1-0.7,0.6-0.7,1.3-0.6c7.6,1.4,15.2,2.7,22.9,4.1c5.6,1,11.3,1.9,16.9,2.9c0.4,0.1,0.8,0.2,1.1,0.4
		c0.4,0.2,0.7,0.5,0.4,1C84.8,22.6,84.5,22.8,83.8,22.6z"/>
	<path class="st23" d="M82.7,28.3c-2.4-0.4-4.8-0.9-7.3-1.3c-6.2-1.1-12.4-2.2-18.6-3.3c-4.7-0.8-9.4-1.6-14.1-2.5
		c-0.3,0-0.6-0.1-0.8-0.2c-0.4-0.2-0.8-0.4-0.7-0.9c0.2-0.5,0.5-0.8,1.1-0.7c2.7,0.5,5.5,1,8.2,1.5c6.3,1.1,12.6,2.2,18.9,3.3
		c4.5,0.8,9,1.6,13.5,2.5c0.5,0.1,1.2,0.1,1.1,0.8C83.9,28.2,83.4,28.4,82.7,28.3z"/>
	<path class="st23" d="M40.5,30.9c2.4,0.4,5,0.8,7.5,1.3c5.7,1,11.4,2,17.1,3.1c1.8,0.3,3.6,0.7,5.4,1c0.7,0.1,1.2,0.3,1.1,1.1
		c-0.1,0.8-0.8,0.6-1.4,0.5c-4.6-0.8-9.1-1.6-13.7-2.4c-5.2-0.9-10.4-1.9-15.6-2.8c-0.2,0-0.5-0.1-0.7-0.2c-0.5-0.1-1.1-0.2-1-0.9
		C39.4,30.8,40,30.9,40.5,30.9z"/>
	<path class="st24" d="M414.7,38.1c0.4,0,0.9,0.1,1.3,0.5c1,1,2.2,1.3,3.4,1.5c3.9,0.8,6.6,3,8,6.7c0.9,2.5,1.9,5,2.9,7.4
		c0.6,1.5,1.6,2.1,3.2,1.9c1.3-0.2,2.1,0.2,2.5,1.3c0.3,1-0.2,1.9-1.4,2.4c-3,1-6,2-9,2.9c-1.1,0.3-1.2,0.8-0.8,1.7
		c0.7,1.6,0.1,2.7-1.7,3.3c-2.1,0.7-3.5,0.2-3.8-1.5c-0.2-1.4-0.7-1.4-1.9-1c-3,1-6.1,1.8-9.2,2.7c-1.5,0.4-2.3-0.1-2.6-1.4
		c-0.2-0.7,0-1.2,0.6-1.5c0.4-0.2,0.8-0.5,1.2-0.8c1.8-1,1.9-1.2,1.5-3.3c-0.6-3.7-1.2-7.3-1.5-11c-0.3-2.9,1.1-5.2,3.1-7.2
		c0.8-0.7,1.4-1.5,1.6-2.6C412.6,38.9,413.3,38.1,414.7,38.1z"/>
	<path class="st25" d="M219,180c2,0.4,4,0.5,6,1.2C223,181,220.9,180.9,219,180z"/>
	<path d="M48.6,164.5c0.3,1,0.6,2,1,2.9c1.8,3.6,6.6,4,8.9,0.7c0.6-0.9,1.1-1.9,1.6-2.8c0.9,2.1,1,4.3,0.2,6.4
		c-1.1,3.1-4.1,4.4-7.2,3C49.7,173.2,47.5,168.3,48.6,164.5z"/>
	<path class="st26" d="M56.7,143.3c-0.4,1.7-0.7,3.4-2.1,4.7c-0.9-1.4-1.9-2.9-2.8-4.3c-0.1-0.2-0.3-0.6-0.3-0.7
		c0.1-0.4,0.6-0.2,0.8-0.2C53.9,142.9,55.3,143.1,56.7,143.3z"/>
	<path class="st2" d="M232.2,137.9c1.8,1.1,3.2,2.7,4.9,4c2,1.5,4.2,2.7,6.6,3.3c3.6,0.8,5.5,0,7.9-3.3c2.2,3.5,3.6,7.3,4.9,11.1
		c0.1,0.3,0.2,0.7,0.4,1c0.9,2.3,0.4,2.6-1.8,3c-6.1,1.2-12,0.1-17.8-2.1c-0.7-0.3-1.5-0.5-2.2-0.9c-1.2-0.6-1.9-1.6-2-3
		c-0.3-3.8-0.6-7.5-1.4-11.2C231.6,139,231.6,138.4,232.2,137.9z"/>
	<path class="st7" d="M248.9,162.4c2.7,0,5.4,0,8,0c1.6,0,2,0.4,1.9,2c-0.1,5.5-1.4,10.8-3.7,15.9c-0.6,1.3-1.5,2.1-3,2.4
		c-2.3,0.5-4.5,1.2-6.6,2c-1.2,0.5-2.3,0.4-3.4-0.2c-1.7-1-3.4-1.8-5.1-2.7c-1.5-0.8-1.9-1.5-1.4-3.1c1-3.5,1.8-7,2.4-10.6
		c0.1-0.8,0.6-1.3,1-2c0.3-0.5-0.6-1.2-0.4-2c0.2-1.1,0.7-1.6,2-1.6C243.4,162.4,246.1,162.4,248.9,162.4z"/>
	<path class="st2" d="M436.2,194.4c-0.3-2.3,0.3-4.6,0.8-6.8c0.9-3.7,2.1-7.2,3.8-10.5c1.5-3.1,2.1-6.2,2.3-9.5
		c0.5-6.8,1-13.7,1.5-20.5c0.2-3.5,1.2-7,4.1-9.4c2.8-2.4,6.1-2.7,9.6-1.7c1.5,0.4,2.4,1.6,3.1,2.9c1.6,2.7,2.2,5.8,2.6,8.9
		c0.7,6,0.8,12,0,18c-0.4,3.6-1.8,6.9-2.7,10.4c-0.4,1.4-0.8,2.8-1.2,4.3c-0.1,0.5-0.3,0.9-0.1,1.4c-1.6,4-2.1,8.2-1.9,12.5
		c0.1,2.5-0.3,4.9-1.3,7.3c-2.8,6.2-10.9,7.3-15.5,3.4c0.2-0.9,1-1.1,1.8-1.2c0.8-0.2,1.5,0.3,2.2,0.1c2.8-0.5,4.8-2.2,5.5-5
		c0.1-0.4,0-0.8,0.5-1c1.6-1.9,0.7-4.5-0.6-6.4c-1.2-1.7-3.2-2.2-5.6-1.4c-2.1,0.7-4,1.9-6,2.9C438.1,193.4,437.1,193.9,436.2,194.4
		z"/>
	<path d="M470.8,199.7c2.5-0.5,5.1-1.1,7.6-1.6c0.3-0.1,0.7-0.1,1.1-0.1c-5.1,5.1-6.5,11.7-7.7,18.4c-0.7,4.2-1,8.5-1.1,12.7
		c0,0.4,0.1,1-0.3,1.3c-1.4-2.1-1.4-4.5-1.4-6.8c-0.2-7.8,0.7-15.5,1.7-23.2C470.6,200.1,470.7,199.9,470.8,199.7z"/>
	<path class="st24" d="M210.5,177.9c-2.6,4.9-7.6,6.4-12.5,8.5c5.2-0.5,9.2-2.6,12.2-6.6c0.4-0.5,0.6-0.6,1.2-0.3
		c0.6,0.3,1.3,0.5,2.1,0.7c-1.9,1.7-3.8,3.4-5.6,5c-2.4,2.1-4,4.6-5.5,7.3c-1.4,2.6-2.6,5.3-3.6,8.1c-0.4,1.1-0.7,1.2-1.5,0.2
		c-3-3.5-5.1-7.4-5.9-12c-0.1-0.9-0.3-1.8-0.7-2.5c-0.5-1-0.1-1.3,0.6-1.8c1.5-0.9,2.9-1.9,4.4-2.9c4-0.2,7.7-1.4,11-3.5
		c1-0.6,1.5-1.5,1.4-2.7C210.1,175.8,210.1,175.8,210.5,177.9z"/>
	<path class="st27" d="M217.8,176.3c-0.1-11.5,0.5-12.4,5-23.4C221.1,160.6,219,168.4,217.8,176.3z"/>
	<path class="st14" d="M206.6,170.9c-1.9-2.2-1.7-4.7,0.6-7C208.1,166.3,207.9,168.6,206.6,170.9z"/>
	<path class="st1" d="M403,199.6c2.3,0.6,4.6,1.1,6.8,1.7c0.3,0.1,0.8,0.1,0.8,0.4c0.1,1.2,1.1,1.1,1.8,1.4c1.5,0.7,2.4,1.5,1.6,3.5
		c-1.2,1.3-2.7,1.6-4.4,1.4c-1.7-0.2-2.8,0.6-4,1.8c1.2,0.6,2.5,0.6,3.7,1c0.4,0.1,0.9,0.1,1,0.6c0.1,0.5-0.4,0.7-0.8,0.9
		c-1.4,0.6-2.8,0.8-4.3,0.5c-3.4-0.8-6.8-1.6-10.2-2.4c-0.4-0.1-0.8,0-1.2-0.1c-1.2-0.4-2.5-0.7-3.8-0.9c-1.4-0.2-1.9-1.4-2.4-2.4
		c-0.3-0.9-0.1-1.2,0.8-1c0.3,0.1,0.6,0.1,0.9,0.2c0.8-0.2,1.6,0.3,2.4,0.3c0.2-0.8-0.7-1.4-0.3-2.2c-0.5-2-0.6-4-0.2-6.1
		c0.1-0.6,0.3-1,1-1c3.4,0.8,6.7,1.6,10.1,2.3C402.6,199.6,402.8,199.6,403,199.6z"/>
	<path class="st23" d="M437.6,140.4c0,0.2,0,0.3,0,0.5c-2.7,3.9-4.8,8.1-7.2,12.1c-0.1,0.2-0.2,0.4-0.4,0.6
		c-0.6,0.9-1.2,1.8-2.5,1.6c-1.3-0.2-1.7-1.1-2-2.2c-0.4-1.7-0.9-3.4-1.3-5.1c0.5-0.2,0.9-0.7,1.2-1.1c0.5-1,1.2-1.1,1.9-0.4
		c1.7,1.5,2.9,0.5,4.3-0.4c1.6-1.1,2.6-2.6,3.7-4C435.9,141.1,436.4,140.1,437.6,140.4z"/>
	<path class="st28" d="M239,111.8c1,0,1.9,0,2.9,0c0.6,0,1.2,0.4,1.2,0.9c0.1,0.7-0.5,1-1.1,1.2C240.9,114.2,239.9,113.6,239,111.8z
		"/>
	<path class="st16" d="M247.5,103.3c0.1-0.7,0-1.4,1-1.4c0.8,0,1.2,0.5,1.1,1.2c-0.1,0.7-0.1,1.6-1.2,1.6
		C247.5,104.7,247.5,104,247.5,103.3z"/>
	<path class="st16" d="M239.2,103.4c0,0.7,0,1.3-0.8,1.3c-0.9,0-1.1-0.7-1.2-1.5c0-0.7,0.2-1.4,1-1.4
		C239.2,101.9,239.2,102.7,239.2,103.4z"/>
	<path class="st29" d="M244.1,108.8c0-1.5,0-2.9,0-4.4c0-0.3,0.1-0.6,0.1-1.3C244.6,105.2,245,107,244.1,108.8z"/>
	<path class="st30" d="M300.8,172.8c0.9-0.1,1.6-0.2,2.3-0.3c0.6,0,1.2,0.2,1.5,0.8c0.2,0.4,0.1,0.7-0.2,1c-0.5,0.4-1,0.6-1.6,0.5
		C301.7,174.6,301.4,173.7,300.8,172.8z"/>
	<path class="st31" d="M303.8,169.1c2-1.9-0.6-4,0.6-6c0.6,1.7,1.1,3.3,1.3,4.9C305.7,168.9,305.3,169.1,303.8,169.1z"/>
	<path class="st32" d="M309.7,162.4c-0.1,0.5,0.1,1.3-0.9,1.3c-1.1,0-1.3-0.8-1.2-1.7c0-0.7,0-1.5,1-1.4
		C309.6,160.7,309.7,161.4,309.7,162.4z"/>
	<path class="st32" d="M300.9,162.9c0.1,0.7-0.1,1.4-1,1.4c-1,0-1.1-0.8-1.2-1.6c0-0.7,0.1-1.3,1-1.4
		C300.7,161.3,300.9,162,300.9,162.9z"/>
	<path class="st1" d="M139.6,216.2c0.1,3.1,0.1,6.3,0.2,9.4c0,0.8-0.2,1-1,1.1c-2.2,0.1-4.5,0.1-6.7,0c-0.8,0-1.2-0.2-1.1-1.2
		c0.1-3.1,0.1-6.2,0.2-9.3c0.2-0.2,0.5-0.3,0.9-0.3c2.2-0.1,4.3,0,6.5,0C138.9,215.9,139.3,216,139.6,216.2z"/>
	<path class="st1" d="M131.2,215.5c-0.2-2.7,0.5-3.4,3.1-3.4c0.8,0,1.5,0,2.3,0c2.3,0,3.1,0.8,2.9,3.1c-0.2,0.2-0.4,0.3-0.6,0.3
		C136.3,215.6,133.8,215.7,131.2,215.5z"/>
	<path class="st22" d="M130,226.2c-2.2,0.3-3.1-0.5-2.8-2.6c0.1-0.7,0.1-1.4,0.1-2.1c-0.1-0.7,0-1.3,0.2-2.4
		C128.4,221.6,129.2,223.9,130,226.2z"/>
	<path class="st33" d="M131.2,215.5c0.5-0.3,1-0.2,1.5-0.2c2.3,0,4.6,0,6.8,0c0,0.3,0,0.6,0,1c-2.8,0-5.6,0-8.4,0
		C131.2,216,131.2,215.7,131.2,215.5z"/>
	<path class="st34" d="M408.7,123.4c0.9,0.6,1.2,1.5,1.4,2.4c0.1,0.6,0.1,1.1,0.2,1.7c0.2,2.4,0.6,2.9,3,3.1
		c-0.3,0.1-0.4,0.2-0.6,0.2c-2.1,0.7-2.5,0.5-2.9-1.7C409.3,127.3,409.1,125.3,408.7,123.4z"/>
	<path class="st14" d="M415.1,117.2c0.6,0,1,0.3,1,0.8c0.1,0.7-0.4,0.8-0.9,0.7c-0.9-0.1-1.7,0.2-2.5,0.7c-0.5,0.3-1.2,0.5-1.4,0.1
		c-0.3-0.5,0.2-1,0.7-1.3C413,117.6,414.1,117.4,415.1,117.2z"/>
	<path class="st14" d="M416.5,123.6c-0.1,0.4-0.2,1-0.8,1c-0.8,0-1.6-0.8-1.5-1.9c0-0.6,0-1.3,0.8-1.3
		C415.8,121.4,416.5,122.4,416.5,123.6z"/>
	<path class="st34" d="M406.4,127.2c-0.1,0.6-0.2,1.1-0.9,1.1c-0.8,0-1.3-0.8-1.3-1.9c0-0.6,0.1-1.1,0.8-1
		C406.1,125.5,406.2,126.4,406.4,127.2z"/>
	<path class="st35" d="M414.7,134.7c0.9-0.8,1.8-1.6,2.7-2.4C417.6,133.7,416.4,134.9,414.7,134.7z"/>
	<path class="st36" d="M187.7,161.9c0.5,1.1,0.3,2,0,3c-0.1,0.5-0.3,1-0.4,1.5c-0.5,2.1-0.2,2.6,1.7,3.3c-2.4,0.6-3.2-0.2-2.7-2.6
		c0.3-1.3,0.3-2.7,0.7-4C187.2,162.7,187.3,162.3,187.7,161.9z"/>
	<path class="st36" d="M196.1,159.3c0,0.4-0.2,0.6-0.6,0.6c-1.1,0.1-2.2,0.2-3.2,0.7c-0.3,0.2-0.7,0.2-0.9-0.3
		c-0.2-0.5-0.1-0.8,0.3-1c1.2-0.5,2.5-0.7,3.9-0.7C195.9,158.6,196,158.9,196.1,159.3z"/>
	<path class="st37" d="M194.7,162.9c-0.1,0.5,0,1.3-0.9,1.3c-1,0-1.1-0.7-1.1-1.5c0-0.6,0.1-1.3,1-1.4
		C194.7,161.4,194.6,162.2,194.7,162.9z"/>
	<path class="st38" d="M192.8,171.8c-0.5,1.7-1.3,2.1-3.3,1.7C190.6,172.9,191.7,172.4,192.8,171.8z"/>
	<path class="st7" d="M387.7,206.9c0.9,0.7,1.2,2,2.4,2.4c-1.7,1.5-3.6,2.1-5.7,1.3c-2.1-0.8-3.3-2.7-3.3-5.1c0-1,0.1-2.1,0.5-3.1
		c0.5,0.6,1,1.2,1.4,1.9C384.1,205.9,385.7,206.8,387.7,206.9z"/>
	<path class="st39" d="M391.5,204.2c0.3,0.8,0.7,1.7,1.1,2.6c-1.2-0.1-2.2-0.4-3.2-0.7C390.1,205.5,390.8,204.9,391.5,204.2z"/>
	<path class="st20" d="M451.2,197.8c-0.4,3.4-2.5,5.8-5.6,6.3c-0.9,0.1-1.7-0.1-2.5-0.4C445.7,201.6,448.3,199.6,451.2,197.8z"/>
	<path class="st40" d="M55.2,90.2c0.8,3.4-0.6,7.1-3.2,8.1C54.7,96,53.9,92.8,55.2,90.2z"/>
	<path class="st16" d="M47.4,90.2c0.1-0.8,0.3-1.7,1.4-1.7c1,0,1,0.9,0.9,1.5c-0.1,0.8-0.1,1.8-1.3,1.7
		C47.4,91.6,47.4,90.9,47.4,90.2z"/>
	<path class="st18" d="M58.6,92.6c0.1-0.9,0.1-1.8,1.3-1.8c0.7,0,0.8,0.5,0.8,1.1c0,1.2-0.5,1.9-1.3,1.9
		C58.6,93.8,58.6,93.2,58.6,92.6z"/>
	<path class="st38" d="M49.5,100.2c-1.8,0.2-2.7-0.7-2.7-2.5C47.7,98.5,48.5,99.3,49.5,100.2z"/>
	<path class="st24" d="M267.8,228c-0.4-4.3-0.8-8.7-1-13c-0.4-2.4,1.7-3.1,3-4.3c0.4-0.4,1-0.4,1.5,0c0.5,0.3,0.6,0.9,0.4,1.4
		c-1.3,4.3-1.4,8.8-3,13C268.2,226,268.4,227.1,267.8,228z"/>
	<path class="st41" d="M435.1,193.2c-1.8-1.7-2.9-3.7-3.7-5.8c-0.1-0.4,0.1-0.6,0.4-0.8c1.3-1.1,3-1.3,4.4-2.2
		c0.1-0.1,0.4-0.1,0.6,0c0.2,0.2,0.1,0.4,0,0.6c-0.6,1.9-1.1,3.8-1.4,5.8C435.3,191.5,435.2,192.2,435.1,193.2z"/>
	<path class="st41" d="M438.9,179c-0.4,1.1-0.7,2-1.1,2.9c-0.1,0.1-0.2,0.4-0.2,0.4c-1.1-0.1-1.6,1.2-2.7,1.2
		c-0.5,0-0.9,0.3-1.3,0.6c-0.6,0.5-1.2,0.8-2,0.9c-0.7,0.1-1.4,0.3-1.6-0.7c-0.2-1,0-1.5,0.9-1.8C433.6,181.5,436,179.9,438.9,179z"
		/>
	<path class="st0" d="M66.9,153.7c1,0,1.9,0,2.9,0c0.6,0,1,0.3,0.9,1c-0.5,3.7-0.7,7.4-1.7,11c-0.2,0.7-0.4,1.3-0.7,1.9
		c-0.4,0.9-1.1,1.6-2.1,2c-0.8,0.3-1.2,0.3-1.1-0.8c0.3-2.7,0.1-5.3-1.1-7.8c-0.2-0.4-0.4-0.8-0.6-1.2c-0.3-0.5-1-0.7-0.9-1.5
		c0.1-1.5,0.3-2.9,0.9-4.3c0.2-0.4,0.5-0.3,0.8-0.3C65,153.7,65.9,153.7,66.9,153.7C66.9,153.7,66.9,153.7,66.9,153.7z"/>
	<path class="st42" d="M67.2,151.8c-0.8,0-1.6,0-2.4,0c-0.3,0-1,0.2-0.8-0.5c0.1-0.6-0.3-1.5,0.7-1.6c1.5-0.1,3,0,4.5,0
		c0.7,0,1.1,0.4,1.2,1.1c0.1,0.6,0,1-0.8,1C68.9,151.9,68.1,151.9,67.2,151.8C67.2,151.9,67.2,151.9,67.2,151.8z"/>
	<path class="st43" d="M419.5,57.7c-2.8,0.9-5.5,1.8-8.2,2.4c-0.3,0.1-0.8,0.4-1-0.2c-0.1-0.6,0.5-0.4,0.8-0.5
		c2.2-0.7,4.5-1.4,6.7-2.1C418.4,57.1,418.9,57.1,419.5,57.7z"/>
	<path class="st44" d="M423.9,60.1c0.4-0.1,0.7-0.1,0.7,0.3c0,0.3,0.1,0.6-0.4,0.8c-1.5,0.5-3.1,0.9-4.6,1.4c-0.3,0.1-0.4,0-0.5-0.3
		c-0.1-0.4,0.1-0.7,0.4-0.9C421.1,60.7,422.5,60.2,423.9,60.1z"/>
	<path class="st0" d="M249,163.2c2.6,0,5.3,0,7.9,0c1.1,0,1.5,0.4,1.5,1.5c-0.3,5.5-1.6,10.8-3.9,15.8c-0.4,0.9-1.1,1.4-2.1,1.6
		c-2.4,0.5-4.7,1.2-7,2c-1,0.4-1.9,0.3-2.9-0.2c-1.7-0.9-3.4-1.8-5.1-2.7c-1-0.5-1.4-1.2-1-2.3c1.1-3.5,1.8-7.1,2.4-10.7
		c0.2-1.1,0.7-1.5,1.8-1.5c1.6,0,3.2,0,4.8,0c0.4,0,1,0.1,1-0.6c0-0.7-0.6-0.5-1-0.5c-1.5,0-3,0-4.6,0c-0.9,0-1.4-0.3-1.4-1.2
		c0-0.9,0.5-1.2,1.4-1.2C243.6,163.2,246.3,163.2,249,163.2z"/>
	<path class="st45" d="M192.6,187.1c0.4-1.2,0.8-2.2,1.7-2.9c0.5-0.4,1.1-0.9,1.8-0.6c0.7,0.3,0.9,1.1,1,2
		C194.9,183.9,194.2,186.6,192.6,187.1z"/>
	<path class="st46" d="M410.7,206.9c-1.8,0-1.8,0-1-1.3c0.4-0.7,0.5-1.9,1.9-1.4c0.7,0.2,1.3,0.5,1.2,1.2c0,0.7-0.5,1.2-1.2,1.4
		C411.2,206.9,410.7,206.9,410.7,206.9z"/>
</g>
</svg>
