<svg id="Livello_1" data-name="Livello 1" xmlns="http://www.w3.org/2000/svg" viewBox="0 0 500.58 235.7"><defs><style>.cls-1{fill:none;}.cls-2{fill:#fb4133;}.cls-3{fill:#aab2ba;}.cls-4{fill:#ffb300;}.cls-5{fill:#fff;}.cls-6{fill:#f2b78c;}.cls-7{fill:#f1b59b;}.cls-8{fill:#eef7fd;}.cls-9{fill:#bc7290;}.cls-10{fill:#ff6300;}.cls-11{fill:#fdfdfd;}.cls-12{fill:#72acbb;}.cls-13{fill:#dbe2ea;}.cls-14{fill:#92526a;}.cls-15{fill:#5c63aa;}.cls-16{fill:#6e3467;}</style></defs><title>board..img</title><rect x="214.06" y="147.14" width="9.57" height="33.89"/><path class="cls-1" d="M416.52,171.79a13.19,13.19,0,0,1-1.55-2.17A11.43,11.43,0,0,0,416.52,171.79Z" transform="translate(0 0)"/><path class="cls-1" d="M418.05,173.15Z" transform="translate(0 0)"/><path class="cls-1" d="M409.88,207.74l-2.68,1.45c.28-.94.27-1.21.4-1.33h.19A8.14,8.14,0,0,0,409.88,207.74Z" transform="translate(0 0)"/><path class="cls-1" d="M411.83,206.68a2.33,2.33,0,0,0,.47-2c-.22-.85-1.18-1.82-3.16-2.07-.49-.06-.45-.24-.38-.49.17-.69.08-.78-.87-1l-7.13-1.65c3-3.69,6.67-6.64,10-10l4.36-4.43c2.91,3,5.67,6.13,8.79,8.88a5.67,5.67,0,0,1,2.23,4.63C421.52,201.43,416.8,204,411.83,206.68Z" transform="translate(0 0)"/><path class="cls-1" d="M125.11,223c-.36,2.37.4,3.61,3,3.12q-1.32-3.72-2.65-7.44C124.74,220.07,125.32,221.56,125.11,223Z" transform="translate(0 0)"/><path class="cls-1" d="M187.05,218.56a50.89,50.89,0,0,1-18.21.23l.51-.34c.74-.48,1.47-1,2.18-1.5.42-.3.84-.6,1.25-.92l1.63-1.27c.54-.43,1.07-.86,1.59-1.3,2.1-1.76,4.1-3.58,6.12-5.4.19.18.38.36.55.54.34.35.67.71,1,1.08l.44.57.19.26h0l.24.35c.15.22.29.45.43.68l.31.57c.11.22.22.43.32.65s.2.44.29.66.18.46.27.7.15.44.22.67h0c.06.23.13.46.18.69.12.45.21.91.29,1.39v.07a7.4,7.4,0,0,0,.12.93v.22Z" transform="translate(0 0)"/><path class="cls-1" d="M238.09,113.14a1.84,1.84,0,0,0,2.07.49,1.43,1.43,0,0,0,.43-.25,1.43,1.43,0,0,1-.43.25A1.86,1.86,0,0,1,238.09,113.14Z" transform="translate(0 0)"/><path class="cls-1" d="M237,111.63c1.49.18,2.73-.37,3.62.34-.89-.72-2.13-.16-3.62-.35Z" transform="translate(0 0)"/><path class="cls-1" d="M318.09,230.05c0-.1.08-.2.11-.3a3.42,3.42,0,0,1-.13.34h0Z" transform="translate(0 0)"/><path class="cls-1" d="M318.28,229.33a.79.79,0,0,1-.08.45,1.27,1.27,0,0,0,.06-.28A1,1,0,0,1,318.28,229.33Z" transform="translate(0 0)"/><path class="cls-1" d="M318,230.2h0l-.07.11h0A.19.19,0,0,1,318,230.2Z" transform="translate(0 0)"/><path class="cls-1" d="M269.09,213.52c-1.07,4.23-1.3,8.65-3,12.71A11.8,11.8,0,0,1,266,229c-.07.44-.15.88-.25,1.32h-3a43.75,43.75,0,0,1,1-7.12,47.81,47.81,0,0,1,.35-5.21c0-.43.09-.87.13-1.3a20.37,20.37,0,0,0,.12-3.49l.35-.18a5.62,5.62,0,0,0,1.14-.72c1-1,2-2.54,3.43-1.88C270.32,210.92,269.36,212.47,269.09,213.52Z" transform="translate(0 0)"/><path class="cls-1" d="M263.12,40.57a3.4,3.4,0,0,1-.67,2.36A3.4,3.4,0,0,0,263.12,40.57Z" transform="translate(0 0)"/><path class="cls-1" d="M217.29,21.13a1.52,1.52,0,0,0,.18,1.55,1.52,1.52,0,0,1-.18-1.55,4,4,0,0,1,1.9-1.41,4,4,0,0,0-1.9,1.41,1.05,1.05,0,0,0-.67,1A1.05,1.05,0,0,1,217.29,21.13Z" transform="translate(0 0)"/><path class="cls-1" d="M61.27,152.72l-.06.19v-.19Z" transform="translate(0 0)"/><path class="cls-1" d="M61.38,152.33l-.07.21.06-.21Z" transform="translate(0 0)"/><path class="cls-1" d="M217.59,41.19l.33,1.32a10.4,10.4,0,0,0,.1,1.11c0-.37-.07-.74-.1-1.11Z" transform="translate(0 0)"/><path class="cls-1" d="M262.61,22.06h0c.25,3.63.43,7.27.5,10.91C263,29.33,262.86,25.69,262.61,22.06Z" transform="translate(0 0)"/><path class="cls-1" d="M81.09,117.12l-.38-.42.38.42.59.46h0Z" transform="translate(0 0)"/><path class="cls-1" d="M83.74,142l-.22.33.21-.33Z" transform="translate(0 0)"/><path class="cls-1" d="M80.52,28q-8.23-1.48-16.45-2.95Q72.29,26.53,80.52,28c.42,0,.94.12,1.22-.16C81.52,28.14,81,28,80.52,28Z" transform="translate(0 0)"/><path class="cls-2" d="M202.52,31.33c.26,6.41.41,12.82.7,19.23.24,5.41,3.25,8.24,8.66,8.13,5.83-.13,11.65-.35,17.48-.61a3.93,3.93,0,0,1,3.48,1.46c2.37,2.79,4.89,5.45,7.24,8.26,1.15,1.39,1.89,1.45,3-.1,2.16-3,4.5-6,6.72-9a3.44,3.44,0,0,1,2.88-1.61c5.41-.13,10.82-.42,16.23-.56,6.78-.17,9.73-3.18,9.5-9.92-.45-11.39-.87-22.79-1.36-34.18a7.7,7.7,0,0,0-7.72-7.68h-.44c-6.07.15-12.14.55-18.21.79q-20.46.83-40.93,1.59c-5,.2-8.24,4-7.93,9S202.35,26.21,202.52,31.33Zm14.07-9.17a1.05,1.05,0,0,1,.67-1,4,4,0,0,1,1.9-1.41,6.44,6.44,0,0,1,.72-.2l.69-.12.64-.07a12.21,12.21,0,0,0,1.48-.06q17.75-.72,35.51-1.27a8.4,8.4,0,0,1,1.94.11,2.09,2.09,0,0,1,1.8,1.39,4.21,4.21,0,0,1,.16.86v.84l.46.83h0c.25,3.63.43,7.27.5,10.91,0,2.21.06,4.43,0,6.65v1a3.4,3.4,0,0,1-.67,2.36,3,3,0,0,1-.52.48,3.73,3.73,0,0,1-.9.43,5.34,5.34,0,0,1-1.49.24c-9,.38-18.06.71-27.09,1.07-3.31.13-6.63.22-9.94.41a6.12,6.12,0,0,1-1.21,0,4.73,4.73,0,0,1-3.09-1.47,2.6,2.6,0,0,1-.32-.26.8.8,0,0,1,.13-.19c0-.37-.07-.74-.1-1.11l-.33-1.32v-.83a23.35,23.35,0,0,0-.33-5.78,1.12,1.12,0,0,1-.62-1V22.16Z" transform="translate(0 0)"/><path class="cls-3" d="M31.68,44c4.89.93,9.8,1.81,14.73,2.52a3.7,3.7,0,0,1,3.09,2.08c1.44,2.72,3.06,5.34,4.43,8.09.83,1.67,1.56,1.53,2.76.45,2.29-2.06,4.71-4,7-6.07a3.57,3.57,0,0,1,3.41-.9q7.47,1.36,15,2.65a6.83,6.83,0,0,0,8-5.43v-.27l2.74-14.94a7.26,7.26,0,0,1,.09-1.47c.56-5.73,2.59-11.26,2.32-17.1-1.18-3-3.56-4.41-6.64-4.94Q69.49,5.33,50.38,2c-1.72-.3-3.42-.65-5.13-1a1,1,0,0,1-1-.27A21.22,21.22,0,0,1,40.52.33c-4.69-1.24-8.29,1.06-9.15,5.84q-2.61,14.45-5.1,28.91C25.36,39.72,27.52,43.16,31.68,44Zm8.63-29.72c.22-1,1.24-.54,1.9-.42Q61.62,17.2,81,20.64a6.9,6.9,0,0,1,1,.23c.47.15,1.07.26,1,.91-.11.84-.79.66-.69.66l-28.9-5.11c-3.84-.68-7.69-1.32-11.52-2.07C41.29,15.19,40.06,15.38,40.31,14.24Zm-1,5.58c.23-1,1.09-.43,1.68-.32q6,1,12,2.09,12.78,2.23,25.55,4.5c.74.13,1.47.3,2.2.47.52.12,1.34,0,1.21.87a.78.78,0,0,1-.2.43c-.28.28-.8.16-1.22.16q-8.23-1.48-16.45-2.95L41.52,21.13c-.24-.05-.5-.05-.74-.1-.74-.16-1.76-.12-1.51-1.21Zm-1,5.76c.22-.87,1.13-.51,1.73-.41Q52,27.24,63.87,29.36q7.74,1.37,15.48,2.76c.61.11,1.63-.06,1.57.8-.07,1.12-1.14.58-1.94.68L61,30.41Q51,28.67,41.07,27a7.09,7.09,0,0,1-1.21-.28c-.65-.23-1.84.12-1.54-1.1Zm-.07,5.12,23.08,4.09c2.29.41,4.57.82,6.85,1.25.6.12,1.56,0,1.38,1s-1.09.59-1.67.49c-4.66-.79-9.3-1.63-13.95-2.47q-7.71-1.38-15.41-2.79c-.53-.09-1.31-.05-1.28-.87s.75-.72,1-.7Z" transform="translate(0 0)"/><path class="cls-4" d="M415.09,57.25c-1.91.53-3.82,1.11-5.7,1.72a2,2,0,0,1-1.34.15l.26,1c3.15-.51,6.1-1.73,9.39-2.67C416.52,56.41,415.81,57.05,415.09,57.25Zm0,0c-1.91.53-3.82,1.11-5.7,1.72a2,2,0,0,1-1.34.15l.26,1c3.15-.51,6.1-1.73,9.39-2.67C416.52,56.41,415.81,57.05,415.09,57.25Zm-11,7.52-.12.11a4.68,4.68,0,0,1,.54-.3.57.57,0,0,0,.08-.13Zm11-7.52c-1.91.53-3.82,1.11-5.7,1.72a2,2,0,0,1-1.34.15l.26,1c3.15-.51,6.1-1.73,9.39-2.67C416.52,56.41,415.81,57.05,415.09,57.25Zm0,0c-1.91.53-3.82,1.11-5.7,1.72a2,2,0,0,1-1.34.15l.26,1c3.15-.51,6.1-1.73,9.39-2.67C416.52,56.41,415.81,57.05,415.09,57.25Zm0,0c-1.91.53-3.82,1.11-5.7,1.72a2,2,0,0,1-1.34.15l.26,1c3.15-.51,6.1-1.73,9.39-2.67C416.52,56.41,415.81,57.05,415.09,57.25Zm0,0c-1.91.53-3.82,1.11-5.7,1.72a2,2,0,0,1-1.34.15l.26,1c3.15-.51,6.1-1.73,9.39-2.67C416.52,56.41,415.81,57.05,415.09,57.25Zm0,0c-1.91.53-3.82,1.11-5.7,1.72a2,2,0,0,1-1.34.15l.26,1c3.15-.51,6.1-1.73,9.39-2.67C416.52,56.41,415.81,57.05,415.09,57.25Z" transform="translate(0 0)"/><path class="cls-4" d="M451.62,57c-2.35-7.62-4.63-15.25-6.94-22.88-.08-.47-.15-1-.23-1.42-1-1.27-1-3-1.66-4.37-1.82-3.62-4.74-5-8.6-3.82-4.84,1.43-9.69,2.83-14.53,4.24l-1,.33c-3,.91-5.84,2.15-8.93,2.64l-1.59.74c-7.48,2.25-15,4.43-22.42,6.76-3.68,1.15-5.85,4.52-4.86,7.88,3,10.12,6,20.22,9.27,30.25,1.37,4.22,4.32,5.51,8.69,4.37C402,80.9,405,80,408.15,79.12l.87-.19c3.44-1.78,6.73-2.57,10,.52,1.55,1.46,3.64,2.33,5.31,3.7,1.35,1.09,1.93.78,2.5-.66,1.17-2.94,2.47-5.83,3.58-8.78a3.22,3.22,0,0,1,2.37-2.25c4.48-1.26,8.93-2.64,13.38-4C451.67,65.78,453.32,62.52,451.62,57Zm-19.71,2.75c-2.94.89-5.86,1.83-8.79,2.75l-.49.15v1h0c1.28,2,0,3.2-1.58,3.7s-3.49.38-3.75-2.08a5.59,5.59,0,0,0-.16-.91l-7.2,2.1h0l-4,1.15a1.64,1.64,0,0,1-2-1l-.22-.57V66a1,1,0,0,1,.33-1.13l.12-.11.5-.32c.54-.33,1.18-.69,1.7-1a1.79,1.79,0,0,0,.44-.34,1.59,1.59,0,0,0,.44-.91,1,1,0,0,1,0-.65q-.27-1.85-.57-3.72l-.45-2.8c-.08-.44-.14-.87-.18-1.31l-.55-5.13A10.43,10.43,0,0,1,409.11,42a3.34,3.34,0,0,0,1.2-2,2.35,2.35,0,0,1,4-1.41,4.36,4.36,0,0,0,2.59,1.17,10.64,10.64,0,0,1,8.84,7.49c.78,2.28,1.74,4.5,2.64,6.73a2.69,2.69,0,0,0,3.1,1.94,2.64,2.64,0,0,1,2,.3,1.83,1.83,0,0,1,.62,1.19C434.24,58.9,433.11,59.38,431.91,59.74Z" transform="translate(0 0)"/><path class="cls-1" d="M407.17,61.58a1,1,0,0,0,0,.65,1.29,1.29,0,0,0,0-.48Z" transform="translate(0 0)"/><path class="cls-5" d="M434,57.43a1.83,1.83,0,0,0-.62-1.19,2.64,2.64,0,0,0-2-.3,2.69,2.69,0,0,1-3.1-1.94c-.9-2.23-1.86-4.45-2.64-6.73a10.64,10.64,0,0,0-8.84-7.49,4.36,4.36,0,0,1-2.59-1.17c-1.45-1.39-3.53-.62-4,1.41a3.34,3.34,0,0,1-1.2,2,10.43,10.43,0,0,0-3.61,6.57l.55,5.13a7.24,7.24,0,0,0,.18,1.31l.45,2.8q.3,1.88.57,3.72v.17a1.29,1.29,0,0,1,0,.48,1.59,1.59,0,0,1-.44.91,1.79,1.79,0,0,1-.44.34c-.52.28-1.16.64-1.7,1a.57.57,0,0,1-.08.13,4.68,4.68,0,0,0-.54.3,1,1,0,0,0-.33,1.13v.08l.22.57a1.64,1.64,0,0,0,2,1l4-1.15h0l7.2-2.1a5.79,5.79,0,0,0,.16.91c.26,2.46,2.08,2.61,3.75,2.08s2.86-1.7,1.58-3.7h0v-1l.49-.15c2.93-.92,5.85-1.86,8.79-2.75C433.11,59.38,434.24,58.9,434,57.43Zm-25.7,2.72-.26-1a2,2,0,0,0,1.34-.15c1.88-.61,3.79-1.19,5.7-1.72.72-.2,1.47-.84,2.61.23C414.41,58.42,411.46,59.64,408.31,60.15Zm14.28.7-5.33,1.61a5.67,5.67,0,0,0-.16-.9,7.34,7.34,0,0,1,1-.53,14.11,14.11,0,0,1,3.11-1c.48-.1,1-.18,1.44-.26,0,.38,0,.73-.06,1.08Z" transform="translate(0 0)"/><path class="cls-6" d="M70.26,120H69.7a7,7,0,0,0-.79,0,6.11,6.11,0,0,0-.86.09l-.81.11-.53.07q-.4,0-.81,0a3.45,3.45,0,0,1-2.27-.75c-.92,1.7-2.55,2.41-4.22,3.06-1.38,1.56-2.48,1.46-3.67-.33A96.38,96.38,0,0,0,47,111.06l-.35-.4a3.64,3.64,0,0,1-.35-.52h0a1.36,1.36,0,0,1,.31-1.63,2,2,0,0,1,.54-.59c1.15-.85,2.71.14,3.92-.42l1-.4c4.29-2.24,5.66-6.52,7.39-10.54,0-.34.07-.67.1-1,.14-2.28,1.34-4.39,1-6.73-1.11-1.44-2.92-.51-4.63-1.32,2.06-1.38,3.6-.25,5.17.27l.66-2.15a2.35,2.35,0,0,0,.13-.74c-.14-1.1,1.1-2.5,0-3.21s-2.54.18-3.77.64a2.35,2.35,0,0,0-.67.34c-4.66,3.94-10.35,4.55-16.1,4.91-2,.12-4,1.33-6.1-.29-1-.77-1.72.41-1.83,1.56a7.6,7.6,0,0,0,1.78,5.29c.09.12.17.23.24.34l.2.3.23.4a4.48,4.48,0,0,1,.29.58,2.33,2.33,0,0,1,.11.28h0a1.4,1.4,0,0,1,.09.29.43.43,0,0,0,.07.29v.13h0v.2a3.69,3.69,0,0,1,0,.47v.27a.67.67,0,0,1-.08.37h0a1.58,1.58,0,0,1-.09.31.79.79,0,0,1-.1.27.92.92,0,0,1-.09.23c-.06.13-.13.27-.21.41h0a6.46,6.46,0,0,1-.44.71c-.15.22-.31.44-.49.67a13.54,13.54,0,0,1-2.45,6.68,74.59,74.59,0,0,0,3.82,15.22c3.51,2.64,6.9,5.46,11.11,7a12.51,12.51,0,0,0,4.6.93c3.56-.06,5-1.33,6.48-6.16a8.93,8.93,0,0,1,.71,6.92c-1.35,4-3.1,7.85-4.69,11.77-.42,1.66-.7,3.38-2,4.67q-3.06,8.19-6.11,16.37c.76,4.55,3,6.63,6.62,6,2.87-.5,3.94-2.76,4.83-5.15.08-.3.14-.62.19-.93s.13-.87.19-1.31.1-.67.17-1a.64.64,0,0,1,.08-.36l.09-.37a4.86,4.86,0,0,1,1-1.89.33.33,0,0,1-.13-.26,14.42,14.42,0,0,1,1.2-5.9.38.38,0,0,1,.35-.23h.12v-.13l.06-.21a.25.25,0,0,1-.17-.11.36.36,0,0,1-.08-.3v-.71l.09-.74a.67.67,0,0,1,.07-.39.79.79,0,0,1,.06-.22.49.49,0,0,1,0-.17,1.48,1.48,0,0,1,.1-.27v-.14l.06-.12a1.92,1.92,0,0,1,.18-.31.37.37,0,0,1,.32-.17h.1q.78-3,1.57-6.08A13.38,13.38,0,0,1,64.78,138c.34-1.5.69-3,1-4.51a2,2,0,0,1,1.9-2,4.82,4.82,0,0,1,1-2.46,4.11,4.11,0,0,0,.64-1.49,5,5,0,0,0,0-.95v-.54a11.43,11.43,0,0,0-.21-1.41,4.91,4.91,0,0,0-.15-.51,1.38,1.38,0,0,0-.39-.41c-1.17-.65-2.76,0-2.89-1.14s1.35-.57,2.65-.82a11.4,11.4,0,0,0,1.88-.68C72,120.33,71.13,120,70.26,120ZM57.88,90.64c.71,0,.72.76.72,1.42s-.23,1.5-1.18,1.55c-.79,0-.86-.64-.85-1.23C56.6,91.5,56.83,90.62,57.88,90.64Zm-4.57-.75c.51,4-1,7.9-3.21,8.12C52.92,96,51.77,92.47,53.31,89.89ZM45.39,90c.09-.82.36-1.77,1.4-1.73.82,0,.83.88.88,1.51-.13.88-.28,1.8-1.38,1.73C45.46,91.46,45.32,90.64,45.39,90Zm2.09,10.1c-1.49,0-2.57-.46-2.89-2.58Z" transform="translate(0 0)"/><path class="cls-4" d="M31.92,151.88a41.66,41.66,0,0,0-6.74-6.19,16.67,16.67,0,0,1-2-1.94A21,21,0,0,1,31.92,151.88Z" transform="translate(0 0)"/><path class="cls-4" d="M62.14,170h0c-.1,1.55-3.12,4.35-4.25,5.29-2.6,1.85-5.18,2.48-7.68,1.87-3.06-.75-5.86-3.35-7.89-7.31-3.19-6.26-8.46-16.14-8.51-16.24-3.61-6.93-7.38-9-10.7-10.8a20,20,0,0,1-4.4-2.93,43.56,43.56,0,0,1-3.42-5.2A21.47,21.47,0,0,1,13,128.54a27,27,0,0,1-.26-10.14,7.21,7.21,0,0,1,2.77-4.72,12.63,12.63,0,0,1,5.17-2.08,15.47,15.47,0,0,1,7.58,4.7c1.37,1.47,2.43,3.31,4.3,4.29a14.53,14.53,0,0,0,3.09,4c1.92,2.46,3.86,4.9,5.76,7.37,2.71,3.51,5.38,7,8.07,10.55.73,1.94,2.28,3.35,3.22,5.15q-3.06,8.19-6.11,16.37a9.33,9.33,0,0,0,3.71,9.9c2.91,1.94,6.57,1.08,7.86-2.13a8.43,8.43,0,0,0-.12-6.92c.08-.3.14-.62.19-.93s.13-.87.19-1.31.1-.67.17-1a.64.64,0,0,1,.08-.36l.09-.37a4.86,4.86,0,0,1,1-1.89v.05a4.25,4.25,0,0,1,1.47,2C62.52,164,62.39,167,62.14,170Z" transform="translate(0 0)"/><path d="M227.09,109.07a7.38,7.38,0,0,1-2.11-2.74c-.4-.93-.78-2-.12-2.85s1.51-.46,2.29-.16a1.35,1.35,0,0,0,1.4-.18,11.05,11.05,0,0,1,6.3-2.11c3.85-.07,5.42-2.58,6.5-5.65a7.23,7.23,0,0,1,5.34-5.07c1.37-.34,2.14,0,2.19,1.43.08,2.24.08,4.49.12,6.73,0,1-.41,1.33-1.39,1.23a4.41,4.41,0,0,0-3.33.48c.57.59,1,.14,1.47.09,2.29-.29,3.11.37,3,2.62-.15,3.23.12,6.47-.56,9.7-.46,2.18-1.77,3.91-2.53,5.91a18,18,0,0,0,10.35-2c-.68-3.62-1.76-7.22-.81-11a14,14,0,0,1,.13-1.45l.18-1c.28-2.15.56-4.29.83-6.44V95.52c-.5-3.14-1.31-6.27-4.73-7.29-1.57-.47-1.61-1-1.51-2.29.31-4-1.72-6.23-5.77-6.53a12.12,12.12,0,0,0-4.44.52A28.69,28.69,0,0,1,228,81.08a12.89,12.89,0,0,0-4.71.33c-3.19.81-5.65,3.33-5.66,6.51s-1.53,5.5-3.57,7.66l-.8,1c-3,4.38-1,8.66.24,13v.52a9.93,9.93,0,0,1-.48,7.51c-.93,2.2,0,2.59,1.82,2.68a21.47,21.47,0,0,0,5.42-.62c2.19-.45,4.39-1,6.62-.16,1.1-2.94.52-6.09,1.07-9.1C228.17,109.76,227.52,109.44,227.09,109.07Z" transform="translate(0 0)"/><path d="M35.32,94.14a7.6,7.6,0,0,1-1.78-5.29c.11-1.15.82-2.33,1.83-1.56,2.11,1.62,4.07.41,6.1.29,5.75-.36,11.44-1,16.1-4.91a2.35,2.35,0,0,1,.67-.34c1.23-.46,2.64-1.39,3.77-.64s-.16,2.11,0,3.21a2.68,2.68,0,0,1-.13.74,12.14,12.14,0,0,0,6.93-4.15c2-2.41,1.59-4.29-1.09-5.93-.71-.43-1.1-.62-.75-1.66,1.23-3.7.54-5.89-3-7.62-7.61-3.73-15.39-5.57-23.23-.46-.93.6-1.53.78-2.43-.3-2.14-2.59-5-3.08-8.14-2-5.35,1.79-7.73,6.39-6.49,12.53.16.3.32.6.49.9,1,.83,1.81,2,3.14,2.34,1,.29,1.13.82.93,1.83-.65,3.25-.41,6.31,1.77,9.13a10,10,0,0,1,1.68,5.36,1,1,0,0,1,.37,1c.63,1.67,1.26,3.33,3,4.19C37.06,98.22,37.13,96.61,35.32,94.14Z" transform="translate(0 0)"/><path class="cls-2" d="M38.57,230.27H8.26C8.55,217.2,9.8,197,17.84,187.53c.31-.36.21-.95.31-1.43q3.29-4,6.56-7.93l9.42-.1a34.62,34.62,0,0,0-.84,12.08,30.88,30.88,0,0,1-.54,10.1c-.47,2.27-.84,4.56-1.25,6.84,3.79,1.07,5.37,3.65,5.61,7.5C37.43,219.82,38.07,225,38.57,230.27Z" transform="translate(0 0)"/><path class="cls-4" d="M36.14,158.48c-.08.26-.16.51-.23.77-.27.91-.5,1.83-.7,2.75-.07.31-.13.62-.19.93-.28,1.42-.49,2.85-.64,4.28,0,.33-.07.66-.09,1s-.06.66-.08,1a9.34,9.34,0,0,1-.07,1.18,4.92,4.92,0,0,0,0,.94c-.08,2.25-.06,4.51,0,6.77l-9.42.1a6,6,0,0,1-3.59-3.49,14.26,14.26,0,0,1,2.42-6c.46-.73,1.19-1.49.36-2.46a12.81,12.81,0,0,1-2.69-10.81,27.22,27.22,0,0,0-1.44-13.7c-.07-.24-.16-.47-.25-.71a8.37,8.37,0,0,1,3.64,2.71,16.67,16.67,0,0,0,2,1.94,41.66,41.66,0,0,1,6.74,6.19A27.15,27.15,0,0,1,36.14,158.48Z" transform="translate(0 0)"/><path class="cls-2" d="M21.12,174.68c-1.58,0-3.16,0-4.72.14a2.59,2.59,0,0,0-2.35,2.24,2.63,2.63,0,0,0,1.25,3,11.39,11.39,0,0,0,2.2.74c-1.71,2.7-1.61,3.46.65,5.29q3.29-4,6.56-7.93A6,6,0,0,1,21.12,174.68Z" transform="translate(0 0)"/><path class="cls-2" d="M32.52,120.63a14.53,14.53,0,0,0,3.09,4.05c.79-.48.22-1.51.83-2.07a73.94,73.94,0,0,1-3.82-15.22l-2.43,1.83c.62,2.91,1.23,5.82,1.85,8.73C32.13,118.86,32.77,119.67,32.52,120.63Z" transform="translate(0 0)"/><path class="cls-4" d="M28.23,116.33c1.37,1.47,2.43,3.31,4.3,4.29.24-1-.4-1.77-.48-2.68a39.39,39.39,0,0,1-6.58-7.76,16.58,16.58,0,0,0-4.82,1.45A15.47,15.47,0,0,1,28.23,116.33Z" transform="translate(0 0)"/><path class="cls-6" d="M32.05,118c-.62-2.91-1.23-5.82-1.85-8.73a15.67,15.67,0,0,0-4.73,1A39.21,39.21,0,0,0,32.05,118Z" transform="translate(0 0)"/><path d="M56,87.52c1.71.81,3.52-.12,4.63,1.32.55-.16,1-.39.54-1C59.63,87.27,58.09,86.14,56,87.52Z" transform="translate(0 0)"/><path class="cls-4" d="M463.57,155.2v8.94c-.91.39-1,1.3-1.16,2.07-.81,5.15-2.75,10-4.23,14.93a33.16,33.16,0,0,0-2,13.92,12.83,12.83,0,0,1-1.73,6.92c-2.82,5.51-10.73,6.82-15.37,2.59a2.35,2.35,0,0,1,2-1.1c3.45,1.64,7.9-1.57,8.15-5.88h0c.16-.33.33-.65.51-1h0c.09-.44.17-.88.26-1.32-.77-5.48-4-7.16-9-4.59-2.44,1.27-4.84,2.59-7.26,3.88v-.09h0a1.53,1.53,0,0,0-.08-.37c-.33-3.7,1.31-7,2.08-10.5l.17-.32.16-.29.21-.39h0l.21-.25.11-.13a.69.69,0,0,0,.11-.13l1.5-4c.06-.11.12-.22.17-.33a32.4,32.4,0,0,0,1.43-3.57c1.29-3.44.58-7.09,1.43-10.55.21-4-.4-8.11.46-12.12l.6-4.39c.54-.41.38-1,.56-1.59,1.72-5.26,3.63-10.34,10.35-10.85,3.58-.18,5.73,1.76,7,4.86A42.13,42.13,0,0,1,463.57,155.2Z" transform="translate(0 0)"/><path class="cls-4" d="M449.11,197.57h0c-.25,4.31-4.7,7.52-8.15,5.88q4.08-3,8.14-5.89Z" transform="translate(0 0)"/><path class="cls-3" d="M468.65,199.62c.24,4.91-1,9.7-1.25,14.56-.16,3.11.23,6.26.37,9.4l.38.49c0,.33.07.66.1,1,.11,1.73.19,3.47.29,5.21H496.3c.74-4.54-.49-8.76-2.32-12.89a43.92,43.92,0,0,0-14.92-18.75l-1.35-1Z" transform="translate(0 0)"/><path class="cls-4" d="M419.65,178.33c-1.52,2.26-3,4.51-4.55,6.77l-4.36,4.43c-3.31,3.34-7,6.29-10,10h0l-4.22-1-5.85-1.41c-.41-.1-.85-.13-1-.61-1-3.7-3.42-6.73-4.6-10.34a40.89,40.89,0,0,0,14.71-19c2.45-2.85,4.16-6.29,6.89-8.92,1.12-1.07,2-2.38,3.46-3.09a7.58,7.58,0,0,0,.12,5.06,22.75,22.75,0,0,0,1.87,4,30.61,30.61,0,0,1,1.58,3c.39.81.78,1.62,1.23,2.39a11.43,11.43,0,0,0,1.55,2.17,9.17,9.17,0,0,0,1.56,1.36v.34a4.05,4.05,0,0,0,.12.5,4.5,4.5,0,0,0,.16.48l.12.31c.17.42.37.83.55,1.25.09.21.18.42.26.63a4.33,4.33,0,0,1,.21.7v.24A3.83,3.83,0,0,1,419.65,178.33Z" transform="translate(0 0)"/><path class="cls-7" d="M403.4,122.09c.16.68-.51.8-1,.8-1.33,0-2.29.84-3.39,1.37,2.74,5.66,5.19,11.41,10.6,15.38,3.28,2.41,4.61,3.09,8.1.82,1.62-1.05,2.49-1,3.2.8s2,2.19,3.8,1.42a37.85,37.85,0,0,0,6.85-4c1.66-1.16,1.7-2.23.55-3.69-1.73-2.23-3.45-4.47-5.1-6.76a8.82,8.82,0,0,1-1.72-4.68c-.19-2.09.67-4.59-1.24-6.39-.54.17-1.31.19-1.58.56-1.47,2.08-3.13,1.22-4.77.42-2-1-3.58-2.26-3.21-4.75.24-1.65-.28-1.69-1.69-1.35-5.85,1.39-12,1.06-17.67,3.55a21.59,21.59,0,0,0,3.39,7.54c1.13-.66,2.16-1.56,3.58-1.49C402.62,121.63,403.26,121.47,403.4,122.09Zm11.08,1.08c0,.7-.31,1.3-1,1.16a1.74,1.74,0,0,1-1.33-1.87c0-.59,0-1.33.82-1.25,1.08.12,1.29,1.12,1.55,2Zm-2.77-5.77c.86-.22,2.19-.66,2.37.41s-1.22.71-1.91.79c-1.05.12-1.75,1.39-3,.82C409.44,118,410.61,117.7,411.71,117.4Zm-3.65,9.23c.13,2.09.1,4.24,3.42,3.73-3.06,1.15-3.39,1-3.92-1.81-.32-1.67-.55-3.34-.93-5.66A5.24,5.24,0,0,1,408.06,126.63Zm-3.74.29c0,.62-.19,1.25-.94,1.13-1-.17-1.18-1-1.19-1.86,0-.51.09-1.06.75-1,1,.08,1.23.9,1.38,1.73Z" transform="translate(0 0)"/><path class="cls-2" d="M441.1,163.64c-.85,3.46-.14,7.11-1.43,10.55a32.4,32.4,0,0,1-1.43,3.57.39.39,0,0,0-.26,0,32.82,32.82,0,0,0-6.15,2.4,41.52,41.52,0,0,1-4,1.72,1.65,1.65,0,0,0-1,.88,1.6,1.6,0,0,0,0,1.25,2.85,2.85,0,0,1,.14.5c.11.5.27,1.24,1.09,1.34h.31q.31,0,.63,0a1,1,0,0,0-.65,1.26h0a.77.77,0,0,0,.07.16,16.31,16.31,0,0,0,4.75,7.19.35.35,0,0,0,.25.1h.09v.09c-1.44.89-2.75,2-4.56,2.14a87.34,87.34,0,0,1-5.72-10.1c-1.29-2.73-2.47-5.52-3.7-8.29a3.55,3.55,0,0,0-.08-.73v-.24a4.33,4.33,0,0,0-.21-.7c-.08-.21-.17-.42-.26-.63-.18-.42-.38-.83-.55-1.25l-.12-.31a4.5,4.5,0,0,1-.16-.48,4.05,4.05,0,0,1-.12-.5v-.34a88.73,88.73,0,0,1,0-17.85c.29-3.16,1.81-6.06,1.58-9.28.43-.56,1.08-.94,1.18-1.78,1.16.79.74,2,1.31,2.87v.47c0,.49.07,1,.11,1.47a1.09,1.09,0,0,0-1.09,1.09h0c-.16,2.06-.38,4.11-.5,6.17a94.32,94.32,0,0,0,.45,11.15c.17,3,1,3.94,3.88,3.56A24.72,24.72,0,0,0,437.13,166C438.34,165,439.28,163.51,441.1,163.64Z" transform="translate(0 0)"/><path d="M414.52,113.33c-.37,2.49,1.25,3.79,3.21,4.75,1.64.8,3.3,1.66,4.77-.42.27-.37,1-.39,1.58-.56-.19-4.74-2.39-9-3.53-13.46a8.29,8.29,0,0,0-1.6-2.49c-.24-.33-.92-.69-1-.47-1,2.36-2,.15-2.8-.1-1.12-.33-2.42-1.12-3.33-.51-1.59,1.06-3.29.74-4.93,1.06-4.42.86-8.42,2.53-11.3,6.19-2.23,2.84-2.32,5.07-.41,8.21,5.63-2.49,11.82-2.16,17.67-3.55C414.26,111.67,414.78,111.71,414.52,113.33Z" transform="translate(0 0)"/><path class="cls-4" d="M477.71,197.63l-9.06,2c-1.19-2.46-2.21-5-3.6-7.35-2.23-3.75-3.9-7.86-6.91-11.12,1.48-5,3.42-9.78,4.23-14.93.12-.77.25-1.68,1.16-2.07a13.68,13.68,0,0,0,3.28,8.09c2.78,3.25,4.8,7,4.17,11.52-.17,1.27.79,1.53,1.51,2,1.91,1.16,3.88,2.22,5.15,4.16,0,.82.21,1.9-.21,2.4C475.76,194.24,476.52,195.91,477.71,197.63Z" transform="translate(0 0)"/><path class="cls-4" d="M410.26,160.23a22.75,22.75,0,0,0,1.87,4,30.61,30.61,0,0,1,1.58,3c.39.81.78,1.62,1.23,2.39a13.19,13.19,0,0,0,1.55,2.17,9.17,9.17,0,0,0,1.56,1.36h0a90.23,90.23,0,0,1,0-17.85c.29-3.16,1.81-6.06,1.58-9.28-4.14,2-6.81,5.58-9.46,9.15A7.58,7.58,0,0,0,410.26,160.23Z" transform="translate(0 0)"/><path class="cls-2" d="M477.43,192.33c-1.67,2-.91,3.63.28,5.35l1.35,1c.77-.2,1.41.32,2.12.39,1.2.12,2.46.57,3.62-.19,1.86-1.22,1.57-3.2-.88-5.38,1.53-1.1,2.55-2.52,1.32-4.33-1.36-2-3.2-1.15-4.91-.49-.92.35-1.79.84-2.69,1.26C477.59,190.71,477.85,191.79,477.43,192.33Z" transform="translate(0 0)"/><path class="cls-8" d="M423.14,151.83c.41,1.32.47,2.94,2.22,3.25s2.38-1.19,3.09-2.39c2-3.35,3.9-6.74,5.87-10.1.33-.56.77-1.05,1.15-1.58.06-.3.11-.6.16-.91-1.52-.24-2,1.09-2.57,2a20.25,20.25,0,0,1-4.23,4.09c-1.09.93-2.27,1.16-3.28.06-1.18-1.29-1.77-.93-2.37.46-.11.26-.71.3-1.09.45,0,.65.09,1.29.14,1.94C423,149.84,422.86,150.9,423.14,151.83Z" transform="translate(0 0)"/><path class="cls-4" d="M453.07,134.69c-6.72.51-8.63,5.59-10.35,10.85-.18.54,0,1.18-.56,1.59l-5.1-9.74A34.32,34.32,0,0,1,453.07,134.69Z" transform="translate(0 0)"/><path class="cls-2" d="M442.16,147.13l-.6,4.39c-1.82-.81-1.88-2.7-2.56-4.2-1-2.21-1.47-4.7-3.53-6.32.06-.3.11-.6.16-.91a3.93,3.93,0,0,0-.18-1.18c-.42-.88-.47-1.36-.29-1.6s1.08-.14,1.9.08Z" transform="translate(0 0)"/><path d="M399.06,124.26c1.1-.53,2.06-1.36,3.39-1.37.44,0,1.11-.12,1-.8s-.78-.46-1.25-.48c-1.42-.07-2.45.83-3.58,1.49C398.52,123.59,398.46,124.06,399.06,124.26Z" transform="translate(0 0)"/><path class="cls-8" d="M500.52,230.11a.93.93,0,0,0-.18.16h.17Z" transform="translate(0 0)"/><path class="cls-3" d="M321.64,216.56a29.44,29.44,0,0,1-2.81,3.1,3.42,3.42,0,0,0-1.09,3.55c.24,1.63.35,3.27.51,4.91v.76h0v.39h0a.89.89,0,0,1,0,.23h0a.49.49,0,0,1,0,.17.91.91,0,0,1-.11.3h0V230h0l-.06.08H284.52a.24.24,0,0,0,0-.12c0-.08-2.62-7.62-3.81-10.67a6.09,6.09,0,0,1,.4-5.25l.26-.69a1.63,1.63,0,0,0,.23-.6l.63-1.67h0a4,4,0,0,0,.26-.32.57.57,0,0,0,.12-.15l.09-.16a6.09,6.09,0,0,0,.39-1h0c.16-.5.31-1,.47-1.5h0q.45-1.35.87-2.7l1.81-4.76c1.24-5.36.84-9.29-1.22-11.68a7,7,0,0,0-5-2.34,7,7,0,0,1,4-1.09A50.18,50.18,0,0,0,296.4,197.1c2.65,1.86,5.36,3.67,8.59,4.34,4.08.85,5.77-1.1,4.73-5.15s-3.24-7.6-5.06-11.3c2.19,0,3.72,1.57,5.54,2.42l1.47,1.54,1,1.52c1.92,5.47,3.81,10.95,7.12,15.82C321.79,209.5,322.8,212.85,321.64,216.56Z" transform="translate(0 0)"/><path class="cls-9" d="M318,230.27h.88a1.86,1.86,0,0,1-.29-.44,2.33,2.33,0,0,1-.11-.28,1.47,1.47,0,0,0-.08-.28v-.06a1.61,1.61,0,0,1,0-.31v.57a1.27,1.27,0,0,1-.06.28.91.91,0,0,1-.11.3h0v.07h0a.18.18,0,0,0-.22.11h0Z" transform="translate(0 0)"/><path class="cls-9" d="M318.3,228.9v.43h0v-.43Z" transform="translate(0 0)"/><path class="cls-1" d="M202.1,230.27h8C211.26,231.17,202.1,230.27,202.1,230.27Z" transform="translate(0 0)"/><path class="cls-10" d="M244.24,230.27H210.08c-.87-.66,3-9.39,5.09-14h0l.36-.39,6.84-12c10.11-11.81,6-17.18,5.89-17.33a9.57,9.57,0,0,0-8.8-4.7c-6.2.14-11.12,10.62-11.55,11.56l-7,7.94c-4.59,3.17-7.54,14-7.73,15.09s-.9,1.29-1,1.3l-5.17.5V218a7.4,7.4,0,0,0-.12-.93V217c-.08-.48-.17-.94-.29-1.39a2.7,2.7,0,0,0-.18-.69h0c-.07-.23-.14-.45-.22-.67s-.17-.47-.27-.7-.18-.44-.29-.66l-.32-.65-.31-.57c-.14-.23-.28-.46-.43-.68l-.24-.35h0l-.19-.26-.44-.57a11.32,11.32,0,0,0-1-1.08c-.17-.18-.36-.36-.55-.54a6.48,6.48,0,0,0-.84-3.07c-1.93-4.18-3.37-8.41-2.21-13.13a2,2,0,0,0-.49-2.29c.6-1,1.76-1.25,2.54-2l2.55-1.41a8.38,8.38,0,0,0,1.21-.25,10.44,10.44,0,0,1,2.19-.66.4.4,0,0,0,.07.24.34.34,0,0,0,.33.16c.14.14.73.93,1.51,4.9,1.14,5.79,5.67,10.77,5.83,10.94a2,2,0,0,0,1.33.83h.14c.5-.07.9-.5,1.18-1.28,1-2.84,4.64-11.58,7.88-14.31,3.47-2.92,7.41-6.74,7.45-6.78a.43.43,0,0,0,.11-.28h2.73l8,1.42c4,1.51,6.09,4.93,8.1,8.38.19.33.38.66.56,1s.36.66.53,1c.32.63.63,1.26.92,1.89s.45,1,.66,1.46V195c.23.54.46,1.09.68,1.64s.35.87.51,1.3.26.66.38,1c.22.56.43,1.12.63,1.69.47,1.28.93,2.57,1.39,3.86.31.88.62,1.75.94,2.62a1.4,1.4,0,0,0,.13.34.77.77,0,0,0,.07.38c.13.69.23,1.38.4,2C241.36,216.5,243.05,223.33,244.24,230.27Z" transform="translate(0 0)"/><path class="cls-2" d="M468.25,225.05c.11,1.74.19,3.48.29,5.22H427c0-1.07.09-2.13.14-3.2v-.5c.76-6.26,1.69-12.48,4-18.4l7.82-3.6c4.64,4.23,12.55,2.92,15.37-2.59a12.83,12.83,0,0,0,1.73-6.92,33.16,33.16,0,0,1,2-13.92c3,3.26,4.68,7.37,6.91,11.12,1.39,2.34,2.41,4.89,3.6,7.35.24,4.91-1,9.7-1.25,14.56-.16,3.11.23,6.26.37,9.4l.38.49A8.42,8.42,0,0,1,468.25,225.05Z" transform="translate(0 0)"/><path class="cls-7" d="M280.42,213.89a6.74,6.74,0,0,0-.8,4.65h0l-3.1,11.73H265.68c.1-.44.18-.88.25-1.32a11.8,11.8,0,0,0,.14-2.72c1.74-4.06,2-8.48,3-12.71.27-1.05,1.23-2.6,0-3.15-1.41-.66-2.44.9-3.43,1.88a5.62,5.62,0,0,1-1.14.72l-.35.18a7.1,7.1,0,0,0-2.83-5.45l-.09-.43a42.82,42.82,0,0,0-1.17-4.45c-.2-.63-.42-1.27-.66-1.89-.15-.41-.31-.81-.48-1.21a2.17,2.17,0,0,0-.15-.35q-.25-.6-.54-1.2c-.13-.3-.28-.6-.44-.9s-.42-.83-.66-1.24c-.34-.62-.71-1.23-1.1-1.83-.27-.42-.55-.84-.84-1.25-1-1.41-2.92-2.68-3-4.09-.08-1.61,2.32-2.51,3.35-4a26.38,26.38,0,0,0,1,2.46c.89,1.6.83,3.67,2.43,4.92l.18-.3c2.51,6.72,5.88,14.18,9.59,15.76l.24.51a2.39,2.39,0,0,0,.21.34,5.69,5.69,0,0,0,1.79,1.83,9.14,9.14,0,0,0,2.12,1c.93.3,1.92.52,2.89.75a1.81,1.81,0,0,0,1.38.59,5.66,5.66,0,0,0,.82-.06c.26,0,.51,0,.76,0h.4l.27,0h.06l.13.05.15.06.13.09.1.08a1.24,1.24,0,0,1,.29.46Z" transform="translate(0 0)"/><path class="cls-11" d="M252.39,34.58c-1.19-.68-2.36-1.37-3.53-2.08-1.74-1-3.22-1.28-4.74,0-2.67,2.29-5.41,2.1-8.17.29-1.69-1.1-3-.6-4.47.47-4.46,3.16-9,6.16-13.56,9.22a10.4,10.4,0,0,0,.1,1.11l.19.45h0a4.73,4.73,0,0,0,3.09,1.47,6.12,6.12,0,0,0,1.21,0c3.31-.19,6.63-.28,9.94-.41,9-.36,18.07-.69,27.09-1.07a5.34,5.34,0,0,0,1.49-.24,3.73,3.73,0,0,0,.9-.43,3,3,0,0,0,.52-.48,3.4,3.4,0,0,0,.67-2.36C259.52,38.57,255.94,36.61,252.39,34.58Z" transform="translate(0 0)"/><path class="cls-11" d="M218.21,44.07h0a4.73,4.73,0,0,0,3.09,1.47A4.73,4.73,0,0,1,218.21,44.07Z" transform="translate(0 0)"/><path class="cls-11" d="M217.29,21.13a1.52,1.52,0,0,0,.18,1.55,2.5,2.5,0,0,0,.39.34,4.7,4.7,0,0,0,.69.39q9.88,4.66,19.75,9.41a3.89,3.89,0,0,0,4-.32c6.15-3.61,12.33-7.15,18.5-10.71.42-.24.9-.39,1.35-.59v-.87a4.21,4.21,0,0,0-.16-.86,2.09,2.09,0,0,0-1.8-1.39,8.4,8.4,0,0,0-1.94-.11q-17.76.57-35.51,1.27a12.21,12.21,0,0,0-1.48.06l-.64.07a2.09,2.09,0,0,0-.69.12,6.44,6.44,0,0,0-.72.2A4,4,0,0,0,217.29,21.13Z" transform="translate(0 0)"/><path class="cls-11" d="M262,19.5a2.09,2.09,0,0,0-1.8-1.39A2.09,2.09,0,0,1,262,19.5Z" transform="translate(0 0)"/><path class="cls-11" d="M254.2,26.69c-1.65,1-3.3,2-5,2.88-2,1.09-.65,1.72.34,2.29,4.51,2.61,9,5.18,13.57,7.76.05-2.22,0-4.44,0-6.65-.07-3.64-.25-7.28-.5-10.91A95.34,95.34,0,0,0,254.2,26.69Z" transform="translate(0 0)"/><polygon class="cls-11" points="262.61 22.06 262.61 22.06 262.61 22.06 262.61 22.06"/><path class="cls-11" d="M263.12,39.62h0c.05-2.22,0-4.44,0-6.65C263.16,35.18,263.17,37.4,263.12,39.62Z" transform="translate(0 0)"/><polygon class="cls-11" points="262.61 22.06 262.61 22.06 262.61 22.06 262.61 22.06"/><path class="cls-11" d="M230.89,32.59c1.38-.93,1.56-1.52-.11-2.3q-6-2.77-11.91-5.72c-1.63-.81-1.81-.11-1.77,1.29.09,2.9.1,5.81.14,8.72h0a23.57,23.57,0,0,1,.28,5.75v.83a3.48,3.48,0,0,0,2.23-1C223.52,37.68,227.18,35.1,230.89,32.59Z" transform="translate(0 0)"/><path class="cls-11" d="M217.25,34.58h0a23.35,23.35,0,0,1,.33,5.78A23.84,23.84,0,0,0,217.25,34.58Z" transform="translate(0 0)"/><path class="cls-2" d="M216.62,33.57a1.12,1.12,0,0,0,.62,1c0-2.91,0-5.82-.14-8.72,0-1.4.14-2.1,1.77-1.29q5.91,3,11.91,5.72c1.67.78,1.49,1.37.11,2.3-3.71,2.51-7.38,5.09-11.07,7.63a3.48,3.48,0,0,1-2.23,1l.33,1.32c4.53-3.06,9.1-6.06,13.56-9.22,1.51-1.07,2.78-1.57,4.47-.47,2.76,1.81,5.5,2,8.17-.29,1.52-1.31,3-1.07,4.74,0,1.17.71,2.34,1.4,3.53,2.08,3.55,2,7.16,4,10.73,6h0v-1h0c-4.53-2.58-9.06-5.15-13.57-7.76-1-.57-2.32-1.2-.34-2.29,1.69-.92,3.34-1.9,5-2.88a95.34,95.34,0,0,1,8.41-4.63h0l-.46-.83h0c-.45.2-.93.35-1.35.59-6.17,3.56-12.35,7.1-18.5,10.71a3.89,3.89,0,0,1-4,.32q-9.85-4.74-19.75-9.41a4.7,4.7,0,0,1-.69-.39,2.5,2.5,0,0,1-.39-.34,1.52,1.52,0,0,1-.18-1.55,1.05,1.05,0,0,0-.67,1V32.91C216.63,33.07,216.61,33.33,216.62,33.57Z" transform="translate(0 0)"/><polygon class="cls-2" points="262.61 22.06 262.61 22.06 262.61 22.06 262.61 22.06"/><path class="cls-2" d="M263.12,39.62" transform="translate(0 0)"/><path class="cls-2" d="M216.62,33.57a1.12,1.12,0,0,0,.62,1h0A1.12,1.12,0,0,1,216.62,33.57Z" transform="translate(0 0)"/><path class="cls-2" d="M262.59,22l-.46-.83h0Z" transform="translate(0 0)"/><path class="cls-2" d="M263.12,40.57c-3.57-2-7.18-4-10.73-6Q257.72,37.57,263.12,40.57Z" transform="translate(0 0)"/><path class="cls-2" d="M262.61,22.06h0a95.34,95.34,0,0,0-8.41,4.63A95.34,95.34,0,0,1,262.61,22.06Z" transform="translate(0 0)"/><path class="cls-12" d="M218,43.62a.8.8,0,0,0-.13.19l.32.26Z" transform="translate(0 0)"/><path class="cls-12" d="M217.89,43.81l.32.26h0Z" transform="translate(0 0)"/><path class="cls-8" d="M41.89,15.33c3.83.75,7.68,1.39,11.52,2.07l28.87,5.07c-.1,0,.58.18.69-.66.07-.65-.53-.76-1-.91a6.9,6.9,0,0,0-1-.23L42.18,13.85c-.66-.12-1.68-.62-1.9.42S41.29,15.19,41.89,15.33Z" transform="translate(0 0)"/><path class="cls-8" d="M40.74,21c.24,0,.5,0,.74.1l22.6,3.94Q72.3,26.53,80.53,28c.42,0,.94.12,1.22-.16a.78.78,0,0,0,.2-.43c.13-.87-.69-.75-1.21-.87-.73-.17-1.46-.34-2.2-.47L53,21.59q-6-1.07-12-2.09c-.59-.11-1.45-.67-1.68.32S40,20.87,40.74,21Z" transform="translate(0 0)"/><path class="cls-8" d="M39.82,26.68A7.09,7.09,0,0,0,41,27l19.91,3.45c6.06,1.06,12.11,2.14,18,3.19.8-.1,1.87.44,1.94-.68.06-.86-1-.69-1.57-.8L63.83,29.33Q51.92,27.22,40,25.14c-.6-.1-1.51-.46-1.73.41C38,26.8,39.21,26.45,39.82,26.68Z" transform="translate(0 0)"/><path class="cls-8" d="M38.52,32.26q7.71,1.43,15.41,2.79c4.65.84,9.29,1.68,13.95,2.47.58.1,1.5.44,1.67-.49s-.78-.87-1.38-1c-2.28-.43-4.56-.84-6.85-1.25L38.24,30.69c-.26,0-1-.17-1,.69S38,32.17,38.52,32.26Z" transform="translate(0 0)"/><path class="cls-4" d="M422.63,59.81v1l-5.33,1.61a5.67,5.67,0,0,0-.16-.9,7.34,7.34,0,0,1,1-.53,14.11,14.11,0,0,1,3.11-1A10.86,10.86,0,0,0,422.63,59.81Z" transform="translate(0 0)"/><path class="cls-2" d="M75.72,230.27H39.8c-.11-12.13-.36-28.38-.06-29.83.7-3.34-6-6.86-6.45-10.29a34.62,34.62,0,0,1,.84-12.08c-.09-2.26-.11-4.52,0-6.77v-1a6.68,6.68,0,0,1,.07-1.18c.07-.39,0-.66.08-1a8.26,8.26,0,0,0,.09-1c.15-1.43.36-2.86.64-4.28.06-.31.12-.62.19-.93.2-.92.43-1.84.7-2.75,1.77,3.35,4,7.68,5.74,11,2.12,4.16,5.1,6.89,8.37,7.7a8.42,8.42,0,0,0,2,.24,10.82,10.82,0,0,0,6.27-2.25c.43-.35,4-3.34,4.49-5.49a4.67,4.67,0,0,0,2.8-1,6.22,6.22,0,0,0,1.83-3.12,46.81,46.81,0,0,0,1.49-8.55c.13-1.14.25-2.27.41-3.41a1.45,1.45,0,0,0-.24-1.16,2,2,0,0,0-1.52-.45H61.21v-.13l.07-.21H63c1.37,0,2.74.06,4.11.06h.61A1.69,1.69,0,0,0,69,152a1.53,1.53,0,0,0,.32-1.25,2.06,2.06,0,0,0-2-2.12H62.19q.78-3,1.57-6.08c2.92-.43,3-.6,1.91-3.2-.19-.46-.43-.9-.64-1.35.34-1.5.69-3,1-4.51,1.17.92,1.32,2.6,2.59,3.44,1,2.86,2.48,5.57,3.1,8.57l1.35,7.93v2.73c.17,7.45-.85,14.54-6.14,20.34a3,3,0,0,0-2.45,1.07c-1.37.06-1.59.55-.69,1.63,1.46,1.76,2.86,3.57,4.29,5.35l3.86,8.51c.09.39.19.79.28,1.19.14.58.28,1.17.41,1.75l.32,1,.21,1.46c.1.34.19.69.29,1C73.73,202.52,75.52,226.18,75.72,230.27Z" transform="translate(0 0)"/><path class="cls-2" d="M39.8,230.27H38.57c-.5-5.23-1.14-10.45-1.46-15.68-.24-3.85-1.82-6.43-5.61-7.5.41-2.28.78-4.57,1.25-6.84a30.88,30.88,0,0,0,.54-10.1c.41,3.43,7.15,6.95,6.45,10.29C39.44,201.89,39.69,218.14,39.8,230.27Z" transform="translate(0 0)"/><path class="cls-4" d="M59.35,131.33a8.93,8.93,0,0,0-.71-6.92c-1.52,4.83-2.92,6.1-6.48,6.16a12.51,12.51,0,0,1-4.6-.93c-4.21-1.55-7.6-4.37-11.11-7-.61.56,0,1.59-.83,2.07,1.92,2.46,3.86,4.9,5.76,7.37,2.71,3.51,5.38,7,8.07,10.55l5.21.48C56.25,139.16,58,135.33,59.35,131.33Z" transform="translate(0 0)"/><path class="cls-2" d="M68.62,154.23c-.16,1.14-.29,2.28-.42,3.43a45.28,45.28,0,0,1-1.46,8.41c-.71,2.37-1.84,3.44-3.82,3.61.24-3,.3-6-1-8.82a5.1,5.1,0,0,0-1.58-2.22,13.48,13.48,0,0,1,1-5.17h6.19a1.73,1.73,0,0,1,1,.19A.87.87,0,0,1,68.62,154.23Z" transform="translate(0 0)"/><path d="M61.26,152.72v.19l.06-.19Z" transform="translate(0 0)"/><path d="M53.18,170.12c-3.61.63-5.86-1.45-6.62-6a9.33,9.33,0,0,0,3.71,9.9c2.91,1.94,6.57,1.08,7.86-2.13A8.43,8.43,0,0,0,58,165C57.12,167.33,56.05,169.62,53.18,170.12Z" transform="translate(0 0)"/><path class="cls-4" d="M63.63,119.59c-.92,1.7-2.55,2.41-4.22,3.06A1.77,1.77,0,0,1,58,121.11c-.21-3.33-2.17-6.08-3-9.21A14.73,14.73,0,0,1,63.63,119.59Z" transform="translate(0 0)"/><path class="cls-2" d="M58,121.11l-9.43-11-2-1.55c-.91,1-.32,1.78.4,2.58a96.38,96.38,0,0,1,8.7,11.22c1.19,1.79,2.29,1.89,3.67.33A1.77,1.77,0,0,1,58,121.11Z" transform="translate(0 0)"/><path class="cls-2" d="M68.68,150.89a.93.93,0,0,1-.13.67c-.18.19-.65.18-1.06.17h-.31c-1.37,0-2.73,0-4.1-.06H61.91v-.34l.08-.69.07-.33V150a.23.23,0,0,1,.07-.19v-.1l.08-.15H67C68.1,149.42,68.57,149.87,68.68,150.89Z" transform="translate(0 0)"/><path d="M69.42,150.82a2.06,2.06,0,0,0-2-2.12H62.19a.37.37,0,0,0-.32.17,1.92,1.92,0,0,0-.18.31l-.06.12c0,.06-.06.12,0,.14a1.48,1.48,0,0,0-.1.27.49.49,0,0,0,0,.17.79.79,0,0,0-.06.22.87.87,0,0,1-.07.39l-.09.74v.71a.36.36,0,0,0,.08.3.25.25,0,0,0,.17.11h0a.17.17,0,0,0,.1,0h1.59c1.37,0,2.74.06,4.11.06H68a1.69,1.69,0,0,0,1.31-.42A1.54,1.54,0,0,0,69.42,150.82Zm-.87.74c-.18.19-.65.18-1.06.17h-.31c-1.37,0-2.73,0-4.1-.06H61.91v-.34l.08-.69.07-.33V150a.23.23,0,0,1,.07-.19v-.1l.08-.15H67c1,0,1.44.41,1.55,1.43a1,1,0,0,1,0,.6Z" transform="translate(0 0)"/><path class="cls-2" d="M49.45,142.6c.73,1.94,2.28,3.35,3.22,5.15,1.29-1.29,1.57-3,2-4.67Z" transform="translate(0 0)"/><path class="cls-4" d="M68.74,137c-1.27-.84-1.42-2.52-2.59-3.44a2,2,0,0,1,1.9-2A26,26,0,0,1,68.74,137Z" transform="translate(0 0)"/><path d="M53.31,89.89C51.77,92.47,52.92,96,50.1,98,52.32,97.79,53.82,93.94,53.31,89.89Z" transform="translate(0 0)"/><path class="cls-4" d="M65.75,139.43c-.19-.46-.43-.9-.64-1.35a13.38,13.38,0,0,0-1.27,4.55C66.76,142.2,66.86,142,65.75,139.43Z" transform="translate(0 0)"/><path d="M46.29,91.51c1.1.07,1.25-.85,1.38-1.73-.05-.63-.06-1.47-.88-1.51-1,0-1.31.91-1.4,1.73C45.32,90.64,45.46,91.46,46.29,91.51Z" transform="translate(0 0)"/><path d="M57.42,93.61c.95,0,1.08-.85,1.18-1.55s0-1.41-.72-1.42c-1,0-1.28.86-1.31,1.74C56.52,93,56.63,93.65,57.42,93.61Z" transform="translate(0 0)"/><path class="cls-5" d="M47.52,100.1l-2.89-2.58C44.91,99.64,46,100.1,47.52,100.1Z" transform="translate(0 0)"/><path class="cls-13" d="M69.88,126.46a2.5,2.5,0,0,0-.15-.38v.54C69.79,126.57,69.89,126.5,69.88,126.46Z" transform="translate(0 0)"/><path class="cls-7" d="M230.12,137.6c2.67,2.07,5,4.57,8.11,6.08a13.21,13.21,0,0,0,5.7,1.53c2.76,0,4.43-1.48,5.68-3.7-.34-2-2.16-3.33-2.57-5.31-2.4-3.52-4.82-7-7.19-10.57a4.38,4.38,0,0,1-.73-2.81c-.07-1.71.21-2.84,2.45-2.85,1.37,0,2.73-1,4.1-1.47.76-2,2.07-3.73,2.53-5.91.68-3.23.41-6.47.56-9.7.1-2.25-.72-2.91-3-2.62-.46,0-.9.5-1.47-.09a4.41,4.41,0,0,1,3.33-.48c1,.1,1.41-.28,1.39-1.23,0-2.24,0-4.49-.12-6.73,0-1.44-.82-1.77-2.19-1.43a7.23,7.23,0,0,0-5.34,5.07c-1.08,3.07-2.65,5.58-6.5,5.65a11.05,11.05,0,0,0-6.3,2.11,1.35,1.35,0,0,1-1.4.18c-.78-.3-1.69-.66-2.29.16a2.92,2.92,0,0,0,.12,2.85,7.38,7.38,0,0,0,2.11,2.74c.46.37,1.08.69,1,1.35-.55,3,0,6.16-1.07,9.1,0,1.34.06,2.69.1,4,.7,4,1.38,8,2.13,12.07A8.7,8.7,0,0,0,230.12,137.6Zm16.29-36c.79,0,1,.73,1.1,1.44a1.17,1.17,0,0,1-.85,1.42l-.22,0c-.81,0-1.05-.76-1.05-1.43s.18-1.43,1-1.42Zm-4.29,7.46v-6.85c.25,2.29,1,4.59,0,6.85a.76.76,0,0,1-1,.39l-.13-.18Zm-1.47,2.87a1.52,1.52,0,0,1,.31.31c.25.34,0,.8-.37,1.1a1.43,1.43,0,0,1-.43.25,1.84,1.84,0,0,1-2.07-.49,6.63,6.63,0,0,1-1.06-1.51h0c1.49.22,2.73-.34,3.62.38Zm-4.46-10.29c1,.2,1,.9,1,1.55s-.06,1.45-1,1.34c-.78-.09-1-.79-1-1.49a1.33,1.33,0,0,1,1-1.36Z" transform="translate(0 0)"/><path class="cls-4" d="M249.59,136.33a.77.77,0,0,1,0,.37,64.7,64.7,0,0,1,6.23,11.18c.33.85.47,2,1.69,2.22-.06-1.15-.13-2.31-.2-3.46a6.65,6.65,0,0,0-.11-1c-.22-1.33-.43-2.65-.65-4a1,1,0,0,1-.25-1c-.45-1.68-.91-3.36-1.34-5.06a10.16,10.16,0,0,0-6.91-7.56c.57,2.16,1.14,4.33,1.73,6.49A1.66,1.66,0,0,1,249.59,136.33Z" transform="translate(0 0)"/><path class="cls-7" d="M390.65,197.11c-.41-.1-.85-.13-1-.61-1-3.7-3.42-6.73-4.6-10.34a7,7,0,0,1-1.1-1c-2.58-3.68-5.54-7-8.38-10.51-2.71-3.31-6.21-5.77-9-9l-19.58-1c-.14,1.16.78,1.53,1.52,2q3.3,2.16,6.62,4.3l.92.11c1.68-.28,3.27.46,4.93.45.68,0,1,.48,1.3,1,4.24,7.31,8.5,14.62,12.71,21.94a10.39,10.39,0,0,1,.68,2.11c.23.18.45.37.65.56a6.89,6.89,0,0,1,.57.63,10.79,10.79,0,0,1,.92,1.39l.38.7c.4.76.76,1.54,1.19,2.28,1.44,2.16,2.82,4.24,5.83,4.52a1.19,1.19,0,0,1,.67.31c-.11-.14-.22-.29-.32-.44a1.8,1.8,0,0,1-.14-.76,6.54,6.54,0,0,1,.89.06l.75.17a8.28,8.28,0,0,0,2.41-2.12,12,12,0,0,1,0-6.51c.1-.42.45-.41.93-.29l6.08,1.4Zm59.21-1.83c-.77-5.48-4-7.16-9-4.59-2.44,1.27-4.84,2.59-7.26,3.88-1.44.89-2.75,2-4.56,2.14a4,4,0,0,1-3,1.89c-4.59,2.83-9.32,5.4-14.29,8.08h0a2.58,2.58,0,0,1-1.42.93l-.52.12-2.68,1.45c.28-.94.27-1.21.4-1.33h0a3.21,3.21,0,0,0-2.78.87,11.06,11.06,0,0,1-1.36,1c.25.09.43.16.62.21,1.31.31,2.63.6,3.94.92.23.06.56.2.62.33s-.11.36-.27.46a6.68,6.68,0,0,1-5.35.82l-13-3a7.14,7.14,0,0,1-3.69-2c.47.65.86,1.53,1.73,1.76,1.58.47,3.45.21,4.6,1.79.84,1.23,2.39,1.39,3.51,2.27-.14.1-.24.22-.34.22-.88,0-2.17-1.08-2.54.32-.28,1.06,1.18,1.1,2,1.43s1.54.6,2.31.9c2,1,4,0,6.08,0,4.85.22,9.25-1.6,13.75-3l3.62-1,10.17-4,7.82-3.6a2.35,2.35,0,0,1,2-1.1q4.08-3,8.14-5.89h0c.16-.33.33-.65.51-1h0c.07-.4.15-.84.24-1.23Z" transform="translate(0 0)"/><path d="M290,178.33a32.92,32.92,0,0,1-.34-13.08c.32-1.67.53-3.34,2.87-3.28a1.8,1.8,0,0,0,1.22-.78,5.36,5.36,0,0,1,5.6-2.11c-.43-1.45-1.67-.68-2.32-1.19,1.87-4.66,6.43-4.61,10.24-5.89.46-.16.8-.09.93.44.07.24.19.47.24.71.22,1.3.91,2.76.54,3.87-.53,1.62-2.26.12-3.4.57-.38.16-.82.13-1.09.64.6.61,1.15-.06,1.71-.07,1.69,0,3,.2,3,2.52.11,4,.84,7.9,0,11.89-.4,1.82-1.49,3.3-2.05,5l2.12,1.8,1.54.5a.38.38,0,0,1,.35.09c1.7.25,2.4-.49,2.74-2.19.28-1.39-.14-3,.82-4.21a14.14,14.14,0,0,1,.13-1.46,4.17,4.17,0,0,1,.28-3.06c0-.48,0-1,.08-1.44s0-1,0-1.55c0-1.31,0-2.63.07-4,0-.68-.09-1.37-.13-2.06-.13-1.07-.25-2.14-.39-3.2-.4-3-.64-6.28-2.87-8.56a7.76,7.76,0,0,1-2.3-4.66c-2.19-2.57-5-3.29-8.29-3a12.1,12.1,0,0,1-4.66-.67c-8.28-2.53-17.34,1.52-18.48,12.2-.32,3-.57,5.94-.85,8.91a19.75,19.75,0,0,1,.17,5.43c-.06,3.12,1.27,5.25,4.17,6.29a2.72,2.72,0,0,1,2.11,2.4,4.87,4.87,0,0,0,4.29,4.46l.61.36h0C289.92,180.12,290.22,179.55,290,178.33Z" transform="translate(0 0)"/><path d="M388.85,163.89c-2.2,3.43-5.33,2.35-8.26,2.34-4.66,0-9.28-.87-14-.56l-19.58-1-5.41-.24a3.05,3.05,0,0,0-2-.11l-3.48-.15h-1l-7.32-.7c-.63-.5-.59-1.64-1.65-1.74-.45-.25-1.11,0-1.43-.57l1-.37,1,.08h.49l7,.25c8,.85,16,.85,24.06,1.27Z" transform="translate(0 0)"/><path class="cls-3" d="M358.19,162.44c-8-.42-16.06-.42-24.06-1.27,0-.72.07-1.42,1-1.53h.92a2.92,2.92,0,0,1,3.2-1.6c5.12.41,10.25.67,15.37,1,.67.37.3,1.68,1.47,1.6C357.18,160.79,358.52,160.63,358.19,162.44Z" transform="translate(0 0)"/><path class="cls-3" d="M355.52,155.13c-2.29.1-4.57,0-6.85-.07-3.8-.19-7.6-.54-11.41-.55-.55-2.15.75-2.42,2.38-2.35l1,.06a16.79,16.79,0,0,0,5,.29h.5c2.55.19,5.11.5,7.66.53C355.41,153.06,355.83,153.69,355.52,155.13Z" transform="translate(0 0)"/><path class="cls-10" d="M355.69,155.59c-.18.52-.37,1-.56,1.55-5.39-.18-10.78-.42-16.17-.53-1.58,0-2.15-.58-1.71-2.1,3.81,0,7.61.36,11.41.55,2.28.11,4.56.17,6.85.07Z" transform="translate(0 0)"/><path class="cls-13" d="M326.63,160.91h.49a.28.28,0,0,0-.38-.11A.29.29,0,0,0,326.63,160.91Z" transform="translate(0 0)"/><path class="cls-13" d="M346.12,152.52h-.5C345.79,152.27,346,152.33,346.12,152.52Z" transform="translate(0 0)"/><path class="cls-4" d="M441.1,163.64c-1.82-.13-2.76,1.36-4,2.27A24.72,24.72,0,0,1,425,171c-2.91.38-3.71-.54-3.88-3.56a96.51,96.51,0,0,1-.45-11.15c.12-2.06.34-4.11.5-6.17a1.09,1.09,0,0,1,1.07-1.11h0c.72.79.63,1.85.91,2.78.41,1.32.47,2.94,2.22,3.25s2.38-1.19,3.09-2.39c2-3.35,3.9-6.74,5.87-10.1.33-.56.77-1.05,1.15-1.58,2.06,1.62,2.53,4.11,3.53,6.32.68,1.5.74,3.39,2.56,4.2C440.7,155.53,441.31,159.6,441.1,163.64Z" transform="translate(0 0)"/><path class="cls-2" d="M435.14,184c-.22.9-.49,1.8-.76,2.68a22.12,22.12,0,0,0-1.27,6.54,15.47,15.47,0,0,1-3.86-6.24c-.13-.38-.07-.45.56-.66.39-.14.94-.33,1.12-.85a1.32,1.32,0,0,0,.9-.48h.35a3,3,0,0,0,.52-.08,1.92,1.92,0,0,0,.48-.15,2.22,2.22,0,0,0,.41-.2,1.16,1.16,0,0,0,.34-.24,1,1,0,0,0,.28-.23l.08-.07Z" transform="translate(0 0)"/><path d="M434.11,183.6" transform="translate(0 0)"/><path class="cls-2" d="M437.46,178.64c-.4,1.1-.81,2.18-1.23,3.28l-.27.33h-.64a1.35,1.35,0,0,0-1.51,1,4,4,0,0,0-.85,0,1.49,1.49,0,0,0-.36.05,1.12,1.12,0,0,0-.31.1,1.59,1.59,0,0,0-.59.4h0a1.24,1.24,0,0,0-.18.22l-.1.17h-.22a1.14,1.14,0,0,0-.58.29h0l-.09.1v.06l-.62.13a4.87,4.87,0,0,1-1.52.18c-.24,0-.32-.2-.44-.75a3.72,3.72,0,0,0-.19-.65.82.82,0,0,1,0-.65.88.88,0,0,1,.54-.46c1.37-.51,2.72-1.14,4-1.75A38.21,38.21,0,0,1,437.46,178.64Z" transform="translate(0 0)"/><path d="M436.56,182.1l-.1.13a.69.69,0,0,0,.11-.13l1.5-4c-.5,1.33-1,2.66-1.55,4Z" transform="translate(0 0)"/><path class="cls-14" d="M438.07,178.09l-1.5,4a.69.69,0,0,1-.11.13l.1-.13C437.07,180.76,437.57,179.43,438.07,178.09Z" transform="translate(0 0)"/><path d="M449.11,197.59c-.25,4.31-4.7,7.52-8.15,5.88q4.08-3,8.14-5.89h0Z" transform="translate(0 0)"/><path d="M438,177.73a33.09,33.09,0,0,0-6.15,2.4,41.52,41.52,0,0,1-4,1.72,1.65,1.65,0,0,0-1,.88,1.6,1.6,0,0,0,0,1.25,2.85,2.85,0,0,1,.14.5c.11.5.27,1.24,1.09,1.34h.31a4.46,4.46,0,0,0,.63,0,1,1,0,0,0-.65,1.26h0a.77.77,0,0,0,.07.16,16.31,16.31,0,0,0,4.75,7.19.35.35,0,0,0,.25.1h.08a1.53,1.53,0,0,0-.08-.37c-.33-3.7,1.31-7,2.08-10.5l.17-.32.16-.29.21-.39h0l.21-.25.11-.13.1-.13c.51-1.34,1-2.67,1.51-4,.06-.11.12-.22.17-.33A.42.42,0,0,0,438,177.73Zm-3.6,8.94a22.12,22.12,0,0,0-1.27,6.54,15.47,15.47,0,0,1-3.86-6.24c-.13-.38-.07-.45.56-.66.39-.14.94-.33,1.12-.85a1.32,1.32,0,0,0,.9-.48h.35a3,3,0,0,0,.52-.08,1.92,1.92,0,0,0,.48-.15,2.22,2.22,0,0,0,.41-.2,1.16,1.16,0,0,0,.34-.24,1,1,0,0,0,.28-.23l.08-.07h.85C434.92,184.89,434.65,185.79,434.38,186.67Zm1.85-4.75-.27.33h-.64a1.35,1.35,0,0,0-1.51,1,4,4,0,0,0-.85,0,1.49,1.49,0,0,0-.36.05,1.12,1.12,0,0,0-.31.1,1.59,1.59,0,0,0-.59.4h0a1.24,1.24,0,0,0-.18.22l-.1.17h-.22a1.14,1.14,0,0,0-.58.29h0l-.09.1v.06l-.62.13a4.87,4.87,0,0,1-1.52.18c-.24,0-.32-.2-.44-.75a3.72,3.72,0,0,0-.19-.65.82.82,0,0,1,0-.65.88.88,0,0,1,.54-.46c1.37-.51,2.72-1.14,4-1.75a37.68,37.68,0,0,1,5.31-2.17C437.06,179.74,436.65,180.82,436.23,181.92Z" transform="translate(0 0)"/><path class="cls-15" d="M449.11,197.57" transform="translate(0 0)"/><path d="M411.52,130.33c-3.32.51-3.29-1.64-3.42-3.73a5.24,5.24,0,0,0-1.43-3.74c.38,2.32.61,4,.93,5.66C408.09,131.33,408.42,131.51,411.52,130.33Z" transform="translate(0 0)"/><path d="M412.17,118.6c.69-.08,2.12.42,1.91-.79s-1.51-.63-2.37-.41c-1.1.3-2.27.58-2.55,2C410.42,120,411.12,118.72,412.17,118.6Z" transform="translate(0 0)"/><path d="M412.94,121.21c-.79-.08-.84.66-.82,1.25a1.74,1.74,0,0,0,1.33,1.87c.72.14,1-.46,1-1.16C414.26,122.33,414.05,121.33,412.94,121.21Z" transform="translate(0 0)"/><path d="M402.19,126.19c0,.86.22,1.69,1.19,1.86.75.12.91-.51.94-1.13-.15-.83-.37-1.65-1.38-1.74C402.28,125.13,402.18,125.68,402.19,126.19Z" transform="translate(0 0)"/><path class="cls-10" d="M182.12,208.06c-2,1.82-4,3.64-6.12,5.4-.52.44-1,.87-1.59,1.3s-1.08.86-1.63,1.27l-1.25.92c-.71.52-1.44,1-2.18,1.5-5.25-.64-13.32.37-13.69.42a.39.39,0,0,0-.21.08,1.31,1.31,0,0,0-.27-.19,1.35,1.35,0,0,0-.33-.19l-.38-.17-2.19-.87-2.18-.88q-2.55-6.87-5.09-13.76a3.29,3.29,0,0,0-3.62-2.34c-3.91.12-7.82,0-11.73,0a8.48,8.48,0,0,0-3-5.05,1.85,1.85,0,0,0-1-1.44c-1.9-2.92-3.71-5.91-5.74-8.75a3.42,3.42,0,0,1-.57-3.23,16.42,16.42,0,0,1,8.37-5.2c2.18,1.54,3.38,4,5.36,5.7a14.75,14.75,0,0,0,3.56,4.44c.15.19.3.37.44.56a1.56,1.56,0,0,0,1,1,26.23,26.23,0,0,0,4,5.47l.45.61a13.67,13.67,0,0,0,2.4,4l.72.94c1.78,3,4.37,5.42,6.44,8.22.61.83,1.31,1,2.06.2,3.08-3.44,7.12-5.65,10.71-8.44a1.84,1.84,0,0,0,1.21-.91,25.71,25.71,0,0,0,7-5.06c.2-.14.4-.28.59-.43h0l4.84-3.6a2,2,0,0,1,.49,2.29c-1.16,4.72.28,9,2.21,13.13A6.44,6.44,0,0,1,182.12,208.06Z" transform="translate(0 0)"/><path class="cls-10" d="M221.77,203.4l-6.84,12s-3.87,4.17-6.77,7.41a87.61,87.61,0,0,1-6.92,7.11.38.38,0,0,0-.18.32H168.52c-3.66-.83-7.54-.54-11.08-2a.36.36,0,0,0,0-.35c-1-1.37-1-3.81-1-6a11.76,11.76,0,0,0-.15-2.37c2-.23,10-1.05,14.34-.17,5.08,1,16.09-.4,16.55-.46l5.13-.5c.09,0,1.39,0,1.72-1.91s3.35-11.85,7.45-14.63a.09.09,0,0,0,.07-.06l7.06-8,.06-.09c0-.12,5-11,10.9-11.17a8.68,8.68,0,0,1,8.16,4.35C227.68,187,231.52,192,221.77,203.4Z" transform="translate(0 0)"/><path d="M155.25,230.27H138.62c-.1-1.33,1-2.94-.93-3.85-.05-3.46-.1-6.91-.16-10.37v-.9c.21-2.17-.74-3.25-3-3.15h-2.47c-2.19-.05-3.24.91-2.86,3.18V216c-.07,3.47-.14,6.94-.19,10.41l-1-.33q-1.32-3.72-2.65-7.44a7.65,7.65,0,0,1-.35-2.93V201.1c1.46-.81,3.07-.27,4.58-.53,3.91,0,7.82.1,11.73,0a3.29,3.29,0,0,1,3.62,2.34q2.53,6.89,5.09,13.76h0a11.73,11.73,0,0,0,.83,2.05c1.17,1.86.14,2.55-1.5,2.73a23.73,23.73,0,0,1-4.46.06c-1.89-.16-2.67.45-2.12,2.38a10.06,10.06,0,0,1,.22,1.22c.4,2.42,1.19,4,4.22,4.28a32.68,32.68,0,0,0,7.78-.21Z" transform="translate(0 0)"/><path class="cls-7" d="M296.33,197.27c2.65,1.86,5.36,3.67,8.59,4.34,4.08.85,5.77-1.1,4.73-5.15s-3.24-7.6-5.06-11.3l-2.49-.64c-2-.89-1.33-2.88-1.61-4.39-.14-.7,1-.4,1.6-.39l1-.08,4-2c.56-1.72,1.65-3.2,2-5,.88-4,.15-7.92,0-11.89-.07-2.32-1.35-2.52-3-2.52-.56,0-1.11.68-1.71.07.27-.51.71-.48,1.09-.64,1.14-.45,2.87,1,3.4-.57.37-1.11-.32-2.57-.54-3.87a2.83,2.83,0,0,0-.24-.71c-.13-.53-.47-.6-.93-.44-3.81,1.28-8.37,1.23-10.24,5.89.65.51,1.89-.26,2.32,1.19a5.36,5.36,0,0,0-5.6,2.11,1.8,1.8,0,0,1-1.22.78c-2.34-.06-2.55,1.61-2.87,3.28a32.92,32.92,0,0,0,.34,13.08c.25,1.19,0,1.76-1.3,1.72a1,1,0,0,0,0,.24c.46,3-.48,4.85-3.84,4.82-.28,0-.56.29-.84.45A50.29,50.29,0,0,0,296.33,197.27Zm9.3-35.52c0-.68.19-1.43,1.05-1.33s1,1,1,1.73-.08,1.42-1,1.29-1.08-.9-1.05-1.69Zm-3.3,1.12c1.68,5.86,1.75,6.08-.58,6C303.87,167,300.93,164.63,302.33,162.87Zm-4.75-1.75c.89,0,1.19.66,1.26,1.32s-.08,1.64-1.06,1.63c-.76,0-1-.74-1.08-1.45S296.74,161.27,297.58,161.12Z" transform="translate(0 0)"/><path class="cls-3" d="M281.57,212.94a1.63,1.63,0,0,1-.23.6Z" transform="translate(0 0)"/><path class="cls-3" d="M284.41,205.45q-.42,1.35-.87,2.7h0c-.16.5-.31,1-.47,1.5h0a6.09,6.09,0,0,1-.39,1l-.09.16a.57.57,0,0,1-.12.15,4,4,0,0,1-.26.32Z" transform="translate(0 0)"/><path class="cls-3" d="M285.52,200.48l-4.9,12.93a1.24,1.24,0,0,0-.29-.46l-.1-.08-.13-.09-.15-.06-.13-.05h-.33a.76.76,0,0,0-.3,0h-.1a3.25,3.25,0,0,0-.76.06,5.66,5.66,0,0,1-.82.06,1.81,1.81,0,0,1-1.38-.59c-1-.23-2-.45-2.89-.75a9.14,9.14,0,0,1-2.12-1,5.69,5.69,0,0,1-1.79-1.83,2.39,2.39,0,0,1-.21-.34l-.24-.51c.86-4,1.83-8,2.53-12.06a15.56,15.56,0,0,1,1.69-5.1c.57-.23.61-.78.75-1.27a2.72,2.72,0,0,0,1.83-1.1l.48-.16,2.93-.87a.34.34,0,0,0,.38.26,6.48,6.48,0,0,1,5,2.09C286.32,191.7,286.68,195.41,285.52,200.48Z" transform="translate(0 0)"/><path class="cls-7" d="M348,224.55c-.09.94-.8,1.57-1.17,2.37-.52,1.13-1.56,2.06-1.67,3.35H318.86a2.21,2.21,0,0,1-.3-.45,2.33,2.33,0,0,1-.11-.28,1.47,1.47,0,0,0-.08-.28v-.06a1.61,1.61,0,0,1,0-.31h0v-.76c-.16-1.64-.27-3.28-.51-4.91a3.42,3.42,0,0,1,1.09-3.55,29.44,29.44,0,0,0,2.81-3.1,2.07,2.07,0,0,0,.42.08,23.74,23.74,0,0,0,3,6c.36,1.4,1.53,1.33,2.59,1.4,5.36.37,10.74.62,16.08,1.13A8.46,8.46,0,0,0,348,224.55Z" transform="translate(0 0)"/><path class="cls-12" d="M279.07,212.58h0a3.89,3.89,0,0,0-.76,0C278.57,212.62,278.82,212.58,279.07,212.58Z" transform="translate(0 0)"/><path d="M362.52,219.17c-.85,1.27-1.55,2.64-2.31,4l-.89,1.42-1.69,1.79c-4.56-1.37-3.51-1.25-5.2,2.46-.21.48-.39,1-.56,1.46h-6.69c.11-1.29,1.15-2.22,1.67-3.35.37-.8,1.08-1.43,1.17-2.37a3.21,3.21,0,0,0,1.19-1.93,36.29,36.29,0,0,0,3.6-5.94,4.7,4.7,0,0,1,2.83-.71h.54l6.23.73A1.87,1.87,0,0,1,362.52,219.17Z" transform="translate(0 0)"/><path class="cls-7" d="M357.59,226.33v3.92h-5.74c.17-.49.35-1,.56-1.46C354.08,225.1,353,225,357.59,226.33Z" transform="translate(0 0)"/><path class="cls-12" d="M262.14,214.57a3.71,3.71,0,0,1,1.45-1.09v.17C264,213.79,262.63,214.33,262.14,214.57Z" transform="translate(0 0)"/><path class="cls-11" d="M264.22,213.15a7.1,7.1,0,0,0-2.83-5.45,15.1,15.1,0,0,0-2.67-.48H239.09c.16.81.27,1.64.47,2.43,1.8,6.81,3.49,13.65,4.68,20.58h18.39a43.75,43.75,0,0,1,1-7.12,47.81,47.81,0,0,1,.35-5.21A29,29,0,0,0,264.22,213.15Zm-2.08,1.42a.21.21,0,0,0,0,.11c-.19,0-.13,0,0-.11a3.71,3.71,0,0,1,1.45-1.09v.17c.42.14-1,.68-1.45.92Z" transform="translate(0 0)"/><path class="cls-12" d="M262.14,214.57a.21.21,0,0,0,0,.11C261.91,214.71,262,214.66,262.14,214.57Z" transform="translate(0 0)"/><path class="cls-4" d="M223.39,141.56a.91.91,0,0,1-.06.4,50.43,50.43,0,0,1-1.07,5.17c-.09.37-.19.74-.29,1.11v.09a79,79,0,0,1-3.62,10c-3,6.79-2.87,14-2.69,21.26h-2.73a.29.29,0,0,0,0-.13.39.39,0,0,0-.34-.24c-.86,0-3.34-.27-3.57-1.24a.38.38,0,0,0-.34-.29.37.37,0,0,0-.18.05,4.08,4.08,0,0,1-.2-1.15c0-1-1.25-1.13-2.18-1.16a11.41,11.41,0,0,1-1.59-4.81,8.1,8.1,0,0,0,.62-7c.32-1.81,2-3.5.45-5.46.34-2.86.77-5.71,1-8.58.21-2.7,2.78-5.66-.73-8-.06,0,0-.32.06-.47.7-1.69-.48-2.79-1.25-4a24.72,24.72,0,0,1,6-7l1-.86,4-1.56c3.32.66,6.08,2.1,7.23,5.54A17.93,17.93,0,0,1,223.39,141.56Z" transform="translate(0 0)"/><path class="cls-4" d="M222.89,133.21a18,18,0,0,1,.5,8.35c-.84,5.85-7.94,30.81-7.76,38l8,1.42c.27-1.21.5-2.43.83-3.62,2.07-7.58,4.54-15.1,4.12-23.1-.22-4.13-.46-8.28-1.07-12.36-.48-3.18-.31-6.46-1.45-9.53a26.63,26.63,0,0,1-4.47-6.46,21.93,21.93,0,0,0-5.93,1.72C219,128.33,221.74,129.77,222.89,133.21Z" transform="translate(0 0)"/><path class="cls-4" d="M259.27,192c2.67-4.37,2.13-9,1-13.72-.28-.39-.26-1-.83-1.15-1.52,1.93-2.19,4.26-3.19,6.44C257.05,185.66,258.06,188.72,259.27,192Z" transform="translate(0 0)"/><path class="cls-4" d="M255.62,184.87a26.38,26.38,0,0,0,1,2.46c.89,1.6.83,3.67,2.43,4.92l.18-.3c-1.21-3.23-2.22-6.29-3-8.43A6.82,6.82,0,0,1,255.62,184.87Z" transform="translate(0 0)"/><path class="cls-6" d="M97.76,136.84c-1.43,3.12-3.85,5.62-5.21,8.75-.17.32-.35.64-.53.95a28.21,28.21,0,0,0-3.45,5.39c-2.88,4.9-6.29,9.49-8.6,14.72-2.25,2.07-3.37,4.87-4.83,7.46-2.8,3.51-4.15,3.93-8.09,2.47,5.29-5.8,6.31-12.89,6.14-20.34v-2.73c2.26-2.56,4.85-4.83,6.53-7.87A5.68,5.68,0,0,0,82.6,143l.2-.07.12-.06a.42.42,0,0,0,.14-.09,2,2,0,0,0,.46-.5l.22-.33,4.71,0c1.67,0,2-1.31,2.25-2.51.22-1,1.31-2.22-.55-2.82-.86-.28-1.74-.53-2.59-.85-.65-.25-1.65-.18-1.72-1.13-.08-1.2,1.19-.84,2.09-1.49-2.46,0-2.47-1.33-2-3a5.85,5.85,0,0,0,.14-2c-.06-1.29.55-1.76,1.79-1.71,2.39.09,4.79.12,7.18.17l1,.42,1,1c.51.66,1,1.32,1.52,2a1.09,1.09,0,0,0,.53,1A10.79,10.79,0,0,1,97.76,136.84Z" transform="translate(0 0)"/><path class="cls-4" d="M71.22,181.33c-2.82,1.19-5.4-.23-6.62-3.63-1.37.06-1.59.55-.69,1.63,1.46,1.76,2.86,3.57,4.29,5.35,6-.3,10.07-3.25,12-9a2.52,2.52,0,0,1,.49-2v-2l-.72-5c-2.25,2.07-3.37,4.87-4.83,7.46A7.19,7.19,0,0,1,71.22,181.33Z" transform="translate(0 0)"/><path d="M71.22,181.33a7.2,7.2,0,0,0,3.92-7.17c-2.8,3.51-4.15,3.93-8.09,2.47a3,3,0,0,0-2.45,1.07C65.82,181.05,68.4,182.47,71.22,181.33Z" transform="translate(0 0)"/><path class="cls-11" d="M69.7,120V120a3.05,3.05,0,0,0-.74,0C69.21,120,69.45,120,69.7,120Z" transform="translate(0 0)"/><path class="cls-13" d="M74.63,105.58h0l-.49-.5h0Z" transform="translate(0 0)"/><path class="cls-6" d="M58,121.11l-9.43-11h2a2.92,2.92,0,0,0,2,.55l2.47,1.28C55.86,115,57.82,117.78,58,121.11Z" transform="translate(0 0)"/><path class="cls-1" d="M75.2,115.67c-2.48.55-3.9,2.55-5.5,4.3a7,7,0,0,0-.79,0,15.53,15.53,0,0,0-1.67.2l-.53.07a7.34,7.34,0,0,1-.81,0,3.45,3.45,0,0,1-2.27-.75A14.69,14.69,0,0,0,55,111.9l-2.47-1.28H74.43c.92,0,2.32-.33,2.13,1.24C76.39,113.16,77.76,115.1,75.2,115.67Z" transform="translate(0 0)"/><path class="cls-1" d="M80.43,104.11c-1.72,2.3-3.73,2-5.8,1.47l-.5-.49c-.35-.8,0-1,.76-1h.75Z" transform="translate(0 0)"/><path class="cls-3" d="M90.7,139.5c-.28,1.2-.58,2.51-2.25,2.51l-4.71,0h0a1.65,1.65,0,0,0-1.59-.23H79.62a.66.66,0,0,0-.34-.06h-.14c-4.07-.25-4.09-.3-2.85-4.29.53-1.72,1-3.46,1.45-5.19a1.39,1.39,0,0,0,.36-.85v-.74c1.36-4.29,2.9-8.53,3.59-13a.42.42,0,0,0,.1-.17.49.49,0,0,0,0-.17l.33-.64c.51-1.46,1.61-1.73,3-1.46A5.84,5.84,0,0,1,86.21,121a41.83,41.83,0,0,1-4.6,10.42,17.83,17.83,0,0,0-2.39,4.9c-.32,1.38-.19,2.44,1.73,2.37a66.86,66.86,0,0,1,7.22.09c1.62.11,2-.66,2-2C92,137.33,90.92,138.52,90.7,139.5Z" transform="translate(0 0)"/><polygon class="cls-13" points="70.62 130.1 70.62 130.1 70.62 130.1 70.62 130.1 70.62 130.1"/><path class="cls-13" d="M81.8,117.24a.49.49,0,0,1,0,.17.42.42,0,0,1-.1.17l-.59-.46h0Z" transform="translate(0 0)"/><path class="cls-13" d="M80.71,116.7l.38.42h0v-.5h-.51Z" transform="translate(0 0)"/><path class="cls-13" d="M80.62,116.6h0l.09.1Z" transform="translate(0 0)"/><path class="cls-4" d="M243.93,145.21a13.21,13.21,0,0,1-5.7-1.53c-3.1-1.51-5.44-4-8.11-6.08-.83.78-.37,1.65-.25,2.55A100.31,100.31,0,0,1,231,150.23a3.65,3.65,0,0,0,2.55,3.75,60.59,60.59,0,0,0,7.3,2.42,29,29,0,0,0,12.81.24c1.11-.23,2.07-.53,1.49-2.14-1.58-4.45-3-8.95-5.57-13C248.36,143.73,246.69,145.23,243.93,145.21Z" transform="translate(0 0)"/><path class="cls-8" d="M237,111.63a6.63,6.63,0,0,0,1.06,1.51,1.86,1.86,0,0,0,2.07.49,1.43,1.43,0,0,0,.43-.25c.37-.3.62-.77.37-1.1a1.52,1.52,0,0,0-.31-.31C239.76,111.26,238.52,111.81,237,111.63Z" transform="translate(0 0)"/><path class="cls-8" d="M237,111.63a6.63,6.63,0,0,0,1.06,1.51A6.63,6.63,0,0,1,237,111.63Z" transform="translate(0 0)"/><path class="cls-8" d="M240.59,113.38c.37-.3.62-.76.37-1.1a1.52,1.52,0,0,0-.31-.31,1.52,1.52,0,0,1,.31.31C241.21,112.61,241,113.08,240.59,113.38Z" transform="translate(0 0)"/><path d="M246.44,104.53c.81,0,1-.74,1.07-1.45a1.21,1.21,0,0,0-.93-1.42l-.17,0c-.79,0-1,.79-1,1.46S245.6,104.55,246.44,104.53Z" transform="translate(0 0)"/><path d="M236.16,104.57c.94.11,1-.68,1-1.34s0-1.35-1-1.55a1.33,1.33,0,0,0-1,1.4C235.19,103.78,235.38,104.48,236.16,104.57Z" transform="translate(0 0)"/><path d="M242.12,102.25v6.85C243.15,106.84,242.37,104.54,242.12,102.25Z" transform="translate(0 0)"/><path d="M242.12,109.1l-1.1.21a.27.27,0,0,0,.13.18A.75.75,0,0,0,242.12,109.1Z" transform="translate(0 0)"/><path class="cls-2" d="M257.52,150.08c-1.22-.23-1.36-1.37-1.69-2.22a64.7,64.7,0,0,0-6.23-11.18,1.07,1.07,0,0,1-.5-1.05l-.38-.59c-1.54-3.3-4.3-5.78-6.09-8.91-1.34-.92-2-2.53-3.51-3.31a3.42,3.42,0,0,0,0,.64v.34a4.31,4.31,0,0,0,.7,1.83c2.37,3.54,4.79,7.05,7.19,10.57.41,2,2.23,3.29,2.57,5.31,2.55,4,4,8.54,5.57,13,.58,1.61-.38,1.91-1.49,2.14a29,29,0,0,1-12.81-.24,60.59,60.59,0,0,1-7.3-2.42,3.65,3.65,0,0,1-2.55-3.75,100.31,100.31,0,0,0-1.16-10.08c-.12-.9-.58-1.77.25-2.55a9.25,9.25,0,0,1-.91-2c-.75-4-1.43-8-2.13-12.07-1.2-.16-1.24,1.16-2,1.56.33,2.43,1.29,4.78,1,7.3,1.14,3.07,1,6.35,1.45,9.53.61,4.08.85,8.23,1.07,12.36.42,8-2,15.52-4.12,23.1-.33,1.19-.56,2.41-.83,3.62,4,1.51,6.09,4.93,8.1,8.38.19.33.38.66.56,1l.53,1c.16.31.32.62.47.94s.31.63.45.95c.23.48.45,1,.66,1.46v.06c.24.55.46,1.09.68,1.64s.35.87.51,1.3.27.67.38,1c.71,1.84,1.36,3.7,2,5.55.21.6.42,1.2.64,1.79l.3.83a1.4,1.4,0,0,0,.13.34c6.43,0,12.87-.06,19.31,0a1.15,1.15,0,0,0,0-.37c-.6-4.39-4.8-12.83-8-15.27l5-10.56a25.54,25.54,0,0,1,1,2.5c1-2.18,1.67-4.52,3.19-6.44-.47-2.43.44-4.75.6-7.14A47.7,47.7,0,0,0,257.52,150.08ZM257,164.34a41.11,41.11,0,0,1-4,16.4,3.31,3.31,0,0,1-2.59,1.78,65.5,65.5,0,0,0-7,2.1,3.86,3.86,0,0,1-1.3.26,2.82,2.82,0,0,1-1.36-.36l-1.9-1c-1.25-.68-2.5-1.36-3.76-2s-1.71-1.58-1.22-3.22A77.25,77.25,0,0,0,236.2,168c.21-1.33.7-1.91,1.51-2.12a1.55,1.55,0,0,1-.43-.29,2,2,0,0,1-.47-1.54c0-1.56,1.07-1.76,2-1.76h16.46a2,2,0,0,1,1.42.48,2.18,2.18,0,0,1,.31,1.57Z" transform="translate(0 0)"/><path class="cls-2" d="M261.39,207.7a15.1,15.1,0,0,0-2.67-.48h-.32c-.4-4.26-4.76-13.13-8-15.64l5-10.56a25.54,25.54,0,0,1,1,2.5c-.21.46-.43.91-.68,1.35-1,1.48-3.43,2.38-3.35,4,.07,1.41,2,2.68,3,4.09A37.88,37.88,0,0,1,261.39,207.7Z" transform="translate(0 0)"/><path class="cls-7" d="M249.1,135.63l.49.68c.55-.57.38-1.2.2-1.87-.59-2.16-1.16-4.33-1.73-6.49-1.72-.89-3.38-1.93-5.43-1.82,1.79,3.13,4.55,5.61,6.09,8.91Z" transform="translate(0 0)"/><path class="cls-7" d="M225.08,125.11l-3.49.84a26.63,26.63,0,0,0,4.47,6.46C226.37,129.89,225.41,127.54,225.08,125.11Z" transform="translate(0 0)"/><path class="cls-14" d="M249.59,136.33l-.49-.68a1.07,1.07,0,0,0,.5,1A.77.77,0,0,0,249.59,136.33Z" transform="translate(0 0)"/><path class="cls-4" d="M392.66,211c-1.15-1.58-3-1.32-4.6-1.79-2.16,1.64-4.57,2.2-6.84.57-2.66-1.9-2.4-4.77-1.77-7.6-.43-.74-.79-1.52-1.19-2.28l-.38-.7a10.79,10.79,0,0,0-.92-1.39q-.27-.33-.57-.63c-.2-.19-.42-.38-.65-.56h0c-1.91,5-1.51,9.69,1.92,14C383.78,215.23,387.46,215.33,392.66,211Z" transform="translate(0 0)"/><path d="M388.06,209.21c-2.16,1.64-4.57,2.2-6.84.57-2.66-1.9-2.4-4.77-1.77-7.6,1.44,2.16,2.82,4.24,5.83,4.52a1.19,1.19,0,0,1,.67.31,2.5,2.5,0,0,1,.34.39v0C386.8,208.1,387.19,209,388.06,209.21Z" transform="translate(0 0)"/><path d="M390.7,206.82a4.67,4.67,0,0,1-.52-.08l-3.05-.7a8.28,8.28,0,0,0,2.41-2.12l.06.21C389.88,205,390.31,205.87,390.7,206.82Z" transform="translate(0 0)"/><polygon class="cls-16" points="434.13 183.6 434.12 183.61 434.12 183.6 434.13 183.6"/><rect class="cls-16" x="434.11" y="183.6" width="0.01" height="0.01"/><path class="cls-7" d="M127.75,176.9a16.42,16.42,0,0,0-8.37,5.2h-.76l-.5-.48c-1.16-1-1.13-3.14-2.22-3.68-3.38-1.68-3.56-5-4.84-7.85v-.52c.43-.9,1.47-1.39,1.65-2.46a.59.59,0,0,0,.37,0l.56-.48h0l.73-.41a.47.47,0,0,0,0-.57.24.24,0,0,0-.1-.1l-.11-.11-.25-.22-.13-.11h0l-.09-.09a8.55,8.55,0,0,0-2.66-2.56,4.19,4.19,0,0,1-1.69-2.09c-.23-.63-.46-1.37.09-1.87s1.1.06,1.57.32c2.82,1.59,5.53,3.39,8.45,4.75A10.91,10.91,0,0,1,124,168c1.17,1.81,2.11,3.76,3.15,5.64.17,1-.42,2.1.57,2.91A1.29,1.29,0,0,1,127.75,176.9Z" transform="translate(0 0)"/><path class="cls-7" d="M157,228.13h-.45a1.61,1.61,0,0,0-1.52,1.06,32.68,32.68,0,0,1-7.78.21c-3-.28-3.82-1.86-4.22-4.28a10.06,10.06,0,0,0-.22-1.22c-.55-1.93.23-2.54,2.12-2.38a23.73,23.73,0,0,0,4.46-.06c1.64-.18,2.67-.87,1.5-2.73a11.25,11.25,0,0,1-.83-2l2.18.87,2.19.87.38.17a1.35,1.35,0,0,1,.33.19l.27.19h0a2.73,2.73,0,0,1,.23.25v0a1.76,1.76,0,0,1,.14.23,1.94,1.94,0,0,1,.13.3h0a1.65,1.65,0,0,1,.07.32,2.54,2.54,0,0,1,0,.39,4.86,4.86,0,0,1,0,.54A11.53,11.53,0,0,0,157,228.13Z" transform="translate(0 0)"/><path class="cls-13" d="M152.28,217.53l-2.18-.87h0Z" transform="translate(0 0)"/><path class="cls-3" d="M137.69,226.42a54.18,54.18,0,0,1-8.64,0q.09-5.21.19-10.41h8.28C137.59,219.51,137.64,223,137.69,226.42Z" transform="translate(0 0)"/><path class="cls-3" d="M137.52,215.15h-8.29c-.38-2.27.67-3.23,2.86-3.18h2.43C136.79,211.9,137.74,213,137.52,215.15Z" transform="translate(0 0)"/><path class="cls-11" d="M137.52,215.15v.9h-8.29v-.85Z" transform="translate(0 0)"/><path class="cls-3" d="M120.16,226.11a15.14,15.14,0,0,1-8.07,0c0-2.64.08-5.29,0-7.94,0-1.41.31-2,1.91-2.09,6.12-.19,6.12-.25,6.12,5.81C120.13,223.33,120.15,224.7,120.16,226.11Z" transform="translate(0 0)"/><path d="M138.62,230.27h-37.1c-1.06-2.38-3.63-3.47-4.89-5.68,1.47.13,3.23-.59,4.37.35,1.56,1.3,3.19,1.14,4.9,1.15h6.22a15.14,15.14,0,0,0,8.07,0,12.78,12.78,0,0,1,1.75,0c2.26.37,2.9-.62,2.74-2.78-.18-2.57,0-5.16,0-7.75-2.28-4.19-3.69-8.75-5.2-13.23-.82-2.44,1.65-1.43,2.69-1.91l2.47.68h.51v14.64a7.65,7.65,0,0,0,.35,2.93c-.71,1.4-.13,2.89-.34,4.32-.36,2.37.4,3.61,3,3.12l1,.33a56.64,56.64,0,0,0,8.64,0C139.6,227.33,138.52,228.94,138.62,230.27Z" transform="translate(0 0)"/><path d="M302.33,162.87c-1.4,1.76,1.54,4.14-.58,6C304.08,169,304,168.73,302.33,162.87Z" transform="translate(0 0)"/><path d="M306.66,163.44c.93.13.94-.66,1-1.29s-.08-1.62-1-1.73-1,.65-1.05,1.33S305.77,163.33,306.66,163.44Z" transform="translate(0 0)"/><path d="M297.78,164.07c1,0,1.13-.88,1.06-1.63s-.37-1.3-1.26-1.32c-.84.15-.92.81-.88,1.5S297,164.06,297.78,164.07Z" transform="translate(0 0)"/><path class="cls-11" d="M349.17,222.62a3.21,3.21,0,0,1-1.19,1.93,8.48,8.48,0,0,1-4.28.63c-5.34-.51-10.72-.76-16.08-1.13-1.06-.07-2.23,0-2.59-1.4Z" transform="translate(0 0)"/><path d="M256.52,162.7a2,2,0,0,0-1.42-.48H238.64c-.89,0-1.91.2-2,1.76a2,2,0,0,0,.47,1.54,1.55,1.55,0,0,0,.43.29c-.81.21-1.3.79-1.51,2.12a77.25,77.25,0,0,1-2.33,10.31c-.49,1.64-.16,2.51,1.22,3.22s2.51,1.35,3.76,2l1.9,1a2.82,2.82,0,0,0,1.36.36,3.81,3.81,0,0,0,1.3-.26,65.5,65.5,0,0,1,7-2.1,3.31,3.31,0,0,0,2.59-1.78,41.11,41.11,0,0,0,4-16.4A2.19,2.19,0,0,0,256.52,162.7Zm-.31,1.61a40.42,40.42,0,0,1-4,16.11,2.63,2.63,0,0,1-2.08,1.37,68.63,68.63,0,0,0-7.13,2.13,2.27,2.27,0,0,1-2-.06l-1.9-1c-1.25-.68-2.51-1.37-3.78-2-1-.54-1.23-1-.84-2.34a78.74,78.74,0,0,0,2.35-10.41c.21-1.35.66-1.6,1.66-1.6h5.6a.38.38,0,0,0,.38-.38h0v-.5a.38.38,0,0,0-.38-.38h-5.35a1.33,1.33,0,0,1-1-.24,1.38,1.38,0,0,1-.25-1c0-.8.3-1,1.21-1h16.46a1.13,1.13,0,0,1,.88.24,1.47,1.47,0,0,1,.21,1.08Z" transform="translate(0 0)"/><path class="cls-2" d="M256.25,164.33a40.42,40.42,0,0,1-4,16.11,2.63,2.63,0,0,1-2.08,1.37,68.63,68.63,0,0,0-7.13,2.13,2.27,2.27,0,0,1-2-.06l-1.9-1c-1.25-.68-2.51-1.37-3.78-2-1-.54-1.23-1-.84-2.34a78.74,78.74,0,0,0,2.35-10.41c.21-1.35.66-1.6,1.66-1.6h5.6a.38.38,0,0,0,.38-.38h0v-.5a.38.38,0,0,0-.38-.38h-5.39a1.33,1.33,0,0,1-1-.24,1.38,1.38,0,0,1-.25-1c0-.8.3-1,1.21-1h16.46a1.13,1.13,0,0,1,.88.24A1.46,1.46,0,0,1,256.25,164.33Z" transform="translate(0 0)"/><path class="cls-7" d="M204.52,170.68a4.41,4.41,0,0,1-.94-4.53,8.22,8.22,0,0,1,1.56-2.46c.32-1.81,2-3.5.45-5.46-2.88.15-3.64,1-4.1,4.75a3.08,3.08,0,0,1-2.79-2.1c-1.23-3.73-2.51-7.49-.24-11.31.33-.58.63-1.3,0-1.83s-1.43-.21-2.08.16a25.83,25.83,0,0,1-8,2.84,14.93,14.93,0,0,1-6.45,0,3.39,3.39,0,0,0-4.35,1.89c.55,2.5.35,5.14,1.31,7.57l.23-.08c1.31-.39,3.38-1.27,3.72.08s-2,.38-3,1.07a2.18,2.18,0,0,1-.71.22L179,163a5.4,5.4,0,0,0,.07,1.06h.77c.39-.65-.17-2.15,1.28-1.81.79.19,1,1.22.86,2.08-.25,1.29-1.06,1.22-2,.7a25,25,0,0,0,3,11.38c.39.69,1.26,1.13,1.14,2.1h0c2.4.37,4.57,2.11,7.21,1.22a67.68,67.68,0,0,0,10.43-10.9l-8.25,12.86a7,7,0,0,0,1.58-.14,24.19,24.19,0,0,0,9.14-3.1c1.09-.65,2-1.48,1.79-3A11.41,11.41,0,0,1,204.52,170.68ZM184.35,167c.43-1.69.19-3.56,1.38-5.36.67,1.65,0,3-.34,4.2-.5,2-.56,3.41,2.1,3.71q-4.08.93-3.18-2.55Zm7.31-3c-.81-.09-1-.8-1-1.49s.19-1.44,1.06-1.36.89.84,1,1.5-.2,1.49-1.1,1.39Zm1-4.39a6.41,6.41,0,0,1-1.23.18c-.78,0-1.92,1.27-2.23,0-.22-.94,1.25-1,2.11-1.22.41-.09.83-.11,1.24-.16.59-.09,1.35-.16,1.41.57s-.8.56-1.3.67Z" transform="translate(0 0)"/><path d="M206.52,149.65c-.22,2.87-.65,5.72-1,8.58-2.88.15-3.64,1-4.1,4.75a3.08,3.08,0,0,1-2.79-2.1c-1.23-3.73-2.51-7.49-.24-11.31.33-.58.63-1.3,0-1.83s-1.43-.21-2.08.16a25.83,25.83,0,0,1-8,2.84,14.93,14.93,0,0,1-6.45,0,3.39,3.39,0,0,0-4.35,1.89c-1.6-.83-1.83-2.17-1.44-3.78.18-.75.77-1.54,0-2.32l-.18-1c.09-5.4.91-6.31,6.19-6.89a10.68,10.68,0,0,0,5.74-2.14,5.31,5.31,0,0,1,6.27-.51,4.25,4.25,0,0,0,4.45.14l1-.25c2-.86,3.33.7,5,1.19.77,1.24,2,2.34,1.25,4-.06.15-.12.43-.06.47C209.32,144,206.75,147,206.52,149.65Z" transform="translate(0 0)"/><path d="M204.52,170.68c-2-2.53-1.28-4.81.62-7A8.1,8.1,0,0,1,204.52,170.68Z" transform="translate(0 0)"/><path d="M195.12,185.38c-2.25-1.77-2.78.92-4.52,1.53.61-1.81,1.49-3.13,3-3.58C194.39,183.11,195,184.08,195.12,185.38Z" transform="translate(0 0)"/><path class="cls-13" d="M186.64,181.08h0l-.2-.24Z" transform="translate(0 0)"/><path class="cls-3" d="M120.06,214.1c-.06,1.33-1.12.94-1.88,1s-1.49,0-2.24,0h-2c-.66,0-1.61.27-1.75-.86a1.7,1.7,0,0,1,1.33-1.91,12.61,12.61,0,0,1,5.19-.05A1.7,1.7,0,0,1,120.06,214.1Z" transform="translate(0 0)"/><path class="cls-11" d="M86.08,128.26a5.85,5.85,0,0,1-.14,2c-.48,1.65-.47,3,2,3-.9.65-2.17.29-2.09,1.49.07.95,1.07.88,1.72,1.13.85.32,1.73.57,2.59.85,0,1.37-.38,2.14-2,2a66.86,66.86,0,0,0-7.22-.09c-1.92.07-2-1-1.73-2.37a17.83,17.83,0,0,1,2.39-4.9A41.83,41.83,0,0,0,86.2,121a5.84,5.84,0,0,0-1.09-5.79c1.4-1,3-.55,4.5-.47,2.51.14,5,.59,7.51.91h0A18.38,18.38,0,0,1,95,126.7c-2.39,0-4.79-.08-7.18-.17C86.63,126.5,86,127,86.08,128.26Z" transform="translate(0 0)"/><path class="cls-8" d="M113.66,166.65l-.56.48v-.53Z" transform="translate(0 0)"/><path class="cls-8" d="M82.13,116.6l-.33.64-.67-.15v-.5Z" transform="translate(0 0)"/><path class="cls-8" d="M97.24,115.38l-.1.24h0Z" transform="translate(0 0)"/><path class="cls-8" d="M114.41,166.25l-.73.41V165l.09.09h0l.13.11.25.22.11.11a.24.24,0,0,1,.1.1C114.52,165.87,114.57,166.06,114.41,166.25Z" transform="translate(0 0)"/><path d="M187.45,169.56c-2.68.62-3.74-.26-3.14-2.55.43-1.69.19-3.56,1.38-5.36.67,1.65,0,3-.34,4.2C184.85,167.82,184.79,169.26,187.45,169.56Z" transform="translate(0 0)"/><path d="M179.88,161.33a2.18,2.18,0,0,1-.71.22,1.3,1.3,0,0,1-.27-1.29l.23-.08c1.31-.39,3.38-1.27,3.72.08S180.84,160.63,179.88,161.33Z" transform="translate(0 0)"/><path d="M194,159c.08.88-.8.56-1.3.67a6.41,6.41,0,0,1-1.23.18c-.78,0-1.92,1.27-2.23,0-.22-.94,1.25-1,2.11-1.22.41-.09.83-.11,1.24-.16C193.14,158.33,193.9,158.26,194,159Z" transform="translate(0 0)"/><path d="M182,164.4c-.25,1.29-1.06,1.22-2,.7-.06-.32-.11-.65-.16-1,.39-.65-.17-2.15,1.28-1.81C182,162.51,182.2,163.54,182,164.4Z" transform="translate(0 0)"/><path d="M192.65,162.7c-.05.69-.1,1.45-1,1.35s-1-.8-1-1.49.19-1.44,1.06-1.36S192.58,162,192.65,162.7Z" transform="translate(0 0)"/><path class="cls-5" d="M317.59,230.7c.07-.06.12-.12.18-.18a2.09,2.09,0,0,1-.22.2Z" transform="translate(0 0)"/><path class="cls-5" d="M318,230.27h0l-.09.14Z" transform="translate(0 0)"/><path class="cls-5" d="M317.52,230.75h0a3.79,3.79,0,0,1-.34.2A1.45,1.45,0,0,0,317.52,230.75Z" transform="translate(0 0)"/><path class="cls-5" d="M316.16,231.17h0a5.25,5.25,0,0,0,.55-.09c-.23,0-.47.07-.7.09Z" transform="translate(0 0)"/><path class="cls-5" d="M315.26,231.19" transform="translate(0 0)"/><path class="cls-1" d="M101.59,230.47l-7.4-.07c-4.56.06-9.12.15-13.69.16H75.74v-.29h25.78A1.59,1.59,0,0,1,101.59,230.47Z" transform="translate(0 0)"/><path class="cls-5" d="M64.75,235.64l-24.91.06h0Z" transform="translate(0 0)"/><path class="cls-1" d="M39.84,235.7h-.77c-10.3,0-20.6-.08-30.9,0H2.9c-2.38,0-3-.75-2.89-3,0-1.87.81-2.16,2.42-2.16H8.25v-.29H38.52v.2h1.21C39.82,232.33,39.84,234.1,39.84,235.7Z" transform="translate(0 0)"/><path class="cls-5" d="M500.52,231.08l.06-.81h-.17C500.12,230.52,500.14,230.79,500.52,231.08Z" transform="translate(0 0)"/><path class="cls-5" d="M317.83,230.47v-.06l-.1.11Z" transform="translate(0 0)"/><path class="cls-5" d="M196.63,234.14a4.92,4.92,0,0,0,.08-2.47h0A5,5,0,0,1,196.63,234.14Z" transform="translate(0 0)"/><path class="cls-5" d="M64.75,235.64Z" transform="translate(0 0)"/><path class="cls-1" d="M75.74,230.56H50.61l-10.81-.1H38.59v-.2H75.74A1.5,1.5,0,0,0,75.74,230.56Z" transform="translate(0 0)"/><path class="cls-5" d="M75.74,230.56" transform="translate(0 0)"/><path class="cls-5" d="M196.71,231.67" transform="translate(0 0)"/><path class="cls-1" d="M155.3,230.56H138.66a1.67,1.67,0,0,1,0-.31h16.64C155.27,230.33,155.28,230.46,155.3,230.56Z" transform="translate(0 0)"/><path class="cls-1" d="M357.57,230.27v.78H345.22c-7.65,0-15.3-.09-23,.07a9.73,9.73,0,0,1-1.08,0h-.62l-.32-.06L320,231a3.07,3.07,0,0,1-.5-.2,2.26,2.26,0,0,1-.26-.16l-.15-.13a.86.86,0,0,1-.14-.13v0Z" transform="translate(0 0)"/><path class="cls-1" d="M285.12,235.11a47.86,47.86,0,0,1-8.09-.93,2.74,2.74,0,0,1-.88-.24c-.33-.18-.5-.49-.33-1.13.23-.84.45-1.69.68-2.54l3.12-11.72a8.42,8.42,0,0,0,.36,1.21c1.19,3,3.78,10.56,3.81,10.63a.35.35,0,0,0,.35.25h.11c.17.58.35,1.17.53,1.76a.38.38,0,0,0,.08.27,2,2,0,0,1,.08.35.74.74,0,0,0,.06.36C285.07,233.93,285.06,234.53,285.12,235.11Z" transform="translate(0 0)"/><path class="cls-1" d="M138.66,230.58l-37.07-.11a1.24,1.24,0,0,0-.1-.2h37.12A1.67,1.67,0,0,0,138.66,230.58Z" transform="translate(0 0)"/><path class="cls-8" d="M298.76,172.5a7.2,7.2,0,0,0,1,1.51,1.86,1.86,0,0,0,2.08.5,1.45,1.45,0,0,0,.43-.26c.36-.29.62-.76.37-1.09a2.34,2.34,0,0,0-.31-.32C301.52,172.13,300.25,172.68,298.76,172.5Z" transform="translate(0 0)"/><path class="cls-5" d="M412.62,134.58l2.89-2.58C415.19,134.12,414.11,134.58,412.62,134.58Z" transform="translate(0 0)"/><path class="cls-5" d="M187.44,173.4c1-.51,2-1,3.43-1.8C190.05,173.58,188.89,173.76,187.44,173.4Z" transform="translate(0 0)"/><path d="M433.61,194.86a.38.38,0,0,1-.37-.32c0-.26-.94-6.54,6.29-21.46a2.19,2.19,0,0,0,.23-.83c.25-2.45,1.47-15.15,1.87-24,.17-3.7,1.08-8.72,4.49-11.6,2.25-1.9,5.3-2.62,9.06-2.16,9.32,1.16,8.25,23.38,7.71,30.16a17,17,0,0,1-.56,3.08l-3.81,13.51a.36.36,0,0,1-.45.26h0a.36.36,0,0,1-.26-.45h0l3.83-13.53a15.4,15.4,0,0,0,.53-2.93c.38-4.71,1.83-28.25-7-29.35-3.54-.44-6.41.23-8.49,2-3.2,2.7-4.06,7.5-4.22,11-.4,8.88-1.63,21.6-1.87,24.06a3.35,3.35,0,0,1-.3,1.07c-7.11,14.66-6.24,21-6.23,21a.4.4,0,0,1-.31.43Z" transform="translate(0 0)"/><path class="cls-3" d="M399.65,199.24l-3.15-.72,4.22,1h0Z" transform="translate(0 0)"/><path class="cls-3" d="M412.3,204.7c-.22-.85-1.18-1.82-3.16-2.07-.49-.06-.45-.24-.38-.49.17-.69.08-.78-.87-1l-7.13-1.65h0l-4.22-1-6.08-1.4c-.48-.12-.83-.13-.93.29a12,12,0,0,0,0,6.51l.06.21c.28.88.71,1.74,1.1,2.69a4.67,4.67,0,0,1-.52-.08l-3.05-.7-.75-.17a6.54,6.54,0,0,0-.89-.06,1.8,1.8,0,0,0,.14.76c.1.15.21.3.32.44a2.5,2.5,0,0,1,.34.39h0a7.14,7.14,0,0,0,3.69,2l13,3a6.68,6.68,0,0,0,5.35-.82c.16-.1.33-.32.27-.46s-.39-.27-.62-.33c-1.31-.32-2.63-.61-3.94-.92-.19-.05-.37-.12-.62-.21a11.06,11.06,0,0,0,1.36-1,3.21,3.21,0,0,1,2.78-.87h.19a7.9,7.9,0,0,0,2.06-.11l.52-.12a2.58,2.58,0,0,0,1.42-.93h0A2.35,2.35,0,0,0,412.3,204.7Zm-3.49,2.05a4.61,4.61,0,0,1-.91,0h-.17l-.92-.13,1-1.76a1.65,1.65,0,0,0,.21-.42h0a1.24,1.24,0,0,1,.29-.46c.24-.22.6-.23,1.21-.08.88.21,1.37.7,1.3,1.31a1.93,1.93,0,0,1-2,1.54Z" transform="translate(0 0)"/><path class="cls-1" d="M410.81,205.14a1.92,1.92,0,0,1-2,1.61,4.61,4.61,0,0,1-.91,0h-.17l-.92-.13,1-1.76a1.65,1.65,0,0,0,.21-.42h0a1.24,1.24,0,0,1,.29-.46c.24-.22.6-.23,1.21-.08C410.39,204,410.88,204.53,410.81,205.14Z" transform="translate(0 0)"/><path class="cls-1" d="M404.62,64.45a.57.57,0,0,1-.08.13,4.68,4.68,0,0,0-.54.3l.12-.11Z" transform="translate(0 0)"/><path class="cls-1" d="M266,230.27a.37.37,0,0,1-.33.37h0a.37.37,0,0,1-.37-.33h0Z" transform="translate(0 0)"/><path d="M266,230.23h-.74c-.06-.61-.72-7.61-1.19-13.63-.09-1.22-.18-2.39-.25-3.46-.15-2.18-.81-3.76-2-4.69a4.46,4.46,0,0,0-3.11-.9H239.05a.39.39,0,0,1-.38-.38.35.35,0,0,1,.25-.34h19.76a4.88,4.88,0,0,1,2.58.42,4,4,0,0,1,1,.63,6.83,6.83,0,0,1,2.22,5.07v.15c.36,5.24,1,12.84,1.32,15.83A9.56,9.56,0,0,1,266,230.23Z" transform="translate(0 0)"/><path d="M425.34,123.52c.17,11.38-6.26,16.3-6.26,16.3s10.32-4.7,10.33-8.45c0,0-3.44-3.82-3.77-6.1S425.34,123.52,425.34,123.52Z" transform="translate(0 0)"/><path d="M289.42,175.1s6.11,4.78,11.07,5l.16,2.43S291.45,179.24,289.42,175.1Z" transform="translate(0 0)"/><path d="M228.05,110.42s4.22,7.06,11.91,9.9c0,0-1.17.19-.81,3.48A23.39,23.39,0,0,1,228.05,110.42Z" transform="translate(0 0)"/><path d="M212.9,179.65a.43.43,0,0,1-.11.28s-4,3.86-7.45,6.78c-3.24,2.73-6.87,11.47-7.88,14.31-.28.78-.68,1.21-1.18,1.28h-.14a2,2,0,0,1-1.33-.83c-.16-.17-4.69-5.15-5.83-10.94-.78-4-1.37-4.76-1.51-4.9a.34.34,0,0,1-.33-.16.4.4,0,0,1-.07-.24.45.45,0,0,1,.16-.28h0l5.21-3.41a.67.67,0,0,1-.29-.46,2.51,2.51,0,0,0-.79-1.32,67.68,67.68,0,0,0,10.43-10.9l-8.27,12.85-.08.13h-.25a.34.34,0,0,1-.16.21l-4.94,3.23c.41.54.94,1.85,1.59,5.13,1.1,5.58,5.63,10.57,5.68,10.62.16.22.53.59.78.55s.4-.32.57-.79c0-.11,4.09-11.25,8.11-14.63l1.15-1h0a30.9,30.9,0,0,1,4.52-4.11h0L211.6,180a5.44,5.44,0,0,1-3-1.07,13.15,13.15,0,0,1-4.51,4.51l-.08.05h0a14.48,14.48,0,0,1-8.11,2.68c2.47-.63,4.65-2,7-2.91h0c4.18-2.31,5.33-5.24,5.34-5.27a.34.34,0,0,1,.2-.19.37.37,0,0,1,.18-.05.38.38,0,0,1,.34.29c.23,1,2.71,1.23,3.57,1.24a.39.39,0,0,1,.34.24A.28.28,0,0,1,212.9,179.65Z" transform="translate(0 0)"/><path d="M203.52,166.15a28.37,28.37,0,0,1-1.74,2.71Z" transform="translate(0 0)"/><path d="M36.52,96.65a34.77,34.77,0,0,0,11.13,10.86s-2.44,1.66-1,3.19c0,0-10.58-5.77-10.19-12.49S36.52,96.65,36.52,96.65Z" transform="translate(0 0)"/><path d="M284.52,230.27a.35.35,0,0,1-.25.35h0a1.42,1.42,0,0,0-.11-.35Z" transform="translate(0 0)"/><path d="M281.08,214.23a6.09,6.09,0,0,0-.4,5.25c1.19,3.05,3.79,10.59,3.81,10.67a.24.24,0,0,1,0,.12h-.37a1.42,1.42,0,0,0,.11.35h-.11a.35.35,0,0,1-.35-.25c0-.07-2.62-7.6-3.81-10.63a8.42,8.42,0,0,1-.36-1.21h0a6.74,6.74,0,0,1,.8-4.65l.18-.48,4.9-12.93c1.18-5.07.82-8.78-1.07-11a6.48,6.48,0,0,0-5-2.09.34.34,0,0,1-.38-.26l.35-.11a5.14,5.14,0,0,1,.54-.37,7,7,0,0,1,5,2.34c2.06,2.39,2.46,6.32,1.22,11.68l-1.81,4.76-2.2,5.81h0l-.63,1.67-.23.6Z" transform="translate(0 0)"/><path d="M280,186.67a5.14,5.14,0,0,0-.54.37l-.35.11a.11.11,0,0,1,0-.08.36.36,0,0,1,.32-.4H280Z" transform="translate(0 0)"/><path class="cls-1" d="M202,230.27a4,4,0,0,1-.4.32.35.35,0,0,1-.2,0,.37.37,0,0,1-.32-.17,7.8,7.8,0,0,1-4.41,1.2h0a1,1,0,0,0-.19-.27l-.11-.12a1.44,1.44,0,0,0-.27-.22L196,231l-.13-.05-.18-.06h-.18a9.77,9.77,0,0,0-1.71,0q-12.21-.07-24.43-.12c-.22-.06-.44-.14-.68-.2h33.51Z" transform="translate(0 0)"/><path d="M157.39,228.27a.39.39,0,0,1-.14.17.34.34,0,0,1-.49-.07h0a1.76,1.76,0,0,1-.14-.23c-.94-1.55-1-4-1-6.19a6.49,6.49,0,0,0-.22-2.48.38.38,0,0,1,0-.36.32.32,0,0,1,.1-.13h0a2.73,2.73,0,0,1,.23.25v.05a1.76,1.76,0,0,1,.14.23,1.94,1.94,0,0,1,.13.3h0a1.65,1.65,0,0,1,.07.32,2.54,2.54,0,0,1,0,.39,4.86,4.86,0,0,1,0,.54,11.5,11.5,0,0,0,1,7Z" transform="translate(0 0)"/><path d="M187.05,218.56a50.89,50.89,0,0,1-18.21.23l.51-.34c.47.06.92.13,1.34.21,5,1,16.2-.46,16.31-.47h0Z" transform="translate(0 0)"/><path d="M420.58,140.5l.2,3.74a23.09,23.09,0,0,1,.94,2.92c.37,1.54,2.18-1.61,2.18-1.61a6.28,6.28,0,0,1,2.54,1.27c1,.92,5.13-3,5.13-3s2.75-4.46,4.06-3.7-.57-3-.57-3l-2.68-1.88s1.85,1.67-1,3.56-7.57,5.28-9.28,3.86A7.28,7.28,0,0,1,420.58,140.5Z" transform="translate(0 0)"/><path d="M69.12,153.17a2,2,0,0,0-1.52-.45H61.27l-.06.19v-.19H61.1a.38.38,0,0,0-.35.23,14.42,14.42,0,0,0-1.2,5.9.33.33,0,0,0,.13.26v0a4.25,4.25,0,0,1,1.47,2C62.42,164,62.29,167,62,170h0c-.1,1.55-3.12,4.35-4.25,5.29-2.6,1.85-5.18,2.48-7.68,1.87-3.06-.75-5.86-3.35-7.89-7.31-3.19-6.26-8.46-16.14-8.51-16.24-3.61-6.93-7.38-9-10.7-10.8a20,20,0,0,1-4.4-2.93l.82,1.11a8.37,8.37,0,0,1,3.64,2.71,21,21,0,0,1,8.76,8.13,27.25,27.25,0,0,1,4.22,6.6c-.08.26-.16.51-.23.77,1.77,3.35,4,7.68,5.74,11,2.12,4.16,5.1,6.89,8.37,7.7a8.42,8.42,0,0,0,2,.24,10.82,10.82,0,0,0,6.27-2.25c.43-.35,4-3.34,4.49-5.49a4.67,4.67,0,0,0,2.8-1,6.22,6.22,0,0,0,1.83-3.12,46.81,46.81,0,0,0,1.49-8.55c.13-1.14.25-2.27.41-3.41A1.43,1.43,0,0,0,69.12,153.17Zm-.5,1.06c-.16,1.14-.29,2.28-.42,3.43a45.28,45.28,0,0,1-1.46,8.41c-.71,2.37-1.84,3.44-3.82,3.61.24-3,.3-6-1-8.82a5.1,5.1,0,0,0-1.58-2.22,13.48,13.48,0,0,1,1-5.17h6.19a1.73,1.73,0,0,1,1,.19A.87.87,0,0,1,68.62,154.23Z" transform="translate(0 0)"/><path d="M23.16,143.75l-.42-.23a29.14,29.14,0,0,1-3-1.77c-2.49-1.73-4.73-4.33-6.32-10.13-2.63-9.55-1.25-14.36.37-16.72a3.05,3.05,0,0,1,1.66-1.18,3.09,3.09,0,0,1,1.9.07.38.38,0,0,1,.23.47h0a.38.38,0,0,1-.48.22,2.29,2.29,0,0,0-2.68.82c-1.25,1.83-2.95,6.34-.27,16.1a32.14,32.14,0,0,0,1.11,3.31,14.24,14.24,0,0,0,3.42,5.2L19.5,141A8.34,8.34,0,0,1,23.16,143.75Z" transform="translate(0 0)"/><path d="M36.14,158.48c-.08.26-.16.51-.23.77-1.58-3-2.75-5.19-2.78-5.24-.4-.77-.8-1.48-1.21-2.13A27.25,27.25,0,0,1,36.14,158.48Z" transform="translate(0 0)"/><path d="M222.38,203.83l-6.84,12-.36.39h0c-2.11,4.6-6,13.33-5.09,14h-9a.38.38,0,0,1,.18-.32,87.61,87.61,0,0,0,6.92-7.11c2.9-3.24,6.74-7.37,6.77-7.41l6.84-12c9.75-11.4,5.91-16.45,5.87-16.5a8.68,8.68,0,0,0-8.16-4.35c-5.88.13-10.85,11-10.9,11.17l-.06.09-7.06,8s0,.05-.07.06c-4.1,2.78-7.15,12.79-7.45,14.63s-1.63,1.92-1.72,1.91l-5.13.5c-.46.06-11.47,1.49-16.55.46-4.35-.88-12.37-.06-14.34.17a11.76,11.76,0,0,1,.15,2.37c0,2.18.05,4.62,1,6a.36.36,0,0,1,0,.35l-.35-.14a11.5,11.5,0,0,1-1-7,4.86,4.86,0,0,0,0-.54,2.54,2.54,0,0,0,0-.39,1.65,1.65,0,0,0-.07-.32h0a1.94,1.94,0,0,0-.13-.3,1.76,1.76,0,0,0-.14-.23v0a2.73,2.73,0,0,0-.23-.25h0a.39.39,0,0,1,.21-.08c.37-.05,8.44-1.06,13.69-.42l-.51.34a50.89,50.89,0,0,0,18.21-.23v-.37l5.17-.5c.11,0,.8-.06,1-1.3s3.14-11.92,7.73-15.09l7-7.94c.43-.94,5.35-11.42,11.55-11.56a9.57,9.57,0,0,1,8.8,4.7C228.4,186.65,232.52,192,222.38,203.83Z" transform="translate(0 0)"/><path d="M477.71,197.64l-9.06,2s-3.94,27.63-.11,30.66C468.52,230.27,468.28,204.55,477.71,197.64Z" transform="translate(0 0)"/></svg>