<?xml version="1.0" encoding="utf-8"?>
<!-- Generator: Adobe Illustrator 23.0.1, SVG Export Plug-In . SVG Version: 6.00 Build 0)  -->
<svg version="1.1" id="Livello_1" xmlns="http://www.w3.org/2000/svg" xmlns:xlink="http://www.w3.org/1999/xlink" x="0px" y="0px"
	 viewBox="0 0 1920 1243.3" style="enable-background:new 0 0 1920 1243.3;" xml:space="preserve">
<style type="text/css">
	.st0{fill:#F7443C;}
	.st1{fill:#030303;}
	.st2{fill:#030202;}
	.st3{fill:#040302;}
	.st4{fill:#0F0808;}
	.st5{fill:#F2E3CE;}
	.st6{fill:#191918;}
	.st7{fill:#171615;}
	.st8{fill:#F7E9D2;}
	.st9{fill:#F7E7E3;}
	.st10{fill:#FCECD6;}
	.st11{fill:#FFFFFF;}
	.st12{fill:#ACB6BC;}
	.st13{fill:#FBECD6;}
	.st14{fill:#ABB5BB;}
	.st15{fill:#FFFFFE;}
	.st16{fill:#ABB4BA;}
	.st17{fill:#FEFEFE;}
	.st18{fill:#A9B3B9;}
	.st19{fill:#FBEBD5;}
	.st20{fill:#F9E9D3;}
	.st21{fill:#F3E3CE;}
	.st22{fill:#F8F8F8;}
	.st23{fill:#32302E;}
	.st24{fill:#FEB400;}
	.st25{fill:#F8E8D1;}
	.st26{fill:#FBEBD4;}
	.st27{fill:#D8C9B4;}
	.st28{fill:#322F2B;}
	.st29{fill:#FE6301;}
	.st30{fill:#FEF9F5;}
	.st31{fill:#F6E7D1;}
	.st32{fill:#BFB3A3;}
	.st33{fill:#F0423A;}
	.st34{fill:#151107;}
	.st35{fill:#140F06;}
	.st36{fill:#A97903;}
	.st37{fill:#261B02;}
	.st38{fill:#302611;}
	.st39{fill:#2C2002;}
	.st40{fill:#2B1F02;}
	.st41{fill:#240E02;}
	.st42{fill:#240F02;}
	.st43{fill:#592403;}
	.st44{fill:#371602;}
	.st45{fill:#250F02;}
	.st46{fill:#F8E8D3;}
	.st47{fill:#EEDFCA;}
</style>
<title>createimg-ipad</title>
<g>
	<path class="st0" d="M186.6,420.2l-2,1.4c-7.5,3-12.4-0.5-16.6-6.3c-6.6-9.3-12.5-19.1-17.7-29.2c-1-2-1.7-4.2-2.1-6.4
		c-1.8-10.2,6.4-14.8,14.4-13.5c3.1,0.5,3.5,1.7,2,4.4c-1.7,3-3.1,6-1.4,9.4c-1.7-4-0.4-7.8,2.6-10.4c7.4-6.6,16.2-9.9,26.2-9.2
		c4.6,0.3,7.4,3.9,10.1,8c-4.5-7.4-6.4-8.4-14.9-8.2c-1.4,0-2.7,0.5-4.1,0.3c-0.4-0.1-0.7-0.4-0.9-0.7c-1.2-1.5-4.4-0.7-4.5-2.8
		c-0.1-1.9,2.6-2.4,3.8-3.7c3.4-3.9,8.7-4.9,12.4-2.5c2.2,1.4,2.2,1.9,0.2,4.1c6.6-2.6,12-0.8,16.1,5.4c3.9,6,5.5,12.8,7.1,19.6
		c1.3,5.2,2,10.6,2.1,16c0.1,5.8-0.9,11.5-5.8,15.6c-1.4,1.2-3,2.8-5,1.6c-2-1.2-1.1-3.1-0.7-4.8s0.4-3.2,0.6-4.3
		c-0.5,5.4-2,10.7-7.6,14.1c-6.6,3.8-15,2.4-20-3.4c-1.7-1.9-3.1-3.9-4.4-6.1c-0.1-0.3-0.2-0.8-0.5-0.9s-0.4,0-0.2,0
		c0.2,0,0.4,0.2,0.5,0.5c2.2,3.8,4.6,7.5,8.5,9.7C185.9,418.4,186.8,418.9,186.6,420.2z"/>
	<path class="st1" d="M173.8,905.5c-0.3-0.6-0.9-1-1.6-1c-6.5-0.7-12.9-1.8-19.5-2c-6.3-0.1-12.4-2.7-16.9-7.1
		c-1.4-1.3-2.7-2.6-3.9-4.1c-1.6-1.9-1.6-3,0.2-4.9c1.5-1.6,3-3,4.6-4.5c3.9-3.6,8.1-6.8,12.6-9.5c2.3-1.2,3.6-3.6,3.3-6.2
		c-0.1-4.8,0.2-9.5,0.1-14.3c-0.3-2.4,1.2-4.8,3.5-5.5c12.2-5,24.3-10,36.5-15c2.9-1.2,6.1-1.6,9.2-1.3c5.4,0.4,10.8,0.9,16.1,1.4
		c6.6,0.6,13.2,1.3,19.8,1.9l20.2,2l17.3,1.6c0.6,0,1.2,0.1,1.9,0.2c1.5,0.1,2.5,1.4,2.4,2.9c0,0,0,0,0,0l0,0c0,2.2-0.1,4.5,0,6.8
		c0,1.5,0.5,1.9,1.8,1.4c2.2-0.7,4.4-0.9,6.7-0.7c3.6,0.2,7.2,0.7,10.9,1.1c1.1,0.1,1.5,0.5,1.6,1.7c0,1.8,0,3.5,0,5.3
		c0,2.3,0.6,3.1,3,3.5c1.7,0.3,3.4,0.9,5,1.7c1.6,0.7,2.4,2.3,2.1,4c-0.1,0.7-0.3,1.5-0.5,2.2c-2,6.5-5.5,12.4-10.2,17.4
		c-7.9,8.2-16.6,15.7-25.9,22.4c-7.5,5.5-16.9,7.7-26,6c-10.5-1.7-21.2-2.7-31.9-3c-17.3-0.4-34,2.4-49.6,10.3
		c-4.5,2.4-9.4,4.3-14.3,5.6c-2.6,0.6-5.2,0.8-7.8,0.6c-1.4-0.1-2.7-0.4-4-1c-2.5-1.1-4-3.7-3.7-6.4c0.1-1.1,0.7-2.2,1.6-2.8
		c1.2-0.8,2.4-1.4,3.6-2c5.6-2.5,11.6-3.9,17.6-5.2c3.5-0.8,7.1-1.6,10.6-2.3C171.3,906.3,172.5,905.9,173.8,905.5z"/>
	<path class="st2" d="M226.6,579.6c-11.2-0.3-21.7-1.7-31.8-5.6c-4.4-1.6-8.5-3.9-12.1-6.7c-5.6-4.2-9.3-10.4-10.4-17.4
		c-1-6.6,0.2-13.4,3.4-19.3c0.6-1.1,1.2-2.2,1.9-3.2c3.3-4.7,6.6-9.4,10.1-14.1c3-4.1,6.7-7.5,11-10.2c3.2-2,6.2-4.2,9.1-6.6
		c1.6-1.3,3.1-2.5,4.8-3.7c2.8-2.2,5.9-3.8,9.3-4.7c4-1.1,7.8-2.7,11.7-4.1c5.2-1.9,10.4-3.8,15.9-4.4c7-0.9,14.1-0.4,20.8,1.7
		c5.2,1.6,10.5,2.6,15.9,3c15.9,1.4,29.2,12.6,33.4,28c1.9,6.3,1.8,13-0.2,19.2c-1.3,4.2-3.8,8-7,11c-17.1,15.6-36.4,27.5-59,33.3
		C244.6,578.2,235.6,579.4,226.6,579.6z"/>
	<path class="st3" d="M303.1,1042.6c0.3,0.2,0.6,0.4,1,0.6c2.2,1.4,2.4,1.9,1.2,4.3c-0.7,1.7-1.6,3.4-2.8,4.9
		c-0.6,0.9-1.2,1.9-1.7,2.8c0.8-0.1,1.5-0.5,1.9-1.2c2.5-3.4,5.1-6.8,6.5-11c0.4-1,0.9-2,1.4-3c0.3-0.6,0.9-0.9,1.6-0.9
		c2.2,0.1,3.9,2,3.7,4.2c0,0.4-0.1,0.8-0.2,1.1c-0.3,0.7-0.7,1.3-1.1,1.9c-3.6,5.1-6.5,10.7-10.5,15.6c-0.2,0.2-0.3,0.4-0.4,0.6
		c-0.6,1-0.6,1.3,0.3,2.3c0.4,0.5,0.9,0.9,1.3,1.3c3.2,3.3,4.5,8,3.4,12.5c-0.5,2-1.1,3.9-2,5.7c-2.2,4.7-4.9,9.1-8.1,13.1
		c-9.5,12.2-21,22.7-34,31.1c-7.9,5.1-16.1,9.6-24.5,13.7c-6.3,3.1-13.1,4.9-19.8,7.2c-1.7,0.6-3.5,0.6-5.2,0.2
		c-0.4-0.1-0.7-0.5-0.6-0.9c0,0,0,0,0,0c0-0.1,0-0.2,0.1-0.2c0.2-0.4,0.5-0.9,0.9-1.2c10.1-11.1,16.4-24.2,20.8-38.4
		c2.2-7.2,3.8-14.6,5.3-21.9c1.2-6.2,3-12.2,5.4-18c1.3-3.1,2.9-6.1,4.9-8.9c4.9-6.6,11.3-10.1,19.6-10.1c2.4,0,4.8,0.2,7.1,0.5
		c0.9,0.3,1.8-0.2,2.1-1.1c0.1-0.3,0.1-0.5,0-0.8c0-1.2-0.2-2.5-0.3-3.8c-0.3-3.6-0.5-7.2-0.8-10.9c-0.1-1,0.5-2,1.5-2.3
		c2.3-1.1,4.4-1,6.2,0.8c0.4,0.3,0.7,0.7,1,1.1c2.4,2.1,2.1,5,2.3,7.6s1.1,4,3.7,4.8c3.5,1.1,4.8,3.4,3.7,6.9
		c-1.6,5.2-5.2,9.3-8,13.9c-0.3,0.6-1,0.9-1.6,0.6c-0.8-0.5-1-1.5-0.6-2.3c0,0,0,0,0,0c1.3-2.8,2.9-5.6,4.6-8.2
		c0.9-1.6,2-2.8-0.4-4.3c-1.6-1-1.3-1.4,2.1-3.1c-2.8-0.2-3.4,1-3.6,3.2c-0.5,6.7-1.9,13.1-7,18.1c-1.5,0.3-2.3-0.3-2.4-1.8
		c6.4-8.1,6.1-17.7,5.9-27.2c0-1.7-0.5-3.3-2.3-3.9c-2-0.7-2.1-2-0.6-4.2c-2.2,1.6-1.9,3-1.7,4.3c1.5,9.4,1.1,18.7-2.1,27.7
		c-2.2,0.1-2.7-0.3-2.8-2.3c0.1-2,0.5-4,1-5.9c0.4-2-0.2-3.1-2.4-3.1c-3.5,0-7.1-0.1-10.5,0.8c-1.9,0.3-3.4,1.9-3.6,3.8
		c-0.2,1.2,0.1,2.9-1.2,3.3c-1.7,0.5-1.8-1.7-2.9-2.8c-6.5,7.9-11.3,16.4-12.6,26.6c-0.5,3.9-1.1,7.7,1.4,11.2
		c0.4,0.5,0.4,1.2,0,1.8c-0.5,0.7-1.2,0.4-1.7,0c-2.1-1.7-2.5,0-2.9,1.5c-1.4,4.6-3.3,9.1,0.3,13.6c0.4,0.5,0.9,1.4,0,2
		s-1.4,0.1-2.1-0.3c-0.7-0.7-1.5-1.3-2.4-1.9c-3.9,10.7-9.3,20.5-14.8,30.5c14.7,0.2,54.1-25.9,72.1-47.5c-2.4-1.4-6.2,0.1-7.6-3.5
		c0.1-0.5,0.5-1,1-1.2c2-0.3,3.9,0.4,6,0.3c2.1-0.1,4.2-0.6,5.2-2.5c2.9-5.4,5.6-11,4-17.5c-1-4-1.8-4.4-5.5-2.6
		c-0.6,0.3-1.2,0.4-1.8,0.4c-1.6-1.7,0-2.7,0.9-3.8c3.9-4.8,7.7-9.5,11.2-14.6c1.2-1.4,2-3.2,2.4-5c-5.7,8.1-12.1,15.6-19.2,22.5
		c1.5,2,4-0.5,4.7,2c-1.3,2.6-3.6,1.8-5.7,1.9c-3.2-0.6-3.1-2.6-1.8-4.7c3.2-4.9,6.1-10,9.5-14.8c1.2-1.7,2.8-3.2,1.6-5.7
		c-0.5-1,1.1-1.1,1.5-1.9c-0.5-1.3-3.8,0.4-2.8-2.2C299.5,1041.9,301.2,1041.3,303.1,1042.6z"/>
	<path class="st4" d="M176.1,407.6c1,0,1.1,0.9,1.5,1.5c2,3.2,4.7,5.9,7.9,7.9c7.7,4.5,14.3,2.6,19.4-3.5c1.7-2,2.3-4.7,2.9-7.3
		c0.4-1.6,0.6-3.1,0.9-5c0.7,2.2,0.8,4.6,0.4,6.9c-0.2,1.1-0.4,2.2-0.4,3.3c-0.1,0.6,0.2,1.2,0.8,1.3c0.3,0.1,0.6,0,0.9-0.2
		c2.8-1.3,5-3.4,6.4-6.1c1.6-3.3,2.3-7,2.1-10.6c-0.5-8.4-1.9-16.7-4.2-24.8c-1-3.9-2.7-7.6-5-10.9c-1.7-2.5-4.1-4.4-7-5.4
		c-2.2-0.7-4.5-0.6-6.6,0.3c-1.3,0.6-2.6,1.5-4.4,1.1c0.9-1.7,2.9-2.1,3.9-3.5c-1.1-1.6-2.9-2.6-4.8-2.6c-1.2,0-2.5,0-3.8,0.1
		c-1.4,0-2.7,0.7-3.6,1.7c-0.8,0.9-1.6,1.9-2.4,2.8s-2.1,0.9-2.7,1.9c1.2,1.2,2.8,0.9,4.3,1.1c1.5,0.1,0.8,1,0.7,1.6
		c-4,1.2-8.8-0.5-11.6-4.5c-1.4-2.2-3.4-3.9-5.8-5.1c-1.5-0.7-3.4-1.6-4.4,0c-1,1.6,2,1.4,2.2,2.9c0,0.2,0,0.3-0.1,0.5
		c-1.3,0.4-2.6,0.8-3.9,1.2c-1.5,0.4-1.8,0.3-2.1-1.1c-0.2-0.8-0.5-1.6-1.1-2.4c-0.8-1.3-0.4-2.3,1.1-3c4.4-2.2,9.7-1.2,13.1,2.3
		c1,1.1,1.9,2.3,2.8,3.5c1.4,1.8,3,2.2,4.9,0.9c1.2-0.9,2.4-1.8,3.5-2.9c1.8-1.7,4.1-2.9,6.6-3.2c2.9-0.4,5.8,0.5,8,2.5
		c0.8,0.9,2.1,1.4,3.3,1.2c3.9-0.6,6.8,1.1,9.2,4c2.2,2.6,3.9,5.6,5.1,8.8c3.6,9,5.8,18.5,6.5,28.1c0.2,3.6-0.1,7.3-0.9,10.8
		c-0.7,4.7-4,8.7-8.5,10.2c-3,1.1-5.9,2.5-8.6,4.3c-3.6,2.3-8.1,3.1-12.3,2.2c-1.1-0.2-2.2-0.4-3.3-0.7c-0.6-0.8-1.4-1.4-2.4-1.8
		c-2.1-1.3-3.9-3.1-5.3-5.1c-0.8-1.4-1.7-2.7-2.7-4C175.9,408.8,175.8,408.1,176.1,407.6L176.1,407.6z"/>
	<path class="st4" d="M183.1,359.8c3.3-0.6,6.7-0.7,10.1-0.4c2.4,0.2,4.6,1.2,6.3,3c2.1,2.2,3.6,4.9,4.3,7.9
		c0.1,0.2-0.1,0.5-0.2,0.7c-0.8-0.2-1.1-1-1.6-1.6c-1.4-1.7-2.8-3.6-4.4-5.2c-2.1-2.2-5-3.4-8.1-3.3c-2.2,0-4.5,0.3-6.6,0.9
		c-3.9,1.1-7.6,2.5-11.2,4.3c-2.1,1.1-4.1,2.5-5.7,4.2c-2,2.1-2.8,5.1-2.2,7.9c0.3,1.6,0.6,3.1,1,5c-4.2-4.9-4-8.6,0.4-15.2
		c-2.4-1.2-2.4-1.2-4.4-1.2c-1.6,0-3.3,0.2-4.8,0.6c-4.2,0.9-7.2,4.7-7.1,9c0,1.2,0.2,2.5,0.5,3.7c0.8,3,1.9,6,3.5,8.7
		c3.8,6.8,7.8,13.4,12,20c2.3,3.6,4.9,7,7.8,10.1c2.5,2.8,5.4,3.3,8.8,2.6c1.1-0.2,2.1-1,3.2-0.2c-0.7,0.3-1.3,0.7-2,1
		c-3.7,1.6-7.9,0.9-10.9-1.7c-1.3-1.1-2.6-2.4-3.7-3.8c-2.3-2.8-4.4-5.8-6.2-9c-3.3-5.5-6.6-11-9.8-16.5c-2.4-3.8-4.1-8.1-4.9-12.6
		c-0.3-1.7-0.3-3.5,0.1-5.2c0.4-2.8,2.2-5.2,4.7-6.4c2.1-1.1,4-2.6,5.4-4.5c1.6-2,3.9-3.2,6.4-3.6c3.5-0.7,3.5-1.2,1.7-4.1
		c-0.3-0.4-0.7-0.7-0.6-1.3l0.4-0.3c4.1,1.4,5.2,4.5,3.7,10.1C173.7,362.3,178,359.5,183.1,359.8z"/>
	<path class="st5" d="M283.3,1070.6c-0.1-0.8,0.1-1.5,0.6-2.1c3.5-2.9,4.3-6.9,4.9-11c0.2-1.7,0.5-3.5,0.7-5.2
		c0.1-0.6,0.2-1.2,0.3-1.8c0.7-2.5,2.1-3.2,4.5-2.4c1.1,0.3,1.8,1.4,1.5,2.5c0,0,0,0.1,0,0.1c0,0.6-0.5,1.1-1.1,1.1c0,0,0,0,0,0
		h-0.1c-0.7-0.1-1.5-0.2-2.2-0.3c-0.1,0-0.4,0.3-0.4,0.4c0.1,0.2,0.2,0.4,0.4,0.5c0.9,0.3,2.1-0.1,2.8,1c0.2,0.8-0.4,1.3-0.7,1.9
		c-2,3.3-3.9,6.7-5.9,10c-0.2,0.3-0.3,0.6-0.4,1c0,0.2,0.1,0.5,0.3,0.6c0.2,0.1,0.5,0,0.6-0.2c3-4.4,6.2-8.8,8-13.9
		c1-2.7,0.1-4.9-2.1-6.1c-0.9-0.4-1.9-0.5-2.9-0.4c-1.3,0-1.9-0.4-2-1.7c-0.2-2.9-0.6-5.7-1.2-8.5l-0.7-2.5l1.6-0.6
		c4.2,2,4.9,3.5,3.9,8.2c-0.2,1.2-0.6,2.4,0.2,3.5c0.3,0.2,0.5,0.6,0.8,0.7s0.6-0.3,0.7-0.6c0.1-0.7,0.1-1.5,0.8-2
		c0.3,0.2,0.4,0.6,0.6,0.9s0.2-0.2,0.2-0.2c0.2-2.3,2.1-4.2,1.8-6.7c0-1.1,0.8-2,1.8-2c0,0,0,0,0,0c0.1,0,0.3,0,0.4,0
		c1.4,0.1,2.6,1.2,2.6,2.6c0.2,1.4-0.8,2.6-0.7,4v1.3c-1.5,0.1-3.1-0.2-4.1,1.3c-0.1,0.2-0.3,0.5-0.2,0.6c0.2,0.2,0.4,0.3,0.6,0.2
		c0.7-0.3,1.4-0.5,2.1-0.7c0.9-0.1,1.8,0.4,2.2,1.2c0.2,0.6,0,1.3-0.5,1.7c-0.8,0.5-1.7-0.1-2.5,0.6c0.2,0.3,0.5,0.5,0.8,0.8
		c0.7,0.4,0.9,1.2,0.6,1.9c0,0,0,0.1-0.1,0.1c0,0,0,0,0,0.1c-0.6,1-1.2,1.9-1.9,2.8c-3.3,4.4-6.3,9-9.1,13.8c-0.5,1-1.1,2-1.6,3
		c-0.8,1.6-0.7,1.7,1.4,2.4C287.4,1074.8,284.9,1074.3,283.3,1070.6z"/>
	<path class="st6" d="M303.1,1041.3c-0.4-0.1-0.8-0.3-0.7-0.7c0.2-0.8,0.6-1.6,0.8-2.4c0.2-0.9-0.1-1.8-0.8-2.3
		c-0.5-0.6-1.4-0.7-2-0.3c-0.7,0.5-1,1.4-0.7,2.2c0,0.1,0.1,0.2,0.2,0.3l1,1.3c-1.9,0.7-3.2,2.6-3.1,4.6c-0.1,0.3-0.3,0.7-0.6,0.9
		c-0.2,0.1-0.4,0.2-0.6,0.2c0,0-0.2-0.2-0.2-0.3c-0.1-0.7-0.1-1.5-0.1-2.2c0.5-2,0.9-3.9,1.4-5.8c0.1-0.7,0.4-1.4,0.7-2.1
		c0.2-0.4,0.6-0.8,1.1-1c2.4-0.9,5.6,1.7,5.3,4.2C304.5,1039.1,303.9,1040.3,303.1,1041.3z"/>
	<path class="st7" d="M293.9,1044.7c-0.6,0.2-1.2,0.4-1.4-0.5c-0.1-1.1,0-2.2,0.3-3.3c0.2-1,0.4-1.9,0.4-2.9
		c0.1-1.5-0.7-2.9-2.1-3.6c-0.7-0.3-1.4-0.5-1.4-1.5c0.8-0.3,1.7-0.4,2.6-0.2c1.9,0.4,2.8,1.4,2.7,3.4
		C294.9,1039,294.6,1041.9,293.9,1044.7z"/>
	<path class="st4" d="M164.8,354.1c-0.6,0-1.4,0.2-1.5-0.8l-0.1,0.1C164.1,352.9,164.8,352.7,164.8,354.1L164.8,354.1z"/>
	<path class="st8" d="M164.8,354.1c-0.1-1-0.8-0.9-1.5-0.8c0-0.9-0.8-0.8-1.3-1c-0.7-0.3-1.4-0.4-2.1-0.7c-0.6-0.2-1-0.9-0.7-1.5
		c0,0,0,0,0,0c0.1-0.2,0.2-0.4,0.4-0.5c1.5-1.4,3.6-1.8,5.5-1c2.4,0.8,4.4,2.3,5.9,4.3c0.3,0.4,0.6,0.8,0.8,1.2
		c1.8,2.9,4.9,4.7,8.3,5.1l2.9,0.4l-0.1,0.2l0.2,0.1c-5.4,1.3-10.5,3.7-15.5,5.9c-0.8-0.9-0.1-1.3,0.2-1.8c0.2-0.5,0.5-0.9,0.7-1.3
		c0.7-1.5,0.8-3.2,0.1-4.7C167.8,356.2,166.9,354.5,164.8,354.1z"/>
	<path class="st9" d="M172.4,375.3c-0.5-0.1-0.9-0.3-0.9-0.9c-0.1-1,0.4-2,1.1-2.6c2.3-2.1,5.2-3.5,8.2-4.1c0.4,0,0.7,0,1.1,0.2
		c0.5,0.2,0.8,0.6,0.8,1.1c0,0.4-0.3,0.6-0.7,0.8c-0.2,0.1-0.5,0.1-0.7,0.1c-2.8,0.2-5.3,1.6-6.8,3.9
		C174,374.5,173.5,375.3,172.4,375.3z"/>
	<path class="st4" d="M176.1,407.5l-0.5-0.3C176.2,406.9,176,407.4,176.1,407.5L176.1,407.5z"/>
	<path class="st10" d="M170.9,850.8l3.5,0.2c1.8,0.7,3.7-0.2,5.5,0.5l3.5,0.2c1.8,0.7,3.7-0.2,5.5,0.5c10.3,1.1,20.7,1.9,31.1,2.5
		c7.1,0.4,14.2,0.9,21.4,1.4c0.3,0,0.5,0,0.8,0c1.7,0.2,2.2,0.8,2.4,2.4c0.1,0.8,0,1.5,0,2.3c0.2,9.2-0.6,18.3-0.5,27.5
		c0,0.4,0,0.7-0.1,1.1c-0.1,0.6-0.6,1.1-1.3,1.2c-0.6,0-1.3,0-1.9-0.1c-6.9-0.7-13.7-1.3-20.6-2c-9.1-0.9-18.2-1.5-27.3-2.6
		c-8.7-1.1-17.5-1.4-26.2-2.6c-3.2-0.5-6.5-0.8-9.7-1.2c-0.6,0-1.2-0.3-1.6-0.8c-0.3-0.5-0.4-1.2-0.2-1.8c1.1-4.8,3.7-9.1,7.4-12.3
		c2.6-2.6,5.9-4.3,9.6-4.8c3.9-0.4,7.7-1.1,11.5-2c1.6-0.5,3.3-1.2,3.1-3.2c-0.2-1.8-2.1-1.6-3.3-1.8c-7.2-1.3-14.5-0.9-21.7-1.7
		c-2.8-0.3-4.4,1.3-4.7,4.2c-0.2,2.3,0,4.8-0.2,7.1c-0.1,1.2,0.3,2.9-1.6,3.3c0.1-5.4,0.2-10.7,0.3-16.1c0.1-0.6,0.2-1.2,0.4-1.8
		C160.7,848.5,166.1,848.7,170.9,850.8z"/>
	<path class="st11" d="M222.6,852.5c-1,0-2,0-3,0l-29.4-1.7h-1.9c-2.5-0.8-5.2,0.2-7.7-0.6l-4.3-0.2c-4.9-0.6-9.9,0.7-14.7-0.6
		c-0.9-0.2-2,0-2.8-0.8c-0.3-0.1-0.4-0.4-0.2-0.7c0,0,0,0,0,0c0-0.1,0.1-0.2,0.2-0.2c0.4-0.3,0.8-0.5,1.3-0.7l35.8-14.2
		c1.2-0.6,2.6-0.8,4-0.7c6,0.6,11.9,1.2,17.9,1.8c0.2,0.1,0.5,0.2,0.7,0.3c3.1,3,7.3,3.1,11.1,3.5c3.4,0.3,6.6,1.6,9.2,3.8
		c2.4,2,2.7,4.7,0,6.1C233.6,850.1,228.9,853.9,222.6,852.5z"/>
	<path class="st12" d="M234.4,892.6c-0.1,0.1-0.1,0.2-0.2,0.2c-6.2,1-12.2,2.9-18.3,4.2c-8,1.7-16.2,2.3-24.3,1.6
		c-5.5-0.4-10.9-1.4-16.4-2s-11-1.3-16.4-2c-6.5-0.8-12.9-1.7-19.3-3.1c-1.2-0.3-2.4-0.6-3.6-1.1c-0.9-0.4-1.3-1.4-0.9-2.2
		c0,0,0,0,0,0c0-0.1,0.1-0.2,0.1-0.3c0.4-0.8,1-1.5,1.6-2.1c4.3-4.6,9.2-8.6,14.4-12c0.2-0.1,0.5,0,1-0.1c0.2,2.8,0.4,5.7,0.7,8.5
		c0.1,1.9,0.3,2.2,2.2,2.4c5.5,0.6,11,1.1,16.5,1.7c10,1,20,1.9,29.9,2.8c5,0.4,10,0.7,15,1.1c3.6,0.2,7.2,0.5,10.8,1.2
		c1.5,0.2,3,0.3,4.5,0.3C232.6,891.5,233.6,891.9,234.4,892.6z"/>
	<path class="st10" d="M277.8,840.5c0.1,2.2,0.3,4.3,0.4,6.4s-0.5,4.2-2.5,5.5c-0.8,0.5-1.2,1.3-1.1,2.2c0,2.6,0,5.3-0.1,7.9
		c-0.1,1.7-0.1,1.7-1.9,2.2c-0.5,0.1-1,0.2-1.4,0.5c-5.4,3.3-10.9,6.7-16.3,10c-1.7,0.9-2.6,2.9-2.2,4.8c0.7,3.8-0.7,6.6-4.2,8.3
		c-0.4,0.2-0.8,0.6-1.2,0.8c-0.3,0.2-0.8,0.1-1-0.2c0-0.1-0.1-0.2-0.1-0.3c0-0.9,0-1.8,0-2.6c0-8.3,0.1-16.5,0.1-24.8
		c0-0.6,0-1.3,0-1.9c-0.4-1.9,0.8-3.8,2.6-4.5c2.3-1,4.5-2.2,6.8-3.3c7-3.5,14.2-6.7,21-10.8C277,840.6,277.4,840.5,277.8,840.5z"/>
	<path class="st13" d="M222.6,852.5c3.1,0.2,6.2-0.7,8.8-2.5c1.6-1,3.4-1.7,5.2-2.1c1.2-0.4,2.2-1.2,2.8-2.4c0.8-1.5,0.7-2-0.8-3
		c-1-0.7-2.1-1.4-3.1-2.1c-1.6-1.2-3.6-1.7-5.6-1.7c-1.9,0.1-3.8-0.2-5.5-0.9c-1.1-0.4-2.2-0.6-3.3-0.7c-2.3-0.2-2.4-0.3-2.7-3.1
		c2.9,0.1,5.8,0,8.6,0.2c7.1,0.6,14.2,1.2,21.3,1.9c6.1,0.5,12.2,1.1,18.3,1.7c2.7,0.3,5.5,0.6,8.2,0.8c0.1,0.9-0.6,1.1-1.1,1.4
		c-2.4,1.2-4.6,2.5-7,3.6c-3.5,1.6-6.9,3.4-10.2,5.6c-4.2,2.7-9.1,4.3-14.1,4.6c-4.4,0.4-8.8,0.2-13.1-0.6
		C227.1,852.9,224.7,853.3,222.6,852.5z"/>
	<path class="st14" d="M147.1,923.7c-2.1,0.3-4.3-0.6-6.6-1.4c-1.3-0.4-1.9-1.8-1.5-3.1c0.1-0.5,0.4-0.8,0.8-1.1
		c0.7-0.5,1.5-0.9,2.3-1.2c5.7-2.6,11.7-4.5,17.9-5.7c9.6-2,19.1-4,28.7-6c1.5-0.3,2.9-0.8,4.3-1.2c0.6-0.3,1.3-0.1,1.7,0.3
		c0.4,0.5,0.6,1.2,0.3,1.8c-0.7,2-2.3,3.6-4.4,4.3c-0.4,0.1-0.7,0.1-1.1,0.2c-6.2,1-12.2,2.9-17.9,5.6c-3.3,1.5-6.6,3-10,4.4
		C157.1,922.6,152.1,923.7,147.1,923.7z"/>
	<path class="st15" d="M155.1,868.2c0.8-0.7,0.7-1.6,0.7-2.4c0-2.6,0.1-5.3,0.1-7.9c-0.1-3.9,2.4-6,5.9-5.4
		c4.4,0.8,8.7,0.4,13.1,0.7c4.1,0.3,8.1,1,12.2,1.6c0.4,0.1,0.7,0.3,0.9,0.6c0.6,1.5,0.3,3.3-0.9,4.5c-0.9,0.8-2.1,1.4-3.3,1.6
		c-2.4,0.5-4.9,1-7.3,1.4c-2.1,0.3-4.2,0.5-6.3,0.8c-2.5,0.3-4.3,1.9-6.1,3.5c-3.1,2.6-5.5,5.8-7.2,9.5c-0.3,1.1-0.9,2.1-1.7,2.8
		C154.3,875.7,154.7,871.9,155.1,868.2z"/>
	<path class="st16" d="M306.3,870.6c-0.9,4-2.8,7.7-5.6,10.7c-9.1,9.6-19.2,18-30.3,25.1l-0.3,0.2c-5.3,3.6-11.8,5.2-18.2,4.3
		c-7-0.8-13.9-1.4-20.9-2.2c-1.6-0.2-3.1-0.5-5.2-0.8c2.3-2.2,5.3-3.5,8.5-3.7c2.9-0.3,5.8-0.2,8.6,0.4c2.7,0.5,5.4,1,8.1,1.4
		c7.3,1.2,14.7-0.4,20.8-4.5c2.2-1.5,4.2-3.1,6.1-4.9c9-8.4,18.3-16.4,26.9-25.1C305.3,871.2,305.8,870.9,306.3,870.6z"/>
	<path class="st14" d="M251.5,888.6c0.9,0.3,0.8,1,1.1,1.6c0.4,0.7,1,1.2,1.7,1.4c7.7,2.1,15.3,2.4,22.8-1.3c2.7-1.4,5.2-3,7.6-4.8
		c0.8-0.6,1.4-1.4,2.5-1.3c0.4,0.7-0.2,0.9-0.5,1.2c-2.6,2.3-5.2,4.7-7.9,7c-3.1,2.6-6.4,4.9-9.3,7.6c-3.7,3.6-8.8,5.1-13.9,4.2
		c-5-0.8-10-1.2-15-1.5c-0.7,0-1.5-0.1-2.2-0.2c-0.3-0.1-0.5-0.3-0.4-0.6c0-0.1,0.1-0.2,0.1-0.2c0.7-0.8,1.5-1.6,2.4-2.4
		c2.3-2,4.6-3.9,5.7-6.8c0.5-0.9,1.2-1.6,2.1-2.1C249.4,889.7,250.4,889.1,251.5,888.6z"/>
	<path class="st14" d="M242.1,894.7c-1,1.7-2.4,3.1-4,4.2c-2.3,1.6-4.6,3-7,4.4c-2.1,1.2-4.4,2-6.7,2.4c-6.5,1.2-13.1,2.3-19.6,3.5
		c-1.9,0.3-3.7,0.4-5.6,0.3c-3.9,0-4.3-0.7-2.5-4.2c0.9-1.7,2.6-2.8,4.5-3.1c2.1-0.4,4.2-0.7,6.3-1.2c6.7-1.5,13.4-3.1,20.2-4.5
		c4.3-0.9,8.6-1.4,13-2.1C241.1,894.1,241.7,894.3,242.1,894.7z"/>
	<path class="st17" d="M256.1,877c0.1-0.2,0.2-0.5,0.4-0.6c4.6-3,9.3-6,13.9-9c0.8-0.6,1.8-0.9,2.8-0.8c4.1,0.7,8.2,1.3,12.2,2.1
		c0.4,0.1,0.7,0.3,0.8,0.7c0,0.4-0.1,0.7-0.4,1c-0.3,0.3-0.6,0.5-0.9,0.7c-3.6,2.2-7.3,4.4-10.9,6.7c-1.6,1-3.5,1.5-5.4,1.3
		c-4-0.5-8-1-11.9-1.6C256.5,877.4,256.3,877.1,256.1,877z"/>
	<path class="st18" d="M137.9,893.7c18.8,4.2,37.9,5.3,57,6.9c0,1.2-1,1.1-1.6,1.3c-6,2-12.3,2.5-18.5,1.4
		c-8.2-1.2-16.4-2.4-24.5-3.5c-4.2-0.6-8.1-1.5-11.4-4.3c-0.4-0.3-0.7-0.7-0.9-1.1C137.9,894.1,137.9,893.9,137.9,893.7z"/>
	<path class="st19" d="M271.2,885.7v0.4c0,4.7-0.2,5-4.8,4.7c-3.1-0.2-6.2-0.8-9.3-0.7c-1.8,0-2.7-0.9-3.1-2.7
		c-0.5-2.3,0-4.5,0.4-6.7c0.1-0.6,0.7-1.1,1.3-1.1c1.2,0,2.5,0,3.7,0.1c2.6,0.2,5.2,0.5,7.8,0.8c0.7,0.1,1.5,0.2,2.2,0.4
		c0.9,0.2,1.5,1,1.6,1.9C271.3,883.7,271.2,884.7,271.2,885.7L271.2,885.7z"/>
	<path class="st16" d="M288.9,883.2c-0.4-3.2,0.3-6.3,0.4-9.4c0-1.2,0.9-2.2,2.1-2.3c2.5-0.5,4.5-2.1,6.7-3.2
		c1.6-0.6,2.5-2.2,2.3-3.9c0-0.5,0-1,0.1-1.5c0.1-0.9,0.8-1.5,1.7-1.4c0,0,0,0,0,0h0.2c1.6,0.4,3.1,0.8,4.7,1.4
		c1,0.3,1.4,1.4,1.1,2.4c-0.1,0.2-0.1,0.3-0.2,0.4c-0.2,0.4-0.5,0.9-0.8,1.2c-0.5,0.7-1.1,1.4-1.7,2c-4.3,4-8.6,8-13,12
		C291.3,881.9,290.2,882.6,288.9,883.2z"/>
	<path class="st19" d="M290.6,869.4c-1.9-1.9-4.5-2.8-7.1-2.7c-1.6,0-3.3-0.2-4.8-0.9c-1.1-0.4-1.8-1.4-1.9-2.6c0-1.9,0-3.8,0.1-5.6
		c-0.1-1,0.7-1.9,1.8-2c0,0,0,0,0.1,0h0.1c0.4,0,0.7,0,1.1,0l9,0.5c0.8,0,1.4,0.6,1.5,1.3l0,0c0.1,1.5,0.3,3,0.3,4.5
		C290.8,864.4,290.7,866.9,290.6,869.4z"/>
	<path class="st20" d="M273.6,890.5c-0.3-1.8-0.5-2.7-0.7-3.7c-0.8-2.9,0.4-6,2.8-7.7c3.3-2.4,6.8-4.6,10.3-6.9
		c0.8-0.5,1.5,0,1.6,0.9c0.3,5.4-1.8,9.5-6.2,12.6C279,887.2,276.3,888.2,273.6,890.5z"/>
	<path class="st21" d="M298.8,854.2v8.2c0,3.5-1.5,5.1-5.4,5.8c-0.7-0.4-0.5-1.1-0.5-1.6c0-2.7,0-5.5,0-8.2
		c-0.2-1.8,1.1-3.5,2.9-3.8C296.6,854.4,297.4,853.8,298.8,854.2z"/>
	<path class="st22" d="M278.6,853.1c1.5-1.7,3.9-3.6,5.1-3.9c0.6-0.1,1.2-0.1,1.8-0.1c3.8,0.3,7.6,0.7,11.4,1.1
		c0.2,1-0.5,1.1-0.9,1.5c-3.1,2.3-6.4,3.5-10.4,2.3C283.3,853.5,280.9,853.2,278.6,853.1z"/>
	<path class="st23" d="M158.8,848.6c5.1,0.3,10.2,0.6,15.3,0.9c0.7,0.1,1.5,0.3,2.2,0.5c-1.1,0.3-2.2,0.3-3.4,0.2
		c-0.8,0-1.5-0.1-2.1,0.6c-1.8,0.1-3.7,0-5.5-0.2c-3.2-0.3-6.4-0.8-9.5-0.3c0.2-0.6,0.8-1,1.4-0.9
		C157.8,849.4,158.4,849.1,158.8,848.6z"/>
	<path class="st23" d="M180.6,850.2c2.6-0.3,5.2-0.1,7.7,0.6c-2.3,0.3-4.6,0.3-6.8,0C181.2,850.7,180.9,850.4,180.6,850.2z"/>
	<path class="st23" d="M188.9,852.3c-1.8,0.3-3.7,0.1-5.5-0.5C185.3,851.5,187.2,851.2,188.9,852.3z"/>
	<path class="st23" d="M179.9,851.6c-1.8,0.3-3.7,0.1-5.5-0.5C176.2,850.8,178.1,850.4,179.9,851.6z"/>
	<path class="st24" d="M237.7,491.4l1.7-0.2h0.5c2.4,0.5,4.4,2.1,6.7,2.8c1.3,0.5,2.5,1.2,3.6,2.1c4.3,3.1,8.4,6.3,11.6,10.5
		c0.2,0.2,0.5,0.4,0.7,0.7c0.2,0.2,0.5,0.4,0.7,0.6c0.6,0.4,1.3,0.7,2,0.9c4.2,5.2,7.2,11.1,9,17.5c0.1,0.5,0.3,1,0.5,1.4
		c0.2,0.3,0.6,0.4,0.9,0.4c0.2,0,0.4-0.2,0.5-0.4c0.5-1,0.6-2.2,1.4-3c0.9,1,0.1,2.2,0.4,3.2c0.1,0.2,0.3,0.4,0.5,0.4
		c0.2,0,0.4-0.1,0.6-0.3c1.1-3.5,2-7,1.6-10.7c0-0.5-0.2-1-0.8-1.1c-0.6-0.1-0.7,0.5-1,0.9c-0.4,0.8-0.6,1.6-0.6,2.5
		c0,1.1-0.2,2.1-0.4,3.1c-0.1-2.8-1.1-5.4-1.5-8.1c0.2-2-0.5-3.9-1.1-5.8c-0.8-2.9,0.2-4.6,3.2-5c3.1-0.5,6.3-0.3,9.3,0.5
		c2.1,0.8,4.2,1.5,6.5,0.9c1.6-0.5,2.4,0.8,3.3,2c1.3,1.8,2.4,3.9,5.1,3.8c1.8,4.1,2.4,8.6,1.6,13c-0.1,0.2-0.1,0.5-0.1,0.7
		c0,0.2,0.2,0.3,0.4,0.5c0.2-0.2,0.4-0.3,0.5-0.5c0.7-1,0.4-2.2,0.4-3.2c0-3.2,0.2-6.5,1.8-9.4c0.9,0.3,1,1,1,1.8
		c0.1-2.1,0.6-4.2,1.6-6.2c0.4-0.8,0.9-1.6,1.9-1.6s1.1,0.9,1.4,1.5c1.1,2.9,3.7,5.1,3.4,8.5c0.7,1.2,1.1,2.5,0.9,3.9
		c0,0.2,0,0.5,0,0.8c0.9,7.8-2.6,13.9-7.5,19.4c-1,1.1-2.1,2.2-3.2,3.2c-7.5,6.4-15.7,12-24.4,16.7c-0.2,0.1-0.5,0.2-0.7,0.3
		c-0.3,0.2-0.7,0.1-1-0.2c-0.3-0.3-0.3-0.7-0.2-1c1-2.4,1.7-5,2-7.6c0-0.5,0-0.9,0-1.4c-0.3,0.4-0.5,0.7-0.8,1.1
		c-0.2,0.5-0.3,1-0.5,1.4c-0.9,2.6-1.8,5.2-2.7,7.8c-0.3,1.1-1.1,2-2.1,2.5c-0.2,0.1-0.5,0.1-0.7,0.1c-0.2-0.2-0.3-0.4-0.3-0.6
		c0.5-2.2,0.9-4.5,2.4-6.3c2.4-2.6,2.5-5.6,1.8-8.8c-0.9,0-1,0.7-1.2,1.3c-1.3,3.7-2.6,7.3-3.9,11c-0.2,0.7-0.5,1.4-0.8,2.1
		c-0.8,2.1-2.4,3.8-4.5,4.7c-5.5,2.3-11.2,4.3-17,6c-0.9,0.2-1.7,0.4-2.6,0.5c-0.4,0.1-0.9-0.7-0.7-1.1c0.4-0.6,0.9-1.2,1.2-1.9
		c1.3-2.4,2.4-4.9,1.4-8.6c-0.5,3-1.4,5.8-2.8,8.5c-1.1,2.4-3.4,4.2-6,4.7c-2.3,0.5-4.7,0.9-7.1,1.1c-2.9,0.2-5.8,0.5-8.6,0.5
		c-7.1,0.2-14.3-0.4-21.2-2.1c-0.3-0.1-0.5-0.2-0.5-0.5c0-0.2,0.1-0.5,0.2-0.6c1-0.8,2.1-1.4,3.3-1.8c1.3-0.4,2.6-1,3.9-1.6
		c1.3-0.7,2.4-1.9,3.1-3.2c0.4-0.9,1.1-1.7,0.5-3c-1,1.4-2,2.8-3,4.1c-0.7-0.3-0.4-1-0.9-1.5c-0.8,0.7-1.5,1.4-2.3,2.1
		c-1.5,1.5-3.3,2.7-5.3,3.5c-2.3,1-5,1-7.4,0.2c-3.7-1.3-7.2-3-10.5-5c-4.5-2.8-8.2-6.7-10.8-11.4c-1-1.7-1.6-3.7-1.7-5.7
		c0-2.6-0.3-5.3-0.2-7.9c0.1-5.1,2.1-9.9,5.6-13.6c1.2-1.3,2.2-2.7,3.1-4.2c2-3.3,4.1-6.6,6.1-10c1.4-2.2,3.2-4.2,5.2-5.9
		c1.2-1.2,2.8-1.8,4.4-1.7c0.4,0.1,0.8,0,1.1,0c5.7-1.8,11.1-0.1,16.6,1.4c0.6,0.1,1.2,0.3,1.8,0.4c0.1,0,0.2-0.1,0.3-0.1
		c-1.2-1.4-1.2-1.4-4.9-2.4c-1.8-0.5-3.6-0.8-5.5-1c-2-0.2-3.9-0.3-5.9-0.4c0-0.3,0-0.5,0-0.5c3.1-2.1,5.9-4.6,8.4-7.5
		c1.5-1.7,3.3-3.1,5.4-3.9c5.2,4.1,11.4,3.4,17.4,3.4C237.3,496.1,236.4,492.9,237.7,491.4z"/>
	<path class="st10" d="M302.9,511.1c-0.2,0.3-0.4,0.6-0.6,0.9c-0.5,0.5-1.2,0.8-1.6,0.2c-1.5-1.9-4.1-3-4.4-5.8
		c-0.1-0.4-0.6-0.7-1.1-0.5c0,0,0,0,0,0c-0.1,0-0.1,0-0.2,0.1c-2.4,1.4-4.5,0.9-6.7-0.4c-1.4-0.8-3.1-1.1-4.7-1h-4.9
		c-0.9-0.1-1.7,0.3-2.3,1c-0.6,0.7-1,1.4-0.5,2.4c0.9,1.6,1.3,3.6,1,5.4c-0.1,0.5-0.3,0.9-0.5,1.4c-2.6-7.5-7-14.3-12.9-19.6
		c-5.8-5.3-13.1-8.6-20.9-9.3c-1-0.1-2-0.2-3-0.4c-0.4-0.1-0.7-0.3-1-0.5c0.2-1,1.1-1,1.7-1.2c9.6-4,19.3-3.8,29-0.6
		c2.1,0.7,4.2,1.6,6.3,2.5c1,0.4,2.1,0.8,3.1,1.2c8.9,3.3,16.4,9.5,21.3,17.6C301.5,506.5,302.4,508.8,302.9,511.1z"/>
	<path class="st20" d="M239.4,487.8c1.7-0.7,3.5-0.7,5.2-0.2c12.3,3.3,21.8,10.3,28,21.6c1.3,2.8,2.4,5.8,3.3,8.8
		c0.5,1.6-0.1,3.1-0.7,5c-1.8-3.2-2.9-6.5-4.7-9.3c-1.8-2.9-3.7-5.7-5.7-8.4c-2.2-2.8-4.6-5.3-7.3-7.6c-2.6-2.2-5.4-4.1-8.3-5.8
		C246.2,490.4,243,489.4,239.4,487.8z"/>
	<path class="st25" d="M316.8,516.3c-0.6-1.9-1.2-3.7-2.8-5c-1.2-1-1.2-2.6-1.6-4.1c-0.1-0.2-0.2-0.4-0.4-0.5
		c-0.3,0.1-0.8,0.3-0.8,0.6c-0.6,2.3-1.8,4.3-1.8,6.8c0,0.6-0.3,1.1-0.9,1.4c-0.8-0.9,0.1-2.4-1-3.1c-0.1-1.5-0.2-2.9-0.3-4.4
		c0-1.4-0.3-2.7-0.9-3.9c-2.4-2.4-3.6-5.7-6-8.1c-2-2.1-4.2-3.9-6.6-5.5c-1-0.7-2.7-1.1-2.4-2.9c0.6,0,1.2,0,1.8,0.1
		c11.2,3.8,19,11.2,22.8,22.5C316.7,512,317,514.2,316.8,516.3z"/>
	<path class="st26" d="M237.7,491.4c0,1.1,0.1,2.2,0,3.4c-0.1,1.7-0.8,2.5-2.6,2.5c-3.7,0.1-7.5,0-11.2-0.4
		c-0.6-0.1-1.2-0.2-1.8-0.2c-3,0.2-4.7-1.3-5.6-3.9c2.5-2.3,5.8-3.4,9.1-3.2C229.7,489.8,233.8,490,237.7,491.4z"/>
	<path class="st5" d="M305.6,505.6c0.1,1.4,0.2,2.8,0.3,4.1c0,0.5-0.1,1-0.2,1.5c-1.2-0.2-1.1-1.3-1.4-2c-2.1-5.5-5.4-10.5-9.7-14.6
		c-2-1.9-4.2-3.6-6.6-5c-1-0.4-1.8-1-2.5-1.8c1.3-0.6,2.4,0.5,3.5,0.4C296.7,489.9,304.5,498.3,305.6,505.6z"/>
	<path class="st27" d="M265.1,508.8c-0.8,0.6-2,0.5-2.6-0.2c-0.1-0.3-0.4-0.6-0.6-0.8l0.1,0.1c-3.2-4.7-7.1-8.6-12.3-11
		c-1.2-0.6-2-1.8-3.4-2c-2-1.7-4.5-2.5-6.9-3.5l0.1,0.1c-0.6-1.2-1.9-0.9-2.9-1.4c-1.4-0.5-2.8-0.9-4.2-1.3c0.3-0.6,0.6-0.7,1-0.7
		c2.1,0.1,4.2,0.6,6.2,1.3c8.1,3.1,15.4,7.5,21.4,13.9C262.6,504.8,264,506.7,265.1,508.8z"/>
	<path class="st28" d="M305.6,505.6c-0.3-0.4-0.5-0.8-0.7-1.3c-2-6.1-6.1-10.5-11.6-13.7c-1.4-0.8-2.8-1.6-4.2-2.4l2.4-0.7
		c0.6,1.2,2,1.5,3,2.1c5.3,3.2,9.4,8,11.9,13.7c0.1,0.2,0.1,0.5,0.1,0.7C305.7,504.4,305.8,505.1,305.6,505.6z"/>
	<path class="st29" d="M283.3,1070.6c2,2.6,4.5,2.9,7.4,1.6c1.2-0.1,2.4-0.1,3.6-0.2c0.9-0.1,1.6-0.4,1.7-1.6c0-0.3,0.1-0.7,0.5-0.9
		c1.5-0.4,2.4-1.8,3.7-2.6s2.4-0.6,3.1,0.8c2.4,4,3,9,1.5,13.4c-0.8,2.2-1.6,4.5-2.5,6.7c-0.4,0.9-0.9,1.8-1.4,2.6
		c-0.8,1.3-2.2,2.1-3.7,2.4c-2.7,0.3-5.5,0.6-8.1-0.8c-1.6-1.1-0.8-2.4-0.4-3.7s1.2-2.2,0.8-3.7c-5.1,13.1-15,22.5-24.1,31.8
		c7.8-6.5,14.7-13.9,20.5-22.1c0.5-0.7,0.9-1.6,2.1-1.2c1.8,1.3,3.9,1.5,6.1,1.7c1.1,0.1,2.2-0.3,3.3,0.5c-0.1,0.4-0.3,0.7-0.5,1
		c-11.9,12.8-24.7,24.6-39.6,34c-9.4,6-19.5,10.8-30.1,14.3c-0.9,0.3-1.9,0.6-2.9,0.9c-0.7,0.2-1.6,0.5-2.1-0.2
		c-0.5-0.7,0-1.6,0.4-2.3c5-8,9.3-16.4,12.9-25.1c0.8-2,1.4-4,2.2-6c0.1-0.3,0.3-0.6,0.6-0.8c0.4-0.1,0.7,0.2,0.8,0.6
		c0.4,1.2,1.1,2.3,1.9,3.2c0.3,0.3,0.7,0.7,1.4,0.3c-0.8-1.5-1.6-3-2.4-4.4c-0.5-0.7-0.7-1.6-0.6-2.5c0.5-4.4,1.8-8.7,3.7-12.7
		c1.2,0.9,1.7,2.4,3.2,2.8c0.4-1-0.4-1.6-0.9-2.2c-1.1-1.8-1.6-4-1.4-6.1c0.3-5.4,1.5-10.7,3.5-15.7c2.6-6,6.1-11.6,10.2-16.6
		c0.3-0.2,0.5-0.5,0.9-0.6c1,0.5,0.9,1.5,1,2.3c0,0.8,0.3,1.5,0.7,2.1c0.1,0.1,0.2,0.1,0.4,0.1c0.1,0,0.2-0.1,0.3-0.1
		c0.1-0.6,0.1-1.2,0.2-1.9c0.3-4.1,1.2-5.1,5.3-6c3.9-0.8,7.7-0.7,11.6-0.8c0.9-0.2,1.8,0.5,2,1.4c0,0.3,0,0.5,0,0.8
		c-0.3,2.1-0.8,4.2-1.1,6.3c-0.1,0.7-0.3,1.5-0.4,2.2c-0.2,1,0.4,2,1.3,2.5c1.2,0.7,1.2,1.9,1.5,3.1
		C281.5,1070.1,282.3,1070.7,283.3,1070.6z"/>
	<path class="st20" d="M281,1069.3c-1.6-0.5-1-2.1-1.5-3.1c0-2,0.3-4,1-5.9c1.2-3.3,1.8-6.8,1.7-10.3c0.1-3.1-0.1-6.3-0.6-9.3
		c-0.2-2.1-0.3-4.2-0.3-6.4c-0.1-1.1,0.8-2,1.9-2.1c0.3,0,0.6,0,0.9,0.2c0.5,0.2,0.9,0.5,1.2,0.8c0.5,0.6,0.5,1.5-0.1,2c0,0,0,0,0,0
		c-0.1,0.1-0.2,0.1-0.3,0.2c-0.5,0.3-1.3,0-1.6,0.8c0,0.1,0.1,0.2,0.1,0.2c3.8,0.3,4.2,0.7,4.3,4.5c0.1,5.4,0.4,10.8-0.5,16.1
		c-0.2,1.4-0.5,2.7-0.8,4C285.8,1064.4,283.8,1067.3,281,1069.3z"/>
	<path class="st30" d="M287.9,1093.3c-0.7,0.9-1.4,1.8-2,2.7c-5.1,7.5-11.5,13.8-18.3,19.8c-1.2,1.2-2.7,2.2-4.4,2.6
		c-0.1-0.9,0.5-1.2,0.8-1.6c3.7-3.9,7.4-7.8,11.2-11.6c2.4-2.4,4.5-5,6.3-7.9c2.3-3.6,4.3-7.3,6.1-11.1c0.3-0.8,0.5-1.7,0.8-2.5
		c0.2-0.5,0.6-0.8,1.1-0.8c0.5,0.1,0.9,0.4,1.2,0.8c0.4,0.7,0.4,1.5,0.1,2.2c-0.3,0.9-0.8,1.8-1.2,2.7c-0.6,1.1-0.8,2.4-0.5,3.6
		C288.5,1092.4,287.9,1092.6,287.9,1093.3z"/>
	<path class="st31" d="M296.4,1069.7l-0.5,0.9l-2.9,0.6c-0.9,0.3-1.8,0.2-2.6-0.2c0.6-2.3,1.9-4.4,3.8-5.8c2.9-2.6,5.5-5.5,7.9-8.5
		c2.9-3.1,5.4-6.6,7.4-10.3c0.3-0.7,0.9-1.3,1.7-1.3c0.5,0,1,0.1,1.4,0.3c0.4,0.3,0.5,0.9,0.2,1.3c-1,1.9-2.1,3.7-3.3,5.5
		c-3.6,5.1-7.5,10-11.6,14.7C297.2,1067.6,296.2,1068.3,296.4,1069.7z"/>
	<path class="st32" d="M314.8,1042.7c0,0.6-0.5,1.2-1.1,1.3c-1,0.2-2-0.4-2.3-1.4c0-0.8,0.5-1.4,1.3-1.5
		C313.8,1040.9,314.7,1041.7,314.8,1042.7z"/>
	<path class="st33" d="M161.4,364.9c-0.9,0.1-1.5,0.2-2.1,0.2c-0.6,0-1.1,0-1.3-0.4c-0.4-0.8,0.3-1.1,0.8-1.4
		c2.1-1.4,4.3-2.6,6.9-2.4c1.2,0.1,1.7,1,1,2.1c-0.9,1.3-1.8,2.4-3.7,1.9C162.5,364.8,161.9,364.8,161.4,364.9z"/>
	<path class="st34" d="M250.8,535c-0.8,2.2-1.3,4.6-1.4,7c-0.1,1.2-0.2,2.4-0.5,3.6c-0.5-2.2-1.3-4.3-1.2-6.6c0-1.8-0.4-3.5-1.2-5.1
		c-3.5-9.3-10.1-17.2-18.6-22.5c-2.5-1.5-5-2.9-7.5-4.4c-2.4-1.2-4.9-1.9-7.5-2.2c-1.7-0.3-3.4-0.6-5.2-1c-0.3-0.1-0.6-0.4-0.7-0.8
		c-0.1-0.4,0.1-0.7,0.5-0.8c1.7-0.7,3.6-1.2,5.5-1.2c6.2-0.3,12.3,1.1,17.8,3.8l2.4,1.2c0.1,0,0.2,0,0.5,0c0-0.7-0.5-1.4-1.1-1.6
		c-3.6-2-7.6-3.4-11.7-4c-1.1-0.1-2.3-0.1-3.1-1c0.6-0.6,1.4-0.2,2.1-0.2s1.5,0.2,2.2,0.3s1.7,0.3,2.6,0.5
		c5.5,1.4,10.5,4.3,14.6,8.2c1,0.9,2,1.9,2.9,2.9c0.7,0.9,2.4,1.4,1.3,3.1c0,0.2,0.1,0.5,0.3,0.6c1.6,0.7,1.6,2.8,3.1,3.6
		c2.8,3.7,4.4,8.2,4.7,12.8C251.7,532.4,251.9,533.8,250.8,535z"/>
	<path class="st35" d="M196.4,525.9c-1.2-1.6-3.1-1.8-4.9-2.3c-1.1-0.3-2.2-0.4-3.3-0.6c-0.4-0.1-0.8-0.3-0.7-0.6
		c0.1-0.3,0.4-0.6,0.7-0.8c1.8-0.9,3.8-1.3,5.8-1.2c10.5,0.8,17.8,6.1,22,15.6c1.3,3.1,1.8,6.6,1.3,9.9c0,0.4-0.2,0.7-0.6,0.9
		c-0.3,0.2-0.7,0-0.9-0.4c-0.5-0.8-1.1-1.7-1.6-2.5c-0.5,0.1-0.5,0.5-0.5,0.8s-0.1,0.7-0.2,1.3c-1.1-1.4-1.4-3-2-4.4
		c-1.6-4.2-4-8.1-7.2-11.3c-1.7-1.6-3.7-3-5.9-4c-0.6-0.4-1.4-0.6-2.1-0.5H196.4z"/>
	<path class="st36" d="M250.8,535c0.3-4.6-0.7-9.2-2.8-13.3c-0.5-1.1-1.4-2.1-1-3.5l-0.1,0c3.1,0.8,3.2,3.8,4.2,6
		c1.6,3.5,2,7.5,1.2,11.3C251.6,535.7,251.3,535.2,250.8,535z"/>
	<path class="st37" d="M252.2,535.6c-0.2-2.5-0.4-5-0.8-7.4c-0.4-3.4-1.7-6.5-3.7-9.3c-0.3-0.2-0.6-0.4-0.9-0.6
		c0.5-0.8,1.2-1,1.7-0.2c3,4.9,5.5,10,4.5,16C252.9,534.6,252.9,535.3,252.2,535.6z"/>
	<path class="st38" d="M249.7,496.7c5.7,1.4,10.3,5.5,12.3,11c-0.9,0-1.3-0.6-1.8-1.2c-1.1-1.3-2.2-2.6-3.4-3.9
		c-1.5-1.7-3-3.3-5.3-3.9C250.6,498.5,249.8,497.7,249.7,496.7z"/>
	<path class="st35" d="M217.9,551.8c-0.3-0.9-0.2-1.9,0.1-2.8c0.6-2.3,0.6-4.7,0.2-7.1c-0.1-0.7-0.1-1.5,0-2.2
		c0-0.1,0.1-0.3,0.2-0.3c0.2,0,0.5,0.1,0.6,0.2c1.3,3.8,1.1,8-0.4,11.7C218.4,551.5,218.1,551.6,217.9,551.8z"/>
	<path class="st39" d="M248.4,567.2c0.6-3.7,0.9-7.1,1.7-10.9C251.6,560.8,251,564.3,248.4,567.2z"/>
	<path class="st40" d="M196.3,525.8c0.2,0.9,1.6,0.9,1.3,2.2c-3.2-1.2-6.6-1.7-9.8-2.6C190.8,524.3,193.6,525.3,196.3,525.8
		L196.3,525.8z"/>
	<path class="st2" d="M239.3,491.1c2.8,0.3,5.3,1,6.9,3.5C243.8,493.8,241.5,492.6,239.3,491.1z"/>
	<path class="st38" d="M261.9,507.7c0.4,0.1,0.6,0.4,0.6,0.8C262.2,508.4,261.9,508.1,261.9,507.7z"/>
	<path class="st41" d="M262.1,1096.6c1.3-0.2,1.9,0.5,2.5,1.1c2.6,2.4,6.1,3.7,9.6,3.5c0.4,0,0.7,0.1,1.1,0.2
		c0.3,0.1,0.4,0.3,0.2,0.6c-0.1,0.1-0.1,0.2-0.1,0.3c-0.2,0.2-0.4,0.3-0.6,0.4c-2.5,0.4-5.1,0.1-7.3-1.1
		C265.2,1100.6,263.3,1098.8,262.1,1096.6z"/>
	<path class="st42" d="M258,1079.1c0.2,0.1,0.4,0.2,0.6,0.3c0.2,0.3,0.4,0.6,0.5,1c0.5,2.1,1.9,3.8,3.9,4.7c0.3,0.2,0.5,0.5,0.7,0.8
		c0.1,0.2,0,0.5-0.3,0.5c-3.2,0.2-6.8-3.9-6-6.9C257.5,1079.3,257.8,1079.2,258,1079.1z"/>
	<path class="st43" d="M288.4,1077.4c3.2,0.1,6.2,0,9.2-2.8c-1,2.8-2.5,3.8-4.2,4.2S289.9,1079.3,288.4,1077.4z"/>
	<path class="st44" d="M281.1,1072.4c-0.6,0.1-1,0.3-1.2,0.2c-2.6-1-3.5-3.3-4-5.7c-0.1-0.5,0.4-0.9,0.9-1c0.2,0,0.6,0.1,0.6,0.2
		C277.5,1068.7,279.2,1070.5,281.1,1072.4z"/>
	<path class="st45" d="M274.6,1068.1c-0.5-3.8-0.9-7.3,1.7-10.5c0.9,1.5-0.1,2.4-0.4,3.4c-0.3,1.2-0.5,2.4-0.5,3.7
		C275.4,1065.8,275.8,1066.9,274.6,1068.1z"/>
	<path class="st46" d="M213.9,503.3c2.4-1,5-1.2,7.4-0.4c8.1,2,15.4,6.4,21,12.6c4.3,4.7,7.1,10.3,7.1,17c0,0.5-0.1,1-0.2,1.5
		c0,0-0.2,0-0.5,0.1c-0.9-1.9-1.8-4-2.8-5.9c-1.1-2.1-2.4-4.2-3.8-6.1c-1.3-1.8-2.8-3.6-4.3-5.2c-1.6-1.8-3.4-3.3-5.4-4.7
		c-1.9-1.3-3.7-2.5-5.7-3.6c-2.1-1.1-4.3-2.1-6.5-3C218.1,504.7,216,504,213.9,503.3z"/>
	<path class="st47" d="M194,522.3c8.9-1,20.3,7.3,21,18.1C204.9,526.9,205.9,529.2,194,522.3z"/>
</g>
</svg>
