<?xml version="1.0" encoding="utf-8"?>
<!-- Generator: Adobe Illustrator 23.0.1, SVG Export Plug-In . SVG Version: 6.00 Build 0)  -->
<svg version="1.1" id="Livello_1" xmlns="http://www.w3.org/2000/svg" xmlns:xlink="http://www.w3.org/1999/xlink" x="0px" y="0px"
	 viewBox="0 0 1920 1243.3" style="enable-background:new 0 0 1920 1243.3;" xml:space="preserve">
<style type="text/css">
	.st0{fill:#030200;}
	.st1{fill:#F7443C;}
	.st2{fill:#030303;}
	.st3{fill:#020101;}
	.st4{fill:#030202;}
	.st5{fill:#090702;}
	.st6{fill:#040302;}
	.st7{fill:#0F0808;}
	.st8{fill:#F2E3CE;}
	.st9{fill:#F7E8D3;}
	.st10{fill:#DC6404;}
	.st11{fill:#926700;}
	.st12{fill:#F5AE00;}
	.st13{fill:#191918;}
	.st14{fill:#CF970F;}
	.st15{fill:#E85D06;}
	.st16{fill:#B85212;}
	.st17{fill:#353330;}
	.st18{fill:#171615;}
	.st19{fill:#EF6208;}
	.st20{fill:#EE5D02;}
	.st21{fill:#E4610E;}
	.st22{fill:#C67407;}
	.st23{fill:#D85502;}
	.st24{fill:#BE5614;}
	.st25{fill:#E25D0A;}
	.st26{fill:#DB9E09;}
	.st27{fill:#B7860C;}
	.st28{fill:#FAEAD4;}
	.st29{fill:#F2F2F0;}
	.st30{fill:#F6AE00;}
	.st31{fill:#F8B000;}
	.st32{fill:#F6AF00;}
	.st33{fill:#EAA600;}
	.st34{fill:#FBB200;}
	.st35{fill:#FAB100;}
	.st36{fill:#F7AF00;}
	.st37{fill:#F66001;}
	.st38{fill:#F8AF00;}
	.st39{fill:#F1AB00;}
	.st40{fill:#F3AC00;}
	.st41{fill:#F2AC00;}
	.st42{fill:#F9B100;}
	.st43{fill:#F4AD00;}
	.st44{fill:#EEDFCA;}
	.st45{fill:#F5AD00;}
	.st46{fill:#F0AA00;}
	.st47{fill:#ECA700;}
	.st48{fill:#F76101;}
	.st49{fill:#F45F01;}
	.st50{fill:#EFAA00;}
	.st51{fill:#F56001;}
	.st52{fill:#F25F01;}
	.st53{fill:#E9A501;}
	.st54{fill:#F15E01;}
	.st55{fill:#EB5C02;}
	.st56{fill:#F35F01;}
	.st57{fill:#EEA900;}
	.st58{fill:#EDA800;}
	.st59{fill:#DB9B00;}
	.st60{fill:#E3A100;}
	.st61{fill:#F05E01;}
	.st62{fill:#E5D6C2;}
	.st63{fill:#EC5C01;}
	.st64{fill:#EBA700;}
	.st65{fill:#E9A500;}
	.st66{fill:#E8A400;}
	.st67{fill:#EFA900;}
	.st68{fill:#E55A02;}
	.st69{fill:#E65A02;}
	.st70{fill:#EF5D01;}
	.st71{fill:#D95602;}
	.st72{fill:#444340;}
	.st73{fill:#E6A300;}
	.st74{fill:#EA5C02;}
	.st75{fill:#E95B02;}
	.st76{fill:#D29500;}
	.st77{fill:#DC9C01;}
	.st78{fill:#E85B02;}
	.st79{fill:#CB5002;}
	.st80{fill:#DB5602;}
	.st81{fill:#D95502;}
	.st82{fill:#D39501;}
	.st83{fill:#E2A000;}
	.st84{fill:#C64E03;}
	.st85{fill:#D39601;}
	.st86{fill:#F7E9D2;}
	.st87{fill:#F7E7E3;}
	.st88{fill:#FCECD6;}
	.st89{fill:#FFFFFF;}
	.st90{fill:#ACB6BC;}
	.st91{fill:#FBECD6;}
	.st92{fill:#ABB5BB;}
	.st93{fill:#FFFFFE;}
	.st94{fill:#ABB4BA;}
	.st95{fill:#FEFEFE;}
	.st96{fill:#A9B3B9;}
	.st97{fill:#FBEBD5;}
	.st98{fill:#F9E9D3;}
	.st99{fill:#F3E3CE;}
	.st100{fill:#F8F8F8;}
	.st101{fill:#32302E;}
	.st102{fill:#F6443C;}
	.st103{fill:#F5443C;}
	.st104{fill:#FEB400;}
	.st105{fill:#F8E8D1;}
	.st106{fill:#FBEBD4;}
	.st107{fill:#D8C9B4;}
	.st108{fill:#322F2B;}
	.st109{fill:#FDFDFD;}
	.st110{fill:#C38A00;}
	.st111{fill:#DC9C00;}
	.st112{fill:#FE6301;}
	.st113{fill:#FEF9F5;}
	.st114{fill:#F6E7D1;}
	.st115{fill:#BFB3A3;}
	.st116{fill:#F0423A;}
	.st117{fill:#F74840;}
	.st118{fill:#F7463E;}
	.st119{fill:#F74941;}
	.st120{fill:#F74D45;}
	.st121{fill:#151107;}
	.st122{fill:#140F06;}
	.st123{fill:#A97903;}
	.st124{fill:#261B02;}
	.st125{fill:#302611;}
	.st126{fill:#2C2002;}
	.st127{fill:#2B1F02;}
	.st128{fill:#141108;}
	.st129{fill:#1F1A0D;}
	.st130{fill:#19150C;}
	.st131{fill:#1D180A;}
	.st132{fill:#2F2714;}
	.st133{fill:#2E240B;}
	.st134{fill:#312914;}
	.st135{fill:#41361B;}
	.st136{fill:#35290A;}
	.st137{fill:#221B0B;}
	.st138{fill:#372B0F;}
	.st139{fill:#D0C8B4;}
	.st140{fill:#2C220B;}
	.st141{fill:#240E02;}
	.st142{fill:#240F02;}
	.st143{fill:#592403;}
	.st144{fill:#371602;}
	.st145{fill:#250F02;}
	.st146{fill:#F8E8D3;}
	.st147{fill:#FCFCFC;}
	.st148{fill:#F9F9F9;}
	.st149{fill:#D8DDDA;}
	.st150{fill:#F3F3F3;}
	.st151{fill:#F5F6F5;}
	.st152{fill:#F2F2EE;}
	.st153{fill:#CFCDCA;}
	.st154{fill:#F0F0F0;}
</style>
<title>createimg-ipadpro</title>
<g>
	<path class="st0" d="M565.7,442.5l-5.6-0.2c-0.4-0.8,0.1-1.8-0.7-2.4c-0.5,1,0.6,1.6,0.5,2.5c-5.1,1-10.1,0.5-15.2,0
		c-1.2-0.2-2.4-0.6-3.6-1c-1.4-1.3-0.3-2.1,0.5-3.1c0.5-0.6,0.9-1.2,0.6-2c-0.1-0.4-0.5-0.6-0.9-0.5c-0.7,0.1-1.1,0.8-1,1.5
		c0,0.1,0,0.1,0.1,0.2c0.4,1.7-1.6,2.4-1.4,4h-3.3c-0.5-0.4-1.2,0-1.8-0.3l-4-0.7h-1.5c-1.2,0.3-2.5,0.4-3.7,0.1
		c1.2-1.3,3-1.9,2-4.5c-0.6-1.4,1.6-1.7,3-1c0.7,0.3,1.6,0.6,1.8-0.4c0.2-1.2-0.8-1.4-1.7-1.2c-2.7,0.7-4-0.3-4-3.1
		c1-1.1,2-2.1,3.7-1.6c0.4,0.3,0.8,0.6,1.3,0.8c0.8,0.2,1.5,0.4,1.9-0.5c0.2-0.3,0.2-0.7,0-1c-0.9-0.8-1.3,0.1-1.8,0.5
		s-0.8,0.6-1.3,0.3c-1.3-0.9-0.8-3.9-2.7-3.3s-1,2.9-0.9,4.5c0,0.1-0.1,0.2-0.1,0.3c-1.9,1.5-2.6,3.3-1.1,5.5c1,1.6,0.3,3.1,0,4.7
		c-1.8-1-4.1-1-5.9,0.1c-1.3-0.6,1.1-2.3-0.9-2.9s-3.5,0.4-4.9,1.6c-1.9,0.1-3.8,0.1-5.6-0.2c0.5-1.3,2.1-1.2,2.9-2.2
		c-3.1-0.9-3.2-0.9-3.5,2.2l-10.8-1.5l-0.2-0.1c-4.2-0.6-8.4-1.1-12.6-1.8c-0.7-0.1-1.5-0.3-2.2-0.5c0.9-1.6,2.7-1.5,4.2-2.7
		c-3-1.3-5.4-1-7.2,1.8c-2.2-0.2-4.5-0.2-6.8-0.2c-2.4,0.1-4-1.9-6.3-2.3c-2.1-0.4-4.1-1-6.2-1.3c-8.4-1.5-16.7-3.4-24.9-5.7
		c-3.5-1-6.8-2.4-10-4.2c-4-2.1-8.2-3.8-12.5-5c-3.2-0.9-6.4-2.1-9.6-3.2c-0.7-0.2-1.4-0.5-2.1-0.9c-2-0.9-3.2-2.9-3.1-5.1
		c0-1.1,0.1-2.3,0-3.4c-0.2-2.5-1.3-3.6-3.8-3.7c-0.6,0-1.2,0.1-1.9,0.1c-2.2,0-4.2-1.5-4.7-3.6c-1.2-4.7-0.9-9.1,1.9-13.3
		c1.5-2.4,3.4-3.2,6.1-2.4c0.4,0.1,0.7,0.3,1,0.4c-0.1,0.3-0.4,0.6-0.6,0.8c-1,0.3-1.9,0.6-2.9,0.8c1.1,0.1,2.2-0.2,3.1-0.8
		c0.2-0.2,0.4-0.5,0.7-0.7c0.5,0.1,1,0.2,1.4,0.4c2.4,0.7,2.7,0.6,3.7-1.6c0.5-1.3,0.8-2.6,0.8-4c0.1-1.7,0.2-3.5,0.5-5.2
		c0.2-2.1,1.4-4.1,3.1-5.3c0.7-0.3,1,0.2,1.1,0.7c0.1,1.9-0.9,3.6-1,5.5c-0.1,3.1,1.4,4.1,4.2,2.8c1-0.5,1.9-1.3,2.5-2.2
		c2.1-3.6,5.2-6.5,9-8.2c0.5-0.3,0.9-0.8,1.1-1.4c0.4-0.6,1.3-0.7,1.9-0.3l0,0c4.8,0.3,8.9,2.4,12.8,4.9c1.5,0.9,3,1.9,4.5,2.8
		c0.6,0.4,1.4,0.7,2.1,0.7c0.6,0.6,1.8-0.1,2.2,0.9l-0.1-0.1c-0.5,2.2-2.2,1.4-3.5,1.2c-3.3-0.6-6.4-2-9.1-3.9
		c-1.4-1-3.1-1.6-4.8-1.7c-2.4-0.1-1.4,1.2-1,2.3c-0.2,0.9-0.8,1.1-1.6,1.3c-5.1-1.7-7.4,2.6-9.7,4.5c4.6-1.6,10.3-1.1,16-0.3
		c1,0.2,2.1,1.1,3-0.2c0.4-0.4,0.9-0.7,1.4-0.8c2.5,0.2,4.9,0.7,5.7,3.6c0.3,0.7,0.8,0.8,1.5,0.8c1,0.1,1.9,0.1,2.9,0.2
		c-0.3,1.2-2.3,2-0.9,3.5c0.9,0.9,2,1.5,3.3,1.5c0.5,0.1,1-0.2,1.2-0.7c0.4-1.5-0.9-1.9-1.7-2.5c-0.6-0.4-1.1-1-1.3-1.7
		c1.5-0.2,3,0.2,4.2,1.2c0.9,0.6,2.1,0.9,3.2,0.8c3.1-0.2,6,0.1,8.3,2.6c0.5,0.4,1.1,0.6,1.8,0.4c2.6-0.5,5.3,0,7.6,1.3
		c2.1,1.2,4.4,1.8,6.8,2c0.4,0.1,0.8,0.2,1.2,0.1l1.7,0.6c-0.5,1.3-1.7,1.2-2.8,1.5c-0.6,0.2-1.3,0.3-1.2,1.1s0.7,0.9,1.3,1.2
		c2.6,1.3,3.5-1.7,5.5-2l1.1,0.5l0.3,0.1l3.5,0.7l0.2,0.1c2.4,0.3,4.7,0.6,7.1,1c2.8,0.3,5.3,1.5,7.3,3.5c0.9,0.9,2.1,1.4,3.3,1.5
		c1.6,0.1,3.2,0.7,4.5,1.7c2,1.3,4.1,2.4,6.3,3.2c3.4,1.3,6.6,2.8,10.3,3.4c3.6,0.8,6.9,2.3,9.8,4.4c1.7,1.1,3.5,2,5.4,2.6
		c3.5,1.3,6.9,3,10.1,5c2.7,1.8,5.6,3.2,8.7,4.3c0.7,0.3,1.4,0.6,2,1.1c-0.5,1-1.6,1.5-2.6,1.2c-0.7,0-1.4-1.3-2.1-0.2
		c-0.2,0.4,0.5,0.7,0.9,0.9c1.6,1.3,3.3,0.5,5,0.7c0.5,1.2,1.6,2,2.9,2.2c0.3,0.2,0.6,0.4,0.8,0.6c-0.1-0.4-0.5-0.4-0.8-0.6
		c-1-0.9-2.1-1.7-3.2-2.4c-0.2-0.5-0.1-1,0.2-1.4c1.2,0,2.6,0,3.5,0.9c2,1.9,4.6,2.9,7.1,4.2c0.6,0.4,1.3,0.8,1.8,1.3
		c0.1,1.1,1,1.9,2.1,1.8c0.1,0,0.1,0,0.2,0c1,0.8,1.7,1.8,2.1,3c0.9,1.7,0.4,3.8-1.2,5c-1.3,1-2.6,1.9-3.9,2.8
		c-1.8,1.2-4.1,1.3-6,0.2C568.9,440.7,567.1,440,565.7,442.5z"/>
	<path class="st1" d="M186.6,421.4l-2,1.4c-7.5,3-12.4-0.5-16.6-6.3c-6.6-9.3-12.5-19.1-17.7-29.2c-1-2-1.7-4.2-2.1-6.4
		c-1.8-10.2,6.4-14.8,14.4-13.5c3.1,0.5,3.5,1.7,2,4.4c-1.7,3-3.1,6-1.4,9.4c-1.7-4-0.4-7.8,2.6-10.4c7.4-6.6,16.2-9.9,26.2-9.2
		c4.6,0.3,7.4,3.9,10.1,8c-4.5-7.4-6.4-8.4-14.9-8.2c-1.4,0-2.7,0.5-4.1,0.3c-0.4-0.1-0.7-0.4-0.9-0.7c-1.2-1.5-4.4-0.7-4.5-2.8
		c-0.1-1.9,2.6-2.4,3.8-3.7c3.4-3.9,8.7-4.9,12.4-2.5c2.2,1.4,2.2,1.9,0.2,4.1c6.6-2.6,12-0.8,16.1,5.4c3.9,6,5.5,12.8,7.1,19.6
		c1.3,5.2,2,10.6,2.1,16c0.1,5.8-0.9,11.5-5.8,15.6c-1.4,1.2-3,2.8-5,1.6c-2-1.2-1.1-3.1-0.7-4.8s0.4-3.2,0.6-4.3
		c-0.5,5.4-2,10.7-7.6,14.1c-6.6,3.8-15,2.4-20-3.4c-1.7-1.9-3.1-3.9-4.4-6.1c-0.1-0.3-0.2-0.8-0.5-0.9s-0.4,0-0.2,0
		c0.2,0,0.4,0.2,0.5,0.5c2.2,3.8,4.6,7.5,8.5,9.7C185.9,419.7,186.8,420.1,186.6,421.4z"/>
	<path class="st2" d="M173.8,906.8c-0.3-0.6-0.9-1-1.6-1c-6.5-0.7-12.9-1.8-19.5-2c-6.3-0.1-12.4-2.7-16.9-7.1
		c-1.4-1.3-2.7-2.6-3.9-4.1c-1.6-1.9-1.6-3,0.2-4.9c1.5-1.6,3-3,4.6-4.5c3.9-3.6,8.1-6.8,12.6-9.5c2.3-1.2,3.6-3.6,3.3-6.2
		c-0.1-4.8,0.2-9.5,0.1-14.3c-0.3-2.4,1.2-4.8,3.5-5.5c12.2-5,24.3-10,36.5-15c2.9-1.2,6.1-1.6,9.2-1.3c5.4,0.4,10.8,0.9,16.1,1.4
		c6.6,0.6,13.2,1.3,19.8,1.9l20.2,2l17.3,1.6c0.6,0,1.2,0.1,1.9,0.2c1.5,0.1,2.5,1.4,2.4,2.9c0,0,0,0,0,0l0,0c0,2.2-0.1,4.5,0,6.8
		c0,1.5,0.5,1.9,1.8,1.4c2.2-0.7,4.4-0.9,6.7-0.7c3.6,0.2,7.2,0.7,10.9,1.1c1.1,0.1,1.5,0.5,1.6,1.7c0,1.8,0,3.5,0,5.3
		c0,2.3,0.6,3.1,3,3.5c1.7,0.3,3.4,0.9,5,1.7c1.6,0.7,2.4,2.3,2.1,4c-0.1,0.7-0.3,1.5-0.5,2.2c-2,6.5-5.5,12.4-10.2,17.4
		c-7.9,8.2-16.6,15.7-25.9,22.4c-7.5,5.5-16.9,7.7-26,6c-10.5-1.7-21.2-2.7-31.9-3c-17.3-0.4-34,2.4-49.6,10.3
		c-4.5,2.4-9.4,4.3-14.3,5.6c-2.6,0.6-5.2,0.8-7.8,0.6c-1.4-0.1-2.7-0.4-4-1c-2.5-1.1-4-3.7-3.7-6.4c0.1-1.1,0.7-2.2,1.6-2.8
		c1.2-0.8,2.4-1.4,3.6-2c5.6-2.5,11.6-3.9,17.6-5.2c3.5-0.8,7.1-1.6,10.6-2.3C171.3,907.5,172.5,907.2,173.8,906.8z"/>
	<path class="st3" d="M505.4,936.1c5-21.3,9.3-39.7,13.6-58.2c0.6-2.7,2-5.2,4.2-7c3.3-2.9,6.5-5.9,9.8-8.8c2.8-2.6,5.4-5.3,6.6-9
		c0.4-1.2,0.8-2.4,1-3.6c0.7-3.2,1-3.5,4.3-2.8c3.8,0.8,7.6,1.7,11.4,2.6c11.3,2.7,22.7,5.4,34,8.1c4.9,1.2,5,1.2,3.6,6.3
		c-1.1,3.6-0.2,7.4,2.4,10.1c0.3,0.4,0.6,0.7,1,1.1c6.2,5.6,7.8,12.6,6.4,20.5c-1,5.2-2.2,10.3-3.3,15.5c-4.2,18.8-8,37.8-11.7,56.8
		c-1.9,9.8-3.9,19.7-5.8,29.5l-0.3,1.5c-0.8,4.2-3.2,6.8-7.3,8.3c-6.9,2.5-13.9,5.2-20.7,8.1c-2.2,1-4.2,1.5-6.7,0.8
		c-2.6-0.5-5.2-0.9-7.8-1.2c-3.3-0.5-6.7-1.1-10-1.7c-2-0.2-3.9-1-5.4-2.3c-1.2-1.2-3.1-1.6-4.8-2c-7.4-1.7-14.4-4.3-21.5-6.7
		c-3.5-1.2-4.4-3.7-4.1-6.7c0.8-7.1,2-14.2,3.4-21.2C500.4,960.5,503.2,946.8,505.4,936.1z"/>
	<path class="st4" d="M226.6,580.8c-11.2-0.3-21.7-1.7-31.8-5.6c-4.4-1.6-8.5-3.9-12.1-6.7c-5.6-4.2-9.3-10.4-10.4-17.3
		c-1-6.6,0.2-13.4,3.4-19.3c0.6-1.1,1.2-2.2,1.9-3.2c3.3-4.7,6.6-9.4,10.1-14.1c3-4.1,6.7-7.5,11-10.2c3.2-2,6.2-4.2,9.1-6.6
		c1.6-1.3,3.1-2.5,4.8-3.7c2.8-2.2,5.9-3.8,9.3-4.7c4-1.1,7.8-2.7,11.7-4.1c5.2-1.9,10.4-3.8,15.9-4.4c7-0.9,14.1-0.4,20.8,1.7
		c5.2,1.6,10.5,2.6,15.9,3c15.9,1.4,29.2,12.6,33.4,28c1.9,6.3,1.8,13-0.2,19.2c-1.3,4.2-3.8,8-7,11c-17.1,15.6-36.4,27.5-59,33.3
		C244.6,579.4,235.6,580.7,226.6,580.8z"/>
	<path class="st5" d="M393.9,755.4c0.2,0,0.5,0.1,0.7,0.2c3.1,2.1,3.7,2.2,6.5,0c0.6-0.6,1.5-0.9,2.4-0.8c3,0.4,5.9,0.8,8.9,1.3
		c0.2,0,0.5,0.1,0.7,0.1c1.9,0.6,2.6,1.9,1.7,3.7c-1.1,2.1-2.3,4.1-3.7,6.1c-4,5.6-8.8,10.6-14.1,14.9c-0.8,0.8-2,1.2-3.1,1
		c-1.1-0.2-2.2-0.2-3.4-0.3c0.3-0.8,0.8-1.2,2-1c-9.1-0.5-17.7-2.7-25.1-2.8c3.8,0.3,8.9,0.9,14,1.5c0.6,0.1,1.5,0.1,1,1
		c-0.3,0.7-1.1,0.4-1.7,0.2c-4.9-0.2-9.7-0.8-14.6-1.4c-0.6-0.1-1.2-0.2-1.9-0.2c-2.3,0.2-3.5-0.7-4.7-2.8c-2-3.8-7.3-4.5-10.8-1.8
		c-0.4,0.3-0.8,0.6-1.1,1c-0.8,1.3-2.4,1.9-3.9,1.6c-4.5-0.5-9-1-13.5-1.4c-2.8-0.3-5.5-0.5-8.2-0.8c-1.1-0.1-1.5-0.6-1.5-1.7
		c-0.1-1,0.3-2,1-2.7c0.8-0.7,1.5-1.4,2.2-2c6.1-5.2,12.6-10,19.4-14.3c3.3-2,5.5-5.1,8.1-7.7c0.7-0.8,0.6-2-0.2-2.6c0,0,0,0,0,0
		l-0.1-0.1c-0.5-0.4-1-0.7-1.6-0.9c-1.2-0.2-2-1.3-1.8-2.4c0,0,0,0,0,0c0.1-2.5,0.1-5-0.2-7.5c0-0.2,0-0.5,0-0.7
		c0.1-1.8,0.7-3.1,2.6-3.6c2.4-0.5,3-2.4,3.2-4.5s-0.9-3.3-2.5-4.3c-0.1-0.1-0.2-0.1-0.3-0.2c-2.6-0.5-3.1-2.2-3.1-4.7
		c0.1-5.1,0-10.3-0.2-15.4c-0.1-1.9,0.7-3.7,2.2-4.9c5.7-5.1,11.4-10.3,17-15.4c1.2-1.1,2.4-1.8,4.1-1.2c0.4,0.1,0.7,0.2,1.1,0.2
		c2.5,0.1,3.7-1.1,3.6-3.6c0-0.4-0.1-0.7-0.1-1.1c-0.3-1.1,0.1-2.3,1.1-3c1.8-1.6,3.5-3.2,5.3-4.8c1.3-1.2,2.6-1.9,4.4-1
		c0.3,0.2,0.7,0.3,1.1,0.3c1.3,0.2,2.4-0.8,2.6-2c0-0.3,0-0.6,0-0.8c-0.2-1-1-1.9-0.3-2.8c0.8-1.3,1.9-2.3,3.1-3.2
		c0.8-0.5,2.2-0.3,3.3-0.2c3.6,0.5,7.2,1,10.8,1.7c8.3,1.8,16.5,4.5,24.2,8c5.1,2.2,10.1,4.5,15.1,6.7c0.7,0.3,1.4,0.6,2,1
		c1.7,0.9,2.7,2.7,2.6,4.6c0,3-0.3,6-0.8,9c-0.7,3.3-0.7,6.7-1,10.1c-1.5,14.1-3.1,28.2-5.5,42.1c-0.2,1.1-0.4,2.2-0.7,3.3
		c-1.1,4.1-3.6,6.8-7.9,7.6c-3.1,0.6-6.1,1-9.3,1.3c-9.8,1.1-19.7,2-29.6,2.4c-0.4,0-0.8,0-1.1,0.1
		C393.9,754.2,393.9,754.8,393.9,755.4c-2.4,0.8-4.7,0.2-7.1-0.1c-10.5-1.2-20.9-1.8-31.4-2.6c-3.6-0.3-7.3,0.7-10.3,2.7
		c-6.8,4.2-13.2,9-19.2,14.2c6.4,1,12.1,2.1,18,2.4c1.6,0.1,2.8-1,3.9-2c4.7-3.9,10.1-3.5,13.8,1.4c1.8,2.4,3.7,3.1,6.6,3.5
		c7.6,0.8,15.2,1.2,22.8,2.5c2.5,0.4,4.8,0.1,6.5-1.9c4-4.7,8.3-9.1,11.9-14c2-2.7,1.8-3-1.6-3.7c-2.5-0.5-5-0.1-7.3,0.9
		C396.8,760.2,394,758.7,393.9,755.4z"/>
	<path class="st6" d="M303.1,1043.9c0.3,0.2,0.6,0.4,1,0.6c2.2,1.5,2.4,1.9,1.2,4.3c-0.7,1.7-1.6,3.4-2.8,4.9
		c-0.6,0.9-1.2,1.9-1.7,2.8c0.8-0.1,1.5-0.5,1.9-1.2c2.5-3.5,5.1-6.8,6.5-11c0.4-1,0.9-2,1.4-3c0.3-0.6,0.9-0.9,1.6-0.9
		c2.2,0.1,3.9,2,3.7,4.2c0,0.4-0.1,0.8-0.2,1.1c-0.3,0.7-0.7,1.3-1.1,1.9c-3.6,5.1-6.5,10.7-10.5,15.6c-0.2,0.2-0.3,0.4-0.4,0.6
		c-0.6,1-0.6,1.3,0.3,2.3c0.4,0.5,0.9,0.9,1.3,1.3c3.2,3.3,4.5,8,3.4,12.5c-0.5,2-1.1,3.9-2,5.7c-2.2,4.7-4.9,9.1-8.1,13.1
		c-9.5,12.2-21,22.7-34,31.1c-7.9,5.1-16.1,9.6-24.5,13.7c-6.3,3.1-13.1,4.9-19.8,7.2c-1.7,0.6-3.5,0.6-5.2,0.2
		c-0.4-0.1-0.7-0.5-0.6-0.9c0,0,0,0,0,0c0-0.1,0-0.2,0.1-0.2c0.2-0.4,0.5-0.9,0.9-1.2c10.1-11.1,16.4-24.2,20.8-38.4
		c2.2-7.2,3.8-14.6,5.3-21.9c1.2-6.2,3-12.2,5.4-18c1.3-3.1,2.9-6.1,4.9-8.9c4.9-6.6,11.3-10.1,19.6-10.1c2.4,0,4.8,0.2,7.1,0.5
		c0.9,0.3,1.8-0.2,2.1-1.1c0.1-0.3,0.1-0.5,0-0.8c0-1.2-0.2-2.5-0.3-3.8c-0.3-3.6-0.5-7.2-0.8-10.9c-0.1-1,0.5-2,1.5-2.3
		c2.3-1.1,4.4-1,6.2,0.8c0.4,0.3,0.7,0.7,1,1.1c2.4,2.1,2.1,5,2.3,7.6s1.1,4,3.7,4.8c3.5,1.1,4.8,3.4,3.7,6.9
		c-1.6,5.2-5.2,9.3-8,13.9c-0.3,0.6-1,0.9-1.6,0.6c-0.8-0.5-1-1.5-0.6-2.3c0,0,0,0,0,0c1.3-2.8,2.9-5.6,4.6-8.2
		c0.9-1.6,2-2.8-0.4-4.3c-1.6-1-1.3-1.4,2.1-3.1c-2.8-0.2-3.4,1-3.6,3.2c-0.5,6.7-1.9,13.1-7,18.1c-1.5,0.3-2.3-0.3-2.4-1.8
		c6.4-8.1,6.1-17.7,5.9-27.2c0-1.7-0.5-3.3-2.3-3.9c-2-0.7-2.1-2-0.6-4.2c-2.2,1.6-1.9,3-1.7,4.3c1.5,9.4,1.1,18.7-2.1,27.7
		c-2.2,0.1-2.7-0.3-2.8-2.3c0.1-2,0.5-4,1-5.9c0.4-2-0.2-3.1-2.4-3.1c-3.5,0-7.1-0.1-10.5,0.8c-1.9,0.3-3.4,1.9-3.6,3.8
		c-0.2,1.2,0.1,2.9-1.2,3.3c-1.7,0.5-1.8-1.7-2.9-2.8c-6.5,7.9-11.3,16.4-12.6,26.5c-0.5,3.9-1.1,7.7,1.4,11.2
		c0.4,0.5,0.4,1.2,0,1.8c-0.5,0.7-1.2,0.4-1.7,0c-2.1-1.7-2.5,0-2.9,1.4c-1.4,4.6-3.3,9.1,0.3,13.6c0.4,0.5,0.9,1.4,0,2
		s-1.4,0.1-2.1-0.3c-0.7-0.7-1.5-1.3-2.4-1.9c-3.9,10.7-9.3,20.5-14.8,30.5c14.7,0.2,54.1-25.9,72.1-47.5c-2.4-1.4-6.2,0.1-7.6-3.5
		c0.1-0.5,0.5-1,1-1.2c2-0.3,3.9,0.4,6,0.3c2.1-0.1,4.2-0.6,5.2-2.5c2.9-5.4,5.6-11,4-17.5c-1-4-1.8-4.4-5.5-2.6
		c-0.6,0.3-1.2,0.4-1.8,0.4c-1.6-1.7,0-2.7,0.9-3.8c3.9-4.8,7.7-9.5,11.2-14.6c1.2-1.4,2-3.2,2.4-5c-5.7,8.1-12.1,15.6-19.2,22.5
		c1.5,2,4-0.5,4.7,2c-1.3,2.6-3.6,1.8-5.7,1.9c-3.2-0.6-3.1-2.6-1.8-4.7c3.2-4.9,6.1-10,9.5-14.8c1.2-1.7,2.8-3.2,1.6-5.7
		c-0.5-1,1.1-1.1,1.5-1.9c-0.5-1.3-3.8,0.4-2.8-2.2C299.5,1043.2,301.2,1042.5,303.1,1043.9z"/>
	<path class="st7" d="M176.1,408.9c1,0,1.1,0.9,1.5,1.5c2,3.2,4.7,5.9,7.9,7.9c7.7,4.5,14.3,2.6,19.4-3.5c1.7-2,2.3-4.7,2.9-7.3
		c0.4-1.6,0.6-3.1,0.9-5c0.7,2.2,0.8,4.6,0.4,6.9c-0.2,1.1-0.4,2.2-0.4,3.3c-0.1,0.6,0.2,1.2,0.8,1.3c0.3,0.1,0.6,0,0.9-0.2
		c2.8-1.3,5-3.4,6.4-6.1c1.6-3.3,2.3-7,2.1-10.6c-0.5-8.4-1.9-16.7-4.2-24.8c-1-3.9-2.7-7.6-5-10.9c-1.7-2.5-4.1-4.4-7-5.4
		c-2.2-0.7-4.5-0.6-6.6,0.3c-1.3,0.6-2.6,1.5-4.4,1.1c0.9-1.7,2.9-2.1,3.9-3.5c-1.1-1.6-2.9-2.6-4.8-2.6c-1.2,0-2.5,0-3.8,0.1
		c-1.4,0-2.7,0.7-3.6,1.7c-0.8,0.9-1.6,1.9-2.4,2.8s-2.1,0.9-2.7,1.9c1.2,1.2,2.8,0.9,4.3,1.1c1.5,0.1,0.8,1,0.7,1.6
		c-4,1.2-8.8-0.5-11.6-4.5c-1.4-2.2-3.4-3.9-5.8-5.1c-1.5-0.7-3.4-1.6-4.4,0c-1,1.6,2,1.4,2.2,2.9c0,0.2,0,0.3-0.1,0.5
		c-1.3,0.4-2.6,0.8-3.9,1.2c-1.5,0.4-1.8,0.3-2.1-1.1c-0.2-0.8-0.5-1.6-1.1-2.4c-0.8-1.3-0.4-2.3,1.1-3c4.4-2.2,9.7-1.2,13.1,2.3
		c1,1.1,1.9,2.3,2.8,3.5c1.4,1.8,3,2.2,4.9,0.9c1.2-0.9,2.4-1.8,3.5-2.9c1.8-1.7,4.1-2.9,6.6-3.2c2.9-0.4,5.8,0.5,8,2.5
		c0.8,0.9,2.1,1.4,3.3,1.2c3.9-0.6,6.8,1.1,9.2,4c2.2,2.6,3.9,5.6,5.1,8.8c3.6,9,5.8,18.5,6.5,28.1c0.2,3.6-0.1,7.3-0.9,10.8
		c-0.7,4.7-4,8.7-8.5,10.2c-3,1.1-5.9,2.5-8.6,4.3c-3.6,2.3-8.1,3.1-12.3,2.2c-1.1-0.2-2.2-0.4-3.3-0.7c-0.6-0.8-1.4-1.4-2.4-1.8
		c-2.1-1.3-3.9-3.1-5.3-5.1c-0.8-1.4-1.7-2.7-2.7-4C175.9,410,175.8,409.4,176.1,408.9L176.1,408.9z"/>
	<path class="st7" d="M183.1,361.1c3.3-0.6,6.7-0.7,10.1-0.4c2.4,0.2,4.6,1.2,6.3,3c2.1,2.2,3.6,4.9,4.3,7.9
		c0.1,0.2-0.1,0.5-0.2,0.7c-0.8-0.2-1.1-1-1.6-1.6c-1.4-1.7-2.8-3.6-4.4-5.2c-2.1-2.2-5-3.4-8.1-3.3c-2.2,0-4.5,0.3-6.6,0.9
		c-3.9,1.1-7.6,2.5-11.2,4.3c-2.1,1.1-4.1,2.5-5.7,4.2c-2,2.1-2.8,5.1-2.2,7.9c0.3,1.6,0.6,3.1,1,5c-4.2-4.9-4-8.6,0.4-15.2
		c-2.4-1.2-2.4-1.2-4.4-1.2c-1.6,0-3.3,0.2-4.8,0.6c-4.2,0.9-7.2,4.7-7.1,9c0,1.2,0.2,2.5,0.5,3.7c0.8,3,1.9,6,3.5,8.7
		c3.8,6.8,7.8,13.4,12,20c2.3,3.6,4.9,7,7.8,10.1c2.5,2.8,5.4,3.3,8.8,2.6c1.1-0.2,2.1-1,3.2-0.2c-0.7,0.3-1.3,0.7-2,1
		c-3.7,1.6-7.9,0.9-10.9-1.7c-1.3-1.1-2.6-2.4-3.7-3.8c-2.3-2.8-4.4-5.8-6.2-9c-3.3-5.5-6.6-11-9.8-16.5c-2.4-3.8-4.1-8.1-4.9-12.6
		c-0.3-1.7-0.3-3.5,0.1-5.2c0.4-2.8,2.2-5.2,4.7-6.4c2.1-1.1,4-2.6,5.4-4.5c1.6-2,3.9-3.2,6.4-3.6c3.5-0.7,3.5-1.2,1.7-4.1
		c-0.3-0.4-0.7-0.7-0.6-1.3l0.4-0.3c4.1,1.4,5.2,4.5,3.7,10.1C173.7,363.6,178,360.7,183.1,361.1z"/>
	<path class="st8" d="M283.3,1071.8c-0.1-0.8,0.1-1.5,0.6-2.1c3.5-2.9,4.3-6.9,4.9-11c0.2-1.7,0.5-3.5,0.7-5.2
		c0.1-0.6,0.2-1.2,0.3-1.8c0.7-2.5,2.1-3.2,4.5-2.4c1.1,0.3,1.8,1.4,1.5,2.5c0,0,0,0.1,0,0.1c0,0.6-0.5,1.1-1.1,1.1c0,0,0,0,0,0
		h-0.1c-0.7,0-1.5-0.2-2.2-0.3c-0.1,0-0.4,0.3-0.4,0.4c0.1,0.2,0.2,0.4,0.4,0.5c0.9,0.3,2.1-0.1,2.8,1c0.2,0.8-0.4,1.3-0.7,1.9
		c-2,3.3-3.9,6.7-5.9,10c-0.2,0.3-0.3,0.6-0.4,1c0,0.2,0.1,0.5,0.3,0.6c0.2,0.1,0.5,0,0.6-0.2c3-4.4,6.2-8.8,8-13.9
		c1-2.7,0.1-4.9-2.1-6.1c-0.9-0.4-1.9-0.5-2.9-0.4c-1.3,0-1.9-0.4-2-1.7c-0.2-2.9-0.6-5.7-1.2-8.5l-0.7-2.5l1.6-0.6
		c4.2,2,4.9,3.5,3.9,8.2c-0.2,1.2-0.6,2.4,0.2,3.5c0.3,0.2,0.5,0.6,0.8,0.7s0.6-0.3,0.7-0.6c0.1-0.7,0.1-1.5,0.8-2
		c0.3,0.2,0.4,0.6,0.6,0.9s0.2-0.2,0.2-0.2c0.2-2.3,2.1-4.2,1.8-6.7c0-1.1,0.8-2,1.8-2c0,0,0,0,0,0c0.1,0,0.3,0,0.4,0
		c1.4,0.1,2.6,1.2,2.6,2.6c0.2,1.4-0.8,2.6-0.7,4v1.3c-1.5,0.1-3.1-0.2-4.1,1.3c-0.1,0.2-0.3,0.5-0.2,0.6c0.2,0.2,0.4,0.3,0.6,0.2
		c0.7-0.3,1.4-0.5,2.1-0.7c0.9-0.1,1.8,0.4,2.2,1.2c0.2,0.6,0,1.3-0.5,1.7c-0.8,0.5-1.7-0.1-2.5,0.6c0.2,0.3,0.5,0.5,0.8,0.8
		c0.7,0.4,0.9,1.2,0.6,1.9c0,0,0,0.1-0.1,0.1c0,0,0,0,0,0.1c-0.6,1-1.2,1.9-1.9,2.8c-3.3,4.4-6.3,9-9.1,13.8c-0.5,1-1.1,2-1.6,3
		c-0.8,1.6-0.7,1.7,1.4,2.4C287.4,1076,284.9,1075.5,283.3,1071.8z"/>
	<path class="st9" d="M441.3,376.9c-0.7-0.8-1.1-1.8-2.4-2c-1.2-0.3-2.4-0.6-3.5-1.1c-3.5-0.8-6.8-2.1-9.1-5.1
		c-0.7-0.7-1.8-0.8-2.4-1.9c1.1-1,2.6-1.5,4-1.4c1.3-0.1,2.5,0.3,3.5,1c0.8,0.6,1.6,1.2,2.4,1.7c2.6,1.8,5.5,2.9,8.6,3.3
		c0.8,0.1,1.8,0.4,2.4-0.5c2-0.1,3.9-0.4,5.7,1c1.4,1,3.1,0.2,4.7,0.5c0.2,0.1,0.3,0.2,0.4,0.4c0,0.2-0.1,0.5-0.3,0.6
		c-2.6,0.9-5,2.1-7.9,1.9c-1.6-0.1-3.2,0-4.8,0C441.8,375.5,441.5,376.2,441.3,376.9z"/>
	<path class="st10" d="M524.5,440.6c-0.2-0.4-0.5-0.9-0.8-1.2c-0.3-0.3-0.3-0.9,0.1-1.2c0,0,0,0,0,0l0.1-0.1c0.4-0.3,0.9-0.6,0.3-1
		c-1.5-1-1.5-2.4-1.4-3.9c0.2-2.1,0.4-2.4,3-2.7l-0.1,0c0.1,1,1.1,1.3,1.5,2.1s1,0.8,1.7,0.2c1.5-1.1,2.2-1,3.1,0.3
		c0.9,1.1,0.8,2.8-0.3,3.7l0,0c-0.3,0.2-0.6,0.3-1,0.2c-0.9-0.2-1.6-0.7-2.2-1.3c-0.7-0.7-1-0.1-1.4,0.4s-0.6,1.1,0.3,1.4
		c0.5,0.2,0.9,0.4,1.3,0.7c0.2,0.1,0.3,0.4,0.2,0.7c0,0,0,0,0,0c0,0.1-0.1,0.2-0.2,0.2c-1.2,0.9-2.6,1.4-4.1,1.8l-0.1,0.1
		L524.5,440.6z"/>
	<path class="st11" d="M380.7,780.5l0.7-0.3c0.6-0.3,0.4-0.5-0.1-0.5c-5.9-0.6-11.7-1.1-17.5-1.7c-0.4,0-0.7-0.2-1-0.4
		c-0.1-0.1-0.2-0.4-0.2-0.7c0-0.1,0.2-0.2,0.3-0.2c0.4-0.1,0.7-0.1,1.1-0.1c6.7,0.7,13.4,1.4,20.1,2.2l7.5,0.8c1,0,2,0.4,2.8,1.2
		l-3.8,0.8c-0.8,0.3-1.8,0.2-2.5-0.4c-1.6-1-3.3-0.4-5-0.3C382.2,781,381.4,781.2,380.7,780.5z"/>
	<path class="st12" d="M446.2,378c1.2,0.7,2.4,1.3,3.5,2.1c1,0.7,1.3,2,0.6,3c-0.5,1-1.6,1.4-2.5,1c-1.5-0.6-3-1.2-4.5-2
		c-0.8-0.6-1-1.7-0.4-2.5c0.1-0.1,0.2-0.3,0.4-0.4c0.7-0.5,1.5-0.9,2.3-1.3C445.8,377.8,446.1,377.8,446.2,378
		C446.2,378,446.2,378,446.2,378C446.2,378,446.2,378,446.2,378z"/>
	<path class="st13" d="M303.1,1042.5c-0.4-0.1-0.8-0.3-0.7-0.7c0.2-0.8,0.6-1.6,0.8-2.4c0.2-0.9-0.1-1.8-0.8-2.3
		c-0.5-0.6-1.4-0.7-2-0.3c-0.7,0.5-1,1.4-0.7,2.2c0,0.1,0.1,0.2,0.2,0.3l1,1.3c-1.9,0.7-3.2,2.6-3.1,4.6c-0.1,0.3-0.3,0.7-0.6,0.9
		c-0.2,0.1-0.4,0.2-0.6,0.2c0,0-0.2-0.2-0.2-0.3c-0.1-0.7-0.1-1.5-0.1-2.2c0.5-2,0.9-3.9,1.4-5.8c0.1-0.7,0.4-1.4,0.7-2.1
		c0.2-0.4,0.6-0.8,1.1-1c2.4-0.9,5.6,1.7,5.3,4.2C304.5,1040.4,303.9,1041.6,303.1,1042.5z"/>
	<path class="st14" d="M483.7,388.8c-0.2,0.3-0.4,0.6-0.6,0.9c-0.2,0.8,0.1,1.8-0.8,2.3c-0.9,0.5-1.7,0.1-2.5,0
		c-0.9,0-1.7-0.1-2.6-0.3c-1.1-0.3-2-1.3-2-2.4c-0.2-0.8,0.4-1.7,1.2-1.9h0.1c1.5-0.3,3,0.1,4.4-0.5
		C482,387.2,483,387.9,483.7,388.8z"/>
	<path class="st15" d="M477.6,434.3c-0.7-1.6,0.3-2.4,1.4-3c0.9-0.5,1.9-0.7,2.9-0.5c1.2,0.1,2.5,0.2,3.7,0.3
		c0.6,0.1,1.3,0.1,1.4,0.9s-0.6,1.1-1.1,1.4c-1.7,0.8-3.4,1.5-5.3,1.9C479.7,435,478.5,435.1,477.6,434.3z"/>
	<path class="st16" d="M538.9,441.5c-0.3-0.1-0.7-0.3-0.9-0.6c-0.5-0.4-0.8-1-0.7-1.6c0-0.2,1.1-0.3,2-0.2c-0.2-2.3-0.1-2.7,0.3-3.9
		c0.2-0.5,0.5-0.8,1-1c1.1-0.2,2.3,0.4,2.8,1.4c0.6,0.7,0.6,1.7,0.1,2.4c-0.4,0.5-0.9,1.1-1.4,1.2c-1.8,0.1-1,1.3-1,2.2
		C540.5,441.8,539.6,441.9,538.9,441.5z"/>
	<path class="st17" d="M423.4,361.8l-1.6,0.7c-0.4,0.6-1.2,1-1.9,1c-5-0.2-9.8,1.1-14.6,2.3l-0.8-0.8c1.4-1.7,3.4-2.4,5.4-3.1
		C414.2,360.4,419,360.4,423.4,361.8z"/>
	<path class="st18" d="M293.9,1045.9c-0.6,0.2-1.2,0.4-1.4-0.5c-0.1-1.1,0-2.2,0.3-3.3c0.2-1,0.4-1.9,0.4-2.9
		c0.1-1.5-0.7-2.9-2.1-3.6c-0.7-0.3-1.4-0.6-1.4-1.5c0.8-0.3,1.7-0.4,2.6-0.2c1.9,0.4,2.8,1.4,2.7,3.4
		C294.9,1040.3,294.6,1043.1,293.9,1045.9z"/>
	<path class="st19" d="M512.8,439.4c0-0.5,0.1-1,0.2-1.4c0.6-1.6,1.3-2,2.8-1.6c1.5,0.5,3.1,0.7,4.7,0.8c0.3,0,0.5,0.1,0.5,0.5
		s0,0.5-0.2,0.6c-0.7,0.5-1.5,0.9-2.1,1.4c-0.2,0.1,0,0.6,0,1C516.7,440.5,514.7,440.1,512.8,439.4z"/>
	<path class="st20" d="M506.5,439.1c-0.5-0.5-1.4-1.1-1.4-1.6c-0.1-0.9,0.7-1.6,1.5-2c1.7-0.9,3.8-0.5,5.1,0.9c0.3,0.4,0,0.7-0.2,1
		c-1.2,1.3-2.8,1.5-4.4,1.9l-0.3,0.1L506.5,439.1z"/>
	<path class="st21" d="M565.7,442.5c-0.1-0.3-0.2-0.7-0.2-1.1c-0.1-1.9,0.3-2.2,2.1-1.9c0.7,0.1,1.4,0.4,2.1,0.5
		c1.2,0.2,1.1,1.1,1,1.9C569.2,444,567.4,443.2,565.7,442.5z"/>
	<path class="st22" d="M561.1,422.9c0.7-0.7,1.6-1.1,2.5-1.1c0.6,0.1,1,0.5,1.2,1v1.6l0.1-0.1c-0.2,0.3-0.5,0.5-0.8,0.8
		c-1.5,1.2-1.9,1.2-3.4-0.1c-0.4-0.3-0.8-0.6-1.1-0.9c0-0.3,0.1-0.6,0.3-0.8c0.2-0.2,0.5-0.3,0.8-0.4L561.1,422.9z"/>
	<path class="st23" d="M559.8,442.3c-0.4-0.2-0.8-0.5-1.3-0.7c-0.8-0.4-1.1-1.3-0.7-2.1c0,0,0,0,0,0v-0.1c0.3-0.7,0.5-1.4,1.5-1.2
		c0.9,0.2,1.6,0.9,1.7,1.8c-0.1,0.9-0.4,1.7-0.9,2.4L559.8,442.3z"/>
	<path class="st24" d="M579.6,430.9c-0.3,0.4-0.6,0.8-1,1.1c-0.5,0.3-1.2,0.2-1.5-0.3c0,0,0-0.1,0-0.1c-0.2-0.8-0.2-1.8,0.2-2.6
		C578.3,429.4,579.3,429.8,579.6,430.9z"/>
	<path class="st5" d="M383.1,780.9c0.3-0.2,0.6-0.3,1-0.4c1.7,0,3.4,0,5.3,0c0.2-0.1-0.1,0.9-0.3,0.4s0.1,0-0.3,0.1
		c-0.2,0.1-0.5,0.1-0.7,0.2L383.1,780.9z"/>
	<path class="st16" d="M533.9,441.2c0.6-0.3,1.3-0.2,1.8,0.3C535.1,441.8,534.4,441.7,533.9,441.2z"/>
	<path class="st14" d="M479.3,386.4c-0.5,0.6-0.8,0.5-1.2-0.1C478.5,386,479,385.9,479.3,386.4z"/>
	<path class="st9" d="M445,371.1c-0.8-0.1-1.7-0.1-2.2-0.9C443.7,370.1,444.6,370,445,371.1z"/>
	<polygon class="st25" points="495.5,437.5 495.7,437.4 495.7,437.6 495.5,437.7 	"/>
	<path class="st26" d="M488.9,390.2c0,0.1-0.1,0.2-0.1,0.2c-0.3,0-0.3-0.1-0.1-0.3l0.2-0.1L488.9,390.2z"/>
	<path class="st14" d="M485.2,389.4c-0.2,0.2-0.4,0.2-0.3-0.1l0.3-0.1L485.2,389.4z"/>
	<path class="st7" d="M164.8,355.3c-0.6,0-1.4,0.2-1.5-0.8l-0.1,0.1C164.1,354.1,164.8,354,164.8,355.3L164.8,355.3z"/>
	<polygon class="st10" points="529.8,440.6 529.9,440.5 529.8,440.7 	"/>
	<polygon class="st27" points="394.6,380.7 394.6,380.4 394.8,380.4 395,380.3 395,380.5 394.9,380.7 394.7,380.7 	"/>
	<path class="st28" d="M405.3,365.7c3.8-2.9,8.2-3.3,12.8-3.4c1.2,0,2.5,0.1,3.8,0.2c0.4,0.5,0.9,1.2,0,1.4
		c-4.5,1.2-7.3,4.5-9.6,8.3c-1.6,2.6-4.6,3.9-7.6,3.3c-0.6-0.1-0.8-0.6-0.8-1.1C403.2,371.4,403.8,368.3,405.3,365.7z"/>
	<path class="st29" d="M434.6,374.5c0.6,0.6,0.4,1.1-0.3,1.4c-0.5,0.1-1,0.1-1.4,0c-4.7-1.6-9.6-1.2-14.4-1.2
		c-1.5,0-2.8,0.8-4.3,1.2c-0.4-0.9,0.1-1.4,0.5-2c0.3-0.5,0.7-1,1.1-1.5c3.4-4.1,3.8-4.2,8.9-3C428.5,370.2,431.6,372.2,434.6,374.5
		z"/>
	<path class="st30" d="M405.4,392.8c-1.1,0-2.1-0.2-3.1-0.6c-2.8-1-3.9-3-3-5.8c0.3-1,1.8-1.8,2.7-1.2c1.7,1.1,3.7,1.5,5.7,1.3
		c1.8,0,2.7,1.5,2.1,3.1C409.1,391.4,407.3,392.6,405.4,392.8z"/>
	<path class="st12" d="M424.5,379.2c1.1,0,2.2,0.3,3.1,0.8c1.3,0.5,2.2,1.8,2.2,3.2c0.1,1.4-0.6,2.7-1.8,3.5c-2,1.2-4.5,1.1-6.4-0.2
		c-0.5-0.3-0.9-0.9-0.8-1.6c0.1-0.9,0.2-1.7,0.4-2.6C421.5,379.3,421.7,379.2,424.5,379.2z"/>
	<path class="st31" d="M406.3,401.9c-3.2,0-6.7-3.2-6.8-5.9c0-0.8,0.9-1.8,1.6-1.7c2.2,0.2,4.5,0.5,6.6,0.9c1.3,0.4,2.4,1.5,2.7,2.9
		c0.2,0.6,0.1,1.3-0.3,1.8C409.1,401,407.8,401.7,406.3,401.9z"/>
	<path class="st32" d="M420.2,416.7c-1.5-0.1-3-0.6-4.3-1.3c-0.7-0.4-1-1.2-0.7-1.9c0.5-1.1,0.9-2.3,1.1-3.5c0.2-1,1.3-1.7,2.3-1.4
		c1.5,0.1,2.9,0.7,4.1,1.6c1.4,0.9,1.9,2.8,1.3,4.3C423.4,415.9,422.2,416.7,420.2,416.7z"/>
	<path class="st33" d="M517.1,425.7c-1.2,1.2-2.3,2-4,1.4c-1-0.1-1.6-1-1.5-2c0-0.2,0.1-0.4,0.2-0.6c0.3-0.8,0.6-1.6,0.9-2.4
		c0.5-1.2,0.8-1.4,1.9-1c1.7,0.6,1.7,0.6,3.3,3.2c0.3-0.2,0.5-0.5,0.8-0.8c1.7-1.4,2.3-1.6,3.5-0.5c1.7,1.5,1.9,3,0.8,4.6
		c-0.5,0.9-1.6,1.3-2.6,1C518.5,428.2,518.2,427.9,517.1,425.7z"/>
	<path class="st34" d="M422.8,396.7c-0.7-0.1-1.3-0.3-2-0.4c-1.5-0.5-1.8-1.2-1.3-2.8c0.2-0.6,0.4-1.2,0.5-1.8
		c0.2-0.8-0.3-1.9,0.4-2.5s1.9-0.3,2.9-0.4h0.4c2.9,0.1,4.4,1.4,4.3,3.6c0.1,2.3-1.8,4.3-4.1,4.4c0,0,0,0,0,0c-0.1,0-0.3,0-0.5,0
		C423.3,396.7,423.1,396.7,422.8,396.7z"/>
	<path class="st35" d="M481.2,401.5c-0.8-0.2-1.6-0.5-2.4-0.8c-1.1-0.5-1.7-1.7-1.2-2.8c0.2-0.6,0.4-1.2,0.7-1.7
		c0.6-1,0.4-2.7,2.1-2.7c2,0,4,0.4,5.3,2.4c0.5,0.9,0.6,2,0.2,2.9C485,400.4,483.2,401.6,481.2,401.5z"/>
	<path class="st35" d="M422.3,399.1c2.5-0.3,4.8,1.5,5.1,4c0,0.2,0,0.5,0,0.7c0.2,1.4-0.7,2.8-2.1,3.1c-2.2,0.6-4.6,0.1-6.2-1.5
		c-0.4-0.3-0.5-0.9-0.3-1.4c0.4-1,0.8-2.1,1.2-3.1C420.4,399.5,421,399.1,422.3,399.1z"/>
	<path class="st36" d="M479.9,410.8c-1,0.1-2.1-0.1-3-0.6c-1.1-0.4-1.7-1.6-1.3-2.8c0-0.1,0.1-0.2,0.1-0.2c0.2-0.6,0.4-1.2,0.7-1.7
		c0.5-1,0.1-2.9,2-2.6c2.1,0.3,4.6,0.3,5.5,3c0.6,1.9-0.9,4.3-3,4.9C480.6,410.8,480.2,410.8,479.9,410.8z"/>
	<path class="st37" d="M476.5,428.3c-1.1-0.1-2.1-0.3-3.1-0.7c-1.7-0.6-2.5-1.7-1.4-3.4c0.2-0.3,0.3-0.7,0.4-1c0.9-2.7,1.5-3,4-2.2
		c0.7,0.2,1.4,0.5,2.1,0.9c1.4,0.6,2.2,2.2,1.8,3.8C479.8,427.5,478.7,428.3,476.5,428.3z"/>
	<path class="st38" d="M439.9,400.6c-0.7-0.1-1.3-0.1-1.9-0.3c-2.3-0.5-2.8-1.6-1.8-3.8c0.4-0.8,0.8-1.6,1.1-2.4
		c0.7-1.5,1.1-1.8,2.5-1.4c0.8,0.2,1.7,0.5,2.5,0.8c1.4,0.4,2.3,1.7,2.1,3.1c0,1.5-0.9,2.9-2.4,3.4
		C441.4,400.4,440.6,400.5,439.9,400.6z"/>
	<path class="st31" d="M441.3,391.3c-0.4,0-0.8-0.1-1.2-0.2c-2.4-0.6-3-1.7-2-4.1c0.2-0.5,0.4-0.9,0.6-1.4c1-2.5,1-2.5,3.7-2
		c0.1,0,0.2,0,0.4,0c2.3,0.6,3.7,2,3.5,3.7C446,389.8,444.1,391.3,441.3,391.3z"/>
	<path class="st12" d="M440.6,410.9c-1.6,0-3.1-0.4-4.4-1.2c-0.7-0.4-1-1.2-0.7-2c0.3-0.9,0.8-1.8,1.2-2.7c1-2.4,1.4-2.6,3.8-1.6
		c0.8,0.3,1.5,0.8,2.2,1.4c1.2,1,1.5,2.7,0.8,4.1C443,409.9,441.9,410.8,440.6,410.9z"/>
	<path class="st12" d="M436.9,419.8c-1,0-1.9-0.2-2.8-0.7c-1.5-0.7-1.6-1-1.2-2.8c0.2-1.1,0.4-2.2,0.7-3.3c0.1-0.7,0.8-1.2,1.5-1
		l0.2,0.1c1.2,0.3,2.4,0.8,3.5,1.3c1.5,0.8,2.2,2.5,1.7,4.1C439.9,419,438.4,419.9,436.9,419.8z"/>
	<path class="st30" d="M479.4,420c-1.2,0-2.3-0.2-3.4-0.7c-1.7-0.6-1.8-1-1.2-2.8c0.4-1,0.7-2.1,1.1-3.1c0.3-0.9,1.2-1.4,2.1-1.2
		c1.6,0.1,3.1,1,4.1,2.4c0.8,1,0.8,2.4,0.1,3.5C481.8,419.3,480.6,420,479.4,420z"/>
	<path class="st39" d="M465.4,390l0.4,0.1c1.7,0.2,3.2,0.7,3.8,2.6c0.4,1.4-0.6,3.6-2.1,4.5c-1.4,0.8-3.3,0.7-4.6-0.3
		c-0.8-0.4-1.1-1.4-0.8-2.3c0.4-1,0.9-2.1,1.3-3.1C463.8,390.1,464.1,389.9,465.4,390z"/>
	<path class="st30" d="M457,395.4c-0.3-0.1-0.9-0.2-1.5-0.3c-1.2-0.3-1.7-1.1-1.1-2.2s0.5-2.4,0.8-3.6c0.2-1.2,1.3-2,2.5-1.8
		c0,0,0,0,0,0c0.1,0,0.2,0,0.3,0.1c0.2,0.1,0.5,0.1,0.7,0.2c2.1,0.8,3.2,2.1,3,3.7C461.3,393.8,459.3,395.5,457,395.4z"/>
	<path class="st40" d="M491.1,413.5c0.7-1.5,1.2-3,1.5-4.6c0.2-1.2,1.3-2,2.5-1.8c0.1,0,0.3,0.1,0.4,0.1c0.5,0.1,1,0.3,1.4,0.5
		c1.9,0.8,2.6,2.2,2.1,3.8c-0.6,2.2-1.9,3.2-4,3c-0.4,0-0.7-0.1-1.1-0.2C493,414.2,492.2,413.9,491.1,413.5z"/>
	<path class="st36" d="M496.4,406c-0.4-0.1-1-0.2-1.6-0.4c-1.3-0.4-1.6-1-1-2.2c0.5-1.1,0.9-2.3,1.1-3.6c0.3-1.1,1.4-1.9,2.6-1.6
		c0,0,0,0,0,0c0.1,0,0.2,0.1,0.4,0.1l0.3,0.1c2.4,0.9,3.3,2.2,2.8,4.1C500.5,404.7,498.6,406.1,496.4,406z"/>
	<path class="st12" d="M459.9,424.3c-0.5-0.2-1.6-0.5-2.6-0.9c-0.8-0.3-1-0.9-0.6-1.8c0.5-1.1,0.8-2.4,1.2-3.5
		c0.1-0.9,1-1.5,1.9-1.4c0,0,0,0,0,0c0.1,0,0.2,0,0.3,0.1c1.2,0.2,2.3,0.9,3.1,1.8c1,1.2,1.1,2.8,0.3,4.2
		C462.9,424,461.9,424.5,459.9,424.3z"/>
	<path class="st40" d="M456.1,419c0.2,1.8-1.2,3.4-3,3.6c-0.4,0-0.7,0-1.1-0.1c-0.6-0.1-1.2-0.3-1.8-0.5c-1-0.3-1.5-1.4-1.2-2.4
		c0.2-0.8,0.6-1.6,0.8-2.4c0.2-0.8-0.1-1.6,0.7-2c0.9-0.4,2-0.3,2.9,0.2C454.8,416,455.9,417.4,456.1,419z"/>
	<path class="st36" d="M455.2,404.9c-0.9,0-1.7-0.2-2.4-0.6c-0.4-0.3-0.8-0.8-0.6-1.2c0.6-1.3,1.1-2.8,1.2-4.2
		c0.2-1,1.2-1.7,2.2-1.6c2.4,0.1,4,1.7,3.9,3.6c0,2.2-1.7,4-3.9,4.1c0,0,0,0,0,0C455.5,404.9,455.3,404.9,455.2,404.9z"/>
	<path class="st40" d="M409.7,405.6c1.5-0.2,2.9,0.6,3.6,1.9c0.9,1.6,0.8,3.5-0.1,5c-0.8,1.4-3.8,1.9-5,0.8c-0.3-0.3-0.4-0.6-0.3-1
		c0.7-1.6,0.8-3.5,0.2-5.1C407.7,406.1,408.3,405.5,409.7,405.6z"/>
	<path class="st41" d="M466.8,411.8c0.2,2-1.2,3.7-3.2,3.9c-0.5,0.1-1,0-1.5-0.2c-0.6-0.1-1.2-0.4-1.7-0.6c-0.8-0.4-1.3-1.3-1-2.2
		c0.3-0.8,0.7-1.6,1-2.4c0.9-2.1,1.1-2.2,2.5-2C465.5,408.9,466.7,410,466.8,411.8z"/>
	<path class="st42" d="M463.2,406.6l-1.3-0.1c-1.3-0.1-1.8-0.6-1.8-1.9c0-1.3,0.3-2.5,0.9-3.6c0.6-1.5,2.2-2.2,3.7-1.6
		c0.1,0,0.2,0.1,0.4,0.2c1.7,0.9,2.6,2.8,2.3,4.7c-0.2,0.9-0.9,1.6-1.8,1.8C464.8,406.4,464,406.5,463.2,406.6z"/>
	<path class="st31" d="M454.9,414c-0.6-0.1-1.2-0.3-1.8-0.5c-1.6-0.6-1.9-1.1-1.1-2.7c0.4-1,0.6-2.1,0.8-3.2c0.2-0.9,1.1-1.5,2-1.3
		c0.1,0,0.2,0.1,0.3,0.1c3.1,0.8,4.5,3.3,3.1,5.8C457.7,413.5,456.3,414.2,454.9,414z"/>
	<path class="st40" d="M497.8,419.6c0.1,1.9-1.3,3.6-3.2,3.7c-0.4,0-0.9,0-1.3-0.1c-0.6-0.1-1.2-0.3-1.8-0.6c-1-0.4-1.3-1.1-0.8-2
		s0.5-2.2,1-3.1c0.2-0.5,0.5-0.8,0.9-1.1C494.3,415.5,497.9,416.9,497.8,419.6z"/>
	<path class="st39" d="M399.3,406.6c0.1-2.5,1.5-3.4,3.6-2.4c1.4,0.6,2.5,1.7,3.2,3c0.6,1,0.5,2.3-0.3,3.1c-0.7,0.8-1.7,1.1-2.7,0.9
		c-2.3-0.2-4.1-2.2-3.9-4.5C399.3,406.7,399.3,406.7,399.3,406.6z"/>
	<path class="st30" d="M475.2,404.5c0,2.3-1.8,4.2-4.1,4.2c-0.4,0-0.9-0.1-1.3-0.2c-1.1-0.3-1.8-1.4-1.5-2.5c0,0,0,0,0,0
		c0,0,0-0.1,0-0.1c0.2-0.9,0.6-1.6,0.9-2.5c0.7-2.1,1-2.4,2.6-2.2C473.7,401.5,475.2,402.9,475.2,404.5z"/>
	<path class="st36" d="M477.1,394.7c0,3.2-3,5.8-5.7,4.3c-1.1-0.4-1.6-1.6-1.2-2.6c0,0,0,0,0,0c0,0,0-0.1,0-0.1
		c0.3-0.9,0.8-1.8,1.1-2.8c0.6-1.8,0.6-1.9,2.5-1.7C475.8,392.1,477,393.2,477.1,394.7z"/>
	<path class="st30" d="M408,383.6c-1.2-0.5-2.9-0.4-4.5-0.5c-0.9-0.1-1.2-0.8-0.9-1.6c0.8-2.2,2.6-3.3,4.7-3.9
		c1.4-0.4,2.5,0.4,3.3,1.9c0.7,1.2,0.5,2.8-0.5,3.8C409.5,383.7,408.7,383.8,408,383.6z"/>
	<path class="st41" d="M447.3,402.8c-0.9-0.1-1.5-0.1-2-0.6c-0.2-0.2-0.5-0.8-0.4-0.9c0.9-1.5,1.3-3.3,1.2-5c0-0.7,0.6-1.2,1.2-1.2
		c1.9-0.3,3.8,0.8,4.4,2.7c0.5,1.9-0.6,3.9-2.5,4.5C448.6,402.6,447.9,402.7,447.3,402.8z"/>
	<path class="st43" d="M453.6,389.6c-0.2,2.4-2.9,4.2-5.5,3.6c-1.2-0.2-1.4-0.8-1-2.1c0.6-1.3,0.9-2.8,0.8-4.3
		c-0.1-0.8,0.5-1.2,1.1-1.2c2.1-0.4,4.2,1.1,4.5,3.2C453.6,389,453.6,389.3,453.6,389.6z"/>
	<path class="st32" d="M473.9,414.2c-0.1,1.5-0.5,2.8-2,3.3c-1.5,0.6-3.3,0.3-4.5-0.9c-0.3-0.3-0.4-0.6-0.3-1
		c0.6-1.6,1.2-3.3,1.9-4.9c0.2-0.5,0.8-0.7,1.3-0.6C472.3,410.3,473.9,412.1,473.9,414.2z"/>
	<path class="st12" d="M486.9,412.8c-0.6-0.1-1.2-0.2-1.8-0.4s-1.1-0.8-0.7-1.4c0.9-1.4,1.3-3,1.2-4.6c-0.1-1,0.7-1.5,1.8-1.3
		l0.7,0.2c2.2,0.6,3,1.5,3.1,3.2c0.1,2-1.2,3.7-3.1,4.1C487.8,412.7,487.4,412.7,486.9,412.8z"/>
	<path class="st40" d="M488.5,403.7c-0.4-0.1-0.8-0.2-1.2-0.3c-0.7-0.1-1.2-0.7-1.1-1.3c0,0,0,0,0,0c0-0.2,0.1-0.4,0.2-0.6
		c0.9-1.4,1.4-3,1.3-4.6c0-0.6,0.5-1,1.1-1h0.2c0.6,0.1,1.2,0.2,1.8,0.4c1.3,0.3,2.2,1.3,2.4,2.6c0.3,1.4-0.3,2.8-1.4,3.6
		C490.9,403.2,489.7,403.6,488.5,403.7z"/>
	<path class="st44" d="M390.3,392.3c-0.1-5,2.3-8.2,6.8-9.3c0.5-0.1,1-0.2,1.3,0.3c0.3,0.6,0.1,1.3-0.5,1.6
		c-0.4,0.3-0.9,0.5-1.2,0.8c-3.1,2.4-4.8,5.4-3.6,9.4c0.1,0.4,0.1,0.7,0.1,1.1c0,0.2-0.2,0.6-0.3,0.6c-0.4,0-0.7-0.1-1-0.3
		C390.7,395.2,390.8,393.5,390.3,392.3z"/>
	<path class="st45" d="M462.4,388.3c0.6-1.3,1.7-2.3,2.9-3c2.5-1.5,5.8-0.7,7.4,1.8c0,0,0,0,0,0c0.1,0.2,0.2,0.3,0.3,0.5
		c0.4,1.1-0.2,2.4-1.3,2.8c-0.5,0.2-1.1,0.2-1.7-0.1C467.8,388.6,465.4,388.3,462.4,388.3z"/>
	<path class="st40" d="M444.6,421.2c-0.4-0.1-1.2-0.3-1.9-0.5c-1.3-0.4-1.5-1-1-2.3c0.5-1,0.8-2.1,0.7-3.2c-0.1-1.7,0.4-2,1.9-1.6
		c1.3,0.3,2.5,1.2,3.1,2.5c0.9,1.7,0.2,3.9-1.6,4.7C445.6,421.1,445.1,421.2,444.6,421.2L444.6,421.2z"/>
	<path class="st46" d="M410.6,393.9c-0.1-0.6,0.2-1.3,0.6-1.7c0.7-0.8,1.3-1.8,1.6-2.9c0.3-1.2,1.5-2,2.7-1.7c0.5,0.1,1,0.4,1.3,0.8
		c1.8,1.9,0.9,5.8-1.6,6.5c-0.4,0.1-0.7,0.1-1.1,0C412.9,394.8,411.7,394.5,410.6,393.9z"/>
	<path class="st40" d="M447,412.3c-0.3,0-0.7-0.1-1-0.2c-1.6-0.4-2-1.1-1.1-2.6c0.6-1,0.9-2,0.9-3.1c0-1.6,0.9-2.1,2.4-1.5
		c0.9,0.4,1.7,1.1,2.2,1.9c0.9,1.1,0.9,2.7,0.1,3.8C449.8,411.9,448.4,412.6,447,412.3z"/>
	<path class="st46" d="M431.8,381.5c2.1,0.1,3.9,0.4,4.7,2.5c0.6,1.7-0.1,3.1-1.2,4.4c-1.7,1.9-3.4,0.4-5.7,0.4
		C431.9,386.6,431.6,384,431.8,381.5z"/>
	<path class="st41" d="M414.8,396.3c1.7,0.2,3,1.6,2.9,3.3c0,0.5-0.1,1-0.3,1.5c-0.8,2.8-3.1,3.6-5.5,2c-0.3-0.2-0.5-0.6-0.3-1
		c0.6-1.1,0.8-2.4,0.6-3.6c-0.3-1.4,0.4-2,1.8-2.2C414.3,396.4,414.5,396.4,414.8,396.3z"/>
	<path class="st47" d="M430,403.4c-0.2-1.3-0.4-1.8-0.4-2.2c0-0.5,0.3-0.7,0.7-0.7c1.5-0.2,3,0.6,3.7,2c0.7,1.7,0.9,3.4-0.5,4.9
		c-1,1.2-2.6,1.6-4.1,1.1c-0.7-0.2-1.2-0.9-1-1.7c0.1-0.2,0.2-0.4,0.3-0.6C429.5,405.3,429.9,404.4,430,403.4z"/>
	<path class="st39" d="M471,422.6c0.2,1.7-1.1,3.3-2.8,3.4c0,0,0,0,0,0h-0.3c-0.9,0.1-1.7-0.2-2.5-0.6c-0.6-0.4-1.1-0.8-0.7-1.5
		c0.8-1.4,1.2-3,1.1-4.7c0-0.6,0.5-0.8,1.1-0.7C469.4,418.9,470.9,420.4,471,422.6z"/>
	<path class="st48" d="M491.4,431.7c-1.5,0.1-2.9-1.1-2.9-2.6c0,0,0,0,0,0c0-0.4,0-0.8,0.2-1.2c0.2-0.7,0.5-1.4,0.7-2.1
		c0.4-1.4,1.1-1.8,2.4-1.4c1.6,0.4,2.8,1.8,3,3.5c0.1,1.6-0.9,3-2.3,3.5C492.1,431.5,491.7,431.6,491.4,431.7z"/>
	<path class="st40" d="M483.4,419.8c0-0.3,0.1-0.6,0.3-0.9c0.8-1,1.1-2.2,0.9-3.4c-0.1-1.2,0.8-1.7,2-1.3c2.7,1,3.8,2.7,3.1,5.1
		c-0.3,1.4-1.6,2.4-3,2.4c-0.9,0-1.7-0.2-2.5-0.5C483.7,420.9,483.4,420.4,483.4,419.8z"/>
	<path class="st40" d="M430.6,399c-0.5-0.1-1-0.2-1.5-0.3c-0.5-0.2-0.9-0.7-0.5-1.1c1.3-1.6,1.8-3.5,1.6-5.5c0-0.8,0.6-0.9,1.3-0.9
		c0.9,0,1.7,0.4,2.4,0.9c0.4,0.3,0.7,0.7,0.9,1.1C435.8,395.6,433.5,399,430.6,399z"/>
	<path class="st49" d="M487.5,426.5c0,2.4-1.4,3.7-3.8,3.4c-0.7-0.1-1.5-0.3-2.1-0.6c-0.5-0.2-0.8-0.7-0.7-1.2c0,0,0,0,0,0
		c0-0.1,0.1-0.2,0.1-0.3c0.9-1.1,1.4-2.6,1.1-4.1c-0.1-0.6,0.5-0.9,1-0.9C485.5,422.6,487.4,424.3,487.5,426.5z"/>
	<path class="st43" d="M412,385c0.8-2.2,2.7-3.9,1.6-6.2c1-0.6,2.2-0.7,3.2-0.2c2,1,2.8,3.4,1.8,5.4c-0.2,0.3-0.4,0.6-0.6,0.9
		c-0.5,0.4-1.1,0.7-1.7,0.6C414.9,385.3,413.6,385.2,412,385z"/>
	<path class="st40" d="M427,417.7c-0.3,0-0.6-0.1-0.9-0.1c-0.9-0.1-1.3-0.9-0.9-1.6c1-1.4,1.4-3.2,0.9-4.9c-0.1-0.5,0-1,0.6-1
		c2.6,0,4.3,1.5,4.3,4C431.1,416.7,429.9,417.8,427,417.7z"/>
	<path class="st50" d="M502,416.7c-0.5-0.1-1-0.3-1.5-0.5c-0.6-0.2-1-0.8-0.9-1.5c0,0,0,0,0,0c0-0.1,0.1-0.2,0.1-0.3
		c0.7-1.1,1.1-2.5,1-3.8c0.1-0.6,0.7-1.1,1.3-1l0,0c1.1,0,2.2,0.4,3.1,1.1c0.4,0.3,0.6,0.8,0.8,1.2c0.5,2.2-0.9,4.3-3.1,4.8
		C502.7,416.7,502.4,416.7,502,416.7z"/>
	<path class="st51" d="M440.7,422.8c-3.8,1.9-7.5,1.4-11.1-0.5c-0.5-0.3-1-0.8-1.3-1.3c-0.2-0.3,0-0.7,0.3-0.9
		c0.6-0.4,1.4-0.5,2.2-0.4c1,0.2,1.9,0.5,2.9,0.8c1.4,0.5,2.9,0.7,4.4,0.5C439.7,420.8,439.8,420.9,440.7,422.8L440.7,422.8z"/>
	<path class="st43" d="M455.2,381.4c2.2,0,4,0.5,5.2,2.2c0.3,0.5,0.5,1.1,0.7,1.7c0.1,0.6-0.3,1.2-0.9,1.3c0,0,0,0,0,0h-0.1
		c-2.4,0.1-4.7-0.4-6.9-1.4c-0.7-0.4-1-1.2-0.8-1.9c0-0.8,0.5-1.5,1.2-1.7C454.2,381.4,454.7,381.4,455.2,381.4z"/>
	<path class="st45" d="M503.8,407.9c-0.3,0-0.5-0.1-0.8-0.1c-0.9,0-1.5-0.8-1.5-1.6c0,0,0,0,0,0c0-0.2,0-0.3,0.1-0.5
		c0.3-0.9,0.6-1.9,0.8-2.9c0.2-1.4,0.9-1.9,2.3-1.7c2.2,0.3,3.7,1.7,3.4,3.2C507.7,406.7,506.2,408,503.8,407.9z"/>
	<path class="st52" d="M501.7,429.1c0.1,1.4-0.7,2.7-2,3.2c-1.3,0.4-2.8,0-3.8-1c-0.3-0.4-0.4-0.9-0.4-1.4c0.1-0.6,0.3-1.2,0.6-1.8
		c0.5-1,0.2-2.7,2.1-2.4S501.6,427.4,501.7,429.1z"/>
	<path class="st37" d="M476.6,430c-0.8,1.5-2.3,2.6-4,2.7c-1.5,0.3-3,0.1-4.3-0.6c-1.6-0.9-1.8-1.9-0.6-3.3c0.3-0.4,0.6-0.8,1-1.1
		c0.3-0.4,0.9-0.5,1.4-0.3C472,428.7,474.4,429,476.6,430z"/>
	<path class="st41" d="M501.4,424.5c-0.9,0-1.7-0.3-2.4-0.9c-0.2-0.2-0.5-0.7-0.4-0.9c0.5-1.3,0.8-2.6,0.9-3.9
		c0.1-0.6,0.7-1.1,1.3-1c2-0.1,3.7,1.5,3.8,3.5c0,0.3,0,0.6-0.1,0.9C504.4,423.7,503,424.8,501.4,424.5L501.4,424.5z"/>
	<path class="st20" d="M511.6,434.8c-2-0.2-2.8-1.3-2.2-3.3c0.2-0.7,0.4-1.4,0.5-2.1c0.2-1.2,1.1-1.6,2.2-1.1
		c0.7,0.3,1.3,0.6,1.9,1.1c1.4,1,1.6,3,0.6,4.3C513.9,434.6,512.8,435.1,511.6,434.8L511.6,434.8z"/>
	<path class="st37" d="M508.5,430.8c0.1,1.4-0.9,2.6-2.3,2.7c-0.2,0-0.4,0-0.6,0c-0.7,0-1.5-0.2-2.1-0.5c-0.8-0.4-1.3-1.3-1.1-2.2
		c0.2-1,0.5-1.9,0.8-2.8c0.2-0.6,0.8-1,1.5-1c2-0.1,3.7,1.4,3.8,3.4c0,0,0,0,0,0C508.5,430.5,508.5,430.7,508.5,430.8z"/>
	<path class="st53" d="M391.9,383.7c-1.8,2.9-2.7,6.2-2.4,9.6c0,0.9,0.2,1.7,0.5,2.5c0.2,0.6,1.1,1.4,0,1.8
		c-0.8,0.3-1.3-0.6-1.7-1.1c-0.7-0.8-1.1-1.9-1.2-3c-0.2-2.1,0.1-4.3,0.7-6.3C388.4,385.6,389.4,384.5,391.9,383.7z"/>
	<path class="st43" d="M520.9,421.3c-0.2,0-0.5-0.1-0.7-0.1c-0.6-0.1-1.1-0.6-1-1.3c0,0,0,0,0,0c0,0,0,0,0,0
		c0.1-0.7,0.4-1.4,0.4-2.2c0.1-1,0-2.1,1.2-2.4c1.5-0.4,3.1,0.2,3.9,1.6c0.6,1.1,0.4,2.5-0.5,3.4
		C523.4,421.1,522.2,421.5,520.9,421.3z"/>
	<path class="st36" d="M495.7,392.4c2.1,0.6,4.5,1.3,6.2,3.5c0.3,0.4,0.4,1,0.1,1.4c-0.3,0.6-1,0.9-1.6,0.6
		c-1.7-0.7-3.5-1.1-5.4-1.2c-0.9,0-1.3-0.8-1.3-1.6C493.5,393.7,494.4,392.3,495.7,392.4z"/>
	<path class="st39" d="M526.7,410.9c-0.1,1-0.8,1.9-1.7,2.3c-1.3,0.6-2.6,0.9-3.8,0c-0.4-0.3-0.6-0.8-0.5-1.3
		c0.2-0.8,0.4-1.7,0.7-2.5c0.5-1.6,1.3-2.1,2.7-1.8C526,408,526.8,408.9,526.7,410.9z"/>
	<path class="st46" d="M510.5,409.8c-0.5-0.2-1-0.4-1.5-0.7c-0.5-0.3-0.7-0.8-0.5-1.3c0.4-1.2,1.2-2.2,1-3.6
		c0.1-0.4,0.3-0.7,0.7-0.8c1.4-0.8,3.9,0.5,4.2,2c0.3,2.1-1.3,4.1-3.4,4.3C510.8,409.8,510.7,409.8,510.5,409.8z"/>
	<path class="st54" d="M518.7,435.9c-0.5-0.1-1-0.1-1.5-0.2c-0.9-0.2-1.5-1.1-1.3-2c0.1-0.8,0.5-1.7,0.6-2.5
		c0.2-1.6,1.3-1.7,2.4-1.4c0.8,0.2,1.6,0.7,2.2,1.3c0.8,0.8,1,2.1,0.5,3.1C521.1,435.4,520.4,435.9,518.7,435.9z"/>
	<path class="st43" d="M512.6,414.2c0.1,1.9-1.4,3.6-3.3,3.7c-0.2,0-0.3,0-0.5,0c-1.7-0.2-2.4-0.9-1.6-2.5c0.3-0.7,0.5-1.4,0.6-2.1
		c0.1-1.7,0.9-2.1,2.5-1.6C511.8,412.1,512.6,413,512.6,414.2z"/>
	<path class="st45" d="M520.4,408.2c-0.1,1.3-0.8,2.6-2,3.2c-1.1,0.7-2.4,0.7-3.5,0.1c-0.5-0.2-0.7-0.8-0.5-1.2c0.3-1,0.9-2,1.2-3.1
		c0.5-1.7,1.8-2.4,3.8-1C520,406.6,520.4,407.4,520.4,408.2z"/>
	<path class="st39" d="M518.4,416.4c0.1,1.8-1.2,3.3-3,3.4c0,0,0,0,0,0c-0.4,0-0.8,0-1.2-0.1c-1-0.3-1.6-1.3-1.4-2.3c0,0,0,0,0,0
		c0,0,0,0,0-0.1c0.2-0.7,0.6-1.4,0.8-2.1c0.6-1.6,1.1-2.2,2.2-2C517.8,413.8,518.4,414.5,518.4,416.4z"/>
	<path class="st55" d="M453.1,428.1c-1.2,0-2.5-0.3-3.6-0.9c-0.6-0.2-0.5-0.8-0.2-1.2c2.7-3.2,4.7-3.1,8.1-0.7
		c0.6,0.4,0.2,0.9-0.2,1.3C456.1,427.6,454.7,428.2,453.1,428.1z"/>
	<path class="st56" d="M440.6,422.9c2,0,3.8-1.1,5.8-0.7c0.6,0.1,1.2,0.2,1.8,0.4c0.6,0.3,0.9,1,0.6,1.5c0,0.1-0.1,0.2-0.2,0.3
		c-0.9,0.9-2,1.5-3.3,1.6c-0.9,0.1-1.7,0.1-2.6,0c-2.1-0.2-2.5-0.8-2-3.2L440.6,422.9z"/>
	<path class="st33" d="M507.4,426c-0.5-0.2-0.9-0.4-1.4-0.6c-0.5-0.2-0.7-0.8-0.5-1.3c0.5-1.1,0.9-2.3,1.1-3.5
		c0.2-0.6,0.8-1,1.5-0.9c1.8,0.1,3.1,1.6,3,3.4c0,0.3-0.1,0.6-0.2,0.9C510.4,425.6,509.4,426.2,507.4,426z"/>
	<path class="st10" d="M525.8,430.5c-1.1-0.9-2.1-1.8-1.2-3.4c0.2-0.5,0.3-0.9,0.3-1.4c0-0.8,0.5-1.4,1.2-1.7
		c0.7-0.3,1.9,0.4,2.5,1.2c0.8,1.1,1,2.5,0.7,3.9l0.1-0.1L525.8,430.5L525.8,430.5z"/>
	<path class="st57" d="M528.9,415.4c-0.3,0-0.7-0.1-1-0.2c-0.5-0.2-0.9-0.7-0.7-1.1c0.4-1.2,0.8-2.3,1-3.5c0.4-0.8,1.3-1.2,2.2-0.9
		c1.4,0.3,2.3,1.7,2.1,3.1C532.1,414.4,530.6,415.5,528.9,415.4z"/>
	<path class="st40" d="M525.9,421c0.2-1.1,0.3-2.1,0.6-3c0.1-0.6,0.7-1.1,1.3-1.1c1.6-0.1,2.9,1.1,3,2.6c0,0.3,0,0.7-0.1,1
		c-0.3,1.2-1.3,2.1-2.6,2.4C526.6,423.1,525.7,422.3,525.9,421z"/>
	<path class="st57" d="M546.8,425.2c-0.8,0.4-1.5,0.9-2.2,1.2c-0.7,0.3-1.5,0.3-2.1-0.1c-0.5-0.2-0.8-0.6-0.8-1.1
		c0-0.5,0.1-1,0.1-1.5c0.2-1.9,0.5-2.4,1.6-2.5c1.4-0.3,2.8,0.5,3.3,1.9C546.8,423.8,546.8,424.5,546.8,425.2L546.8,425.2z"/>
	<path class="st58" d="M502.8,399.2c0.5-1.2,1.6-2,2.9-2.1c1.2-0.3,2.5,0,3.6,0.6c0.7,0.5,1.2,1.3,1.3,2.1c0.1,1.3-1.1,2.2-2.1,1.5
		C506.7,400.3,504.8,400,502.8,399.2z"/>
	<path class="st20" d="M496.7,433.7c-2.6,2.2-5.5,2.4-8.5,1.9c-0.5-0.1-0.5-0.6-0.3-0.8c0.7-1.3,2.1-2.2,3.6-2.2
		C493.2,432.4,495.1,432.2,496.7,433.7z"/>
	<path class="st25" d="M504.1,435.3c-1,1-2.4,1.7-3.9,1.9c-1.8,0.2-3.8-0.3-3.7-1c0-1,2.7-2.9,4-2.9
		C501.6,433.4,502,433.6,504.1,435.3z"/>
	<path class="st59" d="M536.2,420.6c-0.1,1.7-1.6,3-3.3,2.9c0,0,0,0,0,0c-0.3,0-0.5-0.1-0.8-0.1c-0.3-0.2-0.5-0.5-0.5-0.9
		c0.1-0.9,0.3-1.7,0.4-2.5s0.3-1.7,1.4-1.8c1-0.2,2,0.4,2.4,1.3C536,419.9,536.1,420.2,536.2,420.6z"/>
	<path class="st26" d="M490,394.5c-0.6,0-1.9-0.1-3.1-0.3c-0.9-0.1-1.6-0.8-1.8-1.6c-0.2-0.6,0.1-1.2,0.6-1.5c0,0,0,0,0,0h0
		c2.1-0.5,4.2,0,5.9,1.3c0.4,0.5,0.5,1.2,0.2,1.7C491.5,394.7,491.1,394.8,490,394.5z"/>
	<path class="st60" d="M539,418.6c-0.3-0.1-0.7-0.1-1-0.2c-0.5-0.1-0.7-0.6-0.6-1.1v-0.1c0.4-0.9,0.8-1.8,1.2-2.7
		c0.2-0.7,0.9-1.2,1.7-1.2c1.2,0.1,2.1,1,2.1,2.2c0.1,1.7-1.2,3.1-2.9,3.2c0,0,0,0,0,0C539.3,418.6,539.1,418.6,539,418.6z"/>
	<path class="st46" d="M427.7,375.5c1.8,0.2,3.4,0.9,4.9,1.9c0.5,0.3,0.7,1,0.5,1.6c-0.2,0.6-0.8,1-1.4,1c-1.9,0-3.7-0.9-4.8-2.4
		c-0.4-0.3-0.5-0.9-0.2-1.3c0,0,0,0,0,0l0,0C426.9,376,427.3,375.8,427.7,375.5z"/>
	<path class="st61" d="M541.9,428.1c1.2,0,2.3,0.6,2.7,1.7c0.5,1.2,0.1,2.6-1,3.3c-1,0.5-2.3,0.4-3.1-0.4c-0.3-0.3-0.4-0.6-0.4-1
		c0.1-1.1,0.4-2.2,1-3.1C541.2,428.4,541.6,428.2,541.9,428.1z"/>
	<path class="st62" d="M398.3,392.5c-0.8,1.2-1.4,2.6-1.8,4c-0.1,0.3-0.4,0.5-0.8,0.6c-0.3,0-0.6-0.4-0.7-0.7
		c-0.7-1.8-0.9-3.6-0.6-5.5c0.1-0.6,0-1.4,0.6-1.6c1-0.4,1.1,0.7,1.5,1.2C397.1,391.1,397.7,391.8,398.3,392.5z"/>
	<path class="st46" d="M437,376.9c1.9,0,2.5,0.5,3.3,2.6c0.3,0.7,0,1.6-0.7,2c-0.2,0.1-0.4,0.1-0.6,0.1c-0.9,0.2-1.8-0.1-2.4-0.8
		c-0.7-0.7-1.2-1.6-1.4-2.6c-0.2-0.9,0.2-1.4,1.2-1.4L437,376.9z"/>
	<path class="st63" d="M458.7,428.7c0-0.1,0.1-0.3,0.1-0.4c0.7-1.9,2.7-2.9,4.6-2.2l0.2,0.1c0.7,0.3,1.5,0.7,1.5,1.5
		s-0.8,1.1-1.4,1.5c-1.3,0.8-2.9,0.9-4.3,0.4C459.2,429.2,458.9,428.9,458.7,428.7z"/>
	<path class="st60" d="M535,411.4c2,0,3.1,1.6,2.3,3.3s-2.3,2.5-3.9,1.8c-0.3-0.1-0.7-0.6-0.7-0.8c0.4-1.3,0.8-2.6,1.3-3.8
		C534.2,411.5,534.8,411.5,535,411.4z"/>
	<path class="st64" d="M543.1,417.4c0-0.4,0.1-0.7,0.1-1.1c0.1-0.6,0.6-1.1,1.3-1.1c0.6,0,1.2,0.1,1.8,0.2c0.8,0.2,1.3,0.9,1.2,1.7
		c0.1,1-0.4,2-1.2,2.5c-0.8,0.5-1.7,0.5-2.5,0.1C542.8,419.3,543.2,418.3,543.1,417.4z"/>
	<path class="st65" d="M529.4,429c1.2-0.3,0.9-1.6,1.5-2.4c0.4-0.6,1.3-0.9,1.9-0.5c1.3,0.6,1.8,2.2,1.3,3.5c-0.4,1.2-1.8,1.9-3,1.5
		C529.9,430.9,529.7,429.9,529.4,429L529.4,429z"/>
	<path class="st66" d="M536.7,426.7c1.6,0.2,2.8,1.6,2.7,3.2c0,0.3-0.1,0.6-0.2,0.8c-0.6,1.2-2.1,1.6-3.2,1
		c-0.2-0.1-0.4-0.2-0.5-0.4c-0.2-0.2-0.4-0.5-0.4-0.6c0.3-1.3,0.6-2.6,1-3.9C536.1,426.8,536.5,426.8,536.7,426.7z"/>
	<path class="st55" d="M533.9,435c0-0.4,0.1-0.9,0.3-1.3c0.3-0.4,0.7-0.7,1.2-0.7c1.6,0.1,2.8,1.3,3,2.8c0.1,1.2-0.8,2.2-2,2.3
		c-1.1,0.2-2.2-0.6-2.3-1.8v0C534,435.9,534,435.5,533.9,435z"/>
	<path class="st67" d="M539,419.8c1,0.1,1.7,0.9,1.9,1.9c0.3,1.6-0.8,3.2-2.4,3.5h-0.1c-1.6,0.3-2.2-0.4-1.7-2
		c0.2-0.8,0.4-1.7,0.7-2.5C537.5,420.2,537.9,419.9,539,419.8z"/>
	<path class="st68" d="M546.8,425.3c0.3-0.2,0.5-0.5,0.6-0.9c0.2-0.7,0.2-1.5,1.2-1.6c1.1-0.2,2.3,0.5,2.7,1.6
		c0.3,0.9,0,1.8-0.7,2.4c-0.5,0.5-1.3,0.8-2,0.8c-0.8,0.1-1.4-0.4-1.6-1.2c0,0,0-0.1,0-0.1C546.9,425.9,546.9,425.6,546.8,425.3
		L546.8,425.3z"/>
	<path class="st69" d="M554.3,434.2c-0.3,0.1-0.6,0.3-1,0.4c-0.8,0.7-2.1,0.7-2.8-0.1c-0.1-0.1-0.2-0.3-0.3-0.4
		c-0.2-0.4-0.7-0.7-1.2-0.7c-0.6-0.6-0.6-1.6,0-2.3c0,0,0,0,0,0c0,0,0.1-0.1,0.1-0.1c0.1,0.1,0.2,0.2,0.2,0.3c0.7,1,0.7,1,1.3,0.3
		c0.9-1.3,1.7-1.4,2.6-0.3C554.1,432,554.5,433.2,554.3,434.2L554.3,434.2z"/>
	<path class="st70" d="M544.5,437.9c-0.2-1,0.3-2,1.2-2.5c0.7-0.3,1.5-0.2,2,0.5c0.9,0.8,1.1,2,0.5,3c-0.4,0.8-1.3,1.3-2.2,1.1
		C545.1,440,544.5,439.2,544.5,437.9z"/>
	<path class="st71" d="M555.8,426.3c0,1.6-1.6,2.8-3.5,2.5c-0.4,0-0.8-0.3-0.6-0.7c0.2-1,0.5-1.9,0.9-2.8c0.3-0.6,0.9-0.9,1.6-0.7
		C555,424.7,555.7,425.4,555.8,426.3z"/>
	<path class="st52" d="M549.2,431l-0.1,2.4c-0.8,1.4-2,1.1-3.2,0.6c-0.4-0.2-0.6-0.8-0.4-1.3l0,0c0.6-1.1,0.2-2.9,2-3.1
		C548.5,429.5,549.2,429.8,549.2,431z"/>
	<path class="st72" d="M434.6,374.5l-10-5c0.5-0.2,1.3-0.1,1.6-0.8c3.2,1.5,6.2,3.3,9.2,5.2L434.6,374.5z"/>
	<path class="st73" d="M552.4,418.9c0.2,1.2-0.7,2.3-1.9,2.5c-0.2,0-0.4,0-0.6,0c-1.2-0.1-1.7-0.8-1.4-2c0.1-0.3,0.2-0.7,0.4-1
		c0.4-1.1,1.2-1.6,1.9-1.3C551.6,417.4,552.3,418.1,552.4,418.9z"/>
	<path class="st74" d="M549.7,438.7v-0.4c0.1-1.4,0.7-2.1,1.6-1.9c1,0.2,1.7,1.1,1.7,2.1c0.1,1.1-0.7,2.1-1.9,2.2c0,0,0,0,0,0l0,0
		C550.2,440.8,549.6,440,549.7,438.7z"/>
	<path class="st66" d="M553.8,423.1c-1.2-0.1-1.4-0.5-0.9-1.7c0.2-0.4,0.3-0.7,0.5-1c0.3-0.7,0.7-1.3,1.6-1.2
		c0.8,0.1,1.4,0.6,1.6,1.4c0.2,0.9-0.2,1.7-0.9,2.2C555,423.1,554.4,423.2,553.8,423.1z"/>
	<path class="st69" d="M554.3,434.3c0.3-0.7,0.6-1.3,1-2c0.4-0.6,1.1-0.7,1.7-0.4c0,0,0,0,0,0c0.1,0,0.1,0.1,0.2,0.1
		c1,1,1.2,2,0.5,3C556.6,436.7,555.4,436.3,554.3,434.3L554.3,434.3z"/>
	<path class="st75" d="M557.8,425.8c0.8-0.1,1.6,0.4,1.9,1.2c0.2,1.1-0.5,2.2-1.6,2.6c-0.6,0.2-1.2,0.1-1.7-0.4
		c-0.3-0.4-0.4-0.9-0.2-1.3c0.2-0.5,0.3-0.9,0.5-1.4C557,426.1,557.4,425.9,557.8,425.8z"/>
	<path class="st76" d="M421.7,377.8c-1.2,0.2-2.5-0.1-3.5-0.8c-0.2-0.1-0.3-0.4-0.3-0.6c0-0.2,0.2-0.5,0.4-0.6
		c1.6-0.8,3.5-0.5,4.7,0.8c0.1,0.1,0,0.2,0.1,0.3c0.1,0.2,0,0.4-0.2,0.5c0,0,0,0,0,0h-0.1L421.7,377.8z"/>
	<path class="st75" d="M561.9,434.8c0,0.9-0.7,1.7-1.6,1.7c0,0,0,0,0,0c-0.2,0-0.4,0-0.7-0.1c-0.3-0.1-0.6-0.4-0.7-0.7
		c-0.1-0.5-0.1-1,0-1.4c0.3-1.1,1-1.8,1.7-1.5C561.5,433.1,562,433.9,561.9,434.8z"/>
	<path class="st57" d="M560.2,423.7c-0.3,0-0.5,0.1-0.6,0.4l0,0c-0.8,0.4-1.7,0.7-2.2-0.3c-0.5-1.2,0.1-2.5,1.2-3l0,0
		c0.5-0.2,1-0.1,1.3,0.3c0.5,0.6,0.8,1.2,1.2,1.8v-0.1C560.8,423.2,560.5,423.4,560.2,423.7z"/>
	<path class="st27" d="M394.7,380.7c0.1,0.6,0.6,1.1-0.1,1.7c-0.8,0.5-1.8,0.8-2.8,0.6c-0.9,0-1.7-0.5-2.1-1.3
		C391.2,380.5,393,380.7,394.7,380.7L394.7,380.7z"/>
	<path class="st77" d="M517.3,403.1c-0.1,0.2-0.2,0.5-0.3,0.6c-0.3,0.2-0.7,0.2-1,0.2c-1.5-0.4-3-1.6-2.9-2.5
		c0.1-0.2,0.2-0.4,0.5-0.4c1.5-0.3,3,0.5,3.8,1.8C517.3,402.9,517.3,403,517.3,403.1z"/>
	<path class="st78" d="M556.9,439.5c-0.1,0.4-0.2,0.8-0.4,1.1c-0.2,0.3-0.5,0.5-0.9,0.5c-0.4,0-0.7-0.2-0.9-0.5
		c-0.4-0.8-0.5-1.7-0.3-2.5c0-0.5,0.3-1,0.8-1c0,0,0,0,0,0l0,0c0.5-0.1,1,0.2,1.2,0.6C556.6,438.4,556.8,439,556.9,439.5z"/>
	<path class="st79" d="M566.3,435.7L566.3,435.7c0.1-0.7,0.1-1.3,0.9-1.5c0.6-0.1,1.3,0.1,1.6,0.7c0.5,0.5,0.5,1.2,0.2,1.7
		c-0.3,0.4-0.6,0.7-1,1c-0.4,0.3-1.1,0.3-1.4-0.2c0,0,0,0,0,0c-0.1-0.2-0.2-0.4-0.2-0.6C566.2,436.5,566.3,436.3,566.3,435.7z"/>
	<path class="st80" d="M565.6,435.2c0.1,1-0.7,1.9-1.8,1.9c0,0,0,0,0,0l0,0c-0.5,0.1-1-0.3-1.1-0.8c-0.2-1,0.2-2,0.9-2.7
		c0.3-0.2,0.7-0.2,1,0C565.2,434.1,565.6,434.6,565.6,435.2z"/>
	<path class="st81" d="M567.9,430.4c-0.8,0.5-1.6,1.1-2.5,1.6c-0.4,0.2-1.3-0.5-1.3-1c0.1-0.7,0.4-1.4,1-1.9
		c0.4-0.5,1.1-0.5,1.5-0.2c0,0,0,0,0,0c0,0,0.1,0.1,0.1,0.1c0.4,0.5,0.7,1,1,1.5L567.9,430.4z"/>
	<path class="st22" d="M564.9,424.4c1.7-0.5,2-0.4,2.7,0.9c0.2,0.5,0.3,0.9,0.4,1.4l0-0.1l-0.7,0.2
		C564.8,427.5,564.4,427.1,564.9,424.4L564.9,424.4z"/>
	<path class="st78" d="M561.6,430.6c-0.6,0-1.2-0.5-1.2-1.1c0,0,0,0,0,0l0,0c0.1-1.3,0.8-2.1,1.6-2.1c0.8,0,1.4,0.6,1.4,1.4
		C563.5,429.8,562.6,430.6,561.6,430.6L561.6,430.6z"/>
	<path class="st82" d="M522.5,406.4c-0.5-0.1-0.9-0.2-1.4-0.4c-1.1-0.5-1.6-1.2-1.3-1.9s1-0.8,2.2-0.2c0.4,0.2,0.8,0.4,1.2,0.8
		c0.2,0.3,0.2,0.7,0.2,1C523.2,406,522.9,406.3,522.5,406.4z"/>
	<path class="st83" d="M529.5,407.4c-0.1,0.2-0.2,0.4-0.4,0.5c-0.2,0.1-0.4,0.2-0.7,0.2c-1.3-0.2-3-1.6-2.9-2.4
		c0-0.1,0.1-0.2,0.2-0.2c1.1-0.5,2.9,0.2,3.7,1.6C529.5,407.2,529.4,407.3,529.5,407.4z"/>
	<path class="st84" d="M567.9,426.7c0.2-0.1,0.4-0.3,0.6-0.4c1.1-0.6,1.7-0.5,2.1,0.3c0.3,0.7,0,1.5-0.7,1.9c-0.8,0.4-1.4,0-1.9-1.1
		C568,427.2,567.9,426.9,567.9,426.7L567.9,426.7z"/>
	<path class="st85" d="M532.9,407.8c1-0.1,1.9,0.4,2.4,1.3c0.2,0.3,0.2,0.7-0.2,0.9c-1,0.5-2.3,0.1-2.8-0.9c-0.2-0.3-0.3-0.7,0-1
		C532.5,408,532.7,407.9,532.9,407.8z"/>
	<path class="st69" d="M567.8,430.4c0.5-0.1,1-0.1,1.5-0.1c0.6,0,1.1,0.5,1.1,1.1v0.1c0,0.7-0.6,1.2-1.2,1.2c0,0,0,0,0,0
		c-0.7,0-1.2-0.2-1.4-0.9C567.8,431.4,567.8,430.9,567.8,430.4L567.8,430.4z"/>
	<path class="st79" d="M572.2,436.3c0,0.7-0.5,1.4-1.2,1.5c-0.4,0.1-0.9-0.1-1-0.5c0-0.1,0-0.1,0-0.2c-0.2-1.1,0.3-2,1-2
		C571.7,435.2,572.1,435.7,572.2,436.3z"/>
	<path class="st86" d="M164.8,355.4c-0.1-1-0.8-0.9-1.5-0.8c0-0.9-0.8-0.8-1.3-1c-0.7-0.3-1.4-0.4-2.1-0.7c-0.6-0.2-1-0.9-0.7-1.5
		c0,0,0,0,0,0c0.1-0.2,0.2-0.4,0.4-0.5c1.5-1.4,3.6-1.8,5.5-1c2.4,0.8,4.4,2.3,5.9,4.3c0.3,0.4,0.6,0.8,0.8,1.2
		c1.8,2.9,4.9,4.7,8.3,5.1l2.9,0.4l-0.1,0.2l0.2,0.1c-5.4,1.3-10.5,3.7-15.5,5.9c-0.8-0.9-0.1-1.3,0.2-1.8c0.2-0.5,0.5-0.9,0.7-1.3
		c0.7-1.5,0.8-3.2,0.1-4.7C167.8,357.4,166.9,355.7,164.8,355.4z"/>
	<path class="st87" d="M172.4,376.5c-0.5-0.1-0.9-0.3-0.9-0.9c-0.1-1,0.4-2,1.1-2.6c2.3-2.1,5.2-3.5,8.2-4.1c0.4,0,0.7,0,1.1,0.2
		c0.5,0.2,0.8,0.6,0.8,1.1c0,0.4-0.3,0.6-0.7,0.8c-0.2,0.1-0.5,0.1-0.7,0.1c-2.8,0.2-5.3,1.6-6.8,3.9
		C174,375.8,173.5,376.5,172.4,376.5z"/>
	<path class="st7" d="M176.1,408.8l-0.5-0.3C176.2,408.1,176,408.6,176.1,408.8L176.1,408.8z"/>
	<path class="st88" d="M170.9,852l3.5,0.2c1.8,0.7,3.7-0.2,5.5,0.5l3.5,0.2c1.8,0.7,3.7-0.2,5.5,0.5c10.3,1.1,20.7,1.9,31.1,2.5
		c7.1,0.4,14.2,0.9,21.4,1.4c0.3,0,0.5,0,0.8,0c1.7,0.2,2.2,0.8,2.4,2.4c0.1,0.8,0,1.5,0,2.3c0.2,9.2-0.6,18.3-0.5,27.5
		c0,0.4,0,0.7-0.1,1.1c-0.1,0.6-0.6,1.1-1.3,1.2c-0.6,0-1.3,0-1.9-0.1c-6.9-0.7-13.7-1.3-20.6-2c-9.1-0.9-18.2-1.5-27.3-2.6
		c-8.7-1.1-17.5-1.4-26.2-2.6c-3.2-0.5-6.5-0.8-9.7-1.2c-0.6,0-1.2-0.3-1.6-0.8c-0.3-0.5-0.4-1.2-0.2-1.8c1.1-4.8,3.7-9.1,7.4-12.3
		c2.6-2.6,5.9-4.3,9.6-4.8c3.9-0.4,7.7-1.1,11.5-2c1.6-0.5,3.3-1.2,3.1-3.2c-0.2-1.8-2.1-1.6-3.3-1.8c-7.2-1.3-14.5-0.9-21.7-1.7
		c-2.8-0.3-4.4,1.3-4.7,4.2c-0.2,2.3,0,4.8-0.2,7.1c-0.1,1.2,0.3,2.9-1.6,3.3c0.1-5.4,0.2-10.7,0.3-16.1c0.1-0.6,0.2-1.2,0.4-1.8
		C160.7,849.8,166.1,850,170.9,852z"/>
	<path class="st89" d="M222.6,853.7c-1,0-2,0-3,0l-29.4-1.7h-1.9c-2.5-0.8-5.2,0.2-7.7-0.6l-4.3-0.2c-4.9-0.6-9.9,0.7-14.7-0.6
		c-0.9-0.2-2,0-2.8-0.8c-0.3-0.1-0.4-0.4-0.2-0.7c0,0,0,0,0,0c0-0.1,0.1-0.2,0.2-0.2c0.4-0.3,0.8-0.5,1.3-0.7l35.8-14.2
		c1.2-0.6,2.6-0.8,4-0.7c6,0.6,11.9,1.2,17.9,1.8c0.2,0.1,0.5,0.2,0.7,0.3c3.1,3,7.3,3.1,11.1,3.5c3.4,0.3,6.6,1.6,9.2,3.8
		c2.4,2,2.7,4.7,0,6.1C233.6,851.4,228.9,855.1,222.6,853.7z"/>
	<path class="st90" d="M234.4,893.9c-0.1,0.1-0.1,0.2-0.2,0.2c-6.2,1-12.2,2.9-18.3,4.2c-8,1.7-16.2,2.3-24.3,1.6
		c-5.5-0.4-10.9-1.4-16.4-2s-11-1.3-16.4-2c-6.5-0.8-12.9-1.7-19.3-3.1c-1.2-0.3-2.4-0.6-3.6-1.1c-0.9-0.4-1.3-1.4-0.9-2.2
		c0,0,0,0,0,0c0-0.1,0.1-0.2,0.1-0.3c0.4-0.8,1-1.5,1.6-2.1c4.3-4.6,9.2-8.6,14.4-12c0.2-0.1,0.5,0,1-0.1c0.2,2.8,0.4,5.7,0.7,8.5
		c0.1,1.9,0.3,2.2,2.2,2.4c5.5,0.6,11,1.1,16.5,1.7c10,1,20,1.9,29.9,2.8c5,0.4,10,0.7,15,1.1c3.6,0.2,7.2,0.5,10.8,1.2
		c1.5,0.2,3,0.3,4.5,0.3C232.6,892.8,233.6,893.2,234.4,893.9z"/>
	<path class="st88" d="M277.8,841.7c0.1,2.2,0.3,4.3,0.4,6.4s-0.5,4.2-2.5,5.5c-0.8,0.5-1.2,1.3-1.1,2.2c0,2.6,0,5.3-0.1,7.9
		c-0.1,1.7-0.1,1.7-1.9,2.2c-0.5,0.1-1,0.2-1.4,0.5c-5.4,3.3-10.9,6.7-16.3,10c-1.7,0.9-2.6,2.9-2.2,4.8c0.7,3.8-0.7,6.6-4.2,8.3
		c-0.4,0.2-0.8,0.6-1.2,0.8c-0.3,0.2-0.8,0.1-1-0.2c0-0.1-0.1-0.2-0.1-0.3c0-0.9,0-1.8,0-2.6c0-8.3,0.1-16.5,0.1-24.8
		c0-0.6,0-1.3,0-1.9c-0.4-1.9,0.8-3.8,2.6-4.5c2.3-1,4.5-2.2,6.8-3.3c7-3.5,14.2-6.7,21-10.8C277,841.8,277.4,841.7,277.8,841.7z"/>
	<path class="st91" d="M222.6,853.7c3.1,0.2,6.2-0.7,8.8-2.5c1.6-1,3.4-1.7,5.2-2.1c1.2-0.4,2.2-1.2,2.8-2.4c0.8-1.5,0.7-2-0.8-3
		c-1-0.7-2.1-1.4-3.1-2.1c-1.6-1.2-3.6-1.7-5.6-1.7c-1.9,0.1-3.8-0.2-5.5-0.9c-1.1-0.4-2.2-0.6-3.3-0.7c-2.3-0.2-2.4-0.3-2.7-3.1
		c2.9,0.1,5.8,0,8.6,0.2c7.1,0.6,14.2,1.2,21.3,1.9c6.1,0.5,12.2,1.1,18.3,1.7c2.7,0.3,5.5,0.6,8.2,0.8c0.1,0.9-0.6,1.1-1.1,1.4
		c-2.4,1.2-4.6,2.5-7,3.6c-3.5,1.6-6.9,3.4-10.2,5.6c-4.2,2.7-9.1,4.3-14.1,4.6c-4.4,0.4-8.8,0.2-13.1-0.6
		C227.1,854.1,224.7,854.6,222.6,853.7z"/>
	<path class="st92" d="M147.1,925c-2.1,0.3-4.3-0.6-6.6-1.4c-1.3-0.4-1.9-1.8-1.5-3.1c0.1-0.5,0.4-0.8,0.8-1.1
		c0.7-0.5,1.5-0.9,2.3-1.2c5.7-2.6,11.7-4.5,17.9-5.7c9.6-2,19.1-4,28.7-6c1.5-0.3,2.9-0.8,4.3-1.2c0.6-0.3,1.3-0.1,1.7,0.3
		c0.4,0.5,0.6,1.2,0.3,1.8c-0.7,2-2.3,3.6-4.4,4.3c-0.4,0.1-0.7,0.1-1.1,0.2c-6.2,1-12.2,2.9-17.9,5.6c-3.3,1.5-6.6,3-10,4.4
		C157.1,923.9,152.1,924.9,147.1,925z"/>
	<path class="st93" d="M155.1,869.4c0.8-0.7,0.7-1.6,0.7-2.4c0-2.6,0.1-5.3,0.1-7.9c-0.1-3.9,2.4-6,5.9-5.4
		c4.4,0.8,8.7,0.4,13.1,0.7c4.1,0.3,8.1,1,12.2,1.6c0.4,0.1,0.7,0.3,0.9,0.6c0.6,1.5,0.3,3.3-0.9,4.5c-0.9,0.8-2.1,1.4-3.3,1.6
		c-2.4,0.5-4.9,1-7.3,1.4c-2.1,0.3-4.2,0.5-6.3,0.8c-2.5,0.3-4.3,1.9-6.1,3.5c-3.1,2.6-5.5,5.8-7.2,9.5c-0.3,1.1-0.9,2.1-1.7,2.8
		C154.3,876.9,154.7,873.2,155.1,869.4z"/>
	<path class="st94" d="M306.3,871.8c-0.9,4-2.8,7.7-5.6,10.7c-9.1,9.6-19.2,18-30.3,25.1l-0.3,0.2c-5.3,3.6-11.8,5.2-18.2,4.3
		c-7-0.8-13.9-1.4-20.9-2.2c-1.6-0.2-3.1-0.5-5.2-0.8c2.3-2.2,5.3-3.5,8.5-3.7c2.9-0.3,5.8-0.2,8.6,0.4c2.7,0.5,5.4,1,8.1,1.4
		c7.3,1.2,14.7-0.4,20.8-4.5c2.2-1.5,4.2-3.1,6.1-4.9c9-8.4,18.3-16.4,26.9-25.1C305.3,872.5,305.8,872.2,306.3,871.8z"/>
	<path class="st92" d="M251.5,889.8c0.9,0.3,0.8,1,1.1,1.6c0.4,0.7,1,1.2,1.7,1.4c7.7,2.1,15.3,2.4,22.8-1.3c2.7-1.4,5.2-3,7.6-4.8
		c0.8-0.6,1.4-1.4,2.5-1.3c0.4,0.7-0.2,0.9-0.5,1.2c-2.6,2.3-5.2,4.7-7.9,7c-3.1,2.6-6.4,4.9-9.3,7.6c-3.7,3.6-8.8,5.1-13.9,4.2
		c-5-0.8-10-1.2-15-1.5c-0.7,0-1.5-0.1-2.2-0.2c-0.3-0.1-0.5-0.3-0.4-0.6c0-0.1,0.1-0.2,0.1-0.2c0.7-0.8,1.5-1.6,2.4-2.4
		c2.3-2,4.6-3.9,5.7-6.8c0.5-0.9,1.2-1.6,2.1-2.1C249.4,891,250.4,890.4,251.5,889.8z"/>
	<path class="st92" d="M242.1,895.9c-1,1.7-2.4,3.1-4,4.2c-2.3,1.6-4.6,3-7,4.4c-2.1,1.2-4.4,2-6.7,2.4c-6.5,1.2-13.1,2.3-19.6,3.5
		c-1.9,0.3-3.7,0.4-5.6,0.3c-3.9,0-4.3-0.7-2.5-4.2c0.9-1.7,2.6-2.8,4.5-3.1c2.1-0.4,4.2-0.7,6.3-1.2c6.7-1.5,13.4-3.1,20.2-4.5
		c4.3-0.9,8.6-1.4,13-2.1C241.1,895.4,241.7,895.5,242.1,895.9z"/>
	<path class="st95" d="M256.1,878.2c0.1-0.2,0.2-0.5,0.4-0.6c4.6-3,9.3-6,13.9-9c0.8-0.6,1.8-0.9,2.8-0.8c4.1,0.7,8.2,1.3,12.2,2.1
		c0.4,0.1,0.7,0.3,0.8,0.7c0,0.4-0.1,0.7-0.4,1c-0.3,0.3-0.6,0.5-0.9,0.7c-3.6,2.2-7.3,4.4-10.9,6.7c-1.6,1-3.5,1.5-5.4,1.3
		c-4-0.5-8-1-11.9-1.6C256.5,878.6,256.3,878.4,256.1,878.2z"/>
	<path class="st96" d="M137.9,895c18.8,4.2,37.9,5.3,57,6.9c0,1.2-1,1.1-1.6,1.3c-6,2-12.3,2.5-18.5,1.4c-8.2-1.2-16.4-2.4-24.5-3.5
		c-4.2-0.6-8.1-1.5-11.4-4.3c-0.4-0.3-0.7-0.7-0.9-1.1C137.9,895.4,137.9,895.2,137.9,895z"/>
	<path class="st97" d="M271.2,886.9v0.4c0,4.7-0.2,5-4.8,4.7c-3.1-0.2-6.2-0.8-9.3-0.7c-1.8,0-2.7-0.9-3.1-2.7
		c-0.5-2.3,0-4.5,0.4-6.7c0.1-0.6,0.7-1.1,1.3-1.1c1.2,0,2.5,0,3.7,0.1c2.6,0.2,5.2,0.5,7.8,0.8c0.7,0.1,1.5,0.2,2.2,0.4
		c0.9,0.2,1.5,1,1.6,1.9C271.3,884.9,271.2,885.9,271.2,886.9L271.2,886.9z"/>
	<path class="st94" d="M288.9,884.4c-0.4-3.2,0.3-6.3,0.4-9.4c0-1.2,0.9-2.2,2.1-2.3c2.5-0.5,4.5-2.1,6.7-3.2
		c1.6-0.6,2.5-2.2,2.3-3.9c0-0.5,0-1,0.1-1.5c0.1-0.9,0.8-1.5,1.7-1.4c0,0,0,0,0,0h0.2c1.6,0.4,3.1,0.8,4.7,1.4
		c1,0.3,1.4,1.4,1.1,2.4c-0.1,0.2-0.1,0.3-0.2,0.4c-0.2,0.4-0.5,0.9-0.8,1.2c-0.5,0.7-1.1,1.4-1.7,2c-4.3,4-8.6,8-13,12
		C291.3,883.1,290.2,883.9,288.9,884.4z"/>
	<path class="st97" d="M290.6,870.6c-1.9-1.9-4.5-2.8-7.1-2.7c-1.6,0-3.3-0.2-4.8-0.9c-1.1-0.4-1.8-1.4-1.9-2.6c0-1.9,0-3.8,0.1-5.6
		c-0.1-1,0.7-1.9,1.8-2c0,0,0,0,0.1,0h0.1c0.4,0,0.7,0,1.1,0l9,0.5c0.8,0,1.4,0.6,1.5,1.3l0,0c0.1,1.5,0.3,3,0.3,4.5
		C290.8,865.7,290.7,868.1,290.6,870.6z"/>
	<path class="st98" d="M273.6,891.7c-0.3-1.8-0.5-2.7-0.7-3.7c-0.8-2.9,0.4-6,2.8-7.7c3.3-2.4,6.8-4.6,10.3-6.9
		c0.8-0.5,1.5,0,1.6,0.9c0.3,5.4-1.8,9.5-6.2,12.6C279,888.4,276.3,889.4,273.6,891.7z"/>
	<path class="st99" d="M298.8,855.5v8.2c0,3.5-1.5,5.1-5.4,5.8c-0.7-0.4-0.5-1.1-0.5-1.6c0-2.7,0-5.5,0-8.2
		c-0.2-1.8,1.1-3.5,2.9-3.8C296.6,855.7,297.4,855,298.8,855.5z"/>
	<path class="st100" d="M278.6,854.3c1.5-1.7,3.9-3.6,5.1-3.9c0.6-0.1,1.2-0.1,1.8-0.1c3.8,0.3,7.6,0.7,11.4,1.1
		c0.2,1-0.5,1.1-0.9,1.5c-3.1,2.3-6.4,3.5-10.4,2.3C283.3,854.8,280.9,854.5,278.6,854.3z"/>
	<path class="st101" d="M158.8,849.9c5.1,0.3,10.2,0.6,15.3,0.9c0.7,0.1,1.5,0.3,2.2,0.5c-1.1,0.3-2.2,0.3-3.4,0.2
		c-0.8,0-1.5-0.1-2.1,0.6c-1.8,0.1-3.7,0-5.5-0.2c-3.2-0.3-6.4-0.8-9.5-0.3c0.2-0.6,0.8-1,1.4-0.9
		C157.8,850.6,158.4,850.3,158.8,849.9z"/>
	<path class="st101" d="M180.6,851.4c2.6-0.3,5.2-0.1,7.7,0.6c-2.3,0.3-4.6,0.3-6.8,0C181.2,852,180.9,851.6,180.6,851.4z"/>
	<path class="st101" d="M188.9,853.5c-1.8,0.3-3.7,0.1-5.5-0.5C185.3,852.8,187.2,852.4,188.9,853.5z"/>
	<path class="st101" d="M179.9,852.8c-1.8,0.3-3.7,0.1-5.5-0.5C176.2,852,178.1,851.6,179.9,852.8z"/>
	<path class="st89" d="M499.2,981.9c-0.5-1.5,0.1-3,0.4-4.4c0.8-3.9,1.7-7.8,2.5-11.7c2.4-11.4,4.8-22.8,7.3-34.1
		c0.6-2.7,1.4-5.3,2.2-8c0.8-2.5,2.4-4.8,4.5-6.3c14.7-10.8,30.7-17.8,49.3-17.7c3.1,0,6.9-1.1,9.4,2.3c-0.2,1-0.2,2-0.4,3
		c-4,19.7-8,39.4-12,59.1c-0.2,1.2-0.6,2.4-0.9,3.6c-1.2,1.2-2.6,0.6-3.9,0.5c-14.8-0.8-29.3,0.7-43,6.8c-3.9,1.8-7.6,3.8-11.2,6
		C502,981.6,500.8,983,499.2,981.9z"/>
	<path class="st1" d="M554.9,1011.4c-0.1-1.5,0.1-2.9,0.5-4.3c3.8-17.8,7.4-35.6,11.4-53.4c4.3-19.1,8-38.3,12-57.5l0.7-3.3
		c0.1-1.3,1.2-2.3,2.5-2.4c0.5,0,1-0.1,1.5-0.2c4.9-0.5,9.7-1.1,14.6-1.6c0.9-0.1,1.7-0.1,2.6-0.1c0.6,0,1.1,0.4,1.1,1
		c0,0.1,0,0.2,0,0.2c-0.1,0.8-0.4,1.5-0.5,2.2c-1.3,7.3-2.6,14.6-3.9,21.8c-0.9,5.1-1.9,10.1-2.9,15.2c-2.6,13.5-5.4,27.1-7.8,40.7
		c-1.4,7.7-3.2,15.2-4.8,22.8c-0.4,2.3-1.2,4.6-2.3,6.7c-1.5,2.9-4.2,5.1-7.4,6c-1.6,0.5-3.1,1.1-4.5,1.8
		C563.6,1009,559.3,1010.4,554.9,1011.4z"/>
	<path class="st1" d="M499.2,981.9c1.1,0.1,1.9-0.6,2.7-1.2c14.4-9.9,30.6-13.9,47.9-13.8c3.9-0.1,7.7,0.1,11.6,0.7
		c-0.6,3.1-1,6.2-1.7,9.3c-1.6,7.9-3.3,15.7-5.1,23.6c-0.7,2.9-1.5,5.8-2.4,8.7c-0.8,2.7-1.9,3.4-4.7,3.1c-1.1-0.1-2.2-0.3-3.3-0.5
		c-8.5-1.5-17-3.6-25.3-5.9c-6.5-1.8-12.9-4.1-19.4-6.2c-0.7-0.3-1.4-0.6-2-1c-0.7-0.4-1-1.2-0.9-1.9c0-0.1,0-0.2,0.1-0.4
		C497.4,991.5,498.3,986.7,499.2,981.9z"/>
	<path class="st1" d="M574.7,901.9c-4.3-1.6-8.8-1.6-13.3-1.3c-13.8,0.9-26.3,5.6-38.1,12.8c-4.5,2.7-8.5,6.1-11.8,10.2
		c0.7-4.6,1.6-9.1,2-13.7c0.1-1,0.3-2,0.6-2.9c2.7-9,4.2-18.3,6.2-27.4c0.2-0.9,0.4-1.7,0.7-2.5c0.3-1.1,1.4-1.8,2.6-1.5
		c0,0,0,0,0,0h0.1c1.8,0.4,3.7,0.9,5.5,1.4c5,1.5,10.1,3,15.1,4.4c7.9,2.3,15.8,4.6,23.8,6.8c1.8,0.5,3.6,1,5.5,1.5
		c0.6,0.1,1.2,0.3,1.8,0.5c1.4,0.6,1.8,1.3,1.5,3C576,896.1,575.3,899,574.7,901.9z"/>
	<path class="st1" d="M548.2,860.7l33.9,8.2c1.7,0.4,3.4,0.8,5.1,1.2c0.7,0.1,1.1,0.7,1,1.4c0,0,0,0,0,0c0,0.1-0.1,0.2-0.1,0.4
		c-0.2,0.5-0.4,0.9-0.7,1.3c-2.6,4.1-5.2,8.3-7.8,12.4c-0.3,0.5-0.7,1-1.1,1.5c-0.5,0.6-1.3,0.8-2,0.7c-0.8-0.2-1.7-0.3-2.5-0.6
		c-7.8-2.2-15.6-4.5-23.5-6.8c-4.3-1.2-8.7-2.4-13-3.7l-12-3.3c-0.9-0.3-1.1-1-0.5-1.6c0.3-0.3,0.5-0.5,0.8-0.8
		c4.1-3.5,8.3-6.9,12.3-10.5c1.2-1.3,3.1-1.8,4.8-1.2c1.7,0.5,3.4,0.7,5.2,1L548.2,860.7z"/>
	<path class="st102" d="M555.5,851.4l9.6,2c1,0.2,2,0.3,2.4,1.5c0.4,1,1.4,0.9,2.3,1l16.2,3.3c1.1,0.2,2.2,0.5,3.3,0.8
		c2,0.6,2.4,1.4,2,3.3c-1.2,5.3-1.2,5.3-6.5,4c-9.1-2.3-18.2-4.7-27.3-7c-3.4-0.9-6.8-1.6-10.2-2.4c-0.7-0.1-1.5-0.3-2.2-0.5
		c-2.4-0.8-3-1.7-2.6-4.2c0.7-4.2,0.8-4.4,5.1-3.5C550.2,850.4,552.9,850.9,555.5,851.4L555.5,851.4z"/>
	<path class="st103" d="M582.6,888.3c-1.1-0.2-1.5-1-1.2-1.7c0.3-0.6,0.6-1.1,0.9-1.6c2.2-3.4,4.5-6.9,6.8-10.3
		c0.3-0.5,0.7-1,1.1-1.5c0.5-0.6,1.4-0.6,1.9-0.1c0,0,0,0,0,0l0,0c0.2,0.2,0.3,0.4,0.5,0.6l7.7,11c0.1,0.2,0.3,0.4,0.4,0.6
		c0.3,0.5,0.1,1.1-0.4,1.4c0,0,0,0-0.1,0l-0.2,0.1c-0.5,0.2-1,0.3-1.5,0.3c-5.1,0.4-10.2,0.8-15.3,1.2
		C583.1,888.2,582.9,888.3,582.6,888.3z"/>
	<path class="st104" d="M237.7,492.6l1.7-0.2h0.5c2.4,0.5,4.4,2.1,6.7,2.8c1.3,0.5,2.5,1.2,3.6,2.1c4.3,3.1,8.4,6.3,11.6,10.5
		c0.2,0.2,0.5,0.4,0.7,0.7c0.2,0.2,0.5,0.4,0.7,0.6c0.6,0.4,1.3,0.7,2,0.9c4.2,5.2,7.2,11.1,9,17.6c0.1,0.5,0.3,1,0.5,1.4
		c0.2,0.3,0.6,0.4,0.9,0.4c0.2,0,0.4-0.2,0.5-0.4c0.5-1,0.6-2.2,1.4-3c0.9,1,0.1,2.2,0.4,3.2c0.1,0.2,0.3,0.4,0.5,0.4
		c0.2,0,0.4-0.1,0.6-0.3c1.1-3.5,2-7,1.6-10.7c0-0.5-0.2-1-0.8-1.1c-0.6-0.1-0.7,0.5-1,0.9c-0.4,0.8-0.6,1.6-0.6,2.5
		c0,1.1-0.2,2.1-0.4,3.1c-0.1-2.8-1.1-5.4-1.5-8.1c0.2-2-0.5-3.9-1.1-5.8c-0.8-2.9,0.2-4.6,3.2-5c3.1-0.5,6.3-0.3,9.3,0.5
		c2.1,0.8,4.2,1.5,6.5,0.9c1.6-0.5,2.4,0.8,3.3,2c1.3,1.8,2.4,3.9,5.1,3.8c1.8,4.1,2.4,8.6,1.6,13c-0.1,0.2-0.1,0.5-0.1,0.7
		c0,0.2,0.2,0.4,0.4,0.5c0.2-0.2,0.4-0.3,0.5-0.5c0.7-1,0.4-2.2,0.4-3.2c0-3.2,0.2-6.5,1.8-9.4c0.9,0.3,1,1,1,1.8
		c0.1-2.1,0.6-4.2,1.6-6.2c0.4-0.8,0.9-1.6,1.9-1.6s1.1,0.9,1.4,1.5c1.1,2.9,3.7,5.1,3.4,8.5c0.7,1.2,1.1,2.5,0.9,3.9
		c0,0.2,0,0.5,0,0.8c0.9,7.8-2.6,13.8-7.5,19.4c-1,1.1-2.1,2.2-3.2,3.2c-7.5,6.4-15.7,12-24.4,16.7c-0.2,0.1-0.5,0.2-0.7,0.3
		c-0.3,0.2-0.7,0.1-1-0.2c-0.3-0.3-0.3-0.7-0.2-1c1-2.4,1.7-5,2-7.6c0-0.5,0-0.9,0-1.4c-0.3,0.4-0.5,0.7-0.8,1.1
		c-0.2,0.5-0.3,1-0.5,1.4c-0.9,2.6-1.8,5.2-2.7,7.8c-0.3,1.1-1.1,2-2.1,2.5c-0.2,0.1-0.5,0.1-0.7,0.1c-0.2-0.2-0.3-0.4-0.3-0.7
		c0.5-2.2,0.9-4.5,2.4-6.3c2.4-2.6,2.5-5.6,1.8-8.8c-0.9,0-1,0.7-1.2,1.3c-1.3,3.6-2.6,7.3-3.9,11c-0.2,0.7-0.5,1.4-0.8,2.1
		c-0.8,2.1-2.4,3.8-4.5,4.7c-5.5,2.3-11.2,4.3-17,6c-0.9,0.2-1.7,0.4-2.6,0.5c-0.4,0.1-0.9-0.7-0.7-1.1c0.4-0.6,0.9-1.2,1.2-1.9
		c1.3-2.4,2.4-4.9,1.4-8.6c-0.5,3-1.4,5.8-2.8,8.5c-1.1,2.4-3.4,4.2-6,4.7c-2.3,0.5-4.7,0.9-7.1,1.1c-2.9,0.2-5.8,0.5-8.6,0.5
		c-7.1,0.2-14.3-0.4-21.2-2.1c-0.3-0.1-0.5-0.2-0.5-0.5c0-0.2,0.1-0.5,0.2-0.6c1-0.8,2.1-1.4,3.3-1.8c1.3-0.4,2.6-1,3.9-1.6
		c1.3-0.7,2.4-1.9,3.1-3.2c0.4-0.9,1.1-1.7,0.5-3c-1,1.4-2,2.8-3,4.1c-0.7-0.3-0.4-1-0.9-1.5c-0.8,0.7-1.5,1.4-2.3,2.1
		c-1.5,1.5-3.3,2.7-5.3,3.5c-2.3,1-5,1-7.4,0.1c-3.7-1.3-7.2-3-10.5-5c-4.5-2.8-8.2-6.7-10.8-11.4c-1-1.7-1.6-3.7-1.7-5.7
		c0-2.6-0.3-5.3-0.2-7.9c0.1-5.1,2.1-9.9,5.6-13.6c1.2-1.3,2.2-2.7,3.1-4.2c2-3.3,4.1-6.6,6.1-10c1.4-2.2,3.2-4.2,5.2-5.9
		c1.2-1.2,2.8-1.8,4.4-1.7c0.4,0.1,0.8,0,1.1,0c5.7-1.8,11.1-0.1,16.6,1.4c0.6,0.1,1.2,0.3,1.8,0.4c0.1,0,0.2-0.1,0.3-0.1
		c-1.2-1.4-1.2-1.4-4.9-2.4c-1.8-0.5-3.6-0.8-5.5-1c-2-0.2-3.9-0.3-5.9-0.4c0-0.3,0-0.5,0-0.5c3.1-2.1,5.9-4.6,8.4-7.5
		c1.5-1.7,3.3-3.1,5.4-3.9c5.2,4.1,11.4,3.4,17.4,3.4C237.3,497.4,236.4,494.2,237.7,492.6z"/>
	<path class="st88" d="M302.9,512.4c-0.2,0.3-0.4,0.6-0.6,0.9c-0.5,0.5-1.2,0.8-1.6,0.2c-1.5-1.9-4.1-3-4.4-5.8
		c-0.1-0.4-0.6-0.7-1.1-0.5c0,0,0,0,0,0c-0.1,0-0.1,0-0.2,0.1c-2.4,1.4-4.5,0.9-6.7-0.4c-1.4-0.8-3.1-1.1-4.7-1h-4.9
		c-0.9-0.1-1.7,0.3-2.3,1c-0.6,0.7-1,1.4-0.5,2.4c0.9,1.6,1.3,3.6,1,5.4c-0.1,0.5-0.3,0.9-0.5,1.4c-2.6-7.5-7-14.3-12.9-19.6
		c-5.8-5.3-13.1-8.6-20.9-9.3c-1-0.1-2-0.2-3-0.4c-0.4-0.1-0.7-0.3-1-0.5c0.2-1,1.1-1,1.7-1.2c9.6-4,19.3-3.8,29-0.6
		c2.1,0.7,4.2,1.6,6.3,2.5c1,0.4,2.1,0.8,3.1,1.2c8.9,3.3,16.4,9.5,21.3,17.6C301.5,507.8,302.4,510,302.9,512.4z"/>
	<path class="st98" d="M239.4,489c1.7-0.7,3.5-0.7,5.2-0.2c12.3,3.3,21.8,10.3,28,21.6c1.3,2.8,2.4,5.8,3.3,8.8
		c0.5,1.6-0.1,3.1-0.7,5c-1.8-3.2-2.9-6.5-4.7-9.3c-1.8-2.9-3.7-5.7-5.7-8.4c-2.2-2.8-4.6-5.3-7.3-7.6c-2.6-2.2-5.4-4.1-8.3-5.8
		C246.2,491.6,243,490.7,239.4,489z"/>
	<path class="st105" d="M316.8,517.5c-0.6-1.9-1.2-3.7-2.8-5c-1.2-1-1.2-2.6-1.6-4.1c-0.1-0.2-0.2-0.4-0.4-0.5
		c-0.3,0.1-0.8,0.3-0.8,0.6c-0.6,2.3-1.8,4.3-1.8,6.8c0,0.6-0.3,1.1-0.9,1.4c-0.8-0.9,0.1-2.4-1-3.1c-0.1-1.5-0.2-2.9-0.3-4.4
		c0-1.4-0.3-2.7-0.9-3.9c-2.4-2.4-3.6-5.7-6-8.1c-2-2.1-4.2-3.9-6.6-5.5c-1-0.7-2.7-1.1-2.4-2.9c0.6,0,1.2,0,1.8,0.1
		c11.2,3.8,19,11.2,22.8,22.5C316.7,513.3,317,515.4,316.8,517.5z"/>
	<path class="st106" d="M237.7,492.6c0,1.1,0.1,2.2,0,3.4c-0.1,1.7-0.8,2.5-2.6,2.5c-3.7,0.1-7.5,0-11.2-0.4
		c-0.6-0.1-1.2-0.2-1.8-0.2c-3,0.2-4.7-1.3-5.6-3.9c2.5-2.3,5.8-3.4,9.1-3.2C229.7,491.1,233.8,491.3,237.7,492.6z"/>
	<path class="st8" d="M305.6,506.8c0.1,1.4,0.2,2.8,0.3,4.1c0,0.5-0.1,1-0.2,1.5c-1.2-0.2-1.1-1.3-1.4-2c-2.1-5.5-5.4-10.5-9.7-14.6
		c-2-1.9-4.2-3.6-6.6-5c-1-0.4-1.8-1-2.5-1.8c1.3-0.6,2.4,0.5,3.5,0.4C296.7,491.2,304.5,499.5,305.6,506.8z"/>
	<path class="st107" d="M265.1,510c-0.8,0.6-2,0.5-2.6-0.2c-0.1-0.3-0.4-0.6-0.6-0.8l0.1,0.1c-3.2-4.7-7.1-8.6-12.3-11
		c-1.2-0.6-2-1.8-3.4-2c-2-1.7-4.5-2.5-6.9-3.5l0.1,0.1c-0.6-1.2-1.9-0.9-2.9-1.4c-1.4-0.5-2.8-0.9-4.2-1.3c0.3-0.6,0.6-0.7,1-0.7
		c2.1,0.1,4.2,0.6,6.2,1.3c8.1,3.1,15.4,7.5,21.4,13.9C262.6,506.1,264,507.9,265.1,510z"/>
	<path class="st108" d="M305.6,506.8c-0.3-0.4-0.5-0.8-0.7-1.3c-2-6.1-6.1-10.5-11.6-13.7c-1.4-0.8-2.8-1.6-4.2-2.4l2.4-0.7
		c0.6,1.2,2,1.5,3,2.1c5.3,3.2,9.4,8,11.9,13.7c0.1,0.2,0.1,0.5,0.1,0.7C305.7,505.6,305.8,506.3,305.6,506.8z"/>
	<path class="st104" d="M389.5,751.8c-1.6,0.1-3.3,0.1-4.9,0.3c-5.1,0.3-10.3,0-15.3-0.8c-1.9-0.2-3.8-0.2-5.6-0.3
		c-4.1-0.2-8.3-0.3-12.4-0.4c-0.5,0-1-0.3-1.1-0.8c0-0.4,0.3-0.7,0.6-0.9c1.4-0.7,2.3-2.1,2.2-3.7c0.1-1.4-0.6-2.8-1.8-3.6
		c-1.2-0.8-1.8-2.2-1.6-3.5c0.1-2.1,0.1-4.3,0-6.4c-0.1-1,0.4-2,1.4-2.4c0.5-0.2,0.9-0.4,1.3-0.7c2.8-1.5,3.9-5.1,2.4-7.9
		c-0.4-0.7-0.9-1.4-1.6-1.9c-0.3-0.4-0.8-0.6-1.2-0.8c-2.1-0.4-2.4-1.8-2.4-3.6c0.1-4.4,0-8.8,0-13.2v-1.9c-0.1-0.9,0.7-1.7,1.6-1.8
		c4.9-1,9.8-2.1,14.7-3.2c4-0.9,8.1-1.8,12.1-2.8c1.1-0.4,2.3,0.1,2.8,1.1c3.1,4.8,10.5,4.7,13.6-0.1c0.5-0.7,0.9-1.5,1.1-2.3
		c0.4-1.6,1.7-2.9,3.4-3.1c0.8-0.3,1.7-0.5,2.6-0.6c10.8-1.7,21.3-4.6,32-6.9c4-0.9,8.1-1.8,12.1-2.6c1.6-0.3,2.4,0.2,2.5,1.9
		c0.1,2.3,0.1,4.5-0.1,6.8c-0.7,6.7-1.4,13.5-2.2,20.2c-0.8,6.8-1.8,13.7-2.8,20.5c-0.7,5.1-1.6,10.2-2.4,15.2
		c-0.1,0.7-0.4,1.5-0.5,2.2c-0.3,1.5-1.5,2.8-3,3.1c-1.3,0.4-2.6,0.7-4,1c-6.1,1.3-12.4,2.1-18.6,2.4c-2.6,0.2-5.2,0.5-7.8,0.9
		C400.8,751.8,395.1,751.7,389.5,751.8z"/>
	<path class="st104" d="M393.9,755.4c0,1.8,1.5,2.1,2.6,2.7c1.1,0.6,2.5,0.6,3.6-0.1c2.4-2,5-1.8,7.8-1.1c1.2,0.3,2.5,0.3,3.7,0.5
		c0.6,0.1,0.9,0.7,0.8,1.3c0,0.1,0,0.1-0.1,0.2c-0.4,0.8-0.9,1.5-1.4,2.2c-4.2,5.5-8.6,10.8-13.4,15.8c-1.3,1.5-3.4,2.3-5.3,1.8
		c-9.1-1.3-18.2-2.2-27.3-3c-1.5,0-2.8-1-3.3-2.4c-1.7-4.1-6.3-6-10.4-4.3c-1.2,0.5-2.2,1.2-3,2.2c-1.3,1.6-3.3,2.4-5.3,2.1
		c-5.8-0.8-11.6-1.7-17.5-2.6c-0.3-0.1-0.6-0.2-0.9-0.3c-0.1-0.7,0.3-1,0.7-1.3c6.8-6,14.1-11.3,21.9-15.8c1.6-0.9,3.5-1.4,5.3-1.4
		c6.1,0,12.3,0.7,18.4,1.1c4.5,0.2,9,0.7,13.5,1.2C387.6,754.3,390.8,754.9,393.9,755.4L393.9,755.4z"/>
	<path class="st104" d="M445,674.7c-3.3,0.8-6,1.4-8.6,1.9l-34.9,7.5l-1.5,0.3c-2.6,0.6-5.1,1.1-7-1.6c-0.6-0.6-1.4-1.1-2.2-1.3
		c-2.6-1.3-5.7-0.7-7.6,1.4c-1.1,1-1.9,2.3-2.4,3.8c-0.6,1.8-1.8,2.5-3.6,2.8c-5.1,1-10.3,2.2-15.4,3.3l-10.3,2.2
		c-0.1-1,0.8-1.2,1.2-1.6c4.3-4,8.8-7.8,13-11.9c1.6-1.6,3.3-2.7,5.6-2.3c0.2,0,0.5,0,0.8,0c2.5-0.2,4.2-1.5,4.1-3.9
		c-0.1-3,1.4-4.6,3.4-6.2c0.7-0.5,1.3-1.1,1.9-1.8c1-1.3,2.7-1.9,4.3-1.6c3,0.5,4.8-1.6,4.8-4.3c0-0.6,0-1.3,0.2-1.9
		c0.3-1.1,1.2-2,2.4-2c1-0.1,2,0,3,0.2c16.4,2.6,32.2,7.9,46.8,15.7C443.5,673.7,443.9,674,445,674.7z"/>
	<path class="st109" d="M386.8,694.6c-3.1,0-4.8-1.8-4.9-4.9c0-1.3,0.3-2.5,0.8-3.6c0.9-2.4,3.3-4,5.9-3.8c2.6,0,4.9,1.7,5.7,4.1
		c0.3,0.7,0.4,1.5,0.2,2.2C393.6,692.1,390.4,694.7,386.8,694.6z"/>
	<path class="st110" d="M345,775.4c-0.6,0.4-1.4,0.5-2.1,0.3c-6.3-0.7-12.7-1.4-19-2.1c-0.4-0.1-0.7-0.2-1-0.4
		c-0.2-0.2-0.3-0.4-0.3-0.6c0.1-0.2,0.2-0.4,0.4-0.5c0.7-0.1,1.5-0.1,2.2,0c2,0.2,4,0.5,6,0.7c3.8,0.5,7.7,1,11.5,1.5
		C343.5,774.5,344.5,774.5,345,775.4z"/>
	<path class="st111" d="M360.3,775c-0.3-0.1-0.5-0.3-0.8-0.5c-2.5-2.8-5.5-3.9-9.1-2.6c-0.3,0.2-0.7,0-0.9-0.3c0,0,0,0,0,0
		s0.2-0.5,0.4-0.6c0.5-0.4,1-0.8,1.6-1c3.7-1.1,7.7,0.8,9.1,4.5C360.5,774.7,360.5,774.8,360.3,775z"/>
	<path class="st112" d="M283.3,1071.8c2,2.6,4.5,2.9,7.4,1.6c1.2-0.1,2.4-0.1,3.6-0.2c0.9-0.1,1.6-0.4,1.7-1.6
		c0-0.3,0.1-0.7,0.5-0.9c1.5-0.4,2.4-1.8,3.7-2.6s2.4-0.6,3.1,0.8c2.4,4,3,9,1.5,13.4c-0.8,2.2-1.6,4.5-2.5,6.7
		c-0.4,0.9-0.9,1.8-1.4,2.6c-0.8,1.3-2.2,2.1-3.7,2.4c-2.7,0.3-5.5,0.6-8.1-0.8c-1.6-1.1-0.8-2.4-0.4-3.7s1.2-2.2,0.8-3.7
		c-5.1,13.1-15,22.5-24.1,31.8c7.8-6.5,14.7-13.9,20.5-22.1c0.5-0.7,0.9-1.6,2.1-1.2c1.8,1.3,3.9,1.5,6.1,1.7
		c1.1,0.1,2.2-0.3,3.3,0.5c-0.1,0.4-0.3,0.7-0.5,1c-11.9,12.8-24.7,24.6-39.6,34c-9.4,6-19.5,10.8-30.1,14.3
		c-0.9,0.3-1.9,0.6-2.9,0.9c-0.7,0.2-1.6,0.5-2.1-0.2c-0.5-0.7,0-1.6,0.4-2.3c5-8,9.3-16.4,12.9-25.1c0.8-2,1.4-4,2.2-6
		c0.1-0.3,0.3-0.6,0.6-0.8c0.4-0.1,0.7,0.2,0.8,0.6c0.4,1.2,1.1,2.3,1.9,3.2c0.3,0.3,0.7,0.7,1.4,0.3c-0.8-1.5-1.6-3-2.4-4.5
		c-0.5-0.7-0.7-1.6-0.6-2.5c0.5-4.4,1.8-8.7,3.7-12.7c1.2,0.9,1.7,2.4,3.2,2.8c0.4-1-0.4-1.6-0.9-2.2c-1.1-1.8-1.6-4-1.4-6.1
		c0.3-5.4,1.5-10.7,3.5-15.7c2.6-6,6.1-11.6,10.2-16.6c0.3-0.2,0.5-0.5,0.9-0.6c1,0.5,0.9,1.5,1,2.3c0,0.8,0.3,1.5,0.7,2.1
		c0.1,0.1,0.2,0.1,0.4,0.1c0.1,0,0.2-0.1,0.3-0.1c0.1-0.6,0.1-1.2,0.2-1.9c0.3-4,1.2-5.1,5.3-6c3.9-0.8,7.7-0.7,11.6-0.8
		c0.9-0.2,1.8,0.5,2,1.4c0,0.3,0,0.5,0,0.8c-0.3,2.1-0.8,4.2-1.1,6.3c-0.1,0.7-0.3,1.5-0.4,2.2c-0.2,1,0.4,2,1.3,2.5
		c1.2,0.7,1.2,1.9,1.5,3.1C281.5,1071.4,282.3,1071.9,283.3,1071.8z"/>
	<path class="st98" d="M281,1070.5c-1.6-0.5-1-2.1-1.5-3.1c0-2,0.3-4,1-5.9c1.2-3.3,1.8-6.8,1.7-10.3c0.1-3.1-0.1-6.3-0.6-9.3
		c-0.2-2.1-0.3-4.2-0.3-6.4c-0.1-1.1,0.8-2,1.9-2.1c0.3,0,0.6,0,0.9,0.2c0.5,0.2,0.9,0.5,1.2,0.8c0.5,0.6,0.5,1.5-0.1,2c0,0,0,0,0,0
		c-0.1,0.1-0.2,0.1-0.3,0.2c-0.5,0.3-1.3,0-1.6,0.8c0,0.1,0.1,0.2,0.1,0.2c3.8,0.3,4.2,0.7,4.3,4.5c0.1,5.4,0.4,10.8-0.5,16.1
		c-0.2,1.4-0.5,2.7-0.8,4C285.8,1065.6,283.8,1068.6,281,1070.5z"/>
	<path class="st113" d="M287.9,1094.6c-0.7,0.9-1.4,1.8-2,2.7c-5.1,7.5-11.5,13.8-18.3,19.8c-1.2,1.2-2.7,2.2-4.4,2.6
		c-0.1-0.9,0.5-1.2,0.8-1.6c3.7-3.9,7.4-7.8,11.2-11.6c2.4-2.4,4.5-5,6.3-7.9c2.3-3.6,4.3-7.3,6.1-11.1c0.3-0.8,0.5-1.7,0.8-2.5
		c0.2-0.5,0.6-0.8,1.1-0.8c0.5,0.1,0.9,0.4,1.2,0.8c0.4,0.7,0.4,1.5,0.1,2.2c-0.3,0.9-0.8,1.8-1.2,2.7c-0.6,1.1-0.8,2.4-0.5,3.6
		C288.5,1093.7,287.9,1093.9,287.9,1094.6z"/>
	<path class="st114" d="M296.4,1070.9l-0.5,0.9l-2.9,0.6c-0.9,0.3-1.8,0.2-2.6-0.2c0.6-2.3,1.9-4.4,3.8-5.8c2.9-2.6,5.5-5.5,7.9-8.5
		c2.9-3.1,5.4-6.6,7.4-10.3c0.3-0.7,0.9-1.3,1.7-1.3c0.5,0,1,0.1,1.4,0.3c0.4,0.3,0.5,0.9,0.2,1.3c-1,1.9-2.1,3.7-3.3,5.5
		c-3.6,5.1-7.5,10-11.6,14.7C297.2,1068.9,296.2,1069.6,296.4,1070.9z"/>
	<path class="st115" d="M314.8,1044c0,0.6-0.5,1.2-1.1,1.3c-1,0.2-2-0.4-2.3-1.4c0-0.8,0.5-1.4,1.3-1.5
		C313.8,1042.2,314.7,1042.9,314.8,1044z"/>
	<path class="st116" d="M161.4,366.1c-0.9,0.1-1.5,0.2-2.1,0.2c-0.6,0-1.1,0-1.3-0.4c-0.4-0.8,0.3-1.1,0.8-1.4
		c2.1-1.4,4.3-2.6,6.9-2.4c1.2,0.1,1.7,1,1,2.1c-0.9,1.3-1.8,2.4-3.7,1.9C162.5,366.1,161.9,366.1,161.4,366.1z"/>
	<path class="st0" d="M560.2,423.7l1-0.8L560.2,423.7z"/>
	<path class="st117" d="M517.7,930.5c-0.8,1.2-1.2,2.6-1.3,4l-3.5,17c-0.1,1.1-0.5,2.2-1.1,3.1c-0.3,0.4-0.9,0.6-1.3,0.3
		c-0.3-0.2-0.5-0.5-0.5-0.9c0.1-1,0.3-2,0.5-3c1.2-6.7,3-13.2,4.5-19.8c0.6-2.7,1.2-5.4,1.8-8.1c0.1-0.6,0.2-1.3,1.1-1.3
		c0.8-0.1,1.5,0.3,1.8,1c0.3,0.8,0.5,1.7,0.7,2.5c0.6,3.1,1.2,6.2,1.8,9.2c0.1,0.6,0.3,1.2,0.4,1.7c1.1,0.2,1.4-0.6,1.8-1.1
		c2.1-2.6,4.3-5.2,6.4-7.8c0.4-0.6,1-1.1,1.5-1.6c0.5-0.4,1.2-0.4,1.8-0.1c0.5,0.2,0.7,0.7,0.7,1.2c-0.1,0.7-0.2,1.5-0.3,2.2
		c-1,4-2,8-3.2,12c-0.6,1.9-1,3.9-1.3,5.9c-0.4,3.5-1.6,6.8-2.3,10.2c-0.1,0.2-0.2,0.5-0.3,0.7c-0.2,0.5-0.7,0.7-1.2,0.7
		c-0.4-0.1-0.7-0.3-0.9-0.6c-0.5-0.7-0.7-1.6-0.5-2.5l0.8-3.7c1-4.9,2.1-9.8,3.1-14.7c0.1-0.4,0.1-0.8,0.1-1.1s0-0.5-0.3-0.6
		s-0.6-0.1-0.7,0.1c-0.9,0.9-1.7,1.9-2.5,2.8c-0.7,0.8-1.5,1.6-2.4,2.4c-0.6,0.5-1.5,0.5-2-0.1c-0.2-0.2-0.3-0.4-0.4-0.7
		c-0.3-0.8-0.4-1.7-0.6-2.5C519.2,935.1,518.5,932.8,517.7,930.5z"/>
	<path class="st118" d="M542.8,943.2c-1,4.1-2,8.3-3,12.4c-0.1,0.4-0.2,0.7-0.2,1.1c-0.2,1.7,0.4,2.7,2,3.1c1.2,0.4,2.4,0.6,3.6,0.9
		c0.5,0.2,0.6,0.7,0.7,1.2c0,0.5-0.2,1-0.7,1.2c-0.3,0.2-0.7,0.3-1.1,0.3c-1.2,0.1-2.5,0.1-3.7-0.2l-5-1.5c-0.8-0.2-1.3-0.9-1.1-1.7
		c0.1-0.7,0.3-1.5,0.5-2.2c2.2-9.5,4.4-19,6.6-28.5l0.1-0.4c0.5-1.9,1.5-2.5,3.3-2c0.9,0.2,1.5,1,1.4,1.9c0,0.5-0.1,1-0.2,1.5
		c-1,4.3-1.9,8.5-2.9,12.8L542.8,943.2z"/>
	<path class="st119" d="M553.6,953.3c-1.3,2.9-2.2,6-2.8,9.1c-0.2,0.9-0.4,1.8-1.5,1.8c-0.8,0-1.4-1-1.1-2.4s0.7-2.9,1.1-4.4
		c1.9-7.9,3.4-16,5.7-23.8c0.2-0.8,0.2-1.7,0.4-2.6c0.1-0.6,0.7-1.1,1.4-1c0.8,0,1.3,0.7,1.3,1.5c0,0,0,0,0,0l0,0
		c-0.2,1.3-0.5,2.7-0.8,4c-0.6,2.8-1.2,5.7-1.7,8.5c0,0.2,0.1,0.4,0.3,0.6c0.2,0.1,0.5,0.1,0.7,0c1.4-1.2,2.8-2.5,4.3-3.7
		c0.5-0.6,1.4-0.6,2,0c0,0,0,0,0,0c0.1,0.1,0.2,0.2,0.3,0.4c0.3,0.4,0.4,1,0,1.4c-0.7,0.5-1.4,1-2.2,1.4c-4.1,2.6-5.3,5.5-4.1,10.2
		c0.3,1.2,0.8,2.4,1.2,3.5c0.5,1.5,1.1,3.1,1.5,4.6c0.3,1,1.2,2.2-0.3,3c-0.7,0.4-1.3-0.3-2-2.2c-0.8-2.6-1.6-5.3-2.5-7.9
		C554.7,954.7,554.2,953.9,553.6,953.3z"/>
	<path class="st120" d="M533.1,947.5l1.6-7.9c0.1-0.6,0.3-1.2,0.6-1.7c0.3-0.4,0.8-0.6,1.3-0.4c0.4,0.1,0.7,0.4,0.6,0.8
		c0,0.9-0.1,1.7-0.3,2.6c-1.2,5.6-2.5,11.2-3.7,16.8c0,0.3-0.1,0.5-0.2,0.8c-0.2,0.7-0.5,1.1-1.3,1c-0.7-0.1-1.2-0.8-1.1-1.5
		c0,0,0-0.1,0-0.1c0.2-1.3,0.5-2.7,0.8-4C531.9,951.9,532.4,950,533.1,947.5z"/>
	<path class="st121" d="M250.8,536.2c-0.8,2.2-1.3,4.6-1.4,7c-0.1,1.2-0.2,2.4-0.5,3.6c-0.5-2.2-1.3-4.3-1.2-6.6
		c0-1.8-0.4-3.5-1.2-5.1c-3.5-9.3-10.1-17.2-18.6-22.5c-2.5-1.5-5-2.9-7.5-4.4c-2.4-1.2-4.9-1.9-7.5-2.2c-1.7-0.3-3.4-0.6-5.2-1
		c-0.3-0.1-0.6-0.4-0.7-0.8c-0.1-0.4,0.1-0.7,0.5-0.8c1.7-0.7,3.6-1.2,5.5-1.2c6.2-0.3,12.3,1.1,17.8,3.8l2.4,1.2c0.1,0,0.2,0,0.5,0
		c0-0.7-0.5-1.4-1.1-1.6c-3.6-2-7.6-3.4-11.7-4c-1.1-0.1-2.3-0.1-3.1-1c0.6-0.6,1.4-0.2,2.1-0.2s1.5,0.2,2.2,0.3s1.7,0.3,2.6,0.5
		c5.5,1.4,10.5,4.3,14.6,8.2c1,0.9,2,1.9,2.9,2.9c0.7,0.9,2.4,1.4,1.3,3.1c0,0.2,0.1,0.5,0.3,0.6c1.6,0.7,1.6,2.8,3.1,3.6
		c2.8,3.7,4.4,8.2,4.7,12.8C251.7,533.6,251.9,535.1,250.8,536.2z"/>
	<path class="st122" d="M196.4,527.1c-1.2-1.6-3.1-1.8-4.9-2.3c-1.1-0.3-2.2-0.4-3.3-0.6c-0.4-0.1-0.8-0.3-0.7-0.6
		c0.1-0.3,0.4-0.6,0.7-0.8c1.8-0.9,3.8-1.3,5.8-1.2c10.5,0.8,17.8,6.1,22,15.6c1.3,3.1,1.8,6.6,1.3,9.9c0,0.4-0.2,0.7-0.6,0.9
		c-0.3,0.2-0.7,0-0.9-0.4c-0.5-0.8-1.1-1.7-1.6-2.5c-0.5,0.1-0.5,0.5-0.5,0.8s-0.1,0.7-0.2,1.3c-1.1-1.4-1.4-3-2-4.4
		c-1.6-4.2-4-8.1-7.2-11.3c-1.7-1.6-3.7-3-5.9-4c-0.6-0.4-1.4-0.6-2.1-0.5H196.4z"/>
	<path class="st123" d="M250.8,536.2c0.3-4.6-0.7-9.2-2.8-13.3c-0.5-1.1-1.4-2.1-1-3.5l-0.1,0c3.1,0.8,3.2,3.8,4.2,6
		c1.6,3.5,2,7.5,1.2,11.3C251.6,536.9,251.3,536.4,250.8,536.2z"/>
	<path class="st124" d="M252.2,536.8c-0.2-2.5-0.4-5-0.8-7.4c-0.4-3.4-1.7-6.5-3.7-9.3c-0.3-0.2-0.6-0.4-0.9-0.6
		c0.5-0.8,1.2-1,1.7-0.2c3,4.9,5.5,10,4.5,16C252.9,535.9,252.9,536.5,252.2,536.8z"/>
	<path class="st125" d="M249.7,498c5.7,1.4,10.3,5.5,12.3,11c-0.9,0-1.3-0.6-1.8-1.2c-1.1-1.3-2.2-2.6-3.4-3.9
		c-1.5-1.7-3-3.3-5.3-3.9C250.6,499.8,249.8,499,249.7,498z"/>
	<path class="st122" d="M217.9,553c-0.3-0.9-0.2-1.9,0.1-2.8c0.6-2.3,0.6-4.7,0.2-7.1c-0.1-0.7-0.1-1.5,0-2.2c0-0.1,0.1-0.3,0.2-0.3
		c0.2,0,0.5,0.1,0.6,0.2c1.3,3.8,1.1,8-0.4,11.7C218.4,552.7,218.1,552.8,217.9,553z"/>
	<path class="st126" d="M248.4,568.4c0.6-3.7,0.9-7.1,1.7-10.9C251.6,562.1,251,565.5,248.4,568.4z"/>
	<path class="st127" d="M196.3,527.1c0.2,0.8,1.6,0.9,1.3,2.2c-3.2-1.2-6.6-1.7-9.8-2.6C190.8,525.5,193.6,526.6,196.3,527.1
		L196.3,527.1z"/>
	<path class="st4" d="M239.3,492.4c2.8,0.3,5.3,1,6.9,3.5C243.8,495.1,241.5,493.9,239.3,492.4z"/>
	<path class="st125" d="M261.9,509c0.4,0.1,0.6,0.4,0.6,0.8C262.2,509.7,261.9,509.3,261.9,509z"/>
	<path class="st128" d="M367.2,717.8c-0.1-2.2,0.3-4.4,1.2-6.4c1.6-3.3,5-5.2,8.6-4.8c3.5,0.4,6.3,2.9,7.1,6.3
		c1,3.3,0.6,6.8-0.9,9.8c-2,4.1-7,5.8-11.1,3.8c-2.5-1.2-4.2-3.6-4.6-6.4C367.3,719.4,367.2,718.6,367.2,717.8z"/>
	<path class="st129" d="M404.7,730.9c4.4-0.1,8.1,3.4,8.2,7.8c0,0.5,0,0.9-0.1,1.4c-0.4,3-4.1,6.1-7.2,6.1c-0.6,0-1.2-0.2-1.9-0.2
		c-6.8-0.4-7.9-7.8-5.7-11.5C399.5,731.7,402,731,404.7,730.9z"/>
	<path class="st130" d="M426.7,716.1c0-2.3,1-4.5,2.7-6c2.2-2.2,5.7-2.2,7.9,0c0.3,0.3,0.6,0.7,0.9,1.1c1.1,1.7,1.6,3.7,1.5,5.7
		c-0.4,3.9-3.9,6.8-7.8,6.4c0,0,0,0,0,0h-0.4c-1-0.2-1.9-0.7-2.5-1.4C427.4,720.3,426.7,718.2,426.7,716.1z"/>
	<path class="st131" d="M389.5,713.4c0.1-3,2.6-5.4,5.6-5.3c3.3-0.1,6,2.6,6.1,5.9c0.1,3.3-2.6,6-5.9,6.1
		C392.5,720.1,389.5,716.6,389.5,713.4z"/>
	<path class="st132" d="M390.1,735.8c-0.4,1.2-1.6,2-2.9,1.9c-1.1-0.1-2.1-0.8-2.6-1.9c-1.5-2.7-0.6-6.2,2.1-7.7
		c1.5-0.8,3.3-0.5,4.4,0.8c0.9,1,1.3,2.4,1.2,3.8C392.2,734.1,391.4,735.4,390.1,735.8c-0.9-0.7-0.6-1.8-0.5-2.7s0-1.8-1.1-2.1
		c-0.6-0.2-1.3,0.2-1.5,0.8c-0.6,0.9-0.4,2,0.5,2.7C388.3,735.1,389.4,735.1,390.1,735.8z"/>
	<path class="st133" d="M360.9,708.5c0,0.5,0,0.9-0.1,1.4c-0.1,1.3-0.9,2.4-2.1,2.7c-1.5,0.4-3.1-0.1-4-1.4c-1-1.8-1-4,0.2-5.7
		c0.7-0.9,1.9-1.4,3-1.2c1.3,0.1,2.4,0.9,2.8,2.2C360.8,707.2,360.9,707.9,360.9,708.5z"/>
	<path class="st134" d="M420.2,698.2c-0.1,1-0.9,1.7-1.9,1.6c0,0,0,0,0,0c-0.1,0-0.2,0-0.3,0c-1.7-0.2-3-1.5-3.2-3.1
		c-0.2-1.6,0.3-3.3,1.5-4.4c1.4-1.3,3.6-1.2,4.8,0.2c0,0,0,0,0,0c0.1,0.1,0.2,0.3,0.4,0.5c0.5,1,0.6,2.2,0.4,3.3
		c-0.1,1-0.8,1.9-1.8,2.2c-0.4-0.6-0.5-1.4-0.4-2.1c0-0.8,0-1.5-1-1.7c-0.4-0.1-0.8,0.1-0.9,0.5c-0.3,0.7-0.1,1.6,0.5,2
		C419,697.4,419.6,697.8,420.2,698.2z"/>
	<path class="st135" d="M360.6,745.5c0-1,0.3-2,1-2.7c0.6-0.7,1.5-0.9,2.4-0.6c0.3,0.2,0.7,0.3,1,0.5c2.6,1.2,3.1,3.1,1.6,5.4
		c-0.8,1.4-2.6,1.8-4,1c0,0,0,0,0,0l-0.3-0.2C361.2,748.2,360.6,746.9,360.6,745.5z"/>
	<path class="st136" d="M375.6,762.4l-1.8-0.4c-0.1-0.9,0.6-0.8,0.9-0.9c3.1-1,6.5-0.8,9.5,0.4c0.9,0.4,1.8,0.9,2.5,1.7
		c2,2.2,1.4,4.9-1.3,6.1c-1.8,0.8-3.8,1.2-5.8,1.1c-2.9-0.2-5.6-1.3-7.9-3.1c-0.5-0.4-0.9-0.9-1.2-1.4c-0.5-0.8-0.3-1.8,0.5-2.3
		c0.3-0.2,0.6-0.3,0.9-0.3C373.4,763.6,374.4,762.3,375.6,762.4z"/>
	<path class="st137" d="M349.7,758.3c0.8,0.2,1.6,0.4,2.4,0.6c1,0.3,1.6,1.2,1.6,2.2c0,0.9-0.6,1.7-1.3,2.1
		c-2.2,1.1-4.8,0.5-6.4-1.4c-0.4-0.5-0.5-1.2-0.1-1.7C346.7,758.8,348.2,758.1,349.7,758.3z"/>
	<path class="st138" d="M364.8,756.8c0.3,0.3,0.8,0.7,0.9,1.1c0.1,0.6-0.1,1.3-0.6,1.6c-1.6,1.2-3.9,1-5.3-0.5
		c-0.6-0.5-0.7-1.4-0.2-2c0.4-0.6,1.2-0.8,1.9-0.4h0.1C362.6,758.4,363.7,756.5,364.8,756.8z"/>
	<path class="st139" d="M364.8,756.8c-0.3,1.1-1.3,1.8-2.5,1.8c-0.5,0.1-1-0.1-1.3-0.4c-0.4-0.6,0-1.1,0.5-1.6
		C362.6,756.6,363.8,755.8,364.8,756.8z"/>
	<path class="st140" d="M415.2,670.6c0.8,0.1,1.7,0.3,2.5,0.6c1.6,0.7,2.4,2.6,1.7,4.2c-0.2,0.5-0.6,1-1,1.3
		c-2.3,1.6-5.1,2.2-7.9,1.5c-1.3-0.3-2.2-1.3-2.4-2.5c-0.4-1.4,0.2-2.8,1.4-3.6C411.1,671,413.2,670.5,415.2,670.6z"/>
	<path class="st141" d="M262.1,1097.9c1.3-0.2,1.9,0.5,2.5,1.1c2.6,2.4,6.1,3.7,9.6,3.6c0.4,0,0.7,0.1,1.1,0.2
		c0.3,0.1,0.4,0.3,0.2,0.6c-0.1,0.1-0.1,0.2-0.1,0.3c-0.2,0.2-0.4,0.3-0.6,0.4c-2.5,0.4-5.1,0.1-7.3-1.1
		C265.2,1101.8,263.3,1100.1,262.1,1097.9z"/>
	<path class="st142" d="M258,1080.3c0.2,0.1,0.4,0.2,0.6,0.3c0.2,0.3,0.4,0.6,0.5,1c0.5,2.1,1.9,3.8,3.9,4.7
		c0.3,0.2,0.5,0.5,0.7,0.8c0.1,0.2,0,0.4-0.3,0.5c-3.2,0.2-6.8-3.9-6-6.9C257.5,1080.5,257.8,1080.4,258,1080.3z"/>
	<path class="st143" d="M288.4,1078.6c3.2,0.1,6.2-0.1,9.2-2.8c-1,2.8-2.5,3.8-4.2,4.2S289.9,1080.5,288.4,1078.6z"/>
	<path class="st144" d="M281.1,1073.6c-0.6,0.1-1,0.3-1.2,0.2c-2.6-1-3.5-3.3-4-5.7c-0.1-0.5,0.4-0.9,0.9-1c0.2,0,0.6,0.1,0.6,0.2
		C277.5,1070,279.2,1071.8,281.1,1073.6z"/>
	<path class="st145" d="M274.6,1069.4c-0.5-3.8-0.9-7.3,1.7-10.5c0.9,1.5-0.1,2.4-0.4,3.4c-0.3,1.2-0.5,2.4-0.5,3.7
		C275.4,1067,275.8,1068.2,274.6,1069.4z"/>
	<path class="st146" d="M213.9,504.5c2.4-1,5-1.2,7.4-0.4c8.1,2,15.4,6.4,21,12.5c4.3,4.7,7.1,10.3,7.1,17c0,0.5-0.1,1-0.2,1.5
		c0,0-0.2,0-0.5,0.1c-0.9-1.9-1.8-4-2.8-5.9c-1.1-2.1-2.4-4.2-3.8-6.1c-1.3-1.8-2.8-3.6-4.3-5.2c-1.6-1.8-3.4-3.3-5.4-4.7
		c-1.9-1.3-3.7-2.5-5.7-3.6c-2.1-1.1-4.3-2.1-6.5-3C218.1,505.9,216,505.2,213.9,504.5z"/>
	<path class="st44" d="M194,523.6c8.9-1,20.3,7.3,21,18.1C204.9,528.1,205.9,530.4,194,523.6z"/>
	<path class="st95" d="M368.3,716c0.1-0.9,0.3-1.8,0.7-2.6c0.9-2.6,2.7-4.3,5.5-4.5s5.4,0.7,7,3.5c1.8,3.1,1.8,6.9,0,10
		c-2.1,3.8-7,5.3-10.7,1.3C369,721.7,368.5,719.3,368.3,716z"/>
	<path class="st109" d="M404.2,732.7c1.1,0,2.1,0.3,3.1,0.6c3.1,1.2,4.6,4.7,3.4,7.8c0,0,0,0.1,0,0.1c-0.2,0.6-0.6,1.2-1,1.7
		c-1.1,1.2-2.7,1.9-4.3,1.9c-2.4,0.2-4.8-1-6.1-3.1c-1.5-2.2-1.2-4.6-0.1-6.8C400.2,733.1,402.1,732.7,404.2,732.7z"/>
	<path class="st147" d="M428.2,716.5c0-0.7,0.1-1.4,0.2-2.1c0.4-2,2.1-3.5,4.2-3.7c1.3-0.1,2.5,0.4,3.3,1.5c2.1,2.5,2.1,6.2,0,8.7
		c-1.1,1.4-2.9,1.3-4.5,1c-1.6-0.2-2.8-1.4-3-3C428.3,718,428.2,717.2,428.2,716.5z"/>
	<path class="st148" d="M399.1,714.4c-0.1,2.2-2.1,4.2-4,4.2c-2.3-0.3-4-2.2-4.2-4.5c0-2.2,1.7-4,3.9-4.1c0,0,0,0,0,0
		C397.2,710.1,399,712,399.1,714.4z"/>
	<path class="st148" d="M390.1,735.8c-0.6,0.2-1.2,0.3-1.8,0.3c-1.4,0.2-2.7-0.7-2.9-2.1c0-0.2,0-0.3,0-0.5c-0.1-1,0.2-2,0.8-2.8
		c0.6-1,1.8-1.4,2.9-1c1.1,0.3,1.9,1.4,1.7,2.5C390.6,733.5,389.9,734.6,390.1,735.8L390.1,735.8z"/>
	<path class="st149" d="M355.3,708.8c0-1.8,0.8-2.9,2.1-2.9s2.5,1.4,2.3,3.1c0,0.2-0.1,0.5-0.2,0.7c-0.2,1.1-1.3,1.9-2.4,1.7
		c-0.9-0.2-1.6-0.9-1.7-1.9C355.3,709.3,355.3,709.1,355.3,708.8z"/>
	<path class="st150" d="M420.2,698.2c-0.5,0-1,0.1-1.5,0.1c-1.5,0-2.2-0.5-2.4-1.7c-0.4-1.5,0.3-3,1.8-3.7c1.1-0.4,2.3,0.2,2.6,1.3
		c0.1,0.3,0.1,0.5,0.1,0.8C420.6,696.1,420.4,697.2,420.2,698.2L420.2,698.2z"/>
	<path class="st151" d="M362.2,745.7c0-1.4,0.3-2.1,1.3-2.3c0.7-0.3,1.5-0.1,1.9,0.6c0.4,0.6,0.7,1.3,0.7,2c-0.1,1-0.8,1.8-1.8,2
		c-1,0.1-1.9-0.5-2.1-1.5l0,0C362.3,746.1,362.3,745.9,362.2,745.7z"/>
	<path class="st152" d="M380.5,769c-2.7,0.1-5.3-0.7-7.4-2.2c-0.5-0.4-0.7-1.1-0.3-1.6c0,0,0,0,0,0c0.1-0.2,0.3-0.4,0.6-0.5
		c0.6-0.3,1.1-0.5,1.8-0.7c3.2-0.6,6.6-0.1,9.5,1.4c0.7,0.3,1.5,0.8,1.5,1.6c0,1-1.1,1.2-1.8,1.6C383.1,768.9,381.8,769.1,380.5,769
		z"/>
	<path class="st153" d="M349.3,760.7c0.3,0,0.7,0.1,1,0.1c0.5,0.1,0.9,0.4,1.1,0.8c0.1,0.4-0.5,0.9-1.3,0.8c-0.5,0-1-0.1-1.5-0.2
		c-0.5-0.1-0.9-0.2-1.1-0.8s0.3-0.8,1.3-0.8H349.3z"/>
	<path class="st154" d="M412.4,677c-0.5-0.1-1.1-0.2-1.7-0.4c-0.8-0.2-1.3-0.7-1.5-1.5c0-0.8,0.4-1.5,1-1.9c1.6-1.2,3.7-1.7,5.6-1.3
		c0.2,0,0.5,0.1,0.7,0.3c0.7,0.3,1.2,1,1.2,1.7c0.1,0.8-0.4,1.5-1.1,1.8C415.4,676.5,413.9,676.9,412.4,677z"/>
</g>
</svg>
