<svg id="Livello_1" data-name="Livello 1" xmlns="http://www.w3.org/2000/svg" width="1920" height="1243.3" viewBox="0 0 1920 1243.3">
  <defs>
    <style>
      .cls-1 {
        fill: #020201;
      }

      .cls-2 {
        fill: #020101;
      }

      .cls-3 {
        fill: #acb6bc;
      }

      .cls-4 {
        fill: #111112;
      }

      .cls-5 {
        fill: #141415;
      }

      .cls-6 {
        fill: #252526;
      }

      .cls-7 {
        fill: #3b3939;
      }

      .cls-8 {
        fill: #322423;
      }

      .cls-9 {
        fill: #281c1b;
      }

      .cls-10 {
        fill: #323030;
      }

      .cls-11 {
        fill: #444242;
      }

      .cls-12 {
        fill: #3e3d3d;
      }

      .cls-13 {
        fill: #5a5c5c;
      }

      .cls-14 {
        fill: #666565;
      }

      .cls-15 {
        fill: #6b6868;
      }

      .cls-16 {
        fill: #6f6f6f;
      }

      .cls-17 {
        fill: #515050;
      }

      .cls-18 {
        fill: #4c4848;
      }

      .cls-19 {
        fill: #feb400;
      }

      .cls-20 {
        fill: #fcecd5;
      }

      .cls-21 {
        fill: #fbebd5;
      }

      .cls-22 {
        fill: #f6b027;
      }

      .cls-23 {
        fill: #f6443c;
      }

      .cls-24 {
        fill: #fdb300;
      }

      .cls-25 {
        fill: #faead4;
      }

      .cls-26 {
        fill: #f3433b;
      }

      .cls-27 {
        fill: #fc6201;
      }

      .cls-28 {
        fill: #1e180d;
      }

      .cls-29 {
        fill: #f4443c;
      }

      .cls-30 {
        fill: #f7e8d2;
      }

      .cls-31 {
        fill: #fafbfb;
      }

      .cls-32 {
        fill: #fbb200;
      }

      .cls-33 {
        fill: #fb6201;
      }

      .cls-34 {
        fill: #fa6101;
      }

      .cls-35 {
        fill: #ec413a;
      }

      .cls-36 {
        fill: #f66001;
      }

      .cls-37 {
        fill: #df5702;
      }

      .cls-38 {
        fill: #c5c6c6;
      }

      .cls-39 {
        fill: #fcfcfc;
      }

      .cls-40 {
        fill: #fff;
      }

      .cls-41 {
        fill: #a8b2b8;
      }

      .cls-42 {
        fill: #9ea7ac;
      }

      .cls-43 {
        fill: #abb5bb;
      }

      .cls-44 {
        fill: #f7443c;
      }

      .cls-45 {
        fill: #fefefe;
      }

      .cls-46 {
        fill: #fdfdfd;
      }

      .cls-47 {
        fill: #fcfdfd;
      }

      .cls-48 {
        fill: #f5443c;
      }

      .cls-49 {
        fill: #f9d1be;
      }

      .cls-50 {
        fill: #fad4c0;
      }

      .cls-51 {
        fill: #e24039;
      }

      .cls-52 {
        fill: #f2c3b1;
      }

      .cls-53 {
        fill: #ee5e54;
      }

      .cls-54 {
        fill: #d0bfae;
      }

      .cls-55 {
        fill: #c7c1b0;
      }

      .cls-56 {
        fill: #f4463e;
      }

      .cls-57 {
        fill: #f7c2b0;
      }

      .cls-58 {
        fill: #231901;
      }

      .cls-59 {
        fill: #201601;
      }

      .cls-60 {
        fill: #151101;
      }

      .cls-61 {
        fill: #3b2902;
      }

      .cls-62 {
        fill: #382702;
      }

      .cls-63 {
        fill: #191715;
      }

      .cls-64 {
        fill: #1a1917;
      }

      .cls-65 {
        fill: #faead5;
      }

      .cls-66 {
        fill: #fbfcfc;
      }

      .cls-67 {
        fill: #222121;
      }

      .cls-68 {
        fill: #201d1d;
      }

      .cls-69 {
        fill: #313030;
      }

      .cls-70 {
        fill: #2d2c2c;
      }

      .cls-71 {
        fill: #2f2f2f;
      }

      .cls-72 {
        fill: #1e1c1c;
      }

      .cls-73 {
        fill: #513a32;
      }

      .cls-74 {
        fill: #fafafb;
      }

      .cls-75 {
        fill: #f15148;
      }

      .cls-76 {
        fill: #ded0bc;
      }

      .cls-77 {
        fill: #e1d1bd;
      }
    </style>
  </defs>
  <title>editipad</title>
  <g>
    <path class="cls-1" d="M235.7,747.8c-.9-.1-1.7-.5-2.7,0-9.7,5-20.2,6.7-31,7.3s-21.7.9-32.6.7c-15.7-.4-31.3-1.8-46.6-5.5a87.88,87.88,0,0,1-12.3-3.9c-2.2-.9-4.4-2-6.5-3.1a21.35,21.35,0,0,1-10.8-15.1c-.2-1.1-.3-2.2-.5-3.3-.9,0-1.4.7-2.1,1.2-2.7,2-4.3,1.8-6.8-.4a4.62,4.62,0,0,1-.7-.7,55.76,55.76,0,0,0-9.3-8.2,10.63,10.63,0,0,1-1.1-.9,2.55,2.55,0,0,1-.6-3.5l.3-.3a23.78,23.78,0,0,1,6.1-5.3c2.6-1.5,5.3-3,8-4.4a7.56,7.56,0,0,0,3-2.3,2.66,2.66,0,0,0-.5-3.9,1.66,1.66,0,0,0-1.2-.5,29.92,29.92,0,0,1-3.2-1c-2.4-1-2.8-2-2-4.5.1-.3.3-.6.4-.9.5-1.5,0-2.2-1.4-2.2-1,0-1.9.1-2.9.1-2.1,0-3.1-1.4-3.7-3.2a3.9,3.9,0,0,1,1.1-4.4,11.3,11.3,0,0,1,4.2-2.2c1.8-.6,3.6-1.3,5.4-1.9.1,0,.2-.2.3-.4.1-1.3-.8-2.3-1.3-3.5a16.9,16.9,0,0,1,.5-14.4A31.3,31.3,0,0,1,91,649a96,96,0,0,1,58.9-31.2,150.83,150.83,0,0,1,39.7-.7c21.7,2.5,40.6,11.1,56.1,26.5a65.68,65.68,0,0,1,14.4,21.9c2.7,6.6,3.5,13.3,1.5,20.2-1,3.3-2.2,6.4-5.8,7.7a2.77,2.77,0,0,0-1.9,2.5,1.52,1.52,0,0,0,.3,1.3c.4.4.8,0,1.1-.3a26.22,26.22,0,0,1,2.5-2.2,5.41,5.41,0,0,1,6.3-.2,10.41,10.41,0,0,1,5.4,8,13.43,13.43,0,0,1-2.4,9.7,2.74,2.74,0,0,0,2.1,1.5c4.7,1.1,9.3,2.2,14,3.2a43.5,43.5,0,0,0,23.2-.7,26.32,26.32,0,0,1,10.4-1.2,16.92,16.92,0,0,1,3.8.7q3.3,1,2.4,4.5a12,12,0,0,1-1.5,3.5A27.34,27.34,0,0,1,311,734a71.41,71.41,0,0,1-14.4,6.3c0,1.5,1.2,1.8,2,2.5a34.22,34.22,0,0,1,9.6,13,19,19,0,0,1,1.5,9.4c-.5,4.4-2.9,6.3-7.2,5.5a28.8,28.8,0,0,1-5-1.5c-3.4-1.3-6.8-2.7-10.3-4a43.55,43.55,0,0,0-17.9-2.6,27.53,27.53,0,0,0-18.1,7.9c-5.2,5.1-11,9.3-16.8,13.6a8.34,8.34,0,0,1-1.2.8,10.55,10.55,0,0,1-14.5-2.8,9.35,9.35,0,0,1-1.7-5.4,22.08,22.08,0,0,1,1.9-8.8c3.4-8,8.9-14.4,15.4-19.9.7-.3,1.1-.1,1.4-.2-.7-.8,0-1.1.4-1.6a8.2,8.2,0,0,0,3.2-3.2,10.41,10.41,0,0,1-3.4,3.2C235.7,746.8,234.8,747.2,235.7,747.8Z"/>
    <path class="cls-2" d="M252.7,406.2a2.35,2.35,0,0,1,2.1-1.6,2.68,2.68,0,0,1,2.4.7c.7.7,1.3,1.4,2,2.1s1.2,1.5,1.9,2.2a2.83,2.83,0,0,0,3,.7c.5-.2.9-.4,1.3-.6a2,2,0,0,1,2.4.2,31.06,31.06,0,0,0,5.2,3.4,7.55,7.55,0,0,1,1.4,1.1A26.28,26.28,0,0,0,282,420a15,15,0,0,1,4.7,4,11.46,11.46,0,0,1,2,11,16.36,16.36,0,0,1-3.4,6,2.74,2.74,0,0,0-.2,3.6,42.09,42.09,0,0,1,5.6,14.9,10.87,10.87,0,0,1,0,3.6c-.7,3.2-1.3,6.4-2,9.6a6.3,6.3,0,0,1-1,2.7,9.41,9.41,0,0,0-1.2,2.2c-5.4,11.2-14.4,18.1-26.3,21.3a69.67,69.67,0,0,1-15.1,2.2c-13.1.6-25.9-1.4-38.5-4.6a153.63,153.63,0,0,1-21.8-7,68.45,68.45,0,0,1-19.6-11.7c-9.8-8.5-14-19.3-12.8-32.2a35.36,35.36,0,0,1,7.3-18.4,5.26,5.26,0,0,1,1.2-1.4c1.8-1.6,2-3.2.7-5.4-2.2-3.7-2-7.7-.2-11.5a12.31,12.31,0,0,1,8.8-7,6.17,6.17,0,0,0,3.1-1.6.76.76,0,0,1,.9-.1c.8.8.8,1.9,1.5,2.8a2.93,2.93,0,0,1,.4,1.6c-.5,2.3-2.1,3-4.2,3.4-3,.6-3.6,2-1.4,4.2a32.27,32.27,0,0,0,7.4,5.3c8.8,5.1,18.6,7.7,28.4,10.2,20.5,5.2,41.2,8,62.3,7.3a33.27,33.27,0,0,0,5.4-.7c4.3-.9,4.7-1.6,4.6-5.8,1.3-1.6,2.2-.6,3,.5.5.6.6,1.8,1.8,1.2a2.62,2.62,0,0,0,1.1-2.5c0-2.3-3.5-6.2-5.7-6.4-2-.1-2.4,1.2-2.2,2.8.1,1.1,1.2,2.2,0,3.3-3.1.2-3.5-1.9-3.5-4.2,0-1.3.5-2.6.4-4,0-2-.9-3.2-2.9-3.4-1.6-.2-3.1-.3-4.2-1.8-.8-1-1.7-.4-2.6,0-3.8,1.7-3.8,1.7-5.9-1.9-1.3-2.2-2.3-4.6-4.9-5.7Z"/>
    <path d="M249.4,1180.4a15.82,15.82,0,0,1-7.6-2.4,10.39,10.39,0,0,0-3.4-1.5c-9.4-1.5-18.6-4.2-27.9-6.2-3.4-.7-6.9-1.2-10.3-1.9-1.2-.3-2.6-.2-3.4-1.4.2-2.6,1.2-5.2.2-7.8a36.77,36.77,0,0,1-.5-8.1c.2-4.2.3-8.3.3-12.5a85.46,85.46,0,0,1,1.3-12.4c.6-3.9.7-4,4.4-3.6,4.3.4,8.6.8,12.9,1.4,9.3,1.2,18.6,2.7,27.9,4.7a3.14,3.14,0,0,1,2.9,3.1c.2,2.1.4,4.1.4,6.2,0,11.5-.1,23-.1,34.5v1.9c0,1.1-.3,2.3.4,3.3s2.1.4,3.1.9a4.35,4.35,0,0,1,.7.6C250.7,1180.3,250.5,1180.8,249.4,1180.4Z"/>
    <path d="M103.6,1148.7a39.64,39.64,0,0,1,13.3-.4c1.4.2,2.8.6,4.3-.1-.2-2.3-.3-4.7-.4-7-.4-1.8-1.2-3.7.6-5.3,2.8-.3,4.7,1.7,7,2.6,6.1,2.5,12.6,1.8,18.8,2.5a3.22,3.22,0,0,1,1.8,1.2c.9,1.7.3,3.3-.3,6,2-3,2.2-5.6,3.5-7.7.3-.5.7-1,1-1.5a8.79,8.79,0,0,0,.6-1,11.92,11.92,0,0,0,.8-2c.1-.3.2-.7.3-1a10.09,10.09,0,0,1,.7-1.5c.3-.5.3-.7.5-1l.6-.9a2.07,2.07,0,0,1,1-.6c1.2.3,1.3,1.2,1.3,2.3a2.28,2.28,0,0,1-.3,1.1c-.1.3-.3.7-.4,1a5.36,5.36,0,0,1-.5,1.1,8.45,8.45,0,0,0-.5,1.7,3.55,3.55,0,0,0,.2,1c1,.8,1.9.1,2.7-.3a27.09,27.09,0,0,1,8.2-3.5c3.1-.6,5.3-2.7,7-5.2,1.4-.8-.3-3.5,2.2-3.7.6,0,1.2.5,1.7-.2,1.6-2.5,3.3-5,4.9-7.4,1-.2,1.5.1,1.1,1.2a5.46,5.46,0,0,1-1.6,3.8c-.6.7-1.6,1.3-1.9,2.1-1.3,3.1-2.1,6.6-5,8.8a1,1,0,0,0-.2.9,10,10,0,0,1-1.2,5.9c-.7,1.5.3,2.4,1.2,3.2a1.05,1.05,0,0,1,0,1.3h0c-2.9,1.8-6.1-.5-9,.6-1.1.2-2.2.5-3.3.8-2.3.7-4.6,1.4-6.9,2.3,1.6,1.7,3.5,2,5.1,3a51.34,51.34,0,0,1,11.7,10.6,3.81,3.81,0,0,1,.1,1.5,152.71,152.71,0,0,0,0,17.9,3,3,0,0,1-.5,1.5,39.45,39.45,0,0,0-7.5,6.6,13.92,13.92,0,0,1-5.7,4.2c-1,.3-1.4-.2-1.6-1.1,2.7-6,1.2-12.3,1-18.4a8.42,8.42,0,0,0-.4-2.7c-1.2-4.1-5.4-4.7-8.3-6.6a32.13,32.13,0,0,0-8.3-3.6,9.29,9.29,0,0,1-1.3-.4c-4.2-2.1-7.6-.7-10.7,2.3a11.25,11.25,0,0,0-3.8,3.4c-3.9,6-7.8,11.9-9.3,19.1-1.1,2,.8,5.4-2.9,6.1a15.5,15.5,0,0,0-4.3.1,46.8,46.8,0,0,1-17.5-.3,25.84,25.84,0,0,1-8-3,9.14,9.14,0,0,1-5-8.2c-.1-5.9-.2-11.8-.2-17.7a6.55,6.55,0,0,1,1.8-4.8c.9-.2,1.3.4,1.7,1.1.4,5.3,3.7,7.8,8.4,9.1,13.2,3.6,29.1,1.5,39.6-10.8,1.3-1.5,1.2-2.4-.4-3.4a24.43,24.43,0,0,0-9.4-3.2c-5.1-.6-10.1-1.4-15.2-1.2C105.1,1150.5,103.6,1150.6,103.6,1148.7Z"/>
    <path class="cls-3" d="M259.1,1181.3c.6-2.3,3.2-2.6,4.3-4.3s1.3-3.6,2.6-5.1a17.28,17.28,0,0,1,5.8-4.2c1.6-.7,3.2-1.3,4.9-2a10.5,10.5,0,0,0,5.1-4.2,7.26,7.26,0,0,1,4.7-3.7,5.29,5.29,0,0,0,2.1-1.1,2.25,2.25,0,0,0,.9-2c-.1-2.1,0-2.1,1.9-1.4l.4.2c.8.4,1.7,1.1,2.6.2a3,3,0,0,0,.7-3.1,2.71,2.71,0,0,0-3.1-1.6,19.48,19.48,0,0,1-2.3.6,2.07,2.07,0,0,1-2.4-1.8v-.5c.2-2.4.5-4.7.8-7.1a2,2,0,0,1,2-1.8,1.14,1.14,0,0,1,.8.3c.4.2.8.6,1.2.8a1.68,1.68,0,0,0,2.3-.8c.1-.2.1-.4.2-.5a11.44,11.44,0,0,0-.2-5.2,58,58,0,0,0-1.9-5.9c-.4-1.1-.8-2.1-1.2-3.1-1-2.8-.9-5.3,1.5-7.4a9.43,9.43,0,0,0,1-1,3.06,3.06,0,0,0,.4-4c-3-3.9-3.7-8.8-6.5-12.8a6.68,6.68,0,0,1-.5-6c1.3-4.1,0-7.5-1.9-10.9-.3-.6-.7-1.1-1-1.6-1.6-2.8-1.6-3,1-5.6,3.2.3,2.4,3.8,4.2,5.2,4.9,7.3,11,13.8,13,22.9.9,3.9,3.2,7.6,5.5,11,4.8,6.9,6.6,15,10.1,22.4.9,1.8,1,4,2.4,5.6,1.1,1.2,1,2.7.9,4.1a23,23,0,0,1-9.1,15.5c-4.3,3.4-9.2,6.9-13.9,8.9-6.1,2.7-11.1,6.7-16.9,9.6s-12,5.2-18.8,3.4C261.5,1182.8,259.5,1183.6,259.1,1181.3Z"/>
    <path class="cls-4" d="M148.9,1143.2l-1.4-1.4c.7-4.3-2.7-5.2-5.5-6.6s-6.5-1.9-5.7-6.4c.5-3,4.1-5.2,8.6-5.4,2.2-.1,4.5.2,6.7-.3a1.85,1.85,0,0,0,1.2-.7c-7.2-4.1-25.4,4-31.1,13.8a2.35,2.35,0,0,0-.8,2.1c0,.9-.1,1.9-.1,2.8-1.1-2.2-.9-4.7-1-7-.1-1.9,1-3.3,2.3-4.5a36.59,36.59,0,0,1,12.2-7.5,15.46,15.46,0,0,1,2.3-.7,3.41,3.41,0,0,0,2.9-3.2c.4-3,1-6,1.5-9,2.8-17.3,5.6-34.7,8.4-52,2.4-14.8,4.8-29.7,7.1-44.5s4.8-29.7,7.2-44.5c1.7-10.6,3.6-21.1,5-31.7.7-5.3,4-7,8.7-5.9,4,1,5.2,2.7,4.5,6.9-2.1,12-4.3,23.9-6.6,35.8-3.4,17.7-6.8,35.5-10.3,53.2l-12,62.1c-1.7,8.6-3.3,17.3-5,25.9-.1.6-.2,1.3-.3,1.9a2,2,0,0,0,1.6,2.3h.2a7.41,7.41,0,0,0,8.5-3.9,50,50,0,0,0,2.1-4.8l46.2-121.8q8.7-22.8,17.4-45.7a23,23,0,0,1,1.7-3.9,5.3,5.3,0,0,1,7-2.4,9.67,9.67,0,0,1,3.6,2.3,4.61,4.61,0,0,1,1.4,4.8,50.05,50.05,0,0,1-1.8,5q-15,35.85-29.9,71.6-20.25,48.6-40.5,97.3a3.26,3.26,0,0,0-.4,1.4,1.36,1.36,0,0,0,.6,1.1c1.2.4,2.5.6,3.7,1,3.4,1.1,6.4,2.7,8.3,6-.6.4-.5,1-.3,1.6a1.75,1.75,0,0,1-.6,2.3c-2.5-2-3.1-6-6.9-6.8-1.8-.4-3.7-1.6-5.4-.1s-1,3.3-.3,5.2c1.5,4.3-.9,6.5-5.8,5.5-.1-1,.1-2.1-.8-2.9-1.3-2.2.1-4,.9-5.8,21.9-53.1,44.2-106,66-159.1,2.6-6.2,5.1-12.4,7.9-18.6a21.81,21.81,0,0,0,1.6-4.5,3.18,3.18,0,0,0-2.1-3.8,2.73,2.73,0,0,0-3.7,1.3,24.42,24.42,0,0,0-2.6,5.7c-15.4,41.2-31.4,82.2-46.9,123.3-6.6,17.5-13.4,34.9-20,52.4-2.2,5.8-5.1,11.4-6.8,17.4C151.4,1141.3,150.8,1142.8,148.9,1143.2Z"/>
    <path class="cls-5" d="M173.9,400.3l-.9-.1a9.06,9.06,0,0,1,3.3-5c2.6-1.9,3.1-4.6,2.5-7.5a33.76,33.76,0,0,0-1.3-4.2c-5-14.1-12.3-26.9-20.9-39.1-2.9-4.2-5.9-8.3-8.8-12.5a91.52,91.52,0,0,1-8.8-16.3,24.58,24.58,0,0,1-1.6-5.9c-.4-2.9,1.7-4.4,4.4-3.3a9.8,9.8,0,0,1,2.2,1.3,28,28,0,0,1,6.3,6.1c1.6,2,3,4.1,4.4,6.2,12.4,19.4,22.6,39.9,29.4,62a12.33,12.33,0,0,0,5.9,7.5,88.84,88.84,0,0,0,9.8,4.8l2.4.9a5.53,5.53,0,0,1,3.4,4c.1.6.3,1.2.4,1.8a1.35,1.35,0,0,1-.9.5c-1.8-1.3-3-1.3-3.8,1.2-1,3.2-4.7,3-6.9,4.9-.6.5-1.7-.7-2.1-1.6a8.88,8.88,0,0,1-.7-4.3c.8-1.5,1.9-.6,2.8-.3,1.8.6,3,.4,3.9-1.4s.3-3-1.2-4.1a10.78,10.78,0,0,0-3.5-1.9c-7-1.9-10.6-7-12.5-13.5a158.6,158.6,0,0,0-7.6-21.3c-7.7-17.1-17.9-32.8-28.8-48a7.52,7.52,0,0,0-1.5-1.6c-.6-.4-1.2-1-1.9-.5a1.71,1.71,0,0,0-.5,2,39.31,39.31,0,0,0,4.2,11.6c3.1,5.6,7.1,10.7,10.7,16,6.5,9.5,13,19,18.5,29.2,3.6,6.7,5.3,14.1,7.3,21.3a6.71,6.71,0,0,1-.6,4.6,15.57,15.57,0,0,0-1.5,4.1,3.18,3.18,0,0,0,1.4,3.2c1.1.8,2.1.3,3-.4,1.5-1,2.8-2.3,4.8-2.5.8-.1,1.6,0,1.9.8s-.5,1.3-1,1.7c-1,.7-2,1.3-3,2.1-2.5,1.9-5.1,3.4-8.3,1.5-.9-.5-1.9.1-2.9-.1l-.9-1c-.2-1.6,1.4-2.6,1.8-4.1C175.4,399.5,175.1,400.6,173.9,400.3Z"/>
    <path class="cls-6" d="M259.1,1181.3a2,2,0,0,0,2,.9c1.6.1,3.3-.2,4.7.3,2.7.9,5,.3,7.4-.7,2.2-.9,4.5-1.6,6.7-2.4a14.67,14.67,0,0,0,7.6-5.6,5.37,5.37,0,0,1,4.3-2.6l1.4-.3c3.4.2,5.8-1.6,7.7-4.1a9.67,9.67,0,0,1,3.8-2.8,57.69,57.69,0,0,0,5.5-2.9c2.5-1.5,4.9-3,5.8-6a3.27,3.27,0,0,1,1.1-1.5c3.2-2.5,2.9-6.2,3.4-9.6a2.65,2.65,0,0,0-.8-2.2c-1.5-1.3-2-3.1-2.4-5.1a20.75,20.75,0,0,0-3.8-9.2c-1.5-1.8-1.8-4-2.2-6.2s-.9-4-2.7-5.4c-2.2-1.8-2.6-4.7-4-7-.5-.8-.5-2.1-1.1-2.6-2.3-1.6-2.4-4-2.7-6.3-.6-4.5-3.4-7.8-5.8-11.3a13.09,13.09,0,0,1-1.9-2.7,16.17,16.17,0,0,0-4.8-6.4,1.09,1.09,0,0,1,1.5-.1c2.1.6,3,2.3,3.7,4.1a26.16,26.16,0,0,0,4.5,7.3c2.7,3.4,5,7.1,5.1,11.6a4.71,4.71,0,0,0,1.2,3,20.16,20.16,0,0,1,3.6,6.2,8.46,8.46,0,0,0,2.4,3.5,7.19,7.19,0,0,1,2.6,5.4,11.92,11.92,0,0,0,2.7,7c1.6,2,2.3,4.5,3,7s1.3,4.9,3.2,6.8a3,3,0,0,1,.7,3.1c-1.1,3.6-.8,7.7-4.1,10.5a3.1,3.1,0,0,0-.6,1.3c-.5,2.4-2.2,3.9-4,5.2a49.24,49.24,0,0,1-7,4.1,13.58,13.58,0,0,0-4.9,3.6,9.91,9.91,0,0,1-8.2,4.1,6.73,6.73,0,0,0-6,3.2,12.56,12.56,0,0,1-9.7,5.4,5.07,5.07,0,0,0-3.8,1.6,3.78,3.78,0,0,1-3.5,1.1c-7.3-.4-14.6-1.3-21.4-4.3l1.1-1.1c2.1.5,4,1.7,6.4,1.3A9,9,0,0,1,259.1,1181.3Z"/>
    <path class="cls-7" d="M193.8,1094.9c-.3-2.4.8-4.3,1.8-6.3,1.6-3.1,3.3-6.2,4-9.7a5.86,5.86,0,0,1,2.6-3.9,7.39,7.39,0,0,0,3-5.2,23.24,23.24,0,0,1,5.9-11.8c1.8-2,3.7-4,6.4-4.8a.52.52,0,0,0,.4-.2c4.4-3.2,9.7-4.7,14.6-6.8a17.19,17.19,0,0,1,5.4-1.8,13.34,13.34,0,0,0,6.7-2.2,6.2,6.2,0,0,1,3.2-.9,54.29,54.29,0,0,0,5.7-.2,8,8,0,0,1,7.8,3.8,8.67,8.67,0,0,0,6,4.2,7.58,7.58,0,0,1,6.4,5.7,13.9,13.9,0,0,0,4.4,7.2,3.16,3.16,0,0,1,1.4,2.4.76.76,0,0,1-.2.4,1.44,1.44,0,0,1-.3.2c-2.1-2.2-5.6-3.4-6.1-7-.6-4.3-3.5-6.5-7.1-7.6a9.57,9.57,0,0,1-5.3-3.7c-2-3-4.6-3.8-8.2-3.7a38.08,38.08,0,0,0-11.6,2.4c-4.5,1.6-9,3.1-13.6,4.6-1.9.6-3.7,1.2-4.9,2.8a6,6,0,0,1-3.2,2c-6.4,2.4-10.1,7-11.7,13.5-.4,1.4-.6,2.8-1.1,4.2a6,6,0,0,1-1.3,2.5c-2.7,2-3.2,4.9-4.3,7.7a61.07,61.07,0,0,1-6.8,12.2Z"/>
    <path class="cls-2" d="M217.7,397.4c.5-2.4,1.4-3.1,3.3-2.6a3,3,0,0,1,1,.4c1.6.8,2.6.5,3.6-1.1.9-1.4,1.9-1.3,2.9-.1.8,1,1.5,2.2,2.4,3.4,1.3-.8,2.5-1.6,3.7-2.3a3.53,3.53,0,0,1,4.7.3c.9.8,1.8,1.6,2.7,2.3,1,.1,1.2-.8,1.7-1.3a2.22,2.22,0,0,1,2.3-.6,2.25,2.25,0,0,1,1.6,2.2c0,1.2-.1,2.4-.1,3.6a3.93,3.93,0,0,0,1.6,3.5c1.1.9,2.2,1.5,3.7,1l-.1-.1c-.4,2.7-1.6,3.5-4,2.5s-3.3-3.1-4-5.4c-.2-.8-.2-2.4-.8-2.2-3.4,1-4.6-1.6-6.5-3.3-1.1-.9-2.3.4-3.2,1.2-2.3,1.9-4.4,2.6-6.4-.3-.3-.5-1-1.1-1.5-.8-2.8,1.9-5.4-.7-8.1-.2Z"/>
    <path class="cls-8" d="M114.8,1193c1.1-.7,1.1-1.8,1.2-2.9.1-1.4-.3-2.9.8-4.1,1.4.9,1.3,2.4,1.4,3.8.7,7.8,6.4,10.8,13.4,7,3.7-2,6.4-5.2,9.3-8.1a13.13,13.13,0,0,0,2.5-3.2,130,130,0,0,1,10.5-10.5c1.7-1.5,3.4-3.5,6.2-2.8a2,2,0,0,1,1,2.4c-6.5,3.6-11,9.2-15.4,14.9a46.51,46.51,0,0,1-11.7,10.4c9.3.7,9.9.5,18.2-4.3,2.1-1.2,4.2-3,7-1.9l1.2,1.1a3.34,3.34,0,0,1-2.4,1.4,20.85,20.85,0,0,0-4.9,2.6,79.41,79.41,0,0,1-9.8,4.5,2.49,2.49,0,0,1-1.9.2c-3.4-.9-6.9-.1-10.4-.3a24.57,24.57,0,0,1-13-5.3C116.4,1196.8,116.1,1194.7,114.8,1193Z"/>
    <path class="cls-9" d="M176.5,1145.9v-1.1c5.1.7,7.9,4.3,10.6,8,2.4,3.2,2.2,6.8,1.4,10.6,2.5.9,5.4-.2,7.6,1.6.9-2.1.1-4,.6-5.9,1.6,2.6,1,5.2-.2,7.8a14.59,14.59,0,0,0-4.4-1.6c-4.5-.3-3.9-.9-5.2,3.4a23.52,23.52,0,0,1-13.3,15.4c0-.4-.1-.8-.1-1.2,0-2.9,2.9-3.5,4.2-5.3s3-3.7,4.4-5.6,2.3-4,1.1-6.1c-1.1-1.9-3.2-1.6-5.1-1.7-1.5,0-3.1.9-4.5-.4v-1c.4-2.6,2.5-2.6,4.4-3h1.4c.8.1,1.5.3,2.3.4,3.8.5,4.9-1,3.4-4.6a15.76,15.76,0,0,0-4-5.2c-.5-.4-.9-.9-1.4-1.3C178.8,1148.2,176.5,1148.1,176.5,1145.9Z"/>
    <path class="cls-2" d="M205,401.1l1.1-.1c2.2-.2,4.3-.5,6.5-.6a5.48,5.48,0,0,0,5-2.9h-.1c1.1,3.8-.4,6.1-4,6-2.2-.1-4.2-.1-6.2,1.1C205.2,405.6,204.5,404.3,205,401.1Z"/>
    <path class="cls-10" d="M82.5,1160.3l-1-1.1a7.46,7.46,0,0,1,.7-1.2c6.2-5.3,13.2-8.7,21.4-9.3.8,1.2,2.1.5,3.1,1.1-.3,1.6-1.7,1.8-2.9,2a40.19,40.19,0,0,0-19,8A2.75,2.75,0,0,1,82.5,1160.3Z"/>
    <path class="cls-7" d="M185.3,1120.1l-1.1-1.2c.4-8.2,2.6-15.8,7.5-22.4.5-.7.9-1.7,2.1-1.6h0c.2,1.8-1,2.9-1.8,4.2a42.28,42.28,0,0,0-6.2,20.1A4.05,4.05,0,0,1,185.3,1120.1Z"/>
    <path class="cls-11" d="M252.9,1100.3c-1.6.7-2.7,0-3-1a24.88,24.88,0,0,0-3.2-6.8c-.4-.6-.1-1.6-.4-2.3-.5-1.2-1.2-2.3-1.7-3.4-.2-.4-.6-.9-.1-1.3.7-.5,1.1.2,1.6.6a6.15,6.15,0,0,1,1.9,3.3,38.78,38.78,0,0,0,2.3,5.6A29,29,0,0,0,252.9,1100.3Z"/>
    <path class="cls-12" d="M289.9,1079.5l-1.5.1c-1-1.7-1.5-3.7-3.2-5-1.4-1.4-2.9-2.9-4.2-4.4a4.44,4.44,0,0,1-.8-1.1.69.69,0,0,1,.3-.9.62.62,0,0,1,.7.1C284.9,1071.3,288.7,1074.4,289.9,1079.5Z"/>
    <path class="cls-13" d="M219.8,1104.4a7.34,7.34,0,0,0,7-3.2c.2-.3.8-.6,1.1-.1a1.39,1.39,0,0,1,0,.9,8.47,8.47,0,0,1-4.9,4.2C221.7,1106.6,220.6,1106,219.8,1104.4Z"/>
    <path class="cls-14" d="M258.6,1122.3c1.6.5,1.7,2.2,2.4,3.3.5.8,1.9,2,.5,2.7-.8.4-1.8-1-2.3-2C258.6,1125.1,257.8,1123.8,258.6,1122.3Z"/>
    <path class="cls-15" d="M266.8,1145.5c.5,1.5.9,2.9,1.3,4.4a.87.87,0,0,1-.5.7,1.14,1.14,0,0,1-.8-.3,2.18,2.18,0,0,1-.5-.8A3.21,3.21,0,0,1,266.8,1145.5Z"/>
    <path class="cls-16" d="M213.5,1077.6a2,2,0,0,1-2.1-.6c-.3-.3-.7-.6-.4-1.1a1.14,1.14,0,0,1,.8-.3,3.23,3.23,0,0,1,2.1.8,1.52,1.52,0,0,1,.4.8A3,3,0,0,0,213.5,1077.6Z"/>
    <path class="cls-17" d="M254,1159.3c.1-.8.1-1.3.7-1.2.2,0,.4.4.6.7a19.45,19.45,0,0,1,.8,2.2c.1.5-.1,1-.6,1a1.23,1.23,0,0,1-1.1-.7A17.66,17.66,0,0,1,254,1159.3Z"/>
    <path class="cls-18" d="M237.4,1074.2a6.28,6.28,0,0,1,3.1,2.7.3.3,0,0,1,0,.4,1.38,1.38,0,0,1-.4.3c-1.6,0-2.6-1.1-3-3C237.1,1074.5,237.3,1074.3,237.4,1074.2Z"/>
    <path class="cls-19" d="M157,622.1c18.4-2.4,36.4-1.4,53.9,5.1a80.59,80.59,0,0,1,14.2,6.8,130.37,130.37,0,0,1,18.6,13.6c6.2,5.4,11.1,11.9,13.7,19.9a32.85,32.85,0,0,1,1.7,10.4,10.61,10.61,0,0,1-5.1,9.2,15.71,15.71,0,0,1-15.1,1.8c-2.5-1-5-2.2-7.4-3.3-12.1-5.7-25-8.8-38.1-11a169.69,169.69,0,0,0-34.9-2.1,164.5,164.5,0,0,0-43.4,7.4c-2.1.7-4.3,1.3-6.4,1.9a21.65,21.65,0,0,1-7.6.4,9.75,9.75,0,0,1-4.4-1.6,3.89,3.89,0,0,1-1.3-5.3c.2-.3.5-.6.7-.9a26.5,26.5,0,0,1,2.6-2.1c9.8-7.5,20.9-11.5,33.1-13,.8-.1,1.6.2,2.4-.8a38.68,38.68,0,0,0-12.7.2,47.75,47.75,0,0,0-18.2,7.1c-2.8,1.8-5.8,3.4-8.7,5.1-3.4,1.9-5.8.1-6.9-2.7-1.6-3.9-.6-7.6,1.6-10.9a54.53,54.53,0,0,1,11.1-11.9,141.06,141.06,0,0,1,19.8-13.5,66.12,66.12,0,0,1,20.5-7.7,24.07,24.07,0,0,1,7.1-.5c-.4,3.7-3.6,3.6-6.1,4.3a121,121,0,0,0-40.1,20.9,26.22,26.22,0,0,0-2.5,2.2,3.56,3.56,0,0,0-.5,4.8c1.2,1.8,2.9,1,4.3.2,4.6-2.4,8.6-5.6,12.9-8.2,24.7-15,51.4-21.3,80.2-17.6a35.12,35.12,0,0,1,11.8,3.6c-8.2-4.1-23.4-7.9-32.5-7.8a73.81,73.81,0,0,1-14.8-1.1C159.1,624.4,157,624.7,157,622.1Z"/>
    <path class="cls-19" d="M269.5,738.6a70.41,70.41,0,0,1,14.5,1.2,22.85,22.85,0,0,1,13.8,7.9,51.76,51.76,0,0,1,8.7,15.3,5.87,5.87,0,0,1,.4,2.3,3,3,0,0,1-3,3,11.8,11.8,0,0,1-3.7-.9c-3.9-1.5-7.7-3.1-11.6-4.5a56.29,56.29,0,0,0-13.4-3.5,6.28,6.28,0,0,1-1.9-.3c-4.7-1.9-9.1-.6-13.5.9a35.44,35.44,0,0,0-11.8,7.1c-3.6,3.2-7.1,6.4-10.7,9.6-1.7,1.5-3.5,2.8-5.3,4.1a10.36,10.36,0,0,1-4.4,1.7,5.7,5.7,0,0,1-6.5-4.6,5.44,5.44,0,0,1,0-1.8,21.7,21.7,0,0,1,1.1-4.2,68,68,0,0,1,12.2-21c5.7-6.6,13.2-9.8,21.6-11.3A74.63,74.63,0,0,1,269.5,738.6Z"/>
    <path class="cls-19" d="M141.4,750.8c-3.7-.8-7.5-1.6-11.2-2.5a80.19,80.19,0,0,1-27.6-11.7,42.3,42.3,0,0,1-4.1-3.3,5.72,5.72,0,0,1-1.4-6.2c1.2-4,3.6-6.1,7.9-6.5a66.26,66.26,0,0,0,7.6-1.1,35.29,35.29,0,0,1,8.6-.7c3.9,0,3.9,0,5.4,3.5l.5.3,1.2,1.2a8.65,8.65,0,0,0,1,.7,31.32,31.32,0,0,0,11.1,3.9,29.92,29.92,0,0,1,3.2.8c2.6.6,5.4.7,7.5,2.6a2.43,2.43,0,0,0,3.1.2c2.2-1.8,3.9-1.5,5.6.7.7,1,2.1.6,3.1.2,3.4-1.3,6.1-.2,8.7,2.1s5.4,3.8,7.4-.9a1.26,1.26,0,0,1,1.5-.9,1.56,1.56,0,0,1,.8.6c3.2,5.5,8.2,8.5,14.2,10.2a71.29,71.29,0,0,0,11.2,2.1c1.2.1,2.6-.1,3.7.7-1.2,2.2-3.3,2.3-5.3,2.5a181,181,0,0,1-35.3.4A190.61,190.61,0,0,0,141.4,750.8Z"/>
    <path class="cls-19" d="M178.2,719.5c1.4-5.9,3.8-7.5,9.5-6.3a111.62,111.62,0,0,1,19.6,6.2,26.13,26.13,0,0,0,8.3,2.2c2.4.2,4.8.6,7.1,1,7.5,1.3,14.9,1.7,22.2-1.2,1-.4,1.6.2,1.4,1.2a46.9,46.9,0,0,1-3.7,10.3,15.94,15.94,0,0,1-9.1,8,61.22,61.22,0,0,1-24,3.6,48.79,48.79,0,0,1-21.7-6.7,25.18,25.18,0,0,1-5.8-5C178.1,729.3,176.3,724.9,178.2,719.5Z"/>
    <path class="cls-20" d="M157,622.1a4.91,4.91,0,0,0,3.5,1.3,97.31,97.31,0,0,0,14.3,1.1,67,67,0,0,1,16.1,2,85.37,85.37,0,0,1,19.6,7.2,5.53,5.53,0,0,1-4.4-.1c-3.9-1-7.7-2-11.7-2.7a87.28,87.28,0,0,0-23.4-.5,138.53,138.53,0,0,0-30.4,6.5,101,101,0,0,0-24.9,12.2c-3.5,2.5-7.2,4.8-10.8,7.1a28.17,28.17,0,0,1-3.8,2.1c-1.8.8-2.8.6-3.5-1.1-2.5-5.7-2.4-5,1.6-8.3,10.4-8.8,22.2-15,34.7-20.1a89.91,89.91,0,0,1,10.1-3c1.5-.4,3.2-.6,3.9-2.4A14.31,14.31,0,0,1,157,622.1Z"/>
    <path class="cls-21" d="M238.9,707c-1.6.3-3-.6-4.4-1.2a288.81,288.81,0,0,0-27.3-10.3,101.76,101.76,0,0,0-19.5-4.4c-3.1-.4-4.6-1.8-5-4.7s-2.1-5-2.9-7.6a1.6,1.6,0,0,1,1-2.1,1.48,1.48,0,0,1,.7-.1c3.2.3,6.4.5,9.5,1a131.78,131.78,0,0,1,38.3,11.7,56.94,56.94,0,0,0,12.5,4.6,29.62,29.62,0,0,0,6.6.7,2.5,2.5,0,0,1,2.5,1.8c1.7,4.4,1,6.3-3.1,8.5A17.45,17.45,0,0,1,238.9,707Z"/>
    <path class="cls-22" d="M289.4,738c-5.6.4-10.4-1.7-14.6-5.2a60.45,60.45,0,0,1-9.1-9.8,3.75,3.75,0,0,1-.7-1.2,3.84,3.84,0,0,1,2.2-5,3.55,3.55,0,0,1,1-.2,11.56,11.56,0,0,1,3.7.7,101.5,101.5,0,0,0,15.5,3.2,60.69,60.69,0,0,0,24.7-2.2,22.38,22.38,0,0,1,3.7-1,2.48,2.48,0,0,1,2.9,1.9,2.2,2.2,0,0,1-.1,1.4,14,14,0,0,1-1.5,3c-5.6,8.6-13.9,13-23.9,14.2C292,737.9,290.7,737.9,289.4,738Z"/>
    <path class="cls-23" d="M124.6,706.1c-1.4-1.9-2.8-3.8-4.1-5.8-.8-1.2-.6-2,.7-2.8,1.7-1.1,3.7-1.8,5-3.8,3.7,4,8.1,4.9,13,4.2a5,5,0,0,0,4.4-3.1c1.4-3,2.2-3.3,5.3-2.4a24.38,24.38,0,0,0,8,1.3c7.8-.2,15.5-7.9,14.4-15.4-.2-1.4.5-2.1,1.9-2.2,2.6-.1,4,1,4.4,3.4,1.2,8.2-3.3,16.5-10.1,19.5a22,22,0,0,1-8.8,2.2,40.09,40.09,0,0,0-18.9,4.7,17.35,17.35,0,0,1-3.6,1.3,11.59,11.59,0,0,1-9.3-.6,9.48,9.48,0,0,0-2.3-.5Z"/>
    <path class="cls-21" d="M145.3,687.4c-1.1,1.6-1.9,2.8-2.7,4a10.25,10.25,0,0,1-9.6,4.1c-2.8-.3-4.4-1.6-4.9-4.3a10.89,10.89,0,0,1,2.4-9,5.59,5.59,0,0,1,3.8-1.9c6-1,11.9-2.1,17.9-2.8,4.6-.6,9.2-.8,13.8-1.1,2.4-.1,3.5.9,3.7,3.3a6.08,6.08,0,0,1-.1,1.9c-1.5,7.2-10.1,12-17.2,9.6a33.89,33.89,0,0,1-3.9-1.8A23.55,23.55,0,0,1,145.3,687.4Z"/>
    <path class="cls-24" d="M229.8,721a76.42,76.42,0,0,1-16.5-2.4,48.19,48.19,0,0,1-10.9-4.8,4,4,0,0,1-2.1-4.4,3.66,3.66,0,0,1,3.6-3.2,11.56,11.56,0,0,1,3.7.7,68.21,68.21,0,0,0,24.6,3,72.81,72.81,0,0,0,12.3-1.7c.9-.2,1.5.3,1.5,1.3a29.57,29.57,0,0,1-.5,5.2,6.79,6.79,0,0,1-5.6,5.8A38.09,38.09,0,0,1,229.8,721Z"/>
    <path class="cls-25" d="M142.3,730.1l-1.9-.7c-2.8-1.8-5-5-9.2-3.4-1.2.4-2.7-.8-3.8-1.7l.1.1c-.7-.5-.5-1.5-1.1-2l.1.1c1.8-3.7,4.9-5.2,8.8-5.5,1.7-.1,3.5,0,5.2-.1,1.2,0,2.7-.6,3.7-.2,1.5.7,1.6,2.6,2.3,4,1,2.3.9,2.3,2.5,3.8,0-2.1-1.1-3.7-1.7-5.4a7.81,7.81,0,0,1-.6-3.7,2.63,2.63,0,0,1,3-2.3c1.2.2,2.5.5,3.7.8,4.3.3,6.4,3.2,7.5,6.9.7,2.5.3,4.7-2.1,6.2-.6.3,0-.2-.4.2-3,4.2-6.1,7.4-11.3,2.6C145.9,728.8,143.9,730,142.3,730.1Z"/>
    <path class="cls-25" d="M141.4,750.8a3.7,3.7,0,0,1,2.9-1.4,112.59,112.59,0,0,1,27.2-.6,36.22,36.22,0,0,0,5.7.2c8.8-.1,17.6.3,26.3-.6a30.58,30.58,0,0,0,6.6-1.2c6.5-.1,13-.2,19.7-2-1.1,2.1-2.8,2.3-4.2,2.9a76.51,76.51,0,0,1-17.6,4.2,287,287,0,0,1-42.5,1.1C157.5,752.9,149.4,752.1,141.4,750.8Z"/>
    <path class="cls-26" d="M124.5,706a1.77,1.77,0,0,0,1.1,1.4c5.4,2.7,10.9,3.5,16.5.5a40.85,40.85,0,0,1,10.2-4,47.81,47.81,0,0,1,7.6-.9,55.09,55.09,0,0,0,5.7-.6c5.9-1,9.6-4.7,11.6-10.2a58.73,58.73,0,0,0,1.6-6c1.1-.1,1.3.7,1.6,1.4,1.5,3,.9,5.8-.6,8.6a19.66,19.66,0,0,1-16,10.7c-1.4.2-2.9.1-4.3.2a14.57,14.57,0,0,0-9,2.8c-4.2,3.2-8.9,4.1-14,3.9a30.56,30.56,0,0,1-15-4.5,13.76,13.76,0,0,1-5.3-5.4,1.86,1.86,0,0,1,3-2.2c.9.9,1.7,1.9,2.6,2.8s1.3,1.9,2.7,1.5Z"/>
    <path class="cls-21" d="M101.5,687.9c.9,0,1.2-.9,1.8-1.4a6,6,0,0,1,4.4-1.6,24.88,24.88,0,0,0,9-1.3,15.83,15.83,0,0,1,3.8-.5,3.7,3.7,0,0,1,3.9,2.8,13.74,13.74,0,0,1,.3,5.7,3.81,3.81,0,0,1-2.3,2.9c-2.2,1-4.4,2-6.6,2.9a4.48,4.48,0,0,1-4.6-.3c-1.3-1-2.2-.7-3.4.2a9.08,9.08,0,0,1-3.4,1.7,3.55,3.55,0,0,1-4.5-2.3,4.44,4.44,0,0,1-.1-2c.4-2.3,1.7-4.5,1.8-6.9Z"/>
    <path class="cls-27" d="M154.3,713c-1-1.4-1-1.8-.1-2.2a7.22,7.22,0,0,1,3.2-.8h3.3a22.25,22.25,0,0,0,17-6.2c2.8-2.7,5.7-3.1,9.2-2.3,4.1,1,8.3,1.9,12.4,2.8,0,1.7-1,2.6-1.4,3.8-1.1,3.2-1.2,3.2-4.6,2.7-1.4-.2-2.8-.5-4.2-.6-4.1-.4-8-.2-11,3.2-.9,1-2.3,1-3.5,1.4-1.3,1.2-2.9,1.2-4.5,1.2A60.5,60.5,0,0,1,154.3,713Z"/>
    <path class="cls-28" d="M154.3,713c1.8,0,3.5-.1,5.2-.1a9.35,9.35,0,0,1,3.3.4c3.3,1.5,6.8,1.6,10.3,1.5a6.6,6.6,0,0,1,1.4.1c2.5.5,2.7,2.9,3.7,4.6a31.68,31.68,0,0,0,3.7,13.5l-.9,1.1c-.5.1-1.1,0-1.4.2s-.2.9-.4,1.3c-.9,3.2-2.7,4-5.6,2.7A12.58,12.58,0,0,1,169,735a3.92,3.92,0,0,0-5.1-1.1c-.2.1-.3.1-.5.2-4.3,1.3-4.3,1.3-6.6-2.6-.8,0-.7.8-1.1,1.2-1.5,1.7-2.8,2-4.6,1.2a5.72,5.72,0,0,1-1.6-1.1,5.38,5.38,0,0,0-4.3-1.7,4.24,4.24,0,0,1-3.1-.9,19.52,19.52,0,0,1,2.3-1.7c1.9-1,3.2-.7,4.7.8.9.9,1.4,2.2,2.6,2.8a1.87,1.87,0,0,0,2.5-.5,1.61,1.61,0,0,0,.3-.9,6.15,6.15,0,0,0-.1-1.4,2.7,2.7,0,0,1,2.1-2.8c1.4-.4,2.9-.5,3.5-2.1.6-1.8-.2-3.4-1-5-1.3-2.6-3.6-4-5.8-5.5Z"/>
    <path class="cls-29" d="M92.4,692c1.2-.3,1.7-1.3,2.2-2.2a18.6,18.6,0,0,1,3.7-4.2,2.47,2.47,0,0,1,2.2-.5c1.1.4,1,1.4,1,2.4v.5l.1-.1c-1.4,1.7-2.1,3.8-3.1,5.8-1.6,3.1,1.6,7.1,4.8,6.9a24,24,0,0,0,2.8-.3,13.36,13.36,0,0,0,1.8-.7c3.6-1.2,5.4,0,5.9,3.7a5.92,5.92,0,0,1-5,6.8,3.4,3.4,0,0,1-1,.1A12.3,12.3,0,0,1,99,707c-2.7-2.3-4.6-5.2-6.6-8.1-1.1-1.5-.2-3.5-1.1-5C91.6,693.2,91.3,692.2,92.4,692Z"/>
    <path class="cls-30" d="M227.8,706.8c-3.7-.4-7.2-.8-10.8-1.1a72.54,72.54,0,0,1-15.9-3.3c-4.9-1.4-9.9-2.4-14.8-3.6l-2.3-.6a2.32,2.32,0,0,1-1.2-2.8,1.74,1.74,0,0,1,1.9-1.7.9.9,0,0,1,.5.1,151.67,151.67,0,0,1,17.4,3.2,189.7,189.7,0,0,1,23,8A3.39,3.39,0,0,1,227.8,706.8Z"/>
    <path class="cls-31" d="M272.1,735.8c-3.1.2-5.6.4-8,.6a74,74,0,0,0-8.1.8c-2.4.4-4.8,1.3-7.2,1.9-1.1-2.5-.3-4,1.6-5.4a26.08,26.08,0,0,0,4.6-4.2c2.2-2.4,4-4.9,4.1-8.4.1-1.6.5-3.2,2.1-4a1,1,0,0,1,.9-.1,1.23,1.23,0,0,1,.4.8,6.75,6.75,0,0,1-.2,1.4c-1,4.5.5,8.1,3.7,11.2C267.9,732.1,269.8,733.7,272.1,735.8Z"/>
    <path class="cls-32" d="M260.6,714.7c-2.5-3.7-3.7-8.1-7.8-10.2,1.3-3.2,2.4-5,4.2-6.4,3.1-2.4,6.4-2.1,8.8,1a13.5,13.5,0,0,1,1.9,3.3,6.43,6.43,0,0,1-1.4,7.9A18.94,18.94,0,0,1,260.6,714.7Z"/>
    <path class="cls-33" d="M257.4,716.9c-.2,6.8-3.6,11.7-9.5,15a1,1,0,0,1-.9.1,1,1,0,0,1-.3-1.2c2.3-5.7,2.1-11.5,1.7-17.5-.1-1.1-.1-2.2-.1-3.3a3.08,3.08,0,0,1,2.4-2.7,3,3,0,0,1,3.1.7A11,11,0,0,1,257.4,716.9Z"/>
    <path class="cls-34" d="M91.6,714.3c-3.3,2.4-7,3.2-10.1,5.1a1.7,1.7,0,0,1-1.8-.3c-1.6-1.5-3.2-3.1-4.7-4.7a1.37,1.37,0,0,1-.1-1.8,17.72,17.72,0,0,1,3.4-3.3,34,34,0,0,1,8.6-4.1c1.1-.4,1.9,0,1.9,1.3A16.39,16.39,0,0,0,91.6,714.3Z"/>
    <path class="cls-30" d="M92.4,692a1.43,1.43,0,0,1-1,1.8c-.6-.2-1.2-.5-1.8-.7a6.08,6.08,0,0,1-3.9-5.5c-.3-3.2-.6-3.3-3.8-3.6h-1c-1,0-2-.1-2.2-1.3s.7-1.7,1.4-2.3c5.3-4.1,7.4-4.1,12.7,0,.2.2.5.4.7.6,2.8,2.2,3.6,2.1.9,5.5-.6.9-1.2,1.8-1.8,2.8h0A3.66,3.66,0,0,0,92.4,692Z"/>
    <path class="cls-35" d="M91.2,705.5a9.83,9.83,0,0,1,.5-1.6.72.72,0,0,1,.9-.5.35.35,0,0,1,.2.1,4.74,4.74,0,0,1,1,1c1.1,1.2,2.1,2.4,3.2,3.5a11.59,11.59,0,0,0,11.2,3.7c1.2-.2,2.5-.5,3.7-.7a1.55,1.55,0,0,1,1.6.8,1.68,1.68,0,0,1-.2,1.8,2.59,2.59,0,0,1-1.9,1.3,23.31,23.31,0,0,1-15.8-1.3C92.5,712.1,91.2,709.2,91.2,705.5Z"/>
    <path class="cls-36" d="M101.9,718.8c-5.5,2.3-10.1,4.4-14.8,6.3a1.43,1.43,0,0,1-1.9-.5c0-.1-.1-.2-.1-.3-1.2-2.6-.8-4.3,1.5-5.7C91.4,715.8,96.2,715.6,101.9,718.8Z"/>
    <path class="cls-37" d="M126.3,715.4a41.74,41.74,0,0,1-9.9,1.1c-1.1,0-1.6-.7-1.4-1.9a11.69,11.69,0,0,1,1.3-4.5,3.7,3.7,0,0,1,2.7.9C121.3,712.4,123.7,713.6,126.3,715.4Z"/>
    <path class="cls-38" d="M236,746.4c.8-2.2,2.7-3.7,4-5.6.4-.5,1.1-.1,1.6.3s.8,1.1.2,1.6c-1.9,1.3-3.5,3.1-5.9,3.5Z"/>
    <path class="cls-39" d="M235.7,747.8c-1-.9-1-.9.3-1.4l-.1-.1a10.4,10.4,0,0,0-.2,1.5Z"/>
    <path class="cls-3" d="M239.2,498.5a119.26,119.26,0,0,1-23.8-3c-4.1-.9-8.1-1.7-12.1-2.7a22.11,22.11,0,0,1-6.6-2.1,13.09,13.09,0,0,0-2.8-.9,72.76,72.76,0,0,1-18.9-8.4,58.07,58.07,0,0,1-11.4-9.6c-6.6-7.3-9.1-15.9-8.4-25.5a33.55,33.55,0,0,1,6-17,16.38,16.38,0,0,1,2.1-2.5,3.1,3.1,0,0,1,4-.7c1.4.8,2.8,1.5,4.1,2.3a68.87,68.87,0,0,0,9.3,4.9c2.7,1.1,5.4,2.3,8,3.5,10.9,4.7,22.3,7.5,33.9,9.5a183.54,183.54,0,0,0,38.5,2,54.31,54.31,0,0,0,15.4-2.8,15.18,15.18,0,0,0,2.8-.9c2.3-1.1,3.6-.2,4.8,1.8a23.39,23.39,0,0,1,3.3,9.6c1.1,9.6-.6,18.7-6.6,26.5a35.66,35.66,0,0,1-21.4,13.6A85.85,85.85,0,0,1,239.2,498.5Z"/>
    <path class="cls-40" d="M205,401.1a4.72,4.72,0,0,0,1,3.4c.8.1.9-.7,1.2-1.1a3.8,3.8,0,0,1,4.2-1.3,16,16,0,0,0,2.1.5,2.69,2.69,0,0,0,3.3-2.1,7,7,0,0,0,.6-3.2,3.68,3.68,0,0,1,4.9.2c1.3,1.1,1.5.9,2.7-.3a6,6,0,0,1,.8-.8,1.12,1.12,0,0,1,1.6-.1l.3.3c.5.7.8,1.5,1.3,2.2,1,1.5,1.9,1.7,3.2.6,1.1-.9,2.1-2,3.3-2.9s2.1-.8,3,.5c.2.3.3.7.5,1,1.9,3.1,2.4,3.2,4.9,1.2.9-.8,1.5-.4,1.6.8v2.2a7.9,7.9,0,0,0,3.3,5.8c1.4,1,2.2.9,3.3-.6a5,5,0,0,0,.5-1.3c2.3-.3,3.6.9,4.5,2.8.8,1.7,1.8,3.4,2.7,5.1.5,1,1.1,1.1,2.1.4.7-.5,1.3-1.1,1.9-1.6a8.27,8.27,0,0,1,1.6-.9,1.32,1.32,0,0,1,1.7.6.1.1,0,0,0,.1.1,5.77,5.77,0,0,1,.3,1.4,1.51,1.51,0,0,0,1.6,1.1,17.67,17.67,0,0,1,2.1-.3c2.1-.1,3.2.8,3.3,3,0,1.3-.1,2.7-.2,4-.1.6-.3,1.2-.4,1.8-.4,2.3,0,2.8,2.8,3.7a1.57,1.57,0,0,1,2.4.8c1.8,4.3,1,6.1-3.4,7.1a38.59,38.59,0,0,1-7.6,1c-4.7.1-9.4.4-14.2.1-5.6-.3-11.1-1-16.7-1.8-7.3-.9-14.7-1.9-21.9-3.5a243.18,243.18,0,0,1-26.6-7.3,58.82,58.82,0,0,1-17-8.9c-.9-.7-1.7-1.4-2.5-2.1a5.22,5.22,0,0,1-1.4-2.5c-.6-2.3.4-3.5,2.7-3.2,3,.4,3,.4,4.9-2.8a10.63,10.63,0,0,0,1.1-.9c.7-.7,1.4-.9,2.2-.1l.5.5a3,3,0,0,0,4.2.3c1.3-.9,2.6-1.8,3.8-2.7a4.35,4.35,0,0,1,1.9-1c1.7-.8,2.6-.2,2.9,1.5a4.65,4.65,0,0,1,.9,3.4,3.37,3.37,0,0,0,.5,1.7,1,1,0,0,0,1.3.2c.1-.1.2-.1.2-.2a3.81,3.81,0,0,0,.3-1,1.62,1.62,0,0,1,1.6-1.1c2.8-.1,3-.3,3.8-2.7a8.59,8.59,0,0,1,1.2-3,1,1,0,0,1,1.5-.3l.3.3A6.61,6.61,0,0,1,205,401.1Z"/>
    <path class="cls-3" d="M163,410.9c1,0,1.2.7,1.5,1.2a23.87,23.87,0,0,0,7.1,6.7,63.37,63.37,0,0,0,17.2,7.7,248.09,248.09,0,0,0,36.1,8.2c9.1,1.3,18.3,2.4,27.5,3.3a85.66,85.66,0,0,0,19.6.2,58.78,58.78,0,0,0,10.3-2.1,7.37,7.37,0,0,0,1.4-.4q.75-.3.9.3a.85.85,0,0,1,0,.7,8.27,8.27,0,0,1-3.5,4.1,16.89,16.89,0,0,1-3.6,1.7,73.53,73.53,0,0,1-21.8,3.9,171.4,171.4,0,0,1-28.6-2.2,189.63,189.63,0,0,1-31.5-7.4,115.22,115.22,0,0,1-17.8-7.4,59.23,59.23,0,0,1-10.3-6.8,22,22,0,0,1-3-3.1A10.83,10.83,0,0,1,163,410.9Z"/>
    <path class="cls-41" d="M278.9,428.1l-2.4-.8c.3-.8-.4-1.3-.7-1.9a4.15,4.15,0,0,1,1.1-5.2,1.4,1.4,0,0,1,1.4-.2,14.27,14.27,0,0,1,6.7,5.9,3.87,3.87,0,0,1-.8,5,4.65,4.65,0,0,1-2.1,1.3c-.8-.8-.8-2-1.1-3S279.9,428,278.9,428.1Z"/>
    <path class="cls-42" d="M173.9,400.3c1-1,1.4-2.5,2.6-3.3a1.45,1.45,0,0,1,.7-.2c.9,1.5,0,2.7-.7,3.9a12.06,12.06,0,0,1-2.1,2.4c-.7-.2-.8-.8-.7-1.4A5.9,5.9,0,0,0,173.9,400.3Z"/>
    <path class="cls-43" d="M148.9,1143.2c1.9-2.8,2.7-6.1,3.6-9.3a33.91,33.91,0,0,1,2-5.3,86.67,86.67,0,0,0,3.6-8.3q19.05-50.1,38.2-100.3c5-13.1,10.1-26.2,15.1-39.4,4.3-11.3,8.5-22.7,12.8-34.1a54.41,54.41,0,0,1,2.8-6.6c1.1-2.4,2.7-2.9,5.1-1.8a22.47,22.47,0,0,1,2.1,1.2c1.9,1.3,2.2,2.4,1.3,4.5-1.8,4.4-3.8,8.8-5.6,13.2s-3.6,8.5-5.3,12.8c-3.8,9.3-7.6,18.6-11.7,27.8-1.1,2.5-1.8,5.1-2.9,7.6-16.6,39.1-32.7,78.4-48.8,117.7-1.1,2.8-2.7,5.4-3.4,8.4a.61.61,0,0,0-.3.7,2.55,2.55,0,0,1-.8,1.2h0c-.6.5-.4,1.3-.8,1.9a.78.78,0,0,0-.2.8c-.5.6-.3,1.5-.8,2.1a.48.48,0,0,0-.2.6c0,.5-.4.8-.6,1.3-.8,2.1-1.6,4.2-2.5,6.2a9.16,9.16,0,0,1-1.9,3.3c-.7.6-1.8.9-2.1.5-.4-.6-.1-1.2.1-1.8A34.79,34.79,0,0,1,148.9,1143.2Z"/>
    <path class="cls-44" d="M142.3,1188.8a30.29,30.29,0,0,1-11.4,9.9,10.13,10.13,0,0,1-10.1-.3c-2.5-1.4-4.2-3.4-3.9-6.5a54.19,54.19,0,0,0,0-5.7c1.5-7,5.1-13,9.5-18.6,1.7,1.2,1,2.7.7,4.3-1.2,6.7-1.9,13.4-.4,20.2-1.8-7.9-.4-15.7,1-23.5.3-1.8,1.5-3.1,2.6-4.5.4-.5.8-.9,1.2-1.4,4.5-3.9,4.5-3.9,10.3-1.4C141.4,1170.4,142.2,1179.6,142.3,1188.8Z"/>
    <path class="cls-45" d="M82.5,1160.3c5.7-5.7,12.8-8.4,20.5-9.7,1.2-.2,2.5,0,3.6-.8a76.83,76.83,0,0,1,18.5,1.7,22.55,22.55,0,0,1,8.2,3.7c1.6,1.2,1.8,2.4.2,3.4a40.37,40.37,0,0,0-8.2,7.2,16.16,16.16,0,0,1-9.2,4.8,128.64,128.64,0,0,1-15.2,1.8,28.35,28.35,0,0,1-12.5-2.6,12.29,12.29,0,0,1-2.5-1.4C83.1,1166.5,81.4,1163.9,82.5,1160.3Z"/>
    <path class="cls-46" d="M121.8,1136.2a5.36,5.36,0,0,1,2-6c1.2-1,2.5-2,3.8-2.9a45.45,45.45,0,0,1,26.3-7.4,3.53,3.53,0,0,1,1.4.3,3.41,3.41,0,0,1-.6,3.6,3.86,3.86,0,0,1-3.1,1.1,25.92,25.92,0,0,1-4.8-.4c-3.5-.6-6.2,1-8.8,3a2.91,2.91,0,0,0-.4,4.2,3.36,3.36,0,0,0,1.6,1c2.3.6,4.5,1.2,6.3,3,.8.8,2.4.6,3.7,1a6.2,6.2,0,0,1-1.6,5.2c-5.2.2-10.4.4-15.6-.8C128.2,1140.1,124.6,1138.9,121.8,1136.2Z"/>
    <path class="cls-47" d="M159.3,1193.9a36,36,0,0,0-6.9,3.2c-3.2,1.8-6.6,3.2-9.9,4.7a2.29,2.29,0,0,1-1.8.2,22.74,22.74,0,0,0-9-.2,2,2,0,0,1-.8-.4.47.47,0,0,1,.1-.8c7.1-3.8,12.3-9.6,17.2-15.8a58.1,58.1,0,0,1,11-10.6c.9-.7,1.4-.1,2,.4.1,4.2,1,8.4.7,12.7A9.56,9.56,0,0,1,159.3,1193.9Z"/>
    <path class="cls-23" d="M160.1,1172.3a23.51,23.51,0,0,0-7.9,5.7c-2.8,2.7-5.4,5.6-8.2,8.4-3.4-2.4-1.9-6.2-2.4-9.2a33.91,33.91,0,0,1,1.4-15.8,26.68,26.68,0,0,1,6.6,2.6c2.3,1.1,4.6,2.2,6.8,3.4,1.2.8,2.3,1.7,3.4,2.6A2.71,2.71,0,0,1,160.1,1172.3Z"/>
    <path class="cls-39" d="M158.3,1134.3c1.2-.2,2.5-.5,3.7-.8a2.67,2.67,0,0,0,1.8-3.3,2.83,2.83,0,0,0-1.1-1.5c-1.5-1.2-1.3-2.2-.7-3.7,1.7-4.1,2.1-4.3,6.3-3.3a11.87,11.87,0,0,1,6.5,3.7,8.48,8.48,0,0,1,2,5c-2.4,4.3-6.1,6.7-11.1,6.6-.9,0-1.2.5-1.6,1.3-.8,1.3-2.6.9-3.7,1.7-1.5.3-3.2,1.5-3.9-1a.55.55,0,0,0,.3-.5.1.1,0,0,0-.1-.1,14.16,14.16,0,0,1,.7-2.2.78.78,0,0,0,.2-.8,1.77,1.77,0,0,1,.7-1.1Z"/>
    <path class="cls-48" d="M176.5,1145.9l3.5,2.5c0,4.3-1.3,8.3-1.6,12.5-1.7.3-3.5.5-4.7,2-.8,0-1.6.2-2.1-.6a34.28,34.28,0,0,0-9.5-8.7l.2-.6c2.3-1.9,2.5-5.1,4.4-7.2,1.7-1.1,3.5-.9,5.3-.6C173.5,1145.5,175,1145.7,176.5,1145.9Z"/>
    <path class="cls-46" d="M173.7,1163.9a16.92,16.92,0,0,1,10.2-.2,1.79,1.79,0,0,1,1.5,2,12.06,12.06,0,0,1-2.9,8.3,63.8,63.8,0,0,1-9,9,1.28,1.28,0,0,1-1.2-1.1v-15.1A3.7,3.7,0,0,1,173.7,1163.9Z"/>
    <path class="cls-49" d="M130.3,1164c0,2.6-1.6,4.8-2,7.3-.7,5.4-1.6,10.7-.9,16.1.3,2.4.2,4.8.3,7.1a1,1,0,0,1-.5.6.91.91,0,0,1-.8-.4,20.43,20.43,0,0,1-1.6-7.4,54.56,54.56,0,0,1,1.3-16.1,8.1,8.1,0,0,0,.3-3.8C127.1,1165.7,128.1,1164.2,130.3,1164Z"/>
    <path class="cls-50" d="M142.9,1161.5c-.1,3.2.1,6.3-.2,9.5a50.56,50.56,0,0,0,1.2,15.5,3.64,3.64,0,0,1-1.7,2.3,15.46,15.46,0,0,1-.7-2.3c-.6-4.1-1.2-8.2-1.5-12.2a36.45,36.45,0,0,1,1.8-13.1Z"/>
    <path class="cls-51" d="M162,1153.6c-2.4-1-5-1.8-7.4-3.7a23.52,23.52,0,0,1,9.2-3.2c1.8,2.8-.2,4.7-1.7,6.7Z"/>
    <path class="cls-52" d="M162.2,1153.4c.6-2.2,1.1-4.5,1.7-6.7a3.22,3.22,0,0,1,2.8-.9,17,17,0,0,1-2.1,6.6,1.77,1.77,0,0,1-2.4,1Z"/>
    <path class="cls-4" d="M156.3,1139.1c.2.9.9,1.1,1.7,1h2.2c-1.1,1.3-2.5,1.1-3.8.7C155.3,1140.5,155.6,1139.7,156.3,1139.1Z"/>
    <path class="cls-4" d="M154.5,1138.1a2.35,2.35,0,0,1,.8-2.1A1.77,1.77,0,0,1,154.5,1138.1Z"/>
    <path class="cls-4" d="M157.2,1136.2a2.05,2.05,0,0,1-.7,2.2A1.9,1.9,0,0,1,157.2,1136.2Z"/>
    <path class="cls-4" d="M155.6,1135.2a2,2,0,0,1,.8-1.9A1.92,1.92,0,0,1,155.6,1135.2Z"/>
    <path class="cls-4" d="M156.4,1133.3a1,1,0,0,1,.8-1.2A1.3,1.3,0,0,1,156.4,1133.3Z"/>
    <path class="cls-4" d="M158.3,1134.3a1.44,1.44,0,0,1-.9,1.1A1.17,1.17,0,0,1,158.3,1134.3Z"/>
    <path class="cls-4" d="M153.7,1140a1.37,1.37,0,0,1,.6-1.3A1.2,1.2,0,0,1,153.7,1140Z"/>
    <path class="cls-43" d="M180.4,935.8c-.7,3.7-1.4,7.2-2,10.6l-7.5,39.1c-2.9,14.9-5.5,29.9-8.7,44.7-3,14.2-5.2,28.6-8.1,42.8s-5.5,28.5-8.3,42.8c-.2,1.2-.2,2.6-1.7,3.2-.8.3-1.5.6-2.2,0a1.57,1.57,0,0,1-.4-1.7c1-5.8,1.9-11.7,2.8-17.5l6.3-39.3c2-12.6,4.2-25.2,6.1-37.9,2.1-13.2,4.5-26.4,6.4-39.7,1.5-10.6,3.4-21.1,5.1-31.7.8-4.7,1.5-9.5,2.3-14.2a20,20,0,0,1,.4-2.4,3.25,3.25,0,0,1,3.9-2.6,19.42,19.42,0,0,1,3.3.7A2.81,2.81,0,0,1,180.4,935.8Z"/>
    <path class="cls-53" d="M145.9,1125.8a11.25,11.25,0,0,1,5.1,1.2,1.88,1.88,0,0,1,1.3,2.2,2.65,2.65,0,0,1-1.6,2.2,2.92,2.92,0,0,1-.9.2c-2.4.2-4.8.3-7.2.4-1.6,0-3.3-.1-4.1-1.8-.5-.8.9-2.6,2.8-3.4A9.12,9.12,0,0,1,145.9,1125.8Z"/>
    <path class="cls-54" d="M150.1,1133.5c-1.6,2-3.1,2.1-4.3.5a.49.49,0,0,1,.2-.8A5.8,5.8,0,0,1,150.1,1133.5Z"/>
    <path class="cls-55" d="M160.4,1132.5c-.2-.1-.8-.3-1-.6-.4-.8.8-2.1,2-2.1.6,0,.8.4.8.9C162.4,1131.9,161.8,1132.4,160.4,1132.5Z"/>
    <path class="cls-3" d="M192,401.9a4.35,4.35,0,0,0-2.9-1.5c.2-.1.4-.3.6-.4s.8-.2.7-.6c0-.7-.7-.6-1.1-.6a5.63,5.63,0,0,0-3,1.2c-.9.6-1.7,1.4-2.6,2.1-1.9,1.4-2.3,1.3-4.1-.2a3.48,3.48,0,0,1-1.1-4.5,19.45,19.45,0,0,1,1.3-3,6,6,0,0,0,.8-5.2,145.06,145.06,0,0,0-5.5-17.3,72.87,72.87,0,0,0-5.2-10q-10.35-16.65-21.9-32.7a46.55,46.55,0,0,1-7.3-14.6,29.91,29.91,0,0,1-1-4.3,2.23,2.23,0,0,1,.8-2.6c.8-.5,1.6-.3,2.6.6a23.69,23.69,0,0,1,3.4,3.7c9.5,13.5,18.6,27.3,25.7,42.2a141.26,141.26,0,0,1,9,23.4,42.3,42.3,0,0,0,2.4,6.8,14.25,14.25,0,0,0,9.5,8.4c2.3.6,4.1,2,6,3.4a2.23,2.23,0,0,1,.8,2.9c-2,4-2.3,5.3-6.9,2.3C192.5,401.2,192.2,401.2,192,401.9Z"/>
    <path class="cls-56" d="M181.5,1149.8a13.83,13.83,0,0,1,4.7,5.2,9.12,9.12,0,0,1,1,4.6c0,1.9-.8,2.7-2.6,2.5a41.93,41.93,0,0,1-5.1-1.1C177.6,1156.8,178.6,1153.1,181.5,1149.8Z"/>
    <path class="cls-57" d="M181.5,1149.8a25.57,25.57,0,0,0-2,11.2h-1.2c-1.5-4.5-.4-8.6,1.7-12.5A2.43,2.43,0,0,1,181.5,1149.8Z"/>
    <path class="cls-58" d="M172.8,645.9c-.5,1.8-2,2.5-3.7,3.1a4.57,4.57,0,0,1-4.1-.5,3.27,3.27,0,0,1-1.1-1.5,3.77,3.77,0,0,1,2.6-4.7,1.27,1.27,0,0,1,.6-.1c.6-.1,1.2.2,1,1.1-.1.3-.3.5-.4.8a1.06,1.06,0,0,0,.5,1.5,1.27,1.27,0,0,0,.6.1,12.1,12.1,0,0,0,1.9-.1A3.73,3.73,0,0,1,172.8,645.9Z"/>
    <path class="cls-59" d="M149.4,663c-.2.2-.3.6-.6.7-1.8.7-3.2.3-4-1.2a13.36,13.36,0,0,1-.7-1.8,2.15,2.15,0,0,1,.6-2.5,10.14,10.14,0,0,1,5.4-2.6.91.91,0,0,1,.8.4,1,1,0,0,1-.2.9,17.41,17.41,0,0,1-1.2,1.4c-1.4,1.2-1.9,2.5-.3,4C149.4,662.3,149.3,662.7,149.4,663Z"/>
    <path class="cls-60" d="M218.2,651.8c.7.5.7,1.4.8,2.1.3,2.1,1.3,3.5,3.4,3.9.5.1.9.4.7.9a2.41,2.41,0,0,1-1,1,3.19,3.19,0,0,1-2.7,0,7,7,0,0,1-3.1-2.8,4,4,0,0,1-.5-3.2A2.82,2.82,0,0,1,218.2,651.8Z"/>
    <path class="cls-61" d="M184.4,638.8h-2.6c-.9,0-1.3.4-1.6,1.3-.4,1.4-1.2,1.5-2,.5a2.42,2.42,0,0,1-.4-3,2.77,2.77,0,0,1,2.7-1.5A4.68,4.68,0,0,1,184.4,638.8Z"/>
    <path class="cls-62" d="M205.1,649.6c0,.8-.4,1-.9,1a2.58,2.58,0,0,1-2.5-1.9,4.11,4.11,0,0,1,1.7-5,2.27,2.27,0,0,1,1.8-.3c.8.3.4,1.1,0,1.6C204.2,646.5,203.8,648.2,205.1,649.6Z"/>
    <path class="cls-1" d="M127.4,724.2c2.2.9,4.3,1.6,6.7.1,1.5-.9,2.7-.3,3.7,1.1s1.7,2.7,2.5,4c-.3.1-.6.4-.9.3a40.4,40.4,0,0,1-11-4A2.05,2.05,0,0,1,127.4,724.2Z"/>
    <path class="cls-1" d="M126.5,722.3a1.88,1.88,0,0,1,1.1,2C126.3,724.1,126.6,723.1,126.5,722.3Z"/>
    <path class="cls-63" d="M230,692.8a1.93,1.93,0,0,1-1.4,1.7c-1,.4-1.7,1-1.5,2.1s1.1,1.5,2,1.8c2.1.7,4,1,5.5-1.1.4-.6.9-.8,1.5-.2a1.57,1.57,0,0,1,.5,1.7,5.83,5.83,0,0,1-1.1,1.5c-2.8,2.8-12.1.1-12.9-4.8a2.63,2.63,0,0,1,1.9-3.2c.2,0,.4-.1.6-.1A38.59,38.59,0,0,1,230,692.8Z"/>
    <path class="cls-64" d="M204.1,690.5a17.71,17.71,0,0,1-6.4-1.2,4.11,4.11,0,0,1-2.2-5.4l.3-.6c1-1.7,2.6-1.6,4.2-1.3.4.1,1.1,0,1,.7,0,.2-.3.5-.5.7s-.3.2-.4.3c-.6.4-1.6.7-1.4,1.7a3,3,0,0,0,2.2,2.3c2.3.5,4.7.8,6.9-.5.9-.5,1.5-.1,1.8.8a1.51,1.51,0,0,1-.8,2C207.5,690.6,205.9,690.4,204.1,690.5Z"/>
    <path class="cls-65" d="M170.7,725.9c-.5-3.7-3-5.3-3.2-8,2.7-1.2,5.5-1.1,8.3-1.3.9.8.5,1.8.6,2.7a29.57,29.57,0,0,0,.6,5.2c1.1,3.1.7,6.3.7,9.4,0,2.8-2.3,3.8-4.7,2.3a34.68,34.68,0,0,1-3.7-3c-2.1-1.8-4.4-2.6-7-1-.9.6-1.8.9-2.5,0a3.37,3.37,0,0,1-.8-3.5,2.18,2.18,0,0,1,.5-.8c2.6-2.5,2.9-5.5,2-8.9l-.3-1.8c.9-.8,1.5-.1,2.1.3C166,719.6,167.9,722.4,170.7,725.9Z"/>
    <path class="cls-47" d="M257,461.2a28.05,28.05,0,0,1,0,2.9,1.56,1.56,0,0,1-1.5,1.6h-.1a2.13,2.13,0,0,1-2-1.7c-.1-1.1,0-2.2-.1-3.3a23.79,23.79,0,0,0-.5-6.5c-.4-1.2,0-1.9.9-2,1.3-.2,2.3.3,2.5,1.5.3,2,1,4,.9,6.1a6.15,6.15,0,0,0-.1,1.4Z"/>
    <path class="cls-66" d="M255.5,471.3a1.69,1.69,0,0,1-.3,1c-.8,1.5-1.6,2.9-2.5,4.4a2.18,2.18,0,0,1-2.1,1c-1.1-.1-1.6-.7-1.3-1.6.9-2.1,1.8-4.2,2.8-6.2a1.36,1.36,0,0,1,1.8-.7A1.88,1.88,0,0,1,255.5,471.3Z"/>
    <path class="cls-67" d="M237.7,416.1c-.5-2.1-1.7-2.4-3.3-2a16,16,0,0,1-2.1.5c-3,.6-3.9-.2-3.4-3.1.1-.8.4-1.7.5-2.5.3-2.2-.1-2.8-2.1-3.6a3.81,3.81,0,0,0-1-.3c-1.7-.5-2.5,0-3,1.7-.3,1-.4,2.1-.7,3.2a2.07,2.07,0,0,1-1,1.4,1.73,1.73,0,0,1-1-.1.57.57,0,0,1-.4-.7c0-.1,0-.1.1-.2a8.26,8.26,0,0,0,1.8-5c0-1.2,1.8-2.3,3.3-2.3,2.2,0,3.9,1.2,5.6,2.4a1.73,1.73,0,0,1,.4,1.7,28,28,0,0,0-.6,2.8c-.2,1.3.2,1.8,1.5,2s2.4.1,3.6.2a3,3,0,0,1,1.9,1C238,413.6,238,413.7,237.7,416.1Z"/>
    <path class="cls-68" d="M236.9,423.3a5.92,5.92,0,0,1,3.4-3,2.8,2.8,0,0,1,3.6.8c.2.2.3.4.5.6,1.7,2.3,3.9,2.7,6.4,1.4a8.83,8.83,0,0,1,5.3-.5,5.18,5.18,0,0,1,3.2,1.6,14.75,14.75,0,0,1,2.7,4.7c.3.8-.1,1.4-1,1.7a1.17,1.17,0,0,1-1.6-.5c0-.1-.1-.2-.1-.3-.2-.7-.2-1.5-.4-2.1a5,5,0,0,0-6.5-3.6,11.78,11.78,0,0,0-3.9,1.9,11.78,11.78,0,0,1-1.9,1.1.93.93,0,0,1-1.2-.4c-.4-.8-.6-1.6-1-2.3-1-2-2.4-2.5-4.5-1.8C239.1,422.4,238.4,422.7,236.9,423.3Z"/>
    <path class="cls-67" d="M175.7,413.9a2.51,2.51,0,0,1,.1-1.9c.6-1.6,1.2-1.8,2.8-1.2.1,0,.2.1.3.2,2.8,1.2,2.8,1.2,4.9-1.1a4.74,4.74,0,0,1,1-1,1.67,1.67,0,0,1,2-.2,13,13,0,0,1,1.5,1,3.92,3.92,0,0,0,3.7,1c.9-.3,1.6.8,1.4,2-.1.5-.8.8-1,.4-.4-.6-.8-1.3-1.7-1-1.3.5-2.3-.1-3.3-1a1.45,1.45,0,0,0-2.1-.1l-.1.1a8,8,0,0,0-1.3,1.3c-1.3,1.3-2.7,2.1-4.6.9C177.9,412.3,176.8,413.3,175.7,413.9Z"/>
    <path class="cls-69" d="M198.9,415.5c-.2-2.4.6-3.7,1.9-4.6a2.49,2.49,0,0,1,1.7-.3,5.17,5.17,0,0,1,1.3.6,2.07,2.07,0,0,0,2.9-.4,5.1,5.1,0,0,1,4.4-2.1,5.08,5.08,0,0,0,2.5-1.1,1.3,1.3,0,0,1-.8,1.7,16.27,16.27,0,0,1-2.3,1.1c-.7.3-1.3.5-2,.8-1.2.4-1.1,2.4-2.6,2.3a18.15,18.15,0,0,1-3-1.1,2.08,2.08,0,0,0-2,.5C200.4,413.5,199.9,414.3,198.9,415.5Z"/>
    <path class="cls-70" d="M249.1,412.9a6.42,6.42,0,0,1-1.3,1c-1.3.6-2,.5-2.8-.5-.2-.2-.2-.4-.4-.6-.8-1.1-.8-1.1-2.4-.6a.82.82,0,0,1-1-1.2h0a7.55,7.55,0,0,1,1.1-1.4,1.41,1.41,0,0,1,2.2,0c.8.7,1.4,1.3,2.1,1.9S248.4,411.8,249.1,412.9Z"/>
    <path class="cls-71" d="M224.8,420.7c2.8,0,3.9,1.1,4,3.3,0,.4-.1,1-.7,1.1a1.49,1.49,0,0,1-.9-.4,3,3,0,0,1-.4-1c-.8-1.4-1.1-1.6-2.6-1.3-.5.1-.9.3-1.4.4s-1.2.5-1.5-.3c-.1-.4.5-.8.9-1A3.66,3.66,0,0,1,224.8,420.7Z"/>
    <path class="cls-72" d="M251.2,414.6a.37.37,0,0,1,.1-.3c.2-.3.4-.3.6-.1a2.52,2.52,0,0,0,2.6.6A1.42,1.42,0,0,1,256,416v.3a3.38,3.38,0,0,1-.9,1.9c-.4.3-.9.5-1.3.1-.9-1-1.6-2-2.4-3C251.2,415.2,251.3,414.9,251.2,414.6Z"/>
    <path class="cls-73" d="M119.9,1163a1.81,1.81,0,0,1-1.5,1.6c-6,1.2-11.9,2.2-17.9.3-.9-.3-1.8-.6-2.7-1-2-.9-2.5-2.6-1.2-4.2a14.44,14.44,0,0,1,3.9-3.5,4.43,4.43,0,0,1,4.1-.7c2.2.9,4,.1,6-.4,2.6-.7,5-.6,6.5,2.1-.8,1-1.9.4-2.8.5a1.88,1.88,0,0,0,2.6-.3c.1-.1.1-.2.2-.2a7.52,7.52,0,0,1,3.4,2.1c.9.8.6,2.1-.6,3.7-.7-.6-1.3-1.4-2.4-.9C118.3,1162.7,119.4,1162.2,119.9,1163Z"/>
    <path class="cls-74" d="M156.7,337.4a2.91,2.91,0,0,1-2.2-1.5c-3.3-5.1-6.5-10.2-9.8-15.3a19.67,19.67,0,0,1-3.1-7.3,3.59,3.59,0,0,1-.2-1.1,1.33,1.33,0,0,1,.8-1.1,1.18,1.18,0,0,1,1,.1,3.75,3.75,0,0,1,1.6,1.9c.6,1.5,1.3,2.9,1.9,4.4a111.88,111.88,0,0,0,7.1,14.3C154.7,333.4,155.5,335.1,156.7,337.4Z"/>
    <path class="cls-75" d="M104.7,1163.9l-5.5-.9a1.8,1.8,0,0,1-1.3-2.1.76.76,0,0,1,.2-.5,6.54,6.54,0,0,1,5.1-3,23.47,23.47,0,0,1,7.9,1.4,3.75,3.75,0,0,1,1.7,1.6,1.81,1.81,0,0,1-.6,2.5c-.1.1-.3.1-.4.2C109.5,1163.3,107.1,1163.6,104.7,1163.9Z"/>
    <path class="cls-76" d="M119.9,1163c-1.6,0-2.9,1.4-4.5.9-.4-.1-1-.2-.9-.8a1.14,1.14,0,0,1,.3-.8,6.55,6.55,0,0,1,4.2-1.9c.6-.1.8.4.8.9s0,1.2.1,1.7Z"/>
    <path class="cls-77" d="M117,1157.2v1.4c-.2,1.3-1,1.8-1.9,1.1a5.26,5.26,0,0,1-1.4-1.2c-.6-.7-2.5-.8-1.8-2.1.5-.9,2-.2,3,.2.7.4,1.3.9,2.1.6Z"/>
  </g>
</svg>
