<svg id="Livello_1" data-name="Livello 1" xmlns="http://www.w3.org/2000/svg" viewBox="0 0 277.05 45.02"><defs><style>.cls-1{fill:#fff;}.cls-2{fill:#1d1d1b;}.cls-3{fill:none;}</style></defs><title>logo-bianco</title><path class="cls-1" d="M802.64,527.57a18.81,18.81,0,0,0-7.34-7.41,21.53,21.53,0,0,0-10.76-2.69h-9.49a3,3,0,0,0-3.1,3.12v35.56a3.07,3.07,0,0,0,3.1,3.12h9.49a21.52,21.52,0,0,0,10.76-2.67,18.94,18.94,0,0,0,7.34-7.46,23.51,23.51,0,0,0,0-21.57Zm-5.25,18.72a13.37,13.37,0,0,1-5.24,5.43,14.64,14.64,0,0,1-7.61,2h-6.37V523.06h6.37a14.93,14.93,0,0,1,7.61,2,13.64,13.64,0,0,1,5.24,5.41,17.69,17.69,0,0,1,0,15.87Z" transform="translate(-771.95 -517.47)"/><path class="cls-1" d="M838.29,546a2.58,2.58,0,0,0,.81-1.93,16.8,16.8,0,0,0-1.62-7.52,12.14,12.14,0,0,0-4.65-5.14,13.53,13.53,0,0,0-7.2-1.84,14.66,14.66,0,0,0-7.5,1.91,13.72,13.72,0,0,0-5.21,5.34,16.3,16.3,0,0,0-1.84,7.72,15.32,15.32,0,0,0,1.95,7.7,14,14,0,0,0,5.5,5.32,16.41,16.41,0,0,0,7.91,1.91,16.15,16.15,0,0,0,5.18-.9,15.42,15.42,0,0,0,4.54-2.38,2.3,2.3,0,0,0,1-1.88,2.77,2.77,0,0,0-1.08-2.07,2.74,2.74,0,0,0-1.84-.61,3.11,3.11,0,0,0-2,.66,10.52,10.52,0,0,1-2.71,1.37,10.34,10.34,0,0,1-3.14.53,10.07,10.07,0,0,1-6.52-2.17,8.84,8.84,0,0,1-3.14-5.26h19.51A2.7,2.7,0,0,0,838.29,546Zm-21.44-4.2a9,9,0,0,1,2.81-5,8.81,8.81,0,0,1,6-2,7.44,7.44,0,0,1,5.36,2,8.85,8.85,0,0,1,2.45,5Z" transform="translate(-771.95 -517.47)"/><path class="cls-1" d="M856.43,556.26a2.6,2.6,0,0,1-1.15,2.2,4.56,4.56,0,0,1-2.8.81h-.09a7.51,7.51,0,0,1-4.29-1.3,8.34,8.34,0,0,1-2.94-3.64,12.29,12.29,0,0,1-1-5.16V520.5a2.83,2.83,0,0,1,.85-2.18,2.89,2.89,0,0,1,2.15-.85,2.91,2.91,0,0,1,3,3v28.67a5.92,5.92,0,0,0,.68,3,1.8,1.8,0,0,0,1.57,1.08h1.3a2.55,2.55,0,0,1,2,.88A3.1,3.1,0,0,1,856.43,556.26Z" transform="translate(-771.95 -517.47)"/><path class="cls-1" d="M868.35,522a3.82,3.82,0,0,1-3.84,3.84,3.88,3.88,0,0,1-3.84-3.84,3.93,3.93,0,0,1,3.84-3.84,3.88,3.88,0,0,1,3.84,3.84Z" transform="translate(-771.95 -517.47)"/><path class="cls-1" d="M867.56,532.82v23.39a3,3,0,0,1-.83,2.18,3.19,3.19,0,0,1-4.4,0,3,3,0,0,1-.87-2.18V532.82a3,3,0,0,1,.87-2.22,3.1,3.1,0,0,1,2.18-.83,2.88,2.88,0,0,1,3,3.05Z" transform="translate(-771.95 -517.47)"/><path class="cls-1" d="M901.08,532.62a2.68,2.68,0,0,1-.29,1.17l-11.14,23.48a2.91,2.91,0,0,1-2.76,1.93,2.82,2.82,0,0,1-1.68-.45,3.65,3.65,0,0,1-1.17-1.48l-11.16-23.5a2.61,2.61,0,0,1-.24-1.1,2.68,2.68,0,0,1,1.68-2.5,2.85,2.85,0,0,1,2.67.09,2.82,2.82,0,0,1,1.06,1.13l8.8,19,8.68-19a2.67,2.67,0,0,1,1.08-1.15,3.16,3.16,0,0,1,2.85-.09,2.94,2.94,0,0,1,1.19,1A2.42,2.42,0,0,1,901.08,532.62Z" transform="translate(-771.95 -517.47)"/><path class="cls-1" d="M930.29,546a2.69,2.69,0,0,0,.8-1.93,16.93,16.93,0,0,0-1.63-7.52,11.89,11.89,0,0,0-4.65-5.14,13.46,13.46,0,0,0-7.18-1.84,14.77,14.77,0,0,0-7.53,1.91,13.58,13.58,0,0,0-5.18,5.34,16,16,0,0,0-1.86,7.72,15.13,15.13,0,0,0,2,7.7,13.69,13.69,0,0,0,5.48,5.32,16.51,16.51,0,0,0,13.09,1,15.48,15.48,0,0,0,4.55-2.38,2.25,2.25,0,0,0,1-1.88,2.68,2.68,0,0,0-1.08-2.07,2.62,2.62,0,0,0-1.81-.61,3.15,3.15,0,0,0-2,.66,10.24,10.24,0,0,1-5.86,1.9A10.06,10.06,0,0,1,911.9,552a8.91,8.91,0,0,1-3.12-5.26h19.51A2.73,2.73,0,0,0,930.29,546Zm-21.44-4.2a9,9,0,0,1,2.8-5,8.82,8.82,0,0,1,6-2,7.49,7.49,0,0,1,5.36,2,9,9,0,0,1,2.45,5Z" transform="translate(-771.95 -517.47)"/><path class="cls-1" d="M966.14,539.85a10,10,0,0,0-4.94-3.26,9.86,9.86,0,0,0,3.14-3,8.37,8.37,0,0,0,1.46-4.83,11,11,0,0,0-1.59-5.84,11.15,11.15,0,0,0-4.45-4,14.11,14.11,0,0,0-6.42-1.43H940.79a3.06,3.06,0,0,0-3.12,3.12v35.56a3.07,3.07,0,0,0,3.12,3.12h13.65a15.64,15.64,0,0,0,7.14-1.62,12.17,12.17,0,0,0,4.94-4.56,12.62,12.62,0,0,0,1.75-6.6A10.23,10.23,0,0,0,966.14,539.85Zm-22.25-16.57h9.45a7.32,7.32,0,0,1,4.74,1.42,4.92,4.92,0,0,1,1.73,4.08,5,5,0,0,1-1.73,4.11,7.22,7.22,0,0,1-4.74,1.46h-9.45Zm16.25,28.35a8.5,8.5,0,0,1-5.7,1.82H943.89V540.14h10.55a9.16,9.16,0,0,1,5.75,1.66,5.57,5.57,0,0,1,2.09,4.69A6.37,6.37,0,0,1,960.14,551.63Z" transform="translate(-771.95 -517.47)"/><path class="cls-2" d="M1020.12,554.48" transform="translate(-771.95 -517.47)"/><path class="cls-1" d="M1047.7,537.69a12.68,12.68,0,0,0-.63-1.28,13.7,13.7,0,0,0-5.28-5.29,14.64,14.64,0,0,0-5.77-1.82,16.16,16.16,0,0,0-1.86-.11,15.38,15.38,0,0,0-7.29,1.72,4,4,0,0,0-.41.21,8.88,8.88,0,0,0-1,.67,12.5,12.5,0,0,0-3.42,3.34,2.36,2.36,0,0,0-.13.23c-5.21,7.23-10.4,14.59-15.49,21.89-1.53,2.2-1.28,3.3,1.17,4.55a5.26,5.26,0,0,0,3.61.59c4.49-.83,8.33-4.87,9.54-9.48a8.2,8.2,0,0,0,.29-1.41,10.78,10.78,0,0,0,.07-2.72,3.09,3.09,0,0,1,.27-2.08,91.6,91.6,0,0,1,5.88-8.76,8,8,0,0,1,2.34-2h0a8.6,8.6,0,0,1,4.6-1.21,8.86,8.86,0,0,1,4.15.94l.48.27a8.28,8.28,0,0,1,3.16,3.34,10.7,10.7,0,0,1,1.12,4.94,10.38,10.38,0,0,1-1.12,4.87,8.24,8.24,0,0,1-3.07,3.28s-.05.07-.09.07a8.89,8.89,0,0,1-4.63,1.21,8.78,8.78,0,0,1-4.6-1.21.88.88,0,0,1-.29-.18,6.68,6.68,0,0,1-1.28-1,8.11,8.11,0,0,1-1.64-2.16,10.16,10.16,0,0,1-1.17-4.87,1.62,1.62,0,0,1,0-.31l-1.66,2.65a3.73,3.73,0,0,0-.85,2.26,16.07,16.07,0,0,1-.27,4.94,12.34,12.34,0,0,0,3.48,3.1c.18.14.38.25.56.38a15.64,15.64,0,0,0,7.7,1.91,17.6,17.6,0,0,0,3.3-.31,15.51,15.51,0,0,0,4.38-1.6,13.66,13.66,0,0,0,5.27-5.34,12.07,12.07,0,0,0,1-2.11l0,0a16.45,16.45,0,0,0,.92-5.55A16,16,0,0,0,1047.7,537.69Zm-21.06-.06,0,0,.4.29Z" transform="translate(-771.95 -517.47)"/><path class="cls-3" d="M1043.07,544.18a10.38,10.38,0,0,1-1.12,4.87,8.24,8.24,0,0,1-3.07,3.28s-.05.07-.09.07a8.89,8.89,0,0,1-4.63,1.21,8.78,8.78,0,0,1-4.6-1.21.88.88,0,0,1-.29-.18,6.68,6.68,0,0,1-1.28-1,8.11,8.11,0,0,1-1.64-2.16,10.16,10.16,0,0,1-1.17-4.87,1.62,1.62,0,0,1,0-.31l-1.66,2.65a3.73,3.73,0,0,0-.85,2.26,16.07,16.07,0,0,1-.27,4.94c-.16.68-.27,1.13-.27,1.17l-1-.25s.16-.65.32-1.52l-.79-.21a8.2,8.2,0,0,0,.29-1.41,10.78,10.78,0,0,0,.07-2.72,3.09,3.09,0,0,1,.27-2.08,91.6,91.6,0,0,1,5.88-8.76,8,8,0,0,1,2.34-2h0a8.6,8.6,0,0,1,4.6-1.21,8.86,8.86,0,0,1,4.15.94l.48.27a8.28,8.28,0,0,1,3.16,3.34A10.7,10.7,0,0,1,1043.07,544.18Z" transform="translate(-771.95 -517.47)"/><polygon class="cls-2" points="255.26 20.47 255.26 20.48 255.25 20.48 255.15 20.41 255.26 20.47"/><path class="cls-3" d="M1002.71,534a19.84,19.84,0,0,0-2.65,6.55,4,4,0,0,1-.74,2.29l-.14.23-2.87,4.42-.85-.54,2-3.09,1-1.53a3,3,0,0,0,.61-1.91,17.54,17.54,0,0,1,1.8-5.1c.29-.6.62-1.21,1-1.84Z" transform="translate(-771.95 -517.47)"/><path class="cls-1" d="M1017.26,532.69c-1.4,2.11-2.79,4.24-4.2,6.33-1.19,1.75-2.11,4-3.93,4.89,0,0,0,0,0,.05-3.7,1.75-6.08,6-8.39,9h0a13.31,13.31,0,0,1-4.45,4,15.43,15.43,0,0,1-7.65,1.93,15.6,15.6,0,0,1-7.7-1.93,13.7,13.7,0,0,1-5.32-5.33,15.69,15.69,0,0,1-1.87-7.67,16,16,0,0,1,1.87-7.77,13.49,13.49,0,0,1,5.32-5.3,16.15,16.15,0,0,1,15.31,0,13.66,13.66,0,0,1,4.67,4.33,17.54,17.54,0,0,0-1.8,5.1,3,3,0,0,1-.61,1.91l-1,1.53a9.91,9.91,0,0,0-1.13-4.74,8.35,8.35,0,0,0-3.16-3.37,9.41,9.41,0,0,0-9.23,0,8.36,8.36,0,0,0-3.19,3.37,10.21,10.21,0,0,0-1.16,4.94,10,10,0,0,0,1.16,4.87,8.36,8.36,0,0,0,3.19,3.37,9.54,9.54,0,0,0,9.23,0,8.42,8.42,0,0,0,3-3.1c1.41-1.8,2.6-4,3.9-5.88a3.54,3.54,0,0,0,.66-1.78,13.23,13.23,0,0,1,1.14-4.37,14.61,14.61,0,0,1,.9-1.76c.25-.42.52-.85.81-1.25,1.7-2.38,3.27-4.9,4.91-7.34.45-.66.92-1.53,1.84-.88s.43,1.53,0,2.29c-1.57,2.4-3.14,4.8-4.74,7.23-.31.47-.74.92,0,1.46s1.05.09,1.46-.5q2.38-3.6,4.82-7.16c.45-.69.95-1.5,1.84-.85s.45,1.53,0,2.27c-1.55,2.29-3.1,4.6-4.63,6.89-.42.63-.94,1.28,0,1.88a1,1,0,0,0,.7.23c.38-.09.58-.58.83-1l3.91-5.92c.27-.38.54-.79.83-1.15l.29-.38a1.19,1.19,0,0,1,1.17-.49,1.43,1.43,0,0,1,.47.22C1017.82,531.5,1017.64,532.1,1017.26,532.69Z" transform="translate(-771.95 -517.47)"/><path class="cls-2" d="M973,544.54" transform="translate(-771.95 -517.47)"/></svg>