<svg id="Livello_1" data-name="Livello 1" xmlns="http://www.w3.org/2000/svg" viewBox="0 0 203.34 99.28"><defs><style>.cls-1{fill:#1d1d1b;}.cls-2{fill:#fff;}.cls-3{fill:none;}</style></defs><title>logo-piccolo-bianco</title><path class="cls-1" d="M963.16,551.69" transform="translate(-837.76 -474)"/><path class="cls-2" d="M1041.1,523.88a44.35,44.35,0,0,1-2.46,15l0,0a37.86,37.86,0,0,1-2.56,5.73A37.14,37.14,0,0,1,1021.78,559a39,39,0,0,1-11.82,4.31,43.53,43.53,0,0,1-8.89.86A42,42,0,0,1,980.29,559c-.51-.31-1-.62-1.53-1a34.79,34.79,0,0,1-9.42-8.39c.67-3.41,1.47-8.95.77-13.31-.32-2,1.15-4.47,2.29-6.17l4.48-7.13a6.19,6.19,0,0,0,0,.85A27.41,27.41,0,0,0,980,537.05a22.24,22.24,0,0,0,4.45,5.83,18.72,18.72,0,0,0,3.44,2.72,3.88,3.88,0,0,0,.77.47,25.35,25.35,0,0,0,24.91,0,.76.76,0,0,0,.28-.15,22.41,22.41,0,0,0,8.28-8.87,28.08,28.08,0,0,0,3.05-13.17,28.72,28.72,0,0,0-3.05-13.31,22.43,22.43,0,0,0-8.56-9.07c-.41-.25-.86-.49-1.27-.74a24.58,24.58,0,0,0-11.2-2.53,23.88,23.88,0,0,0-12.44,3.27h0A21.93,21.93,0,0,0,982.3,507l-.31-.17-1.12-.81-.09.14,1.21.67.27.21a232.61,232.61,0,0,0-15.83,23.63c-1.12,1.92-1,3.62-.77,5.6a33,33,0,0,1-.13,7.36,33.87,33.87,0,0,1-.81,3.81c-3.3,12.45-13.66,23.38-25.76,25.55a14.52,14.52,0,0,1-9.78-1.53c-6.58-3.4-7.26-6.36-3.13-12.33,13.76-19.71,27.73-39.54,41.81-59.12a2.25,2.25,0,0,1,.37-.54,34.37,34.37,0,0,1,9.18-9.09c.94-.64,1.88-1.25,2.88-1.8.39-.21.72-.39,1.07-.55a41.55,41.55,0,0,1,19.71-4.64,37.91,37.91,0,0,1,5,.3,39.14,39.14,0,0,1,15.54,4.89,37.08,37.08,0,0,1,14.29,14.31,34.48,34.48,0,0,1,1.7,3.45A43.44,43.44,0,0,1,1041.1,523.88Z" transform="translate(-837.76 -474)"/><path class="cls-3" d="M1025.15,523.88a28.08,28.08,0,0,1-3.05,13.17,22.41,22.41,0,0,1-8.28,8.87.76.76,0,0,1-.28.15,25.35,25.35,0,0,1-24.91,0,3.88,3.88,0,0,1-.77-.47,18.72,18.72,0,0,1-3.44-2.72,22.24,22.24,0,0,1-4.45-5.83,27.41,27.41,0,0,1-3.13-13.17,6.19,6.19,0,0,1,0-.85l-4.48,7.13c-1.14,1.7-2.61,4.17-2.29,6.17.7,4.36-.1,9.9-.77,13.31-.39,1.84-.72,3.05-.72,3.19l-2.64-.71s.45-1.72.86-4.13l-2.12-.53a33.87,33.87,0,0,0,.81-3.81,33,33,0,0,0,.13-7.36c-.21-2-.35-3.68.77-5.6a232.61,232.61,0,0,1,15.83-23.63h0v0a21.93,21.93,0,0,1,6.31-5.52h0a23.88,23.88,0,0,1,12.44-3.27,24.58,24.58,0,0,1,11.2,2.53c.41.25.86.49,1.27.74a22.43,22.43,0,0,1,8.56,9.07A28.72,28.72,0,0,1,1025.15,523.88Z" transform="translate(-837.76 -474)"/><polygon class="cls-1" points="144.54 33.02 144.54 33.06 144.5 33.06 144.22 32.85 144.54 33.02"/><path class="cls-3" d="M916.14,496.35c-4.74,8.26-6.77,14.57-7.12,17.7-.4,3.37-.49,3.56-2,6.2l-.35.61L898.9,532.8l-2.29-1.45L902,523l2.64-4.12c1.33-2.21,1.33-2.21,1.66-5.16.4-3.37,2.14-8.28,4.84-13.72.8-1.65,1.7-3.31,2.64-5Z" transform="translate(-837.76 -474)"/><path class="cls-2" d="M955.45,492.87c-3.76,5.72-7.54,11.43-11.38,17.07-3.19,4.76-5.65,10.8-10.59,13.23,0,0-.07,0-.11.08-10,4.76-16.41,16.19-22.69,24.47h0a35.94,35.94,0,0,1-12,10.9,44.07,44.07,0,0,1-41.5,0,36.54,36.54,0,0,1-14.31-14.39,42,42,0,0,1-5.09-20.75,42.65,42.65,0,0,1,5.09-20.94,36.58,36.58,0,0,1,14.31-14.33A41.91,41.91,0,0,1,878,483a41.28,41.28,0,0,1,20.57,5.17A36.66,36.66,0,0,1,911.13,500c-2.7,5.44-4.44,10.35-4.84,13.72-.33,2.95-.33,2.95-1.66,5.16L902,523a28.26,28.26,0,0,0-3-12.81,22.71,22.71,0,0,0-8.55-9.06,25.45,25.45,0,0,0-25,0,22.84,22.84,0,0,0-8.61,9.06,27.74,27.74,0,0,0-3.13,13.31,27,27,0,0,0,3.13,13.18,22.9,22.9,0,0,0,8.61,9.08,25.45,25.45,0,0,0,25,0,22.19,22.19,0,0,0,8.12-8.34h0c3.8-4.87,7-10.78,10.57-15.85a10,10,0,0,0,1.74-4.84,36.65,36.65,0,0,1,3.1-11.8,34.63,34.63,0,0,1,2.39-4.7,36.76,36.76,0,0,1,2.23-3.45c4.58-6.42,8.83-13.17,13.23-19.77,1.21-1.8,2.5-4.13,5-2.36s1.16,4.11-.18,6.16q-6.36,9.75-12.74,19.48c-.88,1.33-2,2.54-.16,4s2.9.2,3.94-1.37c4.31-6.46,8.65-12.88,13-19.34,1.25-1.86,2.52-4.07,5-2.31s1.23,4.11-.14,6.17c-4.17,6.18-8.38,12.37-12.51,18.57-1.13,1.69-2.52,3.45,0,5.11a2.4,2.4,0,0,0,1.84.57c1.08-.25,1.65-1.57,2.29-2.6,3.53-5.29,7-10.67,10.53-16,.73-1.07,1.43-2.13,2.23-3.09.24-.35.51-.7.81-1.06a3.12,3.12,0,0,1,3.11-1.31,3.27,3.27,0,0,1,1.33.59C957,489.6,956.48,491.28,955.45,492.87Z" transform="translate(-837.76 -474)"/><path class="cls-1" d="M836,524.84" transform="translate(-837.76 -474)"/></svg>