<svg id="Livello_1" data-name="Livello 1" xmlns="http://www.w3.org/2000/svg" viewBox="0 0 201.21 98.25"><defs><style>.cls-1{fill:#1d1d1b;}.cls-2{fill:none;}</style></defs><title>logo-piccolo-nero</title><path class="cls-1" d="M945.93,567.64" transform="translate(-821.85 -490.75)"/><path class="cls-1" d="M1023.06,540.11a44,44,0,0,1-2.44,14.82l0,0a37.05,37.05,0,0,1-16.65,19.91,38.66,38.66,0,0,1-11.69,4.26,42.79,42.79,0,0,1-8.8.86,41.56,41.56,0,0,1-20.57-5.12c-.51-.31-1-.62-1.51-1a34.33,34.33,0,0,1-9.32-8.33c.65-3.37,1.44-8.84.76-13.17-.31-2,1.13-4.4,2.27-6.08l4.43-7.05a7.49,7.49,0,0,0,0,.82,27,27,0,0,0,3.09,13,21.83,21.83,0,0,0,4.4,5.78,18.31,18.31,0,0,0,3.41,2.68,3.4,3.4,0,0,0,.76.49,25.13,25.13,0,0,0,24.65,0,1.21,1.21,0,0,0,.28-.18,22,22,0,0,0,8.18-8.77,27.62,27.62,0,0,0,3-13,28.31,28.31,0,0,0-3-13.17,22.28,22.28,0,0,0-8.46-9l-1.27-.72a24.34,24.34,0,0,0-11.07-2.51A23.64,23.64,0,0,0,971.14,518h0a22,22,0,0,0-6.22,5.47l-.31-.17-1.1-.79-.11.14,1.21.65.27.21a228.39,228.39,0,0,0-15.68,23.38c-1.1,1.89-1,3.58-.76,5.54a31.76,31.76,0,0,1-.13,7.29,37.29,37.29,0,0,1-.79,3.78C944.21,575.77,934,586.57,922,588.74a14.45,14.45,0,0,1-9.69-1.52c-6.5-3.37-7.19-6.29-3.1-12.2,13.62-19.5,27.44-39.14,41.37-58.5A2.69,2.69,0,0,1,951,516a34.32,34.32,0,0,1,9.08-9,32.3,32.3,0,0,1,2.85-1.78c.38-.21.72-.38,1.07-.55a40.88,40.88,0,0,1,19.5-4.58,42.55,42.55,0,0,1,20.36,5.13,36.63,36.63,0,0,1,14.13,14.16,30.8,30.8,0,0,1,1.68,3.41A42.92,42.92,0,0,1,1023.06,540.11Z" transform="translate(-821.85 -490.75)"/><path class="cls-2" d="M1007.28,540.11a27.62,27.62,0,0,1-3,13,22,22,0,0,1-8.18,8.77,1.21,1.21,0,0,1-.28.18,25.13,25.13,0,0,1-24.65,0,3.4,3.4,0,0,1-.76-.49,18.31,18.31,0,0,1-3.41-2.68,21.83,21.83,0,0,1-4.4-5.78,27,27,0,0,1-3.09-13,7.49,7.49,0,0,1,0-.82l-4.43,7.05c-1.14,1.68-2.58,4.12-2.27,6.08.68,4.33-.11,9.8-.76,13.17-.38,1.83-.72,3-.72,3.17l-2.62-.69s.45-1.72.86-4.09l-2.09-.52a37.29,37.29,0,0,0,.79-3.78,31.76,31.76,0,0,0,.13-7.29c-.2-2-.34-3.65.76-5.54a228.39,228.39,0,0,1,15.68-23.38h0v0A22,22,0,0,1,971.1,518h0a23.64,23.64,0,0,1,12.31-3.23,24.34,24.34,0,0,1,11.07,2.51l1.27.72a22.28,22.28,0,0,1,8.46,9A28.31,28.31,0,0,1,1007.28,540.11Z" transform="translate(-821.85 -490.75)"/><polygon class="cls-1" points="143.03 32.68 143.03 32.71 142.99 32.71 142.72 32.51 143.03 32.68"/><path class="cls-2" d="M899.4,512.87c-4.68,8.19-6.71,14.41-7,17.51-.38,3.33-.48,3.54-2,6.15l-.35.59L882.34,549l-2.27-1.45,5.33-8.28,2.62-4.06c1.3-2.2,1.3-2.2,1.65-5.13.38-3.33,2.1-8.18,4.78-13.58.79-1.62,1.68-3.27,2.61-4.92Z" transform="translate(-821.85 -490.75)"/><path class="cls-1" d="M938.29,509.44c-3.71,5.64-7.46,11.31-11.24,16.88-3.16,4.71-5.61,10.7-10.49,13.1,0,0-.07,0-.1.07-9.91,4.71-16.23,16-22.46,24.21h0a35.79,35.79,0,0,1-11.87,10.8,43.72,43.72,0,0,1-41.06,0,36.33,36.33,0,0,1-14.17-14.24,41.78,41.78,0,0,1-5-20.53,42.37,42.37,0,0,1,5-20.73A36.22,36.22,0,0,1,841,504.83a41.15,41.15,0,0,1,20.57-5.13A40.61,40.61,0,0,1,882,504.83a36.14,36.14,0,0,1,12.49,11.62c-2.68,5.4-4.4,10.25-4.78,13.58-.35,2.93-.35,2.93-1.65,5.13l-2.62,4.06a27.62,27.62,0,0,0-3-12.66,22.39,22.39,0,0,0-8.46-9,25.14,25.14,0,0,0-24.69,0,22.55,22.55,0,0,0-8.53,9,27.62,27.62,0,0,0-3.09,13.17,27,27,0,0,0,3.09,13,22.61,22.61,0,0,0,8.53,9,25.21,25.21,0,0,0,24.69,0,22.06,22.06,0,0,0,8-8.25h0c3.75-4.82,7-10.66,10.46-15.68a9.77,9.77,0,0,0,1.72-4.78,40.09,40.09,0,0,1,5.43-16.34,35.17,35.17,0,0,1,2.2-3.4c4.54-6.37,8.74-13,13.1-19.57,1.21-1.79,2.48-4.09,5-2.34s1.13,4.06-.18,6.09q-6.29,9.64-12.62,19.29c-.86,1.31-2,2.51-.13,4s2.85.2,3.88-1.35c4.27-6.39,8.56-12.75,12.9-19.15,1.24-1.82,2.51-4,5-2.27s1.2,4.06-.14,6.09c-4.12,6.12-8.29,12.24-12.38,18.39-1.13,1.66-2.51,3.41,0,5.06A2.37,2.37,0,0,0,918,528c1.07-.24,1.62-1.55,2.27-2.58,3.47-5.23,7-10.56,10.42-15.78.72-1.07,1.41-2.1,2.2-3.06.24-.35.52-.69.79-1a3.06,3.06,0,0,1,4.4-.72C939.81,506.2,939.33,507.85,938.29,509.44Z" transform="translate(-821.85 -490.75)"/><path class="cls-1" d="M820.09,541.07" transform="translate(-821.85 -490.75)"/></svg>