<svg id="Livello_1" data-name="Livello 1" xmlns="http://www.w3.org/2000/svg" viewBox="0 0 280.23 45.52"><defs><style>.cls-1{fill:#1d1d1b;}.cls-2{fill:none;}</style></defs><title>logo-nero</title><path class="cls-1" d="M821.83,505.17a19.32,19.32,0,0,0-7.44-7.51A21.75,21.75,0,0,0,803.52,495h-9.61a3.13,3.13,0,0,0-2.24.89,3,3,0,0,0-.9,2.26v36a3,3,0,0,0,.9,2.23,3.07,3.07,0,0,0,2.24.91h9.61a21.75,21.75,0,0,0,10.87-2.7,19.33,19.33,0,0,0,7.44-7.54,23.76,23.76,0,0,0,0-21.81Zm-18.31,26.4h-6.46v-31h6.46a15,15,0,0,1,7.7,2,13.72,13.72,0,0,1,5.28,5.48,16.68,16.68,0,0,1,1.9,8,16.92,16.92,0,0,1-1.9,8,13.64,13.64,0,0,1-5.28,5.5A15,15,0,0,1,803.52,531.57Z" transform="translate(-790.77 -494.95)"/><path class="cls-1" d="M857.88,523.8a2.56,2.56,0,0,0,.81-1.95,17,17,0,0,0-1.63-7.6,12.24,12.24,0,0,0-4.71-5.2,13.71,13.71,0,0,0-7.27-1.87,14.92,14.92,0,0,0-7.6,1.94,13.7,13.7,0,0,0-5.25,5.4,16.19,16.19,0,0,0-1.88,7.81,15.28,15.28,0,0,0,2,7.79,14.08,14.08,0,0,0,5.55,5.38,16.68,16.68,0,0,0,13.23,1,15.44,15.44,0,0,0,4.6-2.4,2.3,2.3,0,0,0,1-1.91,2.67,2.67,0,0,0-1.09-2.09,2.63,2.63,0,0,0-1.84-.62,3.2,3.2,0,0,0-2,.66,9.86,9.86,0,0,1-2.74,1.38,10.42,10.42,0,0,1-9.78-1.64,8.9,8.9,0,0,1-3.16-5.32h19.74A2.77,2.77,0,0,0,857.88,523.8Zm-12.8-11.29a7.52,7.52,0,0,1,5.42,2,9,9,0,0,1,2.48,5H836.19a9.07,9.07,0,0,1,2.85-5A8.87,8.87,0,0,1,845.08,512.51Z" transform="translate(-790.77 -494.95)"/><path class="cls-1" d="M876.23,534.18a2.65,2.65,0,0,1-1.16,2.22,4.73,4.73,0,0,1-2.84.82h-.1a7.46,7.46,0,0,1-4.33-1.32,8.42,8.42,0,0,1-3-3.66,12.78,12.78,0,0,1-1-5.23V498a2.93,2.93,0,0,1,.86-2.19,3,3,0,0,1,2.18-.86,2.94,2.94,0,0,1,3,3.05v29a6,6,0,0,0,.69,3,1.8,1.8,0,0,0,1.58,1.08h1.33a2.56,2.56,0,0,1,2,.88A3.1,3.1,0,0,1,876.23,534.18Z" transform="translate(-790.77 -494.95)"/><path class="cls-1" d="M888.29,499.54a3.94,3.94,0,0,1-3.89,3.89,3.89,3.89,0,0,1,0-7.78,3.93,3.93,0,0,1,3.89,3.89Z" transform="translate(-790.77 -494.95)"/><path class="cls-1" d="M887.5,510.48v23.65a3,3,0,0,1-.86,2.2,3,3,0,0,1-2.24.89,3,3,0,0,1-2.21-.88,3,3,0,0,1-.88-2.21V510.48a3,3,0,0,1,.88-2.24,3.1,3.1,0,0,1,2.21-.85,3,3,0,0,1,2.24.86A3.07,3.07,0,0,1,887.5,510.48Z" transform="translate(-790.77 -494.95)"/><path class="cls-1" d="M921.39,510.27a2.68,2.68,0,0,1-.3,1.18L909.83,535.2a3.07,3.07,0,0,1-4.5,1.5,3.82,3.82,0,0,1-1.18-1.5l-11.28-23.76a2.49,2.49,0,0,1-.24-1.12,2.72,2.72,0,0,1,1.7-2.52,2.77,2.77,0,0,1,3.75,1.23l8.9,19.2,8.79-19.18a2.8,2.8,0,0,1,1.1-1.16,3.16,3.16,0,0,1,2.88-.09,2.85,2.85,0,0,1,1.2,1A2.53,2.53,0,0,1,921.39,510.27Z" transform="translate(-790.77 -494.95)"/><path class="cls-1" d="M950.92,523.8a2.54,2.54,0,0,0,.82-1.95,17,17,0,0,0-1.64-7.6,12.18,12.18,0,0,0-4.71-5.2,13.67,13.67,0,0,0-7.26-1.87,14.93,14.93,0,0,0-7.61,1.94,13.61,13.61,0,0,0-5.24,5.4,16.09,16.09,0,0,0-1.89,7.81,15.38,15.38,0,0,0,2,7.79,14.08,14.08,0,0,0,5.55,5.38,16.71,16.71,0,0,0,13.24,1,15.69,15.69,0,0,0,4.6-2.4,2.29,2.29,0,0,0,1-1.91,2.68,2.68,0,0,0-1.08-2.09,2.64,2.64,0,0,0-1.85-.62,3.15,3.15,0,0,0-2,.66,10.51,10.51,0,0,1-12.52-.26,9,9,0,0,1-3.17-5.32h19.74A2.75,2.75,0,0,0,950.92,523.8Zm-12.79-11.29a7.48,7.48,0,0,1,5.41,2,8.91,8.91,0,0,1,2.48,5H929.24a9.06,9.06,0,0,1,2.84-5A8.9,8.9,0,0,1,938.13,512.51Z" transform="translate(-790.77 -494.95)"/><path class="cls-1" d="M987.2,517.58a10.17,10.17,0,0,0-5-3.29,10.28,10.28,0,0,0,3.17-3,8.52,8.52,0,0,0,1.48-4.89,10.9,10.9,0,0,0-6.11-10,14.06,14.06,0,0,0-6.49-1.46h-12.7a3.07,3.07,0,0,0-2.23.89,3,3,0,0,0-.92,2.26v36a3.11,3.11,0,0,0,3.15,3.14h13.81a15.75,15.75,0,0,0,7.22-1.63,12.13,12.13,0,0,0,5-4.61,12.7,12.7,0,0,0,1.79-6.68A10.34,10.34,0,0,0,987.2,517.58Zm-11.83,13.78H964.7V517.88h10.67a9.28,9.28,0,0,1,5.8,1.68,5.59,5.59,0,0,1,2.11,4.74,6.48,6.48,0,0,1-2.15,5.21A8.7,8.7,0,0,1,975.37,531.36ZM964.7,500.83h9.56a7.51,7.51,0,0,1,4.78,1.42,5.82,5.82,0,0,1,0,8.3,7.35,7.35,0,0,1-4.78,1.46H964.7Z" transform="translate(-790.77 -494.95)"/><path class="cls-1" d="M1041.8,532.39" transform="translate(-790.77 -494.95)"/><path class="cls-1" d="M1071,522a16.76,16.76,0,0,1-.92,5.61h0a13.92,13.92,0,0,1-6.3,7.54,14.76,14.76,0,0,1-4.43,1.61,16.35,16.35,0,0,1-3.33.33,15.75,15.75,0,0,1-7.78-1.94c-.2-.12-.4-.24-.58-.37a13,13,0,0,1-3.53-3.15,15.69,15.69,0,0,0,.29-5,3.76,3.76,0,0,1,.86-2.31l1.68-2.67c0,.11,0,.21,0,.32a10.2,10.2,0,0,0,1.17,4.93,8.12,8.12,0,0,0,1.66,2.19,6.92,6.92,0,0,0,1.29,1,1.81,1.81,0,0,0,.29.19,9.55,9.55,0,0,0,9.34,0l.1-.07a8.35,8.35,0,0,0,3.1-3.32A10.54,10.54,0,0,0,1065,522a10.82,10.82,0,0,0-1.14-5,8.47,8.47,0,0,0-3.2-3.4l-.49-.27a9.15,9.15,0,0,0-4.19-.95,8.93,8.93,0,0,0-4.66,1.22h0a8.35,8.35,0,0,0-2.36,2.07l-.12-.06-.41-.3,0,.05.45.25.11.07a86,86,0,0,0-5.94,8.86,3.12,3.12,0,0,0-.29,2.09,12.13,12.13,0,0,1,0,2.76,13.61,13.61,0,0,1-.3,1.44c-1.23,4.66-5.11,8.75-9.65,9.57a5.53,5.53,0,0,1-3.67-.58c-2.46-1.27-2.72-2.38-1.17-4.62,5.16-7.38,10.39-14.82,15.66-22.15a1.49,1.49,0,0,1,.15-.2,12.75,12.75,0,0,1,3.43-3.4,12.37,12.37,0,0,1,1.09-.68l.4-.21a15.49,15.49,0,0,1,7.38-1.73,16.71,16.71,0,0,1,1.89.1,14.89,14.89,0,0,1,5.82,1.84,14,14,0,0,1,5.35,5.36,12.89,12.89,0,0,1,.64,1.29A16.29,16.29,0,0,1,1071,522Z" transform="translate(-790.77 -494.95)"/><path class="cls-2" d="M1065,522a10.54,10.54,0,0,1-1.14,4.93,8.35,8.35,0,0,1-3.1,3.32l-.1.07a9.55,9.55,0,0,1-9.34,0,1.81,1.81,0,0,1-.29-.19,6.92,6.92,0,0,1-1.29-1,8.12,8.12,0,0,1-1.66-2.19,10.2,10.2,0,0,1-1.17-4.93c0-.11,0-.21,0-.32l-1.68,2.67a3.76,3.76,0,0,0-.86,2.31,15.69,15.69,0,0,1-.29,5c-.14.69-.27,1.15-.27,1.2l-1-.26s.17-.65.33-1.55l-.8-.19a13.61,13.61,0,0,0,.3-1.44,12.13,12.13,0,0,0,0-2.76,3.12,3.12,0,0,1,.29-2.09,86,86,0,0,1,5.94-8.86h0a8.35,8.35,0,0,1,2.36-2.07h0a8.93,8.93,0,0,1,4.66-1.22,9.15,9.15,0,0,1,4.19.95l.49.27a8.47,8.47,0,0,1,3.2,3.4A10.82,10.82,0,0,1,1065,522Z" transform="translate(-790.77 -494.95)"/><polygon class="cls-1" points="258.2 20.7 258.2 20.71 258.19 20.71 258.09 20.63 258.2 20.7"/><path class="cls-2" d="M1024.18,511.65a20.1,20.1,0,0,0-2.67,6.63,4.15,4.15,0,0,1-.75,2.33l-.13.22-2.91,4.48-.86-.55,2-3.13,1-1.54a3.24,3.24,0,0,0,.63-1.94,17.1,17.1,0,0,1,1.81-5.14c.29-.61.63-1.24,1-1.86Z" transform="translate(-790.77 -494.95)"/><path class="cls-1" d="M1038.91,510.35c-1.41,2.14-2.83,4.29-4.26,6.39-1.2,1.79-2.12,4-4,5l0,0c-3.75,1.79-6.15,6.07-8.5,9.17h0a13.56,13.56,0,0,1-4.49,4.09,16.53,16.53,0,0,1-15.54,0,13.78,13.78,0,0,1-5.37-5.39,15.86,15.86,0,0,1-1.9-7.78,16.06,16.06,0,0,1,1.9-7.85,13.64,13.64,0,0,1,5.37-5.36,16.43,16.43,0,0,1,15.49,0,13.66,13.66,0,0,1,4.73,4.4,17.1,17.1,0,0,0-1.81,5.14,3.24,3.24,0,0,1-.63,1.94l-1,1.54a10.38,10.38,0,0,0-1.13-4.79,8.47,8.47,0,0,0-3.2-3.4,9,9,0,0,0-4.68-1.23,8.92,8.92,0,0,0-4.67,1.23,8.47,8.47,0,0,0-3.23,3.4,10.4,10.4,0,0,0-1.17,5,10.24,10.24,0,0,0,1.17,4.94,8.6,8.6,0,0,0,3.23,3.4,9.11,9.11,0,0,0,4.67,1.22,9.23,9.23,0,0,0,4.68-1.22,8.38,8.38,0,0,0,3-3.13h0c1.41-1.82,2.63-4,3.95-5.94a3.6,3.6,0,0,0,.65-1.81,14.21,14.21,0,0,1,1.16-4.42,13.91,13.91,0,0,1,.9-1.76c.25-.44.54-.87.83-1.29,1.72-2.41,3.31-4.93,5-7.41.45-.68.93-1.55,1.87-.88s.43,1.53-.06,2.3l-4.78,7.31c-.33.49-.76,1-.06,1.49s1.09.08,1.48-.51q2.42-3.63,4.88-7.25c.47-.69.95-1.52,1.87-.86s.46,1.54,0,2.31c-1.56,2.32-3.14,4.63-4.69,7-.43.63-1,1.29,0,1.92a1,1,0,0,0,.69.21c.4-.1.61-.59.86-1l3.94-6c.27-.4.54-.79.83-1.16l.3-.39a1.17,1.17,0,0,1,1.18-.49,1.07,1.07,0,0,1,.49.22C1039.48,509.13,1039.3,509.75,1038.91,510.35Z" transform="translate(-790.77 -494.95)"/><path class="cls-1" d="M994.15,522.33" transform="translate(-790.77 -494.95)"/></svg>