<svg id="Livello_1" data-name="Livello 1" xmlns="http://www.w3.org/2000/svg" viewBox="0 0 92.82 99.24"><defs><style>.cls-1{fill:#7a1b45;}.cls-2{fill:#fff;}.cls-3{fill:#ff845c;}.cls-4{fill:#f74542;}.cls-5{fill:#c32d48;}</style></defs><title>milkshake</title><path class="cls-1" d="M941.59,551q-.48-1.25-1-2.46Q941.11,549.76,941.59,551Zm2.28,6.64c-.46-1.37-.92-2.74-1.39-4.11h0c-.2-.64-.42-1.27-.65-1.9.23.63.45,1.26.65,1.9C942.94,554.9,943.4,556.27,943.87,557.64Z" transform="translate(-913.88 -491.39)"/><path d="M1001,495.32c-8.64-6.9-21.38-4.47-28,5.36-2.26,3.38-3,3.59-6.78,1.83-3.31-1.56-5.78-1-7.88,2a15.63,15.63,0,0,0-2.53,9.47c0,2.38-.94,3.47-3.15,3.77-.44.06-.91.42-1.3.07s-.1-.86,0-1.28a49.84,49.84,0,0,0,1.8-5.59c.84-3.64,1.69-7.29,1.09-11.05-.53-3.29-2.68-5-6-5a13.2,13.2,0,0,0-7.57,2.36c-4.5,3-7.43,7.41-10.1,12s-3.14,4.55-6.77.86a4.92,4.92,0,0,1-1.49-4.57,26.17,26.17,0,0,1,2.68-7.7c.92-1.88.34-3.1-1.11-4.21a6.94,6.94,0,0,0-3.43-1.34,2,2,0,0,0-2.4,1.2c-1.73,3.47-3.44,6.94-4,10.82a12.64,12.64,0,0,0,.39,6.56c1.3,3.43,3.79,5.72,6.72,7.68,3.68,2.46,3.74,2.49,2.4,6.83a29.61,29.61,0,0,0-1.3,13.5c1.15,7.42,8,10.5,13,5,.91-1,1.59-.81,2.08.49,1.35,3.55,2.81,7.06,4.13,10.61,3.52,9.45,6.56,19.07,9.32,28.77a6.39,6.39,0,0,0,3.95,4.5c8.41,3.54,16.58,3,23.49-.77,3.73-2.49,6.21-4.42,6-8.19a19.39,19.39,0,0,1,.17-2.74A138.09,138.09,0,0,0,979.82,526a4.15,4.15,0,0,1,.61-4,3.87,3.87,0,0,0-.25-5c-.34-.38-1-.64-.79-1.22s1-.54,1.54-.53a38.22,38.22,0,0,1,10.6,1.89,16.27,16.27,0,0,0,6.41.7c3.36-.33,6.31-1.72,7.7-4.93C1008.17,507,1006,499.33,1001,495.32ZM954.13,518.7c.94-.22,1.14.5,1,1.21a38.7,38.7,0,0,1-1.27,4.09c-.3.8-1,1.71-1.88,1.17-1.13-.66-2.9-1-2.7-2.86a7.87,7.87,0,0,1,1.13-2.43C951.77,519.43,952.93,519,954.13,518.7Zm-38.12-17a36.32,36.32,0,0,1,2.6-6.33c1.09-2.24,2.09-2.54,4.21-1.21a14.42,14.42,0,0,1,1.22,1c.61.61.3,1.21,0,1.82a50,50,0,0,0-2.83,7.29,2.32,2.32,0,0,1-.28.69c-1.63-.3-3.38-.05-4.9-.48C915,504.18,915.75,502.67,916,501.74Zm-.66,5c1-1.36,3-1.56,5.28-.5l.22.11-.27,0a9.71,9.71,0,0,0-4.38,1.34c-.27.19-.55.69-1,.25S915.06,507.14,915.35,506.73Zm.89,2.46a3.28,3.28,0,0,1,2-1.46c.94-.22,2.3-.78,2.72.06.48,1-1.1,1.34-1.61,2.08a18.27,18.27,0,0,1-1.81.85c-.5.17-1,.91-1.55.25S915.85,509.76,916.24,509.19Zm3.15,6.37a16.32,16.32,0,0,1-1.28-1.21c-1.58-1.75-1.56-1.82.44-3l.77-.46a3.74,3.74,0,0,0,.71-.5c1.12-1.13,1.86-.88,2.92.3,2.34,2.64,5.61,4,8.62,5.72,1.8,1,2.08,1.76,1.17,3.61s-1.66,2.14-3.56,1.28A37.88,37.88,0,0,1,919.39,515.56Zm13.44,28.72c-2.6,1.77-5.79,1.17-8.09-2.16-1.7-2.65-1.53-6.43-1.13-10.2a36.19,36.19,0,0,1,1.73-7.65c.82-2.44,1-2.57,3.45-1.76,3.29,1.09,6.13-1.37,5.7-4.87-.17-1.36-1.11-1.81-2.14-2.28-2.74-1.27-2.8-1.5-1.45-4,1.17-2.2,2.66-4.21,3.85-6.37,2.34-4.21,6.39-6.19,10.26-8.33a6,6,0,0,1,6.51.45c1.84,1.31,1.66,3.37,1.62,5.48-.2,9.62-4.41,17.88-8.6,26.14a55,55,0,0,1-5.72,9.48A29.09,29.09,0,0,1,932.83,544.28Zm18-16.52a7.74,7.74,0,0,1-5,1.32c.41-.88.71-1.51,1-2.14,1.45-2.92,1.68-2.93,4.13-.79C951.85,526.91,951.54,527.31,950.84,527.76Zm27.75-.85c.12,1.57,1.58,3,.49,4.67,1.46-.65,1.1.75,1.24,1.26a101.76,101.76,0,0,1,2.33,12.73,148.14,148.14,0,0,1,.23,34.26,6.37,6.37,0,0,1-2.81,4.9c-1.81,1.25-3.44,2.87-5.82,3-4.1,1.2-8.12,2.26-12.53,1-2-.54-4-.69-5.9-1.63a7.16,7.16,0,0,1-4-4.84c-.93-3.31-2-6.59-3-9.88a2.61,2.61,0,0,1,.13-1.72c-.43-.1-.77-.14-1-.73-.45-1.37-.9-2.75-1.36-4.12q-1.38-4.11-2.77-8.22c-.47-1.37-.93-2.74-1.39-4.11-.2-.64-.42-1.27-.65-1.9l-.24-.63q-.48-1.25-1-2.46c-.71-1.63-1.46-3.25-2.18-4.88-1.13-2.61.72-4.84,3.61-5a61.31,61.31,0,0,0,11.94-2,65.54,65.54,0,0,0,22.79-10.36C977.78,525.54,978.49,525.57,978.59,526.91Zm1.06-8.1c.68,1.58-.34,2.75-1.22,3.89-3.13,4-7.49,6.26-12,8.21a87.17,87.17,0,0,1-13.09,4.5,62.61,62.61,0,0,1-10.81,1.74c-1.06.07-1.15-.31-.76-1.11a3.53,3.53,0,0,1,2.92-2.24A73.84,73.84,0,0,0,962,529.25,49,49,0,0,0,974,523a11.31,11.31,0,0,0,1.92-1.93c1.28-1.6,1.67-3.07-.63-4.69C977.49,516.57,978.94,517.14,979.65,518.81Zm-6.22,2.93c-.59-1.19-.1-2.15.28-3.09.23-.57.61-1.1,1.33-.75a1.15,1.15,0,0,1,.59,1.5A4.33,4.33,0,0,1,973.43,521.74Zm30.21-21c1,2.67,1.85,5.25.91,8.25-.4,1.26-.3,2.6-1,4-1.14,2.06-2.83,2.76-4.84,3.22-2.63.6-5.18,0-7.66-.76A32.34,32.34,0,0,0,978.49,514c-4,.38-6.77,3.06-6.87,7.17a3.8,3.8,0,0,1-2.42,3.68,142.65,142.65,0,0,1-17.52,6.58,16.18,16.18,0,0,1-3.78.45c.2-1.29,1.08-1.66,2-2a9.59,9.59,0,0,0,4.88-4c1.41-2.55,1.84-5.48,2.61-8.28.51-1.82,0-3.46,0-5.16a8.19,8.19,0,0,1,2.56-6.41,6.78,6.78,0,0,0,.86-1.05c-.42.26-.85.51-1.38.82,1.08-2.31,2.66-3.09,4.9-2.49a7.72,7.72,0,0,1,1.29.48c4.49,2.05,5.75,1.66,8.71-2.37,4.53-6.16,10.46-9.51,18.26-8.33C997.44,493.71,1001.38,496.12,1003.64,500.75Z" transform="translate(-913.88 -491.39)"/><path d="M987.21,529.88a1.35,1.35,0,0,0-1,2.37c1.71,1.33,2.43,3.13,3.26,5A3.73,3.73,0,0,0,995,538.8c2-1.21,2.41-3.25.82-5.58A11.14,11.14,0,0,0,987.21,529.88Zm7.72,7v.1a.22.22,0,0,1,0,.08.45.45,0,0,1-.08.22c-2,1.18-3,1-4.13-1-.75-1.27-1.07-2.78-2.24-3.81-.24-.2-.5-.54-.09-.75.24-.12.62,0,.93.08.34-.17.64-.18.86.19h0a.86.86,0,0,1,1.06.2h0a5.13,5.13,0,0,1,3.76,2.5A1.5,1.5,0,0,1,994.93,536.84Z" transform="translate(-913.88 -491.39)"/><path d="M991.17,523.65c-1.34.68-1.5,1.87-.28,2.73a10.37,10.37,0,0,0,4.49,1.79,1.73,1.73,0,0,0,1.91-.65,1.84,1.84,0,0,0-.18-2.18C996.08,523.73,992.84,522.81,991.17,523.65Zm5,3.14c-.57.43-3.83-.53-4.15-1.24a.59.59,0,0,1,.66-.87,8.69,8.69,0,0,1,3.46,1.15A.53.53,0,0,1,996.16,526.79Z" transform="translate(-913.88 -491.39)"/><path class="cls-2" d="M1003.64,500.75c1,2.67,1.85,5.25.91,8.25-.4,1.26-.3,2.6-1,4-1.14,2.06-2.83,2.76-4.84,3.22-2.63.6-5.18,0-7.66-.76A32.34,32.34,0,0,0,978.49,514c-4,.38-6.77,3.06-6.87,7.17a3.8,3.8,0,0,1-2.42,3.68,142.65,142.65,0,0,1-17.52,6.58,16.18,16.18,0,0,1-3.78.45c.2-1.29,1.08-1.66,2-2a9.59,9.59,0,0,0,4.88-4c1.41-2.55,1.84-5.48,2.61-8.28.51-1.82,0-3.46,0-5.16a8.19,8.19,0,0,1,2.56-6.41,6.78,6.78,0,0,0,.86-1.05c-.42.26-.85.51-1.38.82,1.08-2.31,2.66-3.09,4.9-2.49a7.72,7.72,0,0,1,1.29.48c4.49,2.05,5.75,1.66,8.71-2.37,4.53-6.16,10.46-9.51,18.26-8.33C997.44,493.71,1001.38,496.12,1003.64,500.75Z" transform="translate(-913.88 -491.39)"/><path class="cls-2" d="M980.32,532.84a101.76,101.76,0,0,1,2.33,12.73,148.14,148.14,0,0,1,.23,34.26,6.37,6.37,0,0,1-2.81,4.9c-1.81,1.25-3.44,2.87-5.82,3,1.66-1.16,3.29-2.37,5-3.45a4.85,4.85,0,0,0,2.19-3.32c1-5.08.88-10.26,1.1-15.41,0-.44,0-1-.67-1a3.3,3.3,0,0,0-2.81,2.95,8.3,8.3,0,0,1-2.15,6.29c-1.25,1.28-2.64,1.09-3.59-.41a7.11,7.11,0,0,1-1-3.36c-.09-1.35-.41-1.75-1.88-1.33a50,50,0,0,1-16.43,2,18.24,18.24,0,0,0-5.06-.06c-.43-.1-.77-.14-1-.73-.45-1.37-.9-2.75-1.36-4.12q-1.38-4.11-2.77-8.22c-.46-1.37-.92-2.74-1.39-4.11a12.46,12.46,0,0,1,1.37.05,57.73,57.73,0,0,0,25.77-2.44,36,36,0,0,0,9.07-4.15c.51-.34,1.44-.62,1.12-1.39a7.9,7.9,0,0,1,.47-7.49,1.47,1.47,0,0,0,0-1c-.39-1.85-.8-3.7-1.19-5.56C980.54,530.93,980.18,532.33,980.32,532.84Z" transform="translate(-913.88 -491.39)"/><path class="cls-3" d="M942.48,553.53h0c.47,1.37.93,2.74,1.39,4.11-.47-1.37-.93-2.74-1.39-4.11Z" transform="translate(-913.88 -491.39)"/><path class="cls-2" d="M951.52,497.08a6,6,0,0,0-6.51-.45c-3.87,2.14-7.92,4.12-10.26,8.33-1.19,2.16-2.68,4.17-3.85,6.37-1.35,2.53-1.29,2.76,1.45,4,1,.47,2,.92,2.14,2.28.43,3.5-2.41,6-5.7,4.87-2.42-.81-2.63-.68-3.45,1.76a36.19,36.19,0,0,0-1.73,7.65c-.4,3.77-.57,7.55,1.13,10.2,2.3,3.33,5.49,3.93,8.09,2.16a29.09,29.09,0,0,0,6-6.1,55,55,0,0,0,5.72-9.48c4.19-8.26,8.4-16.52,8.6-26.14C953.18,500.45,953.36,498.39,951.52,497.08Zm-11.6,3.9c.35-.93,2.81-1.48,4.21-.5a4.45,4.45,0,0,0-3.28,1.11c-.24.17-.56.46-.84.1A.88.88,0,0,1,939.92,501Zm-8,11.94a40,40,0,0,1,5.56-9,.77.77,0,0,1,.67-.21c.38.16.34.55.12.82a44.13,44.13,0,0,0-5.27,8.71,1.48,1.48,0,0,1-.25.31c-.22.18-.5.27-.68,0A.79.79,0,0,1,932,512.92Zm12.77-11.6a12.82,12.82,0,0,1-.18,3.71,65.47,65.47,0,0,1-4.65,14.55c-2.45,5.87-6.27,10.9-10.33,15.72-.83,1-2,2-3.59,1.24s-1.17-2.16-1.26-3.41c0-.38,0-.87.5-.94s.7.46.87.87a1.26,1.26,0,0,1,0,.39c0,.61-.52,1.42.28,1.77s1.3-.39,2.12-.94c3.63-3.31,6.32-7.65,8.7-12.18a61.4,61.4,0,0,0,6.11-17.2,29.3,29.3,0,0,0,.25-3.52c0-.41.13-.82.62-.8S944.68,501,944.73,501.32Z" transform="translate(-913.88 -491.39)"/><path class="cls-4" d="M978.59,526.91c.12,1.57,1.58,3,.49,4.67.39,1.86,1.53,3.56,1.92,5.42.07.32-.07,1.73,0,2,.72,2.89,1,2,1,5,0,.84-2.8,2.65-3.31,3a36,36,0,0,1-9.07,4.15,57.73,57.73,0,0,1-25.77,2.44,12.46,12.46,0,0,0-1.37-.05h0c-.2-.64-.42-1.27-.65-1.9l-.24-.63q-.48-1.25-1-2.46c-.71-1.63-1.46-3.25-2.18-4.88-1.13-2.61.72-4.84,3.61-5a61.31,61.31,0,0,0,11.94-2,65.54,65.54,0,0,0,22.79-10.36C977.78,525.54,978.49,525.57,978.59,526.91Z" transform="translate(-913.88 -491.39)"/><path class="cls-5" d="M941.83,551.63c.23.63.45,1.26.65,1.9h0C942.28,552.89,942.06,552.26,941.83,551.63Z" transform="translate(-913.88 -491.39)"/><path class="cls-5" d="M940.57,548.54q.54,1.22,1,2.46Q941.11,549.75,940.57,548.54Z" transform="translate(-913.88 -491.39)"/><path class="cls-4" d="M981.87,564.6c.69,0,.69.53.67,1-.22,5.15-.14,10.33-1.1,15.41a4.85,4.85,0,0,1-2.19,3.32c-1.71,1.08-3.34,2.29-5,3.45-4.1,1.2-8.12,2.26-12.53,1-2-.54-4-.69-5.9-1.63a7.16,7.16,0,0,1-4-4.84c-.93-3.31-2-6.59-3-9.88a2.61,2.61,0,0,1,.13-1.72,18.24,18.24,0,0,1,5.06.06,50,50,0,0,0,16.43-2" transform="translate(-913.88 -491.39)"/><path class="cls-4" d="M979.65,518.81c.68,1.58-.34,2.75-1.22,3.89-3.13,4-7.49,6.26-12,8.21a87.17,87.17,0,0,1-13.09,4.5,62.61,62.61,0,0,1-10.81,1.74c-1.06.07-1.15-.31-.76-1.11a3.53,3.53,0,0,1,2.92-2.24A73.84,73.84,0,0,0,962,529.25,49,49,0,0,0,974,523a11.31,11.31,0,0,0,1.92-1.93c1.28-1.6,1.67-3.07-.63-4.69C977.49,516.57,978.94,517.14,979.65,518.81Z" transform="translate(-913.88 -491.39)"/><path class="cls-2" d="M932.74,520c-.93,1.86-1.66,2.14-3.56,1.28a37.88,37.88,0,0,1-9.79-5.73,16.32,16.32,0,0,1-1.28-1.21c-1.58-1.75-1.56-1.82.44-3l.77-.46a3.74,3.74,0,0,0,.71-.5c1.12-1.13,1.86-.88,2.92.3,2.34,2.64,5.61,4,8.62,5.72C933.37,517.41,933.65,518.16,932.74,520Z" transform="translate(-913.88 -491.39)"/><path class="cls-2" d="M924.08,497a50,50,0,0,0-2.83,7.29,2.32,2.32,0,0,1-.28.69c-1.63-.3-3.38-.05-4.9-.48-1.11-.31-.32-1.82-.06-2.75a36.32,36.32,0,0,1,2.6-6.33c1.09-2.24,2.09-2.54,4.21-1.21a14.42,14.42,0,0,1,1.22,1C924.65,495.78,924.34,496.38,924.08,497Z" transform="translate(-913.88 -491.39)"/><path class="cls-4" d="M955.09,519.91a38.7,38.7,0,0,1-1.27,4.09c-.3.8-1,1.71-1.88,1.17-1.13-.66-2.9-1-2.7-2.86a7.87,7.87,0,0,1,1.13-2.43c1.4-.45,2.56-.91,3.76-1.18C955.07,518.48,955.27,519.2,955.09,519.91Z" transform="translate(-913.88 -491.39)"/><path class="cls-2" d="M950.84,527.76a7.74,7.74,0,0,1-5,1.32c.41-.88.71-1.51,1-2.14,1.45-2.92,1.68-2.93,4.13-.79C951.85,526.91,951.54,527.31,950.84,527.76Z" transform="translate(-913.88 -491.39)"/><path class="cls-2" d="M921,507.79c.48,1-1.1,1.34-1.61,2.08a18.27,18.27,0,0,1-1.81.85c-.5.17-1,.91-1.55.25s-.15-1.21.24-1.78a3.28,3.28,0,0,1,2-1.46C919.19,507.51,920.55,507,921,507.79Z" transform="translate(-913.88 -491.39)"/><path class="cls-2" d="M920.63,506.23l0,.14a9.71,9.71,0,0,0-4.38,1.34c-.27.19-.55.69-1,.25s-.19-.82.1-1.23C916.33,505.37,918.39,505.17,920.63,506.23Z" transform="translate(-913.88 -491.39)"/><path class="cls-4" d="M975.63,519.4a4.33,4.33,0,0,1-2.2,2.34c-.59-1.19-.1-2.15.28-3.09.23-.57.61-1.1,1.33-.75A1.15,1.15,0,0,1,975.63,519.4Z" transform="translate(-913.88 -491.39)"/><path class="cls-3" d="M920.85,506.34l-.27,0,0-.14Z" transform="translate(-913.88 -491.39)"/><path class="cls-4" d="M995.05,534.72a1.5,1.5,0,0,1-.12,2.12v.1a.22.22,0,0,1,0,.08.58.58,0,0,1-.08.22c-2,1.18-3,1-4.13-1-.75-1.27-1.07-2.78-2.24-3.81-.24-.2-.5-.54-.09-.75.24-.12.62,0,.93.08.34-.17.64-.18.86.19h0a.86.86,0,0,1,1.06.2h0A5.13,5.13,0,0,1,995.05,534.72Z" transform="translate(-913.88 -491.39)"/><path class="cls-3" d="M994.91,537a.45.45,0,0,1-.08.22A.58.58,0,0,0,994.91,537Z" transform="translate(-913.88 -491.39)"/><path class="cls-4" d="M996.16,526.79c-.57.43-3.83-.53-4.15-1.24a.59.59,0,0,1,.66-.87,8.69,8.69,0,0,1,3.46,1.15A.53.53,0,0,1,996.16,526.79Z" transform="translate(-913.88 -491.39)"/><path d="M944.73,501.32a12.82,12.82,0,0,1-.18,3.71,65.47,65.47,0,0,1-4.65,14.55c-2.45,5.87-6.27,10.9-10.33,15.72-.83,1-2,2-3.59,1.24s-1.17-2.16-1.26-3.41c0-.38,0-.87.5-.94s.7.46.87.87a1.26,1.26,0,0,1,0,.39c0,.61-.52,1.42.28,1.77s1.3-.39,2.12-.94c3.63-3.31,6.32-7.65,8.7-12.18a61.4,61.4,0,0,0,6.11-17.2,29.3,29.3,0,0,0,.25-3.52c0-.41.13-.82.62-.8S944.68,501,944.73,501.32Z" transform="translate(-913.88 -491.39)"/><path d="M938.31,504.55a44.13,44.13,0,0,0-5.27,8.71,1.48,1.48,0,0,1-.25.31c-.22.18-.5.27-.68,0a.79.79,0,0,1-.15-.69,40,40,0,0,1,5.56-9,.77.77,0,0,1,.67-.21C938.57,503.89,938.53,504.28,938.31,504.55Z" transform="translate(-913.88 -491.39)"/><path d="M944.13,500.48a4.45,4.45,0,0,0-3.28,1.11c-.24.17-.56.46-.84.1a.88.88,0,0,1-.09-.71C940.27,500.05,942.73,499.5,944.13,500.48Z" transform="translate(-913.88 -491.39)"/></svg>