<?xml version="1.0" encoding="utf-8"?>
<!-- Generator: Adobe Illustrator 23.0.1, SVG Export Plug-In . SVG Version: 6.00 Build 0)  -->
<svg version="1.1" id="Livello_1" xmlns="http://www.w3.org/2000/svg" xmlns:xlink="http://www.w3.org/1999/xlink" x="0px" y="0px"
	 viewBox="0 0 1899.1 1088.8" style="enable-background:new 0 0 1899.1 1088.8;" xml:space="preserve">
<style type="text/css">
	.st0{fill:#F2B890;}
	.st1{fill:#1E1B1C;}
	.st2{fill:#FF6300;}
	.st3{fill:none;}
	.st4{fill:#FEFEFD;}
	.st5{fill:#FDB301;}
	.st6{fill:#F09D42;}
	.st7{fill:#F74542;}
	.st8{fill:#FCEBE8;}
	.st9{fill:#E1726F;}
	.st10{fill:#EF9C5C;}
	.st11{fill:#FFFFFF;}
</style>
<title>ominilogin</title>
<path class="st0" d="M148.5,343l-0.2,0.1c0.3,0.1,0.6,0.3,0.3,0.6l0,0C149.1,343.5,148.8,343.3,148.5,343z M159,330.3L159,330.3
	c0.4,0.4,0.6,0.8,0.2,1.1l-0.1,0.1c0.1,0,0.2,0,0.3-0.1C159.8,331.1,159.5,330.5,159,330.3z M176.6,349.7c-2.7,4.3-3.3,9.5-1.7,14.3
	v0.8c-0.1,0.3-0.2,0.5-0.2,0.8h0.1c0.1-0.3,0.2-0.6,0.3-0.9v-0.8C173.5,359.2,174,354,176.6,349.7L176.6,349.7z M190.2,367.2
	c-0.2,0-0.3,0.1-0.4,0.3c0.2-0.1,0.4-0.2,0.5-0.1c0-0.1,0-0.1,0.1-0.2L190.2,367.2L190.2,367.2z M239.6,488.1L239.6,488.1z"/>
<path class="st0" d="M253.7,453.5L253.7,453.5l-1.6-0.7c-7.3-3.4-14.4-6.5-20.6-9.1l-0.9-0.5c-1.2-0.5-2.5-1-3.6-1.5
	c-4.1-1.6-7.4-3-10.2-4c-0.3,0-0.5-0.2-0.8-0.2c-1.6-0.5-4.9-2.1-6.8-8.4c-0.9-2.9-3.6-10.4-6.6-19c-0.1-0.2-0.1-0.3-0.2-0.5
	c-0.2-0.6-0.4-1.3-0.6-1.8s-0.4-1.1-0.5-1.4l-0.3-0.9c-5.1-14.2-10.6-29.2-10.6-29.4c0-0.2-1.8-4.4-1-7.4c0-0.1,0-0.2,0.1-0.3
	c0.1-0.3,0.2-0.6,0.3-0.9c0-0.1,0-0.1,0.1-0.2l0,0h0.1c0,0,0,0,0-0.1 M190,367.4L190,367.4c0.1-0.1,0.2-0.2,0.4-0.2h0.2
	c0.1-0.5,0.3-0.9,0.6-1.3c0.7-2,0.8-4.2,0.2-6.3c-1.6-9.9-3.4-19.6-5.3-29.4c-0.5-2.1,0-6-2.9-5.7s-2.3,4.2-2.8,6.7
	c0,0.6,0,1.3,0.2,1.9c0.5,3.5,0.3,7-0.6,10.4c0.3,0.5,0.3,1,0.2,1.5c0,0.1-0.1,0.3-0.1,0.4s0,0.2-0.1,0.2c-0.1,0.3-0.2,0.5-0.4,0.7
	c-1,1-1.9,2.1-2.7,3.3c-2.6,4.3-3.1,9.5-1.5,14.2v0.8c-0.1,0.3-0.2,0.6-0.3,0.9H175l0,0c0,0.1,0,0.1-0.1,0.2h-0.1l0,0
	c-2-0.9-2.2-3.1-2.5-4.9c-0.7-4.6,0.5-9.3,3.2-13v-0.1l0.1-0.1l0.2-0.2l0.2-0.2l0.1-0.1l0,0c0.1-0.1,0.2-0.2,0.3-0.3l0,0l0.2-0.2
	c0.6-0.6,1.1-1.4,1.2-2.2c0-0.1,0-0.1,0-0.2c-4.1-5.5-7.8-11.2-11.5-16.9c-3.4-5-7-15.7-10.5-20.8c-0.8-1.1-2.1-2.6-3.7-1.6
	c-1.6,1-0.5,2.1-0.2,3.6c0.3,0.9,0.7,1.8,1.1,2.6l5.8,19h0.2c0.4,0.2,0.7,0.6,0.5,0.9l0,0c0,0.1-0.1,0.1-0.2,0.1l0,0
	c-0.1,0.1-0.2,0.1-0.3,0.1c-0.3,0.1-0.4-0.3-0.6-0.6c0-0.1-0.1-0.2-0.1-0.3c-1.8-0.9-2.6-2.8-3.7-4.2c-3.6-4.5-7.1-14.8-10.6-19.5
	c-0.7-1.2-2.2-1.8-3.6-1.5c-1.6,0.5-1.9,1.6-1.5,3.1c0.3,0.9-0.2,1.5-1.1,1.8c-2.3,0.9-1.8,2.6-0.9,4.4l3.4,12.5
	c2.6,5.4,6.3,10.4,8.1,16.1l0.2-0.2c0.3,0.3,0.6,0.5,0.3,0.8l0,0l0,0c0,0.1-0.1,0.1-0.1,0.1s0,0,0,0.1l-0.5-0.5
	c-4.2-2.4-7.1-6.5-10.9-9.7c-1.6-1.5-3.9-4-5.7-2.6c-2.1,1.6,0.3,4.2,1.6,5.8c9.7,13.2,19.3,26.7,29.7,39.5c1.2,1.6,2.1,3.4,2.6,5.4
	c4.9,20,9.7,39.9,14.4,59.9c1.9,8.1,5.5,14.9,12.3,19.8c0.9,0.2,1.8,0.8,2.3,1.6c8.8,4.1,16.7,9.4,25,14.1c3.7,2.2,8.9,4.2,12,7.6
	l0.3,0.3c2.9-0.1,4.9,2.6,7.7,3.1h0.1h0.2v-0.3l0.2-0.2c3.4-2.6,4.7-6.4,6.4-9.9c2.1-4.4,3.7-9.1,5.5-13.8l0.5-1.5
	c0.3-2.4,0.8-5,1.1-7.5c0-0.5,0.1-1,0.3-1.4L190,367.4z M166.6,339.4c-5.7,2.6-10.4,6.8-13.6,12.1c-0.5,0.4-1,0.6-1.6,0.8
	c0-3.4,2.1-5,3.9-7c2.8-3.4,6.5-6.1,10.6-7.8c0.6-0.2,1.3-0.5,1.8,0.3C168.2,338.6,167.3,339.1,166.6,339.4z"/>
<path class="st1" d="M311.7,433.5v0.3c-0.1,0.1-0.2,0.1-0.3,0.2l0,0l0.1-0.1L311.7,433.5z"/>
<path class="st0" d="M311.3,1022.2v1.5c-9.1,3.9-18.7,4.5-28.4,4.5c-0.2-0.2-0.6-0.2-0.8,0l-3.1-0.3h-0.2c-2.6-4.1-2.6-8.9-3.6-13.5
	c-2.8-13-5.2-27.4-7-40.6l0.1,0.8c0.7-0.3,1.1-0.5,1.8-0.8c11-6.8,23.4-9.3,36-11.7h0.1c0.8,2,2,4.7,2,6.6l0,0v0.3
	c1.1,13.9,1.9,27.8,3.1,41.6C310.8,1014.5,311.2,1018.3,311.3,1022.2L311.3,1022.2z"/>
<path class="st2" d="M334.1,1058.3"/>
<path class="st2" d="M332.4,1057.8"/>
<path class="st2" d="M368.8,1059.3l-16.7-5.4c1.1,0,2.1,0.3,3.1,0.8C359.7,1056.2,364.2,1057.6,368.8,1059.3z"/>
<path class="st3" d="M376.9,1061.9l-4.4-1.5c1,0.1,2.1,0.2,3.1,0.2C376,1061.1,376.4,1061.6,376.9,1061.9z"/>
<path class="st2" d="M382.1,1071.8"/>
<path class="st4" d="M382.1,1071.9"/>
<path class="st5" d="M348.7,1055.5l-1.8,3.1L348.7,1055.5z M343.1,1054.7c0,0.3-0.2,0.5-0.2,0.8
	C343.1,1055.3,343.1,1055,343.1,1054.7z"/>
<path class="st5" d="M351.9,1053.9c-0.5-0.7-0.9-1.5-1.6-1.1c-0.4,0.3-0.6,0.7-0.8,1.1l0,0l-0.8,1.6l0,0l-1.8,3.1
	c0,0-4.5,0.7-4.1-3.2c0-0.3,0.2-0.5,0.2-0.8c1.3-1.8,4.2-4.1-0.8-4.7l0,0c-0.2,0-0.2-0.2-0.3-0.2c-0.5-0.4-1-0.7-1.6-0.8l0,0
	c-0.5,0-1,0.3-1.1,0.8h0.2c-0.8,1.1-1.4,2.3-1.9,3.6c0,0.1-0.1,0.2-0.2,0.3c-0.1,0.1-0.2,0.3-0.2,0.5c-0.8,1.5-1.8,2.4-3.9,1.5
	c-2.8-1.3-0.8-2.9-0.3-4.4c0.6-1.9,3.1-4-0.9-5.2h-0.2c-1.4-0.5-2.9,0.2-3.4,1.6c-0.8,1.5-1.5,2.8-2.3,4.4s-2.3,1.3-3.6,0.8
	c-1.6-0.6-1.1-1.9-0.7-3.1c0.5-1.1,1-2.2,1.6-3.2c0.8-1.3,1.5-2.6-0.5-3.7c-1.1-0.6-0.9-1.9-1.1-2.9s1.9-2.3,2.6-1.8
	c0.4,0.3,0.8,0.6,1.3,0.8l-8.5-6.3c0.2,0.6-0.2,1.3-1.3,1.9c-3.1,2-5.2,5.2-5.7,8.9c-0.3,2.6-1.6,3.1-3.9,1.9
	c-7.8-3.7-16.4-5.5-25-5.4c-1.9,2.1-1.1,5.2-2.1,7.6v0.2c13.6,2.8,27.7,2.6,41.2,6.8l0,0l0.8,0.3c2.7,1.1,5.5,2,8.4,2.6l17.4,5.2
	c0.9,0.3,1.8-0.1,2.2-1v-0.1l0,0v-0.1L351.9,1053.9L351.9,1053.9z"/>
<path class="st6" d="M332.4,1057.8"/>
<path class="st2" d="M351.3,1041.7c-8.5,3-18,1.9-25.6-2.9l-8.4-6.3l0,0c-0.2-0.7-0.6-1.3-1.1-1.8c-2-2-3.6-4.4-4.7-7v-1.3
	c-0.2-1.2-0.3-2.4-0.3-3.6v-0.3c0-0.3-0.2-0.8-0.2-1.3c-0.1-0.8-0.2-1.5-0.2-2.3c-0.1-1.5,0-3,0.3-4.4c-1.1-14-2.3-27.7-3.4-41.7
	c1.9-0.3,3.7,0.8,5.5,0.8c0.8,0,1.5,0.1,2.3,0.3c1.6,0.7,2.4,1.8,3.2,3.7c0.2,0.3,0.3,0.8,0.5,1.1c3.2,9.6,6.8,19.1,10.1,28.6
	c1.6,4.5,2.4,6.8,4.1,7.5c1.5,0.6,3.7,0,7.9-1.1c2.1,0.3,1.8,2.1,1.9,3.6c3.6,7.5,7.1,15.1,10.9,22.6
	C355.8,1039.5,354.5,1040.8,351.3,1041.7z"/>
<path class="st4" d="M317.2,1032.5c0.2,0.6-0.3,1.3-1.3,1.9c-3.1,2-5.2,5.2-5.7,8.9c-0.3,2.6-1.6,3.1-3.7,1.9
	c-7.8-3.7-16.4-5.5-25-5.4c-1.2-3.9-2-8-2.4-12.1l3.2,0.3h0.8c9.7,0,19.3-0.5,28.4-4.5c1.1,2.6,2.7,5,4.7,7
	C316.6,1031.2,316.9,1031.8,317.2,1032.5z"/>
<path class="st7" d="M267.5,962.4L267.5,962.4l-0.1,0.1h-0.2l0.1,0.1l-0.1,0.1h0.1l-0.5,0.8v0.1l-0.2,0.2c-1.6-0.2-3.2-0.2-4.9-0.3
	c-8.4-0.9-11-3.2-12.3-11.5c-1.1-6-2.7-13.7-3-19.9c2.3,2.2,5.3,3.7,8.4,4.3l0.8,0.3c2.3,0.2,4.4,0.5,6.7,0.7
	c1.5,0.2,2.9,0.5,2.9,2.4v4.8c0,2.5,0.4,5,1.3,7.4c0.5,2.8,0,5.5,0.9,8.1l0.2,1.8C267.6,962.1,267.6,962.3,267.5,962.4L267.5,962.4z
	"/>
<path class="st7" d="M267.4,962.7L267.4,962.7l-0.6,0.9v-0.1L267.4,962.7L267.4,962.7L267.4,962.7z"/>
<polygon class="st7" points="267.5,962.6 267.4,962.6 267.5,962.4 "/>
<path class="st5" d="M294.3,1082.3c-6.7-0.2-13.5-0.2-20.1-0.2c0.6-8,2-15.9,4.1-23.7c1.9,0.3,3.7,0.8,5.5,1.5
	c0.5,0.2,1.1,0.5,1.6,0.7l0.9,0.5c0.3,0.1,0.6,0.3,0.8,0.5c1.4,0.7,2.7,1.6,3.9,2.6c0.2,0.2,0.5,0.3,0.6,0.6c1.1,1,2.1,2.1,2.9,3.4
	c0.3,0.3,0.5,0.7,0.7,1.1c0.2,0.3,0.3,0.5,0.5,0.8c0,0.2,0.2,0.2,0.2,0.3c0.3,0.7,0.6,1.4,0.8,2.1c0.2,0.3,0.3,0.7,0.3,1.1
	c0.1,0.4,0.2,0.7,0.3,1.1c0.2,0.3,0.1,0.5,0.2,0.8v0.7c0,0.3,0.2,0.6,0.2,0.9c0,0.5,0.2,0.8,0.2,1.3
	C297.9,1081.3,297.2,1082.5,294.3,1082.3z"/>
<path class="st6" d="M296.3,1071.6c0.1,0.2,0.2,0.5,0.3,0.8c-0.3-0.6-0.5-1.5-0.8-2.1c0-0.1-0.1-0.2-0.2-0.3c0,0.2,0.2,0.2,0.2,0.3
	s0.2,0.3,0.2,0.5S296.3,1071.3,296.3,1071.6z"/>
<path class="st6" d="M297.9,1078.6c0.2,2.9-0.7,3.9-3.6,3.7c-6.7-0.2-13.5-0.2-20.3-0.2l0,0c6.7,0,13.5,0,20.1,0.2
	C297.2,1082.5,297.9,1081.4,297.9,1078.6c0-0.5-0.2-0.9-0.2-1.3c0-0.3,0-0.6-0.2-0.9v-0.7c0-0.3-0.1-0.5-0.2-0.8
	c0-0.4-0.1-0.8-0.3-1.1c-0.1-0.4-0.2-0.7-0.3-1.1c0.2,0.2,0.2,0.3,0.2,0.6c0.2,0.3,0.2,0.7,0.3,0.8s0.2,0.3,0.2,0.5
	C297.5,1075.8,297.7,1077.1,297.9,1078.6z"/>
<path d="M179.8,345.1c0,0.1-0.1,0.3-0.1,0.4s0,0.2-0.1,0.2c-0.1,0.3-0.2,0.5-0.4,0.7c-1,1-1.9,2.1-2.7,3.3
	c-2.6,4.3-3.1,9.5-1.5,14.2v0.8c-0.1,0.3-0.2,0.6-0.3,0.9h-0.1c-2-1-2.2-3.1-2.5-4.8c-0.7-4.6,0.5-9.3,3.2-13
	c0.1-0.1,0.2-0.3,0.3-0.4s0.2-0.3,0.4-0.4l0.2-0.2c0.7-0.7,1.2-1.6,1.4-2.5l1.9-0.7C179.9,344,180,344.6,179.8,345.1z"/>
<path class="st7" d="M309,752.6c0,0.3,0,0.6,0,0.9c0,0.6,0,1.2-0.1,1.9v0.2c0,0.3,0,0.6,0,1c0.1-1.9,0.2-3.7,0.2-5.6L309,752.6z
	 M318.6,906.6c-0.4-7.4-0.8-14.8-1.3-22.2c-0.6-10.8-1.2-21.7-1.9-32.6c-0.9-14.9-1.8-29.9-2.6-44.9c-0.8-13.3-1.6-26.4-2.4-39.6
	c-0.2-0.6-0.3-1.1-0.4-1.7c0-0.1,0-0.2,0-0.3V765c-0.1,0-0.1-0.1-0.2-0.1v0.3c0,0.1,0,0.2,0,0.3c0.8,13.1,1.6,26,2.4,39
	c0.9,15.3,1.8,30.6,2.6,45.9c0.6,10.8,1.3,21.7,1.9,32.6c0.5,7.9,1,15.9,1.5,23.7c0,0.1,0,0.1,0,0.2h0.4
	C318.6,906.8,318.6,906.8,318.6,906.6L318.6,906.6z M329.7,760.2v0.5c0,0.8,0,1.6-0.1,2.4v0.2c0,0.2,0,0.4,0,0.5
	c0-0.2,0.1-0.4,0.1-0.6s0.1-0.3,0.1-0.5s0-0.3,0-0.5C329.9,761.7,329.9,760.9,329.7,760.2z M341.2,622.4c0.1-0.1,0.1-0.2,0.1-0.4
	L341.2,622.4z M318.1,907.1H318v7c0.1,0,0.1,0.1,0.2,0.2v-6.2C318.2,907.7,318.1,907.4,318.1,907.1z M318.6,907.1h-0.2l0.1,6.5v0.3
	c0,0.1,0.1,0.3,0.1,0.4v-5.9h0.1C318.7,908,318.7,907.6,318.6,907.1z"/>
<path class="st7" d="M399.9,843.3v0.3c-0.3,2.2-0.6,4.4-0.9,6.7l-0.3,2.3l-0.3,0.5l0.2,0.2c0,0.1-0.1,0.2-0.1,0.3v0.2
	c-0.3,1.3-0.4,2.7-0.7,4.2c-0.2,0.9-0.3,1.9-0.5,2.9v0.3c-0.2,0.9-0.3,1.9-0.5,2.9l-0.2,0.6c-0.6,3.6-1.5,7.5-2.4,11.5l-0.4,1
	c-6,10.1-15.2,14.3-26.8,11.8c-13.1-2.6-22-10.4-28.3-21.5c-0.1-0.1-1.1-1.3-0.3-1.3c4-8.4,8.1-16.5,12.5-24.9
	c0.6-1.1,1-2.4,0.9-3.7c0.1-1,0-2-0.4-3c-2.7-7.7-5.9-15.5-9.2-23.3l0,0c-1.1-2.7-2.2-5.3-3.4-8c-4.2-9.8-8.3-19.7-11.8-29.5
	c0-0.1-0.1-0.2-0.1-0.4c-0.1-0.4-0.3-0.7-0.4-1.1c-0.5-1.4,2.9-2.3,1.9-3.5c0,0-1.9-2.4-0.6-2.5c0.2-1.1,0.8-1.1,1-2.2
	c0-0.1,0.1-0.2,0.3-0.3c-0.5-0.3-1.2-0.5-1.2-0.8c0.1-0.9,1.3-1.7,1.1-2.6l-0.2-0.2c0-0.2-0.4-0.4-0.4-0.6
	c-0.1-6.6-3.7-14.1-8.3-25.6c-3.3-7.8-3.6-17-5.3-25.4c-0.3-1.4-0.6-2.7-0.9-4.1c-1.6-6.3-1.9-9.7-1.9-11.3v-2.1
	c0.2-4.9,0.1-9.8,0.1-14.8v-4.6c0.1-0.3,0.1-0.6,0.1-0.9c0-0.5-0.2-0.9-1-1c-0.2,0-0.5,0-0.7,0.1l0,0c-0.7,0.3-0.8,1.2-0.8,1.8v6.4
	c0,2.7-0.1,5.5-0.2,8.2v5.5c0,2.3,0.1,4.7,0.4,7v2.8c0,2.1-0.1,4.2-0.1,6.3v2.1c-0.2,1.3-0.3,2.6-0.5,3.9v0.2
	c-0.7,6.5-0.6,13,0.2,19.5v0.4c-0.2,3.7-0.3,7.3-0.3,10.9v2.6c-0.1,3-0.3,6-0.3,9v2c0,2.2,0.3,4.5,0.8,6.7c0,0,0,0,0,0.1
	c0,0,0,0,0,0.1s0,0.2,0,0.3c0.8,13.1,1.6,26,2.4,39c0.9,15.3,1.8,30.6,2.6,45.9c0.6,10.8,1.2,21.7,1.9,32.6c0.5,7.9,1,15.9,1.5,23.7
	c0,0.1,0,0.1,0,0.2h0.4v0.2h-0.1l0.1,6.6v0.2l0,0l-0.1-0.1c-0.1-0.1-0.2-0.2-0.3-0.3v-5.5c0-0.3,0-0.7-0.1-1v7c0,0,0.1,0,0.1,0.1
	v0.1l0.1,0.1v-0.6c0,0.2,0.1,0.5,0.1,0.7c0.1,0.4,0.1,0.9,0,1.3c-0.2,2.4-1.5,4.5-3.5,5.8c-3.8,3.1-8,5.5-12.6,7.1
	c-10.2,3.9-20.9,6-31.8,6.2c-1.9,0-3.1-0.3-3.8-1.4c-0.4-0.8-0.7-1.7-0.7-2.6c-3.6-38.6-7.2-77.2-10.9-115.8
	c-2.6-27.6-4.9-55.2-7.1-82.7c-1.5-18.5-2.8-36.8-4.4-55.3c0-0.4-0.1-0.8-0.1-1.1c-0.1-2.2,0.6-3.3,3.5-3.7
	c7.8-1.1,12.7-6.2,15.7-13.1c3.2-7.7,5.7-15.8,7.3-24c0.6-2.8,1.6-3.2,4.4-2.4c14.6,4.7,30.1,6,45.3,4c8.8-1.1,16.9-3.6,22.4-11.3
	l0,0v-0.5l0.3,0.7l0.6,1.3c0.8,1.7,1.5,3.4,2.2,5.1l1.5,3.6c4.1,10,7.6,20.3,10.4,30.8c0.4,1.8,0.9,3.5,1.5,5.2v0.2
	c8.8,30.5,36.7,114.1,37.8,117.6v0.3l0.2,0.2c0.1,0.2,0.2,0.4,0.3,0.6c0.1,0.1,0.1,0.2,0.1,0.4v0.3l0.2,0.2c0.1,0.2,0.2,0.4,0.3,0.6
	c1.1,2.8,2.8,8.6,3.6,17.9c0.1,0.6,0.2,1.3,0.2,1.9C401.7,822.2,401.3,832.8,399.9,843.3z"/>
<path class="st7" d="M309.2,747.5c0,3-0.3,6-0.3,9C308.9,753.5,309.2,750.5,309.2,747.5z"/>
<path class="st7" d="M318.2,908.1v6.2c0-0.1-0.1-0.1-0.2-0.2v-7h0.1C318.1,907.5,318.2,907.8,318.2,908.1z"/>
<path class="st7" d="M329.8,762.9v-0.5c0-0.6,0-1.1-0.1-1.7v-0.5C329.9,761.1,329.9,762,329.8,762.9z"/>
<path class="st7" d="M392.5,887.1c-1.1,4.5-4.9,9.3-6.2,13.3c-0.9,2.4-1.9,4.7-3.1,7c-5.6,7.2-13.9,10.4-22.7,11l0.1-0.1
	c-14.1-2.1-24.7-9.6-32.1-21.6c-0.5-0.6-1-1.1-1.6-1.6c-0.1,0.1-0.1,0.2-0.2,0.3v-0.3l0,0c0-0.6,0-1.1,0.1-1.7l0,0V892
	c3.6-6.5,5.8-12.9,8.7-19.7l0.8-0.6c0.1-0.1,0.6,0.2,0.7,0.1c-0.7-0.1,0.2-1.3,0.2-1.3l0,0c1.7,1.4,3.1,3.1,4.4,4.9
	c8.1,10.4,18.7,18.3,32.6,18.1c7-0.2,12.2-1.9,17.4-5.9l0.2-0.2l0.2,0.3C392.2,887.7,392.4,887.4,392.5,887.1z"/>
<path class="st3" d="M406.9,627.5v0.7c-1.2,0-2.4,0-3.6-0.2C404.5,627.9,405.7,627.8,406.9,627.5z"/>
<path class="st0" d="M529.6,536.6c1.1-0.5,1.5-1.8,1-2.9c-0.1-0.2-0.2-0.4-0.4-0.5c-1-1.1-2.6-1.5-4-0.8l-16.6,5.4
	c-1.8,0.5-3.4,1.6-5.4,1.3l-0.2,0.1c-0.3,0.2-0.7,0.6-0.9,0.1c-0.1-0.1-0.1-0.2,0-0.3c0.1-0.4,0.6-0.5,1-0.5l12.3-7.6l2.4-1.5
	c1.1-0.9,2.8-1.8,1.9-3.4c-0.9-1.6-2.8-1.1-4.1-0.6c-5.7,2.1-11.4,4.2-16.9,6.5c-6.3,2.6-12.7,5.2-19,7.5h-0.1
	c-0.8,1.5-0.2,2.9-0.2,4.2c0.2,4.6-1.4,9.1-4.5,12.5c-1.3,1.3-2.6,3-4.8,2.6H471c0-0.3,0.2-0.7,0.2-1c0.2-0.2,0.3-0.5,0.5-0.6
	c5.2-3.8,7.8-10.3,6.5-16.7c-0.3-1.1,0.1-2.2,1.1-2.8c1.1-3.3,2.9-6.4,5.4-8.9c0.5-0.5,0.9-1,1.3-1.6c0.9-2.3,3.7-5,1.6-7
	s-4.1,1.5-5.7,3.1c-7.1,7-14.1,14-21.1,21.3c-1.7,1.4-2.8,3.3-3.4,5.4c-0.8,4.5-3.9,6.8-7.3,9.1c-15.1,10.9-30.3,21.6-45.3,32.7
	c-0.3-0.8-0.8-1.6-1.1-2.3l-12.8-24.8c-8.8,9.7-19.8,15.3-32.4,17.8l1.1,3.2l0.5,1.6c3.7,7.8,7,15.7,11.2,23.3s9.7,13.6,17.4,16.1
	c3,0.9,6.2,1.3,9.4,1.3h5.5c1.2,0,2.4-0.2,3.6-0.5c6.2-1.3,11.9-4.3,16.4-8.7c15.2-13.8,30.7-27.4,45.9-41.1
	c1.5-1.4,3.3-2.4,5.2-2.9c15.9-4.7,31.3-10.3,46.9-15.7c2.1-0.7,5.4-1.5,4.5-4.1c-0.6-2.3-3.9-1.5-6.2-1.1
	c-4.9,0.5-9.4,2.3-14.4,1.9h-0.7c0-0.1,0-0.2,0-0.3l0,0c0.1-0.2,0.3-0.2,0.5-0.2c4.9-3.7,10.6-5.7,15.9-8.6c2.3-1.3,4.5-2.4,6.8-3.7
	c1.6-0.9,2.9-2.1,1.5-4.2C528.9,537.9,528.8,537.2,529.6,536.6z M497.6,561.2c-0.5-0.8-0.8-1.1-0.8-1.6c0.4-6.2-1.2-12.4-4.4-17.7
	c-0.3-0.5-0.6-1.3,0.2-1.8s1.1,0.2,1.6,0.8c2.4,3.7,3.9,7.9,4.4,12.3C498.7,555.8,499.5,558.4,497.6,561.2L497.6,561.2z"/>
<path class="st5" d="M298.6,496.9c-2.9,22.7-13.1,41.9-29.4,57.8c-1.1,1-2.2,2-3.4,2.9c-0.2,0.1-0.3,0.2-0.5,0.3l-0.4,0.2h-0.1
	l-0.2,0.1c-0.6,0.4-1.2,0.7-1.8,0.9l-0.6,0.3c-0.2,0.1-0.5,0.2-0.7,0.3c-1.3,0.5-2.8,0.7-4.2,0.7h-0.9v-46.2c0-0.8,0.2-1.6,0.5-2.4
	l0.1-0.1c0.1-0.2,0.3-0.3,0.5-0.4h0.5c0.7,0.1,1.3,0.4,1.8,0.9c1.3,0.8,2.6,1.6,3.9,2.3c0.2,0.1,0.5,0.3,0.7,0.4
	c0.2,0.1,0.4,0.1,0.6,0.1c0.1,0,0.2-0.1,0.3-0.1l0,0c0-0.1,0.1-0.1,0.1-0.2c0.3-0.7-0.2-1.1-0.7-1.3l-0.2-0.1
	c-2.8-1.5-5.1-3.3-8-4.2h-0.1h-0.1l-0.2-0.1l-20.2-11.8c-0.9-0.5-1.6-1.4-1.8-2.4l0.2-0.2l0.4-0.4c0.7-0.7,1.5-1.3,2.2-1.9
	c0.2-0.2,0.5-0.5,0.7-0.7c0.5-0.5,0.9-1,1.3-1.6c-0.2,0.3-0.4,0.5-0.6,0.8c0.2-0.3,0.4-0.6,0.6-1l0.1-0.1l0,0l0,0
	c0.1-0.1,0.1-0.4,0.2-0.5l0.1-0.2v-0.1c0.1-0.2,0.1-0.3,0.2-0.5h-0.1v-0.2l0.1-0.1h0.1h0.2v-0.3l0.2-0.2c3.4-2.6,4.7-6.4,6.4-9.9
	c2.1-4.4,3.7-9.1,5.5-13.8l0.5-1.5c0.3-2.4,0.8-5,1.1-7.5c0-0.5,0.1-1,0.3-1.4c0.4,0.2,0.9,0.4,1.3,0.6c13.6,6.2,27.9,12.7,38.9,18
	c0.2,0.1,0.3,0.2,0.5,0.3l0.3,0.1l0.5,0.2c0.1,0.1,0.2,0.3,0.3,0.4c0.3,0.3,0.3,0.3,0.3,0.6c0,0.3,0.1,0.5,0.3,0.7
	c0.2,0.2,0.2,0.5,0.3,0.6s0.2,0.3,0.3,0.7c0.2,0.3,0.3,0.6,0.3,0.9s0.3,0.8,0.3,1.1c0,0.3,0.3,0.8,0.3,1.1
	C299.3,484.8,299.6,490.9,298.6,496.9z"/>
<path class="st5" d="M238.9,490.1c-0.4,0.6-0.8,1.1-1.3,1.6c0.2-0.2,0.4-0.5,0.7-0.8l0,0C238.5,490.7,238.7,490.4,238.9,490.1z"/>
<path class="st5" d="M239.3,489.2c-0.1,0.2-0.1,0.4-0.2,0.5l0,0C239.1,489.6,239.2,489.4,239.3,489.2z"/>
<path class="st5" d="M239.5,488.4c0,0.2-0.1,0.3-0.2,0.5c0-0.1,0.1-0.2,0.1-0.3L239.5,488.4L239.5,488.4z"/>
<path class="st5" d="M239.8,487.9v0.3h-0.2h-0.1L239.8,487.9z"/>
<path class="st5" d="M253.9,453.6c-0.2,0.5-0.3,0.9-0.3,1.4c-0.3,2.5-0.8,5.1-1.1,7.5L252,464c-1.8,4.7-3.4,9.4-5.5,13.8
	c-1.8,3.5-3,7.3-6.4,9.9c3.1-2.6,4.4-6.2,6-9.6c2.1-4.4,3.7-9.1,5.5-13.8l0.5-1.5c0.3-2.4,0.8-5,1.1-7.5c0-0.6,0.2-1.3,0.5-1.8l0,0
	L253.9,453.6z"/>
<path class="st5" d="M238.9,490.1c-0.4,0.6-0.8,1.1-1.3,1.6c-0.2,0.2-0.5,0.5-0.7,0.7c-0.7,0.6-1.5,1.2-2.2,1.9l-0.4,0.4
	c0.8-0.8,1.7-1.6,2.6-2.4c0.1-0.1,0.2-0.2,0.3-0.2h0.1c0.4-0.4,0.8-0.7,1.1-1.1l0,0C238.5,490.7,238.7,490.4,238.9,490.1z"/>
<path class="st5" d="M257.8,511.5L257.8,511.5z"/>
<path class="st5" d="M264.9,558.5c-0.6,0.4-1.2,0.7-1.8,0.9l0.5-0.2l0,0l0.9-0.5l0,0L264.9,558.5z"/>
<path class="st5" d="M239.6,488.1L239.6,488.1L239.6,488.1z"/>
<path d="M239.5,488.4c0,0.2-0.1,0.3-0.2,0.5v0.1l-0.1,0.2c-0.1,0.2-0.1,0.4-0.2,0.5l0,0l0,0c-0.5,0.8-1.1,1.6-1.8,2.2h-0.1
	c-1,0.9-2,1.7-2.9,2.6c-0.5,0.2-1,0.3-1.5,0.3c-1.4,0-2.2-1-2.2-2.9c-0.1-2.5,0.1-4.9,0.8-7.3l0.3,0.3
	C234.7,485,236.7,487.8,239.5,488.4L239.5,488.4z"/>
<path d="M239.6,488.1L239.6,488.1z"/>
<path d="M166.6,339.4c-5.7,2.6-10.4,6.8-13.6,12.1c-0.5,0.4-1,0.6-1.6,0.8c0-3.4,2.1-5,3.9-7c2.8-3.4,6.5-6.1,10.6-7.8
	c0.6-0.2,1.3-0.5,1.8,0.3C168.2,338.6,167.3,339.1,166.6,339.4z"/>
<path class="st8" d="M159.3,331.4c0,0.1-0.2,0.1-0.3,0.1c-0.3,0-0.4-0.6-0.5-0.9l0.4-0.3h0.1C159.5,330.5,159.8,331.1,159.3,331.4z"
	/>
<path class="st8" d="M148.6,343.8l-0.5-0.5l0.3-0.3C148.8,343.3,149.1,343.5,148.6,343.8z"/>
<path class="st9" d="M311.5,433.5v0.5c0,0,0,0-0.1,0l0,0c0,0-0.1,0-0.2,0.1h-0.1L311.5,433.5z"/>
<path d="M190.2,367.2L190.2,367.2H190l0,0c-0.1,0-0.1,0.1-0.1,0.1s0,0,0,0.1C190,367.3,190.2,367.3,190.2,367.2
	c0.1,0.1,0.1,0.1,0.1,0.1l0.1-0.2L190.2,367.2z M311.3,434l0.2-0.3v-0.2L311.3,434z"/>
<path class="st0" d="M350.8,432.1l-1.8,1.2l0.3,0.1L350.8,432.1L350.8,432.1z M350.8,432.1l-1.8,1.2l0.3,0.1L350.8,432.1
	L350.8,432.1z M350.8,432.1l-1.8,1.2l0.3,0.1L350.8,432.1L350.8,432.1z M350.8,432.1l-1.8,1.2l0.3,0.1L350.8,432.1L350.8,432.1z
	 M362.8,443.5c0-0.4,0-0.7-0.1-1.1l-0.1-1.1c0-0.2,0-0.5-0.1-0.7c0-0.4-0.1-0.8-0.1-1.3c-3.2-1.9-2.4-5-2.1-7.9h-0.2l-1.3-0.7l0,0
	l0,0l-0.5-0.3c0,0-0.1,0-0.1-0.1c-0.2-0.1-0.5-0.3-0.7-0.4c-1-0.6-2-1.4-3-2.1l-0.3-0.3l-0.1-0.1l-0.5-0.4c-0.2-0.2-0.5-0.4-0.7-0.6
	s-0.4-0.4-0.6-0.6c-0.8-0.7-1.6-1.5-2.4-2.2l-0.8-0.8c-0.4-0.4-0.8-0.9-1.3-1.4l-0.2-0.3l-0.2-0.3l-0.3-0.3c-0.3-0.4-0.7-0.8-1-1.2
	c-0.3-0.4-0.5-0.5-0.7-0.8l0,0l-0.1-0.1l-0.9-1l-1-1.2l0,0l-1-1.2c-0.9-1.2-1.8-1.8-2.6-1.8h-0.1c-0.9,0.1-1.8,0.4-2.5,1
	c-4.5,3-9,6.1-14.1,7.8c-0.8,0.3-1.6,0.5-2.4,0.7l-1.2,0.3c-0.4,0.1-0.9,0.2-1.3,0.2c-0.4,0.1-1,0.1-1.5,0.2s-0.9,0.1-1.4,0.1
	c-0.4,1.5-0.5,3.1-0.8,4.6c-0.3,1.6-1,3.1-2.1,4.4c0,0.1,0,0.1-0.1,0.1l0,0l-0.5,0.9l0,0l0,0l-0.1,0.1v0.3l-0.1,0.1l0,0
	c-0.1,0-0.1,0.1-0.2,0.1l0,0h-0.1c-0.2,0.1-0.3,0.2-0.4,0.3l-0.3,0.3c-0.2,0.1-0.3,0.3-0.5,0.4l-0.6,0.6c-0.3,0.5-0.6,0.9-1,1.3
	c-0.2,0.2-0.2,0.3-0.3,0.7c-0.2,0.2-0.3,0.4-0.3,0.6c-0.1,0.2-0.2,0.5-0.1,0.7v0.6c0.1,1.8,1.2,3.4,2.8,4.2c1.8,0.5,1.6,1.8,1.6,3.2
	c0,1.9,0,3.7,0.1,5.7c0.4,3.1,1.2,6.2,2.4,9.1c5.3,11.4,17.7,15.4,33.1,9.1c0.5-0.2,1.1-0.3,1.6-0.3c0.1,0,0.1,0,0.1-0.1
	c0,0,0-0.1,0.1-0.1h0.1l0.1-0.1c6.2-4.7,8.7-11.1,9.5-18.6c0-0.7,0-1.6,0.5-1.9c1.8-0.9,3-2.7,3-4.7v-0.8
	C363,444.1,363,443.8,362.8,443.5L362.8,443.5z M344.6,435.9c0-0.1,0.1-0.2,0.1-0.3s0.1-0.1,0.2-0.2s0.1-0.1,0.2-0.2
	c0.1,0,0.1-0.1,0.2-0.1c0.1-0.1,0.2-0.1,0.3-0.1l0.3-0.1h0.2h0.7h0.3c0.1,0,0.2,0,0.3,0.1l0.2,0.1c0.5,0.2,0.9,0.7,1,1.2
	c0,0.1,0,0.2,0,0.4c-0.1-0.9-1-1.6-1.9-1.6h-0.3c-0.5-0.1-1,0.1-1.4,0.5l0,0C344.8,435.6,344.7,435.8,344.6,435.9s-0.1,0.2-0.1,0.3
	C344.5,436,344.6,435.9,344.6,435.9L344.6,435.9z M335,445.7c0-0.2,0-0.4,0.1-0.5c0.5-4.9,1-9.6,1.6-14.4c0.1-0.8,0.5-1.8,1.4-1.4
	c0.2,0.1,0.4,0.3,0.5,0.5c0,0,0,0,0.1,0l0,0v0.1c0.1,0.2,0.2,0.4,0.2,0.6c0,0.5-0.1,1,0,1.4c0,0.1,0,0.2,0,0.3l0,0l0,0
	c-0.5,4.4-1.1,8.8-1.6,13.1c-0.2,0.8-0.3,1.8-1.3,1.6c-0.1,0-0.2,0-0.3-0.1c-0.2,0-0.3-0.1-0.4-0.2c-0.2-0.2-0.3-0.4-0.3-0.6
	L335,445.7L335,445.7z M331,449.3c2.5,0.4,5.1,0.7,7.6,0.9h1c1.2,0.1,1.8,0.4,2,0.9c0,0.1,0,0.1,0.1,0.2c0.1,0.8-0.1,1.6-0.6,2.2
	c-1,1.9-2.9,3.1-5,3.2c-0.2,0-0.4,0-0.7,0h-0.2H335h-0.2c-0.3,0-0.6-0.1-0.9-0.1c-0.3-0.1-0.6-0.2-0.9-0.3c-0.1-0.1-0.3-0.1-0.4-0.2
	c-1.5-0.8-2.7-2.2-3.1-3.9c-0.4-1.5-0.5-2.8,0.5-3C330.4,449.2,330.7,449.2,331,449.3L331,449.3z M324.5,429.7
	c0.1-0.9,0.5-1.1,1.1-1.1l0,0c0.2,0,0.4,0,0.7,0c-0.8,0-1.5,0.1-1.6,1.1c-0.1,0.3,0,0.6,0.2,0.9l0.1,0.1l0.1,0.1
	c-0.1,0-0.3-0.1-0.4-0.2l-0.1-0.1c0-0.1-0.1-0.1-0.1-0.2s0-0.1,0-0.2C324.5,429.9,324.5,429.9,324.5,429.7
	C324.5,429.8,324.5,429.7,324.5,429.7z M328.5,428.6c0.5-0.1,1-0.1,1.4,0.1l0,0c0.1,0.1,0.2,0.2,0.2,0.3c-0.5-0.5-1.5-0.3-2.3-0.3
	L328.5,428.6L328.5,428.6z M327.4,432.7h0.5c0.6,0,1.2,0.4,1.5,0.9c-0.4-0.5-1-0.8-1.7-0.8h-0.5c-0.3,0.1-0.6,0.2-0.8,0.4
	C326.6,432.9,327,432.7,327.4,432.7L327.4,432.7z M351.1,432.6L351.1,432.6L351.1,432.6L351.1,432.6L351.1,432.6c0,1-1,0.9-1.8,0.7
	l-0.2,0.2l0,0l-0.1,0.1c-1.1-0.3-2.9-0.1-3.1-1.8c0-0.1,0-0.2,0-0.3l0,0c0.1-0.9,1.4-0.5,2.1-0.5c0.2,0.1,0.3,0.1,0.5,0.2h0.1
	c0.8,0.2,1.8,0.2,2.2,0.9l0.1-0.1l0.1,0.1c0,0,0,0,0,0.1l0,0c0,0,0,0.1,0.1,0.1L351.1,432.6L351.1,432.6z M350.8,432.1l-1.8,1.2
	l0.3,0.1L350.8,432.1L350.8,432.1L350.8,432.1z M350.8,432.1l-1.8,1.2l0.3,0.1L350.8,432.1L350.8,432.1L350.8,432.1z M350.8,432.1
	l-1.8,1.2l0.3,0.1L350.8,432.1L350.8,432.1L350.8,432.1z M350.8,432.1l-1.8,1.2l0.3,0.1L350.8,432.1L350.8,432.1L350.8,432.1z
	 M350.8,432.1l-1.8,1.2l0.3,0.1L350.8,432.1L350.8,432.1L350.8,432.1z"/>
<path class="st2" d="M360.5,431.4"/>
<path class="st0" d="M342.5,415.2c-1-1.3-1.9-1.9-2.8-1.8c0.8,0,1.7,0.6,2.6,1.8c5.2,6.3,10.4,12.5,17.8,16.2h0.2
	C352.9,427.6,347.7,421.5,342.5,415.2z M348.6,431c0.8,0.2,1.8,0.2,2.2,0.9C350.4,431.2,349.4,431.2,348.6,431z M346.7,434.8h-0.3
	c-0.9-0.1-1.7,0.4-1.9,1.3c0.3-0.8,1.1-1.2,1.9-1.1h0.3c0.9,0,1.8,0.7,1.9,1.6C348.6,435.6,347.8,434.8,346.7,434.8
	C346.8,434.8,346.8,434.8,346.7,434.8z M338.1,429.2c-0.9-0.3-1.3,0.6-1.4,1.4c-0.7,4.9-1.1,9.6-1.6,14.4v0.1
	c0.5-4.9,1-9.6,1.6-14.5c0.1-0.8,0.5-1.8,1.4-1.5c0.2,0.1,0.3,0.2,0.5,0.3C338.5,429.5,338.3,429.4,338.1,429.2L338.1,429.2z
	 M329.8,434.2c0,0.1,0,0.3,0.1,0.4v-0.1C329.9,434.4,329.8,434.3,329.8,434.2z M327.9,428.6c0.8,0,1.9-0.2,2.3,0.3
	C329.9,428.3,328.8,428.5,327.9,428.6z M327.9,432.5h-0.6c-0.4,0.1-0.7,0.2-1,0.5c0.2-0.2,0.5-0.3,0.8-0.4h0.5
	c0.7,0,1.3,0.3,1.7,0.8C329.1,432.9,328.5,432.5,327.9,432.5z M324.7,429.6c0.1-1.1,0.9-1.1,1.8-1.1c-0.9-0.2-1.9-0.2-2,1.1
	s0.9,1.3,1.9,1.3C325.4,430.9,324.5,430.9,324.7,429.6L324.7,429.6z"/>
<path class="st5" d="M341.1,1009.8L341.1,1009.8c-2.2,0.8-4.5,1.2-6.8,1.4h-0.5c-0.2,0-0.5-0.2-0.6-0.2c-1.8-0.7-2.4-2.8-4.1-7.5
	c-3.4-9.6-7-19-10.1-28.6c-0.2-0.3-0.3-0.8-0.5-1.1s-0.2-0.5-0.3-0.7s-0.2-0.3-0.3-0.6c-0.2-0.6-0.6-1.1-1.1-1.5
	c-0.2-0.2-0.3-0.3-0.5-0.3c-0.1-0.1-0.3-0.2-0.5-0.3s-0.5-0.2-0.7-0.2c-0.7-0.3-1.5-0.4-2.3-0.3c-1.4,0-2.8-0.8-4.3-0.9h-0.9
	l-0.3,0.1c0-2.1-0.4-4.2-1.1-6.2c0.1-0.3,0.1-0.5,0.1-0.8h0.1c0.2-0.6,0.4-1.3,0.6-1.9c0.1-0.1,0.1-0.3,0.2-0.4l-0.1-0.3l0,0
	c1.1,0.4,2.1,1,3,1.8l0,0c0.1,0.1,0.2,0.1,0.3,0.2l0,0c0.3,0.2,0.6,0.4,0.9,0.5c0.5,0.2,1.1,0.2,1.6,0c1.3-0.3,2.1-1.8,3.9-4.9
	c0.4-1.1,1.4-1.8,2.6-1.9h0.8c0.2,0,0.4,0,0.5,0.2c3.9,0.3,7.8,0.5,11.5,0.6c1.1,0.7,2.3,1.1,2.4,2.9c0.2,5,0.5,9.9,0.8,14.9
	c0.2,2.4-0.8,3.1-2.9,2.9c-2.1-0.1-4.3,0.2-6.3,0.8c-1.6,0.3-2.4,0.9-1.9,2.8c0.5,1.9,1.5,2.4,3.2,1.8l1.9-0.5c7-1.1,7-1.1,7.3,5.8
	c-1.1,0-2.3,0.1-3.4,0.3c-0.6,0.2-1.2,0.3-1.8,0.3c-0.3,0-0.5,0.2-0.8,0.2s-0.6,0.1-0.8,0.3l-0.7,0.2c-0.3,0-0.5,0-0.7,0.2h-0.3
	c-0.6,0.4-0.9,0.8-0.9,1.3v0.2c0.1,0.3,0.2,0.6,0.4,0.8l0,0l0.3,0.4c0,0.1,0.1,0.1,0.2,0.2v0.2c0.2,0.5,0.3,0.8,0.8,0.8h0.9l4.9-0.9
	h0.8l1.6,0.2h0.8c0,1.7,0.8,3.4,0.8,5.2c0,0.4,0,0.8-0.1,1.2c-1.6,0.3-3.4,0.7-5,1.1c-0.2,0-0.4,0-0.5,0.2c-0.2,0-0.3,0.2-0.5,0.2
	s-0.2,0.2-0.3,0.2h0.1c-0.1,0.1-0.1,0.1-0.2,0.1s-0.1,0.1-0.2,0.2l0,0c-0.1,0.1-0.2,0.2-0.2,0.4c-0.1,0.3,0,0.6,0.1,0.9
	c0,0.1,0.1,0.3,0.1,0.4l0.1,0.4l0,0c0.1,0.1,0.1,0.2,0.2,0.4c0.2,0.5,0.6,0.8,1.1,0.9h0.9l3.9-0.7l1.3-0.2h0.2
	C340.5,1005.2,342,1007.1,341.1,1009.8z"/>
<path class="st6" d="M307.1,960.5c1.9,0.7,3.2,1.1,4.2,1.5C309.9,961.6,308.5,961.1,307.1,960.5z"/>
<path class="st6" d="M320.3,955.1c0.2,0,0.4,0,0.5,0.2l0,0C320.7,955.2,320.5,955.2,320.3,955.1z"/>
<path class="st6" d="M328.4,991.9L328.4,991.9c-0.8-0.9-1.5-1.9,0-2.9l0,0C326.9,990.2,327.6,991.1,328.4,991.9z"/>
<path class="st6" d="M329.4,988.9"/>
<path class="st6" d="M330,993.1"/>
<path class="st6" d="M338.1,992.3"/>
<path class="st6" d="M339.6,1003L339.6,1003l-5.2,0.9c-1.8,0.3-2.1-0.9-2.4-2.1c-0.3-0.5-0.2-1.1,0.3-1.5c-0.4,0.4-0.5,1-0.3,1.5
	c0.3,1.1,0.9,2.4,2.4,2.1C336.1,1003.5,337.9,1003.2,339.6,1003z"/>
<path class="st8" d="M283,1028.3h-0.8C282.5,1028.1,282.8,1028.1,283,1028.3z"/>
<path class="st6" d="M382.1,1071.9"/>
<polygon class="st6" points="382.9,1070.9 382.7,1070.9 382.7,1070.9 382.7,1070.9 "/>
<path class="st10" d="M332.4,1057.8"/>
<path class="st4" d="M382.1,1071.8"/>
<path class="st4" d="M382.7,1070.9"/>
<path class="st7" d="M319.5,947.5l0.1,0.1v0.1L319.5,947.5h-0.2c-1.1,1.6-2.6,3.1-4.2,4.2c-0.2,0-0.3,0.2-0.5,0.3
	c-1.4,1-2.9,1.9-4.4,2.6c-0.4,0.2-0.7,0.4-1.1,0.6l-0.6,0.3l-0.6,0.3c-0.2,0.1-0.3,0.3-0.5,0.4c-0.2,0.1-0.3,0.2-0.4,0.4l-0.3,0.3
	v-0.3c-8.8,2.9-17.8,5.1-26.9,6.7c-0.2,0-0.2-0.2-0.3-0.2c-0.4-0.3-0.9-0.2-1.2,0.1l0,0c0,0.1-0.1,0.1-0.1,0.2
	c-3.1-0.3-6.3,0.5-9.4-0.3c-0.2-0.3-0.3-0.6-0.3-0.9c0-0.8-0.2-1.5-0.2-2.3c0-4-0.3-8-1-12c0.4-2.5,0.1-5.1-0.6-7.5
	c0-0.1,0-0.2-0.1-0.2c0-0.2-0.1-0.3-0.2-0.5c0.3-3.1,2.8-2.3,4.4-2.3c11.9-0.5,23.6-3.2,34.4-8.1c5.5-2.4,10.7-5.4,14.1-10.6
	c0,0.2-0.1,0.3-0.2,0.5v0.4c0.3,5.4,0.8,10.8,0.9,16.1C320.3,939.7,320.8,943.7,319.5,947.5z"/>
<path class="st7" d="M308.5,955.6c-0.4,0.2-0.7,0.5-1.1,0.7c0.2-0.1,0.3-0.3,0.5-0.4L308.5,955.6z"/>
<path class="st7" d="M319.5,947.6c-1.2,1.6-2.6,3-4.3,4.1c-1.6,1.2-3.3,2.1-5.1,2.9c1.5-0.7,3-1.6,4.4-2.6c0.2-0.2,0.3-0.3,0.5-0.3
	c1.6-1.1,3.1-2.6,4.2-4.2L319.5,947.6z"/>
<path class="st7" d="M319.6,947.5h-0.1c1.3-3.7,0.8-7.8,0.6-11.7c-0.2-5.4-0.6-10.8-0.9-16.1c0.1-0.1,0.2-0.3,0.3-0.4
	c0.3,5.5,0.8,11,0.9,16.6C320.4,939.7,320.8,943.6,319.6,947.5z"/>
<path class="st0" d="M359.4,919.2c-1.1,4.1-4.4,6.7-6.8,9.7c-4.9,6.7-9.9,13-14.9,19.5c-0.8,1.4-2.1,2.4-3.7,2.9h-0.2
	c-0.5,0-1,0-1.5-0.1h-0.2c-0.5,0-1.1-0.1-1.6-0.1c-1.7-0.2-3.4-0.6-5-1.1c-0.6-0.2-1.1-0.4-1.6-0.6c-1.5-0.5-2.9-1.2-4.3-2l-0.1-0.1
	c1.3-3.7,0.8-7.8,0.6-11.7c-0.2-5.4-0.6-10.8-0.9-16.1v-0.4c0.1-0.3,0.2-0.5,0.3-0.8v-0.1c0.1-0.2,0.1-0.5,0.1-0.7v-0.3l0,0v-0.9
	c-0.1-0.9-0.4-1.7-0.9-2.4v0.4c0-0.1,0-0.3-0.1-0.4l0,0l-0.1-6.8h0.2c0.3-0.1,0.3-0.3,0.6-0.5c0.9-0.7,1.2-2,2.1-2.7
	c0.3-0.2,0.6-0.4,0.9-0.4c0.5,0.6,1,1.2,1.6,1.8c0.9,1,1.8,1.9,2.8,2.8c6.4,6.2,14.9,10,23.8,10.7L359.4,919.2z"/>
<path class="st3" d="M302.7,473.8c-2.4-1.2-5.1-2.4-8.1-3.7c0.6-0.5,1.2,0.1,1.8,0.4C298.7,471.3,300.8,472.4,302.7,473.8z"/>
<path class="st1" d="M267.4,962.9l-0.2-0.2l0.1-0.1l0.1-0.1l0,0C267.5,962.6,267.4,962.8,267.4,962.9z"/>
<path class="st4" d="M332.4,956.2c-3.9-0.2-7.8-0.6-11.5-0.9c-0.1,0-0.2-0.1-0.3-0.1h-1c-1.1,0.1-2.1,0.9-2.6,1.9
	c-1.6,3.1-2.4,4.5-3.9,4.9c-0.5,0.2-1.1,0.2-1.6,0l-0.4-0.1H311c-0.3-0.1-0.5-0.1-0.7-0.3h-0.1c-0.5-0.2-1-0.5-1.4-0.8
	s-0.9-0.5-1.4-0.7l-0.1-0.3l0,0l-0.6-2.7l0.3-0.3c0.1-0.1,0.3-0.2,0.4-0.4s0.3-0.3,0.5-0.4l0.6-0.3l0.6-0.3c0.4-0.2,0.7-0.4,1.1-0.6
	c1.5-0.7,3-1.6,4.4-2.6c0.2-0.2,0.3-0.3,0.5-0.3c1.7-1.1,3.2-2.5,4.3-4.2v-0.1l0.1,0.1c1.4,0.8,2.8,1.5,4.3,2
	c0.5,0.2,1.1,0.4,1.6,0.6c1.6,0.5,3.3,0.9,5,1.1c0.5,0.1,1.1,0.1,1.6,0.1h0.3c0.5,0,1,0.1,1.5,0.1
	C334.4,953.2,332.3,954.5,332.4,956.2z"/>
<path class="st3" d="M317.4,784.2c-0.1-0.1-0.1-0.1-0.1-0.2C317.4,784.1,317.4,784.1,317.4,784.2z"/>
<path class="st3" d="M334.7,843.5c-0.8,0.8-1.6,1.5-1.5,2.8l-0.5,1.6l-0.5,0.5c-0.9,0.9-1.6,1.9-2.3,2.9c-0.1,0.1-0.2,0.2-0.2,0.4
	c-1.5,2.6-2.4,5.5-3.8,8.2c0,0.1-0.1,0.2-0.2,0.3c-0.3,0.5-0.5,1-0.7,1.5s-0.5,1.1-0.7,1.7c-2.7,7.3-2.3,14.9-0.1,22.4
	c0.3,0.9,0.4,1.9,1.4,2.3c0.1,0.1,0.2,0.1,0.3,0.1v0.3c-0.3,0.8-0.3,1.7-0.2,2.5l0,0c0.1,0.3,0.4,0.6,0.7,0.8v0.2l0.1,0.4
	c0,0.3,0,0.6,0,0.9c0,0.4,0.1,0.9,0.1,1.3c-0.1,0.1-0.1,0.2-0.2,0.4c-0.8,1.3-1.7,2.6-2.5,3.9c-0.9,1.3-1.5,2.8-1.8,4.3
	c-0.4,0.1-0.8,0.3-1.1,0.6c-0.8,0.8-1.1,2.2-2.1,2.7l-0.3,0.1c-0.1,0-0.2,0.1-0.3,0.1h-0.4c-0.5-8-1-16-1.5-23.9
	c-0.6-10.9-1.2-21.7-1.9-32.6c-0.9-15.3-1.8-30.6-2.6-45.9c-0.8-13.1-1.6-26.1-2.4-39.3v-0.3c0.1,0,0.1,0,0.2,0.1v0.3h0.1l0,0h0.1
	h0.1c0.5,0.3,0.9,0.8,1.1,1.4c0,0.1,0.1,0.3,0.1,0.4c0,0.1,0,0.1,0,0.2c0.1,0.3,0.1,0.7,0.2,1.1c0,0.1,0.1,0.3,0.1,0.4
	c1.9,4.7,2.9,9.7,5,14.3c0.2,0.3,0.4,0.7,0.6,1.1c0.1,0.1,0.1,0.2,0.2,0.2c0,0,0,0,0-0.1l0,0v0.1l0.1,0.1c0.1,0.1,0,0.1,0,0.1
	l0.1,0.2c0,0,0,0,0,0.1v0.1c4,12,8.1,23.8,12,35.7c1.2,4.4,3.3,8.6,4.5,12.9l0.1,0.2c0.1,0.6,0.3,1.2,0.4,1.8
	c0.1,0.8,0.2,1.5,0.3,2.3C335.3,839.6,335.2,841.6,334.7,843.5z"/>
<path d="M360.7,918.3l-0.1,0.1l-1.2,0.9l-8.9-0.5c-9-0.6-17.4-4.4-23.8-10.7c-1-0.9-1.9-1.8-2.8-2.8l-1.4-1.6
	c0.6-3.1,2.9-5.5,4.3-8.3c0.1-0.1,0.1-0.2,0.2-0.3c0.6,0.5,1.1,1,1.6,1.6C336,908.7,346.6,916.2,360.7,918.3z"/>
<path d="M359.4,919.2c-2.9-0.2-5.8-0.2-8.8-0.3c-9-0.6-17.5-4.5-24-10.8c6.4,6.2,14.9,10,23.8,10.7L359.4,919.2z"/>
<path class="st3" d="M343.8,990.8c-0.3,2.1-1.9,1.3-3.2,1.5h-3.2l-1.6-0.2H335l-4.9,0.9h-0.7c-0.4-0.1-0.7-0.4-0.8-0.8V992l0,0
	c-0.8-0.9-1.5-1.8,0-2.8h0.9l0.7-0.2c0.2-0.1,0.5-0.2,0.8-0.3c0.3,0,0.5-0.2,0.8-0.2c0.6-0.2,1.2-0.3,1.8-0.3
	c1.1-0.2,2.3-0.3,3.4-0.3l0,0c1.3-0.1,2.6-0.1,3.9,0.2C342.5,988,344.1,988.7,343.8,990.8z"/>
<path class="st4" d="M329.4,988.9"/>
<path class="st4" d="M338.1,992.3"/>
<path class="st3" d="M347.7,1000.9v0.3c0,1.5-1.1,1.6-2.3,1.6l-5.8,0.2l0,0l-5.2,0.9c-1.6,0.2-2.1-0.9-2.4-2.1
	c-0.2-0.5-0.1-1.1,0.3-1.5c0.1-0.1,0.2-0.1,0.3-0.2c0.1-0.1,0.2-0.2,0.3-0.2s0.3-0.2,0.5-0.2h0.3c1.6-0.5,3.3-0.8,5-1.1
	c2.3,0,4.5,0,6.8,0.2c1-0.1,1.9,0.6,2.1,1.6l0,0C347.7,1000.6,347.7,1000.8,347.7,1000.9z"/>
<path class="st4" d="M339.6,1003L339.6,1003l-5.2,0.9c-1.8,0.3-2.1-0.9-2.4-2.1c-0.3-0.5-0.2-1.1,0.3-1.5c-0.4,0.4-0.5,1-0.3,1.5
	c0.3,1.1,0.9,2.4,2.4,2.1C336.1,1003.5,337.9,1003.2,339.6,1003z"/>
<path d="M312.2,692.3"/>
<path class="st7" d="M350.1,840.5c-3.9,8-7.9,16.1-11.9,24.2l-0.2,0.5c-0.1-0.1-0.1-0.1-0.1-0.2c-1.6-3-3.1-6-3.1-9.5
	c-0.2-2.3-0.3-5.7-0.5-7.8c0.3-0.8,0.5-1.6,0.5-2.4c0-0.4,0-0.8-0.1-1.2V844l-0.1,0.1c-0.7,0.7-1.5,1.4-1.4,2.6l-0.3,1.6l-0.5,0.5
	l0.1,0.3c0.6,2.1-0.9,4.4,0.2,6.4c-0.1,3.8,0.6,7.6,2.3,11c0.8,1.5,1,3.3,0.6,5c-3.1,4.4-4.9,9.4-7.5,14.1c-0.2,0.6-0.4,1.2-0.6,1.8
	s-0.7,1.1-1.3,1.4c0,0.1,0,0.1-0.1,0.1c0,0.7-0.4,1.4-0.4,2.1c-0.1-0.8-0.1-1.7,0.2-2.5v-0.3c-0.1,0-0.2,0-0.3-0.1
	c-1-0.4-1.1-1.4-1.4-2.3c-2.2-7.5-2.6-15.1,0.1-22.4c0.2-0.6,0.5-1.2,0.7-1.7s0.4-1,0.7-1.5c0.1-0.1,0.2-0.2,0.2-0.3
	c1.4-2.7,2.3-5.6,3.8-8.2c0-0.2,0.1-0.3,0.2-0.4c0.7-1,1.4-2,2.3-2.9l0.5-0.5l0.5-1.6c-0.1-1.3,0.7-2,1.5-2.8
	c0.5-1.9,0.6-3.8,0.2-5.7c-0.1-0.8-0.2-1.5-0.3-2.3c-0.1-0.6-0.3-1.2-0.4-1.8l-0.1-0.2c-1.2-4.3-3.3-8.5-4.5-12.9
	c-3.9-12-8-23.7-12-35.7l0.3-0.2c3-2.1,5.4-4.8,7.2-8c0.8-0.9,1.4-1.9,1.9-2.9c3.5,9.8,7.7,19.7,11.8,29.5
	c3.7,10.8,7.5,21.7,11.2,32.5C350.7,837.3,350.7,839,350.1,840.5z"/>
<path class="st7" d="M350.4,840.2c-4,8.1-8.1,16.4-12.1,24.7c0-0.1,0-0.1-0.1-0.2c4-8.1,8-16.3,11.9-24.2c0.6-1.5,0.6-3.2,0-4.7
	c-3.8-10.8-7.5-21.7-11.2-32.5c-4.2-9.8-8.3-19.7-11.8-29.5c-0.5,1.1-1.1,2.1-1.9,2.9c-1.7,3.2-4.2,5.9-7.2,8c0,0,0,0,0-0.1
	c-0.1-0.2-0.1-0.2-0.1-0.3l0.1,0.1c0.1,0.1,0.1-0.9,0.1,0.2l0.1-0.5c3.2-2.1,4.7-6.1,6.5-9.5c0.7-0.6,1.5-1,2.3-1.2
	c0.1-0.1,0.3-0.1,0.4-0.2c0.2-0.1,0.4-0.3,0.5-0.5c0.1-0.1,0.2-0.3,0.2-0.4v-0.1c2.1,1.3,1.9,3.6,2.6,5.5
	c3.9,11.1,7.8,22.3,11.6,33.6l0,0c2.8,8.1,5.6,16.1,8.4,24.2C351.2,837.1,351.1,838.8,350.4,840.2z"/>
<path class="st7" d="M335.8,871.2c-3.1,4.4-4.9,9.4-7.5,14.1c-0.5,1.1-0.6,2.6-1.9,3.2l0,0c-0.1,0-0.2-0.1-0.3-0.1v-0.1
	c-0.1,0-0.2-0.1-0.3-0.1c-1-0.4-1.1-1.4-1.4-2.3c-2.2-7.5-2.7-15.1,0.1-22.4c0.2-0.6,0.4-1.2,0.7-1.7c0.3-0.6,0.5-1,0.7-1.5
	c0-0.1,0.1-0.2,0.2-0.3c1.4-2.7,2.4-5.6,3.8-8.2c0.1-0.1,0.2-0.2,0.2-0.4c0.6-1.1,1.4-2.1,2.3-2.9l0.5-0.5l0.5-1.6
	c-0.2-1.3,0.7-1.9,1.5-2.8c0.4-1.8,0.6-3.6,0.5-5.4c-0.1-0.8-0.2-1.6-0.3-2.3l0,0c-0.1-0.6-0.2-1.2-0.4-1.8c1,3.2,1.1,6.6,0.4,9.9
	v-0.1L335,844c-0.6,0.7-1.5,1.4-1.4,2.6l-0.3,1.6l-0.5,0.5l0.1,0.3c0.6,2-0.9,4.4,0.2,6.4c-0.2,3.8,1.2,7.1,2.9,10.6
	C336.6,867.3,336.2,869.5,335.8,871.2z"/>
<path class="st7" d="M326.1,888.3L326.1,888.3c-0.1,0-0.2,0-0.3-0.1C325.9,888.2,326,888.3,326.1,888.3z"/>
<path class="st5" d="M310,508.8v0.2c-0.1,0.8-0.3,1.6-0.5,2.4c0,0.1,0,0.1,0,0.2s0,0.1,0,0.2c-0.1,0.7-0.3,1.4-0.5,2.1
	c0,0.2-0.1,0.3-0.1,0.5c-0.1,0.4-0.2,0.8-0.3,1.1c-0.2,0.7-0.4,1.4-0.5,2s-0.4,1.3-0.5,1.9c-0.1,0.4-0.2,0.8-0.4,1.2
	c-0.2,0.6-0.4,1.1-0.5,1.7c-0.2,0.7-0.5,1.4-0.8,2.1l-0.3,1.1c0.1-0.4,0.1-0.7,0.2-1l0.1-0.2c0.3-0.7,0.5-1.5,0.8-2.2
	c0.1-0.3,0.2-0.7,0.4-1.1l0.1-0.3c0.1-0.2,0.1-0.4,0.2-0.6c0-0.1,0.1-0.2,0.1-0.2l0.2-0.9c0.1-0.3,0.2-0.6,0.2-0.9s0.2-0.5,0.2-0.8
	s0.1-0.3,0.1-0.5s0.1-0.3,0.1-0.5c0.2-0.6,0.3-1.2,0.5-1.7c0.1-0.2,0.1-0.5,0.2-0.7c0.1-0.4,0.2-0.8,0.3-1.2
	c0.1-0.4,0.1-0.5,0.2-0.8s0.1-0.5,0.2-0.8C309.7,510.3,309.8,509.6,310,508.8z"/>
<path class="st5" d="M311.2,498.7c0,0.6-0.1,1.2-0.1,1.9c0,0.3,0,0.5-0.1,0.8s0,0.5-0.1,0.8c-0.1,0.5-0.1,1.1-0.2,1.6
	c0-0.2,0-0.5,0.1-0.8l0.1-0.6C311,501.1,311.1,499.9,311.2,498.7z"/>
<path class="st5" d="M311.2,498.4c0,0.1,0,0.2,0,0.2v-0.1C311.2,498.5,311.2,498.5,311.2,498.4z"/>
<path d="M311.2,434.2L311.2,434.2L311.2,434.2l0.2-0.1l0.1-0.2v-0.2L311.2,434.2z M311.6,433.6v0.1c0-0.1,0-0.1,0.1-0.2L311.6,433.6
	z M307.2,416.6c0.3,5.5,1.9,10.9,4.7,15.7c0,0,0,0,0-0.1C309.2,427.5,307.6,422.1,307.2,416.6z M347.9,470.9
	c-15.4,6.3-27.7,2.3-33.1-9.1c-1.3-2.9-2.1-6-2.4-9.1c-0.1-1.9-0.1-3.7-0.1-5.7c0-1.5,0.1-2.8-1.6-3.2c-1.6-0.8-2.7-2.4-2.8-4.2V439
	c0-0.2,0-0.5,0.1-0.7c0-0.2,0.1-0.5,0.3-0.6c0.1-0.2,0.2-0.5,0.3-0.7c0.3-0.4,0.7-0.9,1-1.3l0.3-0.3l0.3-0.3
	c0.1-0.2,0.3-0.3,0.5-0.4l0.3-0.3l0.1-0.1l0.1-0.1c-0.2,0.1-0.3,0.2-0.4,0.3l-0.3,0.3c-0.2,0.1-0.3,0.3-0.5,0.4l-0.6,0.6
	c-0.3,0.5-0.6,0.9-1,1.3c-0.2,0.2-0.2,0.3-0.3,0.7c-0.2,0.2-0.3,0.4-0.3,0.6c-0.1,0.2-0.2,0.5-0.1,0.7v0.6c0.1,1.8,1.2,3.4,2.8,4.2
	c1.8,0.5,1.6,1.8,1.6,3.2c0,1.9,0,3.7,0.1,5.7c0.4,3.1,1.2,6.2,2.4,9.1c5.3,11.4,17.7,15.4,33.1,9.1c0.5-0.2,1.1-0.3,1.6-0.3
	c0.1,0,0.1,0,0.1-0.1C348.9,470.6,348.4,470.7,347.9,470.9L347.9,470.9z M349.7,470.4c-0.1,0-0.1,0-0.1,0.1l0,0L349.7,470.4
	L349.7,470.4z"/>
<path d="M347.8,378.2l-10-0.8c-11.6,0.3-22.7,5.2-30.7,13.6c-8.9,9.4-13,20.6-13,33.4v1.5c1.1,9.7-0.2,18.5-3.4,33.9
	c-0.5,2,0.8,4,2.8,4.5l0.3,0.1h0.2c6.7,1,19.1,1.3,21.6,2.6l-1.5,12.2l-10.9-5l-0.5-0.2c-2.4-1.2-5.2-2.4-8.1-3.7h-0.1l-4.4-2.1
	c-2.8-1.5-5.7-2.8-8.6-4.1h-0.2c-22.9-10.7-51.3-23.5-63.8-28.1h-0.2c0,0-4.4-0.2-6.6-7.6c-2.6-7.8-19-52.2-19.2-52.7
	c0,0-1.9-4.7-0.8-7.3c0.1-0.3,0-0.6-0.3-0.8h-0.2l-0.1,0.2c-0.1-0.1-0.3-0.1-0.5,0.1v0.1c-0.1,0.2-0.1,0.3-0.2,0.5
	c0,0.1,0,0.2-0.1,0.3c-0.7,3,1,7.3,1,7.4s5.5,15.2,10.6,29.4l0.3,0.9c0.1,0.3,0.3,0.9,0.5,1.4s0.4,1.2,0.6,1.8
	c0.1,0.2,0.1,0.3,0.2,0.5c3,8.6,5.7,16.1,6.6,19c1.9,6.3,5.2,7.9,6.8,8.4c0.3,0,0.5,0.2,0.8,0.2c2.8,1,6.1,2.4,10.2,4
	c1.1,0.5,2.4,1,3.6,1.5l0.9,0.5c6.2,2.6,13.3,5.7,20.6,9.1l1.6,0.7l0,0l0.2,0.1c0.4,0.2,0.9,0.4,1.3,0.6c13.6,6.2,27.9,12.7,38.9,18
	c0.2,0.1,0.3,0.2,0.5,0.3l0.3,0.1l0.5,0.2l1.2,0.5l8.6,4l0.1,0.1l1.3,0.6l0,0l3.2,1.5l0.3,0.1h0.1l0.2,0.1l3.4,1.5h0.7
	c0.1-0.2,0.3-0.3,0.3-0.5l0.5-3.6h0.1c11.2,2.1,22.3,3.8,32.5-3.6l0.2-0.2l0.2-0.2l0.7-0.9c6.6-1.1,22.5,3.1,26.4-1.9
	c2.3-2.9-0.9-9.6,0-17c0.8-6.3,3.4-9.9,5.8-15.7c-0.1-0.8,0.2-1.7,0.8-2.3c0-0.5,0-1.1,0.1-1.6C389.2,404.9,369.4,381.7,347.8,378.2
	z M363.6,439.1l-0.3,0.1c-0.2,0-0.5,0-0.7,0.1h-0.1c0,0.4,0,0.9,0.1,1.3c0,0.2,0,0.5,0.1,0.7l0.1,1.1c0,0.4,0.1,0.7,0.1,1.1v1.6
	c0,2-1.2,3.8-3,4.7c-0.5,0.3-0.5,1.3-0.5,1.9c-0.8,7.5-3.2,13.9-9.6,18.7l0,0l-0.1,0.1l0,0c0,0,0,0.1-0.1,0.1h-0.1
	c0,0.1-0.1,0.1-0.1,0.1c-0.5,0-1.1,0.1-1.6,0.3c-15.4,6.3-27.8,2.3-33.1-9.1c-1.2-2.9-2-6-2.4-9.1c-0.1-2-0.1-3.8-0.1-5.7
	c0-1.4,0.2-2.7-1.6-3.2c-1.6-0.8-2.7-2.4-2.8-4.2v-0.6c-0.1-0.2,0-0.5,0.1-0.7c0-0.2,0.1-0.4,0.3-0.6c0.1-0.4,0.1-0.5,0.3-0.7
	c0.4-0.4,0.7-0.8,1-1.3l0.6-0.6c0.2-0.1,0.3-0.3,0.5-0.4l0.3-0.3c0.1-0.1,0.2-0.2,0.4-0.3l0.3-0.7v0.2l0.1-0.2v0.1l0.1-0.1
	c0.1-0.4,0.2-0.8,0.2-1.2c-2.8-4.8-4.4-10.2-4.7-15.7c0-0.7,0-1.4,0-2.1s0.1-1.6,0.2-2.3c1.7-11.4,11.8-18.8,24.1-20.7
	c1.9-0.3,3.9-0.5,5.8-0.6h2.4c11-0.2,21.4,4.9,28,13.6C376.2,415.2,374.3,430.7,363.6,439.1L363.6,439.1z"/>
<path class="st2" d="M363.5,439.1l-0.2,0.1c-0.2,0-0.5,0-0.7,0.1h-0.1c-3.2-1.9-2.4-5-2.1-7.9h0.2c0.2,0,0.4,0.1,0.5,0.1h1
	c1.2-0.2,1.6-0.9,0.4-3.2c-0.5-2.4-0.7-4.9-0.5-7.3c0-2.9-0.5-5.9-1.6-8.6c-1.7-4.1-4.4-6.9-7.7-8l-0.3-0.1c-1-0.3-2.1-0.4-3.1-0.4
	h-0.1c-2.5,0.1-5,0.9-7.1,2.2c-0.3,0.3-0.8,0.5-1.2,0.5h-0.1c-0.5-0.1-1-0.4-1.3-0.8c-1.3-1.2-2.7-2.2-4.3-3.1
	c-0.2-0.1-0.3-0.2-0.5-0.2c-1.1-0.5-2.2-0.8-3.4-0.8h-0.7c-2.3,0.1-4.7,1.1-7.6,3c-4.9,3.2-7.5,7.9-10.2,12.8
	c-2.4,4.5-2.6,4.5,2.4,6.2h0.2c-0.8,3-0.4,6.4-2.9,9c0,0.1,0,0.1-0.1,0.1l0,0l-0.6,0.8v0.3c-0.1,0.1-0.2,0.1-0.3,0.2l-0.1,0.1
	c-0.1,0-0.2,0.1-0.2,0.1l0.2-0.2l0,0l0,0V434l0,0l0,0l0.1-0.1c0-0.1,0.1-0.2,0.1-0.3l0,0l0,0l0,0c0.1-0.4,0.1-0.8,0.2-1.1l0,0
	c-2.8-4.8-4.4-10.2-4.7-15.7c0-0.7,0-1.4,0-2.1s0.1-1.6,0.2-2.3c1.8-11.4,11.8-18.7,24.1-20.6c1.9-0.3,3.9-0.5,5.8-0.6h2.4
	c11-0.2,21.4,4.9,28,13.6C376,415.4,374.1,430.8,363.5,439.1z"/>
<path class="st0" d="M310.5,487.5c-0.1-0.2-0.1-0.4-0.2-0.6l0,0c-0.4-1.1-0.7-2.2-0.9-3.4l0,0c0-0.2-0.1-0.3-0.1-0.5
	C309.8,484.5,310.2,486,310.5,487.5z"/>
<path class="st0" d="M349.6,497.5c-0.3,2-0.8,3.9-1.6,5.8c-1,2.6-2.5,4.9-4.4,6.9c-0.2,0.2-0.5,0.4-0.7,0.6c-3.7,3-8.4,3.4-14.1,0.8
	c-0.4-0.2-0.7-0.3-1.1-0.5s-0.7-0.4-1.1-0.6l-0.3-0.2c-6.9-4-10.5-10.7-13.5-18c-0.6-3.8-2.4-7.3-2.4-11.4c0-0.4,0-0.7,0-1.1
	l3.4,1.5h0.7c0.1-0.2,0.3-0.3,0.3-0.5l0.5-3.6h0.1c11.2,2.1,22.3,3.8,32.5-3.6l0.2-0.2l0.2-0.2l0.1-0.1l0.2-0.2
	c1.1,5.5-0.7,10.6-1.1,16.1C346.9,492.6,346.3,495.9,349.6,497.5z"/>
<path class="st7" d="M370.4,514.8L370.4,514.8c-0.1-0.4-0.2-0.8-0.3-1.1c0.5,1.5,0.8,3.1,1,4.6c0.1,0.4,0.1,0.8,0.2,1.2
	s0.1,0.8,0.1,1.2s0.1,0.8,0.1,1.2l0,0v0.1l0,0c0,0.1,0,0.1,0,0.2c0,0.1,0,0.1,0,0.2s0,0.2,0,0.2
	C371.5,519.9,371.1,517.3,370.4,514.8z M309.5,511c-0.1,0.3-0.1,0.5-0.2,0.8s-0.1,0.5-0.2,0.8s-0.2,0.8-0.3,1.2
	c0,0.2-0.1,0.5-0.2,0.7c-0.1,0.6-0.3,1.2-0.5,1.7c0,0.2-0.1,0.3-0.1,0.5s-0.1,0.4-0.1,0.5s-0.1,0.5-0.2,0.8s-0.2,0.6-0.2,0.9
	l-0.3,0.9c0,0.1,0,0.2-0.1,0.2c-0.1,0.2-0.1,0.4-0.2,0.6l-0.1,0.3c-0.1,0.4-0.2,0.7-0.4,1.1c-0.2,0.8-0.5,1.5-0.8,2.2l-0.1,0.2
	c0,0.1,0,0.2-0.1,0.2c0,0,0,0,0,0.1c-0.1,0.2-0.1,0.4-0.1,0.7l0,0c0,0,0,0,0,0.1v0.1v-0.1l0,0l0.3-1.1c0.3-0.7,0.5-1.4,0.8-2.1
	c0.2-0.5,0.4-1.1,0.5-1.7c0.1-0.4,0.3-0.8,0.4-1.2c0.2-0.6,0.4-1.3,0.5-1.9c0.1-0.6,0.4-1.3,0.5-2c0.1-0.4,0.2-0.8,0.3-1.1
	c0-0.2,0.1-0.3,0.1-0.5c0.2-0.7,0.3-1.4,0.5-2.1c0-0.1,0-0.1,0-0.2s0-0.1,0-0.2c0.2-0.8,0.3-1.6,0.5-2.4v-0.2
	C309.8,509.6,309.7,510.3,309.5,511z M310.9,502.4l-0.1,0.6c0,0.2,0,0.5-0.1,0.8c0.1-0.6,0.1-1.1,0.2-1.6c0-0.3,0.1-0.5,0.1-0.8
	s0-0.5,0.1-0.8c0.1-0.6,0.1-1.2,0.1-1.9C311.1,499.9,311,501.1,310.9,502.4L310.9,502.4z M306.3,547.9L306.3,547.9L306.3,547.9
	L306.3,547.9z M306.3,547.8L306.3,547.8L306.3,547.8h-0.1C306.3,547.9,306.3,547.9,306.3,547.8L306.3,547.8z"/>
<path class="st5" d="M369.7,512.6c-0.4-0.8-1.1-1.4-1.5-2.2l1.1,1.1C369.4,511.9,369.5,512.2,369.7,512.6z"/>
<path class="st5" d="M370.1,513.7L370.1,513.7c-0.1-0.4-0.3-0.8-0.4-1.1c0.1,0.1,0.1,0.2,0.2,0.3l0,0c0.1,0.1,0.1,0.3,0.2,0.5v0.1
	C370,513.6,370.1,513.6,370.1,513.7z"/>
<path class="st5" d="M390.8,564.6c-8.8,9.7-19.8,15.3-32.4,17.8l-3.8,0.3l0,0c0-0.1,0-0.2,0.1-0.3h-0.1c2.1-7.9,5.8-15.4,8.8-23
	c4.3-11.6,7.7-23.3,7.9-35.9V523c0.2,0.1,0.2,0,0.2-0.1v-0.2c0-0.1,0-0.2,0-0.2c0-2.6-0.4-5.2-1.1-7.8v-0.1
	c-0.1-0.3-0.2-0.6-0.3-0.9c2.6,6.7,9.1,21.1,11.5,26.7c2.6,6.3,5.7,12.7,8.3,18.8C390.4,561.2,391.3,562.8,390.8,564.6z"/>
<path class="st5" d="M371.5,522.5c0-0.1,0-0.2,0-0.2s0-0.1,0-0.2V522l0,0l0,0v-0.1l0,0c0-0.4-0.1-0.8-0.1-1.2c-0.2-2-0.5-3.9-1-5.8
	C371.1,517.4,371.5,519.9,371.5,522.5z"/>
<path class="st7" d="M265,558.4c-0.1,0.1-0.3,0.2-0.4,0.2l0,0l-0.9,0.5l0,0l-0.4,0.2L265,558.4z"/>
<path class="st7" d="M371.5,521.9c0,0.1,0,0.1,0,0.2V521.9L371.5,521.9z M350.1,557.3c-0.4-0.5-1-0.8-1.6-0.8
	c-0.8-0.4-1.7-0.7-2.6-0.7h-0.6c-0.4-0.4-1.1-0.5-1.6-0.2c-2.1-0.8-4.3-1.2-6.5-1.3v0.1c2.2,0.1,4.4,0.5,6.5,1.3
	c0.5-0.4,1.2-0.3,1.6,0.2l0,0h0.6c0.9,0,1.8,0.3,2.6,0.7C349.2,556.6,349.7,556.9,350.1,557.3c0.1,0.2,0.2,0.4,0.2,0.5
	C350.3,557.6,350.2,557.5,350.1,557.3z M335.6,553.9l-1.5-0.3c-0.1-0.2-0.2-0.3-0.4-0.4h-0.2c-0.4-0.3-0.9-0.2-1.2,0.1l-3-0.6
	c-0.1-0.1-0.2-0.2-0.4-0.3c-0.4-0.4-1-0.4-1.5-0.1c-0.1,0-0.1,0-0.2-0.1c-1.5-0.7-3.2-1-4.8-0.9c-0.2-0.3-0.5-0.5-0.8-0.6
	c-0.2-0.1-0.5-0.2-0.7-0.2c-0.3,0-0.6,0.1-0.8,0.2l-13.7-2.9h-0.1l-0.1-0.1c-0.1,0-0.1-0.1-0.1-0.1c-0.5-0.4-1.1-0.6-1.7-0.6
	c-0.9,0-1.5,0.8-2,2.4c-2.9,9.4-5.8,18.8-8.9,28.2c-0.5,1.2-0.4,2.5,0.4,3.5c-0.6-1-0.7-2.2-0.3-3.3c3.1-9.4,6-18.8,8.9-28.2
	c0.8-2.5,1.9-3,3.7-1.8c0,0,0,0,0.1,0l0,0l0.1,0.1l0,0l0.1,0.1l13.7,2.9c0.5-0.3,1-0.3,1.5,0c0.3,0.1,0.6,0.3,0.8,0.6
	c1.7-0.1,3.3,0.2,4.8,0.9c0.1,0,0.1,0.1,0.2,0.1c0.5-0.3,1.1-0.3,1.5,0.1c0.1,0.1,0.3,0.1,0.4,0.3l3,0.6c0.3-0.3,0.8-0.3,1.2-0.1
	h0.1c0.2,0.1,0.4,0.2,0.4,0.4l1.5,0.3c0.5-0.4,1.2-0.3,1.6,0.2l0,0v-0.2C336.8,553.7,336.1,553.6,335.6,553.9L335.6,553.9z
	 M310.9,502.4c0.1-0.6,0.1-1.2,0.2-1.9c0.1-0.7,0.1-1.2,0.1-1.9C311.1,499.9,311,501.1,310.9,502.4L310.9,502.4z M305.5,525.5
	c0-0.2,0.1-0.5,0.1-0.7C305.5,525.1,305.5,525.3,305.5,525.5L305.5,525.5z M262.6,625.2l-0.8-0.5c0-0.1-0.1-0.2-0.2-0.2
	s-0.1-0.2-0.3-0.2c-0.5-0.2-0.9-0.5-1.3-0.8l-0.1,0.2c0.3,0.2,0.6,0.4,1,0.5c0.2,0,0.2,0.2,0.3,0.2s0.2,0.1,0.2,0.2l0.8,0.5
	c5.6,2.8,11.5,5,17.6,6.7C273.9,630.2,268.1,628,262.6,625.2z M251.4,924.4c-0.2-0.8-0.4-1.6-0.8-2.3l0,0c0.3,0.7,0.6,1.4,0.7,2.2
	c0.4,3.1,1,5,2.3,6.3C252.4,929.3,251.8,927.4,251.4,924.4z"/>
<path class="st7" d="M369.9,513L369.9,513c-0.2-0.5-0.3-0.9-0.5-1.4l-1.1-1.1c0.4,0.7,1,1.4,1.5,2.2c0.1,0.3,0.2,0.6,0.4,1l0,0
	C370,513.4,369.9,513.2,369.9,513z M305.4,525.6C305.4,525.7,305.4,525.7,305.4,525.6C305.4,525.7,305.4,525.7,305.4,525.6z
	 M310.6,488.7c-0.1-0.4-0.1-0.8-0.2-1.2c-0.3-1.5-0.7-3.1-1.2-4.5c-0.7-1.7-1.5-3.3-2.5-4.8l0,0c1.1,1.7,2,3.5,2.7,5.3l0,0
	c0.2,1.1,0.6,2.3,0.9,3.4l0,0C310.4,487.5,310.5,488.1,310.6,488.7c0.1,1.3,0.4,2.6,0.7,3.9c0,1.3,0,2.6-0.1,3.9
	c0,0.6-0.1,1.2-0.1,1.8c-0.1,1.8-0.3,3.5-0.5,5.3c-0.3,2.7-0.7,5.3-1.3,7.9c0.6-2.6,1-5.3,1.4-7.9c0-0.2,0-0.4,0.1-0.6l0.1-0.6
	c0.1-1.2,0.2-2.5,0.4-3.7v-0.1c0-0.1,0-0.2,0-0.3c0-0.6,0.1-1.2,0.1-1.8c0.1-1.3,0.1-2.6,0.1-3.9C311.1,491.3,310.8,490,310.6,488.7
	L310.6,488.7z M265,558.4l-1.8,0.9l0.4-0.2l-0.5,0.2c0.6-0.2,1.2-0.5,1.8-0.9l-0.3,0.2C264.8,558.6,264.9,558.5,265,558.4L265,558.4
	z"/>
<path class="st7" d="M371.5,522.5c0-0.1,0-0.2,0-0.2s0-0.1,0-0.2s0-0.1,0-0.2l0,0v-0.1l0,0c0-0.4-0.1-0.8-0.1-1.2s-0.1-0.8-0.1-1.2
	s-0.1-0.8-0.2-1.2c-0.2-1.6-0.6-3.1-1-4.6l0,0c-0.1-0.3-0.3-0.7-0.4-1c-0.4-0.8-1.1-1.4-1.5-2.2l1.1,1.1c-0.1-0.3-0.3-0.6-0.5-0.9
	c-2.6-5.8-7.7-10.2-13.8-12c-0.3-0.2-0.6-0.4-0.9-0.6H354c0.2,0.4,0.6,0.9,0.7,1.2c5.6,7.5,5.6,15.4,4.9,23.4c0,0.6-0.1,1.1-0.2,1.7
	c-0.1,1.1-0.3,2.3-0.5,3.4c-0.1,0.6-0.2,1.1-0.3,1.7c-0.4,2.3-0.9,4.5-1.4,6.8c-0.3,1.6-1.1,2.1-2.9,1.8c-15.7-3.6-31.3-7-47-10.4
	c-1.4-0.3-1.9-0.8-2-1.6v-0.5l0.3-1.2c0.3-0.8,0.6-1.7,0.9-2.5c0.2-0.5,0.3-1,0.5-1.5s0.3-0.8,0.4-1.2c0.7-2.4,1.3-4.8,1.9-7.2
	l0.1-0.4c0.5-2.6,1-5.3,1.3-7.9c0.2-1.8,0.4-3.5,0.5-5.3c0-0.6,0.1-1.2,0.1-1.8c0.1-1.3,0.1-2.6,0.1-3.9c-0.3-1.3-0.6-2.6-0.8-3.9
	c-0.1-0.6-0.2-1.2-0.3-1.9l0,0c-0.4-1.1-0.7-2.2-0.9-3.4l0,0c-0.7-1.9-1.6-3.7-2.7-5.3l-1.3-0.6l-0.1-0.1l-8.6-4l-1.2-0.5
	c0.1,0.1,0.2,0.3,0.3,0.4c0.3,0.3,0.3,0.3,0.3,0.6c0,0.3,0.1,0.5,0.3,0.7c0.2,0.2,0.2,0.5,0.3,0.6s0.2,0.3,0.3,0.7
	c0.2,0.3,0.3,0.6,0.3,0.9s0.3,0.8,0.3,1.1c0,0.3,0.3,0.8,0.3,1.1c1.5,5.9,1.8,12,0.8,18c-2.9,22.7-13.1,41.9-29.4,57.8
	c-1.1,1-2.2,2-3.4,2.9c-0.2,0.1-0.3,0.2-0.5,0.3l-0.4,0.2h-0.1l-0.2,0.1c-0.6,0.4-1.2,0.7-1.8,0.9l-0.6,0.3
	c-0.2,0.1-0.5,0.2-0.7,0.3c-1.3,0.5-2.8,0.7-4.2,0.7h-1.3c-3.4-0.3-6.7-5-8.3-8.6v-0.1c-0.1-0.4-0.1-0.8-0.1-1.2
	c-0.1-1.5,0-3.1-0.1-4.7c0-0.9-0.1-1.9-0.3-2.8V543l-0.1,0.3c-0.9,3.2-1.2,6.5-0.7,9.8l0.1,1l-6,66.5c-7.3,10.7-9.9,23-11.2,35.5
	c-2.3,20.4-0.3,40.7,1.3,61c1.3,17.2,2.8,34.4,4.4,51.6c1.6,17.8,3.6,35.7,5.2,53.5c1.5,15.4,2.9,30.8,4.4,46.2v1.9
	c0.3,0.9,0.5,1.8,0.6,2.8c1.1,10.3,2.3,20.3,3.2,30.5c0.5,6.3,2,12.5,1.6,18.9c0.2-0.1,0.4-0.2,0.5-0.4l0.1,0.1l0,0
	c0.4,0.7,0.6,1.5,0.8,2.3c0.4,3,1,4.9,2.2,6.2c0.1,0.1,0.3,0.3,0.4,0.4c1.2,1.1,3,1.7,5.6,2.4c1.9,0.5,3.1,0.6,3.7,0.1
	c0.2-0.2,0.4-0.4,0.5-0.7c0.2-1,0.2-2,0.1-3c-0.9-11.2-2.1-22.4-3.1-33.4c-2.8-30-5.8-59.9-8.4-89.9c-3.4-37.6-6.6-75.2-9.6-112.9
	c-0.5-6.3-0.5-12.7-1.3-19l-0.3-2.4c-1.2-10.9-0.1-22,3.1-32.5c0.2-0.5,0.4-1.1,0.5-1.6s0.3-1,0.5-1.5s0.6-1.5,0.8-2.1
	s0.8-1.6,1.1-2.4c0.6-1.2,1.2-2.4,1.7-3.6c0.1-0.1,0.1-0.3,0.2-0.4l0.2-0.5l0.2,0.2v-0.1l1.8,1.6c-0.2,0.3-0.3,0.5-0.5,0.8
	c-0.1,0.1-0.1,0.2-0.2,0.4v0.1l-0.2,0.4c-0.8,1.5-1.6,3.1-2.4,4.7c-0.2,0.3-0.3,0.8-0.5,1.1s-0.3,0.6-0.3,0.9l-0.3,0.9
	c-0.4,1.1-0.8,2.2-1.1,3.4c-0.2,0.5-0.3,1-0.3,1.5c-0.1,0.6-0.2,1.1-0.5,1.6v0.3c-0.3,1.3-0.6,2.7-0.8,4.1c-0.1,0.5-0.2,1-0.2,1.5
	v0.3c-0.1,0.6-0.2,1.3-0.3,1.9c-0.1,0.5-0.2,1.1-0.2,1.6c0,0.8-0.2,1.6-0.2,2.4v1.3c-0.2,3.1-0.2,6.3,0,9.4c0,0.5,0.1,1,0.3,1.4
	c0.2,0.5,0.5,0.8,1,1c0.6,0.1,1.2,0,1.7-0.1c5.3-0.9,10-4,12.8-8.6l0.1-0.1c0.5-0.9,1-1.8,1.4-2.7c3.7-7.8,5.6-16,7.5-24.4l0.3-1.6
	c0.3-1.5,0.3-2.6-1.3-3.4c-2.9-1.3-5.8-2.6-8.6-4l0.6-1.1l0.4-0.9l0.3,0.2l0.1-0.2c0.4,0.3,0.8,0.6,1.3,0.8c0.2,0,0.2,0.2,0.3,0.2
	s0.2,0.1,0.2,0.2l0.8,0.5c5.5,2.8,9.2,5.6,15.2,7.2c1.1,0.3,3.5,0.7,4.6,1c2.4,0.5,5.3,1,7.7,1.3c7.7,1.1,14.7,2,22.4,1.5l2.9-0.1
	c1.3-0.2,2.9-1,4.2-1.1c1.3-0.1,3.1-0.5,4.4-0.7c0.5-0.2,1.1-0.3,1.7-0.4c0.8,0,1.7-0.1,2.5-0.2c0.6-0.1,0.9-0.7,1.5-1.1
	c0.3-0.2,1.2-0.1,1.3-0.2c0.9-0.3,0.9-0.3,1.7-0.6c0.3-0.2,0.5-0.7,0.9-0.9s0.5-0.3,0.8-0.5s0.5-0.3,0.8-0.5c0.5-0.4,1-0.8,1.6-1.1
	c0.3-0.2,0.5-0.5,0.8-0.6l1.3-1.3c0.2-0.3,0.5-0.6,0.8-0.9c0.5-0.6,1.4-0.1,1.8-0.7c0-0.1,0.1-0.1,0.1-0.2c0-0.1,0.2-0.3,0.3-0.5
	s0.1-0.1,0.1-0.2c0-0.1,0.1-0.2,0.2-0.3l0.1-0.4l0.3-0.2l-0.1-1.2l0.1-0.9l8.6-29.6c1.3-3.1,1.8-6.3,3.6-9.2l0,0
	c0-0.1,0-0.2,0.1-0.3h-0.1c2.1-7.9,5.8-15.4,8.8-23c4.3-11.6,7.7-23.3,7.9-35.9v-0.6c0.2,0.1,0.2,0,0.2-0.1v-0.2
	C371.5,522.7,371.5,522.6,371.5,522.5z M264.9,558.5c-0.6,0.4-1.2,0.7-1.8,0.9l0.5-0.2l-0.4,0.2L264.9,558.5c0,0-0.2,0.1-0.3,0.2
	L264.9,558.5z M350.2,559.2c-3,9.8-6.3,19.7-9.2,29.4c-0.4,1.8-1.7,2.1-3.2,2.6c-7.6,2.3-15.3,4.4-22.9,6.8
	c-1.2,0.4-2.6,0.3-3.7-0.3c0-0.1,0-0.1-0.1-0.1c-0.5-0.3-1-0.7-1.4-1.1c-4.8-4.8-9.7-9.7-14.9-14.4c-1.4-1-1.9-2.9-1.3-4.5
	c3.1-9.4,6-18.8,8.9-28.2c0.5-1.6,1.1-2.4,2-2.4c0.6,0,1.2,0.3,1.7,0.6c0,0.1,0,0.1,0.1,0.1c0,0,0.1,0,0.1,0.1h0.1l13.7,2.9
	c0.2-0.1,0.5-0.2,0.8-0.2s0.5,0.1,0.7,0.2c0.3,0.1,0.6,0.3,0.8,0.6c1.6-0.1,3.3,0.2,4.8,0.9c0.1,0.1,0.1,0.1,0.2,0.1
	c0.5-0.3,1.1-0.3,1.5,0.1c0.2,0.1,0.3,0.2,0.4,0.3l3,0.6c0.3-0.3,0.8-0.4,1.2-0.1h0.2c0.2,0.1,0.3,0.2,0.4,0.4l1.5,0.3
	c0.5-0.3,1.2-0.2,1.6,0.2v0.2c2.2,0.1,4.4,0.5,6.5,1.3c0.5-0.3,1.2-0.2,1.6,0.2h0.6c0.9,0,1.8,0.3,2.6,0.7c0.6,0,1.2,0.3,1.6,0.8
	c0.1,0.1,0.2,0.3,0.2,0.5c0,0.1,0,0.1,0,0.2c0,0.1,0,0.1,0,0.2C350.3,558.5,350.3,558.9,350.2,559.2L350.2,559.2z"/>
<path d="M265.4,514.8c0,0.1-0.1,0.1-0.1,0.2l0,0c-0.1,0-0.2,0.1-0.3,0.1c-0.2,0-0.4,0-0.6-0.1s-0.5-0.3-0.7-0.4
	c-1.3-0.7-2.6-1.5-3.9-2.3c-0.5-0.5-1.1-0.8-1.8-0.9h-0.5c-0.2,0.1-0.4,0.2-0.5,0.4l-0.1,0.1c-0.4,0.7-0.5,1.6-0.5,2.4v46.2H256
	c-3.4-0.3-6.7-5-8.3-8.6v-0.1c-0.1-0.4-0.1-0.8-0.1-1.2c-0.1-1.5,0-3.1-0.1-4.7c0-0.9-0.1-1.9-0.3-2.8V543c0.1-1,0.2-1.9,0.3-2.9
	c-0.5-0.9-0.3-2.1,0.5-2.8c0-0.5,0.2-0.8,0.2-1.3c0.6-5.5,2.1-10.8,4.7-15.7l0.8-1.9c-0.2-0.8,0.2-1.6,0.8-2.1l0.9-2.3
	c0.8-1.4,1.2-3,1.1-4.7c2.8,0.8,5.2,2.7,8,4.2l0.2,0.1C265.2,513.7,265.7,514.1,265.4,514.8z"/>
<path class="st5" d="M359.6,522.7c0,0.6-0.1,1.1-0.2,1.7c-0.1,1.1-0.3,2.3-0.5,3.4c-0.1,0.6-0.2,1.1-0.3,1.7
	c-0.4,2.3-0.9,4.5-1.4,6.8c-0.3,1.6-1.1,2.1-2.9,1.8c-15.7-3.6-31.3-7-47-10.4c-1.4-0.3-1.9-0.8-2-1.6v-0.5l0.3-1.2
	c0.3-0.8,0.6-1.7,0.9-2.5c-0.2,0.8-0.5,1.6-0.8,2.3c0,0.2-0.1,0.4-0.1,0.6c0,0,0,0,0,0.1c-0.1,0.2-0.1,0.4-0.1,0.7l0,0
	c0,0,0,0,0,0.1l0,0v0.1v-0.1l0,0l0.3-1.1c0.3-0.7,0.5-1.4,0.8-2.1c0.2-0.5,0.4-1.1,0.5-1.7c0.1-0.4,0.3-0.8,0.4-1.2
	c0.2-0.6,0.4-1.3,0.5-1.9c0.1-0.6,0.4-1.3,0.5-2c0.1-0.4,0.2-0.8,0.3-1.1c0-0.2,0.1-0.3,0.1-0.5c0.2-0.7,0.3-1.4,0.5-2.1
	c0-0.1,0-0.1,0-0.2s0-0.1,0-0.2c0.2-0.8,0.3-1.6,0.5-2.4V509v-0.1c0.1-0.8,0.3-1.5,0.4-2.3l0,0c0.1-0.9,0.3-1.8,0.4-2.6
	c0.1-0.6,0.1-1.1,0.2-1.6c0-0.3,0.1-0.5,0.1-0.8c0.1-0.9,0.2-1.8,0.2-2.6c0-0.1,0-0.2,0-0.2s0,0.1,0,0.2s0-0.2,0-0.3
	c0-0.6,0.1-1.2,0.1-1.8c0.1-1.3,0.1-2.6,0.1-3.9c-0.3-1.3-0.6-2.6-0.8-3.9c-0.1-0.4-0.1-0.8-0.2-1.2c-0.3-1.5-0.7-3.1-1.2-4.5
	c-0.7-1.7-1.5-3.3-2.5-4.8l3.2,1.5l0.3,0.1h0.1l0.2,0.1c0,0.4-0.1,0.7,0,1.1c0,4.1,1.8,7.6,2.4,11.4c3,7.3,6.6,14,13.5,18l0.3,0.2
	c0.4,0.2,0.7,0.4,1.1,0.6s0.7,0.4,1.1,0.5c5.7,2.6,10.4,2.2,14.1-0.8c0.2-0.2,0.5-0.4,0.7-0.6c1.9-2,3.4-4.3,4.4-6.9
	c0.8-1.9,1.3-3.8,1.6-5.8l4.3,0.3c0,0.1,0,0.2,0.1,0.2c0.2,0.4,0.6,0.9,0.7,1.2C360.3,506.8,360.3,514.7,359.6,522.7z"/>
<path class="st5" d="M311.4,492.6c0,1.3,0,2.6-0.1,3.9c0,0.6-0.1,1.2-0.1,1.8c0,0.1,0,0.2,0,0.3s0-0.1,0-0.2c0,0.1,0,0.2,0,0.2
	c0,0.6-0.1,1.2-0.1,1.9c0,0.3,0,0.5-0.1,0.8s0,0.5-0.1,0.8c-0.1,0.5-0.1,1.1-0.2,1.6c-0.1,0.9-0.2,1.8-0.4,2.6l0,0
	c-0.1,0.8-0.2,1.5-0.4,2.3v0.1v0.2c-0.1,0.8-0.3,1.6-0.5,2.4c0,0.1,0,0.1,0,0.2s0,0.1,0,0.2c-0.1,0.7-0.3,1.4-0.5,2.1
	c0,0.2-0.1,0.3-0.1,0.5c-0.1,0.4-0.2,0.8-0.3,1.1c-0.2,0.7-0.4,1.4-0.5,2s-0.4,1.3-0.5,1.9c-0.1,0.4-0.2,0.8-0.4,1.2
	c-0.2,0.6-0.4,1.1-0.5,1.7c-0.2,0.7-0.5,1.4-0.8,2.1l-0.3,1.1l0,0v0.1v-0.1l0,0c0,0,0,0,0-0.1l0,0c0-0.2,0.1-0.5,0.1-0.7
	c0,0,0,0,0-0.1c0-0.2,0.1-0.4,0.1-0.6c0.3-0.8,0.5-1.5,0.8-2.3c0.2-0.5,0.3-1,0.5-1.5s0.3-0.8,0.4-1.2c0.7-2.4,1.4-4.8,1.9-7.2
	l0.1-0.4c0.5-2.6,1-5.3,1.3-7.9c0.2-1.8,0.4-3.5,0.5-5.3c0-0.6,0.1-1.2,0.1-1.8C311.5,495.2,311.5,493.9,311.4,492.6
	c-0.2-1.3-0.5-2.6-0.7-3.9c-0.1-0.6-0.2-1.2-0.3-1.9l0,0c-0.2-1.1-0.5-2.3-0.9-3.4l0,0c-0.7-1.9-1.6-3.7-2.7-5.3l0,0
	c1,1.5,1.9,3.1,2.5,4.8c0.6,1.5,1,3,1.2,4.5c0.1,0.4,0.1,0.8,0.2,1.2C310.8,490,311.1,491.3,311.4,492.6z"/>
<path class="st7" d="M247.6,551.9L247.6,551.9c-0.1-0.5-0.1-0.9-0.1-1.3c-0.1-1.5,0-3.1-0.1-4.7c0-0.9-0.1-1.9-0.3-2.8l0,0
	c0.2,0.9,0.3,1.8,0.3,2.7c0.1,1.5,0,3.1,0.1,4.7C247.5,551,247.6,551.5,247.6,551.9z"/>
<path d="M362,431.5h-0.4c-0.4,0-0.7,0-1.1-0.1h-0.2c-7.5-3.7-12.7-9.9-17.8-16.2c-1-1.3-1.9-1.9-2.8-1.8h-0.1
	c-0.9,0.1-1.8,0.4-2.5,1c-4.5,3-9,6.1-14.1,7.8c-0.8,0.3-1.6,0.5-2.4,0.7l-1.2,0.3c-0.4,0.1-0.9,0.2-1.3,0.2c-0.4,0.1-1,0.1-1.5,0.2
	s-0.9,0.1-1.4,0.1H315c-5-1.6-4.9-1.6-2.4-6.2c2.8-4.9,5.4-9.6,10.2-12.8c4.6-3,8.1-3.8,11.7-2.2c0.2,0.1,0.4,0.1,0.5,0.2
	c1.6,0.8,3.1,1.8,4.3,3.1c0.4,0.4,0.9,0.7,1.4,0.8l0,0c0.4,0,0.9-0.2,1.2-0.5c3.6-2.2,7.2-2.7,10.3-1.8l0.3,0.1c3.2,1.1,6,3.9,7.7,8
	c1.1,2.7,1.6,5.7,1.6,8.6c-0.2,2.4,0,4.9,0.5,7.3C363.6,430.5,363.2,431.3,362,431.5z"/>
<path d="M360.5,431.4h-0.4c-7.5-3.7-12.6-9.9-17.8-16.2c-0.9-1.2-1.8-1.8-2.6-1.8c0.9-0.1,1.7,0.5,2.8,1.8
	c5.2,6.3,10.4,12.5,17.8,16.2H360.5z"/>
<path class="st11" d="M341,453.5c-1.1,2.2-3.5,3.5-6,3.2c-2.6-0.2-4.8-2-5.5-4.5c-0.5-1.8-0.5-3.4,1.5-2.9c2.8,0.5,5.7,0.8,8.6,0.9
	C342.2,450.3,342,451.7,341,453.5z"/>
<path d="M338.9,432.4c-0.5,4.4-1.1,8.8-1.6,13.1c-0.2,0.8-0.3,1.8-1.3,1.6c-0.1,0-0.2,0-0.3-0.1c-0.2,0-0.3-0.1-0.4-0.2l-0.3-0.6v-1
	c0.5-4.9,1-9.6,1.6-14.4c0.2-0.8,0.5-1.8,1.5-1.5c0.3,0.1,0.5,0.4,0.6,0.7C339.1,430.7,338.7,431.6,338.9,432.4z"/>
<path d="M330.3,429.8c-0.2,1.5-1.9,0.8-3.1,1.1h-0.9c-0.9,0.1-2,0.1-1.9-1.3s1-1.2,2-1.1c0.2,0,0.5,0.1,0.7,0.1h0.8
	c0.9-0.1,1.9-0.3,2.3,0.3l0,0C330.4,429.2,330.4,429.5,330.3,429.8z"/>
<path d="M348.7,436.6L348.7,436.6c0,0.2-0.1,0.2-0.1,0.3c-0.3,1.1-0.8,1.9-2.1,1.8c-1,0-1.8-0.7-1.9-1.7v-0.1l0,0v-0.3
	c0-0.9,0.7-1.7,1.6-1.8h0.1h0.6C347.9,434.9,348.6,435.7,348.7,436.6z"/>
<path d="M329.8,434.5v0.1l0,0c0,1-0.9,1.8-1.9,1.8h-0.2c-0.9,0.1-1.7-0.6-1.8-1.5v-0.2c-0.1-0.5,0.1-1.1,0.4-1.5
	c0-0.1,0-0.1,0.1-0.1l0,0c0.3-0.3,0.6-0.5,1-0.6h0.5c0.6,0,1.2,0.4,1.5,0.9c0.1,0.1,0.2,0.3,0.2,0.5c0,0.1,0.1,0.2,0.1,0.3
	C329.8,434.3,329.8,434.4,329.8,434.5z"/>
<path d="M351.1,432.7c0,1.3-1.3,0.9-2.1,0.8c-1.1-0.3-2.9-0.2-3.1-1.8c-0.2-1.3,1.3-0.8,2.1-0.8c0.1,0.1,0.3,0.1,0.5,0.1h0.1
	c0.8,0.2,1.9,0.1,2.3,0.9l0,0l0.1,0.1L351.1,432.7z M350.9,432.1c0,0.1,0.1,0.2,0.1,0.3c0,0.1,0.1,0.2,0.1,0.3L350.9,432.1z"/>
<path class="st8" d="M328.4,991.9L328.4,991.9c-0.8-0.9-1.5-1.9,0-2.9l0,0C326.9,990.2,327.6,991.1,328.4,991.9z"/>
<path class="st8" d="M330,993.1"/>
<path class="st8" d="M330,988.7l-0.8,0.3L330,988.7z"/>
<path d="M306.1,547.7c0.1,0,0.2,0.1,0.2,0.2h0.1C306.3,547.8,306.2,547.8,306.1,547.7z"/>
<path class="st7" d="M346.7,563c-2.3,7.6-4.7,15.3-7,22.9c-0.5,2-2.1,3.6-4.1,4.1c-6.8,1.9-13.8,3.9-20.6,6.2
	c-1.7,0.8-3.8,0.3-5-1.1c-4.5-4.5-9.1-8.9-13.8-13.1c-1.1-0.9-1.6-2.5-1.1-3.9l8.3-25.8c0.3-0.9,0.7-2.1,2.1-1.9
	c10,6.5,21.5,10.2,33.4,10.7c2.4,0.4,4.9,0.1,7.1-0.9C348.2,560.5,347,561.8,346.7,563z"/>
<path class="st9" d="M398.8,628h0.3l0.2-0.2C399.2,628,399,628,398.8,628z M401.7,627.9l0.3,0.2h1.5L401.7,627.9z"/>
<path class="st3" d="M388.4,626.7c-6-0.5-11.8-0.8-17.8-1.3c-4.5-0.3-9.1-1.6-13.6-0.6c-2.6-1.9-6.2-0.2-8.8-1.9
	c-1.5-4.1-0.3-8.1,0.3-12.1c0.8-4.9,2.1-9.6,3.2-14.4c0.5-0.3,0.7-0.9,0.5-1.5c1.1-2.3,2.1-4.5,3.2-6.8c0.8-1.5,2.4-2.4,4.1-2.3
	l0.5,1.6c3.7,7.8,7,15.7,11.2,23.3C375.4,618.3,380.8,624.3,388.4,626.7z"/>
<path d="M480.4,543.7c0.2,4.6-1.4,9.1-4.5,12.5c-1.3,1.3-2.6,3.1-4.9,2.6c0-0.3,0.2-0.7,0.2-0.9c0.2-0.2,0.3-0.5,0.5-0.7
	c5.2-3.8,7.8-10.3,6.5-16.7c-0.3-1.1,0.1-2.2,1.1-2.8c0.5,0.5,0.8,1.1,1.3,1.6C479.8,540.7,480.4,542.4,480.4,543.7z"/>
<path d="M497.6,561.2c-0.5-0.8-0.8-1.1-0.8-1.6c0.4-6.2-1.2-12.4-4.4-17.7c-0.3-0.5-0.6-1.3,0.2-1.8s1.1,0.2,1.6,0.8
	c2.4,3.7,3.9,7.9,4.4,12.3C498.7,555.8,499.5,558.4,497.6,561.2z"/>
<path class="st8" d="M504.1,539.3c-0.3,0.2-0.8,0.8-1.1,0.2c-0.3-0.6,0.5-0.8,0.9-0.8C503.9,538.9,504,539.2,504.1,539.3z"/>
<path class="st8" d="M505.2,555.8h-0.6c-0.2-0.5,0.2-0.5,0.5-0.5C505.2,555.5,505.2,555.7,505.2,555.8z"/>
<line class="st3" x1="317.2" y1="1032.5" x2="315.4" y2="1031.2"/>
<path d="M312.2,691.6"/>
<path d="M350.4,558c0-0.1,0-0.1,0-0.2c0-0.2-0.1-0.4-0.2-0.5c-0.4-0.5-1-0.8-1.6-0.8c-0.8-0.4-1.7-0.7-2.6-0.7h-0.6
	c-0.4-0.4-1.1-0.5-1.6-0.2c-2.1-0.8-4.3-1.2-6.5-1.3v-0.2c-0.4-0.4-1.1-0.5-1.6-0.2l-1.5-0.3c-0.1-0.2-0.2-0.3-0.4-0.4h-0.2
	c-0.4-0.3-0.9-0.2-1.2,0.1l-3-0.6c-0.1-0.1-0.2-0.2-0.4-0.3c-0.4-0.4-1-0.4-1.5-0.1c-0.1,0-0.1,0-0.2-0.1c-1.5-0.7-3.2-1-4.8-0.9
	c-0.2-0.3-0.5-0.5-0.8-0.6c-0.2-0.1-0.5-0.2-0.7-0.2c-0.3,0-0.6,0.1-0.8,0.2l-13.7-2.9h-0.1l-0.1-0.1c-0.1,0-0.1-0.1-0.1-0.1
	c-0.5-0.4-1.1-0.6-1.7-0.6c-0.9,0-1.5,0.8-2,2.4c-2.9,9.4-5.8,18.8-8.9,28.2c-0.6,1.6-0.1,3.5,1.3,4.5c5.2,4.7,10.1,9.6,14.9,14.4
	c0.4,0.4,0.9,0.8,1.4,1.1c0.1,0,0.1,0,0.1,0.1c1.1,0.6,2.5,0.7,3.7,0.3c7.6-2.4,15.3-4.5,22.9-6.8c1.5-0.5,2.8-0.8,3.2-2.6
	c2.9-9.7,6.2-19.6,9.2-29.4C350.4,558.8,350.4,558.5,350.4,558C350.4,558.1,350.4,558.1,350.4,558z M346.7,563
	c-2.3,7.6-4.7,15.3-7,22.9c-0.5,2-2.1,3.6-4.1,4.1c-6.8,1.9-13.8,3.9-20.6,6.2c-1.7,0.8-3.8,0.3-5-1.1c-4.5-4.5-9.1-8.9-13.8-13.1
	c-1.1-0.9-1.6-2.5-1.1-3.9l8.3-25.8c0.3-0.9,0.7-2.1,2.1-1.9c10,6.5,21.5,10.2,33.4,10.7c2.4,0.4,4.9,0.1,7.1-0.9
	C348.2,560.5,347,561.8,346.7,563L346.7,563z"/>
<path d="M267.4,962.9L267.4,962.9l-0.6,0.7v-0.1l0.5-0.8l0.1-0.1l0.1-0.1C267.5,962.7,267.5,962.8,267.4,962.9z"/>
<polygon points="267.5,962.6 267.4,962.6 267.5,962.4 "/>
<path d="M307.3,960l-0.1-0.3l0,0L307.3,960z"/>
<path d="M402.4,834.9c0,1.3-0.2,2.4-0.2,3.7l-0.2,0.5c-0.3,4.1-0.9,8.4-1.6,12.8l-0.2,1.5v0.5c-0.3,1.6-0.5,3.4-0.8,5.2
	c-0.2,0.9-0.3,1.9-0.5,2.9l-0.8,0.2l0.8,0.2c-0.2,1.1-0.5,2.4-0.7,3.6l-0.2,0.7c-0.7,3.6-1.5,7.1-2.4,11l-0.2,0.5
	c-0.2,0.7-0.3,1.3-0.5,1.9c-0.3,2.1-1.1,4.1-2.3,5.8c-0.1,0.4-0.2,0.9-0.3,1.3c-0.2,0.3-0.4,0.5-0.7,0.7l-0.2-0.3l-0.2,0.2
	c-5.1,4-10.4,7.5-17.5,7.6c-14,0.2-24-6.8-32.1-17.2c-1.6-2.1-2.6-4.7-4.7-6.5l-0.2,0.2l-0.3,0.3l-0.2,0.2c-2.9,6.8-6.2,13.5-9.7,20
	l0,0l-0.1-0.4v-0.2c-0.3-0.2-0.6-0.5-0.7-0.8l0,0c0-0.7,0.4-1.4,0.4-2.1c0.1,0,0.1,0,0.1-0.1c0.6-0.2,1-0.7,1.2-1.3v-0.1
	c0.3-0.6,0.4-1.3,0.6-1.8s0.6-1.2,0.9-1.8s0.6-1.2,0.9-1.8c1.4-3.1,3-6.1,4.7-9.1v-0.1l0.2-0.3l0.3-0.4c0.1-0.2,0.3-0.4,0.4-0.7l0,0
	c0.4-1.7,0.2-3.5-0.6-5c-1.7-3.4-2.4-7.2-2.3-11c-1.1-2,0.4-4.3-0.2-6.4l-0.1-0.3l0.5-0.5l0.1-0.8l0.2-0.8c0-0.1,0-0.1,0-0.2
	c0-0.1,0-0.1,0-0.2v-0.1l0,0V846c0-0.1,0-0.2,0.1-0.2c0-0.1,0.1-0.3,0.2-0.4l0,0c0.1-0.1,0.1-0.2,0.2-0.3s0.2-0.2,0.3-0.3
	c0.2-0.2,0.4-0.4,0.6-0.6l0.1-0.1v0.1c0,0.1,0,0.1,0,0.2v0.1c0,0,0,0.2,0,0.4s0,0.3,0,0.5c0,0.8-0.2,1.7-0.5,2.4
	c0.2,2.1,0.3,5.5,0.5,7.8c0,3.5,1.5,6.5,3.1,9.5c0,0.1,0,0.1,0.1,0.2l0.2-0.5c0,0,0.1,0.1,0.1,0.2c4-8.3,8.1-16.6,12.1-24.7
	c0.7-1.5,0.7-3.2,0.2-4.7c-2.8-8.1-5.6-16.1-8.4-24.2c3.3,7.8,6.4,15.6,9.2,23.3c0.4,1,0.5,2,0.4,3c0.1,1.3-0.3,2.6-0.9,3.7
	c-4.4,8.4-8.5,16.5-12.5,24.9c-0.8,0,0.2,1.2,0.3,1.3c6.3,11.1,15.2,18.9,28.3,21.5c11.6,2.5,20.8-1.7,26.8-11.8l0.4-1
	c0.9-4,1.8-7.9,2.4-11.5l0.2-0.6c0.2-1,0.3-2,0.5-2.9V861c0.2-1,0.3-2,0.5-2.9c0.3-1.5,0.4-2.9,0.7-4.2v-0.2c0-0.1,0.1-0.2,0.1-0.3
	l-0.2-0.2l0.3-0.5l0.3-2.3c0.3-2.3,0.6-4.5,0.9-6.7v-0.3c1.4-10.5,1.8-21.1,1.4-31.7c0-0.6-0.1-1.3-0.2-1.9
	c-0.8-9.3-2.5-15.1-3.6-17.9c-0.1-0.2-0.2-0.4-0.3-0.6l-0.2-0.2v-0.3c0-0.2,0-0.3-0.1-0.4c-0.1-0.2-0.2-0.4-0.3-0.6l-0.2-0.2v-0.3
	c-1.1-3.5-29-87.1-37.8-117.6v-0.2c-0.6-1.7-1.1-3.4-1.5-5.2c-2.8-10.5-6.3-20.8-10.4-30.8l-1.5-3.6c-0.7-1.7-1.4-3.4-2.2-5.1
	l-0.6-1.3l-0.3-0.7v0.5l0,0c-5.4,7.7-13.5,10.2-22.3,11.3c-15.2,2-30.7,0.7-45.3-4c-2.8-0.8-3.8-0.4-4.4,2.4
	c-1.6,8.2-4.1,16.3-7.3,24c-3,6.9-7.9,12-15.7,13.1c-2.9,0.4-3.6,1.5-3.5,3.7c0,0.3,0.1,0.7,0.1,1.1c1.6,18.5,2.9,36.8,4.4,55.3
	c2.2,27.5,4.5,55.1,7.1,82.7c3.6,38.6,7.2,77.2,10.9,115.8c0,0.9,0.3,1.8,0.7,2.6c0.7,1.1,1.9,1.4,3.8,1.4
	c10.9-0.2,21.6-2.3,31.8-6.2c4.6-1.6,8.8-4,12.6-7.1c2-1.3,3.3-3.4,3.5-5.8c0.1-0.4,0.1-0.9,0-1.3c0-0.2-0.1-0.5-0.1-0.7v0.6
	l-0.1-0.1c0-0.1,0-0.2,0-0.2v-0.4c0.1,0.1,0.2,0.2,0.3,0.3v0.1c0,0.1,0.1,0.3,0.1,0.4v-0.6c0.5,0.7,0.9,1.5,0.9,2.4v1.3
	c0,0.3-0.1,0.5-0.1,0.7v0.1c0,0.1-0.1,0.2-0.1,0.3c-3.4,5.2-8.6,8.1-14.1,10.6c-10.8,4.9-22.5,7.6-34.4,8.1c-1.6,0-4.1-0.8-4.4,2.3
	c0.1,0.2,0.1,0.3,0.2,0.5s0,0.2,0.1,0.2c0.7,2.4,0.9,5,0.6,7.5c0.7,4,1,8,1,12c0,0.8,0.2,1.5,0.2,2.3c0,0.3,0.1,0.6,0.3,0.9
	c3.1,0.8,6.3,0,9.4,0.3c0.2-0.4,0.7-0.6,1.1-0.4l0.2,0.1c0.2,0,0.2,0.2,0.3,0.2c9.1-1.6,18.1-3.8,26.9-6.7v0.3l0.6,2.7l0.1,0.3
	c-0.1,0.1-0.1,0.3-0.2,0.4c-0.3,0.6-0.5,1.2-0.6,1.9h-0.1c-12.6,2.3-25,4.9-36,11.7c-0.7,0.3-1.1,0.5-1.8,0.8l-0.1-0.8
	c-0.6-3.4-1-6.8-1.6-10.3l0.6-0.8l0.1,0.1c0.1-0.1,0.2-0.3,0-0.3h0.1v-0.1c0.1-0.1,0.1-0.2,0.1-0.3v-0.1l-0.1-0.1l-0.2-1.8
	c-0.9-2.6-0.5-5.4-0.9-8.1c-0.9-2.4-1.3-4.9-1.3-7.4v-4.8c0-1.9-1.5-2.3-2.9-2.4c-2.3-0.2-4.4-0.5-6.7-0.7l-0.8-0.3
	c-3.1-0.7-6-2.2-8.4-4.3h-0.2c-1.9-4.5,0.7-7,3.7-9.5c0.2-0.1,0.3-0.2,0.5-0.4c0.3,0.7,0.6,1.4,0.7,2.2c0.4,3.1,1,5,2.3,6.3
	c0.1,0.1,0.3,0.3,0.4,0.4c1.2,1.1,3,1.7,5.6,2.4c1.9,0.5,3.1,0.6,3.7,0.1c0.2-0.2,0.4-0.4,0.5-0.7c0.2-1,0.2-2,0.1-3
	c-0.9-11.2-2.1-22.4-3.1-33.4c-2.8-30-5.8-59.9-8.4-89.9c-3.4-37.6-6.6-75.2-9.6-112.9c-0.5-6.3-0.5-12.7-1.3-19l-0.3-2.4
	c-1.2-10.9-0.1-22,3.1-32.5c0.2-0.5,0.4-1.1,0.5-1.6s0.3-1,0.5-1.5s0.6-1.5,0.8-2.1s0.8-1.6,1.1-2.4c0.6-1.2,1.2-2.4,1.7-3.6
	c0.1-0.1,0.1-0.3,0.2-0.4l0.2-0.5l0.2,0.2v-0.1l1.8,1.6c-0.2,0.3-0.3,0.5-0.5,0.8c-0.1,0.1-0.1,0.2-0.2,0.4v0.1l-0.2,0.4
	c-0.8,1.5-1.6,3.1-2.4,4.7c-0.2,0.3-0.3,0.8-0.5,1.1s-0.3,0.6-0.3,0.9l-0.3,0.9c-0.4,1.1-0.8,2.2-1.1,3.4c-0.2,0.5-0.3,1-0.3,1.5
	c-0.1,0.6-0.2,1.1-0.5,1.6v0.3c-0.3,1.3-0.6,2.7-0.8,4.1c-0.1,0.5-0.2,1-0.2,1.5v0.3c-0.1,0.6-0.2,1.3-0.3,1.9
	c-0.1,0.5-0.2,1.1-0.2,1.6c0,0.8-0.2,1.6-0.2,2.4v1.3c-0.2,3.1-0.2,6.3,0,9.4c0,0.5,0.1,1,0.3,1.4c0.2,0.5,0.5,0.8,1,1
	c0.6,0.1,1.2,0,1.7-0.1c5.3-0.9,10-4,12.8-8.6l0.1-0.1c0.5-0.9,1-1.8,1.4-2.7c3.7-7.8,5.6-16,7.5-24.4l0.3-1.6
	c0.3-1.5,0.3-2.6-1.3-3.4c-2.9-1.3-5.8-2.6-8.6-4l0.6-1.1l0.4-0.9l0.3,0.2c0.3,0.2,0.6,0.4,1,0.5c0.2,0,0.2,0.2,0.3,0.2
	s0.2,0.1,0.2,0.2l0.8,0.5c5.6,2.8,11.5,5,17.5,6.7c1.1,0.3,2.1,0.5,3.2,0.8c2.5,0.6,5.1,1.1,7.7,1.5c7.6,1.1,15.4,1.4,23.1,0.9
	l2.1-0.2c1.3-0.2,2.6-0.2,3.9-0.3s2.6-0.4,3.9-0.6c0.6-0.1,1.3-0.2,1.9-0.3c0.7-0.2,1.3-0.3,1.8-0.5c0.6-0.1,1.3-0.3,1.8-0.7
	c0.3-0.2,0.7-0.2,0.8-0.3c0.9-0.3,1.8-0.8,2.6-1.1c0.3-0.2,0.5-0.3,0.8-0.5s0.5-0.3,0.8-0.5s0.5-0.3,0.8-0.5c0.5-0.4,1-0.8,1.6-1.1
	c0.3-0.2,0.5-0.5,0.8-0.6l1.3-1.3c0.2-0.3,0.5-0.6,0.8-0.9c0.5-0.6,0.9-1.2,1.3-1.8c0-0.1,0.1-0.1,0.1-0.2c0-0.1,0.2-0.3,0.3-0.5
	s0.1-0.1,0.1-0.2c0-0.1,0.1-0.2,0.2-0.3s0.1-0.2,0.1-0.4l0.3-0.2l0.1-0.1l0.5-0.3l1.1,2.3c3.1,6.7,5.9,13.6,8.5,20.5
	s4.8,14,6.6,21.2c0.4,1.8,0.9,3.5,1.5,5.2v0.2c1.3,4.5,3,10,5,16.3s4.1,13.2,6.4,20.5c6,17.8,12,35.9,17.5,53.9
	c0.2,0.4,0.3,0.8,0.3,1.3c4.7,14.1,8.1,24.3,8.4,25.5v0.2c0.5,0.9,3.7,7.8,4.9,22.7C403.2,819.2,403.1,827.1,402.4,834.9z"/>
<path d="M253.6,930.7c-1.3-1.3-1.9-3.3-2.3-6.3c-0.2-0.7-0.4-1.5-0.7-2.2l0,0c0.4,0.7,0.6,1.5,0.8,2.3
	C251.8,927.4,252.4,929.3,253.6,930.7z"/>
<path d="M279.8,631.8c-6.1-1.6-11.9-3.8-17.6-6.7l-0.8-0.5c0-0.1-0.1-0.2-0.2-0.2s-0.1-0.2-0.3-0.2c-0.4-0.1-0.7-0.3-1-0.5l0.1-0.2
	c0.4,0.3,0.8,0.6,1.3,0.8c0.2,0,0.2,0.2,0.3,0.2s0.2,0.1,0.2,0.2l0.8,0.5C268.1,628,273.8,630.2,279.8,631.8z"/>
<path d="M318.4,915.6c-0.2,2.4-1.5,4.5-3.5,5.8c-3.8,3.1-8,5.5-12.6,7.1c-10.2,3.9-20.9,6-31.8,6.2c-1.9,0-3.1-0.3-3.8-1.4
	c0.7,0.8,1.9,1,3.5,1c10.9-0.2,21.6-2.3,31.8-6.2c4.6-1.7,8.9-4.1,12.7-7.1c2-1.3,3.3-3.4,3.5-5.8c0.1-0.4,0.1-0.7,0-1.1l0.1,0.1
	v-0.6c0,0.2,0.1,0.5,0.1,0.7C318.5,914.7,318.5,915.2,318.4,915.6z"/>
<path d="M318.6,914v0.3c0-0.1-0.1-0.3-0.1-0.4v-0.1c-0.1-0.1-0.2-0.2-0.3-0.3v0.4c0-0.2,0-0.5-0.1-0.7l0.1,0.1
	c0.1,0.1,0.2,0.2,0.3,0.3l0,0c0,0.1,0,0.2,0.1,0.3C318.6,913.9,318.6,914,318.6,914z"/>
<path d="M326.4,892.3v-0.2c-0.3-0.2-0.5-0.5-0.7-0.8c0-0.1,0-0.2,0-0.3c0.1,0.3,0.4,0.6,0.7,0.8v0.2V892.3L326.4,892.3z"/>
<path d="M329.1,763.8c-0.1,0.1-0.3,0.2-0.3,0.3c-0.2,1.1-0.8,1.1-1,2.2c-1.3,0.1,0.6,2.5,0.6,2.5c1,1.2-2.4,2.1-1.9,3.5
	c0.1,0.4,0.3,0.7,0.4,1.1c-0.8,0.2-1.6,0.6-2.3,1.2c-1.8,3.4-3.3,7.4-6.5,9.5l-0.1,0.5c0-1.1,0-0.1-0.1-0.2l-0.1-0.1
	c0,0.1,0,0.1,0.1,0.3c0,0,0,0,0,0.1l-0.3,0.2v-0.1c0,0,0,0,0-0.1l-0.1-0.2c0,0,0.1,0,0-0.1l-0.1-0.1v-0.1l0,0c0-0.1,0-0.1-0.1-0.2
	c0,0.1,0,0.1,0.1,0.2c0.1,0.1,0,0,0,0.1c-0.1-0.1-0.1-0.2-0.2-0.2c-0.2-0.4-0.4-0.8-0.6-1.1c-2.1-4.6-3.1-9.6-5-14.3
	c-0.1-0.1-0.1-0.2-0.1-0.4c-0.1-0.4-0.1-0.7-0.2-1.1c0-0.1,0-0.1,0-0.2c0-0.1-0.1-0.3-0.1-0.4c-0.2-0.6-0.6-1.1-1.1-1.4V765
	c-0.1-0.1-0.1-0.1-0.2-0.1s0,0.1,0,0.2c-0.5-2.2-0.8-4.4-0.8-6.7v-2c0-3,0.2-6,0.3-9v-2.6c0-3.6,0.1-7.2,0.3-10.9v-0.4
	c-0.8-6.5-0.9-13-0.2-19.5v-0.2c0.2-1.3,0.3-2.6,0.5-3.9v-2.1c0-2.1,0.1-4.2,0.1-6.3v-2.8c-0.3-2.3-0.4-4.7-0.4-7v-5.5
	c0.1-2.7,0.2-5.5,0.2-8.2v-6.4c0-0.6,0.1-1.5,0.8-1.8l0,0c0.2-0.1,0.5-0.1,0.7-0.1c0.8,0.1,1,0.5,1,1c0,0.3-0.1,0.6-0.1,0.9v4.6
	c0,5,0.1,9.9-0.1,14.8v2.1c0,1.6,0.3,5,1.9,11.3c0.4,1.3,0.6,2.7,0.9,4.1c1.6,8.5,2,17.6,5.3,25.4c4.6,11.5,8.2,19,8.3,25.6
	c0,0.2,0.4,0.4,0.4,0.6l0.2,0.2c0.2,0.9-1,1.7-1.1,2.6C327.9,763.2,328.6,763.5,329.1,763.8z"/>
<path d="M311.1,766.6c0,0.1,0.1,0.3,0.1,0.4c-0.2-0.6-0.6-1.1-1.1-1.4l-0.2-0.1l0,0v-0.3c-0.1,0-0.1-0.1-0.2-0.1v0.3
	c0-0.2-0.1-0.3-0.1-0.5c-0.5-2.1-0.7-4.2-0.7-6.3v-2c0.1-3,0.3-6,0.3-9V745c0-3.6,0.1-7.1,0.3-10.9v-0.5c-0.8-6.5-0.8-13-0.2-19.5
	v-0.2c0.1-1.3,0.3-2.6,0.5-3.9v-2.1c0-2.1,0.1-4.2,0.1-6.3v-2.8c-0.2-2.3-0.3-4.7-0.4-7v-5.5c0-2.7,0.1-5.5,0.2-8.2v-6.4
	c0-0.7,0.1-1.7,1-1.9c-0.7,0.3-0.8,1.2-0.8,1.8v6.4c0,2.7-0.1,5.5-0.2,8.2v5.5c0,2.3,0.1,4.7,0.4,7v2.8c0,2.1-0.1,4.2-0.1,6.3v2.1
	c-0.2,1.3-0.3,2.6-0.5,3.9v0.2c-0.7,6.5-0.6,13,0.2,19.5v0.4c-0.2,3.7-0.3,7.3-0.3,10.9v2.6c-0.1,3-0.3,6-0.3,9v2
	c0,2.2,0.3,4.5,0.8,6.7c0,0,0-0.1,0-0.2c0-0.1,0.1,0,0.2,0.1v0.2C310.6,765.5,311,766,311.1,766.6z"/>
<path d="M317.3,784c0,0.1,0.1,0.1,0.1,0.2C317.3,784.1,317.3,784.1,317.3,784z"/>
<path d="M317.5,784.5C317.4,784.6,317.4,784.6,317.5,784.5l-0.1-0.1c-0.2-0.4-0.4-0.7-0.6-1.1c-2.1-4.5-3.1-9.6-5-14.3
	c-0.1-0.3-0.2-0.5-0.2-0.8c0,0.1,0.1,0.3,0.1,0.4c1.9,4.7,2.9,9.7,5,14.3c0.2,0.3,0.4,0.7,0.6,1.1c0.1,0.1,0.1,0.2,0.2,0.2
	c0,0,0,0,0-0.1l0,0v0.1l0.1,0.1C317.6,784.5,317.5,784.5,317.5,784.5l0.1,0.2C317.6,784.7,317.5,784.7,317.5,784.5L317.5,784.5z"/>
<path d="M317.6,784.8L317.6,784.8L317.6,784.8c-0.1,0-0.1-0.1-0.2-0.2C317.5,784.7,317.6,784.8,317.6,784.8z"/>
<path d="M399.9,843.3v0.3c-0.3,2.2-0.6,4.4-0.9,6.7l-0.3,2.3l-0.3,0.5l0.2,0.2c0,0.1-0.1,0.2-0.1,0.3v0.2c-0.3,1.3-0.4,2.7-0.7,4.2
	c-0.2,0.9-0.3,1.9-0.5,2.9v0.3c-0.2,0.9-0.3,1.9-0.5,2.9l-0.2,0.6c-0.6,3.6-1.5,7.5-2.4,11.5l-0.4,1c-6,10.1-15.2,14.3-26.8,11.8
	c-13.1-2.6-22-10.4-28.3-21.5c-0.1-0.1-1.1-1.3-0.3-1.3c4-8.4,8.1-16.5,12.5-24.9c0.6-1.1,1-2.4,0.9-3.7c0.1-1,0-2-0.4-3
	c-2.7-7.7-5.9-15.5-9.2-23.3c2.8,8.1,5.6,16.1,8.4,24.2c0.5,1.5,0.5,3.2-0.2,4.7c-4,8.1-8.1,16.4-12.1,24.7c0-0.1,0-0.1-0.1-0.2
	c4-8.1,8-16.3,11.9-24.2c0.6-1.5,0.6-3.2,0-4.7c-3.8-10.8-7.5-21.7-11.2-32.5c-2.9-8.4-5.8-16.9-8.8-25.3c-0.6-1.8-0.5-4-2.3-5.3
	c-0.1-0.1-0.2-0.1-0.3-0.2v0.1c-0.1,0.2-0.1,0.4-0.2,0.6c-0.1,0.2-0.2,0.4-0.2,0.6c-0.5,1.1-1.1,2.1-1.9,2.9c-1.7,3.2-4.2,5.9-7.2,8
	c0,0,0,0,0-0.1c-0.1-0.2-0.1-0.2-0.1-0.3l0.1,0.1c0.1,0.1,0.1-0.9,0.1,0.2l0.1-0.5c3.2-2.1,4.7-6.1,6.5-9.5c0.7-0.6,1.5-1,2.3-1.2
	c-0.1-0.4-0.3-0.7-0.4-1.1c-0.5-1.4,2.9-2.3,1.9-3.5c0,0-1.9-2.4-0.6-2.5c0.2-1.1,0.8-1.1,1-2.2c0-0.1,0.1-0.2,0.3-0.3
	c-0.5-0.3-1.2-0.5-1.2-0.8c0.1-0.9,1.3-1.7,1.1-2.6l-0.2-0.2c0-0.2-0.4-0.4-0.4-0.6c-0.1-6.6-3.7-14.1-8.3-25.6
	c-3.3-7.8-3.6-17-5.3-25.4c2.3,8.2,5.1,16.2,8.4,24.1c4.6,11.5,6.2,20.4,6.3,26.9v1.3c0,0.8,0,1.6-0.1,2.4c0,0.1,0,0.2,0,0.3
	s0,0.3,0,0.4c0,0.1,0,0.1,0,0.2c-0.2,1.1-0.3,2.1-0.5,3.2l0.1,0.1c1,1.1,0.7,2.9,1.2,4.3c7.3,20.8,14.3,41.5,21.6,62.1
	c0.5,1.2,0.7,2.4,0.6,3.7c0,1.4-0.4,2.7-1.1,3.9c-4.4,8.4-8.4,16.9-12.5,25.3c0.1,0.1,0.1,0.2,0.2,0.3c6.3,11,14.9,19.3,27.9,21.9
	c11.5,2.4,20.8-1.8,26.8-11.8l0.4-1c1-4.1,1.8-7.9,2.4-11.5l0.2-0.6c0.2-0.9,0.3-1.9,0.5-2.9v-0.3c0.2-0.9,0.3-1.9,0.5-2.9
	c0.3-1.4,0.4-2.8,0.7-4.2v-0.2c0-0.1,0-0.2,0.1-0.3l-0.2-0.2l0.3-0.5l0.3-2.3c0.4-2.2,0.7-4.5,0.9-6.7L399.9,843.3
	c1.3-10.6,1.7-21.4,1.1-32.1c0-0.6,0-1.3-0.2-1.9c-0.8-9.3-2.5-15.1-3.6-17.9c-0.2-0.5-0.4-1-0.6-1.5l-0.3-0.6l-0.2-0.2v-0.3
	c-1.1-3.6-29-87.1-37.8-117.6V671c-0.6-2.1-1.1-3.7-1.5-5.2c-2.8-10.5-6.3-20.8-10.4-30.8l-1.5-3.6c-0.7-1.7-1.5-3.4-2.2-5.1l-0.4-1
	l0,0v-0.5l0.3,0.7l0.6,1.3c0.8,1.7,1.5,3.4,2.2,5.1l1.5,3.6c4.1,10,7.6,20.3,10.4,30.8c0.4,1.8,0.9,3.5,1.5,5.2v0.2
	c8.8,30.5,36.7,114.1,37.8,117.6v0.3l0.2,0.2c0.1,0.2,0.2,0.4,0.3,0.6c0.1,0.1,0.1,0.2,0.1,0.4v0.3l0.2,0.2c0.1,0.2,0.2,0.4,0.3,0.6
	c1.1,2.8,2.8,8.6,3.6,17.9c0.1,0.6,0.2,1.3,0.2,1.9C401.8,822.2,401.3,832.8,399.9,843.3z"/>
<path d="M318.6,914L318.6,914z"/>
<path d="M309.2,747.5c0,3-0.3,6-0.3,9C308.9,753.5,309.2,750.5,309.2,747.5z"/>
<path d="M310,765.2c0,0,0,0.1,0.1,0.1c-0.1,0-0.2,0-0.2-0.1c0,0,0,0,0-0.1c0,0,0,0,0-0.1s0-0.1,0-0.2c0-0.1,0.1,0,0.2,0.1
	C310,765.1,309.9,765.1,310,765.2z"/>
<path d="M317.9,784.7L317.9,784.7c-0.1-0.2-0.2-0.3-0.2-0.5c0,0.1,0,0.1,0.1,0.2C317.9,784.5,317.8,784.5,317.9,784.7L317.9,784.7z"
	/>
<path d="M392.8,885.8c0.1,0.5,0,0.9-0.3,1.3C392.6,886.7,392.7,886.2,392.8,885.8z"/>
<path class="st2" d="M382.9,1063.8l-6-1.9h-0.2l-4.4-1.5l0,0l-3.6-1.1h-0.2l-16.7-5.4h-0.2l-2.6,7.5c-0.3,0.9-1.3,1.4-2.2,1.2h-0.1
	l-17.4-5.2c-2.9-0.6-5.7-1.5-8.4-2.6l-0.8-0.3l0,0c-13.3-4.2-27.6-4.1-41.2-6.8v-0.2h-0.2c0,3.6-1.5,7.1-0.9,10.9
	c1.9,0.3,3.7,0.8,5.5,1.5c0.5,0.2,1.1,0.5,1.6,0.7l0.9,0.5c0.3,0.1,0.6,0.3,0.8,0.5c1.4,0.7,2.7,1.6,3.9,2.6
	c0.2,0.2,0.5,0.3,0.6,0.7c1.1,1,2.1,2.1,2.9,3.4c0.3,0.3,0.5,0.7,0.7,1.1c0.2,0.3,0.3,0.5,0.5,0.8c0.2,0.2,0.3,0.5,0.3,0.8
	c0.2,0.2,0.3,0.5,0.3,0.8c0.1,0.2,0.2,0.5,0.3,0.8c0.2,0.2,0.2,0.3,0.2,0.7c0,0.2,0.2,0.3,0.2,0.7c0,0.2,0,0.2,0.2,0.3
	c0,0.2,0.2,0.3,0.2,0.5v0.3c0,0.3,0.1,0.5,0.2,0.8v0.7c0,0.3,0.2,0.6,0.2,0.9c0,0.5,0.2,0.8,0.2,1.3c0.2,2.8-0.6,3.9-3.6,3.7
	c-6.7-0.2-13.5-0.2-20.1-0.2l0,0c-1.6,4.9-0.9,5.7,4.2,5.7h69c4.1,0,8.1,0.2,12.1-0.2l0,0c18.2,0,24.5-12.1,26.4-18.7
	c0.8-2.1-0.3-4.4-2.4-5.2C383.1,1063.9,383,1063.9,382.9,1063.8z"/>
<path class="st2" d="M352.1,1053.9h-0.2v-0.2L352.1,1053.9z"/>
<path class="st2" d="M382.1,1071.8"/>
<polygon class="st2" points="382.9,1070.9 382.7,1070.9 382.7,1070.9 382.7,1070.9 "/>
<path class="st5" d="M337.1,1053.8c0,0.2-0.2,0.3-0.2,0.5v-0.2L337.1,1053.8z"/>
<path class="st5" d="M332.4,1057.8"/>
<path class="st5" d="M334.1,1058.3"/>
<path d="M562.2,527.3c-0.8,0.9-2.1,1.4-3.3,1.2l0,0C560.1,528.6,561.3,528.2,562.2,527.3z"/>
<path d="M570.3,542.4L570.3,542.4z"/>
<path d="M569.5,542.6L569.5,542.6z"/>
<polygon points="588.8,570.5 588.6,570.5 588.1,570.4 588.1,570.1 588.6,570.4 "/>
<path d="M575.3,540.9L575.3,540.9v0.2l-0.2,0.2l0,0C575.2,541,575.3,540.9,575.3,540.9z"/>
<path d="M576.1,540c-0.1,0.2-0.2,0.4-0.3,0.5l0,0C575.9,540.3,576,540.2,576.1,540z"/>
<path d="M579.6,535.9L579.6,535.9l-0.1,0.2C579.4,536.1,579.5,536,579.6,535.9L579.6,535.9z"/>
<path d="M580.2,535c-0.1,0.1-0.1,0.3-0.2,0.4l0,0c0,0,0-0.1,0.1-0.1C580.1,535.2,580.1,535.1,580.2,535z"/>
<path d="M582.9,531.5c-0.1,0.2-0.2,0.4-0.2,0.7l-0.1,0.1c0-0.1,0-0.2,0.1-0.2c0-0.1,0.1-0.2,0.1-0.3
	C582.8,531.6,582.8,531.5,582.9,531.5z"/>
<polygon points="588.6,570.5 588.1,570.4 588.1,570.4 "/>
</svg>
