<svg id="Livello_1" data-name="Livello 1" xmlns="http://www.w3.org/2000/svg" width="656.64" height="557.75" viewBox="0 0 656.64 557.75">
  <defs>
    <style>
      .cls-1 {
        fill: #010101;
      }

      .cls-2 {
        fill: #f6c5a7;
      }

      .cls-3 {
        fill: #fcb301;
      }

      .cls-4 {
        fill: #f1b17d;
      }

      .cls-5 {
        fill: #f64542;
      }

      .cls-6 {
        fill: #231b0d;
      }

      .cls-7 {
        fill: #050201;
      }

      .cls-8 {
        fill: #fe6301;
      }

      .cls-9 {
        fill: #27231a;
      }

      .cls-10 {
        fill: #030202;
      }

      .cls-11 {
        fill: #abb3ba;
      }

      .cls-12 {
        fill: #fefefe;
      }

      .cls-13 {
        fill: #fff;
      }
    </style>
  </defs>
  <title>paginaspedizioni</title>
  <g>
    <path class="cls-1" d="M1141.25,827.11a85.74,85.74,0,0,1-15.08-2.61c-18.05-5.48-31.52-16.75-41.26-32.71a58,58,0,0,1-5.35-11.21c.59-.22,1.18-.46,1.79-.66A35.69,35.69,0,0,0,1099,767a52.87,52.87,0,0,0,8.45-18.89,71,71,0,0,1,3-9.6c2.6-6.43,6.09-12.28,11.4-16.89l5,7.6c-.81.52-1.6,1.07-2.42,1.55-12.57,7.4-17.15,21-13.69,34.73,3.14,12.52,16.3,26.81,33.43,28.19,14.4,1.16,27.34-5.54,33.83-18a39.43,39.43,0,0,0,4.29-22.49c-.5-4.94-1.44-9.82-4.9-13.74a12.54,12.54,0,0,0-.66-6.1c-1.88-6-3.79-11.95-5.66-17.94-.43-1.34-.38-1.36,1.24-1.62a110.87,110.87,0,0,0,11.66,1,77.83,77.83,0,0,0,16.62-1.28,58.71,58.71,0,0,1,12.71,21.74,42.19,42.19,0,0,1,2.32,11.7c0,.38,0,.81.41,1v11c0,1.3-.8,2.53-.4,3.87-.07,1-.07,1.92-.22,2.86a73.8,73.8,0,0,1-10.5,28.51c-10,15.77-23.72,26.47-42.09,30.82a132,132,0,0,1-13.7,2.08Z" transform="translate(-559.32 -269.36)"/>
    <path class="cls-2" d="M559.32,465.68l.75,0c.06.79.16,1.58.15,2.37q0,8.34,0,16.69a16.07,16.07,0,0,1-.11,4l-.75,0Z" transform="translate(-559.32 -269.36)"/>
    <path class="cls-2" d="M856.92,269.78a1,1,0,0,0,0-.42h7.2a.66.66,0,0,0,0,.44Z" transform="translate(-559.32 -269.36)"/>
    <path class="cls-3" d="M875.21,368.58c2.92,7.08,5.78,14.19,8.77,21.24,4.14,9.78,8.53,19.45,13.42,28.89a8.61,8.61,0,0,1,.34.89,12.48,12.48,0,0,1-5,7.33,73.58,73.58,0,0,1-8,5.1,69.79,69.79,0,0,1-6.58-7.68c.79-1.23.07-2.05-.72-2.92-4.87-5.41-9.7-10.85-14.59-16.24-.5-.56-1-1.93-1.9-1.16-.68.59.52,1.31,1,1.85,4.56,5.15,9.16,10.25,13.73,15.39,1.86,2.09,2,1.44.25,4.16a92.78,92.78,0,0,1-9.25,11.93c-6.69,7.33-14.2,13.6-23.24,17.85a27.16,27.16,0,0,1-7.62,2.75.72.72,0,0,0-.12-.21,269.45,269.45,0,0,1-38-50.57c-.4-.68-.87-1.32-1.3-2a2.59,2.59,0,0,0-.18-.65c-.15-.22-.22-.7-.56-.54s-.17.56-.06.86c0,.13.19.23.28.35-.11,1.41.67,2.59,1.08,3.86A191.6,191.6,0,0,0,814.64,448,157.43,157.43,0,0,0,826,464.8c1,1.32,1.08,1.32,2.43.38,2.83-1.94,5.64-3.92,8.45-5.88a4.86,4.86,0,0,1,1.66,1.36,154.16,154.16,0,0,0,18.25,15.49c-.25.37-.1.76-.07,1.15a63.77,63.77,0,0,1-.29,15.06c-1.09,7-3.92,12.9-9.65,17.32A106,106,0,0,1,834.54,518a149.81,149.81,0,0,1-50,17.87,161.73,161.73,0,0,1-17.14,1.71,3,3,0,0,1-3.14-1.61c-.72-1.24-1.59-2.39-2.39-3.58-.28-.57-.54-1.15-.85-1.7a123,123,0,0,1-15.87-57.16,144.81,144.81,0,0,1,6.21-46.6c5.72-19.34,14.59-36.95,28.21-52C794.71,358.17,813,346.56,835,341.2c2.1-.51,2.08-.51,3.22,1.26A76.87,76.87,0,0,0,844,351c1.64,2.16,3.22,4.38,4.93,6.48a51.92,51.92,0,0,0,12,11.24,16.25,16.25,0,0,0,6.44,2.44C870.49,371.57,872.9,370.27,875.21,368.58Z" transform="translate(-559.32 -269.36)"/>
    <path class="cls-3" d="M1200.52,713.45a77.83,77.83,0,0,1-16.62,1.28,110.87,110.87,0,0,1-11.66-1c-.6-.56-1.34-.36-2-.38a26.84,26.84,0,0,1-2.82-.25c-3.83-.54-7.58-1.56-11.46-1.75a3.78,3.78,0,0,0-2.31-.42,53,53,0,0,0-11,.56,42,42,0,0,0-14.23,5.1,24.61,24.61,0,0,0-6.6,5c-5.31,4.62-8.8,10.47-11.4,16.9a71,71,0,0,0-3,9.6A52.87,52.87,0,0,1,1099,767a35.69,35.69,0,0,1-17.66,13c-.61.2-1.2.44-1.79.66a54.08,54.08,0,0,1-11.62,1.35c-1.2,0-2.4-.24-3.58-.21-2.16,0-3.23-1-4.12-2.86a103.07,103.07,0,0,1-9.5-33.69,97,97,0,0,1,.13-19.12,15.31,15.31,0,0,0,.4-1.62,72.19,72.19,0,0,1,8-24.22c8.46-15.48,20.7-27.3,35.65-36.44a110.73,110.73,0,0,1,16.85-8l12.46-3.45c3.25-.44,6.44-1.32,9.73-1.46,2.39-.17,4.78-.34,7.17-.53.13,0,.24-.17.36-.27l.09,0,1,0c4.71,0,9.44,0,14.09.84,6.88,1.32,13.26,4.08,19.45,7.26,10.73,5.51,20.08,12.75,27.41,22.43a68.44,68.44,0,0,1,9.85,18.55,7.54,7.54,0,0,1-.78,6.83,14.23,14.23,0,0,1-5.85,5.18A66.37,66.37,0,0,1,1200.52,713.45Z" transform="translate(-559.32 -269.36)"/>
    <path class="cls-2" d="M856.82,476.15a154.87,154.87,0,0,1-18.24-15.49,4.86,4.86,0,0,0-1.66-1.36l-.08-.19c2.2-.91,4.46-1.7,6.61-2.74,12.87-6.22,23.09-15.51,31.28-27.14,1.14-1.63,2.29-3.25,3.44-4.88a69.79,69.79,0,0,0,6.58,7.68,62.18,62.18,0,0,0,6.49,7.62c4.35,4.76,8.69,9.56,13.39,14a5.86,5.86,0,0,0,2,1.31c3.5,1.33,7,2.69,10.51,4,8.91,3.22,17.81,6.49,26.77,9.56,10.39,3.55,20.81,7.05,31.56,9.38,2.75.59,5.6,1.43,8.42,0,.4-.2,1,0,1.4-.21,1.64-.63,3.48-.07,5.08-.91,2.21,0,4.43,0,6.64-.08a18.05,18.05,0,0,1,7.43,1.15,6.15,6.15,0,0,0,2.31.43c1,1.78,3,2.41,4.39,3.79a12.16,12.16,0,0,1,2.28,8.72,14.37,14.37,0,0,0-.5,3.26,13.28,13.28,0,0,1-3.07,3.8c-1.36.93-1.83.7-2.23-1.09v.14l.53-.66c.36-.52.73-1,1-1.58a7,7,0,1,0-13-2.43,7,7,0,0,0,5.91,5.77c.62.1,1.25.17,1.88.25a6.16,6.16,0,0,1,3,2.36,3,3,0,0,1-.48.41,5.41,5.41,0,0,1-.69.19c-4.15,1.05-8,0-11.86-1.53a37,37,0,0,1-7.47-4.24,3,3,0,0,0-2.4-.57c-6.54.91-13.08,1.85-19.65,2.43-6.35.55-12.73.81-19.1,1-7.34.2-14.66-.32-22-.79-4-.26-8-.62-11.88-1.18a152.71,152.71,0,0,1-21.26-4.37,101.56,101.56,0,0,1-22.58-9.09c-3.18-1.83-6.31-3.74-9.46-5.61l-.29,0A1.55,1.55,0,0,0,856.82,476.15Z" transform="translate(-559.32 -269.36)"/>
    <path class="cls-3" d="M1012.89,494a14.37,14.37,0,0,1,.5-3.26,12.16,12.16,0,0,0-2.28-8.72c4.82-.37,9.65-.73,14.47-1.11a3.16,3.16,0,0,0,2.85-1.81,40.68,40.68,0,0,1,3.22-4.7c7.66-8.58,17.41-13.19,28.61-15a61.38,61.38,0,0,1,9.27-.89,4.21,4.21,0,0,1,2.11.21c-1.37.55-.54,1.2-.07,1.8a43.8,43.8,0,0,1,7.66,15.56c2.68,9.58,2.45,19.23.77,28.93-.24,1.4-1.06,1.73-2.26,1.94-9.25,1.69-18.49,3.47-27.75,5.14-4.37.79-8.74,1.6-13.07,2.57a4.15,4.15,0,0,0-.5-1.55c-3.42-5.76-6.84-11.52-10.21-17.31a2.46,2.46,0,0,0-2.32-1.3C1020.22,494.38,1016.56,494.19,1012.89,494Z" transform="translate(-559.32 -269.36)"/>
    <path class="cls-3" d="M856.92,269.78l7.2,0c6.78.78,12.65,3.68,18,7.75,1.91,1.46,3.62,3.14,5.4,4.74,2.54,2.28,3.55,5.19,4,8.45a36.81,36.81,0,0,1-.17,7.64,31.34,31.34,0,0,0-10.45-.43,82.61,82.61,0,0,0-22.34,6.63c-3.87,1.68-3.59,1-2.45,5.16a35.63,35.63,0,0,1,1.3,11.71c-.11,1.81-.4,3.6-.62,5.4a23.14,23.14,0,0,1-5.83,8.36c-1.56.56-2.83,1.81-4.6,1.83a11.28,11.28,0,0,1-6.09-3.63c-5.87-6.47-10.64-13.65-12.72-22.24-2.76-11.35.15-21.56,7.14-30.64,2.36-3.07,5.84-4.95,9.25-6.74A34.31,34.31,0,0,1,856.92,269.78Z" transform="translate(-559.32 -269.36)"/>
    <path class="cls-4" d="M990.34,476.75c-1.6.84-3.44.28-5.08.91-.43.17-1,0-1.4.21-2.82,1.43-5.67.59-8.42,0-10.75-2.33-21.17-5.83-31.56-9.38-9-3.07-17.86-6.34-26.77-9.56-3.52-1.27-7-2.63-10.51-4a5.86,5.86,0,0,1-2-1.31c-4.7-4.45-9-9.25-13.39-14a62.18,62.18,0,0,1-6.49-7.62,73.58,73.58,0,0,0,8-5.1,12.48,12.48,0,0,0,5-7.33c2.17,3.71,4.25,7.49,6.55,11.12,2,3.09,3.94,6.2,6.92,8.49a8,8,0,0,0,2.06,1.19c8.15,3.05,16,6.8,23.87,10.5q26,12.25,51.73,25C989.37,476.18,989.85,476.48,990.34,476.75Z" transform="translate(-559.32 -269.36)"/>
    <path class="cls-5" d="M851,335.21a23.29,23.29,0,0,0,5.84-8.36,6.17,6.17,0,0,0,4,2,16.91,16.91,0,0,0,4.76-.19,38.3,38.3,0,0,1,9-1.27c2.37,2.1,5.54,2.49,8.29,3.77.41.19.78-.13.86-.56a9.47,9.47,0,0,0,.12-1.41,4.11,4.11,0,0,0,.46.15c1.08.24,1.81,1.85,2.85,1.32s1-2.07,1.41-3.16c.29-.73.36-1.57.71-2.27s0-2,.9-2.61a197.1,197.1,0,0,1-2.62,21.12c-.73,4.47-3.59,7.56-7.82,9.29-.73.3-1.47.58-2.21.87-4.09.39-7.63-1.08-11-3.24a58.81,58.81,0,0,1-9.18-7.55c-2-2-4-4-6-6.07C851,336.48,851.14,335.81,851,335.21Zm24.34,1.59a6.36,6.36,0,0,0,3.3-.89.56.56,0,0,0,.2-.82,1,1,0,0,0-.59-.31,1.84,1.84,0,0,0-.67.17c-3.24,1.16-5.75-.15-7.94-2.39-.66-.68-1.19-1.49-1.8-2.22-.27-.32-.59-.56-1-.21a.68.68,0,0,0-.14.86C867.7,333.67,872.25,336.77,875.32,336.8Z" transform="translate(-559.32 -269.36)"/>
    <path class="cls-2" d="M890.15,322.6c-.93.64-.47,1.77-.9,2.61s-.42,1.54-.71,2.27c-.44,1.09-.38,2.65-1.41,3.16s-1.77-1.08-2.85-1.32a3.39,3.39,0,0,1-.45-.15c-.6-.84-.4-1.85-.5-2.78-.39-3.73-.73-7.46-1.11-11.19-.05-.43-.09-1.09-.7-1.07s-.53.66-.54,1.12a4.41,4.41,0,0,0,.08.71c.29,2.86.58,5.71.85,8.57a19.19,19.19,0,0,1,.34,4.83,61.38,61.38,0,0,1-5.85-2.17c-.64-.22-1.32-.77-1.85.18a38.3,38.3,0,0,0-9,1.27,16.91,16.91,0,0,1-4.76.19,6.17,6.17,0,0,1-4-2c.21-1.8.5-3.59.61-5.4a35.38,35.38,0,0,0-1.31-11.71c2.08-.8,4.21-1.51,6.23-2.43a23.81,23.81,0,0,1,10.49-1.95,119.18,119.18,0,0,1,17.57,2c-.09,2.25.51,4.53-.35,6.73-1.14-.52-2.27-1.07-3.43-1.56a.51.51,0,0,0-.73.35.72.72,0,0,0,.27.59c1.26.59,2.35,1.64,3.89,1.49A15,15,0,0,1,890.15,322.6Zm-3-2.11a1.94,1.94,0,0,0,2-1.93,2,2,0,1,0-2,1.93Zm-15.91-1.66a2,2,0,0,0,1.92-2A2.11,2.11,0,0,0,871,315a2,2,0,0,0-1.73,1.91A1.77,1.77,0,0,0,871.2,318.83ZM867.86,313c1.37-.22,2.76-.42,4.15-.68a.56.56,0,0,0,.48-.67c0-.18-.32-.46-.46-.44a24.33,24.33,0,0,0-5.09.81.5.5,0,0,0-.3.57c0,.32.28.35.49.4A4.38,4.38,0,0,0,867.86,313Z" transform="translate(-559.32 -269.36)"/>
    <path class="cls-6" d="M1036.92,514.65c4.33-1,8.7-1.78,13.07-2.57,9.26-1.67,18.5-3.45,27.75-5.14,1.2-.21,2-.54,2.26-1.94,1.68-9.7,1.91-19.35-.77-28.93a43.8,43.8,0,0,0-7.66-15.56c-.47-.6-1.3-1.25.07-1.8a36.59,36.59,0,0,1,3.45,4.58,56.55,56.55,0,0,1,7.36,31,59.44,59.44,0,0,0-.4,6,34.24,34.24,0,0,0-1,5.4,2.39,2.39,0,0,1-2.24,2.25c-8.88,1.57-17.75,3.23-26.62,4.86a2,2,0,0,0-1.61.78c.69.61,1.38,1.24,2.09,1.84,16.3,13.92,32.14,28.33,47.29,43.5a298.08,298.08,0,0,1,26.8,30c7,9.25,12.56,19.24,15.53,30.54a60.85,60.85,0,0,1,1.23,27.53,10.23,10.23,0,0,1-.93,2.93l-1,0a55.52,55.52,0,0,0,.64-25.41c-2.19-11.5-7.1-21.82-13.83-31.32a218.12,218.12,0,0,0-18.72-22.45c-17.8-19.08-37.09-36.59-56.78-53.68a9.91,9.91,0,0,0-8.27-2.63c-.79.1-1.59.13-2.38.24-6.48.9-11,4.77-12.36,10.74a24,24,0,0,0-.43,8.11,65.72,65.72,0,0,0,4.93,17.95,98.61,98.61,0,0,1,5.69,18.52,88.06,88.06,0,0,1,2.09,15.16c-.86,1.63-.39,3.32-.17,5,0,.12.4.2.61.29a2.47,2.47,0,0,1,.06,1.45c-.79.7-.44,1.63-.45,2.46,0,4.91,0,9.83-.06,14.74,0,.72.37,1.66-.73,2a21.26,21.26,0,0,1,.23-4.29,139.83,139.83,0,0,0-1.15-24.63c-1.29-10.82-3.24-21.48-7.71-31.53-.58-1.31-1-2.68-1.49-4-2.19-6.72-3.82-13.53-3-20.69a2.06,2.06,0,0,0,.47-2v0c.55-.27.55-.74.46-1.24l0,0c.54-.45.93-.94.55-1.69l.27-.59c.68.26.62-.23.64-.64l0,0c.53-.12.84-.37.54-.95v0c.49.15.59-.08.48-.51l0,0c.45.11.59-.08.49-.51l0,0c.43.1.6-.07.5-.5l0,0c.43.1.6-.06.51-.5l0,0c.8.11,1.19-.35,1.44-1h0c.35.05.63,0,.53-.45l0,0c.54.23.86,0,1-.52l0,0c.48.15.87.11,1-.49Z" transform="translate(-559.32 -269.36)"/>
    <path class="cls-2" d="M851,335.21c.16.6,0,1.27.41,1.81a34.76,34.76,0,0,0,8,14.31A51.68,51.68,0,0,0,875.6,363c.29,1.88-.87,3.66-.39,5.55-2.31,1.69-4.72,3-7.75,2.55a16.25,16.25,0,0,1-6.44-2.44,51.92,51.92,0,0,1-12-11.24c-1.71-2.1-3.29-4.32-4.93-6.48a6.17,6.17,0,0,0,.69-3c.38-2.52,1.27-5,1.1-7.56a8,8,0,0,0,.55-3.38C848.15,337,849.42,335.77,851,335.21Z" transform="translate(-559.32 -269.36)"/>
    <path class="cls-7" d="M890.41,307.35a119.18,119.18,0,0,0-17.57-2,23.81,23.81,0,0,0-10.49,1.95c-2,.92-4.15,1.63-6.23,2.43-1.13-4.15-1.41-3.48,2.46-5.16A82.61,82.61,0,0,1,880.92,298a31.34,31.34,0,0,1,10.45.43,12.6,12.6,0,0,1,6.82,5,8.38,8.38,0,0,1,.85,1.44c.63,1.55.17,2.46-1.48,2.78a15,15,0,0,1-4.77-.05C892,307.43,891.2,307.41,890.41,307.35Z" transform="translate(-559.32 -269.36)"/>
    <path class="cls-8" d="M1082.05,500.27a59.44,59.44,0,0,1,.4-6,56.55,56.55,0,0,0-7.36-31,24.27,24.27,0,0,1,11.21,7.45,13.64,13.64,0,0,1,3.49,9.92,33.31,33.31,0,0,1-6.57,18.44A3.2,3.2,0,0,1,1082.05,500.27Z" transform="translate(-559.32 -269.36)"/>
    <path class="cls-7" d="M875.6,363a51.68,51.68,0,0,1-16.24-11.7,34.76,34.76,0,0,1-8-14.31c2,2,3.93,4.09,6,6.07a58.81,58.81,0,0,0,9.18,7.55c3.34,2.16,6.88,3.63,11,3.24A67.85,67.85,0,0,1,875.6,363Z" transform="translate(-559.32 -269.36)"/>
    <path class="cls-4" d="M1031.65,474.42a40.68,40.68,0,0,0-3.22,4.7,3.16,3.16,0,0,1-2.85,1.81c-4.82.38-9.65.74-14.47,1.11-1.37-1.38-3.37-2-4.39-3.79a33,33,0,0,1,12.28-5,21.54,21.54,0,0,1,10.81.72A5.91,5.91,0,0,0,1031.65,474.42Z" transform="translate(-559.32 -269.36)"/>
    <path class="cls-9" d="M890.06,315c-1.54.15-2.63-.9-3.89-1.49a.72.72,0,0,1-.27-.59.51.51,0,0,1,.73-.35c1.16.49,2.29,1,3.43,1.56Z" transform="translate(-559.32 -269.36)"/>
    <path class="cls-3" d="M1042.68,591.92a2.47,2.47,0,0,0-.06-1.45,23.32,23.32,0,0,0-.44-5.27,88.06,88.06,0,0,0-2.09-15.16,98.61,98.61,0,0,0-5.69-18.52,65.72,65.72,0,0,1-4.93-17.95,24,24,0,0,1,.43-8.11c1.39-6,5.88-9.84,12.36-10.74.79-.11,1.59-.14,2.38-.24a9.91,9.91,0,0,1,8.27,2.63c19.69,17.09,39,34.6,56.78,53.68a218.12,218.12,0,0,1,18.72,22.45c6.73,9.5,11.64,19.82,13.83,31.32a55.52,55.52,0,0,1-.64,25.41l-.09,0c-2.07,0-4.15-.06-6.23,0-.76,0-1.62-.26-2.26.43a55.76,55.76,0,0,0-9.6,1.51,60.9,60.9,0,0,0-13,3.35c-.38.1-.78.16-1.15.29A103,103,0,0,0,1066,683.1c-15.42,16.48-24.59,36.22-30,57.89a76,76,0,0,1-23.74,16.76,105.35,105.35,0,0,1-29,8c-12.25,1.75-24.56,1.73-36.87,1.26-14.72-.56-29.32-2.18-43.59-6.07a88.57,88.57,0,0,1-20-7.81,2.86,2.86,0,0,0-1.79-.55c-.47-1.13-1.72-1.36-2.48-2.14a3.55,3.55,0,0,0-3.72-.88,44,44,0,0,1-4.71.75c-4.58.49-9.16,1.05-13.74,1.57-5,.57-10,.73-15,1.25-3.48.37-7,.36-10.5.45-12.94.34-25.87.15-38.8-.4-.16,0-.33,0-.48,0-5.36-.77-10.8-.67-16.17-1.35-3.94-.51-7.93-.64-11.88-1.09-4.5-.52-9-1.23-13.46-1.81-5-.64-9.9-1.42-14.84-2.22a56.82,56.82,0,0,0-7.78-1.16,14.39,14.39,0,0,0-5.57-1.08,7.31,7.31,0,0,0-.9-.3l-18.93-3.92c-3.74-.77-7.39-1.94-11.18-2.48-4.52-1.53-9.22-2.43-13.79-3.77q-7.33-2.15-14.68-4.26a1.94,1.94,0,0,1-1-.52c.47-1.18.9-2.38,1.44-3.54a161.51,161.51,0,0,1,22.83-35.89c14.71-17.63,32.28-31.56,53.32-41A146.75,146.75,0,0,1,785.38,637l9.62-.55c3.65.34,7.3-.22,11-.13a28.48,28.48,0,0,1-5.46-.12c-1.83,0-3.66,0-5.49,0a101.07,101.07,0,0,0-17.22.36,134,134,0,0,0-14.55,1.36,186.59,186.59,0,0,0-36.35,8.43c-29.58,10.09-54.53,27.09-75.18,50.49-.45.51-.75,1.25-1.59,1.37-.25-1.41.5-2.69.37-4.06a15.36,15.36,0,0,0,.44-1.61,139.4,139.4,0,0,1,4.47-18.62c6.53-20.92,17.25-39.31,33.22-54.46,14.16-13.44,30.83-22.66,49.23-28.9,4.14-1.41,8.37-2.61,12.56-3.9a4.25,4.25,0,0,0,.71-.06,220.2,220.2,0,0,1,40-5.91,277.25,277.25,0,0,1,50,1.25,403.31,403.31,0,0,1,43.37,7.55c11.06,2.56,22,5.55,32.4,10.09a81.48,81.48,0,0,1-3.26,10.48,162.17,162.17,0,0,1-14.38,26.68c-3,4.55-6.1,9-9.26,13.36a5.73,5.73,0,0,0-1,4.7,17.23,17.23,0,0,0,2.59,6.36,13.67,13.67,0,0,1,1.92,3,11.68,11.68,0,0,0-.4,1.13A188.9,188.9,0,0,0,888.48,695c-.77.52-.7,1.37-.85,2.14a66.3,66.3,0,0,0-1,14.55,55,55,0,0,0,6.84,25.43,40.31,40.31,0,0,0,21.35,18.7,72.76,72.76,0,0,0,21.73,4.44,159.44,159.44,0,0,0,23.23-.31,60.29,60.29,0,0,0,32.53-12.76,111.73,111.73,0,0,0,17.18-17.33,103.87,103.87,0,0,0,14.8-23.44c.31-.7.88-1.37.59-2.24l0,0c.64-.16.55-.66.54-1.13a98.71,98.71,0,0,0,5.83-11.52c6.18-14.92,8.94-30.6,9.83-46.6.59-10.51,1.29-21,1.8-31.55A147.36,147.36,0,0,0,1042.68,591.92Zm-270,142.43c6.63,0,13.27,0,19.9,0,.91,0,2,.3,2.37-1,.21-.82-.55-1.21-2.38-1.21H753.25a7.6,7.6,0,0,0-1.66.14.91.91,0,0,0-.73.85.93.93,0,0,0,.74,1.08,11.73,11.73,0,0,0,2.14.15Zm.49-10.18c-6.63,0-13.26,0-19.89,0-.88,0-2.29-.38-2.32,1,0,1.58,1.47,1.1,2.4,1.1q19.53,0,39.07,0h1.19c.73,0,1.33-.29,1.31-1.07s-.7-1-1.39-1-1.11,0-1.67,0Zm-1.41-6c6.63,0,13.25,0,19.88,0,.86,0,2.25.4,2.23-1s-1.41-1-2.28-1q-19.64,0-39.27,0c-.87,0-2.29-.44-2.33.92-.06,1.6,1.46,1.08,2.38,1.09C758.83,718.23,765.3,718.21,771.76,718.21Z" transform="translate(-559.32 -269.36)"/>
    <path class="cls-3" d="M560.07,488.75a16.07,16.07,0,0,0,.11-4q0-8.34,0-16.69c0-.79-.09-1.58-.15-2.37.22-6.13.36-12.26.67-18.38.45-9,1-18,1.55-26.95a6.18,6.18,0,0,1,.2-.93c.88.07,1.75.16,2.63.21,6.3.37,12.6.72,18.9,1.1,12.05.74,24.09,1.51,36.13,2.24,9,.55,18,1,27.05,1.59q21.54,1.32,43.07,2.69L731,429.71c-.05,5.67-.05,11.34-.15,17-.17,9.43-.31,18.86-.63,28.29-.47,14.14-1.21,28.27-2.92,42.32a90.41,90.41,0,0,1-2.86,15,14.11,14.11,0,0,1-2.95,6,10.9,10.9,0,0,1-4.13,1.15,95.73,95.73,0,0,1-13.86.4c-7.48-.4-15-.59-22.45-1.23-5.16-.45-10.34-.71-15.5-1.17-7.7-.68-15.39-1.53-23.09-2.15-2.14-.17-4.25-.8-6.42-.45l-.91,0c-4.08-.83-8.25-1-12.37-1.45-8.25-1-16.51-1.83-24.77-2.76q-11.19-1.26-22.37-2.57c-3.1-.36-6.19-.79-9.29-1.09a2.51,2.51,0,0,1-2.48-2.3,128.23,128.23,0,0,1-2.56-15.83C560.55,502.16,560.28,495.46,560.07,488.75ZM696,478.53l-.48-.53a29.25,29.25,0,0,1,1.2-3.37,1.52,1.52,0,0,0-.41-1.91,8.49,8.49,0,0,0-7.33-2.78c-4.41.28-7.53,3.64-7.65,8.26a8.11,8.11,0,0,0,7.25,8.63,8.5,8.5,0,0,0,8.23-3.33c1.17-1.51,2.24-3.16,4-4.1,2.76-1.5,3.82-4.42,5.69-6.65a.54.54,0,0,0-.12-.83.62.62,0,0,0-.87.07c-.76.92-1.45,1.89-2.21,2.82-.46.57-.72,1.41-1.7,1.52-.27-.76.24-1.13.54-1.54.74-1.05,1.52-2.06,2.27-3.09.28-.39.56-.8,0-1.25s-.85,0-1.12.35c-.65.8-1.23,1.67-1.9,2.46-.45.54-.64,1.46-2,1.46,1.17-1.66,2.16-3.05,3.15-4.44.34-.49.66-1.07.07-1.47s-.87.2-1.14.58c-1.83,2.67-4.35,4.95-4.89,8.39C696.49,478.05,696.17,478.28,696,478.53Zm13.7.7.45.49c-.24.41-.51.81-.72,1.24-1.43,2.89-.83,4.85,2,6.33a9,9,0,0,0,7.2.58,7.91,7.91,0,0,0,5.46-7.65c.14-4-1.59-6.89-4.89-8.27a8.61,8.61,0,0,0-9.89,2.09c-3.31,4-6.47,8.11-9.63,12.22-1.13,1.47-.76,2.41,1,3.08a3.28,3.28,0,0,0,2.1.06,7.26,7.26,0,0,0,5.37-6.6A4.72,4.72,0,0,1,709.68,479.23ZM675,473.31a6,6,0,0,0,2.4-4.14,6.37,6.37,0,0,0-5.77-6.77c-2.53-.31-5.1-.39-7.65-.47-1.71-.05-2.27.53-2.4,2.26s-.18,3.19-.26,4.78c-.24,4.71-.5,9.42-.7,14.13-.08,1.87.4,2.52,2,2.63,2.79.21,5.59.44,8.38.37a7.06,7.06,0,0,0,7-5.15C678.92,477.93,678.14,475.85,675,473.31Zm-107.78-4h0c-.16,3-.35,6.06-.48,9.09-.07,1.84.49,2.45,2.33,2.58,1.51.11,3,.1,4.54.19,6.42.4,11.18-3.15,12.38-9.49,1.41-7.41-3.18-14-10.93-14.23-1.44,0-2.87-.2-4.3-.27-2.45-.12-2.94.29-3.09,2.8C567.46,463.1,567.36,466.21,567.22,469.32Zm25.44,6a3.86,3.86,0,0,1,2-.16c2.71.13,5.42.3,8.14.4,1.62.07,2.2-.38,2.4-1.69a7.64,7.64,0,0,0-5.56-8.21,8.3,8.3,0,0,0-10.5,8.58,7.92,7.92,0,0,0,4.42,7.19,9.15,9.15,0,0,0,9.16-.29c.74-.43,1.33-1,.88-1.94a1.62,1.62,0,0,0-2.18-.91c-.53.17-1,.52-1.52.7C596.71,480.15,593.87,478.76,592.66,475.35Zm52.17,2.48a17.21,17.21,0,0,1,3.75.06c2.23.12,4.47.21,6.7.31a1.66,1.66,0,0,0,2-1.55,7.69,7.69,0,0,0-4.75-8.06,8.26,8.26,0,0,0-9.89,3.23,8.9,8.9,0,0,0,1.22,11c2.87,2.71,8.09,3.15,11.13.95a1.53,1.53,0,0,0,.76-1.83,1.5,1.5,0,0,0-1.93-1c-.69.16-1.32.56-2,.78A5.2,5.2,0,0,1,644.83,477.83Zm-12.64.68a2.64,2.64,0,0,1-.94-1.49c-1.08-2.65-2.15-5.32-3.24-8-.71-1.73-1.47-2.25-2.54-1.82s-1.21,1.32-.48,3.11c1.61,4,3.26,8,4.9,11.94a6.11,6.11,0,0,0,.42.85,1.73,1.73,0,0,0,3,.15,5.28,5.28,0,0,0,.5-.82c2.07-3.86,4.15-7.72,6.21-11.59a5,5,0,0,0,.47-1.09,1.61,1.61,0,0,0-2.7-1.55,9,9,0,0,0-1.13,1.81C635.15,472.85,633.68,475.67,632.19,478.51Zm-24.05-8.15h0c-.11,2.31-.21,4.62-.34,6.94a6.76,6.76,0,0,0,.62,3.26,4.31,4.31,0,0,0,4.26,2.53c.93-.08,1.77-.36,1.9-1.45a1.58,1.58,0,0,0-1.55-2c-1.39-.09-1.67-1-1.75-2.12a9.91,9.91,0,0,1,.06-1.44q.38-6.81.74-13.63c0-.48,0-1,0-1.44a1.6,1.6,0,0,0-1.6-1.74,1.55,1.55,0,0,0-1.8,1.51c-.05.39-.08.79-.1,1.19C608.44,464.77,608.29,467.57,608.14,470.36Zm12.94,4.53h.2c.12-1.75.27-3.5.35-5.26.09-2-.44-2.84-1.65-2.93s-1.88.76-2,2.7c-.2,3.67-.37,7.34-.55,11a7.74,7.74,0,0,0,0,1.67,1.58,1.58,0,0,0,1.71,1.36,1.5,1.5,0,0,0,1.62-1.14,8.13,8.13,0,0,0,.26-1.9C621.1,478.57,621.08,476.73,621.08,474.89Zm1.27-12.63a2.23,2.23,0,0,0-2.15-2.15,2.3,2.3,0,0,0-2.25,2.32,2.36,2.36,0,0,0,2.17,2.16A2.25,2.25,0,0,0,622.35,462.26Z" transform="translate(-559.32 -269.36)"/>
    <path class="cls-1" d="M690.87,737.74c3.79.54,7.44,1.71,11.18,2.48L721,744.14a7.31,7.31,0,0,1,.9.3A41.63,41.63,0,0,0,719,757c-.73,11,2.84,20.27,11.32,27.44,5.68,4.79,12.44,7.39,19.58,9.09a33.65,33.65,0,0,0,15.68.23q19.57-4.61,26.49-23.55c10.36-.06,20.71-.49,31.07-.79a13.29,13.29,0,0,1,.06,9.4c-7.39,22.36-21.37,38.44-44.35,45.61-10.11,3.15-20.44,3.33-30.82,1.57a86.13,86.13,0,0,1-22.93-7.35c-16.74-8-27.31-21.14-32.3-38.86a92.28,92.28,0,0,1-3.08-31.08A103.16,103.16,0,0,1,690.87,737.74Z" transform="translate(-559.32 -269.36)"/>
    <path class="cls-10" d="M785.38,637a146.75,146.75,0,0,0-46.44,11.81c-21,9.41-38.61,23.34-53.32,41a161.51,161.51,0,0,0-22.83,35.89c-.54,1.16-1,2.36-1.44,3.54-2.41-.24-4.56-1.35-6.86-2-.69-.18-1.36-.45-2-.69-1.58-.57-3.67-.71-4.57-1.82s-.48-3.37-.48-5.11a159.73,159.73,0,0,1,1.79-23.83,15.49,15.49,0,0,1,.4-1.63h.88c.13,1.37-.62,2.65-.37,4.06.84-.12,1.14-.86,1.59-1.37,20.65-23.4,45.6-40.4,75.18-50.49a186.59,186.59,0,0,1,36.35-8.43,134,134,0,0,1,14.55-1.36c1.79,0,3.59,0,5.38,0C783.91,636.59,784.73,636.32,785.38,637Z" transform="translate(-559.32 -269.36)"/>
    <path class="cls-8" d="M823.13,769.4c-10.36.3-20.71.73-31.07.79a59.86,59.86,0,0,0-7.81-.06c-5.49-.32-11-.06-16.49-.54-5.25-.46-10.45-.9-15.45-2.68s-8.46-4.78-9.44-10.13c-.27-1.47-1-1.7-2.27-1.68-4.55,0-9.11,0-13.66,0l.51-9.59a56.82,56.82,0,0,1,7.78,1.16c4.94.8,9.88,1.58,14.84,2.22,4.49.58,9,1.29,13.46,1.81,4,.45,7.94.58,11.88,1.09,5.37.68,10.81.58,16.17,1.35.15,0,.32,0,.48,0,12.93.55,25.86.74,38.8.4,3.49-.09,7-.08,10.5-.45,5-.52,10-.68,15-1.25,4.58-.52,9.16-1.08,13.74-1.57a44,44,0,0,0,4.71-.75,3.55,3.55,0,0,1,3.72.88c.76.78,2,1,2.48,2.14-3.06,1.9-6.57,2.39-10,3a258.84,258.84,0,0,1-28.07,3c-3.1.18-6.21.43-9.32.52a4.55,4.55,0,0,0-4,2C827.54,763.94,825.09,766.48,823.13,769.4Z" transform="translate(-559.32 -269.36)"/>
    <path class="cls-5" d="M651.63,681.71c-.94-.22-1.67.4-2.48.67-6,2-10.3,0-12.71-5.83a17.3,17.3,0,0,1-.17-13.54c6.93-16.52,18.24-28.47,36-33.37a13.13,13.13,0,0,1,5.63-.79c-.09.79-.71,1.24-1.15,1.78a126.92,126.92,0,0,0-21.14,39c-1.3,3.85-2.42,7.75-3.63,11.64-.28,0-.5.13-.45.48Z" transform="translate(-559.32 -269.36)"/>
    <path class="cls-7" d="M1036,741c5.42-21.67,14.59-41.41,30-57.89a103,103,0,0,1,43.25-27.52c.37-.13.77-.19,1.15-.29.48.08,1-.11,1.37.44a110.73,110.73,0,0,0-16.85,8c-15,9.14-27.19,21-35.65,36.44a72.19,72.19,0,0,0-8,24.22,15.31,15.31,0,0,1-.4,1.62,34.74,34.74,0,0,0-4.95,4.75c-2.68,2.79-5.31,5.65-8,8.47A7.41,7.41,0,0,1,1036,741Z" transform="translate(-559.32 -269.36)"/>
    <path class="cls-6" d="M652,681.27c1.21-3.89,2.33-7.79,3.63-11.64a126.92,126.92,0,0,1,21.14-39c.44-.54,1.06-1,1.15-1.78l0,0c.32.07.46-.1.52-.37a127.74,127.74,0,0,1,19.47-18.44q4-3,8.26-5.77c.64-.42,1.46-.66,1.91-1.56l-13-12q-29.44-27-58.86-54c-.52-.48-1.53-.79-1-1.87l.91,0c.68.67,1.34,1.36,2,2l56.38,51.75L708,601.16c.65.6,1.17,1.23,2.24.58,2.46-1.48,5-2.85,7.48-4.26.66-.27,1.35-.49,2-.8a135.71,135.71,0,0,1,15.67-6.55,90.77,90.77,0,0,1,13.52-4c.33.62,1,.41,1.48.53-4.19,1.29-8.42,2.49-12.56,3.9-18.4,6.24-35.07,15.46-49.23,28.9-16,15.15-26.69,33.54-33.22,54.46a139.4,139.4,0,0,0-4.47,18.62,15.36,15.36,0,0,1-.44,1.61h-.88A82.19,82.19,0,0,1,651.68,683c.1-.45.37-.9,0-1.33l-.13,0C652,681.91,651.93,681.54,652,681.27Z" transform="translate(-559.32 -269.36)"/>
    <path class="cls-5" d="M678.37,628.5c-.06.27-.2.44-.52.37C677.86,628.52,678.12,628.52,678.37,628.5Z" transform="translate(-559.32 -269.36)"/>
    <path class="cls-7" d="M750.4,586.67c-.52-.12-1.15.09-1.48-.53.74-.88-.07-.82-.57-.94l-14.64-3.62c-3-.76-3-.78-3.5-3.77a200,200,0,0,1-2.93-28.59l.88-10.14c.42-1.45.74-2.94,1.28-4.34,2.51-6.41,7.73-8.8,14.24-6.56,5.18,1.79,10.34,3.63,15.52,5.41a4.47,4.47,0,0,0,2.49.62l-.28-.93c.06-.35.08-.71.46-.88.8,1.19,1.67,2.34,2.39,3.58a3,3,0,0,0,3.14,1.61,161.73,161.73,0,0,0,17.14-1.71,149.81,149.81,0,0,0,50-17.87,106,106,0,0,0,12.28-8.33c5.73-4.42,8.56-10.35,9.65-17.32a63.77,63.77,0,0,0,.29-15.06c0-.39-.18-.78.07-1.15a1.56,1.56,0,0,1,1,1l.06.5a57.07,57.07,0,0,1-.49,15.66c-.44,2.51-1.41,4.87-2,7.34-2.4,5.14-6.32,8.93-10.81,12.24a108.92,108.92,0,0,1-10.88,7,5,5,0,0,0-1.92,1.29c.12.69.71.87,1.16,1.15a153.38,153.38,0,0,0,51.11,21.09c8.06,1.69,16.26,2.45,24.38,3.8,6.85,1.14,13.4,3.18,19,7.36a54.31,54.31,0,0,1,19.82,27,32.63,32.63,0,0,1-1,25.21,95.75,95.75,0,0,0-6,17.67c-2.36,11.14-2,22.4-1.67,33.67.3,9.5,1,19,.82,28.51a32.15,32.15,0,0,1-7.55,20,60.89,60.89,0,0,1-5,5.13c-4.75,4.55-6.84,9.92-4.78,16.47-1.23,1.44-1.37,1.43-2.5-.34a22.27,22.27,0,0,1-.12-7.15,18.94,18.94,0,0,1,6.41-11c5.64-4.94,9.6-10.9,11-18.37.93-5.07.71-10.21.45-15.32-.55-11.18-1-22.36-.95-33.56a84.13,84.13,0,0,1,4.56-28c1.31-3.69,2.89-7.28,4.35-10.91a28.31,28.31,0,0,0,1.49-15.08c-1.29-8.54-5.14-15.89-10.42-22.59-7.08-9-16-14.82-27.43-16.54-6.87-1-13.76-2-20.61-3.13-20.87-3.54-40-11.5-57.69-23a2.71,2.71,0,0,0-3.17-.15c-19.21,9.37-39.37,15-60.84,15.44-.38,0-.82-.08-1,.55a7,7,0,0,0,.48.74c13.94,17.64,31.92,28.81,54,33.17a435.5,435.5,0,0,0,51.52,6.69c9.73.75,19.47,1.24,29.23,1.12a32.18,32.18,0,0,1,5.72.5c6.27,1.09,9.62,4.73,10.42,11.07.31,2.4-.17,4.74-.23,7.11-10.43-4.54-21.34-7.53-32.4-10.09A403.31,403.31,0,0,0,841.07,582a277.25,277.25,0,0,0-50-1.25,220.2,220.2,0,0,0-40,5.91A4.25,4.25,0,0,1,750.4,586.67Z" transform="translate(-559.32 -269.36)"/>
    <path class="cls-8" d="M562.4,418.17q.6-6.57,1.19-13.12c.21-2.31.38-4.62.59-6.93.16-1.78.18-1.82,2.06-1.81,4.47,0,9,.07,13.43.11,12.4.12,24.79.17,37.19.37q21.46.34,42.92,1.3c14,.64,27.94,1.46,41.86,2.9A182.55,182.55,0,0,1,726,404.73c1.47.36,3.14.49,4.26,1.47s.51,2.88.55,4.32c.16,6,.13,12,.17,18l-20.33-1.24-26.55-1.6-36.59-2.24L621,421.84q-18.66-1.12-37.31-2.27C576.58,419.13,569.49,418.64,562.4,418.17Z" transform="translate(-559.32 -269.36)"/>
    <path class="cls-11" d="M728.16,539.08l-.88,10.14c-4.44-.46-8.87-1-13.31-1.38s-8.74-.69-13.1-1.12c-5.71-.55-11.4-1.28-17.11-1.78-6.59-.57-13.17-1.19-19.74-1.91-.83-.09-1.68,0-2.94,0,.87.91,1.44,1.55,2,2.13,4.13,3.88,8.29,7.74,12.41,11.64q9.91,9.39,19.79,18.83Q703,583,710.71,590.39c1.21,1.16,2.44,2.31,3.68,3.43s2.68,2,3.35,3.66c-2.5,1.41-5,2.78-7.48,4.26-1.07.65-1.59,0-2.24-.58l-13.61-12.5L638,536.91c-.7-.65-1.36-1.34-2-2,2.17-.35,4.28.28,6.42.45,7.7.62,15.39,1.47,23.09,2.15,5.16.46,10.34.72,15.5,1.17,7.47.64,15,.83,22.45,1.23a95.73,95.73,0,0,0,13.86-.4,10.9,10.9,0,0,0,4.13-1.15A29.14,29.14,0,0,0,728.16,539.08Z" transform="translate(-559.32 -269.36)"/>
    <path class="cls-6" d="M761.87,532.4c-.38.17-.4.53-.46.88a72.09,72.09,0,0,1-6.52-11.95,118,118,0,0,1-10.34-39.19c-2.37-25.79,2.23-50.42,12.46-74.07,9.94-23,25.33-41.44,46.5-54.94A107.45,107.45,0,0,1,834.44,340c2.76-.72,5.38-.11,8.06.07,1.12.07,2.22.23,3.33.35.17,2.59-.72,5-1.1,7.56a6.17,6.17,0,0,1-.69,3,76.87,76.87,0,0,1-5.8-8.51c-1.14-1.77-1.12-1.77-3.22-1.26-22.06,5.36-40.31,17-55.45,33.73-13.62,15.06-22.49,32.67-28.21,52a144.81,144.81,0,0,0-6.21,46.6A123,123,0,0,0,761,530.7C761.33,531.25,761.59,531.83,761.87,532.4Z" transform="translate(-559.32 -269.36)"/>
    <path class="cls-6" d="M562.4,418.17c7.09.47,14.18,1,21.28,1.4q18.65,1.15,37.31,2.27l26.55,1.59,36.59,2.24,26.55,1.6L731,428.51a1.13,1.13,0,0,1-.06,1.19q-20.34-1.23-40.68-2.48-21.54-1.34-43.07-2.69c-9-.55-18-1-27.05-1.59-12-.73-24.08-1.5-36.13-2.24-6.3-.38-12.6-.73-18.9-1.1-.88-.05-1.75-.14-2.63-.21A.88.88,0,0,1,562.4,418.17Z" transform="translate(-559.32 -269.36)"/>
    <path class="cls-8" d="M1155.92,711.37c3.88.19,7.63,1.21,11.46,1.75a26.84,26.84,0,0,0,2.82.25c.7,0,1.44-.18,2,.38-1.62.26-1.67.28-1.24,1.62,1.87,6,3.78,12,5.66,17.94a12.54,12.54,0,0,1,.66,6.1,16.61,16.61,0,0,1-2.64,6.59,4.92,4.92,0,0,0-1,2.39,13.62,13.62,0,0,0-1.38,4c-.5,2.24-.62,4.55-1.48,6.72a53.08,53.08,0,0,1-6.65,11.82,81.33,81.33,0,0,1-12.53,14l-1.3.58c-5.86,2.58-11.34,2.08-16.39-2-.62-.49-1.32-.89-2-1.33a3.52,3.52,0,0,0-.68-2,6.47,6.47,0,0,1-.52-4.86,23.65,23.65,0,0,1,3-7.25,64.35,64.35,0,0,1,8.6-11.13c1.51-1.53,1.5-1.66.36-3.45-3.1-4.82-6.17-9.66-9.34-14.44-1-1.58-1.82-3.36-3.33-4.61a20.09,20.09,0,0,0-3.25-5.26l-5-7.6a24.43,24.43,0,0,1,6.6-5,42,42,0,0,1,14.23-5.1,2.54,2.54,0,0,0,.49,1.32l6.67,11.27c1.17,1.67,1.89,3.62,3.26,5.16,1.76,3.76,4.12,7.17,6.16,10.76.32.57.77.9,1.36.5,2.23-1.53,4.51-3,5-6a2.64,2.64,0,0,0-1.25-2.89,14.59,14.59,0,0,1-4.74-6.14c-.24-.21-.25-.73-.77-.55l0,.06c.45-.84-.16-1.5-.38-2.22A49.75,49.75,0,0,1,1155.92,711.37Z" transform="translate(-559.32 -269.36)"/>
    <path class="cls-12" d="M1173.66,748.39a4.92,4.92,0,0,1,1-2.39,16.61,16.61,0,0,0,2.64-6.59c3.46,3.92,4.4,8.8,4.9,13.74a39.43,39.43,0,0,1-4.29,22.49c-6.49,12.47-19.43,19.17-33.83,18-17.13-1.38-30.29-15.67-33.43-28.19-3.46-13.74,1.12-27.33,13.69-34.73.82-.48,1.61-1,2.42-1.55a20.09,20.09,0,0,1,3.25,5.26,10.47,10.47,0,0,0-1,.63,31.94,31.94,0,0,0-11.87,21.71A24.08,24.08,0,0,0,1132,782.19c.66.44,1.36.84,2,1.33,5,4.08,10.53,4.58,16.39,2l1.3-.58a6.67,6.67,0,0,0,1.19-.09,43.43,43.43,0,0,0,14-6.71,17.24,17.24,0,0,0,5.58-7.08,47.22,47.22,0,0,0,2.71-8.42A21.05,21.05,0,0,0,1173.66,748.39Z" transform="translate(-559.32 -269.36)"/>
    <path class="cls-7" d="M836.84,459.11l.08.19c-2.81,2-5.62,3.94-8.45,5.88-1.35.94-1.39.94-2.43-.38A157.43,157.43,0,0,1,814.64,448a191.6,191.6,0,0,1-17.7-38.89c-.41-1.27-1.19-2.45-1.08-3.86l.52,0c.43.67.9,1.31,1.3,2a269.45,269.45,0,0,0,38,50.57.72.72,0,0,1,.12.21Z" transform="translate(-559.32 -269.36)"/>
    <path class="cls-6" d="M836.84,459.11l-1-1.15a27.16,27.16,0,0,0,7.62-2.75c9-4.25,16.55-10.52,23.24-17.85a92.78,92.78,0,0,0,9.25-11.93c1.76-2.72,1.61-2.07-.25-4.16-4.57-5.14-9.17-10.24-13.73-15.39-.48-.54-1.68-1.26-1-1.85.89-.77,1.4.6,1.9,1.16,4.89,5.39,9.72,10.83,14.59,16.24.79.87,1.51,1.69.72,2.92-1.15,1.63-2.3,3.25-3.44,4.88-8.19,11.63-18.41,20.92-31.28,27.14C841.3,457.41,839,458.2,836.84,459.11Z" transform="translate(-559.32 -269.36)"/>
    <path class="cls-9" d="M796.38,405.19l-.52,0c-.09-.12-.23-.22-.28-.35-.11-.3-.26-.71.06-.86s.41.32.56.54A2.59,2.59,0,0,1,796.38,405.19Z" transform="translate(-559.32 -269.36)"/>
    <path class="cls-7" d="M1149.8,724.1l-6.67-11.27a2.54,2.54,0,0,1-.49-1.32,53,53,0,0,1,11-.56,3.78,3.78,0,0,1,2.31.42,49.75,49.75,0,0,0,2.53,11.37c.22.72.83,1.38.38,2.22A16.66,16.66,0,0,0,1149.8,724.1Z" transform="translate(-559.32 -269.36)"/>
    <path class="cls-6" d="M1111.79,655.73c-.32-.55-.89-.36-1.37-.44a60.9,60.9,0,0,1,13-3.35.89.89,0,0,1,.83.34Z" transform="translate(-559.32 -269.36)"/>
    <path class="cls-9" d="M1124.25,652.28a.89.89,0,0,0-.83-.34,55.76,55.76,0,0,1,9.6-1.51l1,.39C1130.69,651,1127.5,651.84,1124.25,652.28Z" transform="translate(-559.32 -269.36)"/>
    <path class="cls-8" d="M1134,650.82l-1-.39c.64-.69,1.5-.42,2.26-.43,2.08,0,4.16,0,6.23,0-.12.1-.23.26-.36.27C1138.76,650.48,1136.37,650.65,1134,650.82Z" transform="translate(-559.32 -269.36)"/>
    <path class="cls-7" d="M1007.59,496.73l-3.64,1.49c-.63-.08-1.26-.15-1.88-.25a7,7,0,0,1-5.91-5.77,7.06,7.06,0,0,1,4-7.5,7,7,0,0,1,9,9.93c-.32.55-.69,1.06-1,1.59-.29.12-.62.22-.53.65Z" transform="translate(-559.32 -269.36)"/>
    <path class="cls-12" d="M1007.58,496.87c-.09-.43.24-.53.53-.65Z" transform="translate(-559.32 -269.36)"/>
    <path class="cls-11" d="M858.15,477.21l-.23.48-.06-.5Z" transform="translate(-559.32 -269.36)"/>
    <path class="cls-6" d="M874.55,327.37c.53-.95,1.21-.4,1.85-.18a61.38,61.38,0,0,0,5.85,2.17,19.19,19.19,0,0,0-.34-4.83c-.27-2.86-.56-5.71-.85-8.57a4.41,4.41,0,0,1-.08-.71c0-.46-.11-1.1.54-1.12s.65.64.7,1.07c.38,3.73.72,7.46,1.11,11.19.1.93-.1,1.94.5,2.78a11,11,0,0,1-.13,1.41c-.08.43-.45.75-.86.56C880.09,329.86,876.92,329.47,874.55,327.37Z" transform="translate(-559.32 -269.36)"/>
    <path class="cls-6" d="M875.32,336.8c-3.07,0-7.62-3.13-8.65-5.81a.68.68,0,0,1,.14-.86c.42-.35.74-.11,1,.21.61.73,1.14,1.54,1.8,2.22,2.19,2.24,4.7,3.55,7.94,2.39a1.84,1.84,0,0,1,.67-.17,1,1,0,0,1,.59.31.56.56,0,0,1-.2.82A6.36,6.36,0,0,1,875.32,336.8Z" transform="translate(-559.32 -269.36)"/>
    <path class="cls-6" d="M887.11,320.49a2,2,0,1,1,2-1.93A1.94,1.94,0,0,1,887.11,320.49Z" transform="translate(-559.32 -269.36)"/>
    <path class="cls-7" d="M871.2,318.83a1.77,1.77,0,0,1-1.89-1.92A2,2,0,0,1,871,315a2.11,2.11,0,0,1,2.08,1.86A2,2,0,0,1,871.2,318.83Z" transform="translate(-559.32 -269.36)"/>
    <path class="cls-9" d="M867.86,313a4.38,4.38,0,0,1-.73,0c-.21,0-.47-.08-.49-.4a.5.5,0,0,1,.3-.57,24.33,24.33,0,0,1,5.09-.81c.14,0,.41.26.46.44a.56.56,0,0,1-.48.67C870.62,312.62,869.23,312.82,867.86,313Z" transform="translate(-559.32 -269.36)"/>
    <path class="cls-10" d="M880.85,506c6,1.12,12,2.75,17.92,4.3a389.38,389.38,0,0,1,51.38,16.8,152.33,152.33,0,0,1,27.56,14.38c1.78,1.22,3.49,2.53,5.21,3.84,8.83,6.67,14,15.56,16.11,26.37a133.48,133.48,0,0,1,2.1,29.59c-.7,23.83-4.65,47.22-9.55,70.47-2.19,10.39-4.72,20.71-7.43,31a4.27,4.27,0,0,1-2.85,3.39c-3.5,1.32-6.9,2.92-10.37,4.35a2.07,2.07,0,0,0-1.57,2.27c.1,2.31.06,4.63,0,7,0,.92.18,1.51,1.17,1.75a66,66,0,0,1,10.89,3.64,3,3,0,0,0,2.1-.06,22.52,22.52,0,0,0,5.08-2.08,101.24,101.24,0,0,0,29.59-24.07,51,51,0,0,0,9.13-16.73,288.85,288.85,0,0,0,11-45.09c1.44-8.6,2.4-17.25,3.07-25.94,1.1-.35.73-1.29.73-2,0-4.91,0-9.83.06-14.74,0-.83-.34-1.76.45-2.46a147.36,147.36,0,0,1,.22,21.53c-.51,10.52-1.21,21-1.8,31.55-.89,16-3.65,31.68-9.83,46.6a98.71,98.71,0,0,1-5.83,11.52,1.29,1.29,0,0,0-.54,1.13l0,0c-.7.21-.88.9-1.23,1.4a58.06,58.06,0,0,1-26.16,20.68,65.18,65.18,0,0,1-20,4.53,70.11,70.11,0,0,1-22.13-1.73c.1-.39.23-.77.31-1.16,3.14-14.68,6.17-29.38,8.87-44.15,4.19-22.94,8.09-45.92,10.07-69.19.8-9.41,1.34-18.81.43-28.24a72.79,72.79,0,0,0-8.59-28.72c-4.8-8.68-11.1-16-19.66-21.22a287.05,287.05,0,0,0-40.47-20.29c-8.94-3.69-18.09-6.79-27.32-9.69C879.51,505.75,880.27,506.25,880.85,506Z" transform="translate(-559.32 -269.36)"/>
    <path class="cls-1" d="M1042.18,585.2a23.32,23.32,0,0,1,.44,5.27c-.21-.09-.59-.17-.61-.29C1041.79,588.52,1041.32,586.83,1042.18,585.2Z" transform="translate(-559.32 -269.36)"/>
    <path class="cls-3" d="M1033.07,517.06c.18-.77.59-1.2,1.44-1C1034.26,516.71,1033.87,517.17,1033.07,517.06Z" transform="translate(-559.32 -269.36)"/>
    <path class="cls-3" d="M1028.31,526a2,2,0,0,1,.47-2A2,2,0,0,1,1028.31,526Z" transform="translate(-559.32 -269.36)"/>
    <path class="cls-3" d="M1029.21,522.81a1.45,1.45,0,0,1,.55-1.69C1030.14,521.87,1029.75,522.36,1029.21,522.81Z" transform="translate(-559.32 -269.36)"/>
    <path class="cls-3" d="M1028.77,524c-.1-.5-.19-1,.46-1.24C1029.32,523.28,1029.32,523.75,1028.77,524Z" transform="translate(-559.32 -269.36)"/>
    <path class="cls-3" d="M1030.65,519.92c-.25-.56,0-.84.54-.95C1031.49,519.55,1031.18,519.8,1030.65,519.92Z" transform="translate(-559.32 -269.36)"/>
    <path class="cls-3" d="M1035,515.63c.11-.58.48-.67,1-.52C1035.86,515.68,1035.54,515.86,1035,515.63Z" transform="translate(-559.32 -269.36)"/>
    <path class="cls-3" d="M1036,515.13c.1-.63.52-.61,1-.49C1036.82,515.24,1036.43,515.28,1036,515.13Z" transform="translate(-559.32 -269.36)"/>
    <path class="cls-3" d="M1030,520.53c.07-.35.14-.71.64-.64C1030.65,520.3,1030.71,520.79,1030,520.53Z" transform="translate(-559.32 -269.36)"/>
    <path class="cls-3" d="M1031.18,519c-.06-.37,0-.6.48-.51C1031.77,518.91,1031.67,519.14,1031.18,519Z" transform="translate(-559.32 -269.36)"/>
    <path class="cls-3" d="M1031.64,518.5c-.08-.41,0-.62.49-.51C1032.23,518.42,1032.09,518.61,1031.64,518.5Z" transform="translate(-559.32 -269.36)"/>
    <path class="cls-3" d="M1032.11,518c-.11-.44.06-.61.5-.5C1032.71,517.94,1032.54,518.11,1032.11,518Z" transform="translate(-559.32 -269.36)"/>
    <path class="cls-3" d="M1032.59,517.53c-.11-.45.1-.58.51-.5C1033.19,517.47,1033,517.63,1032.59,517.53Z" transform="translate(-559.32 -269.36)"/>
    <path class="cls-3" d="M1034.49,516.06c-.12-.5.18-.51.53-.45C1035.12,516.08,1034.84,516.11,1034.49,516.06Z" transform="translate(-559.32 -269.36)"/>
    <path class="cls-5" d="M916.84,599.59c.06-2.37.54-4.71.23-7.11-.8-6.34-4.15-10-10.42-11.07a32.18,32.18,0,0,0-5.72-.5c-9.76.12-19.5-.37-29.23-1.12a435.5,435.5,0,0,1-51.52-6.69c-22-4.36-40-15.53-54-33.17a7,7,0,0,1-.48-.74c.14-.63.58-.55,1-.55,21.47-.45,41.63-6.07,60.84-15.44a2.71,2.71,0,0,1,3.17.15c17.69,11.52,36.82,19.48,57.69,23,6.85,1.17,13.74,2.1,20.61,3.13,11.43,1.72,20.35,7.58,27.43,16.54,5.28,6.7,9.13,14.05,10.42,22.59a28.31,28.31,0,0,1-1.49,15.08c-1.46,3.63-3,7.22-4.35,10.91a84.13,84.13,0,0,0-4.56,28c-.05,11.2.4,22.38.95,33.56.26,5.11.48,10.25-.45,15.32-1.38,7.47-5.34,13.43-11,18.37a18.94,18.94,0,0,0-6.41,11,22.2,22.2,0,0,0,.12,7.14c-3.21-.06-6.34-.8-9.52-1.09-2.17-.52-4.35-1-6.5-1.57A22.37,22.37,0,0,1,896.3,722a7.44,7.44,0,0,1-3-8.39,14,14,0,0,1,2.34-4.67,47.6,47.6,0,0,1,10-9.88c1.7-1.31,3.42-2.58,5.13-3.87a2.1,2.1,0,0,0,.86-1.38,16.18,16.18,0,0,0,.17-8.29c-1.26-5.37-4.52-9.47-8.67-12.87a124.76,124.76,0,0,1-9.74-8.48,13.67,13.67,0,0,0-1.92-3,17.23,17.23,0,0,1-2.59-6.36,5.73,5.73,0,0,1,1-4.7c3.16-4.4,6.31-8.81,9.26-13.36a162.17,162.17,0,0,0,14.38-26.68A81.48,81.48,0,0,0,916.84,599.59Z" transform="translate(-559.32 -269.36)"/>
    <path class="cls-11" d="M910.8,695.19c-1.71,1.29-3.43,2.56-5.13,3.87a47.6,47.6,0,0,0-10,9.88,14,14,0,0,0-2.34,4.67,7.44,7.44,0,0,0,3,8.39,22.37,22.37,0,0,0,7.37,3.31c2.15.59,4.33,1.05,6.5,1.57a17.55,17.55,0,0,1-.07,3.08c-.57,3.1-.36,6.27-.85,9.38-.53,2.74-1.08,5.48-1.61,8.22-.3,1.59-.3,1.59,1.33,2,.38.11.78.18,1.16.27q9.69,2.24,19.53,3.67a130,130,0,0,0,22.21,1.62,37.1,37.1,0,0,0,11.77-1.91,10.58,10.58,0,0,0,4.91-3.29,3,3,0,0,0-.25-4.3,9.85,9.85,0,0,0-2.74-1.91,32.18,32.18,0,0,0-5.36-2.05,138.15,138.15,0,0,0-25-4.42l0-8c.79,0,1.58,0,2.37,0,5.94-.05,11.87.14,17.81-.12a70.11,70.11,0,0,0,22.13,1.73,65.18,65.18,0,0,0,20-4.53,58.06,58.06,0,0,0,26.16-20.68c.35-.5.53-1.19,1.23-1.4.29.88-.28,1.55-.59,2.25a103.87,103.87,0,0,1-14.8,23.44,111.73,111.73,0,0,1-17.18,17.33A60.29,60.29,0,0,1,959.82,760a159.44,159.44,0,0,1-23.23.31,72.76,72.76,0,0,1-21.73-4.44,40.31,40.31,0,0,1-21.35-18.7,55,55,0,0,1-6.84-25.43,66.3,66.3,0,0,1,1-14.55c.15-.77.08-1.62.85-2.14,1.34,0,2.69.05,4,.06Z" transform="translate(-559.32 -269.36)"/>
    <path class="cls-12" d="M784.25,770.13a59.86,59.86,0,0,1,7.81.06q-6.9,18.91-26.49,23.55a33.65,33.65,0,0,1-15.68-.23c-7.14-1.7-13.9-4.3-19.58-9.09-8.48-7.17-12-16.42-11.32-27.44a41.63,41.63,0,0,1,2.89-12.54,14.39,14.39,0,0,1,5.57,1.08l-.51,9.59A26.85,26.85,0,0,0,739.74,782a45.36,45.36,0,0,0,13.56,5.2,26.25,26.25,0,0,0,10.7.28C774.05,785.59,780.6,779.53,784.25,770.13Z" transform="translate(-559.32 -269.36)"/>
    <path class="cls-6" d="M772.68,734.35H753.74a11.73,11.73,0,0,1-2.14-.15.93.93,0,0,1-.74-1.08.91.91,0,0,1,.73-.85,7.6,7.6,0,0,1,1.66-.14h39.32c1.83,0,2.59.39,2.38,1.21-.33,1.3-1.46,1-2.37,1C786,734.36,779.31,734.35,772.68,734.35Z" transform="translate(-559.32 -269.36)"/>
    <path class="cls-7" d="M773.17,724.17h18.7c.56,0,1.11,0,1.67,0s1.37.19,1.39,1-.58,1.06-1.31,1.07h-1.19q-19.53,0-39.07,0c-.93,0-2.44.48-2.4-1.1,0-1.34,1.44-.95,2.32-1C759.91,724.15,766.54,724.17,773.17,724.17Z" transform="translate(-559.32 -269.36)"/>
    <path class="cls-7" d="M771.76,718.21c-6.46,0-12.93,0-19.39,0-.92,0-2.44.51-2.38-1.09,0-1.36,1.46-.91,2.33-.92q19.63,0,39.27,0c.87,0,2.25-.39,2.28,1s-1.37,1-2.23,1C785,718.23,778.39,718.21,771.76,718.21Z" transform="translate(-559.32 -269.36)"/>
    <path class="cls-6" d="M785.38,637c-.65-.66-1.47-.39-2.22-.4-1.79,0-3.59,0-5.38,0a101.07,101.07,0,0,1,17.22-.36v.22Z" transform="translate(-559.32 -269.36)"/>
    <path class="cls-9" d="M795,636.43v-.22c1.83,0,3.66-.07,5.49,0a28.48,28.48,0,0,0,5.46.12C802.3,636.21,798.65,636.77,795,636.43Z" transform="translate(-559.32 -269.36)"/>
    <path class="cls-11" d="M1024.9,704.25a1.29,1.29,0,0,1,.54-1.13C1025.45,703.59,1025.54,704.09,1024.9,704.25Z" transform="translate(-559.32 -269.36)"/>
    <path class="cls-9" d="M675,473.31c3.14,2.54,3.92,4.62,3,7.64a7.06,7.06,0,0,1-7,5.15c-2.79.07-5.59-.16-8.38-.37-1.59-.11-2.07-.76-2-2.63.2-4.71.46-9.42.7-14.13.08-1.59.14-3.19.26-4.78s.69-2.31,2.4-2.26c2.55.08,5.12.16,7.65.47a6.37,6.37,0,0,1,5.77,6.77A6,6,0,0,1,675,473.31Zm-6.92,9.27a25.08,25.08,0,0,0,3.21.1c2.21-.4,3.57-1.85,3.55-3.85,0-1.82-1.44-3.24-3.61-3.5-1-.13-2.07-.1-3.11-.15-3.54-.16-3.55-.17-3.64,3.32,0,1.19-.56,2.64.09,3.51C665.36,483.06,667,482.32,668.08,482.58Zm.29-17c-3.3-.13-3.3-.13-3.41,3.1,0,.64,0,1.27-.05,1.91a.82.82,0,0,0,.8.95,24.86,24.86,0,0,0,5.24.26,3.09,3.09,0,0,0,3-2.9,3.14,3.14,0,0,0-2.93-3.19C670.13,465.62,669.25,465.65,668.37,465.61Z" transform="translate(-559.32 -269.36)"/>
    <path class="cls-9" d="M567.22,469.32c.14-3.11.24-6.22.42-9.33.15-2.51.64-2.92,3.09-2.8,1.43.07,2.86.23,4.3.27,7.75.26,12.34,6.82,10.93,14.23-1.2,6.34-6,9.89-12.38,9.49-1.51-.09-3-.08-4.54-.19-1.84-.13-2.4-.74-2.33-2.58.13-3,.32-6.06.48-9.09Zm3.57,0h.09l-.3,4.54c-.29,4.66-.66,3.78,3.51,4,4.5.21,7.5-2.36,8.43-6.86s-1.39-8.7-5.45-9.93a20,20,0,0,0-4.51-.57c-.92-.06-1.27.28-1.32,1.2C571.13,464.24,570.94,466.79,570.79,469.34Z" transform="translate(-559.32 -269.36)"/>
    <path class="cls-9" d="M709.68,479.23a4.72,4.72,0,0,0-1.59,3.57,7.26,7.26,0,0,1-5.37,6.6,3.28,3.28,0,0,1-2.1-.06c-1.75-.67-2.12-1.61-1-3.08,3.16-4.11,6.32-8.23,9.63-12.22a8.61,8.61,0,0,1,9.89-2.09c3.3,1.38,5,4.32,4.89,8.27a7.91,7.91,0,0,1-5.46,7.65,9,9,0,0,1-7.2-.58c-2.8-1.48-3.4-3.44-2-6.33.21-.43.48-.83.72-1.24.67.48.51,1.3.76,1.94a4.89,4.89,0,0,0,5.18,3.38,4.76,4.76,0,0,0,4.45-4,5.39,5.39,0,0,0-2.5-6,4.86,4.86,0,0,0-5.93.9A12.27,12.27,0,0,0,709.68,479.23Z" transform="translate(-559.32 -269.36)"/>
    <path class="cls-9" d="M696,478.53c.19-.25.51-.48.55-.75.54-3.44,3.06-5.72,4.89-8.39.27-.38.66-.91,1.14-.58s.27,1-.07,1.47c-1,1.39-2,2.78-3.15,4.44,1.41,0,1.6-.92,2-1.46.67-.79,1.25-1.66,1.9-2.46.27-.34.54-.87,1.12-.35s.23.86,0,1.25c-.75,1-1.53,2-2.27,3.09-.3.41-.81.78-.54,1.54,1-.11,1.24-.95,1.7-1.52.76-.93,1.45-1.9,2.21-2.82a.62.62,0,0,1,.87-.07.54.54,0,0,1,.12.83c-1.87,2.23-2.93,5.15-5.69,6.65-1.73.94-2.8,2.59-4,4.1a8.5,8.5,0,0,1-8.23,3.33,8.11,8.11,0,0,1-7.25-8.63c.12-4.62,3.24-8,7.65-8.26a8.49,8.49,0,0,1,7.33,2.78,1.52,1.52,0,0,1,.41,1.91,29.25,29.25,0,0,0-1.2,3.37c-1.09.1-.71-.82-.88-1.32a4.88,4.88,0,0,0-5.06-3.55,4.78,4.78,0,0,0-4.61,4.08,5.27,5.27,0,0,0,2.48,5.94,5,5,0,0,0,6.08-1.13A15.54,15.54,0,0,0,696,478.53Z" transform="translate(-559.32 -269.36)"/>
    <path class="cls-9" d="M592.66,475.35c1.21,3.41,4.05,4.8,7.26,3.67.52-.18,1-.53,1.52-.7a1.62,1.62,0,0,1,2.18.91c.45.95-.14,1.51-.88,1.94a9.15,9.15,0,0,1-9.16.29,7.92,7.92,0,0,1-4.42-7.19,8.3,8.3,0,0,1,10.5-8.58,7.64,7.64,0,0,1,5.56,8.21c-.2,1.31-.78,1.76-2.4,1.69-2.72-.1-5.43-.27-8.14-.4A3.86,3.86,0,0,0,592.66,475.35Zm9.08-3.16c-.69-2.53-1.79-3.53-4-3.64-2.49-.13-3.92.85-4.77,3.24a1,1,0,0,0,.82.39Z" transform="translate(-559.32 -269.36)"/>
    <path class="cls-9" d="M644.83,477.83a5.2,5.2,0,0,0,7,3.92c.68-.22,1.31-.62,2-.78a1.5,1.5,0,0,1,1.93,1,1.53,1.53,0,0,1-.76,1.83c-3,2.2-8.26,1.76-11.13-.95a8.9,8.9,0,0,1-1.22-11,8.26,8.26,0,0,1,9.89-3.23,7.69,7.69,0,0,1,4.75,8.06,1.66,1.66,0,0,1-2,1.55c-2.23-.1-4.47-.19-6.7-.31A17.21,17.21,0,0,0,644.83,477.83Zm8.9-2.68a3.94,3.94,0,0,0-4.12-4,4.13,4.13,0,0,0-4.45,3.65C648,474.72,650.86,475.34,653.73,475.15Z" transform="translate(-559.32 -269.36)"/>
    <path class="cls-9" d="M632.19,478.51c1.49-2.84,3-5.66,4.44-8.47a9,9,0,0,1,1.13-1.81,1.61,1.61,0,0,1,2.7,1.55,5,5,0,0,1-.47,1.09c-2.06,3.87-4.14,7.73-6.21,11.59a5.28,5.28,0,0,1-.5.82,1.73,1.73,0,0,1-3-.15,6.11,6.11,0,0,1-.42-.85c-1.64-4-3.29-7.95-4.9-11.94-.73-1.79-.56-2.68.48-3.11s1.83.09,2.54,1.82c1.09,2.65,2.16,5.32,3.24,8A2.64,2.64,0,0,0,632.19,478.51Z" transform="translate(-559.32 -269.36)"/>
    <path class="cls-9" d="M608.14,470.36c.15-2.79.3-5.59.46-8.38,0-.4,0-.8.1-1.19a1.55,1.55,0,0,1,1.8-1.51,1.6,1.6,0,0,1,1.6,1.74c0,.48,0,1,0,1.44q-.37,6.81-.74,13.63a9.91,9.91,0,0,0-.06,1.44c.08,1.1.36,2,1.75,2.12a1.58,1.58,0,0,1,1.55,2c-.13,1.09-1,1.37-1.9,1.45a4.31,4.31,0,0,1-4.26-2.53,6.76,6.76,0,0,1-.62-3.26c.13-2.32.23-4.63.34-6.94Z" transform="translate(-559.32 -269.36)"/>
    <path class="cls-9" d="M621.08,474.89c0,1.84,0,3.68,0,5.51a8.13,8.13,0,0,1-.26,1.9,1.5,1.5,0,0,1-1.62,1.14,1.58,1.58,0,0,1-1.71-1.36,7.74,7.74,0,0,1,0-1.67c.18-3.67.35-7.34.55-11,.11-1.94.77-2.79,2-2.7s1.74,1,1.65,2.93c-.08,1.76-.23,3.51-.35,5.26Z" transform="translate(-559.32 -269.36)"/>
    <path class="cls-9" d="M622.35,462.26a2.25,2.25,0,0,1-2.23,2.33,2.36,2.36,0,0,1-2.17-2.16,2.3,2.3,0,0,1,2.25-2.32A2.23,2.23,0,0,1,622.35,462.26Z" transform="translate(-559.32 -269.36)"/>
    <path class="cls-5" d="M784.25,770.13c-3.65,9.4-10.2,15.46-20.25,17.37a26.25,26.25,0,0,1-10.7-.28,45.36,45.36,0,0,1-13.56-5.2,26.85,26.85,0,0,1-12.8-26.91c4.55,0,9.11,0,13.66,0,1.29,0,2,.21,2.27,1.68,1,5.35,4.52,8.38,9.44,10.13s10.2,2.22,15.45,2.68C773.26,770.07,778.76,769.81,784.25,770.13Z" transform="translate(-559.32 -269.36)"/>
    <path class="cls-13" d="M652,681.27c0,.27,0,.64-.45.48C651.46,681.4,651.68,681.3,652,681.27Z" transform="translate(-559.32 -269.36)"/>
    <path class="cls-5" d="M955.39,729.09c-5.94.26-11.87.07-17.81.12-.79,0-1.58,0-2.37,0-4.32-.64-8.7-.39-13-.94-2.06-6.55,0-11.92,4.78-16.47a60.89,60.89,0,0,0,5-5.13,32.15,32.15,0,0,0,7.55-20c.23-9.52-.52-19-.82-28.51-.35-11.27-.69-22.53,1.67-33.67a95.75,95.75,0,0,1,6-17.67,32.63,32.63,0,0,0,1-25.21,54.31,54.31,0,0,0-19.82-27c-5.64-4.18-12.19-6.22-19-7.36-8.12-1.35-16.32-2.11-24.38-3.8A153.38,153.38,0,0,1,833,522.38c-.45-.28-1-.46-1.16-1.15a5,5,0,0,1,1.92-1.29,108.92,108.92,0,0,0,10.88-7c4.49-3.31,8.41-7.1,10.81-12.24a165.35,165.35,0,0,1,16.64,3.3c-.23.16-1,.33-.1.57a61.34,61.34,0,0,0,7,1.87c9.23,2.9,18.38,6,27.32,9.69a287.05,287.05,0,0,1,40.47,20.29c8.56,5.23,14.86,12.54,19.66,21.22a72.79,72.79,0,0,1,8.59,28.72c.91,9.43.37,18.83-.43,28.24-2,23.27-5.88,46.25-10.07,69.19-2.7,14.77-5.73,29.47-8.87,44.15C955.62,728.32,955.49,728.7,955.39,729.09Z" transform="translate(-559.32 -269.36)"/>
    <path class="cls-2" d="M922.19,728.32c4.32.55,8.7.3,13,.94,0,2.67,0,5.33,0,8a10.7,10.7,0,0,1-4,1.54,51.16,51.16,0,0,1-10.25,1c-3.92.07-7.83-.24-11.74-.44.49-3.11.28-6.28.85-9.38a17.55,17.55,0,0,0,.07-3.08c3.18.29,6.31,1,9.52,1.09C920.82,729.75,921,729.76,922.19,728.32Z" transform="translate(-559.32 -269.36)"/>
    <path class="cls-5" d="M1132,782.19a24.08,24.08,0,0,1-14.79-25.41A31.94,31.94,0,0,1,1129,735.07a10.47,10.47,0,0,1,1-.63c1.51,1.25,2.29,3,3.33,4.61,3.17,4.78,6.24,9.62,9.34,14.44,1.14,1.79,1.15,1.92-.36,3.45a64.35,64.35,0,0,0-8.6,11.13,23.65,23.65,0,0,0-3,7.25,6.47,6.47,0,0,0,.52,4.86A3.52,3.52,0,0,1,1132,782.19Z" transform="translate(-559.32 -269.36)"/>
    <path class="cls-5" d="M1173.66,748.39a21.05,21.05,0,0,1,1.4,14.25,47.22,47.22,0,0,1-2.71,8.42,17.24,17.24,0,0,1-5.58,7.08,43.43,43.43,0,0,1-14,6.71,6.67,6.67,0,0,1-1.19.09,81.33,81.33,0,0,0,12.53-14,53.08,53.08,0,0,0,6.65-11.82c.86-2.17,1-4.48,1.48-6.72A13.62,13.62,0,0,1,1173.66,748.39Z" transform="translate(-559.32 -269.36)"/>
    <path class="cls-5" d="M1165.55,734.48c-.46,3-2.74,4.51-5,6-.59.4-1,.07-1.36-.5-2-3.59-4.4-7-6.16-10.76A18.1,18.1,0,0,1,1165.55,734.48Z" transform="translate(-559.32 -269.36)"/>
    <path class="cls-12" d="M1165.55,734.48a18.1,18.1,0,0,0-12.49-5.22c-1.37-1.54-2.09-3.49-3.26-5.16a16.66,16.66,0,0,1,9,.86l0-.06c0,.49.43.49.77.55a14.59,14.59,0,0,0,4.74,6.14A2.64,2.64,0,0,1,1165.55,734.48Z" transform="translate(-559.32 -269.36)"/>
    <path class="cls-7" d="M1159.56,725.45c-.34-.06-.74-.06-.77-.55C1159.31,724.72,1159.32,725.24,1159.56,725.45Z" transform="translate(-559.32 -269.36)"/>
    <path class="cls-9" d="M879,506.43a61.34,61.34,0,0,1-7-1.87c-.9-.24-.13-.41.1-.57a67,67,0,0,1,8.76,2C880.27,506.25,879.51,505.75,879,506.43Z" transform="translate(-559.32 -269.36)"/>
    <path class="cls-10" d="M909.25,739.34c3.91.2,7.82.51,11.74.44a51.16,51.16,0,0,0,10.25-1,10.7,10.7,0,0,0,4-1.54,138.1,138.1,0,0,1,25,4.42,32.18,32.18,0,0,1,5.36,2.05,9.85,9.85,0,0,1,2.74,1.91,3,3,0,0,1,.25,4.3,10.58,10.58,0,0,1-4.91,3.29,37.1,37.1,0,0,1-11.77,1.91,130,130,0,0,1-22.21-1.62q-9.84-1.42-19.53-3.67c-.38-.09-.78-.16-1.16-.27-1.63-.43-1.63-.43-1.33-2C908.17,744.82,908.72,742.08,909.25,739.34Z" transform="translate(-559.32 -269.36)"/>
    <path class="cls-3" d="M668.08,482.58c-1.11-.26-2.72.48-3.51-.57-.65-.87-.12-2.32-.09-3.51.09-3.49.1-3.48,3.64-3.32,1,.05,2.08,0,3.11.15,2.17.26,3.58,1.68,3.61,3.5,0,2-1.34,3.45-3.55,3.85A25.08,25.08,0,0,1,668.08,482.58Z" transform="translate(-559.32 -269.36)"/>
    <path class="cls-3" d="M668.37,465.61c.88,0,1.76,0,2.62.13a3.14,3.14,0,0,1,2.93,3.19,3.09,3.09,0,0,1-3,2.9,24.86,24.86,0,0,1-5.24-.26.82.82,0,0,1-.8-.95c0-.64,0-1.27.05-1.91C665.07,465.48,665.07,465.48,668.37,465.61Z" transform="translate(-559.32 -269.36)"/>
    <path class="cls-3" d="M570.79,469.34c.15-2.55.34-5.1.45-7.65,0-.92.4-1.26,1.32-1.2a20,20,0,0,1,4.51.57c4.06,1.23,6.37,5.48,5.45,9.93s-3.93,7.07-8.43,6.86c-4.17-.19-3.8.69-3.51-4l.3-4.54Z" transform="translate(-559.32 -269.36)"/>
    <path class="cls-3" d="M709.68,479.23a12.27,12.27,0,0,1,2.41-3.25,4.86,4.86,0,0,1,5.93-.9,5.39,5.39,0,0,1,2.5,6,4.76,4.76,0,0,1-4.45,4,4.89,4.89,0,0,1-5.18-3.38c-.25-.64-.09-1.46-.76-1.94Z" transform="translate(-559.32 -269.36)"/>
    <path class="cls-3" d="M696,478.53a15.54,15.54,0,0,1-2.47,3.49,5,5,0,0,1-6.08,1.13,5.27,5.27,0,0,1-2.48-5.94,4.78,4.78,0,0,1,4.61-4.08,4.88,4.88,0,0,1,5.06,3.55c.17.5-.21,1.42.88,1.32Z" transform="translate(-559.32 -269.36)"/>
    <path class="cls-3" d="M601.74,472.19h-7.92a1,1,0,0,1-.82-.38c.85-2.4,2.28-3.38,4.77-3.25C600,468.66,601.05,469.66,601.74,472.19Z" transform="translate(-559.32 -269.36)"/>
    <path class="cls-3" d="M653.73,475.15c-2.87.19-5.7-.43-8.57-.36a4.13,4.13,0,0,1,4.45-3.65A3.94,3.94,0,0,1,653.73,475.15Z" transform="translate(-559.32 -269.36)"/>
  </g>
</svg>
