<svg id="Livello_1" data-name="Livello 1" xmlns="http://www.w3.org/2000/svg" viewBox="0 0 108.06 107.14"><defs><style>.cls-1{fill:#6b2245;}.cls-2{fill:none;}.cls-3{fill:#fdb301;}.cls-4{fill:#82c14c;}.cls-5{fill:#cb8568;}.cls-6{fill:#f74542;}.cls-7{fill:#c13856;}.cls-8{fill:#ffcb7b;}.cls-9{fill:#fff;}.cls-10{fill:#f5b472;}</style></defs><title>panino</title><path class="cls-1" d="M950.52,589.19v0Z" transform="translate(-906.48 -486.83)"/><path d="M1002.92,578.34c-.35-2.88-1.77-5.31-3.28-7.71-.34-.55-1.14-1.24-.25-1.86,3.27-2.26,3.17-6.62,5.91-9.32,1-1,1.67-2.19,3.12-2.83,6.49-2.9,7.89-8,3.86-13.75a4.32,4.32,0,0,1-.65-4.28,31.36,31.36,0,0,0,.29-18.57c-3-10.69-10.09-18.23-19-24.25a45.6,45.6,0,0,0-10.64-5.42,55.52,55.52,0,0,0-19.17-3.52,40,40,0,0,0-22.09,6.6c-.17.08-.33.18-.5.27h0a49.5,49.5,0,0,0-9,9.28,6.89,6.89,0,0,1-6.08,4.6,8.45,8.45,0,0,0-5.44,3c-2.21,2.59-2,5.6-.82,8.58.56,1.44,1.58,2.76-.19,4.12a1.53,1.53,0,0,0-.27,1.41c.7,1.45-.18,2.3-1,3.16-1.32,1.3-1.22,3.74-2.62,4.51s-3.46.58-5.23,1a4.48,4.48,0,0,0-2.52,7,12.88,12.88,0,0,0,4.33,3.85c.84.47,1.08.9.72,1.86-3.15,8.53-.33,15.94,4.75,22.65,5.46,7.23,12.59,12.59,20.59,16.78,9.37,4.92,19.21,8.36,29.92,8.49,9.19.11,17.2-2.34,22.36-10.81,1.82-3,4.76-3.34,7.76-1.57,1.21.72,2.56,1.21,3.89.4S1003.09,579.76,1002.92,578.34Zm-2.69-12.82a9.24,9.24,0,0,1-7.42,3.93h0c-.45.26-.68,0-.92-.35-.13-.05-.31-.2-.39-.15-3.59,2-7.44.79-11,.46a79.26,79.26,0,0,1-16.64-3.67c-.4-.13-.79-.3-1.41-.54a39.86,39.86,0,0,1,8-5.13c2.46-1.09,3.19-.8,4.05,1.81a7.36,7.36,0,0,0,2.68,3.58,4.15,4.15,0,0,0,6-.52A20.53,20.53,0,0,0,985,562.3c1.34-2,3.32-2.56,5.1-.92a4,4,0,0,0,5.27.64,2.68,2.68,0,0,1,3.38.47C1001.38,562.82,1001.7,563.36,1000.23,565.52Zm-56.72-19.38c1.62.43,1.62.43,2.22,1.11,1.82,2.06,3.65,2.27,5.75.34s4-1.91,6.28-.8a22.27,22.27,0,0,0,5.54,1.78,3.53,3.53,0,0,1,3,3.22c.56,3.17,1.7,4.06,4.87,3.61,1.12-.16,1.82,0,2,1.18.61.59.44,1.09-.33,1.19-4.36.52-7.47,3.39-10.89,5.71a18,18,0,0,1-5.5,2.85A2.68,2.68,0,0,1,954,566c-2.73.49-4.26-1.82-5.1-5C947.58,555.9,946.84,550.66,943.51,546.14Zm1.85,12.33c-8.24-3.88-16.12-8.31-23.5-15.53a16.72,16.72,0,0,1-4.34-7.09,7.63,7.63,0,0,1,1.15-6.78c.22-.32.71-.74,1-.69.65.12.53.81.46,1.26a17.7,17.7,0,0,1-.54,1.85c-.8,2.93.79,5.18,3.81,5.45a8.24,8.24,0,0,0,4.79-1c1.65-.94,2.71-.8,3.7.94s2.28,3.14,3.28,4.8a6.62,6.62,0,0,0,4.42,3.19,3.57,3.57,0,0,1,2.21,1.6,29.74,29.74,0,0,1,4.61,11.1C946.63,558.54,946.48,559,945.36,558.47Zm37.85,3.73c-.66,1.1-1.1,2.39-2.68,2.55a4.46,4.46,0,0,1-4.33-3.25c-.49-1.51-.75-3.08-1.11-4.63-.6-2.63-1.39-3.25-4-3.15-2.43.11-3.71-1.22-3.59-3.61,0-.77.46-.75,1-.75,2.85,0,5.5-.07,8.19,1.71,7.81,5.17,16.6,7.31,26,7.21.51-.31,1.14-.62,1.54-.08s-.22.94-.49,1.31a3.31,3.31,0,0,1-3.08,1.62c-2.34-.76-4.67-1.53-7.08-.14a1.48,1.48,0,0,1-1.6-.35C988.37,557.88,985.46,558.4,983.21,562.2Zm-8.9-14.87-.2,0-.08-.19h0a.62.62,0,0,1-.88.28l0,0a.37.37,0,0,1-.57,0h0a22.91,22.91,0,0,1-14.61-2.52c-4.88-1.6-8.51-4.89-11.79-8.66a.21.21,0,0,1,0-.19.27.27,0,0,1,.08-.14l0,0,0,0h.09l.08,0h0l.09,0,.06,0a4.48,4.48,0,0,1,5.35-.23c2.13,1.26,4.41,2.3,6.62,3.42,5.57,2.1,11,4.53,16.76,6.14.82.22,1.63.48,2.63.79C976.84,547.28,975.53,547.19,974.31,547.33Zm37.25-3.23c2.1,3,2,6.14-.33,8.61-2.27,2.74-5.51,3.34-8.74,4a31.18,31.18,0,0,1-6.55-.08c-5.93-.54-11.22-2.94-16.34-5.78-.94-.52-2.8-.59-2.63-1.84s2.07-.91,3.08-1.54c1.65-1,3.26,0,4.79.24,5.49.94,11,1.62,16.55.86a12.33,12.33,0,0,0,8-4.31C1010,542.91,1010.65,542.78,1011.56,544.1Zm-63-52.87a2.54,2.54,0,0,1,1.86-.37l1-.5.59-.21a16.7,16.7,0,0,1,5.91-1.27c9.83-1.55,19.11.53,27.91,4.74,10.67,5.1,19.09,12.58,23.58,23.86a31.53,31.53,0,0,1,2.16,12.27,3.71,3.71,0,0,1-1.17,3.06l.12.2a1.18,1.18,0,0,1,.11.19,2,2,0,0,1,.17.37,3,3,0,0,1,.19.74,2.36,2.36,0,0,1,0,.37c0,1.34-.76,2.63-1.06,3.93a9.42,9.42,0,0,1-.49,1.38c-.17.38-.35.75-.5,1.12,0,.08-.07.17-.11.25a1.85,1.85,0,0,1,0,.23c0,.15-.07.3-.11.44a2.83,2.83,0,0,1-.14.41c-.05.13-.1.26-.16.39a2.31,2.31,0,0,1-.18.35l-.1.18-.21.31,0,0a1.78,1.78,0,0,1-.21.27,5.91,5.91,0,0,1-1.81,1.4,11.76,11.76,0,0,1-1.49.65l-.62.21-.95.28c-5.43,1.54-10.92.79-16.33-.2a122.7,122.7,0,0,1-34.17-12.15,83.4,83.4,0,0,1-15.68-10.34c-3-2.59-5.81-5.43-7.13-9.35a7,7,0,0,1,.42-5.66A34.84,34.84,0,0,1,948.58,491.23Zm-28,21.89c1.2,4.59,4.55,7.49,7.66,10.58l2.7,1.9c-.1-1.15-1.08-1.66-1.79-2.32a27,27,0,0,1-5.93-7.86c-1.7-3.36-.89-5.48,2.39-6.27,1.36-.33,2,.25,1.93,1.5-.56,6.53,3.49,10.53,7.87,14.25,2.89,2.45,6.06,4.57,9.11,6.84.82.41,1.8.54,2.48,1.44-1.37,1-2.94.52-4.24.32a32.87,32.87,0,0,1-20.06-11.33,4.1,4.1,0,0,1-.48-1C920.45,518.86,919.33,516.35,920.62,513.12Zm.21,12.41c-.42-.63-.73-1.43,0-1.94s1.13.39,1.55.79c5.61,5.34,12,9.18,19.73,10.59A3.32,3.32,0,0,1,944,536c1.11,1.14,2.25,2.25,3.38,3.37,1.56,1.49,2.89,3.25,4.73,4.43.91.58.89,1,0,1.55a21.59,21.59,0,0,0-1.79,1.21c-1.49,1.06-2.74.81-3.64-.73a4.32,4.32,0,0,0-4.13-2.25,7,7,0,0,1-6.35-3.44c-.94-1.53-2-3-3-4.48-1.6-2.4-2.89-2.81-5.45-1.41a7.91,7.91,0,0,1-3.73.94,2.51,2.51,0,0,1-2.57-3.49A6.64,6.64,0,0,0,920.83,525.53Zm56.95,65.52-.9.26-.89.24-.9.2-.8.17c-.4.08-.8.14-1.2.2l-.65.1h-.14l-.73.09h-.17l-.83.07c-.3,0-.6,0-.91.05s-.52,0-.78,0h-1c-.29,0-.58,0-.86,0h-.07l-.84-.06H966l-.86-.09c-.32,0-.65-.07-1-.12s-.62-.09-.93-.15a8.62,8.62,0,0,1-.88,0h-.25a8.67,8.67,0,0,1-1.13-.12l-.55-.1c-.55-.11-1.1-.24-1.65-.38a23.68,23.68,0,0,1-6.41-1.62h0a3,3,0,0,1-1.84-.59v0a.66.66,0,0,1-.27,0,.65.65,0,0,1-.2,0l-.15-.07-.11-.07-.21-.16a.93.93,0,0,1-.9-.3h0l-.06,0h0l-.84-.3a71.17,71.17,0,0,1-19.43-10.7c-5.66-4.36-10.63-9.36-13.65-16-2.16-4.75-2.83-9.64-.86-14.85a4.73,4.73,0,0,1,1.68,2.82c1.48,4.39,4.52,6.84,9,7.74,4.87,1,8.86,3.09,10.71,8.22,1,2.76,3.19,3.54,5.85,2.64,1.89-.65,3,.27,3.9,1.78,2.82,4.88,4.69,5.61,10,3.8a2.43,2.43,0,0,1,2.77.59,26.47,26.47,0,0,1,1.87,2.1c2.85,3.78,4.58,4.32,9.15,2.89,3.17-1,6.34-1.88,9.75-1.14a8.73,8.73,0,0,1,3.5,1.58c1.37,1,2.66,2.19,4,3.29,1.34.65,1.31,1.45.38,2.51A18.62,18.62,0,0,1,977.78,591.05Zm23.14-10.56c-1,.66-2,0-2.79-.66l-.24-.12a2.14,2.14,0,0,1-.3-.17l-.12-.09-.24-.17a10.75,10.75,0,0,0-1.25-.91l-.12-.06a2.15,2.15,0,0,0-.78-.22h0a5.7,5.7,0,0,0-3.55,1.88,3.67,3.67,0,0,1-4.19,1.17h0c-.75.31-1.25-.15-1.77-.56-1.73-.64-2.65-2.33-4.27-3.23l-.5-.26-.24-.12-.24-.11-.42-.17-.44-.16c-.16-.06-.33-.12-.51-.17a.5.5,0,0,0-.13,0l-.39-.1a8.58,8.58,0,0,0-1-.18l-.47-.06-.48,0a87.88,87.88,0,0,0-10.25,2.47,2,2,0,0,1-2.37-.52,11.17,11.17,0,0,1-4.11-3.94,5.69,5.69,0,0,0-3.14-2.12c-1.19-.14-2.14.55-3.19.93-1.5.54-3,.94-4.35-.41a.44.44,0,0,1-.1-.19s.06,0,.1-.07c-2.16-1.72-3.25-4.49-5.74-5.9-.21,0-.46.09-.64,0h0a.44.44,0,0,1-.17-.26l-.37.18h0l-.6.25c-.15.06-.28.12-.41.16l-.22.08-.21.07-.2.06-.17,0a2.42,2.42,0,0,1-1.73-.07l-.13-.07a3.37,3.37,0,0,1-1.13-1.5,17.47,17.47,0,0,0-4.6-6.16,12.94,12.94,0,0,0-7.25-3.38,8.68,8.68,0,0,1-8.14-6.34c-1-3-2.54-5.62-5.6-7.08a7.29,7.29,0,0,1-3.06-3,2.75,2.75,0,0,1,1.55-4.15c4-1.29,5.2-1.52,6.14,3.19a42.58,42.58,0,0,0,8.05,9.55l10,7a30.15,30.15,0,0,1,5.17,2.9c1.87.89,3.71,1.86,5.63,2.65a4.52,4.52,0,0,1,2.88,3.18,6.68,6.68,0,0,0,8.69,4.19,9.51,9.51,0,0,1,7.15-.16,84.4,84.4,0,0,0,21,4.21c3.67.17,7.37.14,10.89-1.16,1.29-.48,1.9-.13,2.58,1a19.8,19.8,0,0,1,2.78,6.93A1.41,1.41,0,0,1,1000.92,580.49Z" transform="translate(-906.48 -486.83)"/><path class="cls-2" d="M931.52,503a1,1,0,0,1,.15-1.2,89.81,89.81,0,0,1,7.86-7.87c.23-.19.66-.15,1-.21A49.5,49.5,0,0,0,931.52,503Z" transform="translate(-906.48 -486.83)"/><path class="cls-3" d="M1007.73,544a1.78,1.78,0,0,0,.21-.27l0,0,.21-.31.1-.18.18-.35c.06-.13.11-.26.16-.39s.1-.27.14-.41.07-.29.11-.44,0-.16,0-.23a1.89,1.89,0,0,1,.11-.25c.15-.37.33-.74.5-1.12a9.42,9.42,0,0,0,.49-1.38c.3-1.3,1.07-2.59,1.06-3.93a2.36,2.36,0,0,0,0-.37,3,3,0,0,0-.19-.74,2,2,0,0,0-.17-.37,1.18,1.18,0,0,0-.11-.19,1.27,1.27,0,0,0-.13-.19h0a3.71,3.71,0,0,0,1.17-3.06,31.53,31.53,0,0,0-2.16-12.27c-4.49-11.28-12.91-18.76-23.58-23.86-8.8-4.21-18.08-6.29-27.91-4.74a16.7,16.7,0,0,0-5.91,1.27l-.59.21-1,.5a2.54,2.54,0,0,0-1.86.37A34.84,34.84,0,0,0,930,508.8a7,7,0,0,0-.42,5.66c1.32,3.92,4.08,6.76,7.13,9.35a83.4,83.4,0,0,0,15.68,10.34,122.7,122.7,0,0,0,34.17,12.15c5.41,1,10.9,1.74,16.33.2l.95-.28.62-.21a11.76,11.76,0,0,0,1.49-.65A5.91,5.91,0,0,0,1007.73,544ZM959.06,490.8c-.25-.27,0-.49.09-.73h0c.13.23.34.46.09.73A.21.21,0,0,1,959.06,490.8Zm30.83,18.75,0,.05,0-.05,0,0Z" transform="translate(-906.48 -486.83)"/><path class="cls-4" d="M942.49,565.91h0Z" transform="translate(-906.48 -486.83)"/><polygon class="cls-5" points="44.05 102.36 44.03 102.38 44.04 102.36 44.04 102.36 44.05 102.36"/><polygon class="cls-5" points="55.7 104.16 55.7 104.16 55.69 104.16 55.7 104.15 55.7 104.16"/><path class="cls-6" d="M945.36,558.47c-8.24-3.88-16.12-8.31-23.5-15.53a16.72,16.72,0,0,1-4.34-7.09,7.63,7.63,0,0,1,1.15-6.78c.22-.32.71-.74,1-.69.65.12.53.81.46,1.26a17.7,17.7,0,0,1-.54,1.85c-.8,2.93.79,5.18,3.81,5.45a8.24,8.24,0,0,0,4.79-1c1.65-.94,2.71-.8,3.7.94s2.28,3.14,3.28,4.8a6.62,6.62,0,0,0,4.42,3.19,3.57,3.57,0,0,1,2.21,1.6,29.74,29.74,0,0,1,4.61,11.1C946.63,558.54,946.48,559,945.36,558.47Z" transform="translate(-906.48 -486.83)"/><path class="cls-6" d="M952.05,545.39a21.59,21.59,0,0,0-1.79,1.21c-1.49,1.06-2.74.81-3.64-.73a4.32,4.32,0,0,0-4.13-2.25,7,7,0,0,1-6.35-3.44c-.94-1.53-2-3-3-4.48-1.6-2.4-2.89-2.81-5.45-1.41a7.91,7.91,0,0,1-3.73.94,2.51,2.51,0,0,1-2.57-3.49,6.64,6.64,0,0,0-.54-6.21c-.42-.63-.73-1.43,0-1.94s1.13.39,1.55.79c5.61,5.34,12,9.18,19.73,10.59A3.32,3.32,0,0,1,944,536c1.11,1.14,2.25,2.25,3.38,3.37,1.56,1.49,2.89,3.25,4.73,4.43C953,544.42,953,544.86,952.05,545.39Z" transform="translate(-906.48 -486.83)"/><path class="cls-6" d="M1002.49,556.67a31.18,31.18,0,0,1-6.55-.08c-5.93-.54-11.22-2.94-16.34-5.78-.94-.52-2.8-.59-2.63-1.84s2.07-.91,3.08-1.54c1.65-1,3.26,0,4.79.24,5.49.94,11,1.62,16.55.86a12.33,12.33,0,0,0,8-4.31c.66-1.31,1.29-1.44,2.2-.12,2.1,3,2,6.14-.33,8.61C1009,555.45,1005.72,556.05,1002.49,556.67Z" transform="translate(-906.48 -486.83)"/><path class="cls-6" d="M1000.58,561.13c-2.34-.76-4.67-1.53-7.08-.14a1.48,1.48,0,0,1-1.6-.35c-3.53-2.76-6.44-2.24-8.69,1.56-.66,1.1-1.1,2.39-2.68,2.55a4.46,4.46,0,0,1-4.33-3.25c-.49-1.51-.75-3.08-1.11-4.63-.6-2.63-1.39-3.25-4-3.15-2.43.11-3.71-1.22-3.59-3.61,0-.77.46-.75,1-.75,2.85,0,5.5-.07,8.19,1.71,7.81,5.17,16.6,7.31,26,7.21.51-.31,1.14-.62,1.54-.08s-.22.94-.49,1.31A3.31,3.31,0,0,1,1000.58,561.13Z" transform="translate(-906.48 -486.83)"/><polygon class="cls-7" points="25.57 39.82 25.47 39.82 25.46 39.81 25.47 39.81 25.57 39.82"/><path class="cls-5" d="M955.79,565,954,566l1.77-1Z" transform="translate(-906.48 -486.83)"/><path class="cls-6" d="M974.31,547.33l-.2,0-.08-.19h0a.62.62,0,0,1-.88.28l0,0a.37.37,0,0,1-.57,0h0a22.91,22.91,0,0,1-14.61-2.52c-4.88-1.6-8.51-4.89-11.79-8.66a.21.21,0,0,1,0-.19.27.27,0,0,1,.08-.14l0,0,0,0h.09l.08,0h0l.09,0,.06,0h0a4.48,4.48,0,0,1,5.35-.23c2.13,1.26,4.41,2.3,6.62,3.42,5.57,2.1,11,4.53,16.76,6.14.82.22,1.63.48,2.63.79C976.84,547.28,975.53,547.19,974.31,547.33Z" transform="translate(-906.48 -486.83)"/><polygon class="cls-5" points="25.47 39.82 25.46 39.81 25.47 39.81 25.47 39.82"/><path class="cls-3" d="M972.85,557.77c-4.36.52-7.47,3.39-10.89,5.71a18,18,0,0,1-5.5,2.85A2.68,2.68,0,0,1,954,566l1.77-1h0L954,566c-2.73.49-4.26-1.82-5.1-5-1.34-5.08-2.08-10.32-5.41-14.84,1.62.43,1.62.43,2.22,1.11,1.82,2.06,3.65,2.27,5.75.34s4-1.91,6.28-.8a22.27,22.27,0,0,0,5.54,1.78,3.53,3.53,0,0,1,3,3.22c.56,3.17,1.7,4.06,4.87,3.61,1.12-.16,1.82,0,2,1.18C973.79,557.17,973.62,557.67,972.85,557.77Z" transform="translate(-906.48 -486.83)"/><path class="cls-8" d="M955.79,565,954,566l1.77-1Z" transform="translate(-906.48 -486.83)"/><path class="cls-6" d="M944.56,531.74c-3-2.27-6.22-4.39-9.11-6.84-4.38-3.72-8.43-7.72-7.87-14.25.1-1.25-.57-1.83-1.93-1.5-3.28.79-4.09,2.91-2.39,6.27a27,27,0,0,0,5.93,7.86c.71.66,1.69,1.17,1.79,2.32l-2.7-1.9c-3.11-3.09-6.46-6-7.66-10.58-1.29,3.23-.17,5.74,1.64,8.09a4.1,4.1,0,0,0,.48,1A32.87,32.87,0,0,0,942.8,533.5c1.3.2,2.87.65,4.24-.32C946.36,532.28,945.38,532.15,944.56,531.74ZM932,526.65h0Z" transform="translate(-906.48 -486.83)"/><path class="cls-6" d="M992.81,569.45h0c-.45.26-.68,0-.92-.35-.13-.05-.31-.2-.39-.15-3.59,2-7.44.79-11,.46a79.26,79.26,0,0,1-16.64-3.67c-.4-.13-.79-.3-1.41-.54a39.86,39.86,0,0,1,8-5.13c2.46-1.09,3.19-.8,4.05,1.81a7.36,7.36,0,0,0,2.68,3.58,4.15,4.15,0,0,0,6-.52A20.53,20.53,0,0,0,985,562.3c1.34-2,3.32-2.56,5.1-.92a4,4,0,0,0,5.27.64,2.68,2.68,0,0,1,3.38.47c2.62.33,2.94.87,1.47,3A9.24,9.24,0,0,1,992.81,569.45Z" transform="translate(-906.48 -486.83)"/><path class="cls-9" d="M1000.92,580.49c-1,.66-2,0-2.79-.66l-.24-.12a2.14,2.14,0,0,1-.3-.17l-.12-.09-.24-.17a10.75,10.75,0,0,0-1.25-.91l-.12-.06a2.15,2.15,0,0,0-.78-.22h0a5.7,5.7,0,0,0-3.55,1.88,3.67,3.67,0,0,1-4.19,1.17h0c-.75.31-1.25-.15-1.77-.56-1.73-.64-2.65-2.33-4.27-3.23l-.5-.26-.24-.12-.24-.11-.42-.17-.44-.16c-.16-.06-.33-.12-.51-.17a.5.5,0,0,0-.13,0l-.39-.1a8.58,8.58,0,0,0-1-.18l-.47-.06-.48,0h0a87.88,87.88,0,0,0-10.25,2.47,2,2,0,0,1-2.37-.52,11.17,11.17,0,0,1-4.11-3.94,5.69,5.69,0,0,0-3.14-2.12c-1.19-.14-2.14.55-3.19.93-1.5.54-3,.94-4.35-.41a.44.44,0,0,1-.1-.19s.06,0,.1-.07c-2.16-1.72-3.25-4.49-5.74-5.9-.21,0-.46.09-.64,0h0a.44.44,0,0,1-.17-.26h0v0l-.37.18h0l-.6.25c-.15.06-.28.12-.41.16l-.22.08-.21.07-.2.06-.17,0a2.42,2.42,0,0,1-1.73-.07l-.13-.07a3.37,3.37,0,0,1-1.13-1.5,17.47,17.47,0,0,0-4.6-6.16,12.94,12.94,0,0,0-7.25-3.38,8.68,8.68,0,0,1-8.14-6.34c-1-3-2.54-5.62-5.6-7.08a7.29,7.29,0,0,1-3.06-3,2.75,2.75,0,0,1,1.55-4.15c4-1.29,5.2-1.52,6.14,3.19a42.58,42.58,0,0,0,8.05,9.55l10,7a30.15,30.15,0,0,1,5.17,2.9c1.87.89,3.71,1.86,5.63,2.65a4.52,4.52,0,0,1,2.88,3.18,6.68,6.68,0,0,0,8.69,4.19,9.51,9.51,0,0,1,7.15-.16,84.4,84.4,0,0,0,21,4.21c3.67.17,7.37.14,10.89-1.16,1.29-.48,1.9-.13,2.58,1a19.8,19.8,0,0,1,2.78,6.93A1.41,1.41,0,0,1,1000.92,580.49Z" transform="translate(-906.48 -486.83)"/><path class="cls-8" d="M942.49,565.91h0v0Z" transform="translate(-906.48 -486.83)"/><polygon class="cls-10" points="44.05 102.36 44.03 102.38 44.04 102.36 44.04 102.36 44.05 102.36"/><path class="cls-10" d="M948.6,588.55l-.84-.3C948.23,587.82,948.33,588.41,948.6,588.55Z" transform="translate(-906.48 -486.83)"/><path class="cls-8" d="M942.48,565.91h0v0Z" transform="translate(-906.48 -486.83)"/><path class="cls-10" d="M950.52,589.19a.66.66,0,0,1-.27,0,.65.65,0,0,1-.2,0l-.15-.07-.11-.07-.21-.16h0Z" transform="translate(-906.48 -486.83)"/><polygon class="cls-10" points="44.05 102.36 44.04 102.36 44.04 102.36 44.05 102.36"/><path class="cls-10" d="M949.58,588.88a.93.93,0,0,1-.9-.3Z" transform="translate(-906.48 -486.83)"/><path class="cls-8" d="M959.25,490.8a.21.21,0,0,1-.19,0c-.25-.27,0-.49.09-.73h0C959.29,490.3,959.5,490.53,959.25,490.8Z" transform="translate(-906.48 -486.83)"/><path class="cls-3" d="M986.43,585.54c.93-1.06,1-1.86-.38-2.51-1.32-1.1-2.61-2.25-4-3.29a8.73,8.73,0,0,0-3.5-1.58c-3.41-.74-6.58.15-9.75,1.14-4.57,1.43-6.3.89-9.15-2.89a26.47,26.47,0,0,0-1.87-2.1,2.43,2.43,0,0,0-2.77-.59c-5.34,1.81-7.21,1.08-10-3.8-.87-1.51-2-2.43-3.9-1.78-2.66.9-4.85.12-5.85-2.64-1.85-5.13-5.84-7.24-10.71-8.22-4.52-.9-7.56-3.35-9-7.74a4.73,4.73,0,0,0-1.68-2.82c-2,5.21-1.3,10.1.86,14.85,3,6.62,8,11.62,13.65,16a71.17,71.17,0,0,0,19.43,10.7c.47-.43.57.16.84.3h0l.06,0h0l.9.3h0l.93.31h0v0a3,3,0,0,0,1.84.59h0a23.68,23.68,0,0,0,6.41,1.62c.55.14,1.1.27,1.65.38l.55.1a8.67,8.67,0,0,0,1.13.12h.25a8.62,8.62,0,0,0,.88,0h0l.92.15c.32.05.65.09,1,.12l.86.09h.07l.84.06H967l.86,0h1l.78,0c.31,0,.61,0,.91-.05l.83-.07h.17l.73-.09h.14l.65-.1c.4-.06.8-.12,1.2-.2l.8-.17.9-.2.89-.24.9-.26A18.62,18.62,0,0,0,986.43,585.54ZM962.17,591Z" transform="translate(-906.48 -486.83)"/><polygon class="cls-10" points="55.7 104.16 55.7 104.16 55.69 104.16 55.7 104.15 55.7 104.16"/><polygon class="cls-5" points="25.57 39.82 25.47 39.82 25.47 39.81 25.57 39.82"/><polygon class="cls-5" points="55.7 104.16 55.7 104.16 55.69 104.16 55.7 104.15 55.7 104.16"/></svg>