<svg id="Livello_1" data-name="Livello 1" xmlns="http://www.w3.org/2000/svg" viewBox="0 0 107.33 138.99"><defs><style>.cls-1{fill:#fff;}.cls-2{fill:#f7dce1;}.cls-3{fill:#fdb301;}.cls-4{fill:#f74542;}.cls-5{fill:#ffca7a;}</style></defs><title>pollo</title><path d="M1012.76,577.3c-3.67-6.27-7-12.74-10.52-19.08s-6.87-12.82-10.58-19.08c-1.26-2.13-2.62-4.32-2.74-7a4.42,4.42,0,0,0-1.84-3.43c-3-2-5.2-4.75-8.24-6.63A12.08,12.08,0,0,1,974,517.4a5,5,0,0,0-3.06-2.67c-2.16-.52-2.89-2-3.44-3.86a16,16,0,0,0-.61-1.63c-.77-1.73-1.42-3.42.11-5.12a3,3,0,0,0,.5-1.5,4,4,0,0,0-2.52-4.47,3.42,3.42,0,0,0-4.37,1.91c-.46,1-.89.87-1.7.54-1.86-.74-3.46-.38-4.44,1a4.4,4.4,0,0,0-.3,5c.86,1.52,1.93,2.94,4.07,2.63.48-.07,1-.11,1.28.6.75,2,1.6,3.91,2.41,5.86.16.38.5.87,0,1.14s-.7-.34-1-.61a16.64,16.64,0,0,0-6.33-3.9c-7.54-2.52-14.74.94-17.25,8.47a18.86,18.86,0,0,0-.88,5.48c0,.74-.13,1.28-1.09,1.39-4.61.54-4.61.57-8.29-2.31a16,16,0,0,0-1.39-1.07,2.64,2.64,0,0,1-1.46-2.85,4.48,4.48,0,0,0-.72-2.9,3.87,3.87,0,0,0-4.52-1.78,3.37,3.37,0,0,0-2.4,3.84c.2,1.26-.46,1.26-1.26,1.4a3.51,3.51,0,0,0-2.87,5.06c.9,2.29,3.31,3.85,5.48,2.89s3.65,0,5.18,1.21c.78.63,1.6,1.23,2.44,1.79a1.88,1.88,0,0,1,1,1.8,6.26,6.26,0,0,0,1.65,4.55c2.11,2.2,3,5,4,7.69.35.89.15,1.13-.76,1.08a7.53,7.53,0,0,0-5.25,1.46,1.13,1.13,0,0,1-1.47,0,13.54,13.54,0,0,0-3.76-1.65c-1.81-.59-3.28-1.36-3.55-3.49a2.88,2.88,0,0,0-.7-1.24,4,4,0,0,0-4.85-1.27,3.4,3.4,0,0,0-1.76,4.55c.37,1.08-.12,1.35-.87,1.79a3.64,3.64,0,0,0-1.05,5.91c1.58,1.83,4.39,2.49,6.14.87s3.08-1,4.71-.35c1.14.45,2.3.84,3.45,1.24a1.53,1.53,0,0,1,1.18,1.14,7.39,7.39,0,0,0,3.38,4.43,16.49,16.49,0,0,1,6.3,7.58,6.57,6.57,0,0,0,4.41,3.85A5.22,5.22,0,0,1,940,574.1c12.1,11,24.26,22,36.29,33.15a11.34,11.34,0,0,0,9.8,3,28.39,28.39,0,0,0,10.82-4.07c6.77-4.05,12.49-9.16,15.22-14.41C1015.13,585.64,1015.27,581.55,1012.76,577.3Zm-89-24.35c0,1.66-.71,1.75-2,1.16s-2.89-1-4.32-1.6a2.1,2.1,0,0,0-2.75.61,3.32,3.32,0,0,1-5.06.31c-1.55-1.56-1.26-3.27.71-4.21a6.09,6.09,0,0,1,.75-.28c1.83-.59,1.81-.58.85-2.17-.53-.88-1-1.8-.15-2.77,1.13-1.32,2.46-1.43,3.65-.29a2.81,2.81,0,0,1,1,1.74c.07,2.19,1.52,2.9,3.28,3.42,1,.29,1.89.69,2.83,1.06C924.7,550.79,924.7,550.8,923.74,553Zm37.11-43.57a2,2,0,0,0-2.25-1.62,3.22,3.22,0,0,1-3.49-2.43A2.89,2.89,0,0,1,956,502c1-.77,2.14-.39,3.13.19,1.73,1,1.72,1,2.36-.9,0-.1.07-.2.1-.29a1.89,1.89,0,0,1,.11-.25l.09-.2.05-.08,0-.09a.56.56,0,0,1,.05-.08h0a1.71,1.71,0,0,1,.11-.14.64.64,0,0,1,.13-.15l.13-.14a1.49,1.49,0,0,1,.31-.2l.13-.06.06,0a.94.94,0,0,1,.24-.06l.13,0h.4l.24,0h0l.22,0,.54.13c1.62.95,2.18,2.32,1,3.93-1.58,2.05-1.07,3.8-.16,5.77.53,1.14.88,2.37,1.38,3.53.35.84,0,1-.73,1l-2.78,1.39C962.45,513.3,961.58,511.37,960.85,509.38Zm1,19.78a16.21,16.21,0,0,0,.25-7.2,5.93,5.93,0,0,1,2-5.38c.38-.38.82-.88,1.51-.62,2.29-1.18,4.86-.53,6.73,1.78.95,1.18,1.82,2.45,2.73,3.67a10.37,10.37,0,0,1,3.37,2.17,17,17,0,0,1,4.89,4.47,5.49,5.49,0,0,1,.32,5.05,32.17,32.17,0,0,1-7.4,11.55c-.7.76-1,.22-1.21-.32a19.46,19.46,0,0,0-2.79-4.43,18.18,18.18,0,0,0-8.87-6.14,6.13,6.13,0,0,1-1-.5c-.63.33-1,.15-1-.57a13.27,13.27,0,0,1,.24-1.66A3.48,3.48,0,0,1,961.85,529.16ZM974,545.93c.32.77-.06,1.19-.52,1.65a109.46,109.46,0,0,1-16.7,13.09,2.1,2.1,0,0,1-3.06-.2,11.82,11.82,0,0,1-2.13-2.11c-5.81-5.66-6.11-15.83-.55-20.87a9.68,9.68,0,0,1,7.23-2.7C966.28,534,971.84,540.59,974,545.93Zm-34-27.7a4.1,4.1,0,0,1,1.44-1.65c2.44-3,5.78-3.75,9.4-3.55a14.39,14.39,0,0,1,9.38,4.54c.37.36.91.75.7,1.33-.7,2-.16,4-.07,6,.12,2.59-.93,5-1.06,7.53-.05.94-.8.65-1.31.7a13.78,13.78,0,0,0-9.46,4.3c-.57.62-.78,1.53-1.61,1.93-.2.71-.09,1.81-1.4,1C938.16,535.22,935.72,525.52,940,518.23ZM925,530.71a22.1,22.1,0,0,1-2.05-1.51c-1.39-1.29-2.69-1.82-4.63-.77a3.42,3.42,0,0,1-4.78-2.35c-.4-1.59.87-2.82,3.06-3,2-.13,2-.13,1.52-2.06a2.8,2.8,0,0,1,.15-2.1.83.83,0,0,1,.08-.12l.1-.12a1.15,1.15,0,0,1,.23-.21,1.49,1.49,0,0,1,.3-.18h0l.23-.1.13-.05.13,0,.14,0,.49,0a3.59,3.59,0,0,1,.47,0h.05l.33.07a2.45,2.45,0,0,1,.5.17,2.22,2.22,0,0,1,.37.21l.21.17a2.28,2.28,0,0,1,.22.22,2.4,2.4,0,0,1,.39.66,2.58,2.58,0,0,1,.1.33,1.55,1.55,0,0,1,.06.31,2.13,2.13,0,0,1,0,.25,4.13,4.13,0,0,1,0,.78c-.24,2.11.66,3.2,2.21,4.22,1.27.84,2.43,1.84,3.64,2.78.47.37.83.75,0,1.1l-.54.78h0s0,0,0,0,0,0,0,0H928C926.84,532.12,926.84,532.12,925,530.71Zm4.75,8.15a6.15,6.15,0,0,1-1.39-6.34,2.51,2.51,0,0,1,1.45-1.78,5.93,5.93,0,0,1,6.61-1.08,1.54,1.54,0,0,1,.67,1,20.18,20.18,0,0,0,8,10.73c1,.68,1,1.43.88,2.53-.15,2-.84,3-3,2.85s-4.31,1-6.55,1c-1.14.92-2,.77-2.49-.68-.37-1-.87-2-1.22-3.11A14.5,14.5,0,0,0,929.71,538.86Zm3.9,27.24a25.27,25.27,0,0,0-6.42-6.46,5.14,5.14,0,0,1-1.35-7.35h0c0-.1.09-.18.13-.27a4.24,4.24,0,0,1,.52-.76l.1-.12,0,0,.11-.1a3.31,3.31,0,0,1,1.1-.73l0,0a2.7,2.7,0,0,1,.48-.16,3.82,3.82,0,0,1,.51-.11l.09-.11.1-.09.08,0,.09,0h.22l.11,0,.12,0,.12.07.15,0c.42-.45.86-.32,1.3,0l.1,0a47.31,47.31,0,0,0,6.3-.17,18.57,18.57,0,0,1,7-1.28c.82,0,1,.56,1.11,1.26A17.89,17.89,0,0,0,953,561.74c.52.4.61.76,0,1.07-5,2.49-9.82,5.32-15.68,5A3.87,3.87,0,0,1,933.61,566.1Zm1.49,3c7.64,1,13.95-2.36,20.12-5.92l1.6-1,.47-.28.62-.38.63-.39.68-.43,1.36-.89.67-.45,1-.7.51-.35.51-.36.55-.4,1.43-1,1.72-1.33q2.14-1.69,4.16-3.51L972,551l.57-.54c.09-.07.17-.16.26-.24,1-.93,2-1.89,2.9-2.88l.59-.62c.6-.65,1.2-1.3,1.78-2,.26-.29.51-.58.76-.88.51-.6,1-1.21,1.51-1.83.19-.22.37-.45.55-.68l.68-.88.36-.55c.38-.57.75-1.16,1.1-1.75.18-.3.36-.61.52-.93.08-.14.16-.28.23-.42.25-.5.49-1,.7-1.52.09-.23.18-.45.26-.68s.09-.23.12-.35l.15-.46c0-.08,0-.16.07-.24q.1-.36.18-.72c0-.16.07-.31.1-.47s.1-.57.13-.86.06-.5.07-.76,0-.38,0-.57v-.46c0-.15,0-.31,0-.47a5.81,5.81,0,0,1,2.08,5.45c-.52,4.19-2.64,7.6-5.34,10.71-1.89,3.53-4.93,6-7.82,8.65-7.89,7.07-16.44,13.1-26.57,16.57a19.18,19.18,0,0,1-7.5,1.24A6.34,6.34,0,0,1,935.1,569.14Zm41.76,36.61q-17.6-15.93-35.1-31.94a4.81,4.81,0,0,1-.37-.44l3.81-.43a6.72,6.72,0,0,1,2.3-.45c3.22-1.33,6.48-2.5,9.58-4.13a116.58,116.58,0,0,0,10.71-6.79,63.84,63.84,0,0,0,8.65-7.12c4.69-4.55,9.3-9.26,11.74-15.57.16-.42.23-1.09.74-1.12.72,0,.55.75.79,1.17,1.84,3.29,3.77,6.53,5.59,9.83,2.06,3.75,4.05,7.56,6.07,11.34.65,1.2,1.63,2.24,1.69,3.71.74-.15.86.47,1.11.91,2.29,4.19,4.55,8.39,6.89,12.55a5.48,5.48,0,0,1,.62,4.12c-.89,3.72-2.23,7.19-5.32,9.7-1,2.7-3.25,4.28-5.26,6a42.27,42.27,0,0,1-15.4,8.9,15.19,15.19,0,0,1-4.55.56A4.35,4.35,0,0,1,976.86,605.75Zm26.7-6.12a39.94,39.94,0,0,1-9,6.27,19.75,19.75,0,0,1-4.69,1.85c-3.15,1.31-6.33,1.72-9.6.26l5.14-.36c1.37-1.22,3.23-1.28,4.8-2,9.83-4.79,17.9-11.34,22.25-21.73.1-.22.22-.43.44-.84.64,1.94-.14,3.47-.7,4.94C1010.45,592.67,1007.2,596.32,1003.56,599.63Z" transform="translate(-907.2 -471.41)"/><path d="M975.85,483.39c-.71-.67-.7-1-.11-1.76,1.9-2.46,1-5.18-2-6.15-2-.67-4.56-.05-5.34,2-.86,2.21-2.4,2.31-4.2,2.43-1.17.08-2.33.19-3.49.37a1.83,1.83,0,0,1-1.81-.66,6.64,6.64,0,0,0-4.42-2.31,17.76,17.76,0,0,1-7.58-2.77c-1.06-.43-2.42-1-3.82-1.51-6.13-2.06-12.23-2.51-18,1.09-7.39,4.64-9.93,14.26-2.45,21.53a17,17,0,0,0,12.88,4.93c5.86-.21,10.7-2.82,15-6.57A10.73,10.73,0,0,1,955,491.5a7.48,7.48,0,0,0,4.88-3.57,1.51,1.51,0,0,1,1.43-.77c2-.14,3.91-.25,5.85-.46a2,2,0,0,1,2.18.86,5.14,5.14,0,0,0,2.83,2,3.76,3.76,0,0,0,4.41-1.66A3.37,3.37,0,0,0,975.85,483.39ZM959,486.56a5.75,5.75,0,0,1-4,3.37,17.49,17.49,0,0,0-4.73,2.48c-4.24,3.82-9,6.6-14.86,6.72-6.87.14-11.83-3.13-15-9.09a5.18,5.18,0,0,1-.53-3.81c-.51-4.63,1.92-7.89,5.34-10.32,5.68-4,11.9-3.5,18.13-1.32a31,31,0,0,1,3.63,1.63,28.89,28.89,0,0,0,7.76,2.73A5.53,5.53,0,0,1,959,486.56Zm13.43,1.62a4.75,4.75,0,0,1-2.51-2.11,1.75,1.75,0,0,0-1.87-.84,51,51,0,0,1-7,.42h0c0-.07,0-.14,0-.2l0-.21a4.5,4.5,0,0,1-.07-.63c0-.14,0-.28,0-.42,0-.36,0-.71-.06-1.06a4.24,4.24,0,0,0-.19-.84c-.28-.82.49-.64.88-.69,1.68-.2,3.36-.45,5-.51a2.38,2.38,0,0,0,2.57-1.95c.86-2.75,3.62-3.27,5.73-1.25,1.17,1.49.18,2.52-.76,3.55-.48.53-1.32.78-1.27,1.69a3.75,3.75,0,0,0,.44.24l.22.12.45.22.22.11a3,3,0,0,1,.42.26,2,2,0,0,1,1,1.74A2.24,2.24,0,0,1,972.4,488.18Z" transform="translate(-907.2 -471.41)"/><path class="cls-1" d="M975.51,485.82a2.24,2.24,0,0,1-3.11,2.36,4.75,4.75,0,0,1-2.51-2.11,1.75,1.75,0,0,0-1.87-.84,51,51,0,0,1-7,.42l-.06-.2,0-.21c0-.21-.05-.42-.07-.63s0-.28,0-.42c0-.36,0-.71-.06-1.06a4.24,4.24,0,0,0-.19-.84c-.28-.82.49-.64.88-.69,1.68-.2,3.36-.45,5-.51a2.38,2.38,0,0,0,2.57-1.95c.86-2.75,3.62-3.27,5.73-1.25,1.17,1.49.18,2.52-.76,3.55-.48.53-1.32.78-1.27,1.69a3.75,3.75,0,0,0,.44.24l.22.12.45.22.22.11a4.28,4.28,0,0,1,.42.26A2,2,0,0,1,975.51,485.82Z" transform="translate(-907.2 -471.41)"/><path class="cls-2" d="M961,485.65h0c0-.07,0-.14,0-.2Z" transform="translate(-907.2 -471.41)"/><path class="cls-3" d="M961,518.9c-.7,2-.16,4-.07,6,.12,2.59-.93,5-1.06,7.53-.05.94-.8.65-1.31.7a13.78,13.78,0,0,0-9.46,4.3c-.57.62-.78,1.53-1.61,1.93-.2.71-.09,1.81-1.4,1-7.88-5.09-10.32-14.79-6-22.08a4.1,4.1,0,0,1,1.44-1.65c2.44-3,5.78-3.75,9.4-3.55a14.39,14.39,0,0,1,9.38,4.54C960.62,517.93,961.16,518.32,961,518.9Z" transform="translate(-907.2 -471.41)"/><path class="cls-1" d="M983.66,533.1a32.17,32.17,0,0,1-7.4,11.55c-.7.76-1,.22-1.21-.32a19.46,19.46,0,0,0-2.79-4.43,18.18,18.18,0,0,0-8.87-6.14,6.13,6.13,0,0,1-1-.5c-.63.33-1,.15-1-.57a13.27,13.27,0,0,1,.24-1.66,3.48,3.48,0,0,1,.18-1.87,16.21,16.21,0,0,0,.25-7.2,5.93,5.93,0,0,1,2-5.38c.38-.38.82-.88,1.51-.62,2.29-1.18,4.86-.53,6.73,1.78.95,1.18,1.82,2.45,2.73,3.67a10.37,10.37,0,0,1,3.37,2.17,17,17,0,0,1,4.89,4.47A5.49,5.49,0,0,1,983.66,533.1Z" transform="translate(-907.2 -471.41)"/><path class="cls-1" d="M953,562.81c-5,2.49-9.82,5.32-15.68,5a3.87,3.87,0,0,1-3.69-1.71,25.27,25.27,0,0,0-6.42-6.46,5.14,5.14,0,0,1-1.35-7.35h0c0-.1.09-.18.13-.27a4.24,4.24,0,0,1,.52-.76l.1-.12,0,0,.11-.1a3.31,3.31,0,0,1,1.1-.73l0,0a2.7,2.7,0,0,1,.48-.16,3.82,3.82,0,0,1,.51-.11l.09-.11.1-.09.08,0,.09,0h.22l.11,0,.12,0,.12.07.15,0c.42-.45.86-.32,1.3,0l.1,0a47.31,47.31,0,0,0,6.3-.17,18.57,18.57,0,0,1,7-1.28c.82,0,1,.56,1.11,1.26A17.89,17.89,0,0,0,953,561.74C953.5,562.14,953.59,562.5,953,562.81Z" transform="translate(-907.2 -471.41)"/><path class="cls-4" d="M1011.68,581.39c-.89,3.72-2.23,7.19-5.32,9.7-1,2.7-3.25,4.28-5.26,6a42.27,42.27,0,0,1-15.4,8.9,15.19,15.19,0,0,1-4.55.56,4.35,4.35,0,0,1-4.29-.82q-17.6-15.93-35.1-31.94a4.81,4.81,0,0,1-.37-.44l3.81-.43a6.72,6.72,0,0,1,2.3-.45c3.22-1.33,6.48-2.5,9.58-4.13a116.58,116.58,0,0,0,10.71-6.79,63.84,63.84,0,0,0,8.65-7.12c4.69-4.55,9.3-9.26,11.74-15.57.16-.42.23-1.09.74-1.12.72,0,.55.75.79,1.17,1.84,3.29,3.77,6.53,5.59,9.83,2.06,3.75,4.05,7.56,6.07,11.34.65,1.2,1.63,2.24,1.69,3.71.74-.15.86.47,1.11.91,2.29,4.19,4.55,8.39,6.89,12.55A5.48,5.48,0,0,1,1011.68,581.39Z" transform="translate(-907.2 -471.41)"/><path class="cls-3" d="M946,544c-.15,2-.84,3-3,2.85s-4.31,1-6.55,1c-1.14.92-2,.77-2.49-.68-.37-1-.87-2-1.22-3.11a14.5,14.5,0,0,0-3-5.19,6.15,6.15,0,0,1-1.39-6.34,2.51,2.51,0,0,1,1.45-1.78,5.93,5.93,0,0,1,6.61-1.08,1.54,1.54,0,0,1,.67,1,20.18,20.18,0,0,0,8,10.73C946.12,542.1,946.05,542.85,946,544Z" transform="translate(-907.2 -471.41)"/><path class="cls-1" d="M928.6,529.36l-.54.78h0l0,0c-1.19,1.93-1.19,1.93-3.07.52a22.1,22.1,0,0,1-2.05-1.51c-1.39-1.29-2.69-1.82-4.63-.77a3.42,3.42,0,0,1-4.78-2.35c-.4-1.59.87-2.82,3.06-3,2-.13,2-.13,1.52-2.06a2.8,2.8,0,0,1,.15-2.1.83.83,0,0,1,.08-.12l.1-.12a1.15,1.15,0,0,1,.23-.21,1.49,1.49,0,0,1,.3-.18h0l.23-.1.13-.05.13,0,.14,0,.49,0a3.59,3.59,0,0,1,.47,0h.05l.33.07a2.45,2.45,0,0,1,.5.17,2.22,2.22,0,0,1,.37.21l.21.17a2.28,2.28,0,0,1,.22.22,2.4,2.4,0,0,1,.39.66,2.58,2.58,0,0,1,.1.33,1.55,1.55,0,0,1,.06.31,2.13,2.13,0,0,1,0,.25,4.13,4.13,0,0,1,0,.78c-.24,2.11.66,3.2,2.21,4.22,1.27.84,2.43,1.84,3.64,2.78C929.09,528.63,929.45,529,928.6,529.36Z" transform="translate(-907.2 -471.41)"/><path class="cls-1" d="M966.05,513.9l-2.78,1.39c-.82-2-1.69-3.92-2.42-5.91a2,2,0,0,0-2.25-1.62,3.22,3.22,0,0,1-3.49-2.43A2.89,2.89,0,0,1,956,502c1-.77,2.14-.39,3.13.19,1.73,1,1.72,1,2.36-.9,0-.1.07-.2.1-.29a1.89,1.89,0,0,1,.11-.25l.09-.2.05-.08,0-.09a.56.56,0,0,1,.05-.08h0a1.71,1.71,0,0,1,.11-.14.64.64,0,0,1,.13-.15l.13-.14a1.49,1.49,0,0,1,.31-.2l.13-.06.06,0a.94.94,0,0,1,.24-.06l.13,0h.4l.24,0h0l.22,0,.54.13c1.62.95,2.18,2.32,1,3.93-1.58,2.05-1.07,3.8-.16,5.77.53,1.14.88,2.37,1.38,3.53C967.13,513.75,966.81,514,966.05,513.9Z" transform="translate(-907.2 -471.41)"/><path class="cls-4" d="M1012.23,588c-1.78,4.69-5,8.34-8.67,11.65a39.94,39.94,0,0,1-9,6.27,19.75,19.75,0,0,1-4.69,1.85c-3.15,1.31-6.33,1.72-9.6.26l5.14-.36c1.37-1.22,3.23-1.28,4.8-2,9.83-4.79,17.9-11.34,22.25-21.73.1-.22.22-.43.44-.84C1013.57,585,1012.79,586.51,1012.23,588Z" transform="translate(-907.2 -471.41)"/><path class="cls-1" d="M987.66,534.74c-.52,4.19-2.64,7.6-5.34,10.71-1.89,3.53-4.93,6-7.82,8.65-7.89,7.07-16.44,13.1-26.57,16.57a19.18,19.18,0,0,1-7.5,1.24,6.34,6.34,0,0,1-5.33-2.77c7.64,1,13.95-2.36,20.12-5.92l1.6-1,.47-.28.62-.38.63-.39.68-.43,1.36-.89.67-.45,1-.7.51-.35.51-.36.55-.4,1.43-1c.58-.44,1.16-.88,1.72-1.33q2.14-1.69,4.16-3.51L972,551l.57-.54c.09-.07.17-.16.26-.24,1-.93,2-1.89,2.9-2.88l.59-.62c.6-.65,1.2-1.3,1.78-2,.26-.29.51-.58.76-.88.52-.6,1-1.21,1.51-1.83.19-.22.37-.45.55-.68l.68-.88.36-.55c.38-.57.75-1.16,1.1-1.75.18-.3.36-.61.52-.93.08-.14.16-.28.23-.42.25-.5.49-1,.7-1.52.1-.22.18-.45.26-.68s.09-.23.12-.35l.15-.46c0-.08,0-.16.07-.24q.1-.36.18-.72c0-.16.07-.31.1-.47s.1-.57.13-.86.06-.5.07-.76,0-.38,0-.57v-.46c0-.15,0-.31,0-.47A5.81,5.81,0,0,1,987.66,534.74Z" transform="translate(-907.2 -471.41)"/><path class="cls-1" d="M923.74,553c0,1.66-.71,1.75-2,1.16s-2.89-1-4.32-1.6a2.1,2.1,0,0,0-2.75.61,3.32,3.32,0,0,1-5.06.31c-1.55-1.56-1.26-3.27.71-4.21a6.09,6.09,0,0,1,.75-.28c1.83-.59,1.81-.58.85-2.17-.53-.88-1-1.8-.15-2.77,1.13-1.32,2.46-1.43,3.65-.29a2.81,2.81,0,0,1,1,1.74c.07,2.19,1.52,2.9,3.28,3.42,1,.29,1.89.69,2.83,1.06C924.7,550.79,924.7,550.8,923.74,553Z" transform="translate(-907.2 -471.41)"/><path class="cls-5" d="M928.09,530.19H928l0,0s0,0,0,0S928.08,530.19,928.09,530.19Z" transform="translate(-907.2 -471.41)"/><path class="cls-3" d="M959,486.56a5.75,5.75,0,0,1-4,3.37,17.49,17.49,0,0,0-4.73,2.48c-4.24,3.82-9,6.6-14.86,6.72-6.87.14-11.83-3.13-15-9.09a5.18,5.18,0,0,1-.53-3.81c-.51-4.63,1.92-7.89,5.34-10.32,5.68-4,11.9-3.5,18.13-1.32a31,31,0,0,1,3.63,1.63,28.89,28.89,0,0,0,7.76,2.73A5.53,5.53,0,0,1,959,486.56Z" transform="translate(-907.2 -471.41)"/><path class="cls-3" d="M973.5,547.58a109.46,109.46,0,0,1-16.7,13.09,2.1,2.1,0,0,1-3.06-.2,11.82,11.82,0,0,1-2.13-2.11c-5.81-5.66-6.11-15.83-.55-20.87a9.68,9.68,0,0,1,7.23-2.7c8-.76,13.55,5.8,15.73,11.14C974.34,546.7,974,547.12,973.5,547.58Z" transform="translate(-907.2 -471.41)"/></svg>