<svg id="Livello_1" data-name="Livello 1" xmlns="http://www.w3.org/2000/svg" viewBox="0 0 145.34 98.34"><defs><style>.cls-1{fill:#691003;}.cls-2{fill:#f74542;}.cls-3{fill:#fff;}.cls-4{fill:#edab00;}.cls-5{fill:#fdb301;}.cls-6{fill:#acb4bc;}.cls-7{fill:#d08e55;}.cls-8{fill:#f43412;}</style></defs><title>ramen</title><path class="cls-1" d="M924.49,546.3a1.09,1.09,0,0,0,.09.23h0A.62.62,0,0,1,924.49,546.3Zm.29-1.25h0l-.08,0Z" transform="translate(-887.76 -490.47)"/><path d="M1027.87,527.73c.89-2.43-.52-4.92-3.36-5.9s-5.76-2-8.63-2.94q-20.68-7.1-41.37-14.18a1.82,1.82,0,0,1-1.39-2c.6.1,1.13.16,1.65.29l52.13,13.09c3.08.78,5.47-.51,6.08-3.24s-1-4.82-4-5.48q-7.82-1.71-15.63-3.36l-44.73-9.4c-6.43-1.35-12.86-2.73-19.3-4.06-2.78-.57-4.34.91-3.88,3.69.09.58.14.85-.47,1.11a2.71,2.71,0,0,0-1.81,2.94,3,3,0,0,0,2.43,2.74c1.07.3,1.27.66.64,1.64-3.65,5.69-7.26,11.42-11.22,17.66-.11-4.27-1.85-7-5.11-8.77a17.72,17.72,0,0,0-7.15-1.86c-3.7-.27-7.44.12-11.06-1.11a17.69,17.69,0,0,0-10.07-.39c-6.27,1.53-9,5-8.94,11.45a2,2,0,0,1-.27,1,42.38,42.38,0,0,0-4.32,25.1,39.26,39.26,0,0,0,10.67,22.08c.73.79,1.12,1.24.08,2.18-1.35,1.23-1.25,2.91-.52,4.48a14.3,14.3,0,0,0,4.66,5.56,44.46,44.46,0,0,0,20.23,8.44,14,14,0,0,0,7.52-.59c1.57-.66,3-1.75,2.57-3.61-.32-1.53.41-1.46,1.37-1.49a41.33,41.33,0,0,0,11.59-1.67c12.72-4.05,20.89-12.89,26.16-24.79a7.3,7.3,0,0,0,.5-4.91,3.14,3.14,0,0,1,.5-2.6,16.05,16.05,0,0,0,2.48-11c-.9-6-4.3-8.24-10.17-6.76a20.37,20.37,0,0,0-6.43,2.88c-1.4.94-2-.35-2.88-.86s-.07-1.2.24-1.7c4.14-6.56,8.31-13.11,12.43-19.69.58-.92,1.15-1.44,2.19-.79,2.46,1.54,5.29,2.1,7.94,3.11,14.09,5.37,28.14,10.82,42.21,16.22C1024.4,531.43,1026.9,530.4,1027.87,527.73ZM947.29,493c.34-.81,1.08-.69,1.76-.55,4.42.92,8.84,1.86,13.26,2.79l42.37,8.94a8,8,0,0,1,1.2.46c.86-.26,1.56.28,2.33.49a7.78,7.78,0,0,1,3.12.61,25.9,25.9,0,0,1,5.08,1.05c4.24.87,8.5,1.68,12.72,2.62,1.55.34,2.1,1.51,1.81,3.06.18.65-.22,1-.7,1.28a3,3,0,0,1-.52.4l-.1.06-.16.09-.19.07-.11,0-.12,0-.22,0a.69.69,0,0,1-.2,0h-.19l-.29,0-.28,0h-.1l-.15,0-.36-.11-.29-.1-.41-.16-.46-.18-.2-.07-.19-.06c-2.76-.65-5.55-1.22-8.28-2-1.09-.3-2.59-.69-1.27-2.4,0-.63.31-1.29-.11-1.89-1.55.15-3-.61-4.47-.69l-.38.26a.14.14,0,0,1,.17.08c.47,1.15-.23,1.88-1,2.49s-1.6.11-2.29-.2c-.9-.41-.06-1.06,0-1.59a15.26,15.26,0,0,1,.39-1.62l-.57-.46c-1.53-.33-2.62.06-2.9,1.78h0a1.5,1.5,0,0,1-.2.38l0,.07-.08.09,0,0a.83.83,0,0,1-.16.12l-.09,0-.13.05-.13,0h-.21a1.5,1.5,0,0,1-.35,0l-.17,0q-14.08-3.6-28.2-7.16l-4.26-1.06-22.83-5.78C947.48,494.06,947,493.69,947.29,493Zm2.34,45.74c-.79.9-1.67.26-2.37-.06s-.09-1,.16-1.36c3.28-5.26,6.59-10.49,9.9-15.74h0l1.36-2.16q4.77-7.5,9.53-15c.4-.53.38-1.59,1.46-1.25.75.23,1.88.13,1.58,1.49-4,6.41-8,12.83-12,19.22-2.91,4.62-5.89,9.19-8.85,13.77A8.17,8.17,0,0,1,949.63,538.77ZM955.25,522q-4.57,7.2-9.14,14.39c-.32.5-.76,1-1.29.42s-1.38-1.5-.72-2.6c1.15-1.9,2.31-3.8,3.5-5.68,1.85-2.92,3.74-5.82,5.61-8.73.68-1.07,1.36-2.15,2-3.23,2.75-4.47,5.46-9,8.48-13.25.89-1.84,1.36-2,3.19-1,.51.26.65.48.34.93s-.78,1.1-1.16,1.64c-2.45,4.22-5.07,8.32-7.82,12.35A33,33,0,0,1,955.25,522Zm-3.79-2.47c-2.46,4.46-5.46,8.57-8.15,12.89-.37.58-.73,1-1.44.37s-1.46-1.1-.7-2.27c2.8-4.32,5.51-8.69,8.26-13,.7-1.1,1.4-2.2,2.09-3.31l8-12.51c.43-1,.84-1.62,2.22-1.17,1.55.51,1.57,1.06.57,2.09l-8,12.56A28,28,0,0,1,951.46,519.48Zm-.86-6.84a27.44,27.44,0,0,1-2.88,4.52c-2.4,4.26-5.24,8.25-7.84,12.39-.51.82-1,.7-1.67.28s-1.22-1-.61-1.91c3-4.65,5.88-9.32,8.81-14l1.42-2.13,0-.11H948l.25-.47c2.46-4.25,5-8.42,7.9-12.43l0,0a1.24,1.24,0,0,1,.69,0l.14,0a2.3,2.3,0,0,1,.57.32l.19.14.2.17,0,0,.17.13.16.12c.85.55-.28,1.12-.59,1.67C955.5,505.24,953.07,509,950.6,512.64Zm3.08-12.93L938.43,523.9c-.72,1.15-1.52,2.25-2.21,3.43a1.42,1.42,0,0,1-2,.67c-1-.32-1.34-.62-.68-1.64,2.79-4.32,5.52-8.67,8.27-13,1-1.59,2-3.17,3-4.75l5.4-8.48c.33-.59.7-1.16,1-1.76.74-1.56,2-.87,2.81-.39C955.14,498.58,953.85,499.12,953.68,499.71Zm-5.18-.66c-1.32,1.49-2.18.16-3.15-.51-.31-.55-.34-1.14.37-1.29a3.83,3.83,0,0,1,3.16.91C949.19,498.4,948.7,498.78,948.5,499.05Zm-16,30.21a12.65,12.65,0,0,1,5.76,2.72c2.42,1.48,3.83,3.8,5.51,6.28-1.63.34-2.77.55-3.62-1s-2.39-2.61-3.71-3.8l-4.75-2.07a18.54,18.54,0,0,0-7.34.33c-1.32.39-1.8-.7-2.61-1.63C925.39,528.91,928.85,528.07,932.49,529.26Zm-7.89,16.38c.07-.2.13-.4.18-.59l-.07-.06a.63.63,0,0,1-.11-.13.16.16,0,0,1,0-.07l0-.08a.37.37,0,0,1,0-.18.59.59,0,0,1,0-.13,1.46,1.46,0,0,1,.05-.2c0-.08,0-.15.08-.22a15.87,15.87,0,0,0-7.53-12.06l-4.27-1.61a17.77,17.77,0,0,0-8.21.81,7.15,7.15,0,0,0-2.07,1.12c-1,.79-1.51.28-2.09-.51-.69-1,.14-1.17.68-1.49a15.93,15.93,0,0,1,12.22-2.11,7.63,7.63,0,0,1,4.53,1.93c4.36,1.56,6.58,5.09,8.06,9.12a14.5,14.5,0,0,1,.6,7.89c-.1.53.38,1.76-1,1.48-1.16-.24-1.57-.91-1-2a1.09,1.09,0,0,1-.09-.23.59.59,0,0,1,0-.13.38.38,0,0,1,0-.15.22.22,0,0,1,0-.08.78.78,0,0,1,0-.14h0A1,1,0,0,1,924.6,545.64Zm-9.87-5.79a10,10,0,0,0-4-2c-1.47,0-3,.82-4.37-.52-.7-.69-.52-1,.25-1.27a7.17,7.17,0,0,1,3.8-.53,7.94,7.94,0,0,1,6.37,3.11,7.6,7.6,0,0,1,2.06,6.59c-1.19-.48-2.19-.92-2.43-2.39C916.28,541.71,915.37,540.83,914.73,539.85Zm-.29,2.84c-1.79-1-3.25-1.63-4.26-3C911.8,540.07,913.45,540.37,914.44,542.69Zm4-4.3a29.12,29.12,0,0,0-2.12-2.33,21.47,21.47,0,0,0-4.53-2,12.66,12.66,0,0,0-6.66,1.2c-1.07.6-1.67-.28-2.09-1-.6-1,.52-1.05,1-1.29a11.44,11.44,0,0,1,8.61-1.08,8.47,8.47,0,0,1,5,2.24,12.26,12.26,0,0,1,5.27,11.31c0,.56.15,1.51-.7,1.45s-1.71-.44-1.61-1.63A10.12,10.12,0,0,0,918.46,538.39Zm9.72,2.72c-.09-.64.23-.75.75-.7a5.63,5.63,0,0,1,2.11.68c.92.51,1.14,1,.19,1.79s-1.59,1.48-2.55,2.38C928.5,543.76,928.36,542.43,928.18,541.11Zm.7-2.48h-.19c-1.2.13-1.84-.63-1.67-1.61s1.13-.54,1.8-.45a7.42,7.42,0,0,1,5.52,2.2c.31.29,1.16.73.44,1.29-.49.37-.92,1.41-1.84.68A20.11,20.11,0,0,0,928.88,538.63Zm5.81-1.6L931,535.31a15.63,15.63,0,0,0-4.21-.14c-.43.07-.89.11-1.13-.37s-1-1-.8-1.57,1-.47,1.47-.54a8.6,8.6,0,0,1,4.36.18,9.19,9.19,0,0,1,5.09,2c1.55.57,1.95,2.27,3.17,3.19.52.4.24.73-.3.88a2.52,2.52,0,0,1-2.57-.53C935.62,538,935.17,537.51,934.69,537Zm-4-22.56c2.85,2.6,3.12,6.64.82,10.71-.75,1.33-1.58,2.31-3.29,1.87-.72.07-1.43.4-2.16.06l-2.12.56c-.3-.83.37-1.09.58-1.54h0l.76-1.16.68-1.26a12.26,12.26,0,0,0-1.31-9.21L921.44,512A12.27,12.27,0,0,1,930.68,514.47Zm-21.12-3.18a15.15,15.15,0,0,1,12.56,3.83c2.59,2.2,3,5.69,1.39,8.83a17.86,17.86,0,0,1-2.37,3.31c-1.1,1.29-2.13,1.48-3.39.35l-1.7-.19c-.45-.43-1.34,0-1.61-.8l-.41-.12-.3-.17c-.86-.11-1.81.21-2.53-.53a4.18,4.18,0,0,1-2.61.2l-3.83.84c-1.16.63-1.79.27-2.43-.91C898.2,518.24,900.91,512.65,909.56,511.29Zm-12,.77c2.81-2.38,6-2.45,9.76-2.39a3.31,3.31,0,0,1-1.76,1.29c-7.09,2.77-8.28,8.53-4.85,15.19.17.33.39.64.56,1s.34.7,0,1-.66.46-1,.26a5.59,5.59,0,0,1-2.81-2.33c-.68-1.45-1.35-2.91-2.06-4.36C893.61,518,894.48,514.71,897.59,512.06ZM930,586.2a11.65,11.65,0,0,1-5.87.58,44.43,44.43,0,0,1-20.4-8.46c-.68-.5-1-1.28-1.57-1.79a5.4,5.4,0,0,1-2.34-3.57,1.84,1.84,0,0,1,.88-2c.93-.6,1.32.13,1.82.63a53.56,53.56,0,0,0,13.53,8.06,43.21,43.21,0,0,0,13.47,3.31c.71,0,1.75-.23,1.93,1A2,2,0,0,1,930,586.2Zm40.67-33.45c.79,1.88-1.67,7.72-4.71,11.31-2.24,3.11-4.32,6.39-8,8,.53,1-.45,1.14-.88,1.47a36.34,36.34,0,0,1-17.3,7.18c-13.06,1.83-24.58-2.13-34.94-9.83a29,29,0,0,1-7-7.07c-4.72-6.12-7.66-12.91-7.91-20.73V543a.41.41,0,0,1-.08-.63,34.09,34.09,0,0,1,.73-9.92,29.26,29.26,0,0,1,1.34-5,12.71,12.71,0,0,1,1.6-4.06.61.61,0,0,0-.05-.12.62.62,0,0,1,.09.12c1.64,1.49,2,3.61,2.65,5.57,2.35,2.76,4.6,5.59,7.19,8.12l.59.48.57.43,1.22,1.05h.15l0,.15a84,84,0,0,0,11.26,7.29,116.15,116.15,0,0,0,24.15,9.43c6.45,1.61,13,2.63,19.65,2,3-.31,5.83-1.1,8-3.43A6.64,6.64,0,0,1,970.7,552.75Zm-24.53-1.81a10.78,10.78,0,0,0-3.94-.63,9.15,9.15,0,0,0-4,2.18,1.38,1.38,0,0,1-2.14,0c-.66-.63.14-1.12.47-1.54a7.13,7.13,0,0,1,5.21-2.85,7.35,7.35,0,0,1,5.37.72c2.52,1,3.79,3.06,4.67,5.44.24.63.38,1.41-.53,1.67a1.18,1.18,0,0,1-1.67-.93C949.1,553.09,947.62,552,946.17,550.94Zm1.39,4.17c-.23.43-.78.23-1.2.14-2.2-.49-4.4-1-6.89-1.57,2.7-2.63,5.71-2.44,7.69.11C947.48,554.21,947.82,554.65,947.56,555.11Zm4.38-4.44a27.33,27.33,0,0,0-5.08-3.73,20.83,20.83,0,0,0-4.65-.57c-3.2.63-6,1.92-7.87,4.77-.68,1.05-1.48.38-2.1.06-.81-.41-.11-1,.14-1.37a11.49,11.49,0,0,1,9.27-5.69,8.86,8.86,0,0,1,6.05.7h0c3.94.83,8,6.39,8.34,10.38.05.59.13,1.21-.75,1.09-.58-.08-1.64.35-1.52-.77C954,553.56,952.5,552.31,951.94,550.67Zm11.23,4.15c-.58.12-1.49.67-1.58-.47-.06-.84-1.06-1.84.29-2.6A27.82,27.82,0,0,0,974,538.92C974.57,545.94,969.19,553.61,963.17,554.82Zm-8.59-14.52c3.4-3.35,7.17-6.07,11.84-7.33a7.66,7.66,0,0,1,4-.16,3.2,3.2,0,0,1,2.51,3.73,12.66,12.66,0,0,1-2.53,5.71,29,29,0,0,1-8,7.57c-1.24.81-2,.94-2.43-.75a10.33,10.33,0,0,0-.45-1.21,37.2,37.2,0,0,0-4.54-5.32C953.74,542,953.46,541.41,954.58,540.3Zm-.32-5c.54-.84,1.13-.53,1.72-.09s.32.89-.15,1.32c-1.34,1.21-2.66,2.46-4,3.7l-.45-.4Zm5.35,18.93c.46,1.1.94,2.17-1,2.15-.68,0-.81-.28-.92-.83-.31-1.51-.68-3-1-4.51a16,16,0,0,0-9.73-8.16l-4.57-.48c-5,.68-9,2.8-11.7,7.2-.55.91-1.19.64-1.89.32s-.35-.8-.12-1.22.54-.91.83-1.34l.22-.33,0,0,.29-.4.29-.39.3-.36.29-.36.5-.54.26-.27c.12-.12.23-.23.35-.33l.35-.32.27-.24.45-.37.3-.23.3-.21c.13-.1.26-.18.4-.27l.29-.18a1.37,1.37,0,0,1,.2-.13l.3-.17c.16-.09.32-.18.49-.26l.22-.12.55-.25.19-.08a4.71,4.71,0,0,1,.52-.21l.12,0,.54-.19.41-.13.38-.1.23-.07a17.23,17.23,0,0,1,1.82-.35c.32,0,.66-.09,1-.12s.52-.1.78-.13l.6-.07.3,0,.49,0h.37l.43,0,.43,0,.3,0,.39,0,.35.07h0l.35.07a4.21,4.21,0,0,1,.48.12l.19,0a1.39,1.39,0,0,1,.19.06l.45.14C953.54,541.94,959.28,548.3,959.61,554.23Zm63.19-25.64c-3.32-1-6.49-2.36-9.71-3.58-2.69-1-2.68-1.07-1.12-3.52l-.17-1a16.61,16.61,0,0,1-4.26-1.55l-.1,0c-.72,2.62-1.57,3.29-3.22,2.61-.81-.34-1.23-.68-.63-1.61a2.37,2.37,0,0,0,.47-2.23c-.92,0-1.75-1.23-2.72-.17-.74,2.31-1,2.47-3.07,1.67l-22.51-8.63a13,13,0,0,0-2.66-1.16c-1.87-.32-2-.8-.89-2.45.5-1.37,1.45-.57,2.14-.34Q985,510.3,995.58,514c4.07,1.42,8.13,2.91,12.19,4.36,1.6.13,3,.95,4.48,1.39,3.93,1.33,7.85,2.65,11.77,4,1.34.46,2.32,1.21,2,2.85C1025.54,528.61,1024.64,529.12,1022.8,528.59Z" transform="translate(-887.76 -490.47)"/><path class="cls-2" d="M957.07,573.54a36.34,36.34,0,0,1-17.3,7.18c-13.06,1.83-24.58-2.13-34.94-9.83a29,29,0,0,1-7-7.07c-4.72-6.12-7.66-12.91-7.91-20.73q2.05,2.6,4.09,5.21l2.46,2.49a94.23,94.23,0,0,0,12.69,9h0a102,102,0,0,0,19.29,8.56c5.34,1.68,10.62,3.7,16.35,3.79h0a32.1,32.1,0,0,0,12.73-.15l.44.13C958.48,573,957.5,573.21,957.07,573.54Z" transform="translate(-887.76 -490.47)"/><path class="cls-2" d="M930,586.2a11.65,11.65,0,0,1-5.87.58,44.43,44.43,0,0,1-20.4-8.46c-.68-.5-1-1.28-1.57-1.79a5.4,5.4,0,0,1-2.34-3.57,1.84,1.84,0,0,1,.88-2c.93-.6,1.32.13,1.82.63a53.56,53.56,0,0,0,13.53,8.06,43.21,43.21,0,0,0,13.47,3.31c.71,0,1.75-.23,1.93,1A2,2,0,0,1,930,586.2Z" transform="translate(-887.76 -490.47)"/><path class="cls-3" d="M970.43,542.25a29,29,0,0,1-8,7.57c-1.24.81-2,.94-2.43-.75a10.33,10.33,0,0,0-.45-1.21,7.44,7.44,0,0,0,5.19-5.45c.6-2.15-.21-3.3-2.44-3.76-1.11-.2-2.26-.58-3,.67l-.05,0c-.57-.3-.89.06-1.2.45l-3,2.75c-1.22-.56-1.5-1.13-.38-2.24,3.4-3.35,7.17-6.07,11.84-7.33a7.66,7.66,0,0,1,4-.16,3.2,3.2,0,0,1,2.51,3.73A12.66,12.66,0,0,1,970.43,542.25Z" transform="translate(-887.76 -490.47)"/><path class="cls-3" d="M921.14,527.26c-1.1,1.29-2.13,1.48-3.39.35a8.35,8.35,0,0,0,4.07-4.62,5.56,5.56,0,0,0-3-7.72c-1-.43-2-.6-3-.94a2.32,2.32,0,0,0-2.9,1.06,12.68,12.68,0,0,0-1.73,10.41,4.18,4.18,0,0,1-2.61.2,24.67,24.67,0,0,1,2-11.37c.44-1,.38-1.86-1-1.63-3.84.68-6.86,2.5-7,7.23-.08,2.48,1.19,4.49,2.12,6.61-1.16.63-1.79.27-2.43-.91-4.13-7.69-1.42-13.28,7.23-14.64a15.15,15.15,0,0,1,12.56,3.83c2.59,2.2,3,5.69,1.39,8.83A17.86,17.86,0,0,1,921.14,527.26Z" transform="translate(-887.76 -490.47)"/><path class="cls-4" d="M1005,507.52h0l-.12-.11Z" transform="translate(-887.76 -490.47)"/><path class="cls-2" d="M917.75,527.61l-1.7-.19c-.45-.43-1.34,0-1.61-.8l-.41-.12-.3-.17c-.86-.11-1.81.21-2.53-.53a12.68,12.68,0,0,1,1.73-10.41,2.32,2.32,0,0,1,2.9-1.06c1,.34,2,.51,3,.94a5.56,5.56,0,0,1,3,7.72A8.35,8.35,0,0,1,917.75,527.61Z" transform="translate(-887.76 -490.47)"/><path class="cls-2" d="M901.26,528.11c-.3.23-.66.46-1,.26a5.59,5.59,0,0,1-2.81-2.33c-.68-1.45-1.35-2.91-2.06-4.36-1.76-3.64-.89-7,2.22-9.62,2.81-2.38,6-2.45,9.76-2.39a3.31,3.31,0,0,1-1.76,1.29c-7.09,2.77-8.28,8.53-4.85,15.19.17.33.39.64.56,1S901.64,527.81,901.26,528.11Z" transform="translate(-887.76 -490.47)"/><path class="cls-2" d="M908.59,526l-3.83.84c-.93-2.12-2.2-4.13-2.12-6.61.14-4.73,3.16-6.55,7-7.23,1.34-.23,1.4.61,1,1.63A24.67,24.67,0,0,0,908.59,526Z" transform="translate(-887.76 -490.47)"/><path class="cls-5" d="M963.17,554.82c-.58.12-1.49.67-1.58-.47-.06-.84-1.06-1.84.29-2.6A27.82,27.82,0,0,0,974,538.92C974.57,545.94,969.19,553.61,963.17,554.82Z" transform="translate(-887.76 -490.47)"/><path class="cls-6" d="M1022.8,528.59c-3.32-1-6.49-2.36-9.71-3.58-2.69-1-2.68-1.07-1.12-3.52l-.17-1a16.61,16.61,0,0,1-4.26-1.55l-.1,0c-.72,2.62-1.57,3.29-3.22,2.61-.81-.34-1.23-.68-.63-1.61a2.37,2.37,0,0,0,.47-2.23c-.92,0-1.75-1.23-2.72-.17-.74,2.31-1,2.47-3.07,1.67l-22.51-8.63a13,13,0,0,0-2.66-1.16c-1.87-.32-2-.8-.89-2.45.5-1.37,1.45-.57,2.14-.34Q985,510.3,995.58,514c4.07,1.42,8.13,2.91,12.19,4.36,1.6.13,3,.95,4.48,1.39,3.93,1.33,7.85,2.65,11.77,4,1.34.46,2.32,1.21,2,2.85C1025.54,528.61,1024.64,529.12,1022.8,528.59Z" transform="translate(-887.76 -490.47)"/><path class="cls-5" d="M925.59,548.55c-1.16-.24-1.57-.91-1-2h0c.16-.31.33-.62.5-.93l-.49,0c.07-.2.13-.4.18-.59h0c.14-.37.28-.75-.12-1.06a15.87,15.87,0,0,0-7.53-12.06l-4.27-1.61a17.77,17.77,0,0,0-8.21.81,7.15,7.15,0,0,0-2.07,1.12c-1,.79-1.51.28-2.09-.51-.69-1,.14-1.17.68-1.49a15.93,15.93,0,0,1,12.22-2.11,7.63,7.63,0,0,1,4.53,1.93c4.36,1.56,6.58,5.09,8.06,9.12a14.5,14.5,0,0,1,.6,7.89C926.49,547.6,927,548.83,925.59,548.55Z" transform="translate(-887.76 -490.47)"/><path class="cls-3" d="M928.21,527.05c1.1-1.84,2.36-3.59,2.73-5.79a5.64,5.64,0,0,0-6.29-6.77L921.44,512a12.27,12.27,0,0,1,9.24,2.52c2.85,2.6,3.12,6.64.82,10.71C930.75,526.51,929.92,527.49,928.21,527.05Z" transform="translate(-887.76 -490.47)"/><path class="cls-2" d="M928.21,527.05c-.72.07-1.43.4-2.16.06l-2.12.56c-.3-.83.37-1.09.58-1.54h0a1.43,1.43,0,0,0,.76-1.16l.68-1.26a12.26,12.26,0,0,0-1.31-9.21,5.64,5.64,0,0,1,6.29,6.77C930.57,523.46,929.31,525.21,928.21,527.05Z" transform="translate(-887.76 -490.47)"/><path class="cls-5" d="M951.46,519.48c-2.46,4.46-5.46,8.57-8.15,12.89-.37.58-.73,1-1.44.37s-1.46-1.1-.7-2.27c2.8-4.32,5.51-8.69,8.26-13,.7-1.1,1.4-2.2,2.09-3.31l8-12.51c.43-1,.84-1.62,2.22-1.17,1.55.51,1.57,1.06.57,2.09l-8,12.56A28,28,0,0,1,951.46,519.48Z" transform="translate(-887.76 -490.47)"/><path class="cls-5" d="M947.72,517.16c-2.4,4.26-5.24,8.25-7.84,12.39-.51.82-1,.7-1.67.28s-1.22-1-.61-1.91c3-4.65,5.88-9.32,8.81-14l1.42-2.13c.09,0,.14,0,.14-.11l.25-.47c2.46-4.25,5-8.42,7.9-12.43l0,0a1.24,1.24,0,0,1,.69,0l.14,0a2.3,2.3,0,0,1,.57.32l.19.14.2.17,0,0,.17.13.16.12c.85.55-.28,1.12-.59,1.67-2.2,3.85-4.63,7.56-7.1,11.25A27.44,27.44,0,0,1,947.72,517.16Z" transform="translate(-887.76 -490.47)"/><path class="cls-5" d="M922.24,547c-.79-.05-1.71-.44-1.61-1.63a10.12,10.12,0,0,0-2.17-6.93,29.12,29.12,0,0,0-2.12-2.33,21.47,21.47,0,0,0-4.53-2,12.66,12.66,0,0,0-6.66,1.2c-1.07.6-1.67-.28-2.09-1-.6-1,.52-1.05,1-1.29a11.44,11.44,0,0,1,8.61-1.08,8.47,8.47,0,0,1,5,2.24,12.26,12.26,0,0,1,5.27,11.31C922.9,546.06,923.09,547,922.24,547Z" transform="translate(-887.76 -490.47)"/><path class="cls-5" d="M938.43,523.9c-.72,1.15-1.52,2.25-2.21,3.43a1.42,1.42,0,0,1-2,.67c-1-.32-1.34-.62-.68-1.64,2.79-4.32,5.52-8.67,8.27-13,1-1.59,2-3.17,3-4.75l5.4-8.48c.33-.59.7-1.16,1-1.76.74-1.56,2-.87,2.81-.39,1.08.6-.21,1.14-.38,1.73Z" transform="translate(-887.76 -490.47)"/><path class="cls-5" d="M955.3,556.31c-.58-.08-1.64.35-1.52-.77.21-2-1.28-3.23-1.84-4.87a27.33,27.33,0,0,0-5.08-3.73,20.83,20.83,0,0,0-4.65-.57c-3.2.63-6,1.92-7.87,4.77-.68,1.05-1.48.38-2.1.06-.81-.41-.11-1,.14-1.37a11.49,11.49,0,0,1,9.27-5.69,8.86,8.86,0,0,1,6.05.7h0c3.94.83,8,6.39,8.34,10.38C956.1,555.81,956.18,556.43,955.3,556.31Z" transform="translate(-887.76 -490.47)"/><path class="cls-5" d="M951.26,555.88a1.18,1.18,0,0,1-1.67-.93c-.49-1.86-2-2.93-3.42-4a10.78,10.78,0,0,0-3.94-.63,9.15,9.15,0,0,0-4,2.18,1.38,1.38,0,0,1-2.14,0c-.66-.63.14-1.12.47-1.54a7.13,7.13,0,0,1,5.21-2.85,7.35,7.35,0,0,1,5.37.72c2.52,1,3.79,3.06,4.67,5.44C952,554.84,952.17,555.62,951.26,555.88Z" transform="translate(-887.76 -490.47)"/><path class="cls-5" d="M943.76,538.26c-1.63.34-2.77.55-3.62-1s-2.39-2.61-3.71-3.8l-4.75-2.07a18.54,18.54,0,0,0-7.34.33c-1.32.39-1.8-.7-2.61-1.63,3.66-1.14,7.12-2,10.76-.79a12.65,12.65,0,0,1,5.76,2.72C940.67,533.46,942.08,535.78,943.76,538.26Z" transform="translate(-887.76 -490.47)"/><path class="cls-5" d="M947.56,555.11c-.23.43-.78.23-1.2.14-2.2-.49-4.4-1-6.89-1.57,2.7-2.63,5.71-2.44,7.69.11C947.48,554.21,947.82,554.65,947.56,555.11Z" transform="translate(-887.76 -490.47)"/><path class="cls-5" d="M918.89,545.28c-1.19-.48-2.19-.92-2.43-2.39-.18-1.18-1.09-2.06-1.73-3a10,10,0,0,0-4-2c-1.47,0-3,.82-4.37-.52-.7-.69-.52-1,.25-1.27a7.17,7.17,0,0,1,3.8-.53,7.94,7.94,0,0,1,6.37,3.11A7.6,7.6,0,0,1,918.89,545.28Z" transform="translate(-887.76 -490.47)"/><path class="cls-3" d="M966,564.06c-2.24,3.11-4.32,6.39-8,8l-.44-.13a32.1,32.1,0,0,1-12.73.15h0c-5.73-.09-11-2.11-16.35-3.79a102,102,0,0,1-19.29-8.56h0a94.23,94.23,0,0,1-12.69-9L894,548.3q-2-2.61-4.09-5.21V543c.19-.23.11-.44-.08-.63a34.09,34.09,0,0,1,.73-9.92l1.11,2a23.18,23.18,0,0,0,4.12,5.38,1.82,1.82,0,0,0,1,1.07l.08.07h0c2.55,2.92,5.75,5,8.86,7.28a30.18,30.18,0,0,0,6.86,4.06c12.67,7.06,26.1,11.8,40.62,13.17a62.59,62.59,0,0,0,10.24-.52A4.55,4.55,0,0,1,966,564.06Z" transform="translate(-887.76 -490.47)"/><path class="cls-5" d="M931.23,542.88c-.85.67-1.59,1.48-2.55,2.38-.18-1.5-.32-2.83-.5-4.15-.09-.64.23-.75.75-.7a5.63,5.63,0,0,1,2.11.68C932,541.6,932.18,542.11,931.23,542.88Z" transform="translate(-887.76 -490.47)"/><path class="cls-5" d="M938.69,539a2.52,2.52,0,0,1-2.57-.53c-.5-.45-1-1-1.43-1.43L931,535.31a15.63,15.63,0,0,0-4.21-.14c-.43.07-.89.11-1.13-.37s-1-1-.8-1.57,1-.47,1.47-.54a8.6,8.6,0,0,1,4.36.18,9.19,9.19,0,0,1,5.09,2c1.55.57,1.95,2.27,3.17,3.19C939.51,538.51,939.23,538.84,938.69,539Z" transform="translate(-887.76 -490.47)"/><path class="cls-2" d="M955.83,536.53c-1.34,1.21-2.66,2.46-4,3.7l-.45-.4,2.87-4.53c.54-.84,1.13-.53,1.72-.09S956.3,536.1,955.83,536.53Z" transform="translate(-887.76 -490.47)"/><path class="cls-5" d="M958.57,556.38c-.68,0-.81-.28-.92-.83-.31-1.51-.68-3-1-4.51a16,16,0,0,0-9.73-8.16l-4.57-.48c-5,.68-9,2.8-11.7,7.2-.55.91-1.19.64-1.89.32s-.35-.8-.12-1.22.54-.91.83-1.34l.22-.33,0,0,.29-.4.29-.39.3-.36.29-.36.5-.54.26-.27c.12-.12.23-.23.35-.33l.35-.32.27-.24.45-.37.3-.23.3-.21c.13-.1.26-.18.4-.27l.29-.18a1.37,1.37,0,0,1,.2-.13l.3-.17c.16-.09.32-.18.49-.26l.22-.12.55-.25.19-.08a4.71,4.71,0,0,1,.52-.21l.12,0,.54-.19.41-.13.38-.1.23-.07a17.23,17.23,0,0,1,1.82-.35c.32,0,.65-.08,1-.11s.52-.1.78-.14l.6-.07.3,0,.49,0h.37l.43,0,.43,0,.3,0,.39,0,.35.07h0l.35.07a4.21,4.21,0,0,1,.48.12l.19,0a1.39,1.39,0,0,1,.19.06l.45.14c6.13,1.25,11.87,7.61,12.2,13.54C960.07,555.33,960.55,556.4,958.57,556.38Z" transform="translate(-887.76 -490.47)"/><path class="cls-5" d="M958.27,517.16a33,33,0,0,1-3,4.79q-4.57,7.2-9.14,14.39c-.32.5-.76,1-1.29.42s-1.38-1.5-.72-2.6c1.15-1.9,2.31-3.8,3.5-5.68,1.85-2.92,3.74-5.82,5.61-8.73.68-1.07,1.36-2.15,2-3.23,2.75-4.47,5.46-9,8.48-13.25.89-1.84,1.36-2,3.19-1,.51.26.65.48.34.93s-.78,1.1-1.16,1.64C963.64,509,961,513.13,958.27,517.16Z" transform="translate(-887.76 -490.47)"/><path class="cls-6" d="M1030.24,513.78a3,3,0,0,1-.52.4l-.1.06-.16.09-.19.07-.11,0-.12,0-.22,0a.69.69,0,0,1-.2,0h-.19l-.29,0-.28,0h-.1l-.15,0-.36-.11-.29-.1-.41-.16-.46-.18-.2-.07-.19-.06c-2.76-.65-5.55-1.22-8.28-2-1.09-.3-2.59-.69-1.27-2.4,0-.63.31-1.29-.11-1.89-1.55.15-3-.61-4.47-.69l-.38.26a.14.14,0,0,1,.17.08c.47,1.15-.23,1.88-1,2.49s-1.6.11-2.29-.2c-.9-.41-.06-1.06,0-1.59a15.26,15.26,0,0,1,.39-1.62l-.57-.46c-1.53-.33-2.62.06-2.9,1.78l-.13-.11.12.11a1.5,1.5,0,0,1-.2.38l0,.07-.08.09,0,0a.83.83,0,0,1-.16.12l-.09,0-.13.05-.13,0h-.21a1.5,1.5,0,0,1-.35,0l-.17,0q-14.08-3.6-28.2-7.16l-4.26-1.06-22.83-5.78c-.59-.21-1.05-.58-.78-1.24s1.08-.69,1.76-.55c4.42.92,8.84,1.86,13.26,2.79l42.37,8.94a8,8,0,0,1,1.2.46c.86-.26,1.56.28,2.33.49a7.78,7.78,0,0,1,3.12.61,25.9,25.9,0,0,1,5.08,1.05c4.24.87,8.5,1.68,12.72,2.62,1.55.34,2.1,1.51,1.81,3.06C1031.12,513.15,1030.72,513.49,1030.24,513.78Z" transform="translate(-887.76 -490.47)"/><path class="cls-5" d="M950.36,537.69a8.17,8.17,0,0,1-.73,1.08c-.79.9-1.67.26-2.37-.06s-.09-1,.16-1.36c3.28-5.26,6.59-10.49,9.9-15.74h0l1.36-2.16q4.77-7.5,9.53-15c.4-.53.38-1.59,1.46-1.25.75.23,1.88.13,1.58,1.49-4,6.41-8,12.83-12,19.22C956.3,528.54,953.32,533.11,950.36,537.69Z" transform="translate(-887.76 -490.47)"/><path class="cls-5" d="M914.44,542.69c-1.79-1-3.25-1.63-4.26-3C911.8,540.07,913.45,540.37,914.44,542.69Z" transform="translate(-887.76 -490.47)"/><path class="cls-5" d="M934.78,540.07c-.49.37-.92,1.41-1.84.68a20.11,20.11,0,0,0-4.06-2.12h-.19c-1.2.13-1.84-.63-1.67-1.61s1.13-.54,1.8-.45a7.42,7.42,0,0,1,5.52,2.2C934.65,539.07,935.5,539.51,934.78,540.07Z" transform="translate(-887.76 -490.47)"/><path class="cls-7" d="M1005,507.52h0l-.12-.11Z" transform="translate(-887.76 -490.47)"/><path class="cls-6" d="M948.5,499.05c-1.32,1.49-2.18.16-3.15-.51-.31-.55-.34-1.14.37-1.29a3.83,3.83,0,0,1,3.16.91C949.19,498.4,948.7,498.78,948.5,499.05Z" transform="translate(-887.76 -490.47)"/><path class="cls-7" d="M924.59,546.52h0a1.09,1.09,0,0,1-.09-.23.59.59,0,0,1,0-.13.38.38,0,0,1,0-.15.22.22,0,0,1,0-.08.78.78,0,0,1,0-.14h0a1,1,0,0,1,.07-.15l.49,0C924.92,545.9,924.75,546.21,924.59,546.52Z" transform="translate(-887.76 -490.47)"/><path class="cls-7" d="M924.79,545h0l-.07-.06a.63.63,0,0,1-.11-.13.16.16,0,0,1,0-.07l0-.08a.37.37,0,0,1,0-.18.59.59,0,0,1,0-.13,1.46,1.46,0,0,1,.05-.2c0-.08,0-.15.08-.22C925.07,544.29,924.93,544.67,924.79,545Z" transform="translate(-887.76 -490.47)"/><path class="cls-8" d="M924.52,526.12l.76-1.16A1.43,1.43,0,0,1,924.52,526.12Z" transform="translate(-887.76 -490.47)"/><path class="cls-7" d="M889.88,543a.41.41,0,0,1-.08-.63C890,542.54,890.07,542.75,889.88,543Z" transform="translate(-887.76 -490.47)"/><path class="cls-8" d="M893.51,523.33h0a.61.61,0,0,0-.05-.12A.62.62,0,0,1,893.51,523.33Z" transform="translate(-887.76 -490.47)"/><polygon class="cls-7" points="18.16 48.66 18.02 48.64 17.97 48.51 18.12 48.52 18.16 48.66"/><path class="cls-4" d="M947.83,511.81l0-.11H948C948,511.79,947.92,511.82,947.83,511.81Z" transform="translate(-887.76 -490.47)"/><path class="cls-2" d="M966,564.06a4.55,4.55,0,0,0-2.51.92,62.59,62.59,0,0,1-10.24.52c-14.52-1.37-28-6.11-40.62-13.17a30.18,30.18,0,0,1-6.86-4.06c-3.11-2.23-6.31-4.36-8.86-7.28h0l-.08-.07a1.82,1.82,0,0,1-1-1.07,23.18,23.18,0,0,1-4.12-5.38l-1.11-2a29.26,29.26,0,0,1,1.34-5,12.71,12.71,0,0,1,1.6-4.06h0c1.64,1.49,2,3.61,2.65,5.57,2.35,2.76,4.6,5.59,7.19,8.12l.59.48.57.43,1.22,1.05,0,.13.14,0a84,84,0,0,0,11.26,7.29,116.15,116.15,0,0,0,24.15,9.43c6.45,1.61,13,2.63,19.65,2,3-.31,5.83-1.1,8-3.43a6.64,6.64,0,0,1,1.74-1.64C971.49,554.63,969,560.47,966,564.06Z" transform="translate(-887.76 -490.47)"/><path class="cls-5" d="M959.5,547.86a37.2,37.2,0,0,0-4.54-5.32l3-2.75c.31-.39.63-.75,1.2-.45l.05,0c.79-1.25,1.94-.87,3-.67,2.23.46,3,1.61,2.44,3.76A7.44,7.44,0,0,1,959.5,547.86Z" transform="translate(-887.76 -490.47)"/></svg>