<svg id="Livello_1" data-name="Livello 1" xmlns="http://www.w3.org/2000/svg" width="1920" height="1080" viewBox="0 0 1920 1080">
  <defs>
    <style>
      .cls-1 {
        fill: #fff;
      }

      .cls-2 {
        fill: #020305;
      }

      .cls-3 {
        fill: #abb5bb;
      }

      .cls-4 {
        fill: #acb6bc;
      }

      .cls-5 {
        fill: #feb400;
      }

      .cls-6 {
        fill: #08080a;
      }

      .cls-7 {
        fill: #f7443c;
      }

      .cls-8 {
        fill: #f5443c;
      }

      .cls-9 {
        fill: #0e0907;
      }

      .cls-10 {
        fill: #fe6301;
      }

      .cls-11 {
        fill: #fefefe;
      }

      .cls-12 {
        fill: none;
      }

      .cls-13 {
        fill: #eda77b;
      }

      .cls-14 {
        fill: #eaa579;
      }

      .cls-15 {
        fill: #fde8aa;
      }

      .cls-16 {
        fill: #fdfdfd;
      }

      .cls-17 {
        fill: #fdfdfc;
      }
    </style>
  </defs>
  <title>registeripad</title>
  <polygon class="cls-1" points="183 942 190 924 218.27 933.79 211.58 955.31 183 942"/>
  <polygon class="cls-1" points="246.07 936.29 277.61 938.73 273.11 972.31 242.1 974.09 246.07 936.29"/>
  <path class="cls-1" d="M272.48,959.28,271,970l-28.45-3.67c.16-2.61.57-5.2.85-7.81.1-1,.57-1.22,1.44-.85.52.21,1,.39,1.57.59A40.32,40.32,0,0,0,259,960.75,52.57,52.57,0,0,0,272.48,959.28Z"/>
  <path class="cls-1" d="M275,941l-1.4,10.15-.36.08a57.12,57.12,0,0,1-13,1.43,46.74,46.74,0,0,1-13.81-2.54,2.17,2.17,0,0,1-1.69-2.46,42.25,42.25,0,0,1,.43-5.73Z"/>
  <polygon class="cls-1" points="214 939 213.81 939.61 213.81 939.62 211.65 946.44 208 958 182.49 944.44 181.33 943.83 179.72 942.97 186.2 925.11 187.84 925.93 188.95 926.48 214 939"/>
  <g>
    <path class="cls-2" d="M228.61,898.89c-5.32-2.48-10.84-4.5-16.27-6.71-2.13-.87-4.29-1.69-6.43-2.53-2.75.08-2.06-.31-2.7,2.23a44.15,44.15,0,0,1-6.55,14.87A14.69,14.69,0,0,1,195,910.2q-1.39,2.74-2.7,5.52c-.18.38-.36.75-.53,1.13-.28.58-.55,1.17-.81,1.76-.43.94-.85,1.88-1.26,2.83s-.72,1.66-1.07,2.5c-.28.66-.56,1.32-.83,2q-.84,2-1.62,4.08c-.24.6-.47,1.21-.7,1.82q-1.12,3-2.17,6t-2,6a1.9,1.9,0,0,1-.09.29c-.33,1-.66,2.11-1,3.18s-.64,2.13-.95,3.19c-.23.78-.45,1.57-.67,2.35a2.76,2.76,0,0,0-.08.27c-.14.51-.29,1-.42,1.53-.51,1.83-1,3.67-1.46,5.52q-1.69,6.74-3.4,13.45c-.07.27-.13.53-.23.81L170,986l-.95,4.51a2.11,2.11,0,0,1-.15,1.18c-.38,1-.22,2.13-.74,3.08a1,1,0,0,1-.08.14c0,.15,0,.29-.05.44v0a2.54,2.54,0,0,1-.07.47c-.2.91-.41,1.81-.61,2.72l0,.11c-2,9.1-4.06,18.2-6.15,27.28-1,4.34-1.55,8.79-3.51,12.89a56.7,56.7,0,0,1-7.3,12.05c-1.39,1.66-1.32,1.74.44,2.84s3.42,2.07,5.12,3.1l33.71,20.57c.53.13,1.1.21,1,1h1a35.14,35.14,0,0,1,9.14-.92c4.29,0,8.57,0,12.85,0,2.83,0,3.16-.4,2.87-3.21a4.26,4.26,0,0,0-3.33-1c-3.27.34-6.54-.12-9.81,0-2.55.08-5.11.08-7.65.22a11.85,11.85,0,0,1-10.24-4.14q-8.89-5.62-17.79-11.27c-2.29-1.45-4.54-3-6.81-4.44a26.92,26.92,0,0,1-6.43-3.66c-.66-.46-1-.92-.39-1.76,2.36-3.34,3.93-7.11,5.76-10.74,1.88-5.53,2.62-11.33,4-17,1.74-7.36,3.15-14.8,5.1-22.12,1.09-6,2.66-11.81,4.08-17.69,2.93-12.15,5.86-24.29,9.61-36.22.29-.93.59-1.86.89-2.78.59-1.8,1.28-3.58,1.92-5.37a43,43,0,0,1,2.72-6.93,4,4,0,0,1,.58-2c.11-.28.23-.57.35-.85.31-.76.62-1.51.94-2.26.52-1.26,1.07-2.51,1.63-3.75l.33-.74c.42-.93.84-1.86,1.28-2.78s.77-1.65,1.17-2.47c.46-1,.94-1.93,1.42-2.9s1-1.93,1.45-2.89a4.16,4.16,0,0,1,3-2.42,119.25,119.25,0,0,1,25.69-3.67c.55,0,1.11.08,1.66.12l.71-.52C228.32,901.1,229,900.07,228.61,898.89Z"/>
    <path class="cls-3" d="M191.56,1078.4a35.14,35.14,0,0,1,9.14-.92c-1.33.88-3,0-4.34.92Z"/>
    <path class="cls-3" d="M189.64,1077.42c.53.13,1.1.21,1,1h-.48Z"/>
    <path class="cls-4" d="M273,959.17l-.52.11A52.57,52.57,0,0,1,259,960.75a40.32,40.32,0,0,1-12.61-2.49c-.52-.2-1-.38-1.57-.59-.87-.37-1.34-.16-1.44.85-.28,2.61-.69,5.2-.85,7.81-.05.65-.07,1.29-.08,1.94,0,.44,0,.88,0,1.32l-.06,1.18c-.14,2.05-.37,4.09-.46,6.13l0,.46c0,.48,0,.95,0,1.43a5.09,5.09,0,0,1-.1,1.22v0l-.9,19.86h0a2.24,2.24,0,0,1,.07.81c-.09,1.23-.2,2.46-.27,3.7,0,.51,0,1-.06,1.54-.07,3.75-.07,7.5-.1,11.25l3,.28a6.15,6.15,0,0,1,3.25-.39c5.79,0,11.57,0,17.35,0a19.23,19.23,0,0,0,3.79-.26c0-.88,0-1.77.12-2.64.49-3.47,1-6.93,1.52-10.41l0-.33,1.27-9.89v-.06c0-.17,0-.37.08-.59v-.06l1.75-13.68c0-.52.12-1.18.24-2,.06-.46.13-.93.2-1.39l0-.27c.63-4.57,1.22-9.15,1.51-13.77a11.81,11.81,0,0,0,0-1.19C274.6,958.9,274.53,958.84,273,959.17Zm-60.88-12.74h-.47c-8.94.15-16.81-3.13-24.3-7.66a3.48,3.48,0,0,1-2-2.49c-.64,1.79-1.33,3.57-1.92,5.37-.3.92-.6,1.85-.89,2.78-3.75,11.93-6.68,24.07-9.61,36.22-1.42,5.88-3,11.73-4.08,17.69l23.32,5.31a3.37,3.37,0,0,1,2.45.23,3.35,3.35,0,0,0,2.19.49,6.5,6.5,0,0,1,.47-2.33c.24-.68.39-1.2.53-1.6l8.29-26.86.18-.58c.91-3,1.84-6.08,2.75-9.12,1.57-5.19,3.16-10.38,4.72-15.58C214.27,946.42,214.25,946.37,212.12,946.43Z"/>
    <path class="cls-3" d="M168.9,991.69c-.38,1-.22,2.13-.74,3.08l.89-4.26A2.11,2.11,0,0,1,168.9,991.69Z"/>
    <path class="cls-5" d="M168.8,998.35l23.32,5.31c-.05,1.51.14,3.12-1.7,3.84a4.17,4.17,0,0,0-.44-.19c-1.4-.46-2.42-.08-2.66,1s.51,1.89,2,2c.63.05,1.08.15,1.35.73a25.63,25.63,0,0,0-2,6.86c-.85.66-1.65,0-2.47-.1a1.59,1.59,0,0,0-1.73,1.29c-.26.83.2,1.35.9,1.68s1.32.51,2,.76c-.67,2.33-1.61,4.6-1.59,7.08a1.65,1.65,0,0,1-1.95.3,2,2,0,0,0-1.1-.31,1.6,1.6,0,0,0-1.57,1.5,1.53,1.53,0,0,0,1.47,1.78c.93.05,1.74.09,2,1.19a15.5,15.5,0,0,0-1.86,6.78c-.91.49-1.65-.22-2.47-.33a1.71,1.71,0,0,0-1.81.82,1.38,1.38,0,0,0,0,1.74,1.74,1.74,0,0,0,1.82.81c.53-.11,1-.32,1.55-.48a15,15,0,0,0,1,4.37,4,4,0,0,0,3.13,2.9,49.33,49.33,0,0,0,7.64,7.58,32.09,32.09,0,0,1,4.66,4.44,22.22,22.22,0,0,0,3.28,3.15A10.31,10.31,0,0,0,208,1067c.24.48.29.9-.28,1.2a4.39,4.39,0,0,1-3,.45c-3.83-.71-7.65-1.52-11.5-2-2.95-.37-6-.31-7.84,2.69q-8.89-5.62-17.79-11.27c-2.29-1.45-4.54-3-6.81-4.44a8.41,8.41,0,0,1,.29-1.15c1.81-4.53,1.87-8.94-.81-13.2a7,7,0,0,1-.54-1.81c1.88-5.53,2.62-11.33,4-17C165.44,1013.11,166.85,1005.67,168.8,998.35Z"/>
    <path class="cls-5" d="M240.51,1017.2l3,.28c.77.59,1.68.35,2.52.36,4.2,0,8.39,0,12.58,0a17.15,17.15,0,0,1,1.9.08c.58.07.75.49.65,1-.3,0-.59,0-.89.06a1.75,1.75,0,0,0-1.92,1.64c-.12,1,.63,1.73,1.9,1.9a4.9,4.9,0,0,0,.93-.06l.53.21h0c0,2.41-.07,4.83-.1,7.24a4.64,4.64,0,0,1-1.62,0c-1.33,0-2,.55-2.06,1.68s.46,1.59,1.74,1.72c.79.08,1.57.06,2.12.76l-.09,6.64a3.93,3.93,0,0,1-2.5.4,1.72,1.72,0,0,0-.32,3.41c.82.22,1.75.16,2.37.89,0,2.13.69,4.23.41,6.38-.8.85-1.92.61-2.9.84a1.73,1.73,0,0,0-.32,3.25,1.62,1.62,0,0,0,2-.34c.44-.45.83-.94,1.24-1.42,1,2.42,2.16,4.51,5.3,4.09,4.93,2.7,10.34,3.93,15.71,5.35,4.68,1.25,9.51,1.75,14.16,3.07a4.1,4.1,0,0,1-3.24,1.19c-.87,0-1.75,0-2.62,0a43.27,43.27,0,0,0-9.89,1,7,7,0,0,0-5.58,4.3l-30.52,0c0-.56-.06-1.11-.08-1.67-.12-4.86-1.78-8.86-6.27-11.29l.09-27.75c0-4,.06-8,0-12C238.7,1019,239,1017.76,240.51,1017.2Z"/>
    <path class="cls-6" d="M244.91,1073.14l30.53,0a3.79,3.79,0,0,0,.9.25l31.24-.06a2,2,0,0,1,.1.47c0,3.62,0,3.62-3.58,3.62l-64.38,0h-.48c-3.33,0-3.59-.36-3.07-3.86C239.08,1073.37,242,1073.72,244.91,1073.14Z"/>
    <path class="cls-7" d="M185.39,1069.32c1.88-3,4.89-3.06,7.84-2.69,3.85.48,7.67,1.29,11.5,2a4.39,4.39,0,0,0,3-.45c.57-.3.52-.72.28-1.2,1.35.09,2.71.1,4.05.3,2.58.37,3.75,1.6,4.17,4.15a10.17,10.17,0,0,1,.19,2.86,4.26,4.26,0,0,0-3.33-1c-3.27.34-6.54-.12-9.81,0-2.55.08-5.11.08-7.65.22A11.85,11.85,0,0,1,185.39,1069.32Z"/>
    <path class="cls-8" d="M307.58,1073.35l-31.24.06a3.79,3.79,0,0,1-.9-.25c1-2.55,3.06-3.78,5.57-4.3a43.27,43.27,0,0,1,9.89-1c.87,0,1.75,0,2.62,0a4.1,4.1,0,0,0,3.24-1.19,13.36,13.36,0,0,1,3.34.16,7.94,7.94,0,0,1,6.52,4.62Z"/>
    <path class="cls-9" d="M184.6,1033.05c-.23-1.1-1-1.14-2-1.19a1.53,1.53,0,0,1-1.47-1.78,1.6,1.6,0,0,1,1.57-1.5,2,2,0,0,1,1.1.31,1.65,1.65,0,0,0,1.95-.3,11.42,11.42,0,0,0,4.15-1c1.34-.57,1.57-1.19.73-2.4a10.88,10.88,0,0,0-3.29-3.69c-.65-.25-1.33-.47-2-.76s-1.16-.85-.9-1.68a1.59,1.59,0,0,1,1.73-1.29c.82.06,1.62.76,2.47.1a17,17,0,0,0,6.44-2.33,60.18,60.18,0,0,0-4.49-4.53c-.27-.58-.72-.68-1.35-.73-1.47-.12-2.22-1-2-2s1.26-1.43,2.66-1a4.17,4.17,0,0,1,.44.19c.11.65.27,1.39,1.09,1.28,2.35-.34,4.47.77,6.73,1,.74,1.1.74,1.1-.9,1.46a12.86,12.86,0,0,0-4.85-1c1.12,1.67,2,3.29,3.85,3.93.83,2,.83,2-1.34,3.79-2.29-.12-4.18,1-6.26,1.8a10.91,10.91,0,0,0,4.45,5.34c.92,2.12.9,2.16-1.28,3.62-1.61.45-3.23.84-4.82,1.36-1.44.47-1.61,1-.66,2.27,1.27,1.62,2.64,3.16,4,4.74.59.47.69,1,0,1.45-.49.35-1.12.5-1.46,1a41.13,41.13,0,0,0-7.16,2.82c-.51.16-1,.37-1.55.48a1.74,1.74,0,0,1-1.82-.81,1.38,1.38,0,0,1,0-1.74,1.71,1.71,0,0,1,1.81-.82c.82.11,1.56.82,2.47.33a14.3,14.3,0,0,0,4.13-1.13c1.62-.8,1.84-1.85.68-3.26A8.79,8.79,0,0,0,184.6,1033.05Z"/>
    <path class="cls-9" d="M261.13,1022.5a4.9,4.9,0,0,1-.93.06c-1.27-.17-2-.89-1.9-1.9a1.75,1.75,0,0,1,1.92-1.64c.3,0,.59,0,.89-.06v-.06c-.17.45.19.39.43.44a6.41,6.41,0,0,0,3.8.79,40.92,40.92,0,0,1,4.43,0c1.06.89.19,1.26-.45,1.7-1.82-.18-3.63-.69-5.77-.2,1.92,1.65,3.5,3.22,5.64,4a2.43,2.43,0,0,1-.53,2.78c-2.59.44-4.51,2.12-6.76,3.55,2.11,2.16,4.52,3.67,6.6,5.58.71.9-.31,1.32-.55,2a21.46,21.46,0,0,0-6.88,3.89c2.28,1.59,3.77,3.7,6.31,4.35.72,1.06.89,2.08-.19,3a12.68,12.68,0,0,0-5.61,3.41c-.41.48-.8,1-1.24,1.42a1.75,1.75,0,0,1-3-1.39,1.64,1.64,0,0,1,1.32-1.52c1-.23,2.1,0,2.9-.84a10.53,10.53,0,0,0,2.95-1.4c1.05-.69,1.12-1.16.28-2.07a15.54,15.54,0,0,0-3.64-2.91c-.62-.73-1.55-.67-2.37-.89a1.72,1.72,0,0,1,.32-3.41,3.93,3.93,0,0,0,2.5-.4,10.76,10.76,0,0,0,3.48-1.39c1.45-1,1.52-1.92.16-3a16.44,16.44,0,0,0-3.55-2.26c-.55-.7-1.33-.68-2.12-.76-1.28-.13-1.79-.7-1.74-1.72s.73-1.7,2.06-1.68a4.64,4.64,0,0,0,1.62,0c1.9-.42,3.4-1.65,5.06-2.55.34-.19.69-.67.32-1-1.64-1.4-2.78-3.53-5.28-3.71h0C261.62,1022.3,261.41,1022.33,261.13,1022.5Z"/>
    <path class="cls-10" d="M244.91,1073.14c-2.89.58-5.83.23-8.74.4a48.62,48.62,0,0,1,2.39-13.36c4.49,2.43,6.15,6.43,6.27,11.29C244.85,1072,244.88,1072.58,244.91,1073.14Z"/>
    <path class="cls-8" d="M181.81,1042.39a41.13,41.13,0,0,1,7.16-2.82,45.39,45.39,0,0,1-3,10.09,4,4,0,0,1-3.13-2.9A15,15,0,0,1,181.81,1042.39Z"/>
    <path class="cls-8" d="M269.78,1020.1a40.92,40.92,0,0,0-4.43,0,6.41,6.41,0,0,1-3.8-.79c0-.26-.14-.45-.43-.44v.06c.1-.54-.07-1-.65-1a17.15,17.15,0,0,0-1.9-.08c-4.19,0-8.38,0-12.58,0-.84,0-1.75.23-2.52-.36a6.15,6.15,0,0,1,3.25-.39c5.79,0,11.57,0,17.35,0a19.23,19.23,0,0,0,3.79-.26C269.29,1017.44,270.21,1018.38,269.78,1020.1Z"/>
    <path class="cls-8" d="M198.24,1009.77c-2.26-.22-4.38-1.33-6.73-1-.82.11-1-.63-1.09-1.28,1.84-.72,1.65-2.33,1.7-3.84a3.37,3.37,0,0,1,2.45.23,3.35,3.35,0,0,0,2.19.49c2.13.79,2.34,1.08,1.78,3A6.67,6.67,0,0,0,198.24,1009.77Z"/>
    <path class="cls-8" d="M268.51,1037.51c-2.08-1.91-4.49-3.42-6.6-5.58,2.25-1.43,4.17-3.11,6.76-3.55A46.43,46.43,0,0,1,268.51,1037.51Z"/>
    <path class="cls-8" d="M267.39,1047.71c-2.54-.65-4-2.76-6.31-4.35a21.46,21.46,0,0,1,6.88-3.89C268.64,1042.28,267.79,1045,267.39,1047.71Z"/>
    <path class="cls-8" d="M261.59,1054.15a12.68,12.68,0,0,1,5.61-3.41c.25,2.51-.35,5-.31,7.5C263.75,1058.66,262.54,1056.57,261.59,1054.15Z"/>
    <path class="cls-8" d="M190.4,1037.07c-1.33-1.58-2.7-3.12-4-4.74-1-1.22-.78-1.8.66-2.27,1.59-.52,3.21-.91,4.82-1.36,0,1.92-.75,3.7-1.08,5.56A14.8,14.8,0,0,0,190.4,1037.07Z"/>
    <path class="cls-8" d="M193.19,1025.08a10.91,10.91,0,0,1-4.45-5.34c2.08-.77,4-1.92,6.26-1.8C195.1,1020.5,193.9,1022.73,193.19,1025.08Z"/>
    <path class="cls-8" d="M269.2,1025.6c-2.14-.78-3.72-2.35-5.64-4,2.14-.49,3.95,0,5.77.2C269.29,1023.06,269.25,1024.33,269.2,1025.6Z"/>
    <path class="cls-8" d="M196.34,1014.15c-1.88-.64-2.73-2.26-3.85-3.93a12.86,12.86,0,0,1,4.85,1C197,1012.2,196.67,1013.18,196.34,1014.15Z"/>
    <path class="cls-11" d="M241.77,980a5.09,5.09,0,0,0,.1-1.22c0-.48,0-.95,0-1.43Zm-27.66-40.38a5.22,5.22,0,0,0,1,0A6.08,6.08,0,0,1,214.11,939.63Zm-.3,0-1.06-.09a45.52,45.52,0,0,1-18.38-5.65c-1.87-1-3.65-2.28-5.47-3.44a1.58,1.58,0,0,1-.88-1.07,43,43,0,0,0-2.72,6.93,3.48,3.48,0,0,0,2,2.49c7.49,4.53,15.36,7.81,24.3,7.66l2.16-6.82h.3Zm69-371.11a3.16,3.16,0,0,1-.45.22,2.34,2.34,0,0,0,.47-.22Z"/>
    <path class="cls-12" d="M273.6,951.15l-1.12,8.13A52.57,52.57,0,0,1,259,960.75a40.32,40.32,0,0,1-12.61-2.49c-.52-.2-1-.38-1.57-.59-.87-.37-1.34-.16-1.44.85-.28,2.61-.69,5.2-.85,7.81-.05.65-.07,1.29-.08,1.94,0,.44,0,.88,0,1.32l-.06,1.18c-.14,2.05-.37,4.09-.46,6.13l0,.46-.12,2.65v0l-.9,19.86c-.17-.55-.62-.81-1.44-.75-.55,0-1.11,0-1.67,0H201.13c-2.64,0-2.87-.14-3.37,1.31l8.29-26.86.18-.58c.91-3,1.84-6.08,2.75-9.12,1.57-5.19,3.16-10.38,4.72-15.58.57-1.89.55-1.94-1.58-1.88h-.47l2.16-6.82h.3a5.22,5.22,0,0,0,1,0l.19,0a.9.9,0,0,0,.33-.09,1.06,1.06,0,0,0,.21-.11l.1-.07a.39.39,0,0,0,.1-.08,2.13,2.13,0,0,0,.26-.32,4.11,4.11,0,0,0,.36-.7c.06-.13.11-.27.17-.42s.12-.3.17-.47.13-.35.2-.54l.24-.68c2.88-8.37,5.08-17,8-25.31a29,29,0,0,0,2-8.09l.71-.52c.87,0,1.74.08,2.62.07,1.41,0,2.87.1,4-1a5,5,0,0,1,2.31.47q8.39,2.68,16.75,5.41c-.94,2.78-1.93,5.54-2.8,8.35-.56,1.8-1.45,3.53-1.59,5.46a6.59,6.59,0,0,0-.86,2.44c-1.61,5.76-2.33,11.7-3.37,17.58-.05.31-.1.61-.14.92a42.25,42.25,0,0,0-.43,5.73,2.17,2.17,0,0,0,1.69,2.46,46.74,46.74,0,0,0,13.81,2.54,57.12,57.12,0,0,0,13-1.43Z"/>
    <path class="cls-5" d="M305.08,901a6.37,6.37,0,0,1-2.89,5.7,14,14,0,0,1-3.63,1.81,36.13,36.13,0,0,1-10.35,1.82c-11.59.57-22.94-1.39-34.31-3.17q-8.37-2.71-16.75-5.41a5,5,0,0,0-2.31-.47c-1.76-1.63-4-2-6.23-2.41-5.32-2.48-10.84-4.5-16.27-6.71-2.13-.87-4.29-1.69-6.43-2.53-.69-.72-1.67-.28-2.49-.65a61.29,61.29,0,0,0-10-3,94.78,94.78,0,0,0-13.64-2.09,36.13,36.13,0,0,0-16,1.62c-1.28.42-2.36,1.38-3.78,1.43a8,8,0,0,1,1.2-3.49,9.15,9.15,0,0,0,1.23-2.74,5.49,5.49,0,0,0,.75-1.49c.29-1.89,1.46-3.36,2.21-5,5.44-12.16,10.74-24.36,16.07-36.56q4-9.21,8-18.43c1.38,1.19,2.71,2.46,4.15,3.56,5.31,4,11.56,5.49,18,6.35,1.08.14,1.46-.49,1.35-1.44-.54-4.58-1.12-9.15-1.68-13.72a35.14,35.14,0,0,0,.37-3.8,62.59,62.59,0,0,1,1.2-10.68,224.12,224.12,0,0,1,7.75-30.07q5.21-16.3,10.69-32.51a141.36,141.36,0,0,0,6.43-28.63c13.58.24,26.94-1.16,40-5.71.77,4.24,2.08,8.09,3.13,12,3.1,11.57,5.87,23.23,8.42,34.94a301.7,301.7,0,0,1,7,48.34c.4,7.34,1.31,14.65,2,22,.87,8.82,1.82,17.65,2.66,26.48.91,9.55,1.74,19.1,2.59,28.66C304.33,883.61,304.88,892.31,305.08,901Z"/>
    <path class="cls-7" d="M238.38,698.77c-.3,2.68-.41,5.38-.61,8.08,0,.46,0,.92-.05,1.38a141.36,141.36,0,0,1-6.43,28.63q-5.46,16.21-10.69,32.51a224.12,224.12,0,0,0-7.75,30.07,62.59,62.59,0,0,0-1.2,10.68,35.14,35.14,0,0,1-.37,3.8,20.71,20.71,0,0,1-2.62-.06A34.7,34.7,0,0,1,189.71,805a4.64,4.64,0,0,0-1.67-1.31c-1.07-2.14-2.23-4.24-3.18-6.43-1.31-3-2.35-6.09-1.94-9.46.17-1.49.42-3,.49-4.49a33.54,33.54,0,0,1,6.79-18.62c.66-.9,1.33-1.81,2-2.69a109.3,109.3,0,0,1,11.31-12.06A66,66,0,0,0,219.2,727.7c4-9.23,5.36-18.87,3.32-28.84a13.45,13.45,0,0,1-.16-4.29c.21-1.74.52-3.48.66-5.23.59-7,.45-13.89-1.71-20.64-.28-.89-.51-2.25-1.67-1.84-.85.3-.29,1.55,0,2.37a44.46,44.46,0,0,1,1.83,18.22c-.27,2.95-.7,5.87-1,8.81a6.6,6.6,0,0,1-.51,1.82,50.27,50.27,0,0,1-6.69,11c-4.94,6.51-10.67,12.32-16.36,18.16a7.35,7.35,0,0,0-2,3.18,15.5,15.5,0,0,0-4.73,3.94,47.31,47.31,0,0,1-5.26,4.85c-2.62,2.07-5.37,4-7.94,6.12-4.3,3.55-9.32,5.7-14.43,7.71,0-.63-.12-1.27-.12-1.9q0-24.27,0-48.54c0-.63.08-1.26.12-1.9a73.6,73.6,0,0,0,14.41-6.88A75.18,75.18,0,0,0,201,669.08a50.72,50.72,0,0,1,4.35-6.3c3.24-3.9,7.11-6.87,12.18-8a23.84,23.84,0,0,1,6-.29,35.6,35.6,0,0,0,3.12,7.71c2.81,5.51,5.72,11,8.61,16.46a6.84,6.84,0,0,0,2.3,2.68c.14,2.62.69,5.21.62,7.86a28.19,28.19,0,0,0,.28,4.29A21.47,21.47,0,0,1,238.38,698.77Z"/>
    <path class="cls-13" d="M227.47,902.72a29,29,0,0,1-2,8.09c-2.94,8.36-5.14,16.94-8,25.31l-.24.68c-.07.19-.13.37-.2.54s-.11.32-.17.47-.11.29-.17.42a4.11,4.11,0,0,1-.36.7,2.13,2.13,0,0,1-.26.32.39.39,0,0,1-.1.08l-.1.07a1.06,1.06,0,0,1-.21.11,1.59,1.59,0,0,1-.33.09l-.19,0a5.22,5.22,0,0,1-1,0h-.3l-1.06-.09a45.52,45.52,0,0,1-18.38-5.65c-1.87-1-3.65-2.28-5.47-3.44a1.58,1.58,0,0,1-.88-1.07,4,4,0,0,1,.58-2c.11-.28.23-.57.35-.85.31-.76.62-1.51.94-2.26s.69-1.64,1.05-2.45c.19-.43.38-.87.58-1.3l.33-.74c.42-.93.84-1.86,1.28-2.78s.77-1.65,1.17-2.47c.46-1,.94-1.93,1.42-2.9s1-1.93,1.45-2.89a4.16,4.16,0,0,1,3-2.42,119.25,119.25,0,0,1,25.69-3.67C226.36,902.59,226.92,902.68,227.47,902.72Z"/>
    <path class="cls-10" d="M205.91,889.65c-2.75.08-2.06-.31-2.7,2.23a44.15,44.15,0,0,1-6.55,14.87,22.93,22.93,0,0,0-7.11.31c-7.1,1.12-14.07.31-21.05-1.1a18.85,18.85,0,0,1-6.09-2.46,14.34,14.34,0,0,1-4.15-4.51c-2.13-4.25-1.61-8.11,1.75-12.08,1.42,0,2.5-1,3.78-1.43a36.13,36.13,0,0,1,16-1.62A94.78,94.78,0,0,1,193.4,886a61.29,61.29,0,0,1,10,3C204.24,889.37,205.22,888.93,205.91,889.65Z"/>
    <path class="cls-10" d="M159.73,1037.45a7,7,0,0,0,.54,1.81c2.68,4.26,2.62,8.67.81,13.2a8.41,8.41,0,0,0-.29,1.15,26.92,26.92,0,0,1-6.43-3.66c-.66-.46-1-.92-.39-1.76C156.33,1044.85,157.9,1041.08,159.73,1037.45Z"/>
    <path class="cls-10" d="M234.84,901.3c-1.17,1.07-2.63,1-4,1-.88,0-1.75,0-2.62-.07.14-1.1.85-2.13.43-3.31C230.84,899.3,233.08,899.67,234.84,901.3Z"/>
    <path class="cls-8" d="M184.6,1033.05a8.79,8.79,0,0,1,3,2.39c1.16,1.41.94,2.46-.68,3.26a14.3,14.3,0,0,1-4.13,1.13A15.5,15.5,0,0,1,184.6,1033.05Z"/>
    <path class="cls-8" d="M187.37,1021.51a10.88,10.88,0,0,1,3.29,3.69c.84,1.21.61,1.83-.73,2.4a11.42,11.42,0,0,1-4.15,1C185.76,1026.11,186.7,1023.84,187.37,1021.51Z"/>
    <path class="cls-8" d="M190.65,1011a60.18,60.18,0,0,1,4.49,4.53,17,17,0,0,1-6.44,2.33A25.63,25.63,0,0,1,190.65,1011Z"/>
    <path class="cls-8" d="M261.65,1022.7c2.5.18,3.64,2.31,5.28,3.71.37.31,0,.79-.32,1-1.66.9-3.16,2.13-5.06,2.55C261.58,1027.53,261.62,1025.11,261.65,1022.7Z"/>
    <path class="cls-8" d="M261.73,1034.1a16.44,16.44,0,0,1,3.55,2.26c1.36,1.07,1.29,2-.16,3a10.76,10.76,0,0,1-3.48,1.39Z"/>
    <path class="cls-8" d="M261.19,1045.44a15.54,15.54,0,0,1,3.64,2.91c.84.91.77,1.38-.28,2.07a10.53,10.53,0,0,1-2.95,1.4C261.88,1049.67,261.21,1047.57,261.19,1045.44Z"/>
    <path class="cls-8" d="M261.13,1022.5c.28-.17.49-.2.53.21Z"/>
    <path class="cls-5" d="M261.12,1018.9c.29,0,.4.18.43.44C261.31,1019.29,261,1019.35,261.12,1018.9Z"/>
    <path class="cls-8" d="M340.93,727.5a23.51,23.51,0,0,1-12.36,16.24,6.7,6.7,0,0,0-.78.53l-.87.28c-5.49,2-10.94,1.45-16.38-.2A117.87,117.87,0,0,1,299,739.76c-1-.4-1-1-.49-1.84a27.88,27.88,0,0,0,3.36-13.09,32.27,32.27,0,0,0-5.13-18.43,33.93,33.93,0,0,1-4-9.71c-1.35-5.5-2.32-11.09-3.72-16.58a35.46,35.46,0,0,0-7.43-14.87c-.3.77.2,1.19.41,1.67,1,2.35,2.14,4.65,3.07,7a30.29,30.29,0,0,1,1.27,18.34,17.66,17.66,0,0,0-.41,5.23,87.78,87.78,0,0,0,2.82,16.75c2.53,9.75,5.43,19.35,9.71,28.53a77.44,77.44,0,0,1,6.93,23.57,51.09,51.09,0,0,1,.47,12.16,84.26,84.26,0,0,1-2.6,13.63,27.32,27.32,0,0,1-3,7,5.3,5.3,0,0,1-2,2.26,1.13,1.13,0,0,1-.54-1.06c-.19-2.39-.43-4.78-.55-7.17A196.55,196.55,0,0,0,294.08,767c-3.58-19.32-8-38.46-13.28-57.39-2.5-8.94-3.8-18.12-5.24-27.27q-.72-4.62-1.36-9.25c-.11-.79-.23-1.46-1.29-1.16-.06-.32-.13-.63-.2-1,.73-2.86.18-5.68-.3-8.48-.71-4.19-2.52-8-4.18-11.86,6.35-.36,11.36,2.3,15.15,7.16a72.26,72.26,0,0,1,9,14.35c1.42,3.1,3.1,6.07,4.81,9,.38.66.35,1.55.67,2.26a71.47,71.47,0,0,0,4.63,9.16,3,3,0,0,0,.87,1.38c2.35,4.67,5.23,9,7.94,13.49a17,17,0,0,0-1.84,4.66c-.73,3.42-1.46,6.86-2.17,10.29a3.35,3.35,0,0,0,0,.95.7.7,0,0,0,.62.64.64.64,0,0,0,.76-.42c.19-.61.32-1.23.46-1.85.77-3.51,1.45-7,2.32-10.51.77-3.06,1.59-3.4,4.38-2.06a14.31,14.31,0,0,0,5.5,1.49c1.2.06,2.41,0,3.59.13a42.22,42.22,0,0,0,16.33-1.18C342,715.6,342.33,721.58,340.93,727.5Z"/>
    <path class="cls-2" d="M276.66,622.4a26.77,26.77,0,0,0-10.83,4.83,17.09,17.09,0,0,1-8.59,3.32l-2.75,0a1.37,1.37,0,0,1,.21-1c.08-.13.15-.27.22-.41.14-.85.87-1.31,1.32-2,2.88-4.15,4.91-8.71,4.81-13.79a56.66,56.66,0,0,0-4.18-21.48,3.9,3.9,0,0,0-1-1.59c-.51-.42-1-.48-1.45.07a13.53,13.53,0,0,0-.78,1.19,18.81,18.81,0,0,1-13,9,13.47,13.47,0,0,0-9.77,7,2.85,2.85,0,0,1-1.53,1.42c-3.44,1.38-4.11,4.05-1.53,6.62a6.78,6.78,0,0,1,2,4.45,72.65,72.65,0,0,0,.93,8.57,6.58,6.58,0,0,1-.29,3.31,21.39,21.39,0,0,1-14.73-2.87,52.57,52.57,0,0,0-9.49-3.92c-2.33-.81-2.82-1.37-2.73-3.83.17-4.41,1.59-8.29,5.23-11.09,1.27-1,2.48-2,3.79-2.93a7.79,7.79,0,0,0,3.21-4.34,58.71,58.71,0,0,0,1.52-5.79c1-5.6,4.55-8.8,9.81-10.29A30.08,30.08,0,0,1,234,586a10.37,10.37,0,0,0,5.38-1.7c1.67-1.09,3.42-2.06,5.15-3.06s2.34-1,3.76.49a11.26,11.26,0,0,1,.81.88,8.46,8.46,0,0,0,5.31,3.29,10.46,10.46,0,0,1,6.95,4.24,4.81,4.81,0,0,1,.75,1.48c.9,3.64,2.81,6.86,4.2,10.29a10.63,10.63,0,0,0,4.79,5.21c3.26,1.84,5.61,4.28,6.53,8.11a35.31,35.31,0,0,1,1.2,4.06C279,621.15,278.45,622.09,276.66,622.4Z"/>
    <path class="cls-13" d="M361.51,645.8c-.13-1.18-.87-1.59-1.83-.88a13.17,13.17,0,0,0-3.77,3.59,37.14,37.14,0,0,1-4.3,5.44c-.37.42-.72,1.06-1.67.84a37.16,37.16,0,0,1,3.3-8.94c1.48-2.68,2.15-5.65,3.31-8.45a5,5,0,0,0,.14-1.66c0-.59-.1-1.13-.81-1.26-1.32-.23-1.58-1.21-1.6-2.31s-.59-1.16-1.41-1.19a2.43,2.43,0,0,0-2.21,1.15c-1.08,1.48-2.24,2.91-3.34,4.38a18.39,18.39,0,0,0-3.49,6.76,13.35,13.35,0,0,1-3.43,5.82,8.11,8.11,0,0,1,1.05-4.43c1.68-3.22,2.48-6.74,3.72-10.1.39-1.06.49-2-.71-2.68-1-.5-1.61-.21-2.47,1.17a34.39,34.39,0,0,0-3.53,6.51,11.45,11.45,0,0,1-2.07,3.76,7.36,7.36,0,0,0-1.35,2.51,44.07,44.07,0,0,1-7.31,13.38,16.84,16.84,0,0,1,6.16,9.38,5.89,5.89,0,0,1-1.36,5.73c-.66-.67-.35-1.31-.25-1.88.74-4.51-.92-8.1-4.21-11.05-.68-.61-1.41-1.08-1-2.14a22.67,22.67,0,0,1-1.61-9.32,7.4,7.4,0,0,0-.53-3,2.18,2.18,0,0,0-2.06-1.39c-.74,0-.91.81-1.14,1.38a7.13,7.13,0,0,0-.56,2.79A34.11,34.11,0,0,1,321,654a119.87,119.87,0,0,0-.92,13.78c0,1,0,2.07-.06,3.1l.06,1c0,2.55.1,5.09,1.58,7.32a2.63,2.63,0,0,1,0,2.29c-1,4.15-2,8.31-3.07,12.46,0,2,1.42,2.47,3,2.8,3.52.76,7.11.66,10.68.77a23.41,23.41,0,0,0,4.26-.36,4.13,4.13,0,0,0,3.42-2.25c-.25-2.41.3-4.78.51-7.15a21.39,21.39,0,0,1,2.9-9.8c2.95-4.56,5.45-9.4,8.46-13.92,2.7-4.06,4.81-8.46,7.53-12.51.74-1.11,1-2.51,1.83-3.6A2.82,2.82,0,0,0,361.51,645.8Zm-26.76,8.14a4.9,4.9,0,0,1,4.68.2c2.78,1.73,3.31.75,4.44-1.63,2.1-4.39,4.33-8.71,6.51-13.06.42-.84.74-1.78,1.93-2.08.16,1.48-.57,2.64-1.16,3.82-2.11,4.2-4.25,8.39-6.37,12.59-1.15,2.28-1.09,2.63.78,4.28,1.13,1,2.23,2,2.41,3.7A35.82,35.82,0,0,0,334.75,653.94Z"/>
    <path class="cls-14" d="M254.92,629.14c.14-.85.87-1.31,1.32-2,2.88-4.15,4.91-8.71,4.81-13.79a56.66,56.66,0,0,0-4.18-21.48,3.9,3.9,0,0,0-1-1.59c-.51-.42-1-.48-1.45.07a13.53,13.53,0,0,0-.78,1.19,18.81,18.81,0,0,1-13,9,13.47,13.47,0,0,0-9.77,7,2.85,2.85,0,0,1-1.53,1.42c-3.44,1.38-4.11,4.05-1.53,6.62a6.78,6.78,0,0,1,2,4.45,72.65,72.65,0,0,0,.93,8.57,6.58,6.58,0,0,1-.29,3.31,17.82,17.82,0,0,1,.58,8.4A2.13,2.13,0,0,1,230,642c.6.13,1.25.09,1.41,1a14.66,14.66,0,0,0,2.93,5.71,25.17,25.17,0,0,1,4.33,9.27c.46,2,1.5,2.85,3.61,3,3.22.29,6.37.45,9.47-.62s4.47-3.16,4.22-6.56c-.33-4.38-.57-8.76-.85-13.15l-.21-1.37c-5.93-1.15-10.69-4.35-14.92-8.49a12.69,12.69,0,0,1-2.75-3.6A59,59,0,0,0,250,630.35a16.24,16.24,0,0,0,4.51.22,1.37,1.37,0,0,1,.21-1C254.62,629.33,254.74,629.22,254.92,629.14Zm-27.16-16.86c1.79,0,1.85,0,3.1,2.31C228.77,614.14,228.77,614.14,227.76,612.28Zm20.37,1.58c1.51-3.09-.54-5.75-.89-8.62C250.51,608.36,250.79,611.34,248.13,613.86Zm-7.71-4.5a1.33,1.33,0,0,1-1.34-1.37,1.34,1.34,0,0,1,1.48-1.45,1.23,1.23,0,0,1,1.34,1.24A1.5,1.5,0,0,1,240.42,609.36ZM238,604.51c1.78-1.87,2.63-1.94,4.85,0Zm12.41,14.38a3.93,3.93,0,0,1-3.8,1.94,3.1,3.1,0,0,1-2.63-2.7c-.12-1,.2-1.54,1.28-1.5.63,0,1.27,0,1.91,0v0a17.39,17.39,0,0,1,1.91,0A1.48,1.48,0,0,1,250.37,618.89Zm5.91-15.34a24.73,24.73,0,0,0-5,.44C253.3,601.76,254.06,601.7,256.28,603.55Zm-2.34,4.92a1.24,1.24,0,0,1-1.36-1.24,1.28,1.28,0,0,1,1.18-1.5,1.29,1.29,0,0,1,1.57,1.09A1.47,1.47,0,0,1,253.94,608.47Z"/>
    <path class="cls-9" d="M304.5,792.64a12.21,12.21,0,0,0-.55,3.75,52.93,52.93,0,0,1-3.66,22.26,5.28,5.28,0,0,0-.29,2.57c.54,6.28,1.05,12.57,1.63,18.84.59,6.43,1.24,12.84,1.87,19.26.09.88.26,1.74.39,2.61,0,.48,0,1,.05,1.46a7,7,0,0,0,.38,2.89,31.53,31.53,0,0,0,.57,6.71c0,.31,0,.63,0,1a.35.35,0,0,0,0,.43q.29,3.39.55,6.78a2.25,2.25,0,0,0,0,1.47c.12,2.23.25,4.45.38,6.68.2,3.49.41,7,.62,10.48a.94.94,0,0,0-.11.93,7.38,7.38,0,0,1-3.12,6.84,16.27,16.27,0,0,1-4.66,2.37,41.11,41.11,0,0,1-7.23,1.52,46.89,46.89,0,0,0-6.7.39h0a4.25,4.25,0,0,0-1.91,0c-.78,0-1.84-.6-1.83.93-.07.78-.13,1.56-.2,2.34l-.82,1.13a13.55,13.55,0,0,0-1.43-.08,124.83,124.83,0,0,0-29,4.83c.14-1.93,1-3.66,1.59-5.46.87-2.81,1.86-5.57,2.8-8.35,11.37,1.78,22.72,3.74,34.31,3.17a36.13,36.13,0,0,0,10.35-1.82,14,14,0,0,0,3.63-1.81,6.37,6.37,0,0,0,2.89-5.7c-.2-8.71-.75-17.41-1.52-26.09-.85-9.56-1.68-19.11-2.59-28.66-.84-8.83-1.79-17.66-2.66-26.48-.72-7.32-1.63-14.63-2-22a301.7,301.7,0,0,0-7-48.34c-2.55-11.71-5.32-23.37-8.42-34.94-1.05-3.93-2.36-7.78-3.13-12-13.06,4.55-26.42,6-40,5.71,0-.46,0-.92.05-1.38a119.16,119.16,0,0,0,19.8-1,115.83,115.83,0,0,0,18.4-4.08c1.13-.35,1.46-.73,1.22-2q-1.59-8.44-2.89-16.95A88.58,88.58,0,0,1,272.91,672c1.06-.3,1.18.37,1.29,1.16q.65,4.64,1.36,9.25c1.44,9.15,2.74,18.33,5.24,27.27,5.32,18.93,9.7,38.07,13.28,57.39a196.55,196.55,0,0,1,3.11,26.16c.12,2.39.36,4.78.55,7.17a1.13,1.13,0,0,0,.54,1.06,5.3,5.3,0,0,0,2-2.26,27.32,27.32,0,0,0,3-7,84.26,84.26,0,0,0,2.6-13.63,51.09,51.09,0,0,0-.47-12.16,77.44,77.44,0,0,0-6.93-23.57c-4.28-9.18-7.18-18.78-9.71-28.53A87.78,87.78,0,0,1,286,697.5a17.66,17.66,0,0,1,.41-5.23,30.29,30.29,0,0,0-1.27-18.34c-.93-2.37-2.06-4.67-3.07-7-.21-.48-.71-.9-.41-1.67a35.46,35.46,0,0,1,7.43,14.87c1.4,5.49,2.37,11.08,3.72,16.58a33.93,33.93,0,0,0,4,9.71,32.27,32.27,0,0,1,5.13,18.43,27.88,27.88,0,0,1-3.36,13.09c-.49.84-.48,1.44.49,1.84-.28.86.32,1.51.62,2.19a107.81,107.81,0,0,1,5.52,15.66c.11.4.2.81.29,1.21s.17.8.25,1.21.21,1.08.33,1.62c.06.27.12.54.19.81a15.21,15.21,0,0,0,.5,1.58c0,.08-.05.15-.07.22a1,1,0,0,0,.12.71,76,76,0,0,1,.57,11A75,75,0,0,1,304.5,792.64Z"/>
    <path class="cls-13" d="M279.23,925.75c-.71,4.65-1.13,9.32-1.75,14-.36,2.76-.63,5.53-1,8.29-.3,2-.92,2.65-2.84,3.13l-.36.08a57.12,57.12,0,0,1-13,1.43,46.74,46.74,0,0,1-13.81-2.54,2.17,2.17,0,0,1-1.69-2.46,42.25,42.25,0,0,1,.43-5.73c0-.31.09-.61.14-.92,1-5.88,1.76-11.82,3.37-17.58a6.59,6.59,0,0,1,.86-2.44,124.83,124.83,0,0,1,29-4.83,13.55,13.55,0,0,1,1.43.08A37,37,0,0,1,279.23,925.75Z"/>
    <path class="cls-2" d="M272.71,671a30.75,30.75,0,0,0-4-6.21,44,44,0,0,0-9.67-7.39,1.39,1.39,0,0,0-2.18.54,6.11,6.11,0,0,1-2.2,2.43c-1.58.81-1.59,1.24-.65,2.83,1.09,1.85,2.16,3.73,3.26,5.58A37.44,37.44,0,0,1,262,681.51a16.94,16.94,0,0,1,.55,4.61,8.09,8.09,0,0,1-1.75-4,61.58,61.58,0,0,0-8-18.57,2.45,2.45,0,0,0-2.77-1.34,25.89,25.89,0,0,1-8.1,0c-2.14-.25-2.3,0-2.06,2.21a36.85,36.85,0,0,1-2.28,16.92,6.84,6.84,0,0,1-2.3-2.68c-2.89-5.48-5.8-11-8.61-16.46a35.6,35.6,0,0,1-3.12-7.71c2-2.9,3.57-5.95,3.58-9.62,0-1.78,1.16-2.67,2.86-2.91.6.13,1.25.09,1.41,1a14.66,14.66,0,0,0,2.93,5.71,25.17,25.17,0,0,1,4.33,9.27c.46,2,1.5,2.85,3.61,3,3.22.29,6.37.45,9.47-.62s4.47-3.16,4.22-6.56c-.33-4.38-.57-8.76-.85-13.15,4.76,1.19,8.23,4.24,11.32,7.84l1.84,2.17c1.66,3.86,3.47,7.67,4.18,11.86C272.89,665.33,273.44,668.15,272.71,671Z"/>
    <path class="cls-15" d="M305.27,874c-.11.14-.23.27-.35.41l.36-.41Z"/>
    <path class="cls-16" d="M327.89,901.75h0v0Z"/>
    <path class="cls-8" d="M341.59,697.54l-.48,7.7c0,.7-.07,1.4-.11,2.1a15.09,15.09,0,0,1-3,1.45c-2.6,1.08-5.31.86-8,1a43,43,0,0,1-12.07-1.47c-2.08-.51-2.48-1-2.19-3.23.25-1.82.6-3.62,1-5.42s.82-2.06,2.66-1.86c.47.06.93.21,1.4.29,3.69.71,7.4,1.42,11.17,1.08A70.29,70.29,0,0,0,341.59,697.54Z"/>
    <path class="cls-9" d="M341.23,709.63a42.22,42.22,0,0,1-16.33,1.18c-1.18-.14-2.39-.07-3.59-.13a14.31,14.31,0,0,1-5.5-1.49c-2.79-1.34-3.61-1-4.38,2.06-.87,3.48-1.55,7-2.32,10.51-.14.62-.27,1.24-.46,1.85a.64.64,0,0,1-.76.42.7.7,0,0,1-.62-.64,3.35,3.35,0,0,1,0-.95c.71-3.43,1.44-6.87,2.17-10.29a17,17,0,0,1,1.84-4.66c2-.74,2.87-2.27,3.15-4.35.32-2.28.88-4.52,1.36-6.77a2.87,2.87,0,0,1,2.83-2.45c0,2,1.42,2.47,3,2.8,3.52.76,7.11.66,10.68.77a23.41,23.41,0,0,0,4.26-.36,4.13,4.13,0,0,0,3.42-2.25c2.25.6,2.25.6,1.61,2.66a70.29,70.29,0,0,1-9.66,1.61c-3.77.34-7.48-.37-11.17-1.08-.47-.08-.93-.23-1.4-.29-1.84-.2-2.3.09-2.66,1.86s-.72,3.6-1,5.42c-.29,2.18.11,2.72,2.19,3.23A43,43,0,0,0,330,709.76c2.7-.11,5.41.11,8-1a15.09,15.09,0,0,0,3-1.45C342,708,341.61,708.82,341.23,709.63Z"/>
    <path class="cls-6" d="M254.83,633.88c0,1.8,0,3.61,0,5.41-5.93-1.15-10.69-4.35-14.92-8.49a12.69,12.69,0,0,1-2.75-3.6A59,59,0,0,0,250,630.35a16.24,16.24,0,0,0,4.51.22l2.75,0C254.74,631.22,254.76,631.22,254.83,633.88Z"/>
    <path class="cls-9" d="M332.53,674.32c-.66-.67-.35-1.31-.25-1.88.74-4.51-.92-8.1-4.21-11.05-.68-.61-1.41-1.08-1-2.14l.66,0a16.84,16.84,0,0,1,6.16,9.38A5.89,5.89,0,0,1,332.53,674.32Z"/>
    <path class="cls-4" d="M306.73,764c0,.08-.05.15-.07.22l.06-.22Z"/>
    <path class="cls-4" d="M282.83,568.5a2.34,2.34,0,0,1-.47.22,3.16,3.16,0,0,0,.45-.22Z"/>
    <path class="cls-4" d="M327.89,901.75h0v0Z"/>
    <path class="cls-4" d="M327.89,901.75h0v0Z"/>
    <path class="cls-2" d="M211.61,829.08c-6.45-.86-12.7-2.31-18-6.35-1.44-1.1-2.77-2.37-4.15-3.56a12.73,12.73,0,0,1-1.66-6.81c0-2.68,0-5.36,0-8.05,0-.2.18-.41.28-.62a4.64,4.64,0,0,1,1.67,1.31,34.7,34.7,0,0,0,18.95,8.86,20.71,20.71,0,0,0,2.62.06c.56,4.57,1.14,9.14,1.68,13.72C213.07,828.59,212.69,829.22,211.61,829.08Z"/>
    <path class="cls-5" d="M237.54,681.37a36.85,36.85,0,0,0,2.28-16.92c-.24-2.19-.08-2.46,2.06-2.21a25.89,25.89,0,0,0,8.1,0,2.45,2.45,0,0,1,2.77,1.34,61.58,61.58,0,0,1,8,18.57,8.09,8.09,0,0,0,1.75,4,16.94,16.94,0,0,0-.55-4.61,37.44,37.44,0,0,0-4.71-12.72c-1.1-1.85-2.17-3.73-3.26-5.58-.94-1.59-.93-2,.65-2.83a6.11,6.11,0,0,0,2.2-2.43,1.39,1.39,0,0,1,2.18-.54,44,44,0,0,1,9.67,7.39,30.75,30.75,0,0,1,4,6.21c.07.32.14.63.2,1a88.58,88.58,0,0,0,1.39,10.89q1.29,8.49,2.89,16.95c.24,1.28-.09,1.66-1.22,2a115.83,115.83,0,0,1-18.4,4.08,119.16,119.16,0,0,1-19.8,1c.2-2.7.31-5.4.61-8.08a21.47,21.47,0,0,0,.06-5.25,28.19,28.19,0,0,1-.28-4.29C238.23,686.58,237.68,684,237.54,681.37ZM253.82,669a1.71,1.71,0,0,0-3.4-.25,1.51,1.51,0,0,0,1.4,1.83A1.73,1.73,0,0,0,253.82,669Zm2.16,6.14a1.49,1.49,0,0,0-1.57,1.74A1.36,1.36,0,0,0,256,678.2a1.51,1.51,0,0,0,1.5-1.74A1.37,1.37,0,0,0,256,675.12Z"/>
    <path class="cls-2" d="M219.2,727.7a66,66,0,0,1-15.67,22.24A109.3,109.3,0,0,0,192.22,762c-.69.88-1.36,1.79-2,2.69a33.54,33.54,0,0,0-6.79,18.62c-.07,1.5-.32,3-.49,4.49-.77-2.41-.47-4.88-.23-7.32a92.73,92.73,0,0,1,3.82-17.74c2.22-7.41,4.5-14.8,6.64-22.23a39.79,39.79,0,0,0,1.65-10.12,7.35,7.35,0,0,1,2-3.18c5.69-5.84,11.42-11.65,16.36-18.16a50.27,50.27,0,0,0,6.69-11,6.6,6.6,0,0,0,.51-1.82c.34-2.94.77-5.86,1-8.81a44.46,44.46,0,0,0-1.83-18.22c-.27-.82-.83-2.07,0-2.37,1.16-.41,1.39.95,1.67,1.84,2.16,6.75,2.3,13.67,1.71,20.64-.14,1.75-.45,3.49-.66,5.23a13.45,13.45,0,0,0,.16,4.29C224.56,708.83,223.15,718.47,219.2,727.7Z"/>
    <path class="cls-17" d="M306.73,764h0a13.08,13.08,0,0,1-.49-1.58A15.21,15.21,0,0,0,306.73,764Z"/>
    <path class="cls-6" d="M254.7,629.55c-.08-.22,0-.33.22-.41Z"/>
    <path class="cls-9" d="M348,661.76a35.82,35.82,0,0,0-13.22-7.82,4.9,4.9,0,0,1,4.68.2c2.78,1.73,3.31.75,4.44-1.63,2.1-4.39,4.33-8.71,6.51-13.06.42-.84.74-1.78,1.93-2.08.16,1.48-.57,2.64-1.16,3.82-2.11,4.2-4.25,8.39-6.37,12.59-1.15,2.28-1.09,2.63.78,4.28C346.69,659.06,347.79,660.06,348,661.76Z"/>
    <path class="cls-17" d="M247.13,616.68a17.39,17.39,0,0,1,1.91,0,1.48,1.48,0,0,1,1.33,2.2,3.93,3.93,0,0,1-3.8,1.94,3.1,3.1,0,0,1-2.63-2.7c-.12-1,.2-1.54,1.28-1.5.63,0,1.27,0,1.91,0Z"/>
    <path class="cls-9" d="M247.24,605.24c3.27,3.12,3.55,6.1.89,8.62C249.64,610.77,247.59,608.11,247.24,605.24Z"/>
    <path class="cls-9" d="M241.9,607.78a1.5,1.5,0,0,1-1.48,1.58,1.33,1.33,0,0,1-1.34-1.37,1.34,1.34,0,0,1,1.48-1.45A1.23,1.23,0,0,1,241.9,607.78Z"/>
    <path class="cls-9" d="M253.94,608.47a1.24,1.24,0,0,1-1.36-1.24,1.28,1.28,0,0,1,1.18-1.5,1.29,1.29,0,0,1,1.57,1.09A1.47,1.47,0,0,1,253.94,608.47Z"/>
    <path class="cls-9" d="M242.81,604.51H238C239.74,602.64,240.59,602.57,242.81,604.51Z"/>
    <path class="cls-9" d="M251.24,604c2.06-2.23,2.82-2.29,5-.44A24.73,24.73,0,0,0,251.24,604Z"/>
    <path class="cls-9" d="M230.86,614.59c-2.09-.45-2.09-.45-3.1-2.31C229.55,612.25,229.61,612.3,230.86,614.59Z"/>
    <path class="cls-14" d="M305.28,874l-.36.41a.35.35,0,0,1,0-.43,1.7,1.7,0,0,1,.39,0Z"/>
    <path class="cls-11" d="M320,855.91c-.05.12-.1.25-.14.37a2.28,2.28,0,0,1-.22-.22Z"/>
    <path class="cls-12" d="M327.43,416a5,5,0,0,1-4.69-5.34c0-2.46,2.6-4.68,5.45-4.68s5,2.49,4.93,5.64C333,414,330.41,416,327.43,416Z"/>
    <path class="cls-12" d="M313,411.83c-.08,1.15-.65,1.7-2.14,1.73-2.87.06-5.75,0-8.63,0H281.61a14,14,0,0,1-2.15-.09,1.82,1.82,0,0,1-1.64-2,1.86,1.86,0,0,1,1.64-2,10.11,10.11,0,0,1,1.91-.09q13.78,0,27.58,0a7.62,7.62,0,0,1,2.38.18A2.1,2.1,0,0,1,313,411.83Z"/>
    <path class="cls-12" d="M447.21,550.19c-.18,3.89-.86,7.22-2.76,10.21a10.42,10.42,0,0,1-4.1,3.91c-2.29,1.14-4.3.39-5.21-2a8.37,8.37,0,0,1-.6-3.28,22.88,22.88,0,0,1,4.21-13,6.31,6.31,0,0,1,2.92-2.38,3.3,3.3,0,0,1,4.47,1.62C447.12,546.94,447.06,548.8,447.21,550.19Z"/>
    <path class="cls-12" d="M400.33,509.37a24.27,24.27,0,0,1-.63,6.91,92.26,92.26,0,0,1-10.4,25.64c-.07.12-.23.19-.56.45a30.07,30.07,0,0,1,.3-7.68,116.9,116.9,0,0,1,5.15-20.41,17.48,17.48,0,0,1,2.31-4.71,9.48,9.48,0,0,1,1.09-1.27,1.77,1.77,0,0,1,2-.57C400.19,508,400.29,508.72,400.33,509.37Z"/>
    <path class="cls-12" d="M334.54,504.88a19.41,19.41,0,0,1-.05,5.49,87.59,87.59,0,0,1-9.35,27.45c-.06.12-.22.19-.66.56.82-6.79,1.84-13.24,3.18-19.63a71.86,71.86,0,0,1,3.14-11.27,10.27,10.27,0,0,1,1.67-3.15c.37-.43.84-.87,1.42-.66S334.48,504.39,334.54,504.88Z"/>
    <path class="cls-12" d="M372.44,542.23a6.83,6.83,0,0,1-.49,1.85,20.81,20.81,0,0,1-7.62,8.74,36,36,0,0,1,3.9-10.07,11,11,0,0,1,1.4-1.93c.53-.58,1.21-1.2,2.07-.71A1.88,1.88,0,0,1,372.44,542.23Z"/>
    <path class="cls-12" d="M423.05,509.84A32.5,32.5,0,0,1,421.54,520a89.47,89.47,0,0,1-9.86,22.26,35.64,35.64,0,0,1,.85-11.79,133.58,133.58,0,0,1,4.12-15.22,23.14,23.14,0,0,1,2-4.6,15.61,15.61,0,0,1,1.38-1.95c.58-.69,1.34-1.31,2.28-.93S423,509.06,423.05,509.84Z"/>
    <path class="cls-9" d="M253.82,669a1.73,1.73,0,0,1-2,1.58,1.51,1.51,0,0,1-1.4-1.83,1.71,1.71,0,0,1,3.4.25Z"/>
    <path class="cls-9" d="M256,675.12a1.37,1.37,0,0,1,1.52,1.34,1.51,1.51,0,0,1-1.5,1.74,1.36,1.36,0,0,1-1.59-1.34A1.49,1.49,0,0,1,256,675.12Z"/>
  </g>
  <path class="cls-12" d="M485.3,470.17c-.79,0-1.59.1-2.39.1H448.36c-1.68,0-3.35-.1-5-.08-.91,0-1.34-.3-1.29-1.24,0-.56,0-1.12,0-1.68,0-12.32,0-24.63,0-36.95A38.81,38.81,0,0,0,435.87,409c-7.08-10.9-17.19-16.84-30.14-18-2.31-.2-4.63-.23-7-.23H190.27c-6.79,0-13.39,1-19.51,4.12-12.31,6.23-19.4,16.25-21.51,29.85a36.77,36.77,0,0,0-.41,5.74q0,262.24,0,524.51A38.85,38.85,0,0,0,163,985.75a25.54,25.54,0,0,0,4.9,3.43,2,2,0,0,1,1.18,1.33l-.89,4.26a1,1,0,0,1-.08.14,2.08,2.08,0,0,0-1.26-1.6,43.56,43.56,0,0,1-18.54-20.68,40.2,40.2,0,0,1-3.7-16.23c-.09-21.59,0-43.18,0-64.77q0-94,0-188.08V618.63c0-1,0-1.92,0-2.88,0-.7-.29-1.38-1-1.45-1.56-.15-1.41-1.2-1.41-2.26q0-7.44,0-14.87,0-12.6,0-25.19c0-1.23-.13-2.38,1.49-2.75a1.44,1.44,0,0,0,.91-1.55v-8.4c0-.92-.36-1.57-1.33-1.67s-1.08-.76-1.06-1.53c0-.56,0-1.12,0-1.68V516.49c0-1,0-1.91.07-2.87q0-10.46,0-20.9c0-7.28,0-14.55,0-21.83,0-.87.07-1.5,1.09-1.79,1.22-.34,1.35-1.4,1.35-2.52,0-4.48,0-8.95,0-13.43q0-11.28,0-22.55c0-10.08,2.78-19.23,9.15-27.13a43.38,43.38,0,0,1,20-14.36c1.59-.54,3.15-1.14,4.72-1.73a11,11,0,0,1,4-.72q112.76,0,225.51,0c3,0,5.81,1.08,8.56,2.06A44.3,44.3,0,0,1,446,425.82c.76,6.86.47,13.74.22,20.59-.26,7.11-.1,14.22-.24,21.33,0,2,0,2.06,2.2,2.06q17.27,0,34.55,0C483.61,469.82,484.52,469.55,485.3,470.17Z"/>
  <polyline class="cls-12" points="168.16 994.77 168.03 995.35 168.03 995.39 167.35 998.58 167.33 998.69"/>
  <polyline class="cls-12" points="240.67 1004.41 240.87 999.9 240.87 999.89"/>
  <path class="cls-12" d="M271,992c0,.31-.1.59-.14.83l1.75-13.68c-.12,1.78.45,1.8,3.28,1.8q31.41,0,62.84,0,29.63,0,59.24,0a14.38,14.38,0,0,1,3.82.12,9.52,9.52,0,0,1-3.79.32q-28.68,0-57.35,0l-65.76,0h-.24c-2.3,0-2.27,0-2.54,2.26C271.81,986.47,271.51,989.25,271,992Z"/>
  <path class="cls-12" d="M448.89,596.55c-.06,1.18.08,2.35-1.61,2.71-1.18.26-1.44,1.46-1.29,2.55.88,6.69.38,13.41.38,20.11q.06,125.87,0,251.73c0,16.48.25,33-.11,49.43-.27,12,0,24-.3,36a38,38,0,0,1-9.35,23.84A51.12,51.12,0,0,1,423,994a27.19,27.19,0,0,1-4.41,1.88c-2.1.76-4.22,1.45-6.3,2.27a15.11,15.11,0,0,1-5.61,1q-66.36,0-132.71,0h-1.2c-2.65,0-2.6,0-3,2.73-.07.52-.14,1-.22,1.56l1.27-9.89c-.11,1.25.38,1.28,2.49,1.28h103c8.48,0,17,0,25.44,0,9.49,0,18.16-2.63,25.63-8.62a38.35,38.35,0,0,0,14.4-26.2,55.58,55.58,0,0,0,.34-6.7V599.79c0-3.32,0-3.32,3.24-3.31C446.49,596.48,447.69,596.52,448.89,596.55Z"/>
  <polyline class="cls-12" points="273.11 975.45 273.08 975.72 272.64 979.15"/>
  <polyline class="cls-12" points="270.89 992.83 270.88 992.89 270.8 993.48 270.8 993.54"/>
  <line class="cls-12" x1="269.53" y1="1003.43" x2="269.49" y2="1003.76"/>
  <g>
    <path d="M229.89,817.66H227.6q-72.46,0-144.94-.07a69.58,69.58,0,0,1-8.42-.34c-6.11-.74-12.19-5.48-12-15.11.35-23.51.1-47,.13-70.56,0-9.15.13-18.3.17-27.46a11.43,11.43,0,0,1,2.42-7.19c3.4-4.36,7.85-5.54,12.71-5.54q91.29,0,182.56.05a20.36,20.36,0,0,1,6.32,1,11.87,11.87,0,0,1,8.47,11.1q-.08,50.6,0,101.19a11.24,11.24,0,0,1-5.19,9.82,15.79,15.79,0,0,1-9.62,2.79c-1.81,0-3.61,0-5.4,0m-2.63-1.72c2.28,0,4.27,0,6.25,0,3.38.08,6.72,0,9.79-2a10,10,0,0,0,5.05-9.16q-.08-50.18,0-100.34c0-6-4.21-9.66-9.13-10.84a17.5,17.5,0,0,0-4-.37q-91.27,0-182.55,0c-4,0-7.76.82-10.74,4.28A9.21,9.21,0,0,0,64.29,703c0,.71,0,1.41,0,2.11,0,32.54.17,65.07-.11,97.6-.07,8.25,5.5,12.14,10.35,12.75a32.94,32.94,0,0,0,4.22.16q75.12,0,150.26,0"/>
    <path class="cls-1" d="M252.15,815.6c2.28,0,4.27,0,6.25,0,3.38.08,6.72,0,9.79-2a10,10,0,0,0,5.05-9.16q-.08-50.18,0-100.34c0-6-4.21-9.66-9.13-10.84a17.5,17.5,0,0,0-4-.37q-91.27,0-182.55,0c-4,0-7.76.82-10.74,4.28A9.21,9.21,0,0,0,64.29,703c0,.71,0,1.41,0,2.11,0,32.54.17,65.07-.11,97.6-.07,8.25,5.5,12.14,10.35,12.75a32.94,32.94,0,0,0,4.22.16q75.12,0,150.26,0"/>
  </g>
  <g>
    <path d="M106,763.24a34.51,34.51,0,0,0-3.13,4.11c-1.11,1.67-2.28,3.52-3.5,5.52s-2.35,4-3.39,5.83-2,3.57-2.74,5.06-1.34,2.58-1.64,3.24c-.2.46-.45.94-.72,1.45A14.26,14.26,0,0,1,90,789.9,4.73,4.73,0,0,1,88.79,791a2.72,2.72,0,0,1-1.52.46,1.82,1.82,0,0,1-1.34-.5,4,4,0,0,1-.8-1.18,4.81,4.81,0,0,1-.38-1.48c0-.54-.07-1-.07-1.41A25.81,25.81,0,0,1,85,783c.2-1.29.38-2.6.53-3.92q.46-3.66.88-7.24c.28-2.38.55-4.8.8-7.23.31-2.75.67-5.84,1.11-9.3s1-6.94,1.56-10.47,1.34-6.93,2.21-10.21a42.49,42.49,0,0,1,3.12-8.49,13.65,13.65,0,0,1,1.1-1.83,13.11,13.11,0,0,1,1.45-1.71,6.67,6.67,0,0,1,1.79-1.3,4.56,4.56,0,0,1,2.06-.49,2.89,2.89,0,0,1,2.09.76,5.42,5.42,0,0,1,1.26,1.86,9.17,9.17,0,0,1,.61,2.37,18.55,18.55,0,0,1,.15,2.17,54.8,54.8,0,0,1-2.55,16.6,103.93,103.93,0,0,1-6.36,15.62c-.61,1.22-1.25,2.41-1.91,3.58s-1.29,2.33-1.9,3.5a11.65,11.65,0,0,0-.57,2.17c-.23,1.15-.46,2.4-.69,3.77s-.43,2.68-.61,3.93-.31,2.12-.42,2.62c.46-1,1.1-2.27,1.91-3.77s1.73-3.09,2.74-4.79,2.12-3.39,3.31-5.07a50.79,50.79,0,0,1,3.66-4.57,19.32,19.32,0,0,1,3.81-3.31,6.83,6.83,0,0,1,3.69-1.26,3.3,3.3,0,0,1,2.14.68,4.94,4.94,0,0,1,1.33,1.72,8,8,0,0,1,.69,2.21,14.94,14.94,0,0,1,.19,2.24,63.81,63.81,0,0,1-.73,9.56,63.9,63.9,0,0,0-.72,9.56c0,.36,0,.74,0,1.15a3.47,3.47,0,0,0,.23,1.1,2,2,0,0,0,.6.84,1.83,1.83,0,0,0,1.19.34,5.91,5.91,0,0,0,3.39-1.29,26.17,26.17,0,0,0,3.46-3.05,41.34,41.34,0,0,0,3.12-3.66c1-1.26,1.71-2.31,2.21-3.12l.8-1.18a1.43,1.43,0,0,1,1.18-.72.93.93,0,0,1,.92.45,2.41,2.41,0,0,1,.23,1.07,1.23,1.23,0,0,1-.16.65l-.3.57a38.73,38.73,0,0,1-7.31,9.63,24.55,24.55,0,0,1-5.07,3.74,11.06,11.06,0,0,1-5.37,1.48,2.66,2.66,0,0,1-2.4-1.22,8.68,8.68,0,0,1-1.18-2.89,17.9,17.9,0,0,1-.42-3.47c0-1.19,0-2.14,0-2.85a80.85,80.85,0,0,1,.42-8.23q.42-4.11.8-8.23v-.61c0-.25,0-.62-.07-1.1s-.28-.72-.69-.72C107.73,761.64,107,762.17,106,763.24ZM99.64,727a38.81,38.81,0,0,0-2.13,5.86c-.68,2.39-1.32,5-1.9,7.89s-1.09,5.63-1.53,8.3-.78,5.05-1.06,7.16-.45,3.59-.5,4.46q1.76-3.14,3.58-7.24c1.22-2.74,2.33-5.59,3.32-8.53s1.81-5.87,2.47-8.76a35.67,35.67,0,0,0,1-7.85v-.84a7.28,7.28,0,0,0-.11-1.22,9,9,0,0,0-.27-1.06c-.1-.31-.28-.46-.53-.46C101.16,724.69,100.38,725.45,99.64,727Z"/>
    <path d="M130.53,788.49a8.09,8.09,0,0,1-2.63-2.29,9.22,9.22,0,0,1-1.48-3.27A16.27,16.27,0,0,1,126,779a24.49,24.49,0,0,1,1-6.24,32.86,32.86,0,0,1,2.82-7,21.91,21.91,0,0,1,4.38-5.75,8.1,8.1,0,0,1,5.6-2.36,3.91,3.91,0,0,1,3.16,1.3,4.86,4.86,0,0,1,1.11,3.28,9.5,9.5,0,0,1-1.19,4.24,24,24,0,0,1-3,4.51,27.4,27.4,0,0,1-3.84,3.85,12.86,12.86,0,0,1-3.81,2.3,14.83,14.83,0,0,0-.38,3.2,6.58,6.58,0,0,0,1.14,4.09,4.51,4.51,0,0,0,3.81,1.49,11.17,11.17,0,0,0,4.57-1,18,18,0,0,0,4-2.44,21.93,21.93,0,0,0,3.35-3.39,33.91,33.91,0,0,0,2.67-3.81,14.15,14.15,0,0,1,.91-1.29,1.66,1.66,0,0,1,1.37-.69,1.31,1.31,0,0,1,.73.23.69.69,0,0,1,.34.61,4,4,0,0,1-.15,1.22,5.2,5.2,0,0,1-.53,1.06,28,28,0,0,1-3.55,5,26.13,26.13,0,0,1-4.61,4.14,22.77,22.77,0,0,1-5.4,2.82,17.77,17.77,0,0,1-6,1A8,8,0,0,1,130.53,788.49Zm6.55-25.74a24.86,24.86,0,0,0-2.13,3.83,37.22,37.22,0,0,0-1.67,4.37,23.35,23.35,0,0,0-.84,3.18,21.7,21.7,0,0,0,2.66-2,20.85,20.85,0,0,0,4.73-6.06,7,7,0,0,0,.83-3.17,2.75,2.75,0,0,0-.26-1.19,1,1,0,0,0-1-.58C138.61,761.1,137.85,761.65,137.08,762.75Z"/>
    <path d="M156.55,790a11.76,11.76,0,0,1-2.55-3.54,21.69,21.69,0,0,1-1.68-4.88,50.77,50.77,0,0,1-.92-5.4c-.2-1.8-.34-3.49-.41-5.07s-.12-2.84-.12-3.81a95.61,95.61,0,0,1,1.3-15.8,64.79,64.79,0,0,1,4.49-15.2c.41-.91,1-2,1.68-3.28a28.61,28.61,0,0,1,2.47-3.69,16.34,16.34,0,0,1,3.05-3,5.54,5.54,0,0,1,3.31-1.22,3.68,3.68,0,0,1,2.25.65,4.44,4.44,0,0,1,1.37,1.68,9.2,9.2,0,0,1,.73,2.24,12.72,12.72,0,0,1,.22,2.29,40.37,40.37,0,0,1-.83,7.77,74.6,74.6,0,0,1-2.21,8.38c-.92,2.79-1.93,5.51-3,8.15a71.25,71.25,0,0,1-3.43,7.08,34.13,34.13,0,0,1-1.79,2.93q-.94,1.41-1.86,2.94l-.73,1.06a4,4,0,0,0-.57,1.15A5.5,5.5,0,0,0,157,773c0,.69,0,1.26,0,1.72,0,.76.05,1.81.15,3.16a22,22,0,0,0,.68,4,12.65,12.65,0,0,0,1.45,3.43,2.84,2.84,0,0,0,2.52,1.44,5.56,5.56,0,0,0,3-1,18.53,18.53,0,0,0,3.08-2.51,34.14,34.14,0,0,0,2.74-3.08c.84-1.07,1.51-2,2-2.67q.54-.76,1-1.56t1-1.56a3.88,3.88,0,0,1,.65-.77,1.39,1.39,0,0,1,.95-.3.87.87,0,0,1,.84.42,2,2,0,0,1,.23.95,3,3,0,0,1-.38,1.45c-.26.46-.51.89-.76,1.29q-1.16,1.83-2.86,4.27a34.13,34.13,0,0,1-3.85,4.57,25.92,25.92,0,0,1-4.49,3.62,8.82,8.82,0,0,1-4.72,1.48A5.1,5.1,0,0,1,156.55,790Zm8.57-59.91a14.19,14.19,0,0,0-1.87,3.09,31,31,0,0,0-1.37,3.58c-.38,1.22-.67,2.13-.88,2.74q-1.59,5.25-2.93,11.23a52.65,52.65,0,0,0-1.33,11.47v1.14a8.8,8.8,0,0,0,.07,1.07q1.83-3.12,3.93-7.28t3.81-8.6a82.27,82.27,0,0,0,2.85-8.88,32.53,32.53,0,0,0,1.14-8.07v-.69a4,4,0,0,0-.11-1,2.76,2.76,0,0,0-.34-.8.76.76,0,0,0-.69-.34A3,3,0,0,0,165.12,730.06Z"/>
    <path d="M179.32,790a11.76,11.76,0,0,1-2.55-3.54,22.2,22.2,0,0,1-1.68-4.88,50.72,50.72,0,0,1-.91-5.4q-.3-2.7-.42-5.07c-.08-1.57-.11-2.84-.11-3.81a96.7,96.7,0,0,1,1.29-15.8,64.34,64.34,0,0,1,4.5-15.2c.4-.91,1-2,1.67-3.28a28.69,28.69,0,0,1,2.48-3.69,16.3,16.3,0,0,1,3-3,5.56,5.56,0,0,1,3.32-1.22,3.67,3.67,0,0,1,2.24.65,4.37,4.37,0,0,1,1.38,1.68,8.78,8.78,0,0,1,.72,2.24,12.78,12.78,0,0,1,.23,2.29,39.65,39.65,0,0,1-.84,7.77,72.51,72.51,0,0,1-2.21,8.38q-1.36,4.18-3.05,8.15a71.31,71.31,0,0,1-3.42,7.08c-.56,1-1.16,2-1.79,2.93s-1.26,1.92-1.87,2.94c-.2.3-.44.66-.72,1.06a4,4,0,0,0-.57,1.15,4.92,4.92,0,0,0-.27,1.63c0,.69,0,1.26,0,1.72,0,.76,0,1.81.15,3.16a21.2,21.2,0,0,0,.69,4,12.35,12.35,0,0,0,1.45,3.43,2.83,2.83,0,0,0,2.51,1.44,5.56,5.56,0,0,0,3-1,18.59,18.59,0,0,0,3.09-2.51,35.74,35.74,0,0,0,2.74-3.08c.84-1.07,1.51-2,2-2.67q.52-.76,1-1.56a15.8,15.8,0,0,1,1-1.56,4.22,4.22,0,0,1,.64-.77,1.42,1.42,0,0,1,1-.3.86.86,0,0,1,.83.42,1.88,1.88,0,0,1,.23.95,2.88,2.88,0,0,1-.38,1.45c-.25.46-.51.89-.76,1.29q-1.14,1.83-2.86,4.27a34.05,34.05,0,0,1-3.84,4.57,26,26,0,0,1-4.5,3.62,8.79,8.79,0,0,1-4.72,1.48A5.12,5.12,0,0,1,179.32,790Zm8.57-59.91a15,15,0,0,0-1.87,3.09,31,31,0,0,0-1.37,3.58c-.38,1.22-.67,2.13-.87,2.74q-1.6,5.25-2.94,11.23a53.27,53.27,0,0,0-1.33,11.47v1.14a9,9,0,0,0,.08,1.07c1.22-2.08,2.52-4.51,3.92-7.28a91.43,91.43,0,0,0,3.81-8.6,84.64,84.64,0,0,0,2.86-8.88,32.53,32.53,0,0,0,1.14-8.07v-.69a4,4,0,0,0-.12-1,2.51,2.51,0,0,0-.34-.8.76.76,0,0,0-.68-.34A3,3,0,0,0,187.89,730.06Z"/>
    <path d="M198.14,773.29a25.68,25.68,0,0,1,2.78-6.55,19.1,19.1,0,0,1,4.45-5.14,9.42,9.42,0,0,1,6.06-2.1,5.82,5.82,0,0,1,3.5,1A7,7,0,0,1,217.1,763a11.63,11.63,0,0,1,1.15,3.35,19.26,19.26,0,0,1,.34,3.58,28.18,28.18,0,0,1-.46,5.06,23.59,23.59,0,0,1-1.44,4.92,21.75,21.75,0,0,1-2.52,4.42,14.32,14.32,0,0,1-6.55,4.91,8.87,8.87,0,0,1-3.12.57,6.1,6.1,0,0,1-3.47-1,7.36,7.36,0,0,1-2.25-2.4,11.14,11.14,0,0,1-1.22-3.28,17.41,17.41,0,0,1-.38-3.5A24.43,24.43,0,0,1,198.14,773.29Zm9.52-7a15.35,15.35,0,0,0-2.74,4.19,25.19,25.19,0,0,0-1.68,5,20.85,20.85,0,0,0-.57,4.34,15.16,15.16,0,0,0,.15,2,7.08,7.08,0,0,0,.57,2,4.54,4.54,0,0,0,1.18,1.56,2.87,2.87,0,0,0,1.91.65,4.22,4.22,0,0,0,1.86-.42,8.22,8.22,0,0,0,1.64-1,11.4,11.4,0,0,0,2.48-2.7,16.39,16.39,0,0,0,1.67-3.32,19.28,19.28,0,0,0,1-3.62,21.65,21.65,0,0,0,.31-3.61,18,18,0,0,0-.15-2.14,8,8,0,0,0-.61-2.24,5.54,5.54,0,0,0-1.22-1.76,2.77,2.77,0,0,0-2-.72A5,5,0,0,0,207.66,766.28Z"/>
    <path d="M231.84,787.53a2.82,2.82,0,0,1-.91-2.2,6.35,6.35,0,0,1,.57-2.59,2.09,2.09,0,0,1,2.1-1.3,3.34,3.34,0,0,1,2.24.88,2.71,2.71,0,0,1,1,2.17,6.92,6.92,0,0,1-.49,2.7c-.33.79-1.11,1.18-2.33,1.18A3.16,3.16,0,0,1,231.84,787.53Zm12.34-57.24a5.52,5.52,0,0,1,.77,3.16,12.19,12.19,0,0,1-.23,2.36c-.16.76-.31,1.53-.46,2.29q-1.14,5.1-2.25,10.13t-2.17,10.13c-.41,2-.81,4-1.22,5.94s-.81,4-1.22,5.94a6.61,6.61,0,0,1-.57,2,1.71,1.71,0,0,1-1.71.87.92.92,0,0,1-1-.87,8.91,8.91,0,0,1-.15-1.41,4.27,4.27,0,0,1,0-.54,2.79,2.79,0,0,0,0-.53c.1-1.32.19-2.63.27-3.92s.16-2.6.27-3.93q.3-4.33.53-8.57t.61-8.57c.1-1.52.21-3.24.34-5.17a37.48,37.48,0,0,1,.65-5.11c.15-.66.32-1.3.49-1.94a5.51,5.51,0,0,1,.77-1.68,4,4,0,0,1,1.29-1.18,3.89,3.89,0,0,1,1.94-.45C242.69,729.19,243.68,729.55,244.18,730.29Z"/>
  </g>
</svg>
