<svg id="Livello_1" data-name="Livello 1" xmlns="http://www.w3.org/2000/svg" width="1920" height="1080" viewBox="0 0 1920 1080">
  <defs>
    <style>
      .cls-1 {
        fill: #fff;
      }

      .cls-2 {
        fill: #020305;
      }

      .cls-3 {
        fill: #abb5bb;
      }

      .cls-4 {
        fill: #acb6bc;
      }

      .cls-5 {
        fill: #feb400;
      }

      .cls-6 {
        fill: #08080a;
      }

      .cls-7 {
        fill: #f7443c;
      }

      .cls-8 {
        fill: #f5443c;
      }

      .cls-9 {
        fill: #0e0907;
      }

      .cls-10 {
        fill: #fe6301;
      }

      .cls-11 {
        fill: #fdfdfc;
      }

      .cls-12 {
        fill: #fefefe;
      }

      .cls-13 {
        fill: #fdfdfd;
      }

      .cls-14 {
        fill: #eda77b;
      }

      .cls-15 {
        fill: #fde8aa;
      }

      .cls-16 {
        fill: #eaa579;
      }
    </style>
  </defs>
  <title>registeripadpro</title>
  <polygon class="cls-1" points="270 970 239 966 242 942 274 941 270 970"/>
  <polygon class="cls-1" points="207 958 178.72 942.98 185.2 925.11 213 939 207 958"/>
  <g>
    <path class="cls-2" d="M188.64,1077.42l-33.71-20.57c-1.7-1-3.42-2-5.12-3.1s-1.83-1.18-.44-2.84a56.7,56.7,0,0,0,7.3-12.05c2-4.1,2.51-8.55,3.51-12.89,2.31-10,4.53-20.07,6.78-30.11.07-.31.08-.63.12-1,.62-1,.42-2.17.82-3.22a1.78,1.78,0,0,0-1-2.51,25.54,25.54,0,0,1-4.9-3.43A38.85,38.85,0,0,1,147.86,955q0-262.26,0-524.51a36.77,36.77,0,0,1,.41-5.74c2.11-13.6,9.2-23.62,21.51-29.85,6.12-3.1,12.72-4.12,19.51-4.12H397.78c2.32,0,4.64,0,7,.23,12.95,1.15,23.06,7.09,30.14,18A38.81,38.81,0,0,1,441,430.32c.06,12.32,0,24.63,0,36.95,0,.56,0,1.12,0,1.68-.05.94.38,1.25,1.29,1.24,1.68,0,3.35.08,5,.08h34.55c.8,0,1.6-.06,2.39-.1a18.45,18.45,0,0,1,5.15,1A12.42,12.42,0,0,1,498,483c.12,16.14.16,32.28.21,48.42q.06,23.73.08,47.47a28.1,28.1,0,0,1-.53,7.14,13.32,13.32,0,0,1-11.53,10,57.57,57.57,0,0,1-6.69.37q-14.86,0-29.73,0c-.64,0-1.28,0-1.91.07-1.2,0-2.4-.07-3.6-.07-3.24,0-3.24,0-3.24,3.31v353.5a55.58,55.58,0,0,1-.34,6.7,38.35,38.35,0,0,1-14.4,26.2c-7.47,6-16.14,8.58-25.63,8.62-8.48,0-17,0-25.44,0H272.29c-2.77,0-2.74-.06-2.26-2.82s.78-5.53,1.11-8.31c.27-2.25.24-2.25,2.54-2.26h.24l65.76,0q28.67,0,57.35,0a9.52,9.52,0,0,0,3.79-.32,21.48,21.48,0,0,0,5-.59c10.56-2.26,17.5-8.46,20.37-19a50,50,0,0,0,1.35-13.08q0-174.55,0-349.1a9.61,9.61,0,0,1,0-1.2c.15-1.2-.26-1.82-1.57-1.65a11.52,11.52,0,0,1-1.44,0H338.64c-1.76,0-3.52,0-5.28,0a2.51,2.51,0,0,0-1.61.31c-1.63,1.26-3.44,2.27-4.76,3.92a42.5,42.5,0,0,1-3,3.4c-9.09,9-18.34,17.85-29.24,24.73-.9.56-1.92,1.91-2.88,1-.81-.78.18-2.06.66-3q2.92-5.91,5.9-11.78a113.43,113.43,0,0,0,6.93-16.81c.66-2.05.65-2.07-1.59-2.11-1.92,0-3.84,0-5.75-.1-7.5-.53-12.48-5.86-12.54-13.32,0-.8,0-1.6,0-2.4-.05-3.91.27-7.83-.06-11.74l0-.84a5.94,5.94,0,0,0,.14-2.14q0-35.12,0-70.24c0-.71-.09-1.42-.14-2.14l0-.84c0-.86.09-1.72.11-2.59.07-3.46-.17-6.92.19-10.38a15,15,0,0,1,4.91-6.7,21.57,21.57,0,0,1,10.82-2.49c12.32.06,24.64,0,36.95,0h86.87c2.23,0,2.29.3,2.28-2.14,0-9.2,0-18.4-.13-27.59a87.35,87.35,0,0,0-.64-12.2c-1.73-11.09-8.7-18.79-19.57-21.37a73.65,73.65,0,0,0-12.1-1.64,195.18,195.18,0,0,0-22.3.21c-2.65.12-4,1.65-4.2,4.3-.1,1.19-.22,2.39-.4,3.57-1,6.92-5.05,11-11.87,12.31a58.87,58.87,0,0,1-11,.55q-49.43.06-98.85,0c-3.76,0-7.53,0-11.28-.14-7.84-.37-12.38-4.24-14.11-11.88-.3-1.32-.46-2.68-.65-4-.48-3.45-1.81-4.7-5.33-4.86-2.31-.11-4.63-.15-6.95-.18-8.32-.11-16.64-.09-24.87,1.3a25,25,0,0,0-20.6,19.85,72.24,72.24,0,0,0-1.3,15q0,128.37,0,256.74c0,.88,0,1.76.08,2.63,0,.64-.12,1.27-.12,1.9q0,24.27,0,48.54c0,.63.08,1.27.12,1.9s-.08,1.44-.08,2.15V878.28c0,.8,0,1.6.08,2.4a9.15,9.15,0,0,1-1.23,2.74,8,8,0,0,0-1.2,3.49c-3.36,4-3.88,7.83-1.75,12.08a14.34,14.34,0,0,0,4.15,4.51q0,19.29-.07,38.57c0,4.32.06,8.63.4,12.93a32.38,32.38,0,0,0,2.43,10.44,25,25,0,0,0,7.38,9.82,3.51,3.51,0,0,0,.73-1.65q1.69-6.72,3.4-13.45a238.4,238.4,0,0,1,18.36-50,14.69,14.69,0,0,0,1.62-3.45,44.15,44.15,0,0,0,6.55-14.87c.64-2.54-.05-2.15,2.7-2.23,2.14.84,4.3,1.66,6.43,2.53,5.43,2.21,10.95,4.23,16.27,6.71.42,1.18-.29,2.21-.43,3.31l-.71.52c-.55,0-1.11-.13-1.66-.12a119.25,119.25,0,0,0-25.69,3.67,4.16,4.16,0,0,0-3,2.42c-3.11,6.1-6,12.29-8.57,18.64a4,4,0,0,0-.58,2,43,43,0,0,0-2.72,6.93c-.64,1.79-1.33,3.57-1.92,5.37-4.18,12.82-7.34,25.91-10.5,39-1.42,5.88-3,11.73-4.08,17.69-2,7.32-3.36,14.76-5.1,22.12-1.35,5.65-2.09,11.45-4,17-1.83,3.63-3.4,7.4-5.76,10.74-.59.84-.27,1.3.39,1.76a26.92,26.92,0,0,0,6.43,3.66c2.27,1.48,4.52,3,6.81,4.44q8.88,5.65,17.79,11.27a11.85,11.85,0,0,0,10.24,4.14c2.54-.14,5.1-.14,7.65-.22,3.27-.11,6.54.35,9.81,0a4.26,4.26,0,0,1,3.33,1c.29,2.81,0,3.21-2.87,3.21-4.28,0-8.56,0-12.85,0a35.14,35.14,0,0,0-9.14.92h-1C189.74,1077.63,189.17,1077.55,188.64,1077.42ZM308.22,594.5c-2.57,11.43-8,21.37-12.84,31.58.68.21.95-.15,1.26-.34a79.24,79.24,0,0,0,6.85-5.26A127.79,127.79,0,0,0,317.75,608c3.34-3.56,6.41-7.35,9.47-11.15a6.07,6.07,0,0,1,5.38-2.51c2.16.11,4.32.08,6.48.08h143c.72,0,1.44,0,2.16,0,7.26-.31,12-5.2,12.09-12.49,0-3.19-.05-6.39-.05-9.59q0-26.88,0-53.75c0-11.83-.14-23.67.08-35.51.09-4.83-3.94-9.88-9-11a23.27,23.27,0,0,0-5-.45H300.92c-.64,0-1.28,0-1.92,0-7.26.25-11.87,5-11.88,12.25,0,3.36,0,6.72,0,10.08v88.78c0,5.61,2.89,9.51,8.15,11a21.05,21.05,0,0,0,6.18.66C303.63,594.47,305.78,594.5,308.22,594.5Zm-13.7-180.92h6.72c2.88,0,5.76,0,8.63,0,1.49,0,2.06-.58,2.14-1.73a2.1,2.1,0,0,0-1.68-2.3,7.62,7.62,0,0,0-2.38-.18q-13.79,0-27.58,0a10.11,10.11,0,0,0-1.91.09,1.86,1.86,0,0,0-1.64,2,1.82,1.82,0,0,0,1.64,2,14,14,0,0,0,2.15.09ZM326.43,416c3,0,5.6-2,5.69-4.38.11-3.15-2.06-5.64-4.93-5.64s-5.43,2.22-5.45,4.68A5,5,0,0,0,326.43,416Z"/>
    <path class="cls-3" d="M190.56,1078.4a35.14,35.14,0,0,1,9.14-.92c-1.33.88-3,0-4.34.92Z"/>
    <path class="cls-3" d="M188.64,1077.42c.53.13,1.1.21,1,1h-.48Z"/>
    <path class="cls-4" d="M400.82,981.05a9.52,9.52,0,0,1-3.79.32q-28.68,0-57.35,0l-65.76,0h-.24c-2.3,0-2.27,0-2.54,2.26-.33,2.78-.63,5.56-1.11,8.31s-.51,2.82,2.26,2.82h103c8.48,0,17,0,25.44,0,9.49,0,18.16-2.63,25.63-8.62a38.35,38.35,0,0,0,14.4-26.2,55.58,55.58,0,0,0,.34-6.7V599.79c0-3.32,0-3.32,3.24-3.31,1.2,0,2.4,0,3.6.07-.06,1.18.08,2.35-1.61,2.71-1.18.26-1.44,1.46-1.29,2.55.88,6.69.38,13.41.38,20.11q.06,125.87,0,251.73c0,16.48.25,33-.11,49.43-.27,12,0,24-.3,36a38,38,0,0,1-9.35,23.84A51.12,51.12,0,0,1,422,994a27.19,27.19,0,0,1-4.41,1.88c-2.1.76-4.22,1.45-6.3,2.27a15.11,15.11,0,0,1-5.61,1q-66.36,0-132.71,0h-1.2c-2.65,0-2.6,0-3,2.73-.56,4.11-1.2,8.2-1.78,12.3-.12.87-.08,1.76-.12,2.64a19.23,19.23,0,0,1-3.79.26c-5.78,0-11.56,0-17.35,0a6.15,6.15,0,0,0-3.25.39l-3-.28c0-3.75,0-7.5.1-11.25,0-1.75.2-3.5.33-5.24.08-1.09-.35-1.66-1.51-1.57-.55,0-1.11,0-1.67,0H200.13c-3.37,0-2.81-.23-3.9,2.91a6.5,6.5,0,0,0-.47,2.33,3.35,3.35,0,0,1-2.19-.49,3.37,3.37,0,0,0-2.45-.23l-23.32-5.31c1.09-6,2.66-11.81,4.08-17.69,3.16-13.09,6.32-26.18,10.5-39,.59-1.8,1.28-3.58,1.92-5.37a3.48,3.48,0,0,0,2,2.49c7.62,4.61,15.64,7.93,24.77,7.65,2.13-.06,2.15,0,1.58,1.88-1.56,5.2-3.15,10.39-4.72,15.58S204.92,974,203.44,979c-.55,1.86-.48,1.92,1.34,1.93q16.91,0,33.82,0c1.92,0,2.28-.26,2.27-2.2,0-3.52.56-7,.6-10.52,0-3.27.58-6.5.93-9.75.1-1,.57-1.22,1.44-.85.52.21,1,.39,1.57.59A40.32,40.32,0,0,0,258,960.75a54,54,0,0,0,14-1.58c1.53-.33,1.6-.27,1.64,1.32a11.81,11.81,0,0,1,0,1.19c-.32,5.18-1,10.31-1.74,15.43-.51,3.8-.61,3.84,3,3.84q31.41,0,62.84,0,29.63,0,59.24,0A14.38,14.38,0,0,1,400.82,981.05ZM198.6,994.82h39.45c2,0,2,0,2-1.91.12-3.11.29-6.22.42-9.33.08-2.09.07-2.11-2-2.11l-30.93,0c-1.28,0-2.55,0-3.83,0a1.19,1.19,0,0,0-1.4.94C201.18,986.41,199.94,990.44,198.6,994.82Z"/>
    <path class="cls-3" d="M484.3,470.17c-.79,0-1.59.1-2.39.1H447.36c-1.68,0-3.35-.1-5-.08-.91,0-1.34-.3-1.29-1.24,0-.56,0-1.12,0-1.68,0-12.32,0-24.63,0-36.95A38.81,38.81,0,0,0,434.87,409c-7.08-10.9-17.19-16.84-30.14-18-2.31-.2-4.63-.23-7-.23H189.27c-6.79,0-13.39,1-19.51,4.12-12.31,6.23-19.4,16.25-21.51,29.85a36.77,36.77,0,0,0-.41,5.74q0,262.24,0,524.51A38.85,38.85,0,0,0,162,985.75a25.54,25.54,0,0,0,4.9,3.43,1.78,1.78,0,0,1,1,2.51c-.4,1-.2,2.24-.82,3.22a2.08,2.08,0,0,0-1.26-1.6,43.56,43.56,0,0,1-18.54-20.68,40.2,40.2,0,0,1-3.7-16.23c-.09-21.59,0-43.18,0-64.77q0-94,0-188.08V618.63c0-1,0-1.92,0-2.88,0-.7-.29-1.38-1-1.45-1.56-.15-1.41-1.2-1.41-2.26q0-7.44,0-14.87,0-12.6,0-25.19c0-1.23-.13-2.38,1.49-2.75a1.44,1.44,0,0,0,.91-1.55v-8.4c0-.92-.36-1.57-1.33-1.67s-1.08-.76-1.06-1.53c0-.56,0-1.12,0-1.68V516.49c0-1,0-1.91.07-2.87,2.15-.81,2.36-1,2.37-3.25q0-7.5,0-15c0-2.26-.09-2.3-2.4-2.63,0-7.28,0-14.55,0-21.83,0-.87.07-1.5,1.09-1.79,1.22-.34,1.35-1.4,1.35-2.52,0-4.48,0-8.95,0-13.43q0-11.28,0-22.55c0-10.08,2.78-19.23,9.15-27.13a43.38,43.38,0,0,1,20-14.36c1.59-.54,3.15-1.14,4.72-1.73a11,11,0,0,1,4-.72q112.76,0,225.51,0c3,0,5.81,1.08,8.56,2.06A44.3,44.3,0,0,1,445,425.82c.76,6.86.47,13.74.22,20.59-.26,7.11-.1,14.22-.24,21.33,0,2,0,2.06,2.2,2.06q17.27,0,34.55,0C482.61,469.82,483.52,469.55,484.3,470.17Z"/>
    <path class="cls-5" d="M167.8,998.35l23.32,5.31c-.05,1.51.14,3.12-1.7,3.84a4.17,4.17,0,0,0-.44-.19c-1.4-.46-2.42-.08-2.66,1s.51,1.89,2,2c.63.05,1.08.15,1.35.73a25.63,25.63,0,0,0-2,6.86c-.85.66-1.65,0-2.47-.1a1.59,1.59,0,0,0-1.73,1.29c-.26.83.2,1.35.9,1.68s1.32.51,2,.76c-.67,2.33-1.61,4.6-1.59,7.08a1.65,1.65,0,0,1-1.95.3,2,2,0,0,0-1.1-.31,1.6,1.6,0,0,0-1.57,1.5,1.53,1.53,0,0,0,1.47,1.78c.93.05,1.74.09,2,1.19a15.5,15.5,0,0,0-1.86,6.78c-.91.49-1.65-.22-2.47-.33a1.71,1.71,0,0,0-1.81.82,1.38,1.38,0,0,0,0,1.74,1.74,1.74,0,0,0,1.82.81c.53-.11,1-.32,1.55-.48a15,15,0,0,0,1,4.37,4,4,0,0,0,3.13,2.9,49.33,49.33,0,0,0,7.64,7.58,32.09,32.09,0,0,1,4.66,4.44,22.22,22.22,0,0,0,3.28,3.15A10.31,10.31,0,0,0,207,1067c.24.48.29.9-.28,1.2a4.39,4.39,0,0,1-3,.45c-3.83-.71-7.65-1.52-11.5-2-2.95-.37-6-.31-7.84,2.69q-8.89-5.62-17.79-11.27c-2.29-1.45-4.54-3-6.81-4.44a8.41,8.41,0,0,1,.29-1.15c1.81-4.53,1.87-8.94-.81-13.2a7,7,0,0,1-.54-1.81c1.88-5.53,2.62-11.33,4-17C164.44,1013.11,165.85,1005.67,167.8,998.35Z"/>
    <path class="cls-5" d="M239.51,1017.2l3,.28c.77.59,1.68.35,2.52.36,4.2,0,8.39,0,12.58,0a17.15,17.15,0,0,1,1.9.08c.58.07.75.49.65,1-.3,0-.59,0-.89.06a1.75,1.75,0,0,0-1.92,1.64c-.12,1,.63,1.73,1.9,1.9a4.9,4.9,0,0,0,.93-.06l.53.21h0c0,2.41-.07,4.83-.1,7.24a4.64,4.64,0,0,1-1.62,0c-1.33,0-2,.55-2.06,1.68s.46,1.59,1.74,1.72c.79.08,1.57.06,2.12.76l-.09,6.64a3.93,3.93,0,0,1-2.5.4,1.72,1.72,0,0,0-.32,3.41c.82.22,1.75.16,2.37.89,0,2.13.69,4.23.41,6.38-.8.85-1.92.61-2.9.84a1.73,1.73,0,0,0-.32,3.25,1.62,1.62,0,0,0,2-.34c.44-.45.83-.94,1.24-1.42,1,2.42,2.16,4.51,5.3,4.09,4.93,2.7,10.34,3.93,15.71,5.35,4.68,1.25,9.51,1.75,14.16,3.07a4.1,4.1,0,0,1-3.24,1.19c-.87,0-1.75,0-2.62,0a43.27,43.27,0,0,0-9.89,1,7,7,0,0,0-5.58,4.3l-30.52,0c0-.56-.06-1.11-.08-1.67-.12-4.86-1.78-8.86-6.27-11.29l.09-27.75c0-4,.06-8,0-12C237.7,1019,238,1017.76,239.51,1017.2Z"/>
    <path class="cls-6" d="M243.91,1073.14l30.53,0a3.79,3.79,0,0,0,.9.25l31.24-.06a2,2,0,0,1,.1.47c0,3.62,0,3.62-3.58,3.62l-64.38,0h-.48c-3.33,0-3.59-.36-3.07-3.86C238.08,1073.37,241,1073.72,243.91,1073.14Z"/>
    <path class="cls-7" d="M184.39,1069.32c1.88-3,4.89-3.06,7.84-2.69,3.85.48,7.67,1.29,11.5,2a4.39,4.39,0,0,0,3-.45c.57-.3.52-.72.28-1.2,1.35.09,2.71.1,4.05.3,2.58.37,3.75,1.6,4.17,4.15a10.17,10.17,0,0,1,.19,2.86,4.26,4.26,0,0,0-3.33-1c-3.27.34-6.54-.12-9.81,0-2.55.08-5.11.08-7.65.22A11.85,11.85,0,0,1,184.39,1069.32Z"/>
    <path class="cls-8" d="M306.58,1073.35l-31.24.06a3.79,3.79,0,0,1-.9-.25c1-2.55,3.06-3.78,5.57-4.3a43.27,43.27,0,0,1,9.89-1c.87,0,1.75,0,2.62,0a4.1,4.1,0,0,0,3.24-1.19,13.36,13.36,0,0,1,3.34.16,7.94,7.94,0,0,1,6.52,4.62Z"/>
    <path class="cls-9" d="M183.6,1033.05c-.23-1.1-1-1.14-2-1.19a1.53,1.53,0,0,1-1.47-1.78,1.6,1.6,0,0,1,1.57-1.5,2,2,0,0,1,1.1.31,1.65,1.65,0,0,0,1.95-.3,11.42,11.42,0,0,0,4.15-1c1.34-.57,1.57-1.19.73-2.4a10.88,10.88,0,0,0-3.29-3.69c-.65-.25-1.33-.47-2-.76s-1.16-.85-.9-1.68a1.59,1.59,0,0,1,1.73-1.29c.82.06,1.62.76,2.47.1a17,17,0,0,0,6.44-2.33,60.18,60.18,0,0,0-4.49-4.53c-.27-.58-.72-.68-1.35-.73-1.47-.12-2.22-1-2-2s1.26-1.43,2.66-1a4.17,4.17,0,0,1,.44.19c.11.65.27,1.39,1.09,1.28,2.35-.34,4.47.77,6.73,1,.74,1.1.74,1.1-.9,1.46a12.86,12.86,0,0,0-4.85-1c1.12,1.67,2,3.29,3.85,3.93.83,2,.83,2-1.34,3.79-2.29-.12-4.18,1-6.26,1.8a10.91,10.91,0,0,0,4.45,5.34c.92,2.12.9,2.16-1.28,3.62-1.61.45-3.23.84-4.82,1.36-1.44.47-1.61,1-.66,2.27,1.27,1.62,2.64,3.16,4,4.74.59.47.69,1,0,1.45-.49.35-1.12.5-1.46,1a41.13,41.13,0,0,0-7.16,2.82c-.51.16-1,.37-1.55.48a1.74,1.74,0,0,1-1.82-.81,1.38,1.38,0,0,1,0-1.74,1.71,1.71,0,0,1,1.81-.82c.82.11,1.56.82,2.47.33a14.3,14.3,0,0,0,4.13-1.13c1.62-.8,1.84-1.85.68-3.26A8.79,8.79,0,0,0,183.6,1033.05Z"/>
    <path class="cls-9" d="M260.13,1022.5a4.9,4.9,0,0,1-.93.06c-1.27-.17-2-.89-1.9-1.9a1.75,1.75,0,0,1,1.92-1.64c.3,0,.59,0,.89-.06v-.06c-.17.45.19.39.43.44a6.41,6.41,0,0,0,3.8.79,40.92,40.92,0,0,1,4.43,0c1.06.89.19,1.26-.45,1.7-1.82-.18-3.63-.69-5.77-.2,1.92,1.65,3.5,3.22,5.64,4a2.43,2.43,0,0,1-.53,2.78c-2.59.44-4.51,2.12-6.76,3.55,2.11,2.16,4.52,3.67,6.6,5.58.71.9-.31,1.32-.55,2a21.46,21.46,0,0,0-6.88,3.89c2.28,1.59,3.77,3.7,6.31,4.35.72,1.06.89,2.08-.19,3a12.68,12.68,0,0,0-5.61,3.41c-.41.48-.8,1-1.24,1.42a1.75,1.75,0,0,1-3-1.39,1.64,1.64,0,0,1,1.32-1.52c1-.23,2.1,0,2.9-.84a10.53,10.53,0,0,0,2.95-1.4c1.05-.69,1.12-1.16.28-2.07a15.54,15.54,0,0,0-3.64-2.91c-.62-.73-1.55-.67-2.37-.89a1.72,1.72,0,0,1,.32-3.41,3.93,3.93,0,0,0,2.5-.4,10.76,10.76,0,0,0,3.48-1.39c1.45-1,1.52-1.92.16-3a16.44,16.44,0,0,0-3.55-2.26c-.55-.7-1.33-.68-2.12-.76-1.28-.13-1.79-.7-1.74-1.72s.73-1.7,2.06-1.68a4.64,4.64,0,0,0,1.62,0c1.9-.42,3.4-1.65,5.06-2.55.34-.19.69-.67.32-1-1.64-1.4-2.78-3.53-5.28-3.71h0C260.62,1022.3,260.41,1022.33,260.13,1022.5Z"/>
    <path class="cls-10" d="M243.91,1073.14c-2.89.58-5.83.23-8.74.4a48.62,48.62,0,0,1,2.39-13.36c4.49,2.43,6.15,6.43,6.27,11.29C243.85,1072,243.88,1072.58,243.91,1073.14Z"/>
    <path class="cls-11" d="M141.15,492.72c2.31.33,2.39.37,2.4,2.63q0,7.51,0,15c0,2.2-.22,2.44-2.37,3.25Q141.18,503.17,141.15,492.72Z"/>
    <path class="cls-8" d="M180.81,1042.39a41.13,41.13,0,0,1,7.16-2.82,45.39,45.39,0,0,1-3,10.09,4,4,0,0,1-3.13-2.9A15,15,0,0,1,180.81,1042.39Z"/>
    <path class="cls-8" d="M268.78,1020.1a40.92,40.92,0,0,0-4.43,0,6.41,6.41,0,0,1-3.8-.79c0-.26-.14-.45-.43-.44v.06c.1-.54-.07-1-.65-1a17.15,17.15,0,0,0-1.9-.08c-4.19,0-8.38,0-12.58,0-.84,0-1.75.23-2.52-.36a6.15,6.15,0,0,1,3.25-.39c5.79,0,11.57,0,17.35,0a19.23,19.23,0,0,0,3.79-.26C268.29,1017.44,269.21,1018.38,268.78,1020.1Z"/>
    <path class="cls-8" d="M197.24,1009.77c-2.26-.22-4.38-1.33-6.73-1-.82.11-1-.63-1.09-1.28,1.84-.72,1.65-2.33,1.7-3.84a3.37,3.37,0,0,1,2.45.23,3.35,3.35,0,0,0,2.19.49c2.13.79,2.34,1.08,1.78,3A6.67,6.67,0,0,0,197.24,1009.77Z"/>
    <path class="cls-8" d="M267.51,1037.51c-2.08-1.91-4.49-3.42-6.6-5.58,2.25-1.43,4.17-3.11,6.76-3.55A46.43,46.43,0,0,1,267.51,1037.51Z"/>
    <path class="cls-8" d="M266.39,1047.71c-2.54-.65-4-2.76-6.31-4.35a21.46,21.46,0,0,1,6.88-3.89C267.64,1042.28,266.79,1045,266.39,1047.71Z"/>
    <path class="cls-8" d="M260.59,1054.15a12.68,12.68,0,0,1,5.61-3.41c.25,2.51-.35,5-.31,7.5C262.75,1058.66,261.54,1056.57,260.59,1054.15Z"/>
    <path class="cls-8" d="M189.4,1037.07c-1.33-1.58-2.7-3.12-4-4.74-1-1.22-.78-1.8.66-2.27,1.59-.52,3.21-.91,4.82-1.36,0,1.92-.75,3.7-1.08,5.56A14.8,14.8,0,0,0,189.4,1037.07Z"/>
    <path class="cls-8" d="M192.19,1025.08a10.91,10.91,0,0,1-4.45-5.34c2.08-.77,4-1.92,6.26-1.8C194.1,1020.5,192.9,1022.73,192.19,1025.08Z"/>
    <path class="cls-8" d="M268.2,1025.6c-2.14-.78-3.72-2.35-5.64-4,2.14-.49,3.95,0,5.77.2C268.29,1023.06,268.25,1024.33,268.2,1025.6Z"/>
    <path class="cls-8" d="M195.34,1014.15c-1.88-.64-2.73-2.26-3.85-3.93a12.86,12.86,0,0,1,4.85,1C196,1012.2,195.67,1013.18,195.34,1014.15Z"/>
    <path class="cls-12" d="M400.82,981.05a14.38,14.38,0,0,0-3.82-.12q-29.62,0-59.24,0-31.42,0-62.84,0c-3.65,0-3.55,0-3-3.84.71-5.12,1.42-10.25,1.74-15.43a11.81,11.81,0,0,0,0-1.19c0-1.59-.11-1.65-1.64-1.32a54,54,0,0,1-14,1.58,40.32,40.32,0,0,1-12.61-2.49c-.52-.2-1-.38-1.57-.59-.87-.37-1.34-.16-1.44.85-.35,3.25-.9,6.48-.93,9.75,0,3.52-.62,7-.6,10.52,0,1.94-.35,2.2-2.27,2.2q-16.92,0-33.82,0c-1.82,0-1.89-.07-1.34-1.93,1.48-5,3-10.09,4.54-15.13s3.16-10.38,4.72-15.58c.57-1.89.55-1.94-1.58-1.88-9.13.28-17.15-3-24.77-7.65a3.48,3.48,0,0,1-2-2.49,43,43,0,0,1,2.72-6.93,1.58,1.58,0,0,0,.88,1.07c1.82,1.16,3.6,2.39,5.47,3.44a45.52,45.52,0,0,0,18.38,5.65c3.32.29,3.4.4,4.5-2.72l.24-.68c2.88-8.37,5.08-17,8-25.31a29,29,0,0,0,2-8.09l.71-.52c.87,0,1.74.08,2.62.07,1.41,0,2.87.1,4-1a5,5,0,0,1,2.31.47q8.39,2.68,16.75,5.41c-.94,2.78-1.93,5.54-2.8,8.35-.56,1.8-1.45,3.53-1.59,5.46a6.59,6.59,0,0,0-.86,2.44c-1.61,5.76-2.33,11.7-3.37,17.58a42.44,42.44,0,0,0-.57,6.65,2.17,2.17,0,0,0,1.69,2.46,46.74,46.74,0,0,0,13.81,2.54,57.12,57.12,0,0,0,13-1.43c2.2-.49,2.88-1.05,3.2-3.21.41-2.76.68-5.53,1-8.29.62-4.66,1-9.33,1.75-14a37,37,0,0,0,.67-9.51l.82-1.13a16.52,16.52,0,0,0,6.43,2.95c-.08,4.22-1.86,8.22-2,12.74a2.86,2.86,0,0,0,1-2c.93-4.44,1.57-8.93,2.8-13.31,4.2.3,8.41.36,12.61.49,6.2.2,12.4.78,18.62.64a19.4,19.4,0,0,1,5.21.48,116.48,116.48,0,0,0,.93,14.33,15.7,15.7,0,0,0,.13-2.37,111,111,0,0,0-.42-12.63c-.15-1.4-.11-2.72,1.92-3-1.95-1-1.95-1-2-2.94,0-1.6,0-3.19,0-4.78a4.9,4.9,0,0,1,.53-2.53l0,0a.73.73,0,0,0,.52-.67.64.64,0,0,1,.27-.27.74.74,0,0,0,.67-.52l0,0c1.79-1.29,2.35-3.25,2.83-5.25a23.6,23.6,0,0,0,2.49-11.71c-.11-5.68-2.78-10-7-13.46-2.85-2.35-6.27-3.36-9.78-4.16,0-1.2-.05-2.4,0-3.59a3.78,3.78,0,0,1,2-3.55c1.56-.85,2.17-2.44,2.6-4.13.62-2.42.49-5,2-7.27a3.66,3.66,0,0,0,.1-2.58,8.8,8.8,0,0,1-.35-1.63,2.14,2.14,0,0,0-2.07-2.43c-.92-.16-1.23-.51-1.1-1.6a6.49,6.49,0,0,0-2.88-6.27c2.31,3.15,2.78,6.12,1.38,9.17.46.25.67.16.86,0a1.81,1.81,0,0,1,2.4-.26,1.87,1.87,0,0,1,.7,2.33,1.51,1.51,0,0,0,.18,1.28c.86,1.8-.25,3.4-2.14,3.11a2.12,2.12,0,0,0-2.4.83.59.59,0,0,0,.76.15,1.69,1.69,0,0,1,2.35.39c.76,1,.19,1.78-.19,2.66-.47,1.11-1.76,1.17-2.59,1.84.6.67,1.18.39,1.71.42a2.28,2.28,0,0,0,.22.22,3.2,3.2,0,0,1-2.27,3.11c-.54-.71-.05-1.56-.59-2.32-1.05,3.25-.91,6.54-1.6,9.69-3.7.07-7.36-.88-11.07-.48a7,7,0,0,1-.38-2.89c1.59,0,3.1.65,4.73.47a6.32,6.32,0,0,0,5.52-4.08c-3.13,3.16-6.42,4.37-10.3,2.15-.13-.87-.3-1.73-.39-2.61-.63-6.42-1.28-12.83-1.87-19.26-.58-6.27-1.09-12.56-1.63-18.84a5.28,5.28,0,0,1,.29-2.57A52.93,52.93,0,0,0,303,796.39a12.21,12.21,0,0,1,.55-3.75A75,75,0,0,0,306.35,776a76,76,0,0,0-.57-11c2.69,0,5.39.09,8.08,0a6.59,6.59,0,0,0,5.49-2.73l.49-.49a2.43,2.43,0,0,0,1.42-1.19,8.21,8.21,0,0,0,1.29-5.67,4.64,4.64,0,0,1,1.5-4.23,9.57,9.57,0,0,0,2.74-6.39,6.7,6.7,0,0,1,.78-.53,23.51,23.51,0,0,0,12.36-16.24c1.4-5.92,1.11-11.9.3-17.87.38-.81.74-1.62-.23-2.29,0-.7.07-1.4.11-2.1l.48-7.7c.64-2.06.64-2.06-1.61-2.66-.25-2.41.3-4.78.51-7.15a21.39,21.39,0,0,1,2.9-9.8c2.95-4.56,5.45-9.4,8.46-13.92,2.7-4.06,4.81-8.46,7.53-12.51.74-1.11,1-2.51,1.83-3.6a2.82,2.82,0,0,0,.3-2.1c-.13-1.18-.87-1.59-1.83-.88a13.17,13.17,0,0,0-3.77,3.59,37.14,37.14,0,0,1-4.3,5.44c-.37.42-.72,1.06-1.67.84a37.16,37.16,0,0,1,3.3-8.94c1.48-2.68,2.15-5.65,3.31-8.45a5,5,0,0,0,.14-1.66c0-.59-.1-1.13-.81-1.26-1.32-.23-1.58-1.21-1.6-2.31s-.59-1.16-1.41-1.19a2.43,2.43,0,0,0-2.21,1.15c-1.08,1.48-2.24,2.91-3.34,4.38a18.39,18.39,0,0,0-3.49,6.76,13.35,13.35,0,0,1-3.43,5.82,8.11,8.11,0,0,1,1.05-4.43c1.68-3.22,2.48-6.74,3.72-10.1.39-1.06.49-2-.71-2.68-1-.5-1.61-.21-2.47,1.17a34.39,34.39,0,0,0-3.53,6.51,11.45,11.45,0,0,1-2.07,3.76,7.36,7.36,0,0,0-1.35,2.51,44.07,44.07,0,0,1-7.31,13.38l-.66,0a22.67,22.67,0,0,1-1.61-9.32,7.4,7.4,0,0,0-.53-3,2.18,2.18,0,0,0-2.06-1.39c-.74,0-.91.81-1.14,1.38a7.13,7.13,0,0,0-.56,2.79A34.11,34.11,0,0,1,320,654a119.87,119.87,0,0,0-.92,13.78c0,1,0,2.07-.06,3.1a12.87,12.87,0,0,0-11.65,6.58,41.69,41.69,0,0,0-4.57,10.43c-.44,1.59-.53,3.28-1.35,4.76a71.47,71.47,0,0,1-4.63-9.16c-.32-.71-.29-1.6-.67-2.26-1.71-3-3.39-5.92-4.81-9a72.26,72.26,0,0,0-9-14.35c-3.79-4.86-8.8-7.52-15.15-7.16l-1.84-2.17c-3.09-3.6-6.56-6.65-11.32-7.84l-.21-1.37c0-1.8,0-3.61,0-5.41-.07-2.66-.09-2.66,2.41-3.33a17.09,17.09,0,0,0,8.59-3.32,26.77,26.77,0,0,1,10.83-4.83c1.79-.31,2.36-1.25,2.15-3.13a35.31,35.31,0,0,0-1.2-4.06c-.92-3.83-3.27-6.27-6.53-8.11a10.63,10.63,0,0,1-4.79-5.21c-1.39-3.43-3.3-6.65-4.2-10.29a4.81,4.81,0,0,0-.75-1.48,10.46,10.46,0,0,0-6.95-4.24,8.46,8.46,0,0,1-5.31-3.29,11.26,11.26,0,0,0-.81-.88c-1.42-1.45-1.93-1.53-3.76-.49s-3.48,2-5.15,3.06A10.37,10.37,0,0,1,233,586a30.08,30.08,0,0,0-6.88.93c-5.26,1.49-8.78,4.69-9.81,10.29a58.71,58.71,0,0,1-1.52,5.79,7.79,7.79,0,0,1-3.21,4.34c-1.31.9-2.52,2-3.79,2.93-3.64,2.8-5.06,6.68-5.23,11.09-.09,2.46.4,3,2.73,3.83a52.57,52.57,0,0,1,9.49,3.92A21.39,21.39,0,0,0,229.49,632a17.82,17.82,0,0,1,.58,8.4A2.13,2.13,0,0,1,229,642c-1.7.24-2.86,1.13-2.86,2.91,0,3.67-1.56,6.72-3.58,9.62a23.84,23.84,0,0,0-6,.29c-5.07,1.1-8.94,4.07-12.18,8a50.72,50.72,0,0,0-4.35,6.3,75.18,75.18,0,0,1-24.16,24.71,73.6,73.6,0,0,1-14.41,6.88c0-.87-.08-1.75-.08-2.63q0-128.37,0-256.74a72.24,72.24,0,0,1,1.3-15,25,25,0,0,1,20.6-19.85c8.23-1.39,16.55-1.41,24.87-1.3,2.32,0,4.64.07,6.95.18,3.52.16,4.85,1.41,5.33,4.86.19,1.34.35,2.7.65,4,1.73,7.64,6.27,11.51,14.11,11.88,3.75.18,7.52.14,11.28.14q49.43,0,98.85,0a58.87,58.87,0,0,0,11-.55c6.82-1.29,10.85-5.39,11.87-12.31.18-1.18.3-2.38.4-3.57.21-2.65,1.55-4.18,4.2-4.3a195.18,195.18,0,0,1,22.3-.21,73.65,73.65,0,0,1,12.1,1.64c10.87,2.58,17.84,10.28,19.57,21.37a87.35,87.35,0,0,1,.64,12.2c.12,9.19.09,18.39.13,27.59,0,2.44-.05,2.14-2.28,2.14H338.39c-12.31,0-24.63.08-36.95,0a21.57,21.57,0,0,0-10.82,2.49c-3.33.07-6.63.67-10,.48a2.2,2.2,0,0,0-1.87.93A55.41,55.41,0,0,1,274.2,479a2.94,2.94,0,0,0-1,2.81c.66,2.09.25,4.26.71,6.38.3,1.37.69,3-.41,4.33l-10.45-.12c-1.46-.24-2.79.55-4.24.51-.75,0-.91.7-1.05,1.38-1.34,6.69-2.67,13.39-4.08,20.07-1.67,7.84-3.06,15.73-4.05,23.69-.77,6.21-1.33,12.46-2.34,18.64a1.38,1.38,0,0,0,.45,1.51c-.66,1.46-.54,1.65,1.35,2.29l1,.49a16.85,16.85,0,0,0,6.29,3.86l0,0a3.35,3.35,0,0,0,2.43,1.46h0c2.43,2.11,5.41,3.39,8.09,5.12a.74.74,0,0,0,1-.24c.26-.44-.18-.47-.45-.55-.2-7.23-.83-14.43-1.51-21.63.07-.32.55-.6.09-1-.34-3.71-.64-7.43-1-11.14-.34-3.39-.69-6.78-1.13-10.16-.53-4.09-1.16-8.16-1.75-12.23s-1.15-7.84-1.74-11.76c-.45-3-.92-6.08-1.39-9.24l4.09-.36,10.57.19c1.09.54.88,1.57,1,2.51.3,3.81.64,7.61,1,11.42.07.7.35,1.4,1.14,1.21,1.43-.34,2.88-.1,4.29-.31,1.25-.19,1.72-.93,1.56-2.2-.52-4.1-.77-8.21-1-12.38,1.26-.48,2.56-.1,3.81-.32.05.72.14,1.43.14,2.14q0,35.12,0,70.24a5.94,5.94,0,0,1-.14,2.14,1.81,1.81,0,0,0-1.8.74,3.54,3.54,0,0,0,1.82.1c.33,3.91,0,7.83.06,11.74,0,.8,0,1.6,0,2.4.06,7.46,5,12.79,12.54,13.32,1.91.14,3.83.08,5.75.1,2.24,0,2.25.06,1.59,2.11A113.43,113.43,0,0,1,298.4,615q-3,5.87-5.9,11.78c-.48,1-1.47,2.25-.66,3,1,.93,2-.42,2.88-1,10.9-6.88,20.15-15.71,29.24-24.73a42.5,42.5,0,0,0,3-3.4c1.32-1.65,3.13-2.66,4.76-3.92a2.51,2.51,0,0,1,1.61-.31c1.76,0,3.52,0,5.28,0h85.89a11.52,11.52,0,0,0,1.44,0c1.31-.17,1.72.45,1.57,1.65a9.61,9.61,0,0,0,0,1.2q0,174.56,0,349.1a50,50,0,0,1-1.35,13.08c-2.87,10.51-9.81,16.71-20.37,19A21.48,21.48,0,0,1,400.82,981.05ZM313.91,833a6.7,6.7,0,0,0-10,2.64c-1.44,3.22-.38,5.53,3,6.62.91.29,1.81.6,2.72.9a12.11,12.11,0,0,1,4.57,3c1,1,1.47,2,.67,3.37a4.23,4.23,0,0,0-.28,3.65,17.48,17.48,0,0,1,1.46-4.3,1.8,1.8,0,0,0-.25-2c-1.73-2.74-4.35-4.12-7.35-4.95a15.91,15.91,0,0,1-2.3-.63,3,3,0,0,1-1.93-3,5.66,5.66,0,0,1,5.13-5.63A12,12,0,0,1,313.91,833ZM269.24,570.62c2.5.3,11.49-1.35,12.59-2.13A72.33,72.33,0,0,0,269.24,570.62ZM306,846.78a32.06,32.06,0,0,0-2.54,5.38c-.74,1.8-.33,2.29,2.2,2.34-1.66-.74-1.62-1.79-1-3,.42-.85.77-1.73,1.11-2.62C306,848.25,306.51,847.65,306,846.78Zm-9.66,77.81a16.37,16.37,0,0,0,.38,6.89C297.49,929,296.52,926.79,296.34,924.59Zm15.87-77a3,3,0,0,0-3.62-.75A23.06,23.06,0,0,1,312.21,847.57Zm-8.91.24c-.07-.13-.15-.37-.2-.37a.7.7,0,0,0-.62.8c0,.13.14.38.19.37C303.12,848.55,303.28,848.23,303.3,847.81Z"/>
    <path class="cls-13" d="M308.22,594.5c-2.44,0-4.59,0-6.74,0a21.05,21.05,0,0,1-6.18-.66c-5.26-1.51-8.14-5.41-8.15-11V494.05c0-3.36,0-6.72,0-10.08,0-7.23,4.62-12,11.88-12.25.64,0,1.28,0,1.92,0H482.31a23.27,23.27,0,0,1,5,.45c5.07,1.07,9.1,6.12,9,11-.22,11.84-.08,23.68-.08,35.51q0,26.88,0,53.75c0,3.2.08,6.4.05,9.59-.08,7.29-4.83,12.18-12.09,12.49-.72,0-1.44,0-2.16,0h-143c-2.16,0-4.32,0-6.48-.08a6.07,6.07,0,0,0-5.38,2.51c-3.06,3.8-6.13,7.59-9.47,11.15a127.79,127.79,0,0,1-14.26,12.45,79.24,79.24,0,0,1-6.85,5.26c-.31.19-.58.55-1.26.34C300.21,615.87,305.65,605.93,308.22,594.5ZM428,559.59a21.08,21.08,0,0,0,1,4.39c1.61,3.93,4.83,5.5,8.9,4.28a13.63,13.63,0,0,0,7.41-5.4c3.73-5.32,4.71-11.27,3.89-17.59a9.89,9.89,0,0,0-1.48-4,6,6,0,0,0-5.17-3,9.84,9.84,0,0,0-7,2.63,21.69,21.69,0,0,0-5.94,9.15,10.81,10.81,0,0,1-.84,2.23,59.25,59.25,0,0,1-6.85,9.22,18.18,18.18,0,0,1-3.88,3.18c-2.68,1.56-4.46,1-5.76-1.87a16.44,16.44,0,0,1-.87-2.47,30.6,30.6,0,0,1-.74-7.14,8.14,8.14,0,0,1,1.52-5.16,77.92,77.92,0,0,0,10.45-22,51.3,51.3,0,0,0,2.76-15,10.39,10.39,0,0,0-.95-4.89,4,4,0,0,0-5-2.11,8.11,8.11,0,0,0-3,1.9,23.1,23.1,0,0,0-4.6,6.1,56.78,56.78,0,0,0-5.7,16.45,92.32,92.32,0,0,0-1.37,23.64,4.64,4.64,0,0,1-.68,3.18,42.82,42.82,0,0,1-6.3,7.52,11.28,11.28,0,0,1-3.57,2.38,3.06,3.06,0,0,1-4.25-1.55,13.88,13.88,0,0,1-1.1-2.64,28.8,28.8,0,0,1-1-8.06,7.8,7.8,0,0,1,1.43-4.71,71.91,71.91,0,0,0,7.46-13.64c2.74-6.76,5-13.63,5.78-20.94a14.46,14.46,0,0,0-.58-6.85c-1.08-2.83-3.49-3.78-6.18-2.42a12,12,0,0,0-3.64,3.08,31.94,31.94,0,0,0-5.18,8.86c-4.39,10.79-5.56,22.09-5.16,33.62,1.09,3.44-.57,6-2.71,8.4a22.85,22.85,0,0,1-4.25,3.85,14.58,14.58,0,0,1-4.08,2c-5.68,1.62-8.51-.83-7.9-6.7a2.5,2.5,0,0,1,1.49-2.18A24,24,0,0,0,374,544.65a8,8,0,0,0,.9-4.17,4.07,4.07,0,0,0-4.37-4.08,7.75,7.75,0,0,0-5.41,2.2,20.9,20.9,0,0,0-4.16,5.24,33.52,33.52,0,0,0-3.75,10,4.74,4.74,0,0,1-.7,2,36.42,36.42,0,0,1-7.17,7.7,7.67,7.67,0,0,1-2.29,1.28c-2.17.7-3.27,0-3.37-2.22a43.86,43.86,0,0,1,.27-7.42,92,92,0,0,0,1.13-12.41,11.44,11.44,0,0,0-.73-4.22c-1.05-2.53-2.77-3.35-5.39-2.57a9,9,0,0,0-2.53,1.33,22.22,22.22,0,0,0-3.85,3.59,81.12,81.12,0,0,0-9.38,14.17c-.28.5-.36,1.18-1.28,1.47.88-4.83,1.07-9.6,3.74-13.87A81.69,81.69,0,0,0,332.49,528a57.7,57.7,0,0,0,4.07-21.05,12.15,12.15,0,0,0-.74-4.71c-1.15-2.67-3.3-3.38-5.85-1.94a9,9,0,0,0-2.46,2.26,18.32,18.32,0,0,0-2.55,4.6,77.54,77.54,0,0,0-4.29,16.42c-2.33,13.39-3.23,27-5.15,40.42a8.94,8.94,0,0,0,.36,4.5,2.47,2.47,0,0,0,4.22,1,8.55,8.55,0,0,0,1.92-2.73c1-1.91,1.93-3.86,3-5.76a146.88,146.88,0,0,1,10.46-17.18,12,12,0,0,1,2.77-3c.92-.64,1.54-.34,1.6.76a19.11,19.11,0,0,1-.1,3.12c-.48,4.21-.92,8.42-1,12.66-.08,3.2-.24,6.42.8,9.51.81,2.41,1.8,3,4.33,2.76a10.72,10.72,0,0,0,4.3-1.39,25,25,0,0,0,6.37-5l2.37-2.56c.28.78.47,1.35.67,1.92a7.69,7.69,0,0,0,7.8,5.53,15.48,15.48,0,0,0,3.11-.25,23.26,23.26,0,0,0,12.44-7.21c.56-.59,1-1.4,1.93-1.74a23.49,23.49,0,0,0,2.69,7.52q3.6,5.81,9.62,2.57a14.38,14.38,0,0,0,1.82-1.16,32.06,32.06,0,0,0,7.17-7.35c.4-.54.57-1.34,1.46-1.48.2.8.37,1.58.59,2.34a18.2,18.2,0,0,0,2.65,5.87c2.13,2.87,4.68,3.63,8,2.28a14.22,14.22,0,0,0,2.5-1.39,30.44,30.44,0,0,0,7.15-7C426.84,560.61,427.05,559.85,428,559.59Zm47.81-47.13c.19-3.82-1.53-4.82-4.66-4.37-1.73.24-2.59,1.51-3,3a27.5,27.5,0,0,0-1.1,6.11c-.7,10.52-1.44,21-2.16,31.57a7.67,7.67,0,0,0,.05,1.66c.1.62.18,1.32,1,1.39a1.62,1.62,0,0,0,1.79-.91,12,12,0,0,0,.7-2.28q2.92-14.79,6.25-29.5A28.79,28.79,0,0,0,475.77,512.46Zm-11.21,47.75a2.25,2.25,0,0,0-2.29,1.41c-.95,1.91-.64,4,.73,5a3.41,3.41,0,0,0,3.62.12c.87-.64,1.38-2.84,1-4.25A3.31,3.31,0,0,0,464.56,560.21Z"/>
    <path class="cls-5" d="M252.9,907.18q-8.37-2.71-16.75-5.41a5,5,0,0,0-2.31-.47c-1.76-1.63-4-2-6.23-2.41-5.32-2.48-10.84-4.5-16.27-6.71-2.13-.87-4.29-1.69-6.43-2.53-.69-.72-1.67-.28-2.49-.65a61.29,61.29,0,0,0-10-3,94.78,94.78,0,0,0-13.64-2.09,36.13,36.13,0,0,0-16,1.62c-1.28.42-2.36,1.38-3.78,1.43a8,8,0,0,1,1.2-3.49,9.15,9.15,0,0,0,1.23-2.74,5.49,5.49,0,0,0,.75-1.49c.29-1.89,1.46-3.36,2.21-5,5.44-12.16,10.74-24.36,16.07-36.56q4-9.21,8-18.43c1.38,1.19,2.71,2.46,4.15,3.56,5.31,4,11.56,5.49,18,6.35,1.08.14,1.46-.49,1.35-1.44-.54-4.58-1.12-9.15-1.68-13.72a35.14,35.14,0,0,0,.37-3.8,62.59,62.59,0,0,1,1.2-10.68,224.12,224.12,0,0,1,7.75-30.07q5.21-16.3,10.69-32.51a141.36,141.36,0,0,0,6.43-28.63c13.58.24,26.94-1.16,40-5.71.77,4.24,2.08,8.09,3.13,12,3.1,11.57,5.87,23.23,8.42,34.94a301.7,301.7,0,0,1,7,48.34c.4,7.34,1.31,14.65,2,22,.87,8.82,1.82,17.65,2.66,26.48.91,9.55,1.74,19.1,2.59,28.66.77,8.68,1.32,17.38,1.52,26.09a6.37,6.37,0,0,1-2.89,5.7,14,14,0,0,1-3.63,1.81,36.13,36.13,0,0,1-10.35,1.82C275.62,910.92,264.27,909,252.9,907.18Z"/>
    <path class="cls-7" d="M236.72,708.23a141.36,141.36,0,0,1-6.43,28.63q-5.46,16.21-10.69,32.51a224.12,224.12,0,0,0-7.75,30.07,62.59,62.59,0,0,0-1.2,10.68,35.14,35.14,0,0,1-.37,3.8,20.71,20.71,0,0,1-2.62-.06A34.7,34.7,0,0,1,188.71,805a4.64,4.64,0,0,0-1.67-1.31c-1.07-2.14-2.23-4.24-3.18-6.43-1.31-3-2.35-6.09-1.94-9.46.17-1.49.42-3,.49-4.49a33.54,33.54,0,0,1,6.79-18.62c.66-.9,1.33-1.81,2-2.69a109.3,109.3,0,0,1,11.31-12.06A66,66,0,0,0,218.2,727.7c4-9.23,5.36-18.87,3.32-28.84a13.45,13.45,0,0,1-.16-4.29c.21-1.74.52-3.48.66-5.23.59-7,.45-13.89-1.71-20.64-.28-.89-.51-2.25-1.67-1.84-.85.3-.29,1.55,0,2.37a44.46,44.46,0,0,1,1.83,18.22c-.27,2.95-.7,5.87-1,8.81a6.6,6.6,0,0,1-.51,1.82,50.27,50.27,0,0,1-6.69,11c-4.94,6.51-10.67,12.32-16.36,18.16a7.35,7.35,0,0,0-2,3.18,15.5,15.5,0,0,0-4.73,3.94,47.31,47.31,0,0,1-5.26,4.85c-2.62,2.07-5.37,4-7.94,6.12-4.3,3.55-9.32,5.7-14.43,7.71,0-.63-.12-1.27-.12-1.9q0-24.27,0-48.54c0-.63.08-1.26.12-1.9a73.6,73.6,0,0,0,14.41-6.88A75.18,75.18,0,0,0,200,669.08a50.72,50.72,0,0,1,4.35-6.3c3.24-3.9,7.11-6.87,12.18-8a23.84,23.84,0,0,1,6-.29,35.6,35.6,0,0,0,3.12,7.71c2.81,5.51,5.72,11,8.61,16.46a6.84,6.84,0,0,0,2.3,2.68c.14,2.62.69,5.21.62,7.86a28.19,28.19,0,0,0,.28,4.29,21.47,21.47,0,0,1-.06,5.25c-.3,2.68-.41,5.38-.61,8.08Z"/>
    <path class="cls-11" d="M161.44,753c5.11-2,10.13-4.16,14.43-7.71,2.57-2.13,5.32-4,7.94-6.12a47.31,47.31,0,0,0,5.26-4.85,15.5,15.5,0,0,1,4.73-3.94,39.79,39.79,0,0,1-1.65,10.12c-2.14,7.43-4.42,14.82-6.64,22.23a92.73,92.73,0,0,0-3.82,17.74c-.24,2.44-.54,4.91.23,7.32-.41,3.37.63,6.46,1.94,9.46.95,2.19,2.11,4.29,3.18,6.43-.1.21-.28.42-.28.62,0,2.69.05,5.37,0,8.05a12.73,12.73,0,0,0,1.66,6.81q-4,9.21-8,18.43c-5.33,12.2-10.63,24.4-16.07,36.56-.75,1.67-1.92,3.14-2.21,5a5.49,5.49,0,0,1-.75,1.49c0-.8-.08-1.6-.08-2.4V755.16C161.36,754.45,161.41,753.73,161.44,753Z"/>
    <path class="cls-11" d="M195.66,906.75A14.69,14.69,0,0,1,194,910.2a238.4,238.4,0,0,0-18.36,50q-1.69,6.74-3.4,13.45a3.51,3.51,0,0,1-.73,1.65,25,25,0,0,1-7.38-9.82A32.38,32.38,0,0,1,161.74,955c-.34-4.3-.41-8.61-.4-12.93q0-19.29.07-38.57A18.85,18.85,0,0,0,167.5,906c7,1.41,13.95,2.22,21.05,1.1A22.93,22.93,0,0,1,195.66,906.75Z"/>
    <path class="cls-14" d="M226.47,902.72a29,29,0,0,1-2,8.09c-2.94,8.36-5.14,16.94-8,25.31l-.24.68c-1.1,3.12-1.18,3-4.5,2.72a45.52,45.52,0,0,1-18.38-5.65c-1.87-1-3.65-2.28-5.47-3.44a1.58,1.58,0,0,1-.88-1.07,4,4,0,0,1,.58-2c2.55-6.35,5.46-12.54,8.57-18.64a4.16,4.16,0,0,1,3-2.42,119.25,119.25,0,0,1,25.69-3.67C225.36,902.59,225.92,902.68,226.47,902.72Z"/>
    <path class="cls-10" d="M195.66,906.75a22.93,22.93,0,0,0-7.11.31c-7.1,1.12-14.07.31-21.05-1.1a18.85,18.85,0,0,1-6.09-2.46,14.34,14.34,0,0,1-4.15-4.51c-2.13-4.25-1.61-8.11,1.75-12.08,1.42,0,2.5-1,3.78-1.43a36.13,36.13,0,0,1,16-1.62A94.78,94.78,0,0,1,192.4,886a61.29,61.29,0,0,1,10,3c.82.37,1.8-.07,2.49.65-2.75.08-2.06-.31-2.7,2.23A44.15,44.15,0,0,1,195.66,906.75Z"/>
    <path class="cls-15" d="M285.37,493.2c-1.25.22-2.55-.16-3.81.32.2,4.17.45,8.28,1,12.38.16,1.27-.31,2-1.56,2.2-1.41.21-2.86,0-4.29.31-.79.19-1.07-.51-1.14-1.21-.33-3.81-.67-7.61-1-11.42-.08-.94.13-2-1-2.51,0-.26-.07-.52-.1-.78,1.1-1.34.71-3,.41-4.33-.46-2.12-.05-4.29-.71-6.38a2.94,2.94,0,0,1,1-2.81,55.41,55.41,0,0,0,4.57-4.87,2.2,2.2,0,0,1,1.87-.93c3.35.19,6.65-.41,10-.48a15,15,0,0,0-4.91,6.7c-1.12,0-2.24-.06-3.36,0-1.8.08-2.13.32-2,2.15.23,3.41.63,6.8.94,10.2a1,1,0,0,0,1.3,1,8,8,0,0,1,2.83-.33Z"/>
    <path class="cls-3" d="M294.52,413.58H280.61a14,14,0,0,1-2.15-.09,1.82,1.82,0,0,1-1.64-2,1.86,1.86,0,0,1,1.64-2,10.11,10.11,0,0,1,1.91-.09q13.78,0,27.58,0a7.62,7.62,0,0,1,2.38.18,2.1,2.1,0,0,1,1.68,2.3c-.08,1.15-.65,1.7-2.14,1.73-2.87.06-5.75,0-8.63,0Z"/>
    <path class="cls-3" d="M326.43,416a5,5,0,0,1-4.69-5.34c0-2.46,2.6-4.68,5.45-4.68s5,2.49,4.93,5.64C332,414,329.41,416,326.43,416Z"/>
    <path class="cls-10" d="M158.73,1037.45a7,7,0,0,0,.54,1.81c2.68,4.26,2.62,8.67.81,13.2a8.41,8.41,0,0,0-.29,1.15,26.92,26.92,0,0,1-6.43-3.66c-.66-.46-1-.92-.39-1.76C155.33,1044.85,156.9,1041.08,158.73,1037.45Z"/>
    <path class="cls-13" d="M285.41,492.36a8,8,0,0,0-2.83.33,1,1,0,0,1-1.3-1c-.31-3.4-.71-6.79-.94-10.2-.12-1.83.21-2.07,2-2.15,1.12-.05,2.24,0,3.36,0-.36,3.46-.12,6.92-.19,10.38C285.5,490.64,285.44,491.5,285.41,492.36Z"/>
    <path class="cls-10" d="M227.61,898.89c2.23.41,4.47.78,6.23,2.41-1.17,1.07-2.63,1-4,1-.88,0-1.75,0-2.62-.07C227.32,901.1,228,900.07,227.61,898.89Z"/>
    <path class="cls-15" d="M285.39,568.56a3.54,3.54,0,0,1-1.82-.1,1.81,1.81,0,0,1,1.8-.74C285.37,568,285.38,568.28,285.39,568.56Z"/>
    <path class="cls-2" d="M198.6,994.82c1.34-4.38,2.58-8.41,3.78-12.45a1.19,1.19,0,0,1,1.4-.94c1.28,0,2.55,0,3.83,0l30.93,0c2.05,0,2.06,0,2,2.11-.13,3.11-.3,6.22-.42,9.33-.07,1.88,0,1.91-2,1.91H198.6Z"/>
    <path class="cls-8" d="M183.6,1033.05a8.79,8.79,0,0,1,3,2.39c1.16,1.41.94,2.46-.68,3.26a14.3,14.3,0,0,1-4.13,1.13A15.5,15.5,0,0,1,183.6,1033.05Z"/>
    <path class="cls-8" d="M186.37,1021.51a10.88,10.88,0,0,1,3.29,3.69c.84,1.21.61,1.83-.73,2.4a11.42,11.42,0,0,1-4.15,1C184.76,1026.11,185.7,1023.84,186.37,1021.51Z"/>
    <path class="cls-8" d="M189.65,1011a60.18,60.18,0,0,1,4.49,4.53,17,17,0,0,1-6.44,2.33A25.63,25.63,0,0,1,189.65,1011Z"/>
    <path class="cls-8" d="M260.65,1022.7c2.5.18,3.64,2.31,5.28,3.71.37.31,0,.79-.32,1-1.66.9-3.16,2.13-5.06,2.55C260.58,1027.53,260.62,1025.11,260.65,1022.7Z"/>
    <path class="cls-8" d="M260.73,1034.1a16.44,16.44,0,0,1,3.55,2.26c1.36,1.07,1.29,2-.16,3a10.76,10.76,0,0,1-3.48,1.39Z"/>
    <path class="cls-8" d="M260.19,1045.44a15.54,15.54,0,0,1,3.64,2.91c.84.91.77,1.38-.28,2.07a10.53,10.53,0,0,1-2.95,1.4C260.88,1049.67,260.21,1047.57,260.19,1045.44Z"/>
    <path class="cls-8" d="M260.13,1022.5c.28-.17.49-.2.53.21Z"/>
    <path class="cls-5" d="M260.12,1018.9c.29,0,.4.18.43.44C260.31,1019.29,260,1019.35,260.12,1018.9Z"/>
    <path class="cls-8" d="M267.23,650.67c6.35-.36,11.36,2.3,15.15,7.16a72.26,72.26,0,0,1,9,14.35c1.42,3.1,3.1,6.07,4.81,9,.38.66.35,1.55.67,2.26a71.47,71.47,0,0,0,4.63,9.16,3,3,0,0,0,.87,1.38c2.35,4.67,5.23,9,7.94,13.49a17,17,0,0,0-1.84,4.66c-.73,3.42-1.46,6.86-2.17,10.29a3.35,3.35,0,0,0,0,.95.7.7,0,0,0,.62.64.64.64,0,0,0,.76-.42c.19-.61.32-1.23.46-1.85.77-3.51,1.45-7,2.32-10.51.77-3.06,1.59-3.4,4.38-2.06a14.31,14.31,0,0,0,5.5,1.49c1.2.06,2.41,0,3.59.13a42.22,42.22,0,0,0,16.33-1.18c.81,6,1.1,12-.3,17.87a23.51,23.51,0,0,1-12.36,16.24,6.7,6.7,0,0,0-.78.53l-.87.28c-5.49,2-10.94,1.45-16.38-.2A117.87,117.87,0,0,1,298,739.76c-1-.4-1-1-.49-1.84a27.88,27.88,0,0,0,3.36-13.09,32.27,32.27,0,0,0-5.13-18.43,33.93,33.93,0,0,1-4-9.71c-1.35-5.5-2.32-11.09-3.72-16.58a35.46,35.46,0,0,0-7.43-14.87c-.3.77.2,1.19.41,1.67,1,2.35,2.14,4.65,3.07,7a30.29,30.29,0,0,1,1.27,18.34,17.66,17.66,0,0,0-.41,5.23,87.78,87.78,0,0,0,2.82,16.75c2.53,9.75,5.43,19.35,9.71,28.53a77.44,77.44,0,0,1,6.93,23.57,51.09,51.09,0,0,1,.47,12.16,84.26,84.26,0,0,1-2.6,13.63,27.32,27.32,0,0,1-3,7,5.3,5.3,0,0,1-2,2.26,1.13,1.13,0,0,1-.54-1.06c-.19-2.39-.43-4.78-.55-7.17A196.55,196.55,0,0,0,293.08,767c-3.58-19.32-8-38.46-13.28-57.39-2.5-8.94-3.8-18.12-5.24-27.27q-.72-4.62-1.36-9.25c-.11-.79-.23-1.46-1.29-1.16-.06-.32-.13-.63-.2-1,.73-2.86.18-5.68-.3-8.48C270.7,658.34,268.89,654.53,267.23,650.67Z"/>
    <path class="cls-2" d="M229.49,632a21.39,21.39,0,0,1-14.73-2.87,52.57,52.57,0,0,0-9.49-3.92c-2.33-.81-2.82-1.37-2.73-3.83.17-4.41,1.59-8.29,5.23-11.09,1.27-1,2.48-2,3.79-2.93a7.79,7.79,0,0,0,3.21-4.34,58.71,58.71,0,0,0,1.52-5.79c1-5.6,4.55-8.8,9.81-10.29A30.08,30.08,0,0,1,233,586a10.37,10.37,0,0,0,5.38-1.7c1.67-1.09,3.42-2.06,5.15-3.06s2.34-1,3.76.49a11.26,11.26,0,0,1,.81.88,8.46,8.46,0,0,0,5.31,3.29,10.46,10.46,0,0,1,6.95,4.24,4.81,4.81,0,0,1,.75,1.48c.9,3.64,2.81,6.86,4.2,10.29a10.63,10.63,0,0,0,4.79,5.21c3.26,1.84,5.61,4.28,6.53,8.11a35.31,35.31,0,0,1,1.2,4.06c.21,1.88-.36,2.82-2.15,3.13a26.77,26.77,0,0,0-10.83,4.83,17.09,17.09,0,0,1-8.59,3.32l-2.75,0a1.37,1.37,0,0,1,.21-1l.22-.41c.14-.85.87-1.31,1.32-2,2.88-4.15,4.91-8.71,4.81-13.79a56.66,56.66,0,0,0-4.18-21.48,3.9,3.9,0,0,0-1-1.59c-.51-.42-1-.48-1.45.07a13.53,13.53,0,0,0-.78,1.19,18.81,18.81,0,0,1-13,9,13.47,13.47,0,0,0-9.77,7,2.85,2.85,0,0,1-1.53,1.42c-3.44,1.38-4.11,4.05-1.53,6.62a6.78,6.78,0,0,1,2,4.45,72.65,72.65,0,0,0,.93,8.57A6.58,6.58,0,0,1,229.49,632Z"/>
    <path class="cls-14" d="M319.06,670.85c0-1,.06-2.06.06-3.1A119.87,119.87,0,0,1,320,654a34.11,34.11,0,0,0,.13-4.29,7.13,7.13,0,0,1,.56-2.79c.23-.57.4-1.37,1.14-1.38a2.18,2.18,0,0,1,2.06,1.39,7.4,7.4,0,0,1,.53,3,22.67,22.67,0,0,0,1.61,9.32c-.41,1.06.32,1.53,1,2.14,3.29,3,4.95,6.54,4.21,11.05-.1.57-.41,1.21.25,1.88a5.89,5.89,0,0,0,1.36-5.73,16.84,16.84,0,0,0-6.16-9.38A44.07,44.07,0,0,0,334,645.83a7.36,7.36,0,0,1,1.35-2.51,11.45,11.45,0,0,0,2.07-3.76,34.39,34.39,0,0,1,3.53-6.51c.86-1.38,1.51-1.67,2.47-1.17,1.2.63,1.1,1.62.71,2.68-1.24,3.36-2,6.88-3.72,10.1a8.11,8.11,0,0,0-1.05,4.43,13.35,13.35,0,0,0,3.43-5.82,18.39,18.39,0,0,1,3.49-6.76c1.1-1.47,2.26-2.9,3.34-4.38a2.43,2.43,0,0,1,2.21-1.15c.82,0,1.4.21,1.41,1.19s.28,2.08,1.6,2.31c.71.13.84.67.81,1.26a5,5,0,0,1-.14,1.66c-1.16,2.8-1.83,5.77-3.31,8.45a37.16,37.16,0,0,0-3.3,8.94c.95.22,1.3-.42,1.67-.84a37.14,37.14,0,0,0,4.3-5.44,13.17,13.17,0,0,1,3.77-3.59c1-.71,1.7-.3,1.83.88a2.82,2.82,0,0,1-.3,2.1c-.86,1.09-1.09,2.49-1.83,3.6-2.72,4-4.83,8.45-7.53,12.51-3,4.52-5.51,9.36-8.46,13.92a21.39,21.39,0,0,0-2.9,9.8c-.21,2.37-.76,4.74-.51,7.15a4.13,4.13,0,0,1-3.42,2.25,23.41,23.41,0,0,1-4.26.36c-3.57-.11-7.16,0-10.68-.77-1.56-.33-2.95-.83-3-2.8,1-4.15,2-8.31,3.07-12.46a2.63,2.63,0,0,0,0-2.29c-1.48-2.23-1.59-4.77-1.58-7.32ZM347,661.76c-.18-1.7-1.28-2.7-2.41-3.7-1.87-1.65-1.93-2-.78-4.28,2.12-4.2,4.26-8.39,6.37-12.59.59-1.18,1.32-2.34,1.16-3.82-1.19.3-1.51,1.24-1.93,2.08-2.18,4.35-4.41,8.67-6.51,13.06-1.13,2.38-1.66,3.36-4.44,1.63a4.9,4.9,0,0,0-4.68-.2A35.82,35.82,0,0,1,347,661.76Z"/>
    <path class="cls-16" d="M253.7,629.55a1.37,1.37,0,0,0-.21,1,16.24,16.24,0,0,1-4.51-.22,59,59,0,0,1-12.79-3.15,12.69,12.69,0,0,0,2.75,3.6c4.23,4.14,9,7.34,14.92,8.49l.21,1.37c.28,4.39.52,8.77.85,13.15.25,3.4-1,5.45-4.22,6.56s-6.25.91-9.47.62c-2.11-.19-3.15-1-3.61-3a25.17,25.17,0,0,0-4.33-9.27,14.66,14.66,0,0,1-2.93-5.71c-.16-.89-.81-.85-1.41-1a2.13,2.13,0,0,0,1.12-1.62,17.82,17.82,0,0,0-.58-8.4,6.58,6.58,0,0,0,.29-3.31,72.65,72.65,0,0,1-.93-8.57,6.78,6.78,0,0,0-2-4.45c-2.58-2.57-1.91-5.24,1.53-6.62a2.85,2.85,0,0,0,1.53-1.42,13.47,13.47,0,0,1,9.77-7,18.81,18.81,0,0,0,13-9,13.53,13.53,0,0,1,.78-1.19c.44-.55.94-.49,1.45-.07a3.9,3.9,0,0,1,1,1.59,56.66,56.66,0,0,1,4.18,21.48c.1,5.08-1.93,9.64-4.81,13.79-.45.65-1.18,1.11-1.32,2C253.74,629.22,253.62,629.33,253.7,629.55Zm-7.57-12.87v0c-.64,0-1.28,0-1.91,0-1.08,0-1.4.53-1.28,1.5a3.1,3.1,0,0,0,2.63,2.7,3.93,3.93,0,0,0,3.8-1.94,1.48,1.48,0,0,0-1.33-2.2A17.39,17.39,0,0,0,246.13,616.68Zm.11-11.44c.35,2.87,2.4,5.53.89,8.62C249.79,611.34,249.51,608.36,246.24,605.24Zm-5.34,2.54a1.23,1.23,0,0,0-1.34-1.24,1.34,1.34,0,0,0-1.48,1.45,1.33,1.33,0,0,0,1.34,1.37A1.5,1.5,0,0,0,240.9,607.78Zm12,.69a1.47,1.47,0,0,0,1.39-1.65,1.29,1.29,0,0,0-1.57-1.09,1.28,1.28,0,0,0-1.18,1.5A1.24,1.24,0,0,0,252.94,608.47Zm-11.13-4c-2.22-1.94-3.07-1.87-4.85,0Zm8.43-.52a24.73,24.73,0,0,1,5-.44C253.06,601.7,252.3,601.76,250.24,604Zm-20.38,10.6c-1.25-2.29-1.31-2.34-3.1-2.31C227.77,614.14,227.77,614.14,229.86,614.59Z"/>
    <path class="cls-9" d="M271.91,672c1.06-.3,1.18.37,1.29,1.16q.65,4.64,1.36,9.25c1.44,9.15,2.74,18.33,5.24,27.27,5.32,18.93,9.7,38.07,13.28,57.39a196.55,196.55,0,0,1,3.11,26.16c.12,2.39.36,4.78.55,7.17a1.13,1.13,0,0,0,.54,1.06,5.3,5.3,0,0,0,2-2.26,27.32,27.32,0,0,0,3-7,84.26,84.26,0,0,0,2.6-13.63,51.09,51.09,0,0,0-.47-12.16,77.44,77.44,0,0,0-6.93-23.57c-4.28-9.18-7.18-18.78-9.71-28.53A87.78,87.78,0,0,1,285,697.5a17.66,17.66,0,0,1,.41-5.23,30.29,30.29,0,0,0-1.27-18.34c-.93-2.37-2.06-4.67-3.07-7-.21-.48-.71-.9-.41-1.67a35.46,35.46,0,0,1,7.43,14.87c1.4,5.49,2.37,11.08,3.72,16.58a33.93,33.93,0,0,0,4,9.71,32.27,32.27,0,0,1,5.13,18.43,27.88,27.88,0,0,1-3.36,13.09c-.49.84-.48,1.44.49,1.84-.28.86.32,1.51.62,2.19a107.81,107.81,0,0,1,5.52,15.66c.58,2.13.76,4.35,1.56,6.43a1,1,0,0,0,0,.93,76,76,0,0,1,.57,11,75,75,0,0,1-2.85,16.69,12.21,12.21,0,0,0-.55,3.75,52.93,52.93,0,0,1-3.66,22.26,5.28,5.28,0,0,0-.29,2.57c.54,6.28,1.05,12.57,1.63,18.84.59,6.43,1.24,12.84,1.87,19.26.09.88.26,1.74.39,2.61,0,.48,0,1,.05,1.46a7,7,0,0,0,.38,2.89,31.53,31.53,0,0,0,.57,6.71v1a.35.35,0,0,0,0,.43q.29,3.39.55,6.78a2.25,2.25,0,0,0,0,1.47c.12,2.23.25,4.45.38,6.68.2,3.49.41,7,.62,10.48a.94.94,0,0,0-.11.93,7.38,7.38,0,0,1-3.12,6.84,16.27,16.27,0,0,1-4.66,2.37,41.11,41.11,0,0,1-7.23,1.52,46.89,46.89,0,0,0-6.7.39h0a4.25,4.25,0,0,0-1.91,0c-.78,0-1.84-.6-1.83.93-.07.78-.13,1.56-.2,2.34l-.82,1.13a13.55,13.55,0,0,0-1.43-.08,124.83,124.83,0,0,0-29,4.83c.14-1.93,1-3.66,1.59-5.46.87-2.81,1.86-5.57,2.8-8.35,11.37,1.78,22.72,3.74,34.31,3.17a36.13,36.13,0,0,0,10.35-1.82,14,14,0,0,0,3.63-1.81,6.37,6.37,0,0,0,2.89-5.7c-.2-8.71-.75-17.41-1.52-26.09-.85-9.56-1.68-19.11-2.59-28.66-.84-8.83-1.79-17.66-2.66-26.48-.72-7.32-1.63-14.63-2-22a301.7,301.7,0,0,0-7-48.34c-2.55-11.71-5.32-23.37-8.42-34.94-1.05-3.93-2.36-7.78-3.13-12-13.06,4.55-26.42,6-40,5.71,0-.46,0-.92.05-1.38a119.16,119.16,0,0,0,19.8-1,115.83,115.83,0,0,0,18.4-4.08c1.13-.35,1.46-.73,1.22-2q-1.59-8.44-2.89-16.95A88.58,88.58,0,0,1,271.91,672Z"/>
    <path class="cls-14" d="M248.51,921a124.83,124.83,0,0,1,29-4.83,13.55,13.55,0,0,1,1.43.08,37,37,0,0,1-.67,9.51c-.71,4.65-1.13,9.32-1.75,14-.36,2.76-.63,5.53-1,8.29-.32,2.16-1,2.72-3.2,3.21a57.12,57.12,0,0,1-13,1.43,46.74,46.74,0,0,1-13.81-2.54,2.17,2.17,0,0,1-1.69-2.46,42.44,42.44,0,0,1,.57-6.65c1-5.88,1.76-11.82,3.37-17.58A6.59,6.59,0,0,1,248.51,921Z"/>
    <path class="cls-2" d="M229,642c.6.13,1.25.09,1.41,1a14.66,14.66,0,0,0,2.93,5.71,25.17,25.17,0,0,1,4.33,9.27c.46,2,1.5,2.85,3.61,3,3.22.29,6.37.45,9.47-.62s4.47-3.16,4.22-6.56c-.33-4.38-.57-8.76-.85-13.15,4.76,1.19,8.23,4.24,11.32,7.84l1.84,2.17c1.66,3.86,3.47,7.67,4.18,11.86.48,2.8,1,5.62.3,8.48a30.75,30.75,0,0,0-4-6.21,44,44,0,0,0-9.67-7.39,1.39,1.39,0,0,0-2.18.54,6.11,6.11,0,0,1-2.2,2.43c-1.58.81-1.59,1.24-.65,2.83,1.09,1.85,2.16,3.73,3.26,5.58A37.44,37.44,0,0,1,261,681.51a16.94,16.94,0,0,1,.55,4.61,8.09,8.09,0,0,1-1.75-4,61.58,61.58,0,0,0-8-18.57,2.45,2.45,0,0,0-2.77-1.34,25.89,25.89,0,0,1-8.1,0c-2.14-.25-2.3,0-2.06,2.21a36.85,36.85,0,0,1-2.28,16.92,6.84,6.84,0,0,1-2.3-2.68c-2.89-5.48-5.8-11-8.61-16.46a35.6,35.6,0,0,1-3.12-7.71c2-2.9,3.57-5.95,3.58-9.62C226.09,643.12,227.25,642.23,229,642Z"/>
    <path class="cls-15" d="M247.75,558.17a1.38,1.38,0,0,1-.45-1.51c1-6.18,1.57-12.43,2.34-18.64,1-8,2.38-15.85,4.05-23.69,1.41-6.68,2.74-13.38,4.08-20.07.14-.68.3-1.39,1.05-1.38,1.45,0,2.78-.75,4.24-.51,0,.23,0,.47,0,.71l-4.09.36c.47,3.16.94,6.2,1.39,9.24q.89,5.88,1.74,11.76c.59,4.07,1.22,8.14,1.75,12.23.44,3.38.79,6.77,1.13,10.16.37,3.71.67,7.43,1,11.14a7,7,0,0,0-2.2.9,120.74,120.74,0,0,0-12.52,7.33A10.18,10.18,0,0,1,247.75,558.17Z"/>
    <path class="cls-15" d="M304.47,881.15q-.27-3.39-.55-6.78c.12-.14.24-.27.35-.41,1,0,2.08.06,3.1-.05a12.86,12.86,0,0,0,9.55-5.43c-1-.05-1.18.89-1.86.76-.36-.75.32-1.35.32-2,3.51.8,6.93,1.81,9.78,4.16,4.25,3.49,6.92,7.78,7,13.46a23.6,23.6,0,0,1-2.49,11.71h-.46c-4-1.86-7.5-4.49-11.49-6.31a2,2,0,0,0-.93-1.05C312.56,886.71,308.64,883.74,304.47,881.15Zm10.87-8.69-.48.48-5.59,2.73c1.62.38,2.87-.37,4.15-1,.7-.36,1.46-.69,1.49-1.67a.64.64,0,0,0,.48-.48l.21-.24Z"/>
    <path class="cls-13" d="M317.75,890.22c4,1.82,7.53,4.45,11.49,6.31-.66,1.81-1.88,3.36-2.37,5.24l0,0a1,1,0,0,0-.67.52.64.64,0,0,0-.27.27l-.52.67,0,0a2.9,2.9,0,0,0-1.54.59,10,10,0,0,1-7.86.87,31.31,31.31,0,0,1-8.25-3.73c-.71-.47-1.28-1.28-2.29-1.14-.21-3.49-.42-7-.62-10.48-.13-2.23-.26-4.45-.38-6.68.81-.28,1.34.27,1.92.67,2.25,1.49,4.46,3,6.76,4.45C314.66,888.64,316,889.82,317.75,890.22Z"/>
    <path class="cls-15" d="M290.39,911.44a41.11,41.11,0,0,0,7.23-1.52,16.27,16.27,0,0,0,4.66-2.37,7.38,7.38,0,0,0,3.12-6.84c1.15-.44,1.72.58,2.49,1,3.83,2.2,7.66,4.25,12.32,3.91,1.25-.09,2.39-.77,3.83-.57,0,2.15,0,4.22,0,6.28,0,1.17-.55,1.56-1.62,1.49-.4,0-.8,0-1.2,0l-23.94-.06a15.89,15.89,0,0,1-3.57-.29,2.21,2.21,0,0,0-2.51.49c3.31.37,6.62.55,9.91.66,7,.23,14,.08,21.07.11,2,0,2.22.27,2.26,2.19a9.39,9.39,0,0,1-.1,1.19,19.4,19.4,0,0,0-5.21-.48c-6.22.14-12.42-.44-18.62-.64-4.2-.13-8.41-.19-12.61-.49C288,913.71,287.75,911.7,290.39,911.44Z"/>
    <path class="cls-8" d="M340.59,697.54l-.48,7.7c0,.7-.07,1.4-.11,2.1a15.09,15.09,0,0,1-3,1.45c-2.6,1.08-5.31.86-8,1a43,43,0,0,1-12.07-1.47c-2.08-.51-2.48-1-2.19-3.23.25-1.82.6-3.62,1-5.42s.82-2.06,2.66-1.86c.47.06.93.21,1.4.29,3.69.71,7.4,1.42,11.17,1.08A70.29,70.29,0,0,0,340.59,697.54Z"/>
    <path class="cls-15" d="M250.05,561l-1-.49a1.62,1.62,0,0,1,.81-2.34c1.74-1.08,3.38-2.32,5.15-3.36,3.53-2.08,6.95-4.38,10.82-5.83.68,7.2,1.31,14.4,1.51,21.63-1.44-.06-2.34-1.17-3.5-1.78-1.71-.89-3.21-2.2-5.18-2.55h0a3.23,3.23,0,0,0-2.43-1.46l0,0A16.4,16.4,0,0,0,250.05,561Z"/>
    <path class="cls-9" d="M340.59,697.54a70.29,70.29,0,0,1-9.66,1.61c-3.77.34-7.48-.37-11.17-1.08-.47-.08-.93-.23-1.4-.29-1.84-.2-2.3.09-2.66,1.86s-.72,3.6-1,5.42c-.29,2.18.11,2.72,2.19,3.23A43,43,0,0,0,329,709.76c2.7-.11,5.41.11,8-1a15.09,15.09,0,0,0,3-1.45c1,.67.61,1.48.23,2.29a42.22,42.22,0,0,1-16.33,1.18c-1.18-.14-2.39-.07-3.59-.13a14.31,14.31,0,0,1-5.5-1.49c-2.79-1.34-3.61-1-4.38,2.06-.87,3.48-1.55,7-2.32,10.51-.14.62-.27,1.24-.46,1.85a.64.64,0,0,1-.76.42.7.7,0,0,1-.62-.64,3.35,3.35,0,0,1,0-.95c.71-3.43,1.44-6.87,2.17-10.29a17,17,0,0,1,1.84-4.66c2-.74,2.87-2.27,3.15-4.35.32-2.28.88-4.52,1.36-6.77a2.87,2.87,0,0,1,2.83-2.45c0,2,1.42,2.47,3,2.8,3.52.76,7.11.66,10.68.77a23.41,23.41,0,0,0,4.26-.36,4.13,4.13,0,0,0,3.42-2.25C341.23,695.48,341.23,695.48,340.59,697.54Z"/>
    <path class="cls-6" d="M253.86,639.29c-5.93-1.15-10.69-4.35-14.92-8.49a12.69,12.69,0,0,1-2.75-3.6A59,59,0,0,0,249,630.35a16.24,16.24,0,0,0,4.51.22l2.75,0c-2.5.67-2.48.67-2.41,3.33C253.88,635.68,253.85,637.49,253.86,639.29Z"/>
    <path class="cls-4" d="M324.36,917.13a9.39,9.39,0,0,0,.1-1.19c0-1.92-.27-2.18-2.26-2.19-7,0-14.06.12-21.07-.11-3.29-.11-6.6-.29-9.91-.66a2.21,2.21,0,0,1,2.51-.49,15.89,15.89,0,0,0,3.57.29l23.94.06c.4,0,.8,0,1.2,0,1.07.07,1.64-.32,1.62-1.49-.05-2.06,0-4.13,0-6.28-1.44-.2-2.58.48-3.83.57-4.66.34-8.49-1.71-12.32-3.91-.77-.44-1.34-1.46-2.49-1a.94.94,0,0,1,.11-.93c1-.14,1.58.67,2.29,1.14a31.31,31.31,0,0,0,8.25,3.73,10,10,0,0,0,7.86-.87,2.9,2.9,0,0,1,1.54-.59,4.9,4.9,0,0,0-.53,2.53c.05,1.59,0,3.18,0,4.78,0,1.93,0,1.93,2,2.94-2,.3-2.07,1.62-1.92,3a111,111,0,0,1,.42,12.63,15.7,15.7,0,0,1-.13,2.37A116.48,116.48,0,0,1,324.36,917.13Z"/>
    <path class="cls-15" d="M303.89,873a31.53,31.53,0,0,1-.57-6.71c3.71-.4,7.37.55,11.07.48.21,3.52-.61,4.44-4,5.73A10,10,0,0,1,303.89,873Z"/>
    <path class="cls-4" d="M303.89,873a10,10,0,0,0,6.47-.5c3.42-1.29,4.24-2.21,4-5.73.69-3.15.55-6.44,1.6-9.69.54.76.05,1.61.59,2.32a3.2,3.2,0,0,0,2.27-3.11c0-.12.09-.25.14-.37l-.36.15c-.53,0-1.11.25-1.71-.42.83-.67,2.12-.73,2.59-1.84.38-.88.95-1.71.19-2.66a1.69,1.69,0,0,0-2.35-.39.59.59,0,0,1-.76-.15,2.12,2.12,0,0,1,2.4-.83c1.89.29,3-1.31,2.14-3.11a1.51,1.51,0,0,1-.18-1.28,1.87,1.87,0,0,0-.7-2.33,1.81,1.81,0,0,0-2.4.26c-.19.16-.4.25-.86,0,1.4-3,.93-6-1.38-9.17a6.49,6.49,0,0,1,2.88,6.27c-.13,1.09.18,1.44,1.1,1.6a2.14,2.14,0,0,1,2.07,2.43,8.8,8.8,0,0,0,.35,1.63,3.66,3.66,0,0,1-.1,2.58c-1.46,2.24-1.33,4.85-2,7.27-.43,1.69-1,3.28-2.6,4.13a3.78,3.78,0,0,0-2,3.55c-.07,1.19,0,2.39,0,3.59,0,.7-.68,1.3-.32,2,.68.13.88-.81,1.86-.76a12.86,12.86,0,0,1-9.55,5.43c-1,.11-2.06,0-3.09.05a1.79,1.79,0,0,0-.4,0Z"/>
    <path class="cls-4" d="M290.39,911.44c-2.64.26-2.39,2.27-2.47,4.08-1.23,4.38-1.87,8.87-2.8,13.31a2.86,2.86,0,0,1-1,2c.13-4.52,1.91-8.52,2-12.74a16.52,16.52,0,0,1-6.43-2.95c.07-.78.13-1.56.2-2.34a1.52,1.52,0,0,0,1.83-.93,4.25,4.25,0,0,1,1.91,0c-.47.82-1.38,1-2.09,1.55-.55.38-1,.86-.65,1.59s1.12.77,1.86.46a7,7,0,0,0,1.93-1.39c.38-.33.68-1,1.49-.55-.47,1.22-1.79,1.7-2.5,2.68,2.28,1.52,2.81,1.35,3.25-1,.19-1,.25-2,.39-3.12l-3.65-.23A46.89,46.89,0,0,1,290.39,911.44Z"/>
    <path class="cls-4" d="M313.91,833a12,12,0,0,0-4.52-.38,5.66,5.66,0,0,0-5.13,5.63,3,3,0,0,0,1.93,3,15.91,15.91,0,0,0,2.3.63c3,.83,5.62,2.21,7.35,4.95a1.8,1.8,0,0,1,.25,2,17.48,17.48,0,0,0-1.46,4.3,4.23,4.23,0,0,1,.28-3.65c.8-1.37.37-2.37-.67-3.37a12.11,12.11,0,0,0-4.57-3c-.91-.3-1.81-.61-2.72-.9-3.4-1.09-4.46-3.4-3-6.62A6.7,6.7,0,0,1,313.91,833Z"/>
    <path class="cls-4" d="M319.06,670.85l.06,1c-4.29-.28-7.51,1.66-10.12,4.89a26.15,26.15,0,0,0-3.84,7.13,71,71,0,0,0-2.8,10.13,3,3,0,0,1-.87-1.38c.82-1.48.91-3.17,1.35-4.76a41.69,41.69,0,0,1,4.57-10.43A12.87,12.87,0,0,1,319.06,670.85Z"/>
    <path class="cls-9" d="M326.73,659.21a16.84,16.84,0,0,1,6.16,9.38,5.89,5.89,0,0,1-1.36,5.73c-.66-.67-.35-1.31-.25-1.88.74-4.51-.92-8.1-4.21-11.05-.68-.61-1.41-1.08-1-2.14Z"/>
    <path class="cls-4" d="M265.88,548.93c-3.87,1.45-7.29,3.75-10.82,5.83-1.77,1-3.41,2.28-5.15,3.36a1.62,1.62,0,0,0-.81,2.34c-1.89-.64-2-.83-1.35-2.29a10.18,10.18,0,0,0,3.5-2,120.74,120.74,0,0,1,12.52-7.33,7,7,0,0,1,2.2-.9C266.43,548.33,266,548.61,265.88,548.93Z"/>
    <path class="cls-4" d="M325.92,744.55l.87-.28a9.57,9.57,0,0,1-2.74,6.39,4.64,4.64,0,0,0-1.5,4.23,8.21,8.21,0,0,1-1.29,5.67,2.43,2.43,0,0,1-1.42,1.19l-.25-.23a10.47,10.47,0,0,0,2-7.82,2.86,2.86,0,0,1,1-2.53C324.29,749.29,325.75,747.24,325.92,744.55Z"/>
    <path class="cls-4" d="M305.78,765a1.05,1.05,0,0,1-.06-.93,20.21,20.21,0,0,1,4.73.21,10.91,10.91,0,0,0,4.22-.13c1.71-.31,3-1.42,4.45-2.13l.23.25a6.59,6.59,0,0,1-5.49,2.73C311.17,765.06,308.47,765,305.78,765Z"/>
    <path class="cls-4" d="M302.94,863.39c0-.49,0-1-.05-1.46,3.88,2.22,7.17,1,10.3-2.15a6.32,6.32,0,0,1-5.52,4.08C306,864,304.53,863.4,302.94,863.39Z"/>
    <path class="cls-4" d="M269.24,570.62a71.38,71.38,0,0,1,12.59-2.12C280.73,569.27,271.74,570.92,269.24,570.62Z"/>
    <path class="cls-4" d="M263,493.08c0-.24,0-.48,0-.71l10.45.12c0,.26.06.52.1.78Z"/>
    <path class="cls-4" d="M306,846.78c.51.87,0,1.47-.26,2.09-.34.89-.69,1.77-1.11,2.62-.59,1.22-.63,2.27,1,3-2.53,0-2.94-.54-2.2-2.34A32.06,32.06,0,0,1,306,846.78Z"/>
    <path class="cls-4" d="M258.71,566.23c2,.35,3.47,1.66,5.18,2.55,1.16.61,2.06,1.72,3.5,1.78.27.08.71.11.45.55a.74.74,0,0,1-1,.24C264.12,569.62,261.14,568.34,258.71,566.23Z"/>
    <path class="cls-4" d="M296.34,924.59c.18,2.2,1.15,4.36.38,6.89A16.37,16.37,0,0,1,296.34,924.59Z"/>
    <path class="cls-4" d="M250.05,561a16.4,16.4,0,0,1,6.29,3.86A16.85,16.85,0,0,1,250.05,561Z"/>
    <path class="cls-4" d="M326.87,901.77c.49-1.88,1.71-3.43,2.37-5.24h.46C329.22,898.52,328.66,900.48,326.87,901.77Z"/>
    <path class="cls-4" d="M312.21,847.57a23.06,23.06,0,0,0-3.62-.75A3,3,0,0,1,312.21,847.57Z"/>
    <path class="cls-4" d="M256.31,564.78a3.23,3.23,0,0,1,2.43,1.46A3.35,3.35,0,0,1,256.31,564.78Z"/>
    <path class="cls-4" d="M303.3,847.81c0,.42-.18.74-.63.8-.05,0-.19-.24-.19-.37a.7.7,0,0,1,.62-.8S303.23,847.68,303.3,847.81Z"/>
    <path class="cls-4" d="M326.22,902.27a1,1,0,0,1,.67-.52A.74.74,0,0,1,326.22,902.27Z"/>
    <path class="cls-4" d="M319.84,761.75l-.49.49-.23-.25.47-.47Z"/>
    <path class="cls-4" d="M325.43,903.21l.52-.67A.73.73,0,0,1,325.43,903.21Z"/>
    <path class="cls-6" d="M428,559.59c-.91.26-1.12,1-1.52,1.55a30.44,30.44,0,0,1-7.15,7,14.22,14.22,0,0,1-2.5,1.39c-3.32,1.35-5.87.59-8-2.28a18.2,18.2,0,0,1-2.65-5.87c-.22-.76-.39-1.54-.59-2.34-.89.14-1.06.94-1.46,1.48a32.06,32.06,0,0,1-7.17,7.35,14.38,14.38,0,0,1-1.82,1.16q-6,3.23-9.62-2.57a23.49,23.49,0,0,1-2.69-7.52c-1,.34-1.37,1.15-1.93,1.74a23.26,23.26,0,0,1-12.44,7.21,15.48,15.48,0,0,1-3.11.25,7.69,7.69,0,0,1-7.8-5.53c-.2-.57-.39-1.14-.67-1.92l-2.37,2.56a25,25,0,0,1-6.37,5,10.72,10.72,0,0,1-4.3,1.39c-2.53.21-3.52-.35-4.33-2.76-1-3.09-.88-6.31-.8-9.51.11-4.24.55-8.45,1-12.66a19.11,19.11,0,0,0,.1-3.12c-.06-1.1-.68-1.4-1.6-.76a12,12,0,0,0-2.77,3A146.88,146.88,0,0,0,325,561c-1,1.9-2,3.85-3,5.76a8.55,8.55,0,0,1-1.92,2.73,2.47,2.47,0,0,1-4.22-1,8.94,8.94,0,0,1-.36-4.5c1.92-13.45,2.82-27,5.15-40.42A77.54,77.54,0,0,1,325,507.13a18.32,18.32,0,0,1,2.55-4.6,9,9,0,0,1,2.46-2.26c2.55-1.44,4.7-.73,5.85,1.94a12.15,12.15,0,0,1,.74,4.71A57.7,57.7,0,0,1,332.49,528a81.69,81.69,0,0,1-6.85,14.75c-2.67,4.27-2.86,9-3.74,13.87.92-.29,1-1,1.28-1.47A81.12,81.12,0,0,1,332.56,541a22.22,22.22,0,0,1,3.85-3.59,9,9,0,0,1,2.53-1.33c2.62-.78,4.34,0,5.39,2.57a11.44,11.44,0,0,1,.73,4.22,92,92,0,0,1-1.13,12.41,43.86,43.86,0,0,0-.27,7.42c.1,2.26,1.2,2.92,3.37,2.22a7.67,7.67,0,0,0,2.29-1.28,36.42,36.42,0,0,0,7.17-7.7,4.74,4.74,0,0,0,.7-2,33.52,33.52,0,0,1,3.75-10,20.9,20.9,0,0,1,4.16-5.24,7.75,7.75,0,0,1,5.41-2.2,4.07,4.07,0,0,1,4.37,4.08,8,8,0,0,1-.9,4.17,24,24,0,0,1-9.67,10.67,2.5,2.5,0,0,0-1.49,2.18c-.61,5.87,2.22,8.32,7.9,6.7a14.58,14.58,0,0,0,4.08-2,22.85,22.85,0,0,0,4.25-3.85c2.14-2.42,3.8-5,2.71-8.4-.4-11.53.77-22.83,5.16-33.62a31.94,31.94,0,0,1,5.18-8.86,12,12,0,0,1,3.64-3.08c2.69-1.36,5.1-.41,6.18,2.42a14.46,14.46,0,0,1,.58,6.85c-.75,7.31-3,14.18-5.78,20.94a71.91,71.91,0,0,1-7.46,13.64,7.8,7.8,0,0,0-1.43,4.71,28.8,28.8,0,0,0,1,8.06,13.88,13.88,0,0,0,1.1,2.64,3.06,3.06,0,0,0,4.25,1.55,11.28,11.28,0,0,0,3.57-2.38,42.82,42.82,0,0,0,6.3-7.52,4.64,4.64,0,0,0,.68-3.18,92.32,92.32,0,0,1,1.37-23.64,56.78,56.78,0,0,1,5.7-16.45,23.1,23.1,0,0,1,4.6-6.1,8.11,8.11,0,0,1,3-1.9,4,4,0,0,1,5,2.11,10.39,10.39,0,0,1,.95,4.89,51.3,51.3,0,0,1-2.76,15,77.92,77.92,0,0,1-10.45,22,8.14,8.14,0,0,0-1.52,5.16,30.6,30.6,0,0,0,.74,7.14,16.44,16.44,0,0,0,.87,2.47c1.3,2.84,3.08,3.43,5.76,1.87a18.18,18.18,0,0,0,3.88-3.18,59.25,59.25,0,0,0,6.85-9.22,10.81,10.81,0,0,0,.84-2.23,21.69,21.69,0,0,1,5.94-9.15,9.84,9.84,0,0,1,7-2.63,6,6,0,0,1,5.17,3,9.89,9.89,0,0,1,1.48,4c.82,6.32-.16,12.27-3.89,17.59a13.63,13.63,0,0,1-7.41,5.4c-4.07,1.22-7.29-.35-8.9-4.28A21.08,21.08,0,0,1,428,559.59Zm18.25-9.4c-.15-1.39-.09-3.25-1.07-4.9a3.3,3.3,0,0,0-4.47-1.62,6.31,6.31,0,0,0-2.92,2.38,22.88,22.88,0,0,0-4.21,13,8.37,8.37,0,0,0,.6,3.28c.91,2.39,2.92,3.14,5.21,2a10.42,10.42,0,0,0,4.1-3.91C445.35,557.41,446,554.08,446.21,550.19Zm-58.47-7.82c.33-.26.49-.33.56-.45a92.26,92.26,0,0,0,10.4-25.64,24.27,24.27,0,0,0,.63-6.91c0-.65-.14-1.35-.78-1.64a1.77,1.77,0,0,0-2,.57,9.48,9.48,0,0,0-1.09,1.27,17.48,17.48,0,0,0-2.31,4.71A116.9,116.9,0,0,0,388,534.69,30.07,30.07,0,0,0,387.74,542.37Zm22.94-.14A89.7,89.7,0,0,0,420.54,520a32.5,32.5,0,0,0,1.51-10.12c0-.78.12-1.75-.76-2.11s-1.7.24-2.28.93a15.61,15.61,0,0,0-1.38,1.95,23.14,23.14,0,0,0-2,4.6,133.58,133.58,0,0,0-4.12,15.22A35.68,35.68,0,0,0,410.68,542.23Zm-87.2-3.85c.44-.37.6-.44.66-.56a87.59,87.59,0,0,0,9.35-27.45,19.41,19.41,0,0,0,.05-5.49c-.06-.49-.2-1.05-.65-1.21s-1.05.23-1.42.66a10.27,10.27,0,0,0-1.67,3.15,71.86,71.86,0,0,0-3.14,11.27C325.32,525.14,324.3,531.59,323.48,538.38Zm39.85,14.44a20.81,20.81,0,0,0,7.62-8.74,6.83,6.83,0,0,0,.49-1.85,1.88,1.88,0,0,0-.74-2.12c-.86-.49-1.54.13-2.07.71a11,11,0,0,0-1.4,1.93A36,36,0,0,0,363.33,552.82Z"/>
    <path class="cls-6" d="M475.77,512.46a28.79,28.79,0,0,1-1.13,6.71q-3.3,14.72-6.25,29.5a12,12,0,0,1-.7,2.28,1.62,1.62,0,0,1-1.79.91c-.86-.07-.94-.77-1-1.39a7.67,7.67,0,0,1-.05-1.66c.72-10.53,1.46-21,2.16-31.57a27.5,27.5,0,0,1,1.1-6.11c.45-1.53,1.31-2.8,3-3C474.24,507.64,476,508.64,475.77,512.46Z"/>
    <path class="cls-6" d="M464.56,560.21a3.31,3.31,0,0,1,3,2.29c.4,1.41-.11,3.61-1,4.25a3.41,3.41,0,0,1-3.62-.12c-1.37-1-1.68-3.1-.73-5A2.25,2.25,0,0,1,464.56,560.21Z"/>
    <path class="cls-2" d="M188.45,819.17a12.73,12.73,0,0,1-1.66-6.81c0-2.68,0-5.36,0-8.05,0-.2.18-.41.28-.62a4.64,4.64,0,0,1,1.67,1.31,34.7,34.7,0,0,0,18.95,8.86,20.71,20.71,0,0,0,2.62.06c.56,4.57,1.14,9.14,1.68,13.72.11,1-.27,1.58-1.35,1.44-6.45-.86-12.7-2.31-18-6.35C191.16,821.63,189.83,820.36,188.45,819.17Z"/>
    <path class="cls-5" d="M236.54,681.37a36.85,36.85,0,0,0,2.28-16.92c-.24-2.19-.08-2.46,2.06-2.21a25.89,25.89,0,0,0,8.1,0,2.45,2.45,0,0,1,2.77,1.34,61.58,61.58,0,0,1,8,18.57,8.09,8.09,0,0,0,1.75,4,16.94,16.94,0,0,0-.55-4.61,37.44,37.44,0,0,0-4.71-12.72c-1.1-1.85-2.17-3.73-3.26-5.58-.94-1.59-.93-2,.65-2.83a6.11,6.11,0,0,0,2.2-2.43,1.39,1.39,0,0,1,2.18-.54,44,44,0,0,1,9.67,7.39,30.75,30.75,0,0,1,4,6.21c.07.32.14.63.2,1a88.58,88.58,0,0,0,1.39,10.89q1.29,8.49,2.89,16.95c.24,1.28-.09,1.66-1.22,2a115.83,115.83,0,0,1-18.4,4.08,119.16,119.16,0,0,1-19.8,1c.2-2.7.31-5.4.61-8.08a21.47,21.47,0,0,0,.06-5.25,28.19,28.19,0,0,1-.28-4.29C237.23,686.58,236.68,684,236.54,681.37ZM252.82,669a1.71,1.71,0,0,0-3.4-.25,1.51,1.51,0,0,0,1.4,1.83A1.73,1.73,0,0,0,252.82,669Zm2.16,6.14a1.49,1.49,0,0,0-1.57,1.74A1.36,1.36,0,0,0,255,678.2a1.51,1.51,0,0,0,1.5-1.74A1.37,1.37,0,0,0,255,675.12Z"/>
    <path class="cls-2" d="M181.92,787.8c-.77-2.41-.47-4.88-.23-7.32a92.73,92.73,0,0,1,3.82-17.74c2.22-7.41,4.5-14.8,6.64-22.23a39.79,39.79,0,0,0,1.65-10.12,7.35,7.35,0,0,1,2-3.18c5.69-5.84,11.42-11.65,16.36-18.16a50.27,50.27,0,0,0,6.69-11,6.6,6.6,0,0,0,.51-1.82c.34-2.94.77-5.86,1-8.81a44.46,44.46,0,0,0-1.83-18.22c-.27-.82-.83-2.07,0-2.37,1.16-.41,1.39.95,1.67,1.84,2.16,6.75,2.3,13.67,1.71,20.64-.14,1.75-.45,3.49-.66,5.23a13.45,13.45,0,0,0,.16,4.29c2,10,.63,19.61-3.32,28.84a66,66,0,0,1-15.67,22.24A109.3,109.3,0,0,0,191.22,762c-.69.88-1.36,1.79-2,2.69a33.54,33.54,0,0,0-6.79,18.62C182.34,784.81,182.09,786.31,181.92,787.8Z"/>
    <path class="cls-11" d="M302.36,694a71,71,0,0,1,2.8-10.13,26.15,26.15,0,0,1,3.84-7.13c2.61-3.23,5.83-5.17,10.12-4.89,0,2.55.1,5.09,1.58,7.32a2.63,2.63,0,0,1,0,2.29c-1,4.15-2,8.31-3.07,12.46a2.87,2.87,0,0,0-2.83,2.45c-.48,2.25-1,4.49-1.36,6.77-.28,2.08-1.11,3.61-3.15,4.35C307.59,703,304.71,698.67,302.36,694Zm13.84-19.18c-2.72.1-6.25,4-6.45,7.51A22.4,22.4,0,0,1,316.2,674.82Z"/>
    <path class="cls-11" d="M319.59,761.52l-.47.47c-1.48.71-2.74,1.82-4.45,2.13a10.91,10.91,0,0,1-4.22.13,20.21,20.21,0,0,0-4.73-.21c-.79-2.08-1-4.3-1.55-6.43A107.81,107.81,0,0,0,298.65,742c-.3-.68-.9-1.33-.62-2.19a117.87,117.87,0,0,0,11.51,4.59c5.44,1.65,10.89,2.17,16.38.2-.17,2.69-1.63,4.74-3.36,6.62a2.86,2.86,0,0,0-1,2.53A10.47,10.47,0,0,1,319.59,761.52Z"/>
    <path class="cls-6" d="M253.7,629.55c-.08-.22,0-.33.22-.41Z"/>
    <path class="cls-9" d="M347,661.76a35.82,35.82,0,0,0-13.22-7.82,4.9,4.9,0,0,1,4.68.2c2.78,1.73,3.31.75,4.44-1.63,2.1-4.39,4.33-8.71,6.51-13.06.42-.84.74-1.78,1.93-2.08.16,1.48-.57,2.64-1.16,3.82-2.11,4.2-4.25,8.39-6.37,12.59-1.15,2.28-1.09,2.63.78,4.28C345.69,659.06,346.79,660.06,347,661.76Z"/>
    <path class="cls-11" d="M246.13,616.68a17.39,17.39,0,0,1,1.91,0,1.48,1.48,0,0,1,1.33,2.2,3.93,3.93,0,0,1-3.8,1.94,3.1,3.1,0,0,1-2.63-2.7c-.12-1,.2-1.54,1.28-1.5.63,0,1.27,0,1.91,0Z"/>
    <path class="cls-9" d="M246.24,605.24c3.27,3.12,3.55,6.1.89,8.62C248.64,610.77,246.59,608.11,246.24,605.24Z"/>
    <path class="cls-9" d="M240.9,607.78a1.5,1.5,0,0,1-1.48,1.58,1.33,1.33,0,0,1-1.34-1.37,1.34,1.34,0,0,1,1.48-1.45A1.23,1.23,0,0,1,240.9,607.78Z"/>
    <path class="cls-9" d="M252.94,608.47a1.24,1.24,0,0,1-1.36-1.24,1.28,1.28,0,0,1,1.18-1.5,1.29,1.29,0,0,1,1.57,1.09A1.47,1.47,0,0,1,252.94,608.47Z"/>
    <path class="cls-9" d="M241.81,604.51H237C238.74,602.64,239.59,602.57,241.81,604.51Z"/>
    <path class="cls-9" d="M250.24,604c2.06-2.23,2.82-2.29,5-.44A24.73,24.73,0,0,0,250.24,604Z"/>
    <path class="cls-9" d="M229.86,614.59c-2.09-.45-2.09-.45-3.1-2.31C228.55,612.25,228.61,612.3,229.86,614.59Z"/>
    <path class="cls-4" d="M317.75,890.22c-1.75-.4-3.09-1.58-4.56-2.48-2.3-1.41-4.51-3-6.76-4.45-.58-.4-1.11-.95-1.92-.67a2.25,2.25,0,0,1,0-1.47c4.17,2.59,8.09,5.56,12.35,8A2,2,0,0,1,317.75,890.22Z"/>
    <path class="cls-11" d="M281.75,911.84a1.52,1.52,0,0,1-1.83.93C279.91,911.24,281,911.82,281.75,911.84Z"/>
    <path class="cls-16" d="M303.88,873.94a1.79,1.79,0,0,1,.4,0l-.36.41A.35.35,0,0,1,303.88,873.94Z"/>
    <path class="cls-11" d="M314.91,873c0,1-.79,1.31-1.49,1.67-1.28.65-2.53,1.4-4.15,1l5.59-2.73Z"/>
    <path class="cls-11" d="M314.86,872.94l.48-.48.05,0a.64.64,0,0,1-.48.48Z"/>
    <path class="cls-11" d="M315.34,872.46l.26-.2-.21.24Z"/>
    <path class="cls-12" d="M318.63,856.06l.36-.15c-.05.12-.1.25-.14.37A2.28,2.28,0,0,1,318.63,856.06Z"/>
    <path class="cls-12" d="M283.69,911.83l3.65.23c-.14,1.1-.2,2.12-.39,3.12-.44,2.35-1,2.52-3.25,1,.71-1,2-1.46,2.5-2.68-.81-.41-1.11.22-1.49.55a7,7,0,0,1-1.93,1.39c-.74.31-1.44.35-1.86-.46s.1-1.21.65-1.59c.71-.51,1.62-.73,2.09-1.55Z"/>
    <path class="cls-11" d="M446.21,550.19c-.18,3.89-.86,7.22-2.76,10.21a10.42,10.42,0,0,1-4.1,3.91c-2.29,1.14-4.3.39-5.21-2a8.37,8.37,0,0,1-.6-3.28,22.88,22.88,0,0,1,4.21-13,6.31,6.31,0,0,1,2.92-2.38,3.3,3.3,0,0,1,4.47,1.62C446.12,546.94,446.06,548.8,446.21,550.19Z"/>
    <path class="cls-11" d="M387.74,542.37a30.07,30.07,0,0,1,.3-7.68,116.9,116.9,0,0,1,5.15-20.41,17.48,17.48,0,0,1,2.31-4.71,9.48,9.48,0,0,1,1.09-1.27,1.77,1.77,0,0,1,2-.57c.64.29.74,1,.78,1.64a24.27,24.27,0,0,1-.63,6.91,92.26,92.26,0,0,1-10.4,25.64C388.23,542,388.07,542.11,387.74,542.37Z"/>
    <path class="cls-11" d="M410.68,542.23a35.68,35.68,0,0,1,.85-11.8,133.58,133.58,0,0,1,4.12-15.22,23.14,23.14,0,0,1,2-4.6,15.61,15.61,0,0,1,1.38-1.95c.58-.69,1.34-1.31,2.28-.93s.73,1.33.76,2.11A32.5,32.5,0,0,1,420.54,520,89.7,89.7,0,0,1,410.68,542.23Z"/>
    <path class="cls-11" d="M323.48,538.38c.82-6.79,1.84-13.24,3.18-19.63a71.86,71.86,0,0,1,3.14-11.27,10.27,10.27,0,0,1,1.67-3.15c.37-.43.84-.87,1.42-.66s.59.72.65,1.21a19.41,19.41,0,0,1-.05,5.49,87.59,87.59,0,0,1-9.35,27.45C324.08,537.94,323.92,538,323.48,538.38Z"/>
    <path class="cls-11" d="M363.33,552.82a36,36,0,0,1,3.9-10.07,11,11,0,0,1,1.4-1.93c.53-.58,1.21-1.2,2.07-.71a1.88,1.88,0,0,1,.74,2.12,6.83,6.83,0,0,1-.49,1.85A20.81,20.81,0,0,1,363.33,552.82Z"/>
    <path class="cls-9" d="M252.82,669a1.73,1.73,0,0,1-2,1.58,1.51,1.51,0,0,1-1.4-1.83,1.71,1.71,0,0,1,3.4.25Z"/>
    <path class="cls-9" d="M255,675.12a1.37,1.37,0,0,1,1.52,1.34,1.51,1.51,0,0,1-1.5,1.74,1.36,1.36,0,0,1-1.59-1.34A1.49,1.49,0,0,1,255,675.12Z"/>
    <path class="cls-4" d="M316.2,674.82a22.4,22.4,0,0,0-6.45,7.51C310,678.83,313.48,674.92,316.2,674.82Z"/>
  </g>
</svg>
