<svg id="Livello_1" data-name="Livello 1" xmlns="http://www.w3.org/2000/svg" viewBox="0 0 180.25 100.23"><defs><style>.cls-1{fill:#fdfdfd;}.cls-2{fill:#621a3e;}.cls-3{fill:#fff;}.cls-4{fill:#6f1841;}.cls-5{fill:#681a38;}.cls-6{fill:#f8af33;}.cls-7{fill:#cf813e;}.cls-8{fill:#d86527;}.cls-9{fill:#fae2b8;}.cls-10{fill:#db913c;}.cls-11{fill:#84c44d;}.cls-12{fill:#83c44d;}.cls-13{fill:#fbcc00;}.cls-14{fill:#eb3b45;}.cls-15{fill:#d8e5c0;}.cls-16{fill:#84c24c;}.cls-17{fill:#f4d2a4;}.cls-18{fill:#d3652b;}.cls-19{fill:#acb4bc;}.cls-20{fill:#ea3b43;}.cls-21{fill:#f4bfa0;}.cls-22{fill:#efb6ae;}.cls-23{fill:#711c2c;}.cls-24{fill:#873c00;}.cls-25{fill:#f8ab7b;}</style></defs><title>taco</title><path class="cls-1" d="M1051.6,490.4H871.37c.07-.1-.17-.33.16-.32h1.27q88.68,0,177.36,0C1050.63,490.1,1051.25,489.73,1051.6,490.4Z" transform="translate(-871.35 -490)"/><path class="cls-2" d="M927.9,555.67l0,0,0,0s0,0,0-.07Z" transform="translate(-871.35 -490)"/><path class="cls-2" d="M931.35,567.07a3.45,3.45,0,0,0-.43.12h0c0-.13,0-.26,0-.39C931,566.89,931.19,567,931.35,567.07Z" transform="translate(-871.35 -490)"/><path class="cls-2" d="M934.78,565.54a.2.2,0,0,1,0,.11l-.11-.14Z" transform="translate(-871.35 -490)"/><path class="cls-2" d="M933.29,565.16l-.24-.31.13-.05C933.21,564.92,933.25,565,933.29,565.16Z" transform="translate(-871.35 -490)"/><path class="cls-2" d="M946.56,531.63l0,.07h0A.24.24,0,0,1,946.56,531.63Z" transform="translate(-871.35 -490)"/><path class="cls-2" d="M947.26,530.51h0a2.53,2.53,0,0,1,0,.28l0-.09c0-.16,0-.32,0-.47C947.25,530.32,947.26,530.41,947.26,530.51Z" transform="translate(-871.35 -490)"/><path class="cls-3" d="M962.7,522.16a5.1,5.1,0,0,0-4.18,4l-.18,0c-1,.11-.76-1.08-1.33-1.41l.12-.21-.12.18,0,0-.29-.14a11,11,0,0,1,2.44-3.36,1.54,1.54,0,0,1,2.12-.24C961.87,521.12,962.21,521.59,962.7,522.16Z" transform="translate(-871.35 -490)"/><path class="cls-2" d="M943.18,555.58v.09h-.07Z" transform="translate(-871.35 -490)"/><path class="cls-2" d="M959.16,526.83a.57.57,0,0,1,0,.13h0Z" transform="translate(-871.35 -490)"/><path class="cls-2" d="M961.64,524.16a3,3,0,0,0-.66.64A2.35,2.35,0,0,1,961.64,524.16Z" transform="translate(-871.35 -490)"/><path class="cls-2" d="M999.23,551.77c-.51.19-.76.08-.91-.16a2.77,2.77,0,0,1-.29-.81.69.69,0,0,1,0-.13.94.94,0,0,1,.51-.25C998.59,551,998.43,551.61,999.23,551.77Z" transform="translate(-871.35 -490)"/><path class="cls-4" d="M945.09,575.21c-.16-.17-.32-.32-.49-.47a4,4,0,0,1,.44.85,6.77,6.77,0,0,0,.33.66A7.61,7.61,0,0,1,945.09,575.21Zm1.39-43.52h0l0-.07A.24.24,0,0,0,946.48,531.69Zm-3.6,33.38v.08h0A.29.29,0,0,0,942.88,565.07ZM959.13,527h0a.57.57,0,0,0,0-.13Zm-11.88,3.28c0,.15,0,.31,0,.47a.32.32,0,0,1,0,.09,1.27,1.27,0,0,0,0-.28h0C947.26,530.41,947.25,530.32,947.25,530.23Zm-12.61,35.28.12.14a.36.36,0,0,0,0-.11Zm.62-16.29h0a1.6,1.6,0,0,1,0,.21.43.43,0,0,1,0,.07A.58.58,0,0,1,935.26,549.22Zm-2.08,15.58-.13.05.24.31C933.25,565,933.21,564.92,933.18,564.8Zm.49-2.91a.54.54,0,0,0,.05.11s0-.08,0-.11Zm-2.84,4.9c0,.13,0,.26,0,.39h0a3.17,3.17,0,0,1,.44-.12C931.2,567,931,566.88,930.83,566.79Zm-3-11.19s0,0,0,.07l0,0,0,0Zm17.26,19.61c-.16-.17-.32-.32-.49-.47a4,4,0,0,1,.44.85,6.77,6.77,0,0,0,.33.66A7.61,7.61,0,0,1,945.09,575.21Z" transform="translate(-871.35 -490)"/><path class="cls-5" d="M999.23,551.77c-.51.19-.76.08-.91-.16a2.77,2.77,0,0,1-.29-.81.69.69,0,0,1,0-.13.94.94,0,0,1,.51-.25C998.59,551,998.43,551.61,999.23,551.77Z" transform="translate(-871.35 -490)"/><path class="cls-6" d="M948.65,556.79c-.07.18-.15.35-.2.52v-.43A.52.52,0,0,0,948.65,556.79Z" transform="translate(-871.35 -490)"/><polygon class="cls-6" points="77.62 68.46 77.63 68.45 77.62 68.47 77.62 68.46"/><path class="cls-6" d="M949.18,557.46a1.2,1.2,0,0,1-.2,1C949,558.12,949.11,557.79,949.18,557.46Z" transform="translate(-871.35 -490)"/><path class="cls-6" d="M949.33,556.73l-.15.73A1.09,1.09,0,0,1,949.33,556.73Z" transform="translate(-871.35 -490)"/><path class="cls-6" d="M945.37,576.25c-.12-.21-.23-.43-.34-.66a4,4,0,0,0-.43-.85c.17.15.33.3.49.47A7.24,7.24,0,0,0,945.37,576.25Z" transform="translate(-871.35 -490)"/><path class="cls-6" d="M943,565.2l-.1,0h0v-.08Z" transform="translate(-871.35 -490)"/><path class="cls-7" d="M945.37,576.25c-.12-.21-.23-.43-.34-.66a4,4,0,0,0-.43-.85c.17.15.33.3.49.47A7.24,7.24,0,0,0,945.37,576.25Z" transform="translate(-871.35 -490)"/><path class="cls-7" d="M998.52,550.42c-.06.4-.12.8-.2,1.19a2.77,2.77,0,0,1-.29-.81.69.69,0,0,1,0-.13A.94.94,0,0,1,998.52,550.42Z" transform="translate(-871.35 -490)"/><path class="cls-8" d="M934.78,565.54a.2.2,0,0,1,0,.11l-.11-.14Z" transform="translate(-871.35 -490)"/><path class="cls-9" d="M942.88,565.07h0v0Z" transform="translate(-871.35 -490)"/><path class="cls-9" d="M943.18,555.58v.09h-.07Z" transform="translate(-871.35 -490)"/><path class="cls-10" d="M930.83,566.79c0,.13,0,.26,0,.39h0a3.45,3.45,0,0,1,.43-.12C931.19,567,931,566.89,930.83,566.79Zm-3-11.12,0,0,0,0-.07-.07S927.82,555.64,927.82,555.67Z" transform="translate(-871.35 -490)"/><path class="cls-11" d="M961.64,524.16a3,3,0,0,0-.66.64A2.35,2.35,0,0,1,961.64,524.16Z" transform="translate(-871.35 -490)"/><path class="cls-12" d="M935.32,549.51a.43.43,0,0,0,0-.07,1.6,1.6,0,0,0,0-.21h0A.58.58,0,0,0,935.32,549.51Z" transform="translate(-871.35 -490)"/><path class="cls-13" d="M946.56,531.63l0,.07h0A.24.24,0,0,1,946.56,531.63Z" transform="translate(-871.35 -490)"/><path class="cls-14" d="M947.26,530.51a2.53,2.53,0,0,1,0,.28l0-.09A1.33,1.33,0,0,0,947.26,530.51Z" transform="translate(-871.35 -490)"/><path class="cls-15" d="M959.16,526.83a.57.57,0,0,1,0,.13h0Z" transform="translate(-871.35 -490)"/><path class="cls-15" d="M961.64,524.16a3,3,0,0,0-.66.64A2.35,2.35,0,0,1,961.64,524.16Z" transform="translate(-871.35 -490)"/><path class="cls-16" d="M933.18,564.8c0,.12.07.24.11.36l-.24-.31Z" transform="translate(-871.35 -490)"/><path class="cls-16" d="M933.74,561.89s0,.07,0,.11a.54.54,0,0,1-.05-.11Z" transform="translate(-871.35 -490)"/><path class="cls-4" d="M943,565.2l-.1,0h0v-.08Z" transform="translate(-871.35 -490)"/><path class="cls-4" d="M943.18,555.58v.09h-.07Z" transform="translate(-871.35 -490)"/><path class="cls-17" d="M957.13,524.55l-.12.21h0l0,0Z" transform="translate(-871.35 -490)"/><path class="cls-18" d="M935,561.68h0s0,0,0,0h0Z" transform="translate(-871.35 -490)"/><path class="cls-2" d="M933.74,561.89s0,.07,0,.11a.54.54,0,0,1-.05-.11Z" transform="translate(-871.35 -490)"/><path d="M999.19,546.88c-1.12-7.89-4.61-14.33-11.73-18.36a4.62,4.62,0,0,1-2.74-3.41c-.51-2.65-2.74-3.88-5-2.91a3.92,3.92,0,0,1-4.86-1c-1.52-1.54-3.06-1.77-4.46-1a9,9,0,0,0-2.22,2c-1.29,1.54-1.66,1.57-3.26.32-.33-.26-.65-.55-1-.83-3.29-3-4.45-2.86-7.13.68a2.14,2.14,0,0,0-.19.26c-.46.8-.94,1-1.91.54a6.23,6.23,0,0,0-7.48,1.8c-.56.66-.48,2-1.51,2a8,8,0,0,1-2.56-.82l-.31-.09a2.39,2.39,0,0,0-3.41,2.16,21.69,21.69,0,0,0-.33,3.49c.11,2.67-1.3,4.09-3.66,4.84a6,6,0,0,0-4.3,4.29c-.39,1.36-.07,2.76-.17,4.13a6,6,0,0,1-1.53,2.18,5.08,5.08,0,0,0-1.69,3.16,24.27,24.27,0,0,1-.86,4.15,39.08,39.08,0,0,0-2,12v.08c-.22,6,.42,11.85,3.39,17.21,2.72,4.92,7,7.05,12.5,6.28a21.19,21.19,0,0,0,6.75-2.31c7.61-3.93,15.15-8,22.57-12.23a265.1,265.1,0,0,0,24-15.15,11.83,11.83,0,0,0,5.16-8.62c-.51.19-.76.08-.92-.16a12,12,0,0,1-4.65,7.8c-1.94,1.4-3.9,2.78-5.9,4.09a436,436,0,0,1-41.71,23.81,16.53,16.53,0,0,1-7.2,1.87,9.87,9.87,0,0,1-9-4.85,3.6,3.6,0,0,1-1-1.71c-2-3.36-2.58-7.06-2.89-10.82v0l-.06-.84a2.76,2.76,0,0,0,.09-.71h0a.67.67,0,0,1,.27-.51,27.66,27.66,0,0,0,.92,5,26.41,26.41,0,0,0,4.9,9c.53.43,1,.9,1.59,1.3,2.2,1.59,4.58,2.26,7.15,1s3.94-3.68,4.33-6.57c.23-1.63-.52-3.12-.58-4.7-1-2.78-1.11-5.74-1.69-8.61l0-1v-.08l.13.12a39.26,39.26,0,0,1-.15-4.34h0c0-1.73.13-3.46.31-5.18h-.07l.08-.09c1.49-9.74,5.67-18,13.93-23.62,8.61-5.88,17.92-7.57,27.86-3.56a9.88,9.88,0,0,1,2.9,1.63l2.66,2c4.18,3.5,6.34,8.12,7.36,13.36.31,1.66.42,3.35.63,5,.07.53-.09,1.19.71,1.35A10.24,10.24,0,0,0,999.19,546.88Zm-40.06-25.63a1.54,1.54,0,0,1,2.12-.24c.62.11,1,.58,1.45,1.14a5.1,5.1,0,0,0-4.17,4l-.19,0c-1,.11-.76-1.08-1.33-1.41h0l-.29-.14A11.11,11.11,0,0,1,959.13,521.25Zm-6.27,2.44c.84-.2,1.41.53,2.16.63.19.21.39.41.58.61a9.77,9.77,0,0,1,1.07,1.26c.77,1.15.48,1.76-.9,1.89a22,22,0,0,1-2.69,0,4.72,4.72,0,0,0-4.58,2.78c-.16.31-.17.84-.61.81s-.51-.52-.65-.88a.32.32,0,0,0,0-.09l-.36-1.43C947.47,525.3,949.3,523.6,952.86,523.69Zm-12.46,5.45c.24-2.22.79-2.58,2.83-1.68,1.75.15,2.9.87,2.87,2.84a2,2,0,0,0,.46,1.33l0,.07a.65.65,0,0,0,0,.2c1.73,1.92,1.68,3.62-.51,5.34-1.57,1.23-3.28,2.54-5.57,2a1,1,0,0,1-.82,0,.84.84,0,0,1-.26-.81C939.7,535.27,940.07,532.21,940.4,529.14Zm-.1,11.19c.54,0,.39.32.08.55a7.22,7.22,0,0,0-.44,7.7c.32.67.84,1.46.17,2s-1.46,0-2.11-.27a6.35,6.35,0,0,1-2.27-1.91l-.41-.53a1.94,1.94,0,0,1,0-.24c-.83-3.44,0-5.35,3.13-7.11l.43-.07A7.51,7.51,0,0,1,940.3,540.33Zm-2.47,19.18a1.41,1.41,0,0,1-.28,1.34,7.39,7.39,0,0,0-1.41,2.83c-.18.64-.55,1-1.27.86-1.16-.16-.71-.95-.63-1.6l.3-.27c.05,0,.11-.09.15-.14a.78.78,0,0,0,.26-.84,3.53,3.53,0,0,1-.46-.51h0a1.48,1.48,0,0,1,.38-2.15l0,0c.53-.46.47-.76,0-1.29l0,0c-1.19-1.47-1-2.18.57-2.89l.26-.11c.77-.31.45-.62.16-.93l-.17-.22c-.72-1.06-.62-1.69.43-2.25l.22-.1.23-.11h0a.86.86,0,0,1,0-.23,3.34,3.34,0,0,0,2.19,1c.39,0,.94-.25,1.08.28s-.27,1-.67,1.32A6.5,6.5,0,0,0,937.83,559.51Zm-7.16-12a6.28,6.28,0,0,0,1.68-4.81c-.18-2.75.52-3.81,3-4.92.87-.38,1.71-.86,2.58-1.23s.42.33.45.64a3.11,3.11,0,0,1-1.72,3.35,6,6,0,0,0-1.49,8.71h0v0h0a.58.58,0,0,0,.06.29c.12.26.34.5.06.86-1.44,1.79-1.32,4.21-2.41,6.15,0,0,0,.09,0,.14s0,.11,0,.17a5,5,0,0,1,.47.79,1.49,1.49,0,0,1,0,1.38,3,3,0,0,0,.16,2.89h.07s0,.07,0,.11a2.82,2.82,0,0,0-.54,2.8c0,.12.07.24.11.36-.6.26-.91,1.32-1.84.66a2.56,2.56,0,0,1-1.81-3.77,7.71,7.71,0,0,1,1.15-1.7,3.72,3.72,0,0,0,.07-5l0,0-.07-.09-.08-.1C928,552.1,928,550.47,930.67,547.46Zm-2.85,8.21s0,0,0-.07l.5-1.5c.58.63,1.07,1.15,1.54,1.68a2.65,2.65,0,0,1,0,4,6.55,6.55,0,0,0-1.46,2.61,3.55,3.55,0,0,0,2.37,4.42c.18.09.37.18.53.28a.86.86,0,0,1,.37,1,5,5,0,0,0,.89,3.48,1.44,1.44,0,0,1-.49,2.19,7.86,7.86,0,0,0-2.83,3.46C926.37,569.91,926.55,562.82,927.82,555.67ZM943.46,575a8.24,8.24,0,0,1-.93,8.32c-2.79,3.36-6.81,3-9.83-.88a6.17,6.17,0,0,1-1.89-2.4c-1.07-1.64-.66-3.35,1.21-4.95,2.36-2,2.37-2,1.07-4.84a3.79,3.79,0,0,1,0-3.35,4.92,4.92,0,0,1,.24-.45l1.09-.73.24-.22.14,0c1.76.33.82,1.86,1.14,2.83,1.33,3.08,3.32,5.42,6.82,6.08A1,1,0,0,1,943.46,575Zm-.76-2c-.44.35-.92,0-1.34-.16a3.77,3.77,0,0,1-1.61-.92c-3.16-2.66-3.88-6.84-1.74-9.92.4-.57.73-1,1.09,0,.76.25,1,1.19,1.92,1.27a2.08,2.08,0,0,1,.94,2,32.82,32.82,0,0,0,.84,6.4C942.91,572.13,943.14,572.66,942.7,573Zm34.63-47.74-5.18,0a39.12,39.12,0,0,0-8.85,2.19c-.72.3-1.45.58-2.18.87q-3,1.86-6,3.69a36,36,0,0,0-12.42,20.18c-.11.93-.23,1.86-.35,2.79,0,.11,0,.22,0,.33l0,.53a19.48,19.48,0,0,0-.49,5.27c0,.95-.3,1.2-.86,1.06h0a2.87,2.87,0,0,1-.51-.18h0c-.35-.88-1.3-1.39-1.47-2.38l-.21-.67c0-.12-.08-.25-.11-.37a5.79,5.79,0,0,1,1.3-4.3,6.58,6.58,0,0,0,1.5-5c-.32-.71-.65-1.43-1-2.15a5.57,5.57,0,0,1,3.41-7.35,7.46,7.46,0,0,0,5.19-6.89c.24-2.68,1.92-3.88,5.11-3.71,2.06.12,3.77-.29,5-2.11l0,0,0-.12c.23-.41.47-.82.68-1.25,1.14-2.27,2.42-2.76,4.83-1.84a3.18,3.18,0,0,1,1.33.87c1.45.09,2.25-.86,3.11-1.83,1-1.13,2-2.62,3.93-1.67.65.52,1.33,1,1.92,1.57a4.45,4.45,0,0,0,3,1,6.09,6.09,0,0,0,2.12-.58,2,2,0,0,1,2.56.53c1.06.68,1.18,1.78,1.39,3.12A56.48,56.48,0,0,0,977.33,525.27Z" transform="translate(-871.35 -490)"/><path class="cls-3" d="M942.7,573c-.44.34-.92,0-1.34-.17a3.77,3.77,0,0,1-1.61-.92c-3.16-2.66-3.88-6.84-1.74-9.92.4-.57.73-1,1.09,0,.76.25,1,1.19,1.92,1.27a2.07,2.07,0,0,1,.94,2,32.82,32.82,0,0,0,.84,6.4C942.91,572.13,943.14,572.66,942.7,573Z" transform="translate(-871.35 -490)"/><path class="cls-3" d="M932.13,573.71a7.86,7.86,0,0,0-2.83,3.46c-2.93-7.26-2.75-14.35-1.48-21.5l0,0,0,0-.07-.07.5-1.5c.58.63,1.07,1.15,1.54,1.68a2.65,2.65,0,0,1,0,4,6.41,6.41,0,0,0-1.45,2.61,3.54,3.54,0,0,0,2.36,4.42c0,.13,0,.26,0,.39h0a3.45,3.45,0,0,1,.43-.12.86.86,0,0,1,.38,1,5,5,0,0,0,.89,3.48A1.44,1.44,0,0,1,932.13,573.71Z" transform="translate(-871.35 -490)"/><path class="cls-13" d="M957.13,524.55l-.12.21h0l0,0Z" transform="translate(-871.35 -490)"/><path class="cls-19" d="M946,537.24c-1.57,1.23-3.28,2.54-5.57,2a1,1,0,0,1-.82,0,.86.86,0,0,1-.27-.81c.36-3.07.73-6.13,1.06-9.19.23-2.24.79-2.59,2.83-1.69,1.75.14,2.9.87,2.87,2.84a2,2,0,0,0,.46,1.33.24.24,0,0,0-.08.06h0a.44.44,0,0,0,0,.2C948.24,533.82,948.19,535.52,946,537.24Z" transform="translate(-871.35 -490)"/><path class="cls-20" d="M955.77,528.07a20.12,20.12,0,0,1-2.69,0,4.72,4.72,0,0,0-4.58,2.78c-.16.31-.16.84-.61.81s-.51-.51-.64-.88h0a2.53,2.53,0,0,0,0-.28h0c0-.1,0-.19,0-.28,0,.15,0,.31,0,.47l-.36-1.43c.62-4,2.45-5.67,6-5.58.84-.2,1.41.53,2.16.63.19.21.38.41.58.61a9.77,9.77,0,0,1,1.07,1.26C957.44,527.35,957.15,528,955.77,528.07Z" transform="translate(-871.35 -490)"/><path class="cls-20" d="M940.38,540.88a7.2,7.2,0,0,0-.44,7.7c.32.67.84,1.46.17,2s-1.46,0-2.11-.27a6.19,6.19,0,0,1-2.27-1.92c-.14-.17-.28-.34-.41-.52a1.94,1.94,0,0,1,0-.24c-.83-3.44,0-5.35,3.13-7.11l.44-.07a7.33,7.33,0,0,1,1.4-.16C940.84,540.35,940.69,540.65,940.38,540.88Z" transform="translate(-871.35 -490)"/><path class="cls-19" d="M942.53,583.33c-2.79,3.36-6.81,3-9.83-.88a6.17,6.17,0,0,1-1.89-2.4c-1.07-1.64-.66-3.35,1.21-4.94,2.36-2,2.37-2,1.08-4.85a3.79,3.79,0,0,1,0-3.35,4.92,4.92,0,0,1,.24-.45l1.09-.73.24-.22.11.14a.2.2,0,0,0,0-.11c1.76.33.82,1.86,1.14,2.83,1.33,3.08,3.32,5.42,6.82,6.08a1,1,0,0,1,.72.57A8.23,8.23,0,0,1,942.53,583.33Z" transform="translate(-871.35 -490)"/><path class="cls-3" d="M938.42,537.14a3.11,3.11,0,0,1-1.72,3.35,6,6,0,0,0-1.49,8.71l0,0a1.6,1.6,0,0,1,0,.21.43.43,0,0,1,0,.07c.12.26.34.5.06.86-1.44,1.79-1.32,4.21-2.41,6.15,0,0,0,.09,0,.14s0,.11,0,.17a5,5,0,0,1,.47.79,1.49,1.49,0,0,1,0,1.38,3,3,0,0,0,.16,2.89.54.54,0,0,0,.05.11,2.82,2.82,0,0,0-.54,2.8l-.13.05.24.31c-.6.26-.91,1.32-1.84.66a2.56,2.56,0,0,1-1.81-3.77,7.71,7.71,0,0,1,1.15-1.7,3.72,3.72,0,0,0,.07-5l0,0-.07-.09-.08-.1c-2.7-3-2.73-4.68,0-7.69a6.28,6.28,0,0,0,1.68-4.81c-.18-2.75.52-3.81,3-4.92.87-.38,1.71-.86,2.58-1.23S938.39,536.83,938.42,537.14Z" transform="translate(-871.35 -490)"/><path class="cls-3" d="M982.66,523.67a2,2,0,0,0-2.56-.53,6.09,6.09,0,0,1-2.12.58,4.45,4.45,0,0,1-3-1c-.59-.57-1.27-1-1.92-1.57-1.94-1-2.91.54-3.93,1.67-.86,1-1.66,1.92-3.11,1.83a3.18,3.18,0,0,0-1.33-.87c-2.41-.92-3.69-.43-4.83,1.84-.21.43-.45.84-.68,1.25a.57.57,0,0,1,0,.13h0l0,0c-1.18,1.82-2.89,2.23-5,2.11-3.19-.17-4.87,1-5.11,3.71a7.46,7.46,0,0,1-5.19,6.89,5.57,5.57,0,0,0-3.41,7.35c.32.72.65,1.44,1,2.15a6.58,6.58,0,0,1-1.5,5,5.79,5.79,0,0,0-1.3,4.3c0,.12.08.25.11.37l.21.67c.17,1,1.12,1.5,1.47,2.38h0a2.87,2.87,0,0,0,.51.18h0c.56.14.84-.11.86-1.06a19.48,19.48,0,0,1,.49-5.27l0-.53c0-.11,0-.22,0-.33.12-.93.24-1.86.35-2.79A36,36,0,0,1,955.1,532q3-1.83,6-3.69c.73-.29,1.46-.57,2.18-.87a39.12,39.12,0,0,1,8.85-2.19l5.18,0a56.48,56.48,0,0,1,6.72,1.52C983.84,525.45,983.72,524.35,982.66,523.67ZM961,524.8a2.35,2.35,0,0,1,.66-.64A3,3,0,0,0,961,524.8Z" transform="translate(-871.35 -490)"/><path class="cls-2" d="M935,561.68h0s0,0,0,0v0Z" transform="translate(-871.35 -490)"/><path class="cls-6" d="M998,550.67a.94.94,0,0,1,.51-.25c-.2-1.69-.32-3.39-.64-5-1-5.24-3.17-9.86-7.35-13.36l-2.66-2a9.88,9.88,0,0,0-2.9-1.63c-9.94-4-19.25-2.32-27.86,3.56-8.27,5.65-12.44,13.88-13.93,23.62v.09c-.17,1.72-.29,3.45-.31,5.18h0a39.43,39.43,0,0,0,.15,4.34l-.1,0h0l0,1c.58,2.87.67,5.83,1.69,8.61.17.15.33.3.49.47a7.24,7.24,0,0,0,.28,1c-.12-.21-.23-.43-.34-.66a4,4,0,0,0-.43-.85c.06,1.58.81,3.07.58,4.7-.39,2.89-1.62,5.26-4.33,6.57s-5,.58-7.15-1c-.55-.4-1.06-.86-1.59-1.3a24.18,24.18,0,0,1-5.82-14,.67.67,0,0,0-.27.51h0a2.39,2.39,0,0,1-.09.71c0,.28,0,.56.07.84v0c.31,3.77.92,7.46,2.88,10.82a3.62,3.62,0,0,0,1,1.71,9.85,9.85,0,0,0,9,4.85,16.53,16.53,0,0,0,7.2-1.87,433.82,433.82,0,0,0,41.71-23.81c2-1.31,4-2.7,5.9-4.1a12,12,0,0,0,4.66-7.79,2.77,2.77,0,0,1-.29-.81A.69.69,0,0,1,998,550.67ZM926.85,575c0-.12-.06-.24-.08-.36l0,.07.06.27Zm45.45-44.21c-6.5.79-11.58,4-15.63,9a32.28,32.28,0,0,0-7.34,16.88l-.15.73a1.2,1.2,0,0,1-.2,1v0h0c-.39-.5-.18-1.12-.32-1.67-.07.18-.15.35-.2.52v-.43a.52.52,0,0,0,.2-.09c.56-11.23,8.73-22.47,18.67-25.63a17.76,17.76,0,0,1,10.06-.34A50.64,50.64,0,0,0,972.3,530.83Z" transform="translate(-871.35 -490)"/><path class="cls-21" d="M926.86,575v0c0-.12-.06-.24-.08-.36l0,.07Z" transform="translate(-871.35 -490)"/><path class="cls-22" d="M935,561.68h0s0,0,0,0h0Z" transform="translate(-871.35 -490)"/><path class="cls-19" d="M939.86,552.09c-.14-.53-.69-.28-1.08-.28a3.29,3.29,0,0,1-2.18-1,.88.88,0,0,0,0,.23h0l-.23.11-.22.1c-1,.56-1.15,1.19-.43,2.25a1.68,1.68,0,0,0,.18.21c.28.32.6.63-.17.94l-.26.11c-1.61.71-1.76,1.42-.57,2.89l0,0c.44.53.5.83,0,1.29l0,0a1.48,1.48,0,0,0-.37,2.16h0a2.94,2.94,0,0,0,.45.51.78.78,0,0,1-.26.84c0,.05-.1.09-.15.14l-.3.27c-.08.65-.53,1.44.63,1.6.72.16,1.1-.22,1.27-.86a7.39,7.39,0,0,1,1.41-2.83,1.41,1.41,0,0,0,.28-1.34,6.5,6.5,0,0,1,1.36-6.1C939.59,553.06,940,552.62,939.86,552.09Zm-4.91,9.6s0,0,0,0h0Z" transform="translate(-871.35 -490)"/><path d="M977.38,530.82a50.64,50.64,0,0,0-5.08,0c-6.5.79-11.58,4-15.63,9a32.28,32.28,0,0,0-7.34,16.88,1.09,1.09,0,0,0-.15.73c-.07.33-.14.66-.2,1h0c-.39-.5-.18-1.12-.32-1.67.56-11.23,8.73-22.47,18.67-25.63A17.76,17.76,0,0,1,977.38,530.82Z" transform="translate(-871.35 -490)"/><path class="cls-23" d="M949,558.45c.06-.33.13-.66.2-1A1.2,1.2,0,0,1,949,558.45Z" transform="translate(-871.35 -490)"/><path class="cls-24" d="M948.65,556.79c-.07.18-.15.35-.2.52v-.43A.52.52,0,0,0,948.65,556.79Z" transform="translate(-871.35 -490)"/><path class="cls-25" d="M949,558.45c.06-.33.13-.66.2-1A1.2,1.2,0,0,1,949,558.45Z" transform="translate(-871.35 -490)"/><path class="cls-22" d="M935,561.68h0s0,0,0,0h0Z" transform="translate(-871.35 -490)"/></svg>