<svg id="Livello_1" data-name="Livello 1" xmlns="http://www.w3.org/2000/svg" viewBox="0 0 72.89 67.81"><defs><style>.cls-1{fill:#162931;}.cls-2{fill:#fff;}.cls-3{fill:#fdb301;}.cls-4{fill:#f3f7f2;}</style></defs><title>uovo</title><path class="cls-1" d="M957,506.7c4.15.29,8.24-.47,12.36-.67a27.6,27.6,0,0,1,17.82,5.49c6.12,4.42,10.12,10.37,11,18.16.46,4.14-.36,7.79-3.29,10.82a16.63,16.63,0,0,0-4.16,8.88c-1.12,6.19-4.71,9.75-10.67,11.23-1.48.36-2.88,1.07-4.37,1.36a13.35,13.35,0,0,0-8.39,5.39c-4.87,6.61-10.9,7.81-18.46,5.08-7.8-2.83-14.85-6.17-19.73-13.48-4.65-6.94-5-13.44-.54-20.34a27.72,27.72,0,0,1,3.47-5c3.28-3.16,2.72-7.27,3.13-11.11.5-4.79,2-8.92,5.63-12.31,2.83-2.67,6.18-3.41,9.82-3.52C952.77,506.65,954.9,506.7,957,506.7Zm-1.22,1.78c-1.27-.08-2.55-.22-3.82-.24-2.62,0-5.56-.25-7.66,1.1-4.24,2.71-7.28,6.56-7.42,12s-1.13,10.59-5.09,14.84a19,19,0,0,0-5,10.86c-.75,6.34,3,10.93,6.72,15.25,4,4.54,9.47,6.63,15,8.78C956,574,962,572.67,966.77,566a13.69,13.69,0,0,1,8-5.15c2.21-.58,4.31-1.6,6.52-2.15,5.3-1.31,7.71-4.87,8.25-10a14,14,0,0,1,4.29-8.79c2.81-2.69,3.38-6,3.12-9.57-1-13.3-14.11-22.49-25.63-23.1C966.08,506.91,961.06,509.08,955.81,508.48Z" transform="translate(-925.43 -506)"/><path class="cls-2" d="M955.81,508.48c5.25.6,10.27-1.57,15.5-1.3,11.52.61,24.67,9.8,25.63,23.1.26,3.57-.31,6.88-3.12,9.57a14,14,0,0,0-4.29,8.79c-.54,5.16-2.95,8.72-8.25,10-2.21.55-4.31,1.57-6.52,2.15a13.69,13.69,0,0,0-8,5.15c-4.77,6.7-10.77,8-18.3,5.09-5.5-2.15-11-4.24-15-8.78-3.77-4.32-7.47-8.91-6.72-15.25a19,19,0,0,1,5-10.86c4-4.25,4.94-9.36,5.09-14.84s3.18-9.28,7.42-12c2.1-1.35,5-1.13,7.66-1.1C953.26,508.26,954.54,508.4,955.81,508.48Zm2.39,14c-8.1.1-15.68,6.82-15.51,13.76.26,10.54,7.78,18.74,17.07,18.6,9.52-.14,16.67-8.18,16.66-18.48C976.42,529.22,968.45,522.44,958.2,522.52Z" transform="translate(-925.43 -506)"/><path class="cls-1" d="M958.2,522.52c10.25-.08,18.22,6.7,18.22,13.88,0,10.3-7.14,18.34-16.66,18.48-9.29.14-16.81-8.06-17.07-18.6C942.52,529.34,950.1,522.62,958.2,522.52Zm.64,31.17c10.43-.54,17.09-8.05,16.18-18.1-.45-5-4.27-7.86-8.76-10.07-8.65-4.26-15.64-.94-20.14,4.92a9.82,9.82,0,0,0-2.15,6.89c.29,4.19,2,7.57,4.65,10.9A14.15,14.15,0,0,0,958.84,553.69Z" transform="translate(-925.43 -506)"/><path class="cls-3" d="M958.84,553.69a14.15,14.15,0,0,1-10.22-5.46c-2.62-3.33-4.36-6.71-4.65-10.9a9.82,9.82,0,0,1,2.15-6.89c4.5-5.86,11.49-9.18,20.14-4.92,4.49,2.21,8.31,5.06,8.76,10.07C975.93,545.64,969.27,553.15,958.84,553.69Zm-12.41-16.47a9.18,9.18,0,0,0,.58,3.49c.42,1,1,1.86,2.18,1.78s1.72-1.13,1.74-2.15a13.79,13.79,0,0,1,2-6.64,2.67,2.67,0,0,0-.42-3.49c-1.23-1-2.36-.24-3.35.69A7.83,7.83,0,0,0,946.43,537.22Z" transform="translate(-925.43 -506)"/><path class="cls-1" d="M946.42,537.22a7.87,7.87,0,0,1,2.7-6.32c1-.93,2.12-1.66,3.35-.69a2.67,2.67,0,0,1,.42,3.49,13.79,13.79,0,0,0-2,6.64c0,1-.44,2.08-1.74,2.15s-1.76-.8-2.18-1.78A9.39,9.39,0,0,1,946.42,537.22Zm1.12-.54a9,9,0,0,0,.71,3.48c.15.37.41.83.91.64a1.06,1.06,0,0,0,.46-.8,17.66,17.66,0,0,1,1.94-6.81c.22-.43.36-1.09-.18-1.37a1.35,1.35,0,0,0-1.42.33A5.52,5.52,0,0,0,947.54,536.68Z" transform="translate(-925.43 -506)"/><path class="cls-4" d="M947.54,536.68a5.52,5.52,0,0,1,2.42-4.53,1.35,1.35,0,0,1,1.42-.33c.54.28.4.94.18,1.37a17.66,17.66,0,0,0-1.94,6.81,1.06,1.06,0,0,1-.46.8c-.5.19-.76-.27-.91-.64A9,9,0,0,1,947.54,536.68Z" transform="translate(-925.43 -506)"/></svg>